<svg xmlns="http://www.w3.org/2000/svg" xmlns:xlink="http://www.w3.org/1999/xlink" width="204" height="204" viewBox="0 0 204 204"><defs><style>.a{opacity:0.05;fill:url(#a);}.b{fill:#fff;stroke:#707070;opacity:0;}.c{fill:url(#b);}.d{stroke:none;}.e{fill:none;}</style><linearGradient id="a" x1="0.5" x2="0.5" y2="1" gradientUnits="objectBoundingBox"><stop offset="0" stop-color="#571c56"/><stop offset="0.47" stop-color="#fc1141"/><stop offset="1" stop-color="#fcd000"/></linearGradient><linearGradient id="b" x1="0.913" y1="0.153" x2="0.086" y2="1.069" xlink:href="#a"/></defs><g transform="translate(-858 -1826)"><circle class="a" cx="102" cy="102" r="102" transform="translate(858 1826)"/><g transform="translate(15487 4178)"><g class="b" transform="translate(-14592 -2315)"><rect class="d" width="130" height="130"/><rect class="e" x="0.5" y="0.5" width="129" height="129"/></g><path class="c" d="M137.818,21.938H109.11a2.48,2.48,0,1,0,0,4.96h28.708c2.358,0,4.161,2.342,4.161,5.235v.138H22.154v-.138c0-2.893,1.942-5.235,4.161-5.235H78.6a2.48,2.48,0,1,0,0-4.96H26.315C21.322,21.938,17.3,26.484,17.3,32v75.5c0,5.511,4.022,10.058,9.015,10.058H67.366L65.979,133.26H56.687a2.48,2.48,0,1,0,0,4.96h50.9a2.48,2.48,0,1,0,0-4.96H98.293l-1.387-15.706h41.051c4.993,0,9.015-4.547,9.015-10.058V31.858c0-5.511-4.161-9.92-9.153-9.92Zm4.3,15.017V98.4H22.154V36.955ZM93.3,133.122H70.833l1.387-15.706H91.913Zm44.518-20.528H26.315c-2.358,0-4.161-2.342-4.161-5.235v-4.409H142.118V107.5C142.118,110.252,140.176,112.594,137.818,112.594ZM92.745,26.76H95.1a2.48,2.48,0,1,0,0-4.96H92.745a2.478,2.478,0,0,0-2.5,2.48A2.57,2.57,0,0,0,92.745,26.76Zm20.8,41.332L97.322,60.1a2.338,2.338,0,0,0-3.19,1.1,2.309,2.309,0,0,0,1.109,3.169L107.03,70.3,95.1,76.083a2.348,2.348,0,0,0-1.109,3.169,2.472,2.472,0,0,0,2.219,1.378,3.281,3.281,0,0,0,1.109-.276l16.226-7.991a2.453,2.453,0,0,0,1.387-2.2A2.256,2.256,0,0,0,113.548,68.092ZM70.139,61.2a2.377,2.377,0,0,0-3.19-1.1L50.723,68.092a2.445,2.445,0,0,0,0,4.409l16.088,7.991a3.282,3.282,0,0,0,1.109.276,2.639,2.639,0,0,0,2.219-1.378,2.309,2.309,0,0,0-1.109-3.169L57.1,70.3,69.03,64.51A2.5,2.5,0,0,0,70.139,61.2ZM89,54.315a2.393,2.393,0,0,0-3.19,1.24L73.745,83.937a2.393,2.393,0,1,0,4.438,1.791l12.2-28.244A2.5,2.5,0,0,0,89,54.315Z" transform="translate(-14609.3 -2329.846)"/></g></g></svg>