<svg xmlns="http://www.w3.org/2000/svg" xmlns:xlink="http://www.w3.org/1999/xlink" width="604" height="498" viewBox="0 0 604 498"><defs><style>.a{opacity:0.14;fill:url(#a);}.b,.i{fill:none;}.b{stroke:#571c56;stroke-dasharray:12;}.c{fill:#fff;opacity:0;}.d{fill:#fcbd06;}.e{fill:#771951;}.f{fill:#fc193d;}.g{fill:#571c56;}.h{stroke:none;}</style><linearGradient id="a" x1="0.236" x2="0.672" y2="1" gradientUnits="objectBoundingBox"><stop offset="0" stop-color="#fcbd06"></stop><stop offset="1" stop-color="#fc193d"></stop></linearGradient></defs><g transform="translate(-264 -2320)"><ellipse class="a" cx="147.721" cy="147.721" rx="147.721" ry="147.721" transform="translate(572.558 2420.779)"></ellipse><g class="b" transform="translate(264 2320)"><circle class="h" cx="249" cy="249" r="249"></circle><circle class="i" cx="249" cy="249" r="248.5"></circle></g><g transform="translate(-5124 2988)"><rect class="c" width="300" height="260" rx="5" transform="translate(5487 -549)"></rect><g transform="translate(5506 -550)"><path class="d" d="M5,42H46.935v71.29H5Z" transform="translate(12.774 130.935)"></path><path class="d" d="M129.032,52.66,118.9,50.132l5.372-8.949L101.85,18.76,92.9,24.132,90.372,14H58.66L56.132,24.132,47.183,18.76,24.76,41.183l5.372,8.949L20,52.66V84.372L30.132,86.9,24.76,95.854l22.423,22.419,8.949-5.372,2.529,10.132H90.372L92.9,112.9l8.949,5.372,22.423-22.419L118.9,86.9l10.132-2.529ZM74.516,93.677A25.161,25.161,0,1,1,99.677,68.516,25.16,25.16,0,0,1,74.516,93.677Z" transform="translate(60.677 41.516)"></path><path class="e" d="M221.5,193.9a33.547,33.547,0,0,0-29.011,16.774H166.95A109.028,109.028,0,1,0,16.091,105.839H2.865l29.921,35.905,29.921-35.905H49.673a75.485,75.485,0,1,1,75.371,79.677H78.915v50.323H189.05A33.532,33.532,0,1,0,221.5,193.9Zm-96.452,0a83.871,83.871,0,1,0-83.871-83.871v4.194H44.8L32.786,128.643,20.771,114.226H24.4v-4.194A100.645,100.645,0,1,1,125.044,210.677H87.3V193.9ZM87.3,227.452v-8.387H189.05a33.349,33.349,0,0,0-1.1,8.387ZM221.5,252.613a25.161,25.161,0,1,1,25.161-25.161A25.187,25.187,0,0,1,221.5,252.613Z" transform="translate(5.956 0)"></path><path class="f" d="M80.648,52.293l-18,18-5.422-5.422-5.93,5.93L62.645,82.155,86.578,58.223Z" transform="translate(160.613 163.807)"></path><path class="g" d="M63.9,37H13.581A12.6,12.6,0,0,0,1,49.581v83.871a12.6,12.6,0,0,0,12.581,12.581H63.9a12.6,12.6,0,0,0,12.581-12.581V49.581A12.6,12.6,0,0,0,63.9,37ZM68.1,133.452a4.2,4.2,0,0,1-4.194,4.194H13.581a4.2,4.2,0,0,1-4.194-4.194V49.581a4.2,4.2,0,0,1,4.194-4.194H63.9A4.2,4.2,0,0,1,68.1,49.581Z" transform="translate(0 114.968)"></path><path class="g" d="M84.71,49.355A29.355,29.355,0,1,0,55.355,78.71,29.387,29.387,0,0,0,84.71,49.355Zm-50.323,0A20.968,20.968,0,1,1,55.355,70.323,20.992,20.992,0,0,1,34.387,49.355Z" transform="translate(79.839 60.677)"></path><path class="g" d="M55.161,36.581A12.581,12.581,0,1,0,42.581,49.161,12.6,12.6,0,0,0,55.161,36.581Zm-16.774,0a4.194,4.194,0,1,1,4.194,4.194A4.2,4.2,0,0,1,38.387,36.581Z" transform="translate(92.613 73.452)"></path><path class="f" d="M5,41H46.935v8.387H5Z" transform="translate(12.774 127.742)"></path><path class="f" d="M5,45H46.935v8.387H5Z" transform="translate(12.774 140.516)"></path><path class="f" d="M5,49H46.935v8.387H5Z" transform="translate(12.774 153.29)"></path><path class="f" d="M5,53H46.935v8.387H5Z" transform="translate(12.774 166.065)"></path><path class="g" d="M13,57h8.387v8.387H13Z" transform="translate(38.323 178.839)"></path><path class="g" d="M9,57h8.387v8.387H9Z" transform="translate(25.548 178.839)"></path><path class="g" d="M5,57h8.387v8.387H5Z" transform="translate(12.774 178.839)"></path></g></g></g></svg>