<svg xmlns="http://www.w3.org/2000/svg" xmlns:xlink="http://www.w3.org/1999/xlink" width="204" height="204" viewBox="0 0 204 204"><defs><style>.a{fill:#f1f4f8;}.b{fill:#fff;opacity:0;}.c{fill:url(#a);}</style><linearGradient id="a" x1="0.5" x2="0.5" y2="1" gradientUnits="objectBoundingBox"><stop offset="0" stop-color="#571c56"></stop><stop offset="0.47" stop-color="#e5153f"></stop><stop offset="1" stop-color="#fcd000"></stop></linearGradient></defs><g transform="translate(-1555 521)"><circle class="a" cx="102" cy="102" r="102" transform="translate(1555 -521)"></circle><g transform="translate(1 -15)"><rect class="b" width="116" height="116" transform="translate(1598 -462)"></rect><g transform="translate(1598 -458)"><path class="c" d="M-1549.047,562V513.048H-1598v-6.094h48.954V458h6.094v48.954h6.618v6.094h-6.618V562Zm-28.561-20.393a44.388,44.388,0,0,1-12.2-22.67h6.25a38.737,38.737,0,0,0,28.622,28.622v6.25A44.388,44.388,0,0,1-1577.607,541.608Zm58.443,9.409a12.826,12.826,0,0,1-12.826-12.825V488.219a12.826,12.826,0,0,1,12.826-12.826h.946a.008.008,0,0,0,.008-.008v-.9a5.5,5.5,0,0,1,5.5-5.5h11.429a5.5,5.5,0,0,1,5.5,5.5v.9a.008.008,0,0,0,.008.007h.946A12.825,12.825,0,0,1-1482,488.219v33.715a3.259,3.259,0,0,1-3.094,3.287,3.205,3.205,0,0,1-3.315-3.2v-33.8a6.417,6.417,0,0,0-6.416-6.417h-4.151a3.212,3.212,0,0,1-3.212-3.212V475.4a.008.008,0,0,0-.007-.008h-9.6a.008.008,0,0,0-.008.008v3.189a3.211,3.211,0,0,1-3.211,3.212h-4.151a6.417,6.417,0,0,0-6.417,6.417v49.974a6.417,6.417,0,0,0,6.417,6.416h24.339a6.467,6.467,0,0,0,6.417-6.458,3.205,3.205,0,0,1,3.036-3.151,3.251,3.251,0,0,1,3.371,3.372,12.832,12.832,0,0,1-12.817,12.646Zm5.76-21.149a.994.994,0,0,1,.1-.4l4.3-11.925a.008.008,0,0,0-.007-.01h-6.427a3.215,3.215,0,0,1-2.839-4.78l7.382-13.162a.006.006,0,0,1,.006,0h11.355a.007.007,0,0,1,.006.012l-5.849,9.429a.008.008,0,0,0,.006.012h7.408a2.349,2.349,0,0,1,1.762,3.893l-15.126,17.305a1.586,1.586,0,0,1-1.084.433h-.005C-1512.971,530.67-1513.406,530.371-1513.4,529.869Zm-51.784-10.93h10.251v10.251A21.308,21.308,0,0,1-1565.188,518.938Zm0-17.875a21.311,21.311,0,0,1,10.251-10.251v10.251Zm-24.621,0a44.4,44.4,0,0,1,12.2-22.67,44.388,44.388,0,0,1,22.67-12.2v6.25a38.737,38.737,0,0,0-28.622,28.622Z" transform="translate(1598 -458)"></path></g></g></g></svg>