<svg xmlns="http://www.w3.org/2000/svg" width="210.482" height="150" viewBox="0 0 210.482 150"><rect width="210" height="150" transform="translate(0.482)" fill="#3b2c2c" opacity="0"/><g transform="translate(0 54.9)"><path d="M114.354,134.864c.925,1.365,1.749,1.747,2.888,1.382,1.034-.335,1.49-1.159,1.49-2.711V116.183c0-1.66-.817-2.642-2.189-2.642-1.342,0-2.111.938-2.111,2.575,0,3.512.019,7.024,0,10.538a5.236,5.236,0,0,1-5.355,5.486,5.171,5.171,0,0,1-5.261-5.537c0-3.571.005-7.142,0-10.713a2.156,2.156,0,1,0-4.3-.019q0,5.71,0,11.421a9.382,9.382,0,0,0,8.847,9.036A10.183,10.183,0,0,0,114.354,134.864Zm34.979-.029c.095.194.15.322.221.445a2.148,2.148,0,0,0,2.522.992,2.091,2.091,0,0,0,1.532-2.042q.013-9.294.006-18.592a1.964,1.964,0,0,0-.847-1.669,2.124,2.124,0,0,0-2.267-.211,2.026,2.026,0,0,0-1.19,2q.009,5.53,0,11.065a5.258,5.258,0,0,1-6.735,5.13c-2.438-.647-3.874-2.648-3.883-5.454-.013-3.571,0-7.14-.006-10.713a2.075,2.075,0,0,0-2.079-2.252A2.1,2.1,0,0,0,134.4,115.7c-.019,3.984-.086,7.972.04,11.952a9.317,9.317,0,0,0,8.931,8.674A10.286,10.286,0,0,0,149.333,134.834Zm-57.516-20.87a3.63,3.63,0,0,1,.157-1.222,5.191,5.191,0,0,1,4.826-3.537,2.123,2.123,0,1,0-.04-4.222,9.383,9.383,0,0,0-9.344,9.192q-.023,9.917,0,19.831a3.237,3.237,0,0,0,.083.872,2.121,2.121,0,0,0,2.514,1.456,2,2,0,0,0,1.694-2.06q.015-7.524.005-15.049V118.14c1.214,0,2.363.032,3.509-.008a2.084,2.084,0,1,0-.083-4.167C94.045,113.956,92.957,113.964,91.816,113.964Zm33.678,0c0-2.263,0-4.412,0-6.561a2.156,2.156,0,0,0-2.122-2.421c-1.369-.023-2.174.87-2.174,2.423q0,9.917,0,19.831a9.3,9.3,0,0,0,9.63,9.12,2.009,2.009,0,0,0,1.163-.371,2.107,2.107,0,0,0,.8-2.353,2.025,2.025,0,0,0-1.942-1.412,5.315,5.315,0,0,1-5.379-5.655c.143-2.5.025-5.016.036-7.521,0-.28-.1-.586.154-.9,1.03,0,2.092.015,3.156,0a2.115,2.115,0,0,0,2.267-2.092,2.089,2.089,0,0,0-2.263-2.079C127.751,113.956,126.687,113.964,125.494,113.964Zm35.369,1.176c-.834-1.34-1.713-1.768-2.825-1.426-1.034.316-1.5,1.093-1.5,2.509V123.3c0,3.6-.008,7.2,0,10.8a2.04,2.04,0,0,0,2.246,2.258,2.1,2.1,0,0,0,2.094-2.347c.011-3.51,0-7.02,0-10.53,0-3.4,1.862-5.391,5.254-5.619a2.045,2.045,0,0,0,2.1-2.145,2.075,2.075,0,0,0-2.2-2.052A9.661,9.661,0,0,0,160.863,115.14Z" transform="translate(22.398 -104.979)" fill="#bb8ca8"/><path d="M68.547,140.664c-1.391-.592-1.737-1.666-1.727-3.114.051-8.678.023-17.358.028-26.038a2.209,2.209,0,0,1,4.3-.923,9.96,9.96,0,0,1,7.9-1.2,9.191,9.191,0,0,1,6.969,8.219,27.124,27.124,0,0,1-.1,6.71,9.428,9.428,0,0,1-9.683,7.561,11.1,11.1,0,0,1-5.041-1.445v2.033c0,1.683-.071,3.369.02,5.046a2.8,2.8,0,0,1-1.775,3.158C69.14,140.664,68.845,140.664,68.547,140.664Zm13.2-20.259h-.005c0-.767.028-1.534-.005-2.3a5.139,5.139,0,0,0-5.354-4.8,5.06,5.06,0,0,0-5.187,4.951c-.02,1.416-.008,2.831,0,4.247a5.174,5.174,0,0,0,5.251,5.2,5.232,5.232,0,0,0,5.3-5.17C81.751,121.823,81.744,121.113,81.744,120.4Z" transform="translate(-0.387 -100.468)" fill="#bb8ca8"/><path d="M78.7,140.665c-1.406-.729-1.608-1.938-1.6-3.4.05-8.591.023-17.181.028-25.768a2.173,2.173,0,0,1,2.663-2.381,2.091,2.091,0,0,1,1.623,1.454,13.421,13.421,0,0,1,2.658-1.148,9.506,9.506,0,0,1,12.121,7.319,22.5,22.5,0,0,1-.035,7.671,9.273,9.273,0,0,1-9.65,7.445,11.283,11.283,0,0,1-2.544-.35,25.231,25.231,0,0,1-2.491-1.028v1.742c0,1.8-.063,3.6.02,5.4.068,1.5-.4,2.566-1.9,3.04ZM92.05,120.558c0-.706.005-1.416,0-2.122a5.139,5.139,0,0,0-5.223-5.132,5.073,5.073,0,0,0-5.349,5.063c-.02,1.386-.018,2.775,0,4.161a5.182,5.182,0,0,0,5.283,5.174,5.251,5.251,0,0,0,5.291-5.2C92.055,121.856,92.05,121.207,92.05,120.558Z" transform="translate(10.993 -100.474)" fill="#bb8ca8"/><path d="M145.105,130.416a2.526,2.526,0,0,1-1.89,1.424,2.092,2.092,0,0,1-2.372-1.492,10.337,10.337,0,0,1-5.884,1.5,9.336,9.336,0,0,1-9.011-8.4,28.971,28.971,0,0,1,.08-6.535,9.441,9.441,0,0,1,10.138-7.835,10.448,10.448,0,0,1,4.591,1.456,2.326,2.326,0,0,1,4.348.046Zm-4.344-9.938h.046c0-.708,0-1.416,0-2.126a5.3,5.3,0,0,0-10.511-.735,22.538,22.538,0,0,0-.015,5.562,5.116,5.116,0,0,0,5.21,4.494,5.209,5.209,0,0,0,5.25-4.367A20.405,20.405,0,0,0,140.761,120.479Z" transform="translate(64.895 -100.495)" fill="#bb8ca8"/><path d="M71.243,110.53c1.07-1.669,2.7-1.957,3.816-.733a2.158,2.158,0,0,1,.52,1.548q-.008,9.082-.005,18.158a2.139,2.139,0,0,1-1.565,2.286,2.209,2.209,0,0,1-2.716-1.414,11.914,11.914,0,0,1-3.592,1.353,9.487,9.487,0,0,1-11.341-9.373,37.995,37.995,0,0,1,.1-5.307,9.468,9.468,0,0,1,10.205-7.976A10.938,10.938,0,0,1,71.243,110.53ZM60.7,120.42c0,.708-.008,1.416,0,2.124a5.108,5.108,0,0,0,5.23,5.113,5.179,5.179,0,0,0,5.339-5.031q.049-2.168,0-4.338a5.2,5.2,0,0,0-5.349-5.027,5.118,5.118,0,0,0-5.22,5.124C60.692,119.061,60.7,119.739,60.7,120.42Z" transform="translate(-12.013 -100.493)" fill="#bb8ca8"/><path d="M107.994,130.366A10.179,10.179,0,0,1,102,131.83a9.38,9.38,0,0,1-8.847-9.036q-.011-5.71,0-11.419a2.156,2.156,0,1,1,4.3.017q.011,5.36,0,10.713a5.173,5.173,0,0,0,5.26,5.539,5.233,5.233,0,0,0,5.355-5.488c.023-3.512.006-7.022.006-10.536,0-1.641.765-2.574,2.109-2.574,1.372,0,2.189.982,2.189,2.64q0,8.675,0,17.351c0,1.551-.455,2.379-1.489,2.711C109.743,132.114,108.919,131.729,107.994,130.366Z" transform="translate(28.757 -100.483)" fill="#bb8ca8"/><path d="M124.661,130.345a10.3,10.3,0,0,1-5.958,1.494,9.315,9.315,0,0,1-8.931-8.674c-.126-3.98-.057-7.966-.04-11.952a2.144,2.144,0,1,1,4.285.088c.006,3.573-.006,7.142.006,10.713.011,2.806,1.445,4.81,3.885,5.454a5.256,5.256,0,0,0,6.733-5.128q0-5.533,0-11.067a2.02,2.02,0,0,1,1.192-2,2.116,2.116,0,0,1,2.265.209,1.962,1.962,0,0,1,.847,1.669q-.009,9.3-.006,18.594a2.091,2.091,0,0,1-1.532,2.039,2.152,2.152,0,0,1-2.522-.992C124.812,130.669,124.755,130.541,124.661,130.345Z" transform="translate(47.07 -100.489)" fill="#bb8ca8"/><path d="M91.816,113.961c1.141,0,2.229-.006,3.317,0a2.084,2.084,0,1,1,.083,4.167c-1.146.044-2.294.008-3.508.008v1.085q0,7.524-.005,15.049a2,2,0,0,1-1.694,2.06,2.12,2.12,0,0,1-2.514-1.454,3.261,3.261,0,0,1-.083-.874q-.008-9.917,0-19.829a9.388,9.388,0,0,1,9.344-9.194,2.124,2.124,0,1,1,.04,4.224,5.194,5.194,0,0,0-4.826,3.535A3.685,3.685,0,0,0,91.816,113.961Z" transform="translate(22.394 -104.98)" fill="#bb8ca8"/><path d="M107.744,113.965c1.195,0,2.256-.011,3.32,0a2.087,2.087,0,0,1,2.261,2.079,2.111,2.111,0,0,1-2.267,2.09c-1.062.021-2.126.006-3.154.006-.255.316-.154.622-.154.9-.011,2.507.11,5.023-.036,7.521a5.315,5.315,0,0,0,5.379,5.655,2.018,2.018,0,0,1,1.94,1.409,2.107,2.107,0,0,1-.794,2.355,2,2,0,0,1-1.163.371,9.3,9.3,0,0,1-9.63-9.122q-.009-9.913,0-19.829c0-1.553.8-2.446,2.172-2.423a2.156,2.156,0,0,1,2.124,2.421C107.746,109.555,107.744,111.7,107.744,113.965Z" transform="translate(40.146 -104.981)" fill="#bb8ca8"/><path d="M124.546,110.612a9.65,9.65,0,0,1,5.174-1.473,2.08,2.08,0,0,1,2.2,2.052,2.045,2.045,0,0,1-2.1,2.145c-3.39.225-5.252,2.216-5.252,5.619,0,3.51.008,7.02,0,10.53a2.1,2.1,0,0,1-2.1,2.349,2.043,2.043,0,0,1-2.244-2.261c-.013-3.6,0-7.195,0-10.8V111.7c0-1.416.466-2.193,1.5-2.509C122.835,108.844,123.713,109.268,124.546,110.612Z" transform="translate(58.713 -100.451)" fill="#bb8ca8"/><path d="M65.272,106.4q-12.582,0-25.166,0a5.946,5.946,0,0,0-1.146.095,4.791,4.791,0,0,0-3.673,3.447v26.933a1.591,1.591,0,0,1,.184.28,4.507,4.507,0,0,0,4.541,3.158q12.718.022,25.434,0a4.48,4.48,0,0,0,4.695-4.772q0-12.132,0-24.26A4.544,4.544,0,0,0,65.272,106.4Zm-2.817,26.019c-.623.594-1.234.291-1.858-.065-2.562-1.473-5.134-2.926-7.7-4.384a2.211,2.211,0,0,0-1.068.394c-2.343,1.319-4.692,2.627-7.03,3.954-.656.373-1.282.649-1.934.015a1.792,1.792,0,0,1-.245-2.2c.618-1.1,1.282-2.185,1.926-3.278q3.483-5.906,6.964-11.806c.856-1.447,1.9-1.464,2.716-.023,1.7,3.025,3.385,6.068,5.076,9.1,1.189,2.067,2.4,4.121,3.551,6.207A1.634,1.634,0,0,1,62.455,132.419Z" transform="translate(-35.287 -103.412)" fill="#bb8ca8"/><path d="M43.644,118.66c.384-.6,1.063-.8,1.633-1.129,1.58-.925,3.181-1.816,4.771-2.72,1.189,2.067,2.4,4.123,3.551,6.207a1.641,1.641,0,0,1-.4,2.094c-.623.592-1.234.289-1.858-.067Q47.507,120.842,43.644,118.66Z" transform="translate(-26.038 -94.101)" fill="#bb8ca8" opacity="0"/></g></svg>