<svg xmlns="http://www.w3.org/2000/svg" xmlns:xlink="http://www.w3.org/1999/xlink" width="204" height="204" viewBox="0 0 204 204"><defs><style>.a{fill:#f1f4f8;}.b{fill:#fff;opacity:0;}.c{fill:url(#a);}</style><linearGradient id="a" x1="0.5" x2="0.5" y2="1" gradientUnits="objectBoundingBox"><stop offset="0" stop-color="#571c56"></stop><stop offset="0.47" stop-color="#e5153f"></stop><stop offset="1" stop-color="#fcd000"></stop></linearGradient></defs><g transform="translate(-1452 1168)"><circle class="a" cx="102" cy="102" r="102" transform="translate(1452 -1168)"></circle><g transform="translate(-174 -175)"><rect class="b" width="116" height="116" transform="translate(1670 -949)"></rect><g transform="translate(1671 -948)"><g transform="translate(-1 -1)"><path class="c" d="M-1391.6,1238.067v-7.734a1.826,1.826,0,0,1,1.933-1.933h7.733a1.826,1.826,0,0,1,1.933,1.933,1.826,1.826,0,0,1-1.933,1.933h-5.8v5.8a1.827,1.827,0,0,1-1.933,1.933A1.826,1.826,0,0,1-1391.6,1238.067Zm-96.668,0v-5.8h-5.8a1.826,1.826,0,0,1-1.933-1.933,1.826,1.826,0,0,1,1.933-1.933h7.734a1.826,1.826,0,0,1,1.933,1.933v7.734a1.827,1.827,0,0,1-1.933,1.933A1.827,1.827,0,0,1-1488.267,1238.067Zm88.934-5.8a1.826,1.826,0,0,1-1.933-1.933,1.826,1.826,0,0,1,1.933-1.933h1.933a1.826,1.826,0,0,1,1.933,1.933,1.826,1.826,0,0,1-1.933,1.933Zm-9.667,0a1.826,1.826,0,0,1-1.933-1.933A1.826,1.826,0,0,1-1409,1228.4h1.933a1.826,1.826,0,0,1,1.933,1.933,1.826,1.826,0,0,1-1.933,1.933Zm-9.667,0a1.826,1.826,0,0,1-1.933-1.933,1.826,1.826,0,0,1,1.933-1.933h1.933a1.827,1.827,0,0,1,1.934,1.933,1.827,1.827,0,0,1-1.934,1.933Zm-9.667,0a1.827,1.827,0,0,1-1.933-1.933,1.827,1.827,0,0,1,1.933-1.933h1.934a1.827,1.827,0,0,1,1.933,1.933,1.827,1.827,0,0,1-1.933,1.933Zm-9.666,0a1.826,1.826,0,0,1-1.933-1.933A1.826,1.826,0,0,1-1438,1228.4h1.933a1.827,1.827,0,0,1,1.933,1.933,1.827,1.827,0,0,1-1.933,1.933Zm-9.667,0a1.826,1.826,0,0,1-1.933-1.933,1.826,1.826,0,0,1,1.933-1.933h1.933a1.826,1.826,0,0,1,1.933,1.933,1.826,1.826,0,0,1-1.933,1.933Zm-9.667,0a1.826,1.826,0,0,1-1.933-1.933,1.826,1.826,0,0,1,1.933-1.933h1.933a1.826,1.826,0,0,1,1.933,1.933,1.826,1.826,0,0,1-1.933,1.933Zm-9.667,0a1.826,1.826,0,0,1-1.933-1.933A1.826,1.826,0,0,1-1467,1228.4h1.933a1.827,1.827,0,0,1,1.934,1.933,1.827,1.827,0,0,1-1.934,1.933Zm-9.666,0a1.826,1.826,0,0,1-1.933-1.933,1.826,1.826,0,0,1,1.933-1.933h1.933a1.826,1.826,0,0,1,1.933,1.933,1.826,1.826,0,0,1-1.933,1.933Zm85.066-9.666v-1.933a1.826,1.826,0,0,1,1.933-1.933,1.826,1.826,0,0,1,1.933,1.933v1.933a1.826,1.826,0,0,1-1.933,1.933A1.826,1.826,0,0,1-1391.6,1222.6Zm-96.666,0v-1.934a1.827,1.827,0,0,1,1.933-1.933,1.827,1.827,0,0,1,1.933,1.934v1.933a1.826,1.826,0,0,1-1.933,1.933A1.827,1.827,0,0,1-1488.266,1222.6Zm15.466-1.933a1.827,1.827,0,0,1-1.933-1.934V1153a1.826,1.826,0,0,1,1.933-1.933h61.867A1.826,1.826,0,0,1-1409,1153v65.733a1.827,1.827,0,0,1-1.933,1.934Zm1.933-3.867h58v-61.867h-58Zm36.983-2.843-5.469-5.469a1.87,1.87,0,0,1,0-2.707,1.869,1.869,0,0,1,2.706,0l2.514,2.514v-12.76h-28.227l2.513,2.513a1.868,1.868,0,0,1,0,2.707,1.752,1.752,0,0,1-1.353.58,1.754,1.754,0,0,1-1.354-.58l-5.469-5.469a1.836,1.836,0,0,1-.911-1.684,1.838,1.838,0,0,1,.911-1.685l5.469-5.468a1.867,1.867,0,0,1,2.706,0,1.867,1.867,0,0,1,0,2.706l-2.513,2.514h28.226V1163.44l-2.513,2.514a1.87,1.87,0,0,1-2.707,0,1.87,1.87,0,0,1,0-2.707l5.469-5.468a1.838,1.838,0,0,1,1.684-.911,1.837,1.837,0,0,1,1.685.911l5.469,5.468a1.87,1.87,0,0,1,0,2.707,1.756,1.756,0,0,1-1.354.58,1.756,1.756,0,0,1-1.354-.58l-2.513-2.514v28.228h8.893l-2.513-2.514a1.869,1.869,0,0,1,0-2.707,1.869,1.869,0,0,1,2.706,0l5.469,5.469a1.838,1.838,0,0,1,.911,1.685,1.837,1.837,0,0,1-.911,1.684l-5.469,5.469a1.752,1.752,0,0,1-1.353.58,1.754,1.754,0,0,1-1.354-.58,1.87,1.87,0,0,1,0-2.707l2.514-2.513h-8.894v12.76l2.514-2.514a1.869,1.869,0,0,1,2.706,0,1.87,1.87,0,0,1,0,2.707l-5.469,5.469a1.837,1.837,0,0,1-1.684.911A1.837,1.837,0,0,1-1433.884,1213.957Zm32.618.91a1.826,1.826,0,0,1-1.933-1.933,1.826,1.826,0,0,1,1.933-1.933h9.667v-1.933a1.826,1.826,0,0,1,1.933-1.933,1.827,1.827,0,0,1,1.933,1.933V1211h5.8a1.826,1.826,0,0,1,1.933,1.933,1.826,1.826,0,0,1-1.933,1.933Zm-87-1.933V1211a1.826,1.826,0,0,1,1.933-1.933A1.826,1.826,0,0,1-1484.4,1211v1.933a1.826,1.826,0,0,1-1.933,1.933A1.826,1.826,0,0,1-1488.266,1212.934Zm0-9.667v-1.933a1.826,1.826,0,0,1,1.933-1.933,1.826,1.826,0,0,1,1.933,1.933v1.933a1.826,1.826,0,0,1-1.933,1.933A1.826,1.826,0,0,1-1488.266,1203.267Zm96.666-1.933V1199.4a1.826,1.826,0,0,1,1.933-1.933,1.826,1.826,0,0,1,1.933,1.933v1.933a1.826,1.826,0,0,1-1.933,1.933A1.826,1.826,0,0,1-1391.6,1201.333Zm-96.666-7.734v-1.933a1.826,1.826,0,0,1,1.933-1.933,1.827,1.827,0,0,1,1.933,1.934v1.933a1.826,1.826,0,0,1-1.933,1.932A1.826,1.826,0,0,1-1488.266,1193.6Zm96.666-1.933v-1.933a1.826,1.826,0,0,1,1.933-1.933,1.826,1.826,0,0,1,1.933,1.933v1.933a1.827,1.827,0,0,1-1.933,1.934A1.827,1.827,0,0,1-1391.6,1191.667Zm-96.666-7.733V1182a1.826,1.826,0,0,1,1.933-1.933A1.826,1.826,0,0,1-1484.4,1182v1.933a1.826,1.826,0,0,1-1.933,1.933A1.826,1.826,0,0,1-1488.266,1183.934ZM-1391.6,1182v-1.933a1.827,1.827,0,0,1,1.933-1.934,1.827,1.827,0,0,1,1.933,1.934V1182a1.827,1.827,0,0,1-1.933,1.933A1.827,1.827,0,0,1-1391.6,1182Zm-96.666-7.734v-1.933a1.826,1.826,0,0,1,1.933-1.933,1.826,1.826,0,0,1,1.933,1.933v1.933a1.826,1.826,0,0,1-1.933,1.933A1.826,1.826,0,0,1-1488.266,1174.267Zm96.666-1.933V1170.4a1.826,1.826,0,0,1,1.933-1.933,1.826,1.826,0,0,1,1.933,1.933v1.933a1.826,1.826,0,0,1-1.933,1.933A1.826,1.826,0,0,1-1391.6,1172.334Zm-96.666-7.734v-1.933a1.826,1.826,0,0,1,1.933-1.933,1.826,1.826,0,0,1,1.933,1.933v1.933a1.826,1.826,0,0,1-1.933,1.933A1.826,1.826,0,0,1-1488.266,1164.6Zm96.666-1.933v-1.933a1.826,1.826,0,0,1,1.933-1.933,1.826,1.826,0,0,1,1.933,1.933v1.933a1.826,1.826,0,0,1-1.933,1.933A1.826,1.826,0,0,1-1391.6,1162.667Zm-96.666-7.734V1153a1.826,1.826,0,0,1,1.933-1.933A1.826,1.826,0,0,1-1484.4,1153v1.933a1.827,1.827,0,0,1-1.933,1.934A1.827,1.827,0,0,1-1488.266,1154.933ZM-1391.6,1153v-1.933a1.826,1.826,0,0,1,1.933-1.933,1.826,1.826,0,0,1,1.933,1.933V1153a1.826,1.826,0,0,1-1.933,1.933A1.826,1.826,0,0,1-1391.6,1153Zm-79.267-7.733v-19.334a1.826,1.826,0,0,1,1.933-1.933,1.826,1.826,0,0,1,1.933,1.933v5.8h1.933a1.827,1.827,0,0,1,1.934,1.933,1.827,1.827,0,0,1-1.934,1.933H-1467v9.667a1.826,1.826,0,0,1-1.933,1.933A1.826,1.826,0,0,1-1470.866,1145.267Zm-17.4,0v-1.933a1.826,1.826,0,0,1,1.933-1.933,1.826,1.826,0,0,1,1.933,1.933v1.933a1.827,1.827,0,0,1-1.933,1.934A1.827,1.827,0,0,1-1488.266,1145.266Zm96.666-1.932V1141.4a1.827,1.827,0,0,1,1.933-1.933,1.827,1.827,0,0,1,1.933,1.933v1.934a1.826,1.826,0,0,1-1.933,1.933A1.827,1.827,0,0,1-1391.6,1143.334Zm1.933-7.734a1.826,1.826,0,0,1-1.933-1.933v-7.734a1.826,1.826,0,0,1,1.933-1.933,1.826,1.826,0,0,1,1.933,1.933v5.8h5.8a1.826,1.826,0,0,1,1.933,1.933,1.826,1.826,0,0,1-1.933,1.933Zm-9.666,0a1.826,1.826,0,0,1-1.933-1.933,1.826,1.826,0,0,1,1.933-1.933h1.933a1.826,1.826,0,0,1,1.933,1.933,1.826,1.826,0,0,1-1.933,1.933Zm-9.667,0a1.827,1.827,0,0,1-1.933-1.933,1.826,1.826,0,0,1,1.933-1.933h1.933a1.826,1.826,0,0,1,1.933,1.933,1.826,1.826,0,0,1-1.933,1.933Zm-9.667,0a1.826,1.826,0,0,1-1.933-1.933,1.826,1.826,0,0,1,1.933-1.933h1.933a1.826,1.826,0,0,1,1.933,1.933,1.826,1.826,0,0,1-1.933,1.933Zm-9.667,0a1.827,1.827,0,0,1-1.933-1.933,1.827,1.827,0,0,1,1.933-1.933h1.934a1.826,1.826,0,0,1,1.932,1.933,1.826,1.826,0,0,1-1.932,1.933Zm-9.666,0a1.826,1.826,0,0,1-1.933-1.933,1.826,1.826,0,0,1,1.933-1.933h1.933a1.827,1.827,0,0,1,1.933,1.933,1.827,1.827,0,0,1-1.933,1.933Zm-9.667,0a1.826,1.826,0,0,1-1.933-1.933,1.826,1.826,0,0,1,1.933-1.933h1.933a1.826,1.826,0,0,1,1.933,1.933,1.826,1.826,0,0,1-1.933,1.933Zm-9.667,0a1.826,1.826,0,0,1-1.933-1.933,1.826,1.826,0,0,1,1.933-1.933h1.933a1.826,1.826,0,0,1,1.933,1.933,1.826,1.826,0,0,1-1.933,1.933Zm-21.267,0a1.827,1.827,0,0,1-1.933-1.933,1.827,1.827,0,0,1,1.933-1.933h1.933a1.827,1.827,0,0,1,1.934,1.933,1.827,1.827,0,0,1-1.934,1.933Zm-15.467,0a1.826,1.826,0,0,1-1.933-1.933,1.826,1.826,0,0,1,1.933-1.933h5.8v-5.8a1.826,1.826,0,0,1,1.933-1.933,1.826,1.826,0,0,1,1.933,1.933v7.734a1.827,1.827,0,0,1-1.933,1.933Z" transform="translate(1496 -1124)"></path></g></g></g></g></svg>