<?xml version="1.0" encoding="UTF-8"?>
<svg xmlns="http://www.w3.org/2000/svg" width="376" height="489" viewBox="0 0 376 489" fill="none">
  <path d="M21.652 329.615H0.339844L8.24003 357.407L0.339844 385.2H21.4683L21.652 354.792V329.615Z" fill="#00539F"></path>
  <path d="M354.696 329.615H375.824L367.924 357.407L375.824 385.2H354.695V354.792L354.696 329.615Z" fill="#00539F"></path>
  <g filter="url(#filter0_d_117_84)">
    <path d="M21.1846 90.1456L187.505 10L354.696 90.1456V397.865L188.376 479L21.1846 397.865V90.1456Z" fill="white"></path>
  </g>
  <path d="M31.6069 99.2924L187.643 23.8962L344.495 99.2924V388.777L188.459 465.104L31.6069 388.777V99.2924Z" fill="url(#paint0_linear_117_84)"></path>
  <path d="M185.601 151.181L181.442 148.22H186.547L188.248 142.89L189.761 148.22H194.865L190.706 151.181L192.218 156.313L188.059 153.155L183.711 156.313L185.601 151.181Z" fill="#2AD2FF"></path>
  <path d="M210.814 151.181L206.874 148.22H211.709L213.321 142.89L214.754 148.22H219.589L215.649 151.181L217.082 156.313L213.142 153.155L209.023 156.313L210.814 151.181Z" fill="#2AD2FF"></path>
  <path d="M161.987 151.181L157.828 148.22H162.932L164.633 142.89L166.146 148.22H171.25L167.091 151.181L168.603 156.313L164.444 153.155L160.285 156.313L161.987 151.181Z" fill="#2AD2FF"></path>
  <path d="M188.809 117.696C188.613 117.696 188.613 117.502 188.809 117.696L187.829 117.112L187.633 116.918L164.512 100.565C164.512 100.565 164.316 100.565 164.316 100.371L163.924 99.9814L163.728 99.7868H163.336L156.674 95.1147L169.802 97.0614C170.39 97.0614 170.586 97.2561 171.174 97.4508C171.37 97.4508 171.762 97.6454 171.762 97.6454C172.35 97.8401 172.545 98.0348 172.937 98.2294C173.329 98.4241 173.525 98.6188 173.917 98.8134C174.113 99.0081 174.505 99.2028 174.505 99.3974C174.701 99.5921 174.897 99.5921 175.093 99.7868C175.485 99.9814 175.681 100.176 175.681 100.371C176.268 100.955 176.66 101.539 177.248 101.928L187.633 116.528L187.829 116.723L188.809 117.696Z" fill="#18AAD1"></path>
  <path d="M188.613 140.278L187.633 138.72L187.437 138.526L156.674 95.1147L163.336 99.7868L164.512 100.565L187.633 116.918H187.829L188.613 117.502C188.613 117.502 188.809 117.502 188.809 117.696L189.789 116.918L220.944 95.1147L189.593 138.72L189.397 138.915L188.613 140.278Z" fill="url(#paint1_linear_117_84)"></path>
  <path d="M188.981 110.748L188.121 109.228L187.95 109.038L181.248 98.7786L187.95 100.299H188.121L188.981 100.489L189.84 100.299L196.37 98.5886L189.84 109.228V109.418L188.981 110.748Z" fill="#18AAD1"></path>
  <path d="M220.944 95.1147L211.265 96.4658L207.587 97.0448C204.683 97.4308 201.973 98.9748 200.231 101.484L189.971 116.152L189.777 116.345L188.809 117.696L189.971 116.538L190.164 116.345L188.809 117.696L214.943 99.1678L220.944 95.1147Z" fill="#18AAD1"></path>
  <path d="M192.589 64.8021C192.589 73.4139 177.93 77.9155 177.93 87.1145C177.737 89.2674 178.315 91.4204 179.28 93.3776C179.28 93.3776 173.686 87.8974 173.686 82.0257C173.686 76.154 179.087 67.3465 179.087 67.3465C179.087 71.261 180.63 72.4353 182.173 72.631H182.366C184.102 72.631 185.066 71.261 185.066 69.3037C185.066 67.3465 182.945 65.3893 182.945 61.4748C182.945 57.7561 187.574 51.6887 187.574 51.6887C190.853 55.6032 192.589 60.1048 192.589 64.8021Z" fill="#2AD2FF"></path>
  <path d="M190.034 95.1151C185.013 95.1151 181.248 91.5789 181.248 87.2984V87.1123C181.248 77.6206 196.1 76.6901 196.1 63.8484C196.519 64.4067 200.493 69.2456 200.493 74.4567C200.493 80.9706 193.59 82.6456 193.59 85.8095C193.59 87.1123 194.218 88.0428 196.309 88.0428C196.519 88.0428 196.728 88.0428 196.937 87.8567C200.912 86.3678 203.631 83.0178 203.84 79.1095C203.84 79.2956 205.932 95.1151 190.034 95.1151Z" fill="#2AD2FF"></path>
  <path d="M196.578 88.0447C196.941 87.93 196.053 88.4876 195.599 88.6012C192.915 89.2723 189.559 90.6145 188.656 86.3845C188.656 80.1136 198.558 78.7418 198.558 73.4507C198.558 70.1193 197.838 66.7879 196.217 63.8484C196.578 64.4363 200.297 69.0204 200.297 74.5075C200.297 81.3663 194.057 82.3617 194.057 85.6932C194.237 87.0649 194.957 88.0447 196.578 88.0447Z" fill="#18AAD1"></path>
  <path d="M187.072 68.1691C187.072 73.0163 181.735 72.6285 181.401 72.4347H181.902C183.403 72.4347 184.237 71.0774 184.237 69.1386C184.237 67.1997 182.402 65.2608 182.402 61.3831C182.402 57.6992 187.546 51.6887 187.546 51.6887C186.212 54.2093 184.404 56.9237 184.237 59.6381C184.237 64.0975 187.072 64.4853 187.072 68.1691Z" fill="#18AAD1"></path>
  <path d="M98.0292 261.87C110.373 261.87 119.291 254.37 119.291 242.145C119.291 229.919 110.373 222.478 97.9702 222.478H81.4336V261.87H98.0292ZM97.9702 253.011H91.5918V231.337H98.0292C105.234 231.337 108.896 236.061 108.896 242.145C108.896 247.991 104.88 253.011 97.9702 253.011Z" fill="white"></path>
  <path d="M153.814 261.87V253.011H135.093V246.338H153.401V237.479H135.093V231.337H153.814V222.478H124.934V261.87H153.814Z" fill="white"></path>
  <path d="M174.95 262.579C185.521 262.579 191.368 257.323 191.368 249.409C191.368 234.762 169.103 238.424 169.103 233.581C169.103 231.868 170.402 230.864 173.355 230.864C177.253 230.864 181.564 232.223 184.872 234.998L190.423 227.38C186.23 223.777 180.738 221.887 174.418 221.887C164.319 221.887 158.768 227.793 158.768 234.408C158.768 249.586 181.033 245.275 181.033 250.472C181.033 252.421 178.907 253.602 175.481 253.602C170.048 253.602 165.677 251.24 162.843 248.405L157.468 256.319C161.425 260.039 166.977 262.579 174.95 262.579Z" fill="white"></path>
  <path d="M206.868 261.87V222.478H196.71V261.87H206.868Z" fill="white"></path>
  <path d="M233.858 262.579C241.299 262.579 247.087 259.567 251.28 254.901V239.251H232.263V248.169H241.122V251.24C239.705 252.421 236.752 253.602 233.858 253.602C227.42 253.602 222.873 248.641 222.873 242.204C222.873 235.707 227.42 230.805 233.858 230.805C237.697 230.805 240.709 233.227 242.185 235.825L250.69 231.396C247.973 226.494 242.658 221.828 233.858 221.828C222.105 221.828 212.537 229.683 212.537 242.204C212.537 254.724 222.105 262.579 233.858 262.579Z" fill="white"></path>
  <path d="M294.432 261.87V222.478H284.215V244.153L268.269 222.478H257.815V261.87H267.974V239.073L284.628 261.87H294.432Z" fill="white"></path>
  <path d="M135.518 301.822L126.362 277.491H118.446L109.29 301.822H116.403L117.607 298.32H127.201L128.404 301.822H135.518ZM125.486 292.849H119.321L122.422 283.693L125.486 292.849Z" fill="white"></path>
  <path d="M161.354 301.822L168.321 277.491H161.244L157.597 293.724L153.438 277.491H148.623L144.465 293.724L140.78 277.491H133.74L140.707 301.822H147.346L151.031 286.574L154.715 301.822H161.354Z" fill="white"></path>
  <path d="M192.745 301.822L183.589 277.491H175.673L166.517 301.822H173.631L174.834 298.32H184.428L185.632 301.822H192.745ZM182.714 292.849H176.549L179.649 283.693L182.714 292.849Z" fill="white"></path>
  <path d="M215.663 301.822L210.702 292.885C213 292.083 215.553 289.821 215.553 285.59C215.553 281.066 212.489 277.491 207.09 277.491H194.907V301.822H201.181V293.651H204.391L208.477 301.822H215.663ZM206.142 288.179H201.181V282.963H206.142C207.82 282.963 209.17 283.875 209.17 285.553C209.17 287.268 207.82 288.179 206.142 288.179Z" fill="white"></path>
  <path d="M229.639 301.822C237.262 301.822 242.771 297.189 242.771 289.639C242.771 282.088 237.262 277.491 229.602 277.491H219.388V301.822H229.639ZM229.602 296.35H225.662V282.963H229.639C234.089 282.963 236.35 285.881 236.35 289.639C236.35 293.25 233.87 296.35 229.602 296.35Z" fill="white"></path>
  <path d="M255.303 302.26C261.832 302.26 265.444 299.013 265.444 294.125C265.444 285.079 251.692 287.34 251.692 284.349C251.692 283.291 252.494 282.671 254.318 282.671C256.726 282.671 259.388 283.51 261.431 285.225L264.86 280.519C262.27 278.294 258.878 277.127 254.975 277.127C248.737 277.127 245.308 280.774 245.308 284.86C245.308 294.235 259.06 291.572 259.06 294.782C259.06 295.986 257.747 296.715 255.631 296.715C252.275 296.715 249.576 295.256 247.825 293.505L244.505 298.393C246.949 300.691 250.378 302.26 255.303 302.26Z" fill="white"></path>
  <path d="M169.829 421.678V418.638H163.214C167.421 415.574 169.707 413.166 169.707 410.394C169.707 407.16 166.959 405.214 163.506 405.214C161.245 405.214 158.837 406.041 157.256 407.865L159.226 410.151C160.32 409.008 161.731 408.278 163.579 408.278C164.917 408.278 166.206 408.983 166.206 410.394C166.206 412.388 164.26 414.066 157.621 418.978V421.678H169.829Z" fill="#2AD2FF"></path>
  <path d="M180.544 421.97C185.165 421.97 187.256 417.762 187.256 413.58C187.256 409.397 185.165 405.214 180.544 405.214C175.899 405.214 173.832 409.397 173.832 413.58C173.832 417.762 175.899 421.97 180.544 421.97ZM180.544 418.905C178.209 418.905 177.334 416.571 177.334 413.58C177.334 410.589 178.209 408.278 180.544 408.278C182.854 408.278 183.73 410.589 183.73 413.58C183.73 416.571 182.854 418.905 180.544 418.905Z" fill="#2AD2FF"></path>
  <path d="M203.382 421.678V418.638H196.767C200.974 415.574 203.26 413.166 203.26 410.394C203.26 407.16 200.512 405.214 197.059 405.214C194.797 405.214 192.39 406.041 190.809 407.865L192.779 410.151C193.873 409.008 195.284 408.278 197.132 408.278C198.47 408.278 199.758 408.983 199.758 410.394C199.758 412.388 197.813 414.066 191.174 418.978V421.678H203.382Z" fill="#2AD2FF"></path>
  <path d="M219.909 421.678V418.638H213.294C217.501 415.574 219.787 413.166 219.787 410.394C219.787 407.16 217.039 405.214 213.586 405.214C211.325 405.214 208.917 406.041 207.336 407.865L209.306 410.151C210.4 409.008 211.811 408.278 213.659 408.278C214.997 408.278 216.286 408.983 216.286 410.394C216.286 412.388 214.34 414.066 207.701 418.978V421.678H219.909Z" fill="#2AD2FF"></path>
  <path d="M354.869 322.667H21.1846V378.252H354.869V322.667Z" fill="#0460B5"></path>
  <path d="M54.1297 360.881C61.0275 360.881 65.813 356.525 65.813 349.891C65.813 343.257 61.0275 338.868 54.1297 338.868H45.4497V360.881H54.1297ZM54.1297 356.756H50.1362V342.993H54.1297C58.6512 342.993 61.0275 345.996 61.0275 349.891C61.0275 353.62 58.4862 356.756 54.1297 356.756Z" fill="white"></path>
  <path d="M85.3767 360.881V356.756H74.4855V351.772H85.1457V347.647H74.4855V342.993H85.3767V338.868H69.799V360.881H85.3767Z" fill="white"></path>
  <path d="M97.5223 361.277C103.463 361.277 106.334 358.241 106.334 354.214C106.334 345.996 93.6939 348.34 93.6939 344.841C93.6939 343.521 94.816 342.63 96.8293 342.63C99.0735 342.63 101.45 343.389 103.232 345.039L105.839 341.607C103.661 339.594 100.757 338.538 97.2583 338.538C92.0767 338.538 88.9084 341.574 88.9084 345.237C88.9084 353.521 101.582 350.848 101.582 354.742C101.582 355.997 100.328 357.185 97.7534 357.185C94.717 357.185 92.3078 355.832 90.7566 354.214L88.2153 357.779C90.2615 359.858 93.2979 361.277 97.5223 361.277Z" fill="white"></path>
  <path d="M114.836 360.881V338.868H110.15V360.881H114.836Z" fill="white"></path>
  <path d="M130.527 361.31C134.52 361.31 137.656 359.66 139.9 357.152V348.703H129.405V352.795H135.213V355.436C134.322 356.261 132.474 357.119 130.527 357.119C126.533 357.119 123.629 354.049 123.629 349.891C123.629 345.732 126.533 342.663 130.527 342.663C132.87 342.663 134.751 343.983 135.741 345.534L139.636 343.422C137.986 340.815 135.114 338.505 130.527 338.505C124.091 338.505 118.811 342.927 118.811 349.891C118.811 356.822 124.091 361.31 130.527 361.31Z" fill="white"></path>
  <path d="M163.984 360.881V338.868H159.297V352.696L149.099 338.868H144.28V360.881H148.967V346.525L159.462 360.881H163.984Z" fill="white"></path>
  <path d="M186.806 360.881L181.856 352.498C184.232 351.937 186.674 349.858 186.674 345.963C186.674 341.871 183.869 338.868 179.281 338.868H168.984V360.881H173.671V353.059H177.103L181.427 360.881H186.806ZM178.588 348.934H173.671V342.993H178.588C180.469 342.993 181.889 344.115 181.889 345.963C181.889 347.812 180.469 348.934 178.588 348.934Z" fill="white"></path>
  <path d="M200.786 361.277C207.486 361.277 210.72 357.548 210.72 352.069V338.868H205.934V351.937C205.934 355.006 204.185 357.119 200.786 357.119C197.386 357.119 195.604 355.006 195.604 351.937V338.868H190.852V352.102C190.852 357.515 194.086 361.277 200.786 361.277Z" fill="white"></path>
  <path d="M223.538 361.277C229.479 361.277 232.35 358.241 232.35 354.214C232.35 345.996 219.71 348.34 219.71 344.841C219.71 343.521 220.832 342.63 222.845 342.63C225.09 342.63 227.466 343.389 229.248 345.039L231.855 341.607C229.677 339.594 226.773 338.538 223.274 338.538C218.093 338.538 214.924 341.574 214.924 345.237C214.924 353.521 227.598 350.848 227.598 354.742C227.598 355.997 226.344 357.185 223.77 357.185C220.733 357.185 218.324 355.832 216.773 354.214L214.231 357.779C216.278 359.858 219.314 361.277 223.538 361.277Z" fill="white"></path>
  <path d="M255.968 360.881V338.868H251.249V347.515H240.853V338.868H236.166V360.881H240.853V351.64H251.249V360.881H255.968Z" fill="white"></path>
  <path d="M263.013 361.244C264.465 361.244 265.686 360.023 265.686 358.571C265.686 357.119 264.465 355.898 263.013 355.898C261.561 355.898 260.339 357.119 260.339 358.571C260.339 360.023 261.561 361.244 263.013 361.244Z" fill="white"></path>
  <path d="M277.269 361.277C280.536 361.277 282.516 359.858 283.572 358.373L280.833 355.832C280.074 356.888 278.919 357.548 277.467 357.548C274.925 357.548 273.143 355.667 273.143 352.894C273.143 350.122 274.925 348.274 277.467 348.274C278.919 348.274 280.074 348.868 280.833 349.99L283.572 347.416C282.516 345.963 280.536 344.544 277.269 344.544C272.351 344.544 268.82 348.01 268.82 352.894C268.82 357.812 272.351 361.277 277.269 361.277Z" fill="white"></path>
  <path d="M294.365 361.277C299.646 361.277 302.814 357.449 302.814 352.894C302.814 348.373 299.646 344.544 294.365 344.544C289.118 344.544 285.95 348.373 285.95 352.894C285.95 357.449 289.118 361.277 294.365 361.277ZM294.365 357.548C291.758 357.548 290.306 355.403 290.306 352.894C290.306 350.419 291.758 348.274 294.365 348.274C296.973 348.274 298.458 350.419 298.458 352.894C298.458 355.403 296.973 357.548 294.365 357.548Z" fill="white"></path>
  <path d="M330.578 360.881V349.363C330.578 346.095 328.829 344.544 325.891 344.544C323.449 344.544 321.337 345.996 320.413 347.449C319.819 345.633 318.333 344.544 315.99 344.544C313.548 344.544 311.436 346.062 310.776 347.02V344.94H306.584V360.881H310.776V350.155C311.403 349.264 312.624 348.274 314.076 348.274C315.792 348.274 316.452 349.33 316.452 350.815V360.881H320.677V350.122C321.271 349.264 322.492 348.274 323.977 348.274C325.693 348.274 326.353 349.33 326.353 350.815V360.881H330.578Z" fill="white"></path>
  <path opacity="0.2" fill-rule="evenodd" clip-rule="evenodd" d="M126.537 199.337H108.036V197.6H126.537V199.337Z" fill="white"></path>
  <path opacity="0.2" fill-rule="evenodd" clip-rule="evenodd" d="M270.844 199.337H252.343V197.6H270.844V199.337Z" fill="white"></path>
  <path d="M164.225 206.285C167.782 206.285 169.617 204.062 169.617 201.255C169.617 198.948 168.06 197.03 166.059 196.724C167.81 196.363 169.255 194.779 169.255 192.472C169.255 189.999 167.449 187.747 163.919 187.747H154.164V206.285H164.225ZM163.058 195.112H158.111V191.221H163.058C164.392 191.221 165.226 192.027 165.226 193.167C165.226 194.362 164.392 195.112 163.058 195.112ZM163.224 202.811H158.111V198.587H163.224C164.753 198.587 165.587 199.531 165.587 200.699C165.587 202.033 164.697 202.811 163.224 202.811Z" fill="#2AD2FF"></path>
  <path d="M187.657 206.285V202.811H178.485V198.587H187.462V195.112H178.485V191.221H187.657V187.747H174.538V206.285H187.657Z" fill="#2AD2FF"></path>
  <path d="M199.302 206.619C204.277 206.619 206.722 204.062 206.722 200.671C206.722 193.751 196.078 195.724 196.078 192.806C196.078 191.694 197.023 190.971 198.69 190.971C200.58 190.971 202.581 191.611 204.082 193L206.278 190.054C204.443 188.359 201.998 187.469 199.052 187.469C194.688 187.469 192.02 190.026 192.02 193.111C192.02 200.087 202.693 197.836 202.693 201.06C202.693 202.144 201.664 203.117 199.469 203.117C196.912 203.117 194.883 201.949 193.577 200.588L191.409 203.673C193.16 205.423 195.717 206.619 199.302 206.619Z" fill="#2AD2FF"></path>
  <path d="M219.199 206.285V191.221H224.591V187.747H209.805V191.221H215.225V206.285H219.199Z" fill="#2AD2FF"></path>
  <defs>
    <filter id="filter0_d_117_84" x="11.1846" y="0" width="353.511" height="489" filterUnits="userSpaceOnUse" color-interpolation-filters="sRGB">
      <feFlood flood-opacity="0" result="BackgroundImageFix"></feFlood>
      <feColorMatrix in="SourceAlpha" type="matrix" values="0 0 0 0 0 0 0 0 0 0 0 0 0 0 0 0 0 0 127 0" result="hardAlpha"></feColorMatrix>
      <feOffset></feOffset>
      <feGaussianBlur stdDeviation="5"></feGaussianBlur>
      <feComposite in2="hardAlpha" operator="out"></feComposite>
      <feColorMatrix type="matrix" values="0 0 0 0 0 0 0 0 0 0 0 0 0 0 0 0 0 0 0.1 0"></feColorMatrix>
      <feBlend mode="normal" in2="BackgroundImageFix" result="effect1_dropShadow_117_84"></feBlend>
      <feBlend mode="normal" in="SourceGraphic" in2="effect1_dropShadow_117_84" result="shape"></feBlend>
    </filter>
    <linearGradient id="paint0_linear_117_84" x1="188.051" y1="34.6182" x2="188.051" y2="422.216" gradientUnits="userSpaceOnUse">
      <stop stop-color="#0460B5"></stop>
      <stop offset="1" stop-color="#001D51"></stop>
    </linearGradient>
    <linearGradient id="paint1_linear_117_84" x1="188.809" y1="140.411" x2="188.809" y2="116.517" gradientUnits="userSpaceOnUse">
      <stop offset="1" stop-color="#2AD2FF"></stop>
    </linearGradient>
  </defs>
</svg>
