<svg xmlns="http://www.w3.org/2000/svg" width="210" height="150" viewBox="0 0 210 150"><defs><style>.a{fill:#3b2c2c;opacity:0;}.b{fill:#bb8ca8;}</style></defs><rect class="a" width="210" height="150"/><g transform="translate(0 30)"><g transform="translate(0 59.171)"><path class="b" d="M305.454,1195.413c.131.182.18.326.276.373,2.532,1.235,3.2,3.411,2.927,5.981a5.866,5.866,0,0,1-4.4,5.256c-4.067,1.3-8.2.916-12.323.3a1.34,1.34,0,0,1-.75-1.031q-.067-9.869,0-19.739a1.32,1.32,0,0,1,.8-.986c3.83-.546,7.678-.884,11.471.225A5.419,5.419,0,0,1,305.454,1195.413Zm-9.345,5.285a11.49,11.49,0,0,0,.034,2c.062.347.483.913.717.9a36.1,36.1,0,0,0,5.19-.519,2.159,2.159,0,0,0,1.562-2.44,2.221,2.221,0,0,0-1.654-2.268,13.181,13.181,0,0,0-3.08-.426C296.107,1197.889,296.106,1197.926,296.109,1200.7Zm2.363-6.521a11.025,11.025,0,0,0,3.006-.687,3.062,3.062,0,0,0,1.215-1.97,1.652,1.652,0,0,0-1.3-1.9,12.345,12.345,0,0,0-2.705-.42c-2.582-.086-2.6-.054-2.579,2.493C296.129,1194.418,295.8,1193.975,298.472,1194.177Z" transform="translate(-291.153 -1182.682)"/><path class="b" d="M874.566,1207.975c-1.675,0-3.252.034-4.824-.035-.246-.011-.565-.452-.689-.76-.4-1.009-.658-2.085-1.129-3.059a1.77,1.77,0,0,0-1.213-.909c-2.219-.091-4.445-.09-6.664,0a1.766,1.766,0,0,0-1.242.871c-.476.97-.72,2.05-1.135,3.055-.138.333-.5.8-.775.814-1.452.082-2.91.038-4.508.038a6.023,6.023,0,0,1,.182-1.105c2.614-6.616,5.252-13.223,7.855-19.843.378-.961.993-1.147,1.98-1.3,2.732-.438,4.034.729,4.944,3.214,2.259,6.169,4.747,12.254,7.138,18.374A4,4,0,0,1,874.566,1207.975Zm-11.045-16.64h-.32l-2.943,7.718h6.18Z" transform="translate(-711.11 -1183.117)"/><path class="b" d="M1014.415,1223.334c0,1.8-.042,3.344.016,4.879.036.955-.249,1.408-1.272,1.322a14.9,14.9,0,0,0-2.385,0c-.994.077-1.292-.312-1.285-1.3.04-5.9.02-11.8.02-17.706,0-3.372-.015-3.521,3.311-3.86a23.231,23.231,0,0,1,6.714.17c2.954.577,4.712,2.7,5.419,5.643a11.79,11.79,0,0,1-.267,6.564c-1.258,3.8-4.812,5.652-8.825,4.672C1015.466,1223.62,1015.074,1223.508,1014.415,1223.334Zm1.722-12.875c-.7.115-1.741-.276-1.726,1.118.025,2.26-.022,4.522.033,6.781a1.466,1.466,0,0,0,.609,1.082,3.359,3.359,0,0,0,5.106-2.522,10.635,10.635,0,0,0-.022-3.229A3.587,3.587,0,0,0,1016.137,1210.459Z" transform="translate(-828.665 -1198.727)"/><path class="b" d="M946.728,1222.807c0,1.825-.04,3.448.016,5.067.031.89-.3,1.192-1.165,1.135a23.509,23.509,0,0,0-2.636-.005c-.78.036-1-.307-1-1.047.019-6.736,0-13.472.041-20.208a1.4,1.4,0,0,1,.676-1.095,18.216,18.216,0,0,1,8.933-.485,7.122,7.122,0,0,1,5.8,6.456,15.483,15.483,0,0,1-.187,5.209c-.981,4.329-4.823,6.46-9.147,5.311C947.7,1223.052,947.344,1222.964,946.728,1222.807Zm0-8.369c0,1.129-.062,2.263.034,3.384a1.553,1.553,0,0,0,.71,1.116c2.677,1.194,4.93-.177,5.159-3.089a12.536,12.536,0,0,0,.018-1.753c-.185-3.009-1.914-4.441-4.9-4.141-.732.073-1.044.362-1.026,1.1C946.751,1212.18,946.73,1213.309,946.728,1214.438Z" transform="translate(-778.121 -1198.203)"/><path class="b" d="M580.607,1215.953a3.074,3.074,0,0,0,2.251,2.766,10.225,10.225,0,0,0,5.824-.09c.281-.063.556-.152,1.064-.293.193,1.155.42,2.241.522,3.34a1.038,1.038,0,0,1-.61.783c-3.376.927-6.765,1.342-10.051-.306a6.7,6.7,0,0,1-3.4-3.87,10.681,10.681,0,0,1,.018-7.625,8.035,8.035,0,0,1,10.76-4.577c2.685,1.1,3.914,3.3,4.29,6.044.524,3.824.5,3.827-3.293,3.827h-7.37Zm5.856-3.288a2.594,2.594,0,0,0-2.36-3.151,2.934,2.934,0,0,0-3.394,2.414c-.013.235.352.7.553.7C583,1212.689,584.746,1212.665,586.463,1212.665Z" transform="translate(-503.929 -1197.916)"/><path class="b" d="M380.377,1215.584c0,2.3-.039,4.608.02,6.91.022.872-.239,1.385-1.114,1.464a60.662,60.662,0,0,1-7.236.566c-3.767-.114-5.911-2.219-6.136-5.972-.2-3.423-.077-6.865-.12-10.3-.009-.695.345-.857.935-.849.964.012,1.928.029,2.891-.006.772-.028,1.006.3,1,1.051-.033,2.638-.021,5.277-.006,7.916a10.925,10.925,0,0,0,.144,1.747c.43,2.555,2.2,2.624,4.182,2.255.274-.051.58-.832.587-1.278.049-3.392.065-6.785,0-10.177-.019-1.106.238-1.552,1.451-1.536,3.4.044,3.4-.01,3.4,3.435Q380.377,1213.2,380.377,1215.584Z" transform="translate(-347.003 -1199.376)"/><path class="b" d="M512.843,1215.411c0-2.3.033-4.607-.018-6.909-.018-.828.26-1.307,1.07-1.368a74.5,74.5,0,0,1,8.11-.49,5.09,5.09,0,0,1,5.087,4.846c.315,3.785.245,7.6.284,11.407,0,.265-.443.559-.721.79-.1.084-.324.023-.492.028-3.55.106-3.54.106-3.553-3.425-.008-2.26.03-4.524-.093-6.78-.166-3.044-1.909-3.14-4.172-2.838-.28.037-.658.782-.665,1.2-.054,3.433-.079,6.868,0,10.3.026,1.2-.311,1.589-1.537,1.568-3.3-.056-3.3,0-3.3-3.308Z" transform="translate(-457.024 -1198.819)"/><path class="b" d="M1074.855,1219.306c1.34.289,2.438.547,3.545.754a5.883,5.883,0,0,0,1.624.13c.835-.082,1.974.11,2.164-1.036.174-1.046-.863-1.3-1.607-1.643-1.027-.47-2.094-.856-3.107-1.354a4.9,4.9,0,0,1-2.962-5.416,4.709,4.709,0,0,1,4.3-4.117,45.59,45.59,0,0,1,6.592.306c.7.045.872.467.75,1.144-.489,2.723-.469,2.691-3.207,2.294a8.406,8.406,0,0,0-2.607.05,1.453,1.453,0,0,0-1,.918c-.052.359.352.888.7,1.175a6.056,6.056,0,0,0,1.452.724c.842.373,1.714.683,2.532,1.1,2.525,1.29,3.35,2.964,2.906,5.773-.293,1.856-1.895,3.3-4.251,3.733a16.37,16.37,0,0,1-7.589-.379c-.785-.225-1.128-.566-.852-1.437S1074.647,1220.257,1074.855,1219.306Z" transform="translate(-877.047 -1198.777)"/><path class="b" d="M704.639,1210.864c-.982-.2-1.791-.4-2.612-.515a5.374,5.374,0,0,0-1.988-.046,6.061,6.061,0,0,0-1.583.988c.376.494.65,1.171,1.147,1.445,1.166.643,2.474,1.023,3.659,1.636,2.4,1.241,3.292,2.952,2.94,5.407-.3,2.087-1.787,3.557-4.242,4.042a16.233,16.233,0,0,1-7.7-.36c-.813-.232-1.086-.639-.843-1.466.254-.868.422-1.76.626-2.634,1.573.291,2.992.658,4.432.786,1.021.091,2.48.42,2.826-.906.353-1.349-1.162-1.495-2.029-1.945-.851-.441-1.787-.717-2.644-1.148a4.89,4.89,0,0,1-2.905-5.552,4.749,4.749,0,0,1,4.294-3.978,47.233,47.233,0,0,1,6.585.319c.67.046.93.428.72,1.135C705.06,1208.947,704.883,1209.845,704.639,1210.864Z" transform="translate(-592.091 -1198.779)"/><path class="b" d="M429.487,1218.59c1.415.286,2.667.6,3.938.771a7.166,7.166,0,0,0,2.361-.078,1.527,1.527,0,0,0,1-.9,1.33,1.33,0,0,0-.613-1.086,27.383,27.383,0,0,0-3.082-1.39c-2.309-.919-3.965-2.322-3.98-5.046a4.89,4.89,0,0,1,4.1-4.981,13.618,13.618,0,0,1,6.945.367,1.173,1.173,0,0,1,.595.962,27.711,27.711,0,0,1-.655,2.9c-.88-.174-1.677-.386-2.489-.477a7.959,7.959,0,0,0-2.36-.02c-.488.095-1.175.551-1.256.949-.076.376.449.98.849,1.316a5.935,5.935,0,0,0,1.468.682c.8.352,1.633.656,2.408,1.064,2.424,1.276,3.3,2.994,2.9,5.547-.314,2-1.83,3.453-4.221,3.912a16.2,16.2,0,0,1-7.7-.367c-.8-.233-1.1-.6-.838-1.453S429.278,1219.5,429.487,1218.59Z" transform="translate(-394.126 -1198.036)"/><path class="b" d="M641.333,1219.4c1.86.3,3.46.642,5.077.772.854.069,2.069.183,2.281-1.012.2-1.107-.931-1.342-1.7-1.7-.986-.458-2.019-.817-2.994-1.3a4.878,4.878,0,0,1-2.973-5.289,4.715,4.715,0,0,1,4.3-4.252,46.214,46.214,0,0,1,6.59.3c.709.045.907.5.74,1.154-.01.041-.018.082-.026.123-.478,2.6-.475,2.585-3.044,2.186a6.229,6.229,0,0,0-2.237-.076,5.194,5.194,0,0,0-1.543,1.023,6.552,6.552,0,0,0,1.08,1.379,8.307,8.307,0,0,0,1.714.758c.691.3,1.4.573,2.061.923a4.778,4.778,0,0,1,2.823,5.583c-.275,1.906-1.794,3.365-4.147,3.833a16.243,16.243,0,0,1-7.71-.344c-.795-.226-1.114-.585-.858-1.444S641.156,1220.252,641.333,1219.4Z" transform="translate(-552.696 -1198.778)"/><path class="b" d="M768.6,1213.233a12.861,12.861,0,0,1-2.08,6.59,8.418,8.418,0,0,1-8.823,4.009,4.616,4.616,0,0,1-4.024-3.5c-.954-3.379.224-9.918,4.705-12.654a8.476,8.476,0,0,1,5.794-1.157C767.083,1206.95,768.651,1209.143,768.6,1213.233Zm-2.735-.37c-.342-1.4-.355-2.818-1.748-3.459a3.884,3.884,0,0,0-4.151.483,8.027,8.027,0,0,0-1.507,1.494,10.537,10.537,0,0,0-2.064,6.464c-.026,3.109,2.614,4.615,5.247,2.915a7.187,7.187,0,0,0,2.492-2.723A38.7,38.7,0,0,0,765.862,1212.862Z" transform="translate(-637.012 -1198.666)"/><path class="b" d="M811.1,1183.769h5.283c.164,2.275-.1,2.567-2.169,2.569h-1.885c-1.851,0-1.837.005-2.272,1.827-1.04,4.353-2.044,8.716-3.179,13.044a12.938,12.938,0,0,1-1.61,3.51c-1.215,1.935-1.551,1.989-3.85,1.354,0-.113-.052-.279.008-.35,2.5-2.956,2.955-6.675,3.832-10.234,1.192-4.833,2.265-9.7,3.564-14.5,1.488-5.5,6.231-5.943,9.936-4.989.289.075.721.773.647.883-.414.61-.241,1.822-1.5,1.643a16.857,16.857,0,0,0-1.85-.278,3.81,3.81,0,0,0-4.251,2.942C811.538,1181.965,811.366,1182.771,811.1,1183.769Z" transform="translate(-672.953 -1175.602)"/><path class="b" d="M484.993,1215.819c0-2.472.028-4.944-.016-7.415-.015-.831.3-1.072,1.092-1.1,3.7-.146,3.7-.166,3.7,3.514,0,4.021-.025,8.044.018,12.065.01.968-.276,1.316-1.279,1.324-3.512.031-3.512.065-3.512-3.483Z" transform="translate(-436.187 -1199.287)"/><path class="b" d="M488.916,1179.766a2.851,2.851,0,0,1-5.7.024,2.85,2.85,0,0,1,5.7-.024Z" transform="translate(-434.868 -1176.607)"/></g><rect class="b" width="10.955" height="10.955" transform="translate(80.516)"/><rect class="b" width="10.955" height="10.955" transform="translate(93.104)"/><rect class="b" width="10.955" height="10.955" transform="translate(105.689)"/><rect class="b" width="10.955" height="10.955" transform="translate(118.275)"/><rect class="b" width="10.955" height="10.955" transform="translate(80.516 12.586)"/><rect class="b" width="10.955" height="10.955" transform="translate(93.104 12.586)"/><rect class="b" width="10.955" height="10.955" transform="translate(105.689 12.586)"/><rect class="b" width="10.955" height="10.955" transform="translate(118.275 12.586)"/><rect class="b" width="10.955" height="10.955" transform="translate(80.516 25.173)"/><rect class="b" width="10.955" height="10.955" transform="translate(93.104 25.173)"/><rect class="b" width="10.955" height="10.955" transform="translate(105.689 25.173)"/><rect class="b" width="10.955" height="10.955" transform="translate(118.275 25.173)"/><rect class="b" width="10.955" height="10.955" transform="translate(80.516 37.759)"/><rect class="b" width="10.955" height="10.955" transform="translate(93.104 37.759)"/><rect class="b" width="10.955" height="10.955" transform="translate(105.689 37.759)"/><rect class="b" width="10.955" height="10.955" transform="translate(118.275 37.759)"/></g></svg>