<svg xmlns="http://www.w3.org/2000/svg" width="150" height="150" viewBox="0 0 150 150"><defs><style>.a{fill:#3b2c2c;opacity:0;}.b{fill:#bb8ca8;}</style></defs><rect class="a" width="150" height="150"/><g transform="translate(0 52)"><path class="b" d="M23.87-13.348A19.741,19.741,0,0,0,40.3-22.137L34.1-26.87a11.709,11.709,0,0,1-10,5.471c-7.31,0-12.573-6.33-12.573-13.891S16.852-49.12,24.165-49.12a11.683,11.683,0,0,1,9.942,5.471l6.2-4.733A19.741,19.741,0,0,0,23.87-57.173c-11.4,0-20.47,9.958-20.47,21.882C3.4-23.243,12.466-13.348,23.87-13.348Zm25.559-.738V-58.4H41.765v44.314ZM71.882-27.608c0,5.163-3.393,6.761-6.141,6.761-2.632,0-5.2-2.089-5.2-6.577V-42.789h-7.66v15.8c-.058,8.605,3.684,13.646,10.819,13.646,2.69,0,7.018-1.661,8.187-5.408v4.671h7.661v-28.7H71.883ZM93.637-42.789V-53.238h-7.66v10.449H81.006v6.269h4.971v22.434h7.661V-36.52h5.787v-6.269Zm19.475,29.441a13.638,13.638,0,0,0,11.521-6.146l-5.787-4.241a7.088,7.088,0,0,1-5.673,2.888c-4.328,0-7.252-3.442-7.252-7.683a7.157,7.157,0,0,1,7.252-7.5,7.088,7.088,0,0,1,5.673,2.888l5.79-4.241a13.638,13.638,0,0,0-11.524-6.146,14.67,14.67,0,0,0-14.971,15,14.826,14.826,0,0,0,4.265,10.767A14.826,14.826,0,0,0,113.112-13.348Zm28.952-30.179c-2.632,0-7.018,1.6-8.187,5.286V-58.4h-7.666v44.314h7.661V-29.144c0-5.163,3.393-6.761,6.141-6.761,2.632,0,5.2,2.089,5.2,6.577v15.243h7.661V-29.82c.06-8.605-3.683-13.707-10.818-13.707Z" transform="translate(-3.4 58.4)"/><circle class="b" cx="4.332" cy="4.332" r="4.332" transform="translate(105.122 25.559)"/></g></svg>