<svg xmlns="http://www.w3.org/2000/svg" width="171.647" height="68.806" viewBox="0 0 171.647 68.806">
  <g id="Coderglobe" transform="translate(150.542 2013.358)">
    <path id="Path_86018" data-name="Path 86018" d="M1000.64,682.492l-1.344-5.017a29.154,29.154,0,1,0,35.711,35.712l-5.016-1.345a23.82,23.82,0,0,0,.616-3.144l5.151.663a29.426,29.426,0,0,0,.235-3.72H1030.8a24.036,24.036,0,0,0-.81-6.2l5.016-1.344a28.966,28.966,0,0,0-2.915-7.031l-4.5,2.6a24.07,24.07,0,0,0-3.811-4.96l3.672-3.672a29.282,29.282,0,0,0-6.035-4.637,28.989,28.989,0,0,0-7.031-2.916l-1.344,5.017a23.845,23.845,0,0,1,5.779,2.4l-2.688,4.655a18.881,18.881,0,0,1,1.907,1.267l3.239-4.289a24.073,24.073,0,0,1,2.5,2.178l-3.8,3.8a18.679,18.679,0,0,1,2.956,3.846l4.656-2.687a23.817,23.817,0,0,1,2.4,5.779l-5.193,1.392a18.6,18.6,0,0,1,.629,4.811h5.375a24.122,24.122,0,0,1-.195,3.062l-5.33-.69a18.477,18.477,0,0,1-.479,2.439l5.193,1.39a23.817,23.817,0,0,1-2.4,5.779l-4.656-2.687a18.593,18.593,0,1,1-16.1-27.877v-5.374a24.023,24.023,0,0,0-6.2.81" transform="translate(-1128.236 -2680.361)" fill="#fff" fill-rule="evenodd"/>
    <g id="Group_82406" data-name="Group 82406" transform="translate(-87.895 -2003.358)">
      <text id="coders" transform="translate(0 28)" fill="#fff" font-size="35" font-family="SegoeUI-Bold, Segoe UI" font-weight="700"><tspan x="0" y="0">coders</tspan></text>
      <text id="globe" transform="translate(0 51.806)" fill="#fff" font-size="27" font-family="SegoeUI, Segoe UI"><tspan x="0" y="0">globe</tspan></text>
    </g>
  </g>
</svg>
