<svg xmlns="http://www.w3.org/2000/svg" xmlns:xlink="http://www.w3.org/1999/xlink" width="204" height="204" viewBox="0 0 204 204"><defs><linearGradient id="linear-gradient" x1="0.5" x2="0.5" y2="1" gradientUnits="objectBoundingBox"><stop offset="0" stop-color="#571c56"></stop><stop offset="0.47" stop-color="#fc1141"></stop><stop offset="1" stop-color="#fcd000"></stop></linearGradient><clipPath id="clip-path"><rect id="Rectangle_23370" data-name="Rectangle 23370" width="116" height="116" transform="translate(-3085 -6087)" fill="url(#linear-gradient)"></rect></clipPath><linearGradient id="linear-gradient-2" y1="1" y2="0" xlink:href="#linear-gradient"></linearGradient></defs><g id="Construction" transform="translate(3129 6131)"><circle id="Ellipse_4958" data-name="Ellipse 4958" cx="102" cy="102" r="102" transform="translate(-3129 -6131)" fill="#f1f4f8"></circle><g id="Mask_Group_65" data-name="Mask Group 65" clip-path="url(#clip-path)"><path id="construction_1_" data-name="construction (1)" d="M110.387,3.742H92.922a5.612,5.612,0,0,0-5.519,4.6L84.884,22.01A14.112,14.112,0,0,0,78.221,17.2a14.689,14.689,0,0,0-9.561-9.424l-1.7-3.4a7.928,7.928,0,0,0-13.995-.35,14.691,14.691,0,0,0-9.6,9.518,12.593,12.593,0,0,0-7.325,8.575l-.176.707a14.132,14.132,0,0,0-9.276,10.56l-.058.286h-.337a3.746,3.746,0,0,0-3.742,3.742v3.742A3.746,3.746,0,0,0,26.194,44.9h.178L27.9,60.187a7.466,7.466,0,0,0-4.408,3.426H22.008l-10-36.656A6.113,6.113,0,0,0,0,28.566v.821a6.135,6.135,0,0,0,.2,1.557L8.8,63.613H7.484a3.746,3.746,0,0,0-3.742,3.742V71.1a3.746,3.746,0,0,0,3.742,3.742h.082l1.628,35.8A5.6,5.6,0,0,0,14.8,116h89.973a3.746,3.746,0,0,0,3.742-3.742V97.29a3.746,3.746,0,0,0-3.742-3.742H93.548V78.581a3.746,3.746,0,0,0-3.742-3.742H86.448L96.972,18.71h13.415A5.62,5.62,0,0,0,116,13.1V9.355A5.62,5.62,0,0,0,110.387,3.742Zm-72.515,22.4,1.091-.273.707-2.833a8.865,8.865,0,0,1,5.824-6.29l.975-.324.249-1a10.968,10.968,0,0,1,7.993-7.993l.834-.208.584-1.166a4.184,4.184,0,0,1,7.484,0l2.455,4.906.834.208a10.965,10.965,0,0,1,7.993,7.993l.273,1.091,1.091.271a10.371,10.371,0,0,1,7.5,7.576l-1.029,5.579H30.381a10.353,10.353,0,0,1,7.491-7.54ZM26.194,37.419H82.046l-.689,3.742H26.194ZM80.667,44.9,75.153,74.839H63.613a3.746,3.746,0,0,0-3.742,3.742V93.548H51.453l.851-18.71h.082A3.746,3.746,0,0,0,56.129,71.1V67.355a3.746,3.746,0,0,0-3.742-3.742H36.379a7.473,7.473,0,0,0-4.728-3.525L30.132,44.9ZM37.419,67.355H52.387V71.1H36.379A7.407,7.407,0,0,0,37.419,67.355Zm-7.484-3.742a3.742,3.742,0,1,1-3.742,3.742A3.746,3.746,0,0,1,29.935,63.613ZM3.821,29.988a2.3,2.3,0,0,1-.079-.6v-.821A2.372,2.372,0,0,1,8.4,27.941l9.729,35.672H12.668ZM7.484,67.355H22.452a7.407,7.407,0,0,0,1.04,3.742H7.484Zm20.38,7.484a40.368,40.368,0,0,1-15.31,27.322l-1.24-27.322ZM14.8,112.258a1.867,1.867,0,0,1-1.869-1.785l-.174-3.821A44.118,44.118,0,0,0,31.629,74.839h16.93L47.7,93.683a3.74,3.74,0,0,0-2.8,3.607v14.968ZM48.645,97.29H74.839v14.968H48.645Zm56.131,14.968h-26.2V97.29h26.194Zm-14.97-18.71H63.613V78.581H89.806Zm-7.166-18.71H78.957L89.3,18.71h3.869ZM112.258,13.1a1.873,1.873,0,0,1-1.871,1.871h-20.4l1.1-5.953a1.871,1.871,0,0,1,1.839-1.53h17.465a1.873,1.873,0,0,1,1.871,1.871ZM59.871,11.226v3.742a3.746,3.746,0,0,0-3.742,3.742H52.387A7.491,7.491,0,0,1,59.871,11.226ZM48.645,22.452v3.742A3.746,3.746,0,0,0,44.9,29.935H41.161A7.491,7.491,0,0,1,48.645,22.452Zm26.194,7.484H71.1a3.746,3.746,0,0,0-3.742-3.742V22.452A7.491,7.491,0,0,1,74.839,29.935Z" transform="translate(-3085 -6087)" fill="url(#linear-gradient-2)"></path></g></g></svg>