<svg xmlns="http://www.w3.org/2000/svg" xmlns:xlink="http://www.w3.org/1999/xlink" width="204" height="204" viewBox="0 0 204 204"><defs><style>.a{fill:#f1f4f8;}.b{fill:#fff;opacity:0;}.c{fill:url(#a);}</style><linearGradient id="a" x1="0.5" x2="0.5" y2="1" gradientUnits="objectBoundingBox"><stop offset="0" stop-color="#571c56"></stop><stop offset="0.47" stop-color="#e5153f"></stop><stop offset="1" stop-color="#fcd000"></stop></linearGradient></defs><g transform="translate(-1689 508)"><circle class="a" cx="102" cy="102" r="102" transform="translate(1689 -508)"></circle><rect class="b" width="116" height="116" transform="translate(1733 -464)"></rect><path class="c" d="M-1722.819,577.212a20.24,20.24,0,0,1-9.5-12.371,20.233,20.233,0,0,1,2.036-15.461,20.416,20.416,0,0,1,21.612-9.8l17.616-17.609-17.6-17.6a20.239,20.239,0,0,1-14.188-2.335,20.363,20.363,0,0,1-10.143-16.239c-.158-2.248.421-3.8,1.721-4.611,1.274-.8,2.857-.661,4.7.4l6.079,3.508c1.037.6,1.3.445,1.743.19l2.255-1.3c1.407-.811,1.568-1.09,1.568-2.714v-2.6c0-.525,0-.814-1.035-1.411l-6.08-3.509c-1.846-1.065-2.756-2.367-2.7-3.87.053-1.531,1.108-2.808,3.134-3.8a20.379,20.379,0,0,1,19.139.661,20.4,20.4,0,0,1,9.806,21.6l1.773,1.772a2.264,2.264,0,0,1,0,3.2,2.265,2.265,0,0,1-3.2,0l-1.059-1.058-9.6,9.611,16.894,16.887,9.607-9.6-1.428-1.427a2.264,2.264,0,0,1,0-3.2,2.265,2.265,0,0,1,3.2,0l1.429,1.428,17.6-17.6a20.214,20.214,0,0,1,2.336-14.182,20.411,20.411,0,0,1,27.842-7.458,20.243,20.243,0,0,1,9.5,12.371,20.233,20.233,0,0,1-2.037,15.461,20.427,20.427,0,0,1-17.666,10.191,20.261,20.261,0,0,1-3.946-.388l-17.616,17.608,17.6,17.6a20.23,20.23,0,0,1,14.188,2.335,20.358,20.358,0,0,1,10.143,16.239c.157,2.247-.422,3.8-1.721,4.611-1.275.8-2.858.661-4.7-.4l-6.08-3.509c-1.036-.6-1.3-.444-1.742-.19l-2.255,1.3c-1.406.812-1.567,1.091-1.567,2.714v2.6c0,.526,0,.815,1.035,1.412l6.079,3.508c1.847,1.066,2.756,2.368,2.7,3.871-.053,1.531-1.108,2.808-3.134,3.8a20.426,20.426,0,0,1-8.952,2.069,20.355,20.355,0,0,1-10.186-2.732,20.4,20.4,0,0,1-9.807-21.6l-17.617-17.609-17.6,17.6a20.21,20.21,0,0,1-2.336,14.182,20.4,20.4,0,0,1-17.685,10.183A20.253,20.253,0,0,1-1722.819,577.212Zm-3.538-25.567a15.735,15.735,0,0,0-1.583,12.023,15.74,15.74,0,0,0,7.385,9.621,15.875,15.875,0,0,0,21.656-5.8,15.724,15.724,0,0,0,1.716-11.473l-11.927-11.9a15.747,15.747,0,0,0-3.507-.4A15.887,15.887,0,0,0-1726.357,551.645Zm85.38-7.539-11.9,11.92a15.86,15.86,0,0,0,7.532,17.239,15.848,15.848,0,0,0,14.663.622l-5.7-3.289a5.842,5.842,0,0,1-3.3-5.335v-2.6a6.673,6.673,0,0,1,3.832-6.636l2.255-1.3a5.844,5.844,0,0,1,6.271.191l5.7,3.29a15.837,15.837,0,0,0-7.87-12.381,15.749,15.749,0,0,0-7.895-2.127A15.944,15.944,0,0,0-1640.976,544.106Zm-30.857-9.331,16.9,16.895,9.6-9.612-16.894-16.887Zm-32.916,7.292,9.616,9.595,49.81-49.79-9.616-9.595Zm-15.828-43.951a15.738,15.738,0,0,0,11.48,1.715l11.905-11.921a15.861,15.861,0,0,0-7.533-17.239,15.849,15.849,0,0,0-14.662-.622l5.7,3.29a5.842,5.842,0,0,1,3.3,5.334v2.6a6.675,6.675,0,0,1-3.833,6.636l-2.255,1.3a5.841,5.841,0,0,1-6.27-.19l-5.7-3.29A15.839,15.839,0,0,0-1720.578,498.116Zm69.4-21.668a15.724,15.724,0,0,0-1.716,11.473l11.927,11.9a15.752,15.752,0,0,0,3.507.4,15.885,15.885,0,0,0,13.74-7.926,15.732,15.732,0,0,0,1.583-12.022,15.738,15.738,0,0,0-7.385-9.621,15.76,15.76,0,0,0-7.9-2.12A15.865,15.865,0,0,0-1651.175,476.448Zm-62.584,92.922-6.794-3.921a2.264,2.264,0,0,1-1.133-1.961v-7.842a2.264,2.264,0,0,1,1.133-1.961l6.794-3.921a2.265,2.265,0,0,1,2.264,0l6.794,3.921a2.264,2.264,0,0,1,1.133,1.961v7.842a2.264,2.264,0,0,1-1.133,1.961l-6.793,3.921a2.272,2.272,0,0,1-1.132.3A2.268,2.268,0,0,1-1713.759,569.371Zm-3.4-12.416v5.226l4.529,2.614,4.53-2.614v-5.226l-4.53-2.614Zm29.617-58.024a2.264,2.264,0,0,1,2.264-2.264h0a2.264,2.264,0,0,1,2.264,2.264,2.264,2.264,0,0,1-2.264,2.264A2.265,2.265,0,0,1-1687.54,498.93Zm48.962-4.757-6.794-3.921a2.264,2.264,0,0,1-1.132-1.961V480.45a2.266,2.266,0,0,1,1.132-1.962l6.794-3.92a2.264,2.264,0,0,1,2.264,0l6.793,3.92a2.266,2.266,0,0,1,1.133,1.962v7.842a2.264,2.264,0,0,1-1.133,1.961l-6.793,3.921a2.269,2.269,0,0,1-1.132.3A2.269,2.269,0,0,1-1638.578,494.174Zm-3.4-12.416v5.225l4.53,2.615,4.529-2.615v-5.225l-4.529-2.615Z" transform="translate(3466.037 -928)"></path></g></svg>