<svg xmlns="http://www.w3.org/2000/svg" xmlns:xlink="http://www.w3.org/1999/xlink" width="204" height="204" viewBox="0 0 204 204"><defs><style>.a{fill:#f1f4f8;}.b{opacity:0;}.b,.c{fill:url(#a);}</style><linearGradient id="a" x1="0.5" x2="0.5" y2="1" gradientUnits="objectBoundingBox"><stop offset="0" stop-color="#571c56"></stop><stop offset="0.47" stop-color="#e5153f"></stop><stop offset="1" stop-color="#fcd000"></stop></linearGradient></defs><circle class="a" cx="102" cy="102" r="102"></circle><g transform="translate(57 44)"><rect class="b" width="116" height="116"></rect><g transform="translate(0 -0.234)"><path class="c" d="M8653.354,8085.7a9.365,9.365,0,0,1-9.355-9.355v-97.291a9.365,9.365,0,0,1,9.355-9.353H8702a9.362,9.362,0,0,1,9.353,9.353v24.323h14.969v3.742h8.409a12.122,12.122,0,0,1,17.441-5.754l8.405,5.042-.773,1.55a18.185,18.185,0,0,1-3.865,4.894,10.429,10.429,0,0,1,3.967,4.9l.475,1.425-8.208,4.925a12.124,12.124,0,0,1-17.439-5.756h-8.411v3.742h-14.969v11.226h32.307l16.371,9.355-16.371,9.355h-32.307v24.321A9.362,9.362,0,0,1,8702,8085.7Zm-5.613-9.355a5.62,5.62,0,0,0,5.613,5.613H8702a5.62,5.62,0,0,0,5.613-5.613v-5.613h-59.873Zm0-9.355h59.873v-14.966h-3.742v11.224h-52.389v-71.1h52.389v11.226h3.742v-14.968h-59.873Zm7.484-7.484h44.9v-7.482h-29.937a5.622,5.622,0,0,1-5.613-5.615v-7.482a5.62,5.62,0,0,1,5.613-5.613h29.937v-11.226h-31.808a9.355,9.355,0,0,1,0-18.71h31.808v-7.484h-44.9Zm35.549-11.226h50.516v-3.74h-50.516Zm-7.483,0h3.741v-11.224h-3.741Zm-14.969-9.353v7.482a1.871,1.871,0,0,0,1.871,1.871h9.355v-11.224h-9.355A1.871,1.871,0,0,0,8668.322,8038.927Zm76.71,8,7.453-4.259-7.453-4.261Zm-54.258-6.13h50.516v-3.742h-50.516Zm13.1-7.484h3.742v-11.226h-3.742Zm33.676-21.551v1.941a8.387,8.387,0,0,0,12.7,7.19l5.385-3.23c-.948-1.282-2.964-3.061-6.857-3.061v-3.742a14.783,14.783,0,0,1,3.2.332,13.835,13.835,0,0,0,3.554-3.454l-5.277-3.166a8.383,8.383,0,0,0-12.7,7.189Zm-18.71,6.583h3.742V8007.12h-3.742Zm-56.129-5.613a5.62,5.62,0,0,0,5.613,5.613H8715.1V8007.12h-46.773A5.621,5.621,0,0,0,8662.709,8012.732Zm63.613,1.869h7.53c-.022-.3-.047-.594-.047-.9v-1.939c0-.3.024-.6.047-.9v0h-7.53Zm-78.581-35.547v5.613h59.873v-5.613a5.622,5.622,0,0,0-5.613-5.613h-48.646A5.622,5.622,0,0,0,8647.741,7979.054Zm24.323,99.162v-3.742h11.227v3.742Zm-5.613-65.484a1.871,1.871,0,1,1,1.871,1.871A1.871,1.871,0,0,1,8666.451,8012.732Zm22.452-31.807v-3.742h3.742v3.742Zm-18.71,0v-3.742h14.969v3.742Zm-7.484,0v-3.742h3.742v3.742Z" transform="translate(-8644 -7969.466)"></path></g></g></svg>