<svg xmlns="http://www.w3.org/2000/svg" xmlns:xlink="http://www.w3.org/1999/xlink" width="204" height="204" viewBox="0 0 204 204"><defs><style>.a{fill:#f1f4f8;}.b{fill:#fff;opacity:0;}.c{fill:url(#a);}</style><linearGradient id="a" x1="0.5" x2="0.5" y2="1" gradientUnits="objectBoundingBox"><stop offset="0" stop-color="#571c56"></stop><stop offset="0.47" stop-color="#e5153f"></stop><stop offset="1" stop-color="#fcd000"></stop></linearGradient></defs><g transform="translate(353 -584)"><circle class="a" cx="102" cy="102" r="102" transform="translate(-353 584)"></circle><rect class="b" width="116" height="116" transform="translate(-309 628)"></rect><g transform="translate(-309 629.259)"><path class="c" d="M385.609-517.7c-.031-.011-.065-.006-.094-.019L349.733-532.45l-37.906,12.635a2.119,2.119,0,0,1-.679.112,2.159,2.159,0,0,1-1.255-.4,2.151,2.151,0,0,1-.894-1.744v-92.371a2.148,2.148,0,0,1,1.47-2.039l38.667-12.889c.013,0,.028,0,.043-.008a1.89,1.89,0,0,1,.191-.041,2.136,2.136,0,0,1,.344-.053c.056,0,.11,0,.163.006a2.176,2.176,0,0,1,.361.037c.06.013.119.031.178.049a2.125,2.125,0,0,1,.316.119c.028.013.06.017.088.032l35.513,18.8,35.516-18.8a2.144,2.144,0,0,1,2.111.058,2.151,2.151,0,0,1,1.04,1.841v88.075a2.147,2.147,0,0,1-1.143,1.9L387.338-517.8a2.17,2.17,0,0,1-.257.1c-.06.022-.116.049-.176.067a2.163,2.163,0,0,1-.572.084A2.169,2.169,0,0,1,385.609-517.7Zm-31.627-49.079a2.149,2.149,0,0,1,2.147,2.1,2.15,2.15,0,0,1-2.1,2.193c-.707.015-1.375.1-2.065.157v26.143l32.224,13.27v-33.772a36.476,36.476,0,0,1-5.547-.621,2.148,2.148,0,0,1-1.7-2.517,2.142,2.142,0,0,1,2.517-1.7,32.091,32.091,0,0,0,4.728.563v-45.527l-32.222-17.059v56.864c.651-.045,1.306-.082,1.972-.1Zm34.5-39.708v45.7a2.134,2.134,0,0,1,1.261,1.763,2.131,2.131,0,0,1-1.261,2.105v33.64L420.7-540.332v-83.21ZM313.3-612.673v87.84l34.37-11.453v-25.434c-.535.112-1.1.18-1.613.318a2.268,2.268,0,0,1-.553.071,2.149,2.149,0,0,1-2.074-1.6,2.147,2.147,0,0,1,1.525-2.627c.881-.232,1.792-.421,2.715-.589v-57.983Zm10.446,75.761a2.144,2.144,0,0,1-1.834-2.417,34.261,34.261,0,0,1,2.773-8.806,2.15,2.15,0,0,1,2.851-1.05,2.153,2.153,0,0,1,1.05,2.853,30.3,30.3,0,0,0-2.416,7.592,2.154,2.154,0,0,1-2.127,1.849A1.954,1.954,0,0,1,323.743-536.912Zm6.073-15.935a2.148,2.148,0,0,1-.258-3.027,29.791,29.791,0,0,1,6.95-6.058,2.146,2.146,0,0,1,2.96.679,2.15,2.15,0,0,1-.679,2.962,25.429,25.429,0,0,0-5.946,5.186,2.146,2.146,0,0,1-1.643.763A2.143,2.143,0,0,1,329.816-552.847Zm64.1-7.274a2.148,2.148,0,0,1,.934-2.892,18.069,18.069,0,0,0,5.875-4.848,2.156,2.156,0,0,1,3.02-.33,2.146,2.146,0,0,1,.331,3.02,22.377,22.377,0,0,1-7.269,5.985,2.141,2.141,0,0,1-.976.234A2.158,2.158,0,0,1,393.918-560.12Zm-23.913.2c-.77-.32-1.319-.58-1.607-.717-2.114-.537-4.191-.962-6.18-1.267a2.149,2.149,0,0,1-1.8-2.449,2.146,2.146,0,0,1,2.449-1.8c2.2.335,4.489.807,6.816,1.4a2.132,2.132,0,0,1,.44.167c.037.02.591.294,1.538.692a2.149,2.149,0,0,1,1.154,2.813,2.146,2.146,0,0,1-1.983,1.319A2.12,2.12,0,0,1,370.005-559.919Zm-34.6-9.821-2.778-2.778-2.777,2.778a2.142,2.142,0,0,1-1.518.629,2.145,2.145,0,0,1-1.519-.629,2.146,2.146,0,0,1,0-3.037l2.778-2.778-2.778-2.777a2.146,2.146,0,0,1,0-3.037,2.146,2.146,0,0,1,3.038,0l2.777,2.777,2.778-2.777a2.146,2.146,0,0,1,3.038,0,2.146,2.146,0,0,1,0,3.037l-2.778,2.777,2.778,2.778a2.146,2.146,0,0,1,0,3.037,2.145,2.145,0,0,1-1.519.629A2.142,2.142,0,0,1,335.408-569.74Zm70.41-2.221a2.151,2.151,0,0,1-1.216-2.785,43.7,43.7,0,0,0,2.189-7.869,2.165,2.165,0,0,1,2.507-1.718,2.15,2.15,0,0,1,1.717,2.506,48.122,48.122,0,0,1-2.413,8.645,2.15,2.15,0,0,1-2,1.366A2.136,2.136,0,0,1,405.817-571.961ZM330.482-586.3v-4.513a10.76,10.76,0,0,1-8.593-10.525,10.753,10.753,0,0,1,10.741-10.741,10.753,10.753,0,0,1,10.741,10.741,10.76,10.76,0,0,1-8.593,10.525v4.513a2.148,2.148,0,0,1-2.148,2.148A2.147,2.147,0,0,1,330.482-586.3Zm-4.3-15.037a6.453,6.453,0,0,0,6.444,6.445,6.453,6.453,0,0,0,6.445-6.445,6.453,6.453,0,0,0-6.445-6.444A6.453,6.453,0,0,0,326.185-601.333ZM409.8-588.592a2.151,2.151,0,0,1-2.007-2.281c.127-1.976.192-4.066.192-6.214,0-.717-.009-1.45-.022-2.2a2.149,2.149,0,0,1,2.11-2.186,2.21,2.21,0,0,1,2.187,2.11q.022,1.156.021,2.273c0,2.238-.067,4.423-.2,6.487a2.147,2.147,0,0,1-2.141,2.012C409.89-588.588,409.845-588.59,409.8-588.592Z" transform="translate(-309 630.259)"></path></g></g></svg>