<svg xmlns="http://www.w3.org/2000/svg" xmlns:xlink="http://www.w3.org/1999/xlink" width="204" height="204" viewBox="0 0 204 204"><defs><style>.a{opacity:0.05;fill:url(#a);}.b{fill:#fff;stroke:#fff;opacity:0;}.c{fill:url(#b);}.d{fill:url(#c);}.e{fill:url(#d);}.f{fill:url(#e);}.g{fill:url(#f);}.h{fill:url(#g);}.i{fill:url(#h);}.j{fill:url(#i);}.k{stroke:none;}.l{fill:none;}</style><linearGradient id="a" x1="0.5" x2="0.5" y2="1" gradientUnits="objectBoundingBox"><stop offset="0" stop-color="#fff"/><stop offset="0.47" stop-color="#fff"/><stop offset="1" stop-color="#fff"/></linearGradient><linearGradient id="b" x1="-0.058" y1="1.139" x2="0.848" y2="0.082" xlink:href="#a"/><linearGradient id="c" x1="-0.431" y1="2.19" x2="1.511" y2="-1.335" xlink:href="#a"/><linearGradient id="d" x1="-1.25" y1="2.996" x2="1.222" y2="-0.53" xlink:href="#a"/><linearGradient id="e" x1="-18.115" y1="22.219" x2="9.078" y2="-9.508" xlink:href="#a"/><linearGradient id="f" x1="-5.212" y1="23.824" x2="2.558" y2="-7.902" xlink:href="#a"/><linearGradient id="g" x1="-8.42" y1="21.313" x2="5.177" y2="-10.414" xlink:href="#a"/><linearGradient id="h" x1="-7.186" y1="22.919" x2="3.691" y2="-8.808" xlink:href="#a"/><linearGradient id="i" x1="-4.158" y1="5.747" x2="2.64" y2="-2.184" xlink:href="#a"/></defs><g transform="translate(-1418 -2519)"><circle class="a" cx="102" cy="102" r="102" transform="translate(1418 2519)"/><g transform="translate(16270.003 4833.003)"><g class="b" transform="translate(-14815.003 -2277.003)"><rect class="k" width="130" height="130"/><rect class="l" x="0.5" y="0.5" width="129" height="129"/></g><g transform="translate(-14815 -2277.003)"><path class="c" d="M125.5,30.167h-4.333V28h2.167a6.5,6.5,0,0,0,0-13h-2.167V4.168a2.1,2.1,0,0,0-.888-1.733,2.147,2.147,0,0,0-1.907-.347L90.5,10.667H75.664A2.167,2.167,0,0,0,73.5,12.834V15H69.164A2.167,2.167,0,0,0,67,17.167v8.666A2.167,2.167,0,0,0,69.164,28H73.5v2.167h-13v-19.5A2.167,2.167,0,0,0,58.331,8.5H15a2.167,2.167,0,0,0-2.167,2.167v19.5H8.5a6.519,6.519,0,0,0-6.5,6.5V106a6.519,6.519,0,0,0,6.5,6.5H58.331V119h-13a2.167,2.167,0,0,0-2.167,2.167v8.666A2.167,2.167,0,0,0,45.332,132H88.663a2.167,2.167,0,0,0,2.167-2.167v-8.666A2.167,2.167,0,0,0,88.663,119h-13v-6.5H125.5a6.519,6.519,0,0,0,6.5-6.5V36.666a6.519,6.519,0,0,0-6.5-6.5Zm-4.333-10.833h2.167a2.167,2.167,0,0,1,0,4.333h-2.167ZM93,14.437l23.832-7.345V35.908L93,28.563ZM77.83,15H88.663V28H77.83Zm6.175,17.333-1.56,10.833H80V32.333ZM71.331,23.667V19.334H73.5v4.333ZM17.166,12.834h39V43.166h-39ZM86.5,123.33v4.333h-39V123.33ZM62.664,119v-6.5h8.666V119Zm65-13a2.167,2.167,0,0,1-2.167,2.167H8.5A2.167,2.167,0,0,1,6.333,106V103.83H127.662Zm0-6.5H6.333V36.666A2.167,2.167,0,0,1,8.5,34.5h4.333V45.333A2.167,2.167,0,0,0,15,47.5H58.331A2.167,2.167,0,0,0,60.5,45.333V34.5H75.664V45.333A2.167,2.167,0,0,0,77.83,47.5h6.5a2.167,2.167,0,0,0,2.145-1.863l1.907-13.3H90.5l27.862,8.58A2,2,0,0,0,119,41a2.2,2.2,0,0,0,2.167-2.167V34.5H125.5a2.167,2.167,0,0,1,2.167,2.167Z" transform="translate(-2 -1.999)"/><path class="d" d="M8.167,66H64.5a2.167,2.167,0,0,0,2.167-2.167V29.167A2.167,2.167,0,0,0,64.5,27H8.167A2.167,2.167,0,0,0,6,29.167V63.832A2.167,2.167,0,0,0,8.167,66Zm2.167-4.333V33.043L35.2,48.345a2.167,2.167,0,0,0,2.271,0l24.864-15.3V61.665Zm5.488-30.332H56.843L36.332,43.956Z" transform="translate(2.666 27.167)"/><path class="e" d="M38.167,55.332H42.5v6.5A2.167,2.167,0,0,0,44.666,64H81.5a2.167,2.167,0,0,0,2.167-2.167v-26A2.167,2.167,0,0,0,81.5,33.666H79.332v-6.5A2.167,2.167,0,0,0,77.165,25h-39A2.167,2.167,0,0,0,36,27.167v26A2.167,2.167,0,0,0,38.167,55.332Zm41.165,4.333h-32.5V38h32.5Zm-39-30.332H75v4.333H44.666A2.167,2.167,0,0,0,42.5,35.833V51H40.333Z" transform="translate(37.664 24.833)"/><path class="f" d="M43,33h4.333v4.333H43Z" transform="translate(45.83 34.166)"/><path class="g" d="M47,33H62.166v4.333H47Z" transform="translate(50.496 34.166)"/><path class="h" d="M43,37h8.666v4.333H43Z" transform="translate(45.83 38.832)"/><path class="i" d="M49,37H59.833v4.333H49Z" transform="translate(52.829 38.832)"/><path class="j" d="M16.027,27.01a2.167,2.167,0,0,0,2.108.1l13-6.5a2.167,2.167,0,0,0,0-3.878l-13-6.5A2.167,2.167,0,0,0,15,12.167v13A2.167,2.167,0,0,0,16.027,27.01Zm3.306-11.338,5.988,2.994-5.988,2.994Z" transform="translate(13.166 7.334)"/></g></g></g></svg>