<?xml version="1.0" encoding="UTF-8"?>
<svg xmlns="http://www.w3.org/2000/svg" xmlns:xlink="http://www.w3.org/1999/xlink" width="131" height="115" viewBox="0 0 131 115">
  <defs>
    <clipPath id="clip-path">
      <rect id="Rectangle_2" data-name="Rectangle 2" width="80.012" height="13.043" fill="none"></rect>
    </clipPath>
    <clipPath id="clip-path-2">
      <rect id="Rectangle_1" data-name="Rectangle 1" width="40.023" height="30.95" fill="none"></rect>
    </clipPath>
  </defs>
  <g id="Dimitra" transform="translate(-6468 -386)">
    <rect id="Rectangle_3865" data-name="Rectangle 3865" width="131" height="115" transform="translate(6468 386)" fill="#fff" opacity="0"></rect>
    <g id="logo" transform="translate(6419.54 379.406)">
      <g id="Logo_Text" transform="translate(98.272 58.132)">
        <g id="Group_3" data-name="Group 3" clip-path="url(#clip-path)">
          <path id="Path_3" data-name="Path 3" d="M75.462,7.9H71l2.22-5.18ZM74.314,0H72.206l-5.7,13.043h2.331l1.332-3.127h6.124l1.314,3.127h2.4Zm-11.8,4.329a2.059,2.059,0,0,1-.33,1.159,2.087,2.087,0,0,1-.919.752,3.48,3.48,0,0,1-1.415.272h-3.33V2.165h3.311a3.8,3.8,0,0,1,1.443.244,1.931,1.931,0,0,1,.919.728,2.112,2.112,0,0,1,.321,1.194m2.719,8.713-3.5-4.9a4.733,4.733,0,0,0,1.606-.768,3.613,3.613,0,0,0,1.085-1.307,4.2,4.2,0,0,0,.4-1.866,4.064,4.064,0,0,0-.586-2.192A3.763,3.763,0,0,0,62.584.6a6.12,6.12,0,0,0-2.57-.5H54.242v12.95h2.276V8.528h2.849l3.182,4.514ZM47.73,2.2h4.107V.092H41.329V2.2h4.107V13.043H47.73ZM36.519,13.043h2.276V.092H36.519ZM30.783,3.755v9.288h2.276V.092H30.636L26.7,6.216,22.755.092H20.331v12.95H22.57V3.793L26.621,9.86H26.7ZM14.6,13.044h2.276V.092H14.6ZM9.323,6.586A4.782,4.782,0,0,1,9,8.347,3.967,3.967,0,0,1,8.1,9.737a4.1,4.1,0,0,1-1.418.907,5.107,5.107,0,0,1-1.85.327H2.276V2.165H4.829a5.11,5.11,0,0,1,1.85.33A4.14,4.14,0,0,1,8.1,3.417,4.043,4.043,0,0,1,9,4.82a4.826,4.826,0,0,1,.321,1.767m2.388-.037A6.546,6.546,0,0,0,11.21,4,6.089,6.089,0,0,0,9.8,1.946,6.5,6.5,0,0,0,7.622.586,7.856,7.856,0,0,0,4.829.092H0v12.95H4.829a7.934,7.934,0,0,0,2.279-.324,6.74,6.74,0,0,0,1.9-.907A6.151,6.151,0,0,0,11.386,8.63a6.776,6.776,0,0,0,.324-2.081" transform="translate(0)" fill="#125c0a"></path>
        </g>
      </g>
      <g id="Logo_Icon" transform="translate(50 49)">
        <g id="Group_1" data-name="Group 1" clip-path="url(#clip-path-2)">
          <path id="Path_1" data-name="Path 1" d="M14.013,21.965a.506.506,0,0,0-.051-.08.167.167,0,0,0-.188-.065c-.094.022-.128.044-.162-.021a1.279,1.279,0,0,1-.077-.337,3.2,3.2,0,0,0-.378-.913,14.293,14.293,0,0,1-.828-1.472,8.239,8.239,0,0,0,.759-1.729,6.825,6.825,0,0,1-1.173,1.82,8.444,8.444,0,0,1-.383.936c-.077.831.265,1.307.15,1.54A.579.579,0,0,0,12,22c.037.063.081.133.125.207q.935-.14,1.889-.246m7.275-.313a1.122,1.122,0,0,0-.171-.149c.056-.177.125-.221.088-.354-.028-.1-.221.044-.238-.1a1.862,1.862,0,0,1,.075-.563,3.961,3.961,0,0,0,.057-1.132c-.05-.384-.149-.752-.217-1.183a6.123,6.123,0,0,0,.837.229,4.236,4.236,0,0,0-1.157-.467,3.87,3.87,0,0,0-1.057.027,5.369,5.369,0,0,0-1.113.226c-.364.128-.636.433-1.024.493-.073.221-.044.255-.269.3l.032.117a.652.652,0,0,1-.168-.127.894.894,0,0,0,.021.14c-.125-.147-.218-.31-.338-.448a4.346,4.346,0,0,0-1.818-.78,10.671,10.671,0,0,0-1.411-.279,3.941,3.941,0,0,1,.736.306,4.328,4.328,0,0,1-.346,1.011,1.957,1.957,0,0,0-.085.789,2.082,2.082,0,0,0,.413.907c.119.207.281.543.386.758a.8.8,0,0,0,.306.253c.067.074.127.153.187.231a55.059,55.059,0,0,1,6.274-.212m1.7.065-.019-.027c.011-.153.01-.2-.059-.261-.031-.026-.1.065-.169.026a6.682,6.682,0,0,0-.072-1.087c-.058-.682-.449-.936-.566-1.6a2.821,2.821,0,0,1-.281.935c-.049.537.135,1.166.044,1.342.044.14.157.269.207.246.105.161.171.257.265.4q.325.014.649.031m-14.43,2.3a14.775,14.775,0,0,0,11.131,6.953A15.289,15.289,0,0,1,7.307,24.234,50.742,50.742,0,0,0,0,26.114a33.8,33.8,0,0,1,11.171-3.75c-.029-.211-.066-.313-.145-.374-.148-.115-.367.15-.295-.2a9.574,9.574,0,0,0-.1-2.29,2.66,2.66,0,0,1,.053-1.277,6.18,6.18,0,0,0,.257-.627,1.267,1.267,0,0,0-.292-.9,4.168,4.168,0,0,1-.33-2.185,10.548,10.548,0,0,0-.192,2.654A3.908,3.908,0,0,1,9.6,20.805c.337-.931.012-1.41.066-2.139a2.862,2.862,0,0,0-.044,1.283c-.513-1.445.186-2,.221-3.075a11.286,11.286,0,0,1,.506-3.943c.387-.9,1.354-1.015,2.449-1.049,2.035-.063,3.243.18,4.888.188a21.31,21.31,0,0,0,2.125-.255,25.146,25.146,0,0,0,4.807-.741c.4-.123.727-.383,1.15-.548a.78.78,0,0,1,.679.056,3.434,3.434,0,0,1,.885.583,4.675,4.675,0,0,1,1.061-.129c.053.38-.381.622-.659.776,0,.215,0,.341-.008.557.326.337.421.606.737.793a.314.314,0,0,1,.044.369c-.036.386.012.455-.326.52a.633.633,0,0,1-.68.2c-.29.113-.49.38-.8.442a.572.572,0,0,0-.191.071.76.76,0,0,1-.368.093c-.408.022-.95.733-1.126,1.264a3.892,3.892,0,0,1-.387,1.474c-.268.448-.575.478-1.117,1.13a11.234,11.234,0,0,0,.084-1.494,9.962,9.962,0,0,0-.24,2.136.807.807,0,0,1-.071.3.992.992,0,0,0,.076.557,3.387,3.387,0,0,1,.221.755.64.64,0,0,0,.294.359l.294.459a49.1,49.1,0,0,1,6.87.994q-.354.542-.752,1.045a73.78,73.78,0,0,0-21.726.18M27.655,2.079A15.347,15.347,0,0,1,33.134,7.5,14.722,14.722,0,0,0,8.308,8.7,14.979,14.979,0,0,0,7.752,22.52q-.644.152-1.273.322A15.587,15.587,0,0,1,6.795,7.819,15.175,15.175,0,0,1,27.654,2.078M40.023,26.114a50.085,50.085,0,0,0-6.74-1.774q.265-.4.5-.816L33.8,23.5a28.7,28.7,0,0,1,6.225,2.611" transform="translate(0 -0.02)" fill="#125c0a" fill-rule="evenodd"></path>
          <path id="Path_2" data-name="Path 2" d="M107.562,29.338a14.3,14.3,0,0,1,1.5,16.339A14.036,14.036,0,0,1,85.4,46.832a13.6,13.6,0,0,0,22.279-1.962,13.831,13.831,0,0,0,.764-12.2,8.328,8.328,0,0,0-7.522-5.433c3.464.885,5.343,2.515,6.507,5.323-6.407,1.348-6.215-5.617-11.042-6.713,4.609-1.57,8.824.724,11.175,3.49" transform="translate(-75.764 -22.454)" fill="#479e17" fill-rule="evenodd"></path>
        </g>
      </g>
    </g>
  </g>
</svg>
