<?xml version="1.0" encoding="UTF-8"?>
<svg xmlns="http://www.w3.org/2000/svg" width="131" height="115" viewBox="0 0 131 115">
  <g id="Dream_body" data-name="Dream body" transform="translate(-8162 -541)">
    <rect id="Rectangle_3895" data-name="Rectangle 3895" width="131" height="115" transform="translate(8162 541)" fill="#fff" opacity="0"></rect>
    <g id="dream" transform="translate(7940.817 -548.053)">
      <g id="Group_3976" data-name="Group 3976" transform="translate(225.183 1113.053)">
        <path id="Path_18550" data-name="Path 18550" d="M81.012,293.394h-.531c-1.653-5.808-1.194-11.644-.276-17.5.548-3.491,1.021-6.993,1.518-10.489a3.458,3.458,0,0,1,.381-1.346,60.575,60.575,0,0,1-.247,9c-.538,5.26-1.376,10.494-1.3,15.806A24.509,24.509,0,0,0,81.012,293.394Z" transform="translate(-60.952 -225.983)" fill="#d03a81"></path>
        <g id="Group_3975" data-name="Group 3975" transform="translate(14.556 5.281)">
          <path id="Path_18551" data-name="Path 18551" d="M71.3,166.268a2.841,2.841,0,0,1-.792-.117,5.128,5.128,0,0,1-3.539-4.679h0a2.521,2.521,0,0,1,3.855-2.441c2.127,1.025,3.384,3.453,2.8,5.413A2.4,2.4,0,0,1,71.3,166.268Zm-3.535-4.8a4.354,4.354,0,0,0,2.964,3.919,1.635,1.635,0,0,0,2.134-1.169,4.073,4.073,0,0,0-2.385-4.47,1.738,1.738,0,0,0-2.714,1.719Z" transform="translate(-66.954 -158.636)" fill="#d03a81"></path>
        </g>
        <path id="Path_18552" data-name="Path 18552" d="M103.939,172.587c-1.039,1.69-.026,2.763,1,3.873a12.76,12.76,0,0,1,2.281,3.117,3.136,3.136,0,0,1-.654,3.981c-.556.569-1.088,1.161-1.679,1.7a3.363,3.363,0,0,0-.818,4.072,34.671,34.671,0,0,1,1.691,4.973,12.864,12.864,0,0,1-.807,7.874,57.4,57.4,0,0,0-3.753,13.3,28.043,28.043,0,0,1,.658-6.542,39.37,39.37,0,0,1,2.02-6.95,13.615,13.615,0,0,0-.453-10.814c-.093-.212-.183-.426-.264-.643-1.215-3.228-.96-4.329,1.544-6.685.266-.25.507-.528.789-.758,1.637-1.331,1.278-2.452.531-3.853a33.757,33.757,0,0,0-2.343-3.33C102.823,174.66,102.866,173.806,103.939,172.587Z" transform="translate(-75.985 -162.953)" fill="#4363a7"></path>
        <path id="Path_18553" data-name="Path 18553" d="M45.676,199.042a29.075,29.075,0,0,0-2.27,4.073,10.934,10.934,0,0,0-.346,8.131,56.91,56.91,0,0,1,2.5,8.872,22.919,22.919,0,0,1,.141,5.71c-.167-1.128-.341-2.255-.5-3.384a42.368,42.368,0,0,0-2.608-8.937c-1.063-2.844-1.913-5.734-1.088-8.815A21.062,21.062,0,0,1,44.4,198.73q.567-.876,1.159-1.736a4.767,4.767,0,0,0,.13-5.505,17.487,17.487,0,0,0-5.171-5.151c-.612-.445-1.255-.844-1.955-1.312.214,0,.369-.046.472.007,2.974,1.523,5.8,3.256,7.609,6.185a5.525,5.525,0,0,1,.838,4.276A14.343,14.343,0,0,1,45.676,199.042Z" transform="translate(-32.825 -171.512)" fill="#4363a7"></path>
        <path id="Path_18554" data-name="Path 18554" d="M36.784,209.145a24.4,24.4,0,0,1,.805,6.493c-.2-.128-.211-.4-.23-.659a34.827,34.827,0,0,0-1.629-7.239,63.163,63.163,0,0,1-2.192-13.881,41.52,41.52,0,0,1,.115-8.128,18.844,18.844,0,0,1,2.2-5.454,11.511,11.511,0,0,0,1.455-2.914,7.959,7.959,0,0,0-1.754-8.032,46.561,46.561,0,0,0-10.327-8.645c-1.676-1.11-3.4-2.142-5.112-3.212a.31.31,0,0,1,.423-.056c5.28,2.646,10.39,5.554,14.667,9.714a13.824,13.824,0,0,1,3.367,4.745c1.163,2.926.339,5.637-1,8.274-.118.236-.271.454-.407.681a17.538,17.538,0,0,0-2.432,8.517,78.118,78.118,0,0,0,2.046,19.794Z" transform="translate(-20.12 -152.461)" fill="#d03a81"></path>
        <path id="Path_18555" data-name="Path 18555" d="M93,152.244a3.265,3.265,0,0,0,.678,2.882c.189.227.336.491.525.721a3.568,3.568,0,0,1,.181,4.574,15.755,15.755,0,0,0-1.462,2.474c-.927,2.27-.106,4.338.672,6.421a7.631,7.631,0,0,1,.665,3.068,70.855,70.855,0,0,1-3.946,23.452c-.094.255-.056.622-.55.625,2.078-7.677,3.95-16.176,3.176-24.151h0c.155-1.222-.856-2.882-1.207-3.955a8.15,8.15,0,0,1,1.107-7.976c1.406-1.856,1.435-2.317.1-4.232a5.4,5.4,0,0,1-.687-5.065,38.27,38.27,0,0,1,4.667-9.475c-.354.808-.712,1.617-1.063,2.428A37.912,37.912,0,0,0,93,152.244Z" transform="translate(-68.105 -141.606)" fill="#d03a81"></path>
      </g>
      <g id="Group_3977" data-name="Group 3977" transform="translate(258.931 1132.568)">
        <path id="Path_18556" data-name="Path 18556" d="M1.044-26.052l.653-.139a.323.323,0,0,0,.172-.108.293.293,0,0,0,.069-.2v-5.716a.3.3,0,0,0-.069-.2.323.323,0,0,0-.172-.108l-.653-.134V-32.9H3.979a4.46,4.46,0,0,1,.742.067,3.718,3.718,0,0,1,.787.226,3.488,3.488,0,0,1,.751.424,2.82,2.82,0,0,1,.637.661,3.279,3.279,0,0,1,.442.94A4.32,4.32,0,0,1,7.5-29.326a4.011,4.011,0,0,1-.28,1.568,3.018,3.018,0,0,1-.765,1.1,3.13,3.13,0,0,1-1.128.643,4.384,4.384,0,0,1-1.37.211H1.044Zm3-.139a2.641,2.641,0,0,0,1.072-.2,1.97,1.97,0,0,0,.758-.581,2.535,2.535,0,0,0,.452-.936,4.865,4.865,0,0,0,.148-1.259,4.576,4.576,0,0,0-.2-1.4,3.117,3.117,0,0,0-.558-1.054,2.442,2.442,0,0,0-.866-.668,2.634,2.634,0,0,0-1.118-.234H2.864v6.328Zm3.989.148.57-.129a.309.309,0,0,0,.167-.1.287.287,0,0,0,.064-.19v-3.377a.379.379,0,0,0-.072-.232.506.506,0,0,0-.247-.159l-.473-.17v-.139l1.6-.355v1.126q.123-.2.273-.409a2.21,2.21,0,0,1,.339-.375,1.788,1.788,0,0,1,.419-.275,1.183,1.183,0,0,1,.512-.108,2.028,2.028,0,0,1,.247.013,1.57,1.57,0,0,1,.185.034,1.253,1.253,0,0,1,.154.049q.072.028.159.059v1.2H11.67l-.164-.432a.191.191,0,0,0-.088-.09.638.638,0,0,0-.151-.062,1.392,1.392,0,0,0-.18-.036,1.3,1.3,0,0,0-.172-.013,1.286,1.286,0,0,0-.349.047,1.329,1.329,0,0,0-.314.134,1.47,1.47,0,0,0-.285.221A2.533,2.533,0,0,0,9.7-29.5v3.038a.3.3,0,0,0,.064.2.283.283,0,0,0,.167.1l.663.129v.232H8.035Zm8.368-.841v.37a3.327,3.327,0,0,1-.36.3,2.862,2.862,0,0,1-.455.267,3.058,3.058,0,0,1-.532.193,2.31,2.31,0,0,1-.591.075,2.4,2.4,0,0,1-.917-.17,1.93,1.93,0,0,1-.712-.5,2.318,2.318,0,0,1-.463-.815,3.458,3.458,0,0,1-.164-1.115,3.22,3.22,0,0,1,.157-1,2.593,2.593,0,0,1,.455-.846,2.239,2.239,0,0,1,.727-.583,2.106,2.106,0,0,1,.969-.219,1.86,1.86,0,0,1,.812.17,1.855,1.855,0,0,1,.6.443,1.856,1.856,0,0,1,.365.624,2.139,2.139,0,0,1,.123.712q0,.047,0,.1l0,.1a.853.853,0,0,1-.01.1q-.008.047-.013.088H13.113a3.031,3.031,0,0,0,.424,1.725,1.435,1.435,0,0,0,1.262.6,2.057,2.057,0,0,0,.529-.064,2.474,2.474,0,0,0,.434-.157,2.242,2.242,0,0,0,.339-.2,2.987,2.987,0,0,0,.247-.193Zm-.9-2.056a3.53,3.53,0,0,0-.054-.624,1.8,1.8,0,0,0-.177-.532,1.018,1.018,0,0,0-.321-.368.827.827,0,0,0-.48-.136,1.067,1.067,0,0,0-.506.118,1.2,1.2,0,0,0-.391.334,1.846,1.846,0,0,0-.275.524,3.285,3.285,0,0,0-.154.684Zm4.436,2.4a1.788,1.788,0,0,1-.393.437,1.885,1.885,0,0,1-.432.254,1.732,1.732,0,0,1-.432.118,3.009,3.009,0,0,1-.393.028,1.278,1.278,0,0,1-.532-.108,1.307,1.307,0,0,1-.411-.288,1.281,1.281,0,0,1-.267-.422,1.377,1.377,0,0,1-.095-.509,1.357,1.357,0,0,1,.11-.56,1.442,1.442,0,0,1,.3-.434,1.851,1.851,0,0,1,.429-.319,2.892,2.892,0,0,1,.5-.213,3.283,3.283,0,0,1,.514-.121,3.235,3.235,0,0,1,.478-.039q.046,0,.134.008l.183.015.185.013q.09,0,.142,0l0-.925a1.633,1.633,0,0,0-.044-.411.594.594,0,0,0-.134-.26.487.487,0,0,0-.229-.134,1.261,1.261,0,0,0-.334-.039,1.457,1.457,0,0,0-.491.085,2.627,2.627,0,0,0-.45.208,3.963,3.963,0,0,0-.391.26l-.308.234h-.113l-.158-.811q.148-.082.331-.167a3.025,3.025,0,0,1,.393-.148,3.684,3.684,0,0,1,.45-.105,2.953,2.953,0,0,1,.5-.041,2.568,2.568,0,0,1,.643.085,1.789,1.789,0,0,1,.6.275,1.435,1.435,0,0,1,.434.5,1.572,1.572,0,0,1,.16.764l-.03,2.693a.339.339,0,0,0,.026.136.27.27,0,0,0,.08.1.376.376,0,0,0,.134.067.677.677,0,0,0,.188.023.52.52,0,0,0,.082-.01l.126-.023q.069-.013.139-.031t.121-.034h.049v.247q-.072.056-.188.131a2.186,2.186,0,0,1-.252.139,2.25,2.25,0,0,1-.283.11.93.93,0,0,1-.28.047,1.3,1.3,0,0,1-.346-.041.578.578,0,0,1-.247-.136.574.574,0,0,1-.148-.257,1.419,1.419,0,0,1-.048-.4Zm.015-1.871a4.878,4.878,0,0,0-.846.067,2.113,2.113,0,0,0-.643.211,1.088,1.088,0,0,0-.409.37.984.984,0,0,0-.144.54,1.124,1.124,0,0,0,.08.45.841.841,0,0,0,.206.3.756.756,0,0,0,.283.162,1.026,1.026,0,0,0,.306.049,1.638,1.638,0,0,0,.306-.031A1.6,1.6,0,0,0,19.4-26.4a1.388,1.388,0,0,0,.293-.167,1.012,1.012,0,0,0,.236-.247Zm1.923,2.385.56-.129a.275.275,0,0,0,.162-.106.326.326,0,0,0,.059-.2v-3.388a.353.353,0,0,0-.067-.221.514.514,0,0,0-.241-.148l-.473-.17v-.139l1.619-.365v.833a2.672,2.672,0,0,1,.362-.419,1.763,1.763,0,0,1,.375-.267,1.566,1.566,0,0,1,.4-.144,2.1,2.1,0,0,1,.437-.044,2.028,2.028,0,0,1,.473.054,1.4,1.4,0,0,1,.417.172,1.256,1.256,0,0,1,.331.3,1.336,1.336,0,0,1,.219.439,2.934,2.934,0,0,1,.465-.537,1.853,1.853,0,0,1,.432-.288,1.357,1.357,0,0,1,.4-.118,3.193,3.193,0,0,1,.375-.023,1.8,1.8,0,0,1,.607.1,1.27,1.27,0,0,1,.491.314,1.5,1.5,0,0,1,.329.55,2.388,2.388,0,0,1,.121.8v2.714a.267.267,0,0,0,.064.185.323.323,0,0,0,.167.1l.495.129v.232h-2.37v-.221l.56-.129a.275.275,0,0,0,.162-.108.326.326,0,0,0,.059-.2v-2.38a4.607,4.607,0,0,0-.039-.624,1.353,1.353,0,0,0-.148-.478.753.753,0,0,0-.319-.306,1.191,1.191,0,0,0-.547-.108,1.638,1.638,0,0,0-.306.031,1.717,1.717,0,0,0-.321.095,1.455,1.455,0,0,0-.306.17,1.121,1.121,0,0,0-.254.254v3.356a.265.265,0,0,0,.064.188.33.33,0,0,0,.167.095l.495.129v.232H24.977v-.221l.56-.129a.284.284,0,0,0,.162-.1.3.3,0,0,0,.061-.192v-2.39a4.607,4.607,0,0,0-.039-.624,1.319,1.319,0,0,0-.151-.478.769.769,0,0,0-.321-.306,1.2,1.2,0,0,0-.553-.108,1.662,1.662,0,0,0-.311.031,1.656,1.656,0,0,0-.319.095,1.423,1.423,0,0,0-.3.167,1.173,1.173,0,0,0-.247.247v3.355a.239.239,0,0,0,.059.193.346.346,0,0,0,.172.1l.495.129v.232H21.873Zm11.571-.021.653-.139a.323.323,0,0,0,.172-.108.293.293,0,0,0,.069-.2v-5.716a.3.3,0,0,0-.069-.2.323.323,0,0,0-.172-.108l-.653-.134V-32.9H36a5.08,5.08,0,0,1,1.267.131,2.183,2.183,0,0,1,.779.349,1.158,1.158,0,0,1,.391.5,1.629,1.629,0,0,1,.108.586,1.716,1.716,0,0,1-.108.617,1.646,1.646,0,0,1-.309.511,1.9,1.9,0,0,1-.483.388,2.627,2.627,0,0,1-.627.254,2.646,2.646,0,0,1,.774.142,2.078,2.078,0,0,1,.632.346,1.609,1.609,0,0,1,.426.527,1.509,1.509,0,0,1,.158.694,2.028,2.028,0,0,1-.116.714,1.667,1.667,0,0,1-.319.534,1.813,1.813,0,0,1-.478.378,2.916,2.916,0,0,1-.591.244,3.886,3.886,0,0,1-.661.131,6.187,6.187,0,0,1-.689.039H33.443ZM35.73-29.63a3.463,3.463,0,0,0,.866-.093,1.522,1.522,0,0,0,.568-.265.977.977,0,0,0,.311-.422,1.57,1.57,0,0,0,.095-.563,2.088,2.088,0,0,0-.105-.7,1.151,1.151,0,0,0-.316-.48,1.3,1.3,0,0,0-.527-.275,2.783,2.783,0,0,0-.738-.088h-.622v2.889Zm.617,3.439a1.906,1.906,0,0,0,1.233-.339,1.361,1.361,0,0,0,.411-1.11,2.248,2.248,0,0,0-.113-.763,1.134,1.134,0,0,0-.349-.5,1.484,1.484,0,0,0-.6-.28,3.806,3.806,0,0,0-.871-.088h-.792v3.084Zm5.7.52a2.462,2.462,0,0,1-.974-.185,2.052,2.052,0,0,1-.742-.529,2.388,2.388,0,0,1-.471-.828,3.336,3.336,0,0,1-.164-1.08,3.162,3.162,0,0,1,.164-1.031,2.54,2.54,0,0,1,.473-.841,2.187,2.187,0,0,1,.753-.566,2.38,2.38,0,0,1,1.01-.206,2.343,2.343,0,0,1,1.048.219,2.111,2.111,0,0,1,.73.581,2.457,2.457,0,0,1,.429.838,3.437,3.437,0,0,1,.142.985,3.191,3.191,0,0,1-.162,1.026,2.5,2.5,0,0,1-.471.841,2.215,2.215,0,0,1-.753.568A2.367,2.367,0,0,1,42.043-25.672Zm.072-.339a1.054,1.054,0,0,0,.678-.213,1.522,1.522,0,0,0,.424-.54,2.572,2.572,0,0,0,.219-.712,4.658,4.658,0,0,0,.062-.735,4.639,4.639,0,0,0-.08-.853,2.814,2.814,0,0,0-.254-.768,1.588,1.588,0,0,0-.458-.555,1.1,1.1,0,0,0-.684-.213,1.1,1.1,0,0,0-.478.1,1.166,1.166,0,0,0-.36.265,1.515,1.515,0,0,0-.257.385,2.693,2.693,0,0,0-.167.463,3.237,3.237,0,0,0-.09.495,4.764,4.764,0,0,0-.026.483,5.28,5.28,0,0,0,.028.534,3.557,3.557,0,0,0,.1.544,3.11,3.11,0,0,0,.18.506,1.614,1.614,0,0,0,.275.422,1.286,1.286,0,0,0,.383.288,1.129,1.129,0,0,0,.505.107Zm6.456-.544a2.191,2.191,0,0,1-.452.468,1.981,1.981,0,0,1-.45.254,1.618,1.618,0,0,1-.406.105,2.983,2.983,0,0,1-.316.021,1.809,1.809,0,0,1-.825-.183,1.789,1.789,0,0,1-.614-.506,2.333,2.333,0,0,1-.385-.766,3.327,3.327,0,0,1-.134-.966,3.652,3.652,0,0,1,.159-1.092,2.733,2.733,0,0,1,.46-.891,2.187,2.187,0,0,1,.738-.6,2.167,2.167,0,0,1,.992-.221,1.8,1.8,0,0,1,.4.041,1.587,1.587,0,0,1,.327.11,1.4,1.4,0,0,1,.262.159,2.23,2.23,0,0,1,.208.183v-2.051a.388.388,0,0,0-.067-.229.46.46,0,0,0-.247-.151l-.534-.17v-.139l1.712-.4v6.811a.366.366,0,0,0,.069.226.484.484,0,0,0,.247.148l.473.148v.139l-1.516.4h-.1Zm-.036-3.634a.86.86,0,0,0-.232-.139,2.141,2.141,0,0,0-.3-.1,2.615,2.615,0,0,0-.306-.062,1.87,1.87,0,0,0-.247-.021,1.369,1.369,0,0,0-.686.164,1.479,1.479,0,0,0-.486.442,1.97,1.97,0,0,0-.29.64,3,3,0,0,0-.095.763,4.114,4.114,0,0,0,.09.891,2.147,2.147,0,0,0,.278.7,1.356,1.356,0,0,0,.478.458,1.38,1.38,0,0,0,.693.164,1.657,1.657,0,0,0,.267-.026A1.592,1.592,0,0,0,48-26.4a1.336,1.336,0,0,0,.3-.159.855.855,0,0,0,.234-.247Zm1.93,5.793H50.6a1.111,1.111,0,0,0,.2.1q.121.049.247.09t.247.067a.979.979,0,0,0,.193.026.656.656,0,0,0,.183-.023.646.646,0,0,0,.183-.095,1.034,1.034,0,0,0,.241-.224,1.975,1.975,0,0,0,.2-.316q.095-.185.193-.432t.221-.566l-.355-.714L50.8-30.2a.326.326,0,0,0-.126-.162.924.924,0,0,0-.224-.09L50.1-30.56v-.232h2.3v.232l-.742.159,1.172,2.874.262.643,1.233-3.485-.73-.19v-.232h1.8v.232l-.36.139q-.144.056-.226.095a.252.252,0,0,0-.123.157l-1.9,5.3a3.657,3.657,0,0,1-.368.779,1.748,1.748,0,0,1-.4.445,1.129,1.129,0,0,1-.432.2,2.15,2.15,0,0,1-.46.049,1.594,1.594,0,0,1-.262-.021,1.565,1.565,0,0,1-.226-.054,2.013,2.013,0,0,1-.19-.072,1.505,1.505,0,0,1-.148-.075Zm7.782-3.531h.273l.406,1.023a.538.538,0,0,0,.1.144.693.693,0,0,0,.131.118,3.172,3.172,0,0,0,.4.216,4.068,4.068,0,0,0,.432.167,3.672,3.672,0,0,0,.411.108,1.806,1.806,0,0,0,.346.039,1.775,1.775,0,0,0,.589-.093,1.248,1.248,0,0,0,.452-.27,1.172,1.172,0,0,0,.288-.437,1.64,1.64,0,0,0,.1-.594,1.149,1.149,0,0,0-.257-.774,1.833,1.833,0,0,0-.693-.486,3.353,3.353,0,0,0-.385-.136q-.19-.054-.383-.105l-.385-.105a3.608,3.608,0,0,1-.383-.131,1.992,1.992,0,0,1-.891-.663,1.726,1.726,0,0,1-.316-1.048,2,2,0,0,1,.17-.82,2.064,2.064,0,0,1,.471-.668,2.184,2.184,0,0,1,.712-.445,2.406,2.406,0,0,1,.891-.162,4.745,4.745,0,0,1,.519.028q.257.028.5.075t.478.11q.232.064.445.136v1.671H62.4l-.355-.951a.321.321,0,0,0-.095-.139,1.593,1.593,0,0,0-.126-.1,1.28,1.28,0,0,0-.288-.159A2.876,2.876,0,0,0,61.2-32.5a2.8,2.8,0,0,0-.337-.069,2.075,2.075,0,0,0-.283-.023,1.616,1.616,0,0,0-.544.085,1.18,1.18,0,0,0-.4.234,1.019,1.019,0,0,0-.254.36,1.153,1.153,0,0,0-.09.458,2.144,2.144,0,0,0,.041.422,1.2,1.2,0,0,0,.148.385,1.268,1.268,0,0,0,.3.331,1.615,1.615,0,0,0,.475.254q.185.067.368.118l.368.1q.185.049.378.113t.4.148a3.581,3.581,0,0,1,.465.234,1.749,1.749,0,0,1,.409.337,1.586,1.586,0,0,1,.29.478,1.775,1.775,0,0,1,.11.658,2.315,2.315,0,0,1-.148.8,1.936,1.936,0,0,1-.463.712,2.37,2.37,0,0,1-.809.509,3.211,3.211,0,0,1-1.182.2,3.117,3.117,0,0,1-.475-.039q-.247-.039-.514-.1t-.535-.147q-.273-.082-.54-.17ZM63.633-24.4h.134a1.111,1.111,0,0,0,.2.1q.121.049.247.09t.247.067a.978.978,0,0,0,.193.026.655.655,0,0,0,.183-.023.646.646,0,0,0,.183-.095,1.034,1.034,0,0,0,.241-.224,1.976,1.976,0,0,0,.2-.316q.095-.185.193-.432t.221-.566l-.355-.714L63.969-30.2a.326.326,0,0,0-.126-.162.924.924,0,0,0-.224-.09l-.349-.108v-.232h2.3v.232l-.742.159L66-27.528l.262.643,1.233-3.485-.73-.19v-.232h1.8v.232l-.36.139q-.144.056-.226.095a.252.252,0,0,0-.123.157l-1.9,5.3a3.657,3.657,0,0,1-.368.779,1.749,1.749,0,0,1-.4.445,1.129,1.129,0,0,1-.432.2,2.15,2.15,0,0,1-.46.049,1.6,1.6,0,0,1-.262-.021,1.566,1.566,0,0,1-.226-.054,2.014,2.014,0,0,1-.19-.072,1.5,1.5,0,0,1-.148-.075Zm5.1-2.971h.262l.2.612a.427.427,0,0,0,.159.216,1.992,1.992,0,0,0,.221.144q.088.047.213.1t.27.1a2.4,2.4,0,0,0,.3.075,1.583,1.583,0,0,0,.29.028,1.563,1.563,0,0,0,.37-.044.876.876,0,0,0,.319-.148.76.76,0,0,0,.224-.267.89.89,0,0,0,.085-.411.737.737,0,0,0-.075-.346.693.693,0,0,0-.2-.236,1.17,1.17,0,0,0-.3-.157q-.17-.062-.36-.113l-.506-.139q-.244-.067-.445-.134a1.357,1.357,0,0,1-.383-.19,1.3,1.3,0,0,1-.3-.3,1.392,1.392,0,0,1-.2-.391,1.5,1.5,0,0,1-.072-.463,1.29,1.29,0,0,1,.148-.612,1.474,1.474,0,0,1,.4-.475,1.873,1.873,0,0,1,.583-.306,2.252,2.252,0,0,1,.7-.108q.216,0,.4.015t.346.044q.167.028.329.067l.342.085.082,1.377h-.283l-.226-.617a.5.5,0,0,0-.134-.2.944.944,0,0,0-.2-.142,2.543,2.543,0,0,0-.393-.154,1.547,1.547,0,0,0-.455-.067,1.291,1.291,0,0,0-.324.041.852.852,0,0,0-.288.134.693.693,0,0,0-.208.244.782.782,0,0,0-.08.368.921.921,0,0,0,.064.365.719.719,0,0,0,.17.247.94.94,0,0,0,.234.159,1.89,1.89,0,0,0,.262.1q.108.036.232.072l.239.069.216.062.167.049a3.282,3.282,0,0,1,.488.185,1.575,1.575,0,0,1,.393.262,1.123,1.123,0,0,1,.262.362,1.159,1.159,0,0,1,.095.486,1.611,1.611,0,0,1-.159.742,1.451,1.451,0,0,1-.431.51,1.824,1.824,0,0,1-.632.3,3.018,3.018,0,0,1-.768.095,3.563,3.563,0,0,1-.486-.031,3.675,3.675,0,0,1-.422-.082q-.2-.049-.378-.11l-.355-.116Zm4.734-2.981h-.8V-30.6q.2-.049.36-.095a.94.94,0,0,0,.275-.121.535.535,0,0,0,.183-.211.974.974,0,0,0,.082-.365l.036-.632.73-.154v1.418h1.758l-.148.411H74.33v3.513a.357.357,0,0,0,.1.26.856.856,0,0,0,.247.175,1.274,1.274,0,0,0,.308.1,1.547,1.547,0,0,0,.285.031,1.084,1.084,0,0,0,.185-.018q.1-.018.2-.041a1.713,1.713,0,0,0,.177-.049,1.137,1.137,0,0,0,.121-.049h.049v.273q-.072.047-.2.121a2.588,2.588,0,0,1-.293.148,2.464,2.464,0,0,1-.37.123,1.743,1.743,0,0,1-.429.049,1.781,1.781,0,0,1-.5-.067,1.218,1.218,0,0,1-.4-.193.893.893,0,0,1-.262-.314.948.948,0,0,1-.1-.434Zm7.011,3.463v.37a3.328,3.328,0,0,1-.36.3,2.861,2.861,0,0,1-.455.267,3.057,3.057,0,0,1-.532.193,2.31,2.31,0,0,1-.591.075,2.4,2.4,0,0,1-.917-.17,1.93,1.93,0,0,1-.712-.5,2.318,2.318,0,0,1-.463-.815,3.458,3.458,0,0,1-.164-1.115,3.219,3.219,0,0,1,.157-1,2.592,2.592,0,0,1,.455-.846,2.239,2.239,0,0,1,.727-.583,2.106,2.106,0,0,1,.969-.219,1.86,1.86,0,0,1,.812.17,1.855,1.855,0,0,1,.6.442,1.856,1.856,0,0,1,.365.624,2.139,2.139,0,0,1,.123.712q0,.047,0,.1l0,.1a.848.848,0,0,1-.01.1q-.008.047-.013.088H77.188a3.031,3.031,0,0,0,.424,1.725,1.435,1.435,0,0,0,1.262.6,2.056,2.056,0,0,0,.529-.064,2.471,2.471,0,0,0,.434-.157,2.241,2.241,0,0,0,.339-.2,2.988,2.988,0,0,0,.247-.193Zm-.9-2.056a3.53,3.53,0,0,0-.054-.624,1.8,1.8,0,0,0-.177-.532,1.018,1.018,0,0,0-.321-.368.827.827,0,0,0-.48-.136,1.067,1.067,0,0,0-.506.118,1.2,1.2,0,0,0-.391.334,1.846,1.846,0,0,0-.275.524,3.285,3.285,0,0,0-.154.684Zm1.418,2.909.56-.129a.275.275,0,0,0,.162-.108.325.325,0,0,0,.059-.2v-3.388a.353.353,0,0,0-.067-.221.514.514,0,0,0-.241-.148l-.473-.17v-.139L82.61-30.9v.833a2.673,2.673,0,0,1,.362-.419,1.763,1.763,0,0,1,.375-.267,1.566,1.566,0,0,1,.4-.144,2.1,2.1,0,0,1,.437-.044,2.031,2.031,0,0,1,.473.054,1.4,1.4,0,0,1,.417.172,1.256,1.256,0,0,1,.331.3,1.336,1.336,0,0,1,.219.439,2.934,2.934,0,0,1,.465-.537,1.853,1.853,0,0,1,.432-.288,1.357,1.357,0,0,1,.4-.118,3.194,3.194,0,0,1,.375-.023,1.8,1.8,0,0,1,.607.1,1.27,1.27,0,0,1,.491.314,1.5,1.5,0,0,1,.329.55,2.389,2.389,0,0,1,.121.8v2.714a.268.268,0,0,0,.064.185.323.323,0,0,0,.167.1l.495.129v.232H87.2v-.221l.56-.129a.275.275,0,0,0,.162-.108.326.326,0,0,0,.059-.2v-2.38a4.605,4.605,0,0,0-.039-.624,1.353,1.353,0,0,0-.148-.478.753.753,0,0,0-.319-.306,1.191,1.191,0,0,0-.547-.108,1.637,1.637,0,0,0-.306.031,1.717,1.717,0,0,0-.321.095,1.454,1.454,0,0,0-.306.17,1.121,1.121,0,0,0-.254.254v3.356a.265.265,0,0,0,.064.188.33.33,0,0,0,.167.095l.495.129v.232H84.093v-.221l.56-.129a.283.283,0,0,0,.162-.1.3.3,0,0,0,.059-.19v-2.39a4.605,4.605,0,0,0-.039-.624,1.319,1.319,0,0,0-.151-.478.769.769,0,0,0-.321-.306,1.2,1.2,0,0,0-.553-.108,1.662,1.662,0,0,0-.311.031,1.656,1.656,0,0,0-.319.095,1.424,1.424,0,0,0-.3.167,1.174,1.174,0,0,0-.247.247v3.356a.239.239,0,0,0,.059.193.346.346,0,0,0,.172.1l.495.129v.232H80.992Z" transform="translate(-1.044 33.576)" fill="#afc563"></path>
        <path id="Path_18557" data-name="Path 18557" d="M2.111-15.74q.02.016.02.111a.407.407,0,0,1-.02.148l.029.095a3.781,3.781,0,0,0,.148.438q.091.231.179.495a7.724,7.724,0,0,0,.419,1.039,2.375,2.375,0,0,0,.4.609,1.314,1.314,0,0,1,.141.152.171.171,0,0,1,.028.1.233.233,0,0,1-.067.168.214.214,0,0,1-.159.069q-.289,0-.7-.91-.165-.359-.2-.359a3.411,3.411,0,0,0-.467.065,6.227,6.227,0,0,0-.654.153,1.045,1.045,0,0,1-.215.052.178.178,0,0,1-.117-.056.042.042,0,0,0-.027-.009q-.049,0-.215.294-.273.486-.344.58a.2.2,0,0,1-.157.094.25.25,0,0,1-.148-.071A.2.2,0,0,1-.1-12.63a.4.4,0,0,1,.081-.2q.081-.123.332-.495a13.608,13.608,0,0,0,.755-1.242,10.812,10.812,0,0,1,.616-1.088q.131-.166.2-.166a.288.288,0,0,1,.226.077Zm.138,1.8q-.079-.181-.233-.662-.167-.513-.212-.623-.124.262-.384.742l-.41.776a.631.631,0,0,1,.251-.059,2.5,2.5,0,0,0,.272-.04q.616-.123.715-.132ZM5.564-14q-.063,0-.3.526a7.3,7.3,0,0,1-.406.771q-.208.338-.3.338-.28,0-.519-.832a5.143,5.143,0,0,1-.238-1.341.439.439,0,0,1,.083-.273.27.27,0,0,1,.2-.117.3.3,0,0,1,.056,0q.041,0,.1.075a.221.221,0,0,1,.059.139v.009q0,.027-.025.226a2.678,2.678,0,0,0-.02.359,2.481,2.481,0,0,0,.129.742q.129.407.217.407A2.38,2.38,0,0,0,5-13.662q.224-.436.321-.6l.072-.136a1.325,1.325,0,0,1,.3-.411q.194.025.194.194a.422.422,0,0,1-.009.095.422.422,0,0,0-.009.095,2.043,2.043,0,0,0,.217.877q.217.458.309.458.068,0,.215-.479a6.188,6.188,0,0,1,.367-.976,1.435,1.435,0,0,1,.247-.386.284.284,0,0,1,.179-.061.12.12,0,0,1,.1.049.163.163,0,0,1,.04.1.194.194,0,0,1-.025.115,4.057,4.057,0,0,0-.537,1.148q-.219.671-.3.841t-.136.172a.566.566,0,0,1-.445-.2,3.881,3.881,0,0,1-.461-1.063q-.038-.1-.069-.179Zm3.81.673a2.766,2.766,0,0,1-.626.637,1.027,1.027,0,0,1-.567.212.385.385,0,0,1-.3-.148.558.558,0,0,1-.127-.377,2.143,2.143,0,0,1,.531-1.279,1.429,1.429,0,0,1,1.055-.686.3.3,0,0,1,.283.217.1.1,0,0,0,.093.072q.181,0,.181.14a1.122,1.122,0,0,1-.023.192,6.1,6.1,0,0,0-.122.94q0,.544.208.655a.156.156,0,0,1,.1.133.19.19,0,0,1-.1.141.32.32,0,0,1-.188.071q-.174,0-.287-.239a1.643,1.643,0,0,1-.108-.679ZM9.235-14.6q-.3,0-.693.559a1.75,1.75,0,0,0-.4.927q0,.26.172.26.247,0,.689-.5a1.463,1.463,0,0,0,.44-.922q0-.324-.211-.324ZM11-13.562q.029-.039.4-.364.355-.309.495-.45.522-.522.75-.522.176,0,.176.169a.3.3,0,0,1-.174.283,5.25,5.25,0,0,0-.6.383q-.377.268-.377.378a1.375,1.375,0,0,0,.267.338,3.135,3.135,0,0,0,.461.431.652.652,0,0,0,.377.139h.075q.079,0,.079.07a.279.279,0,0,1-.124.2.5.5,0,0,1-.328.1.471.471,0,0,1-.265-.092,3.333,3.333,0,0,1-.478-.495q-.273-.332-.341-.4a.188.188,0,0,0-.113-.064.556.556,0,0,0-.158.117.435.435,0,0,0-.145.179,4.341,4.341,0,0,0-.012.466v.106a.191.191,0,0,1-.079.148.264.264,0,0,1-.172.065.2.2,0,0,1-.148-.055.164.164,0,0,1-.054-.114,2.712,2.712,0,0,1,.061-.384q.086-.436.158-1.168a13.9,13.9,0,0,1,.257-1.955q.091-.227.257-.227a.115.115,0,0,1,.1.063.3.3,0,0,1,.04.163,7.356,7.356,0,0,1-.156.96,15.011,15.011,0,0,0-.225,1.52Zm4.231.289q0,.231-.408.556a1.336,1.336,0,0,1-.841.325.725.725,0,0,1-.562-.215.85.85,0,0,1-.2-.6,2.02,2.02,0,0,1,.436-1.229,1.213,1.213,0,0,1,.953-.583.369.369,0,0,1,.277.111A.369.369,0,0,1,15-14.64a.917.917,0,0,1-.341.666,4.373,4.373,0,0,1-.913.626.181.181,0,0,0-.117.158.416.416,0,0,0,.108.3.425.425,0,0,0,.321.113,1.414,1.414,0,0,0,.99-.538q.075-.075.113-.075.078,0,.078.117Zm-1.57-.352q.958-.569.958-.915,0-.136-.122-.136a.7.7,0,0,0-.469.3,1.76,1.76,0,0,0-.365.747Zm3.58-.619a.376.376,0,0,0-.256.153,4.057,4.057,0,0,0-.424.689,4.556,4.556,0,0,1-.484.818.307.307,0,0,1-.182.1.232.232,0,0,1-.2-.062.232.232,0,0,1-.069-.2,1.848,1.848,0,0,1,.036-.307,8.024,8.024,0,0,0,.124-1.439.343.343,0,0,1,.073-.191q.073-.1.139-.1a.188.188,0,0,1,.167.072.572.572,0,0,1,.049.291,6.453,6.453,0,0,1-.136.94,2.2,2.2,0,0,0-.045.3q0,.036.018.036a2.6,2.6,0,0,0,.314-.54,3.525,3.525,0,0,1,.495-.772.636.636,0,0,1,.468-.224.386.386,0,0,1,.331.185,1.619,1.619,0,0,1,.187.675,4.042,4.042,0,0,0,.114.693q.049.137.161.137a.438.438,0,0,0,.176-.049.069.069,0,0,1,.027-.009q.1,0,.1.113a.3.3,0,0,1-.133.211.483.483,0,0,1-.321.112.34.34,0,0,1-.3-.152,2.2,2.2,0,0,1-.166-.814q-.063-.66-.267-.66Zm3.169-1.01a.232.232,0,0,1-.025-.113.139.139,0,0,1,.073-.138,1.5,1.5,0,0,1,.439-.041q.45,0,.807-.033t1.1-.132a3.994,3.994,0,0,1,.538-.039,1.82,1.82,0,0,1,.247.016,1.206,1.206,0,0,1,.165.031.132.132,0,0,1,.078.081.282.282,0,0,1,.029.1q0,.16-.113.16-.075,0-.2-.013a3.352,3.352,0,0,0-.355-.011q-.231,0-.559.033t-.365.107a6.352,6.352,0,0,0-.119.881q-.083.806-.083,1.2a1.868,1.868,0,0,0,.056.423.451.451,0,0,1,.009.054.313.313,0,0,1-.054.18.156.156,0,0,1-.131.08.231.231,0,0,1-.2-.113,1.465,1.465,0,0,1-.077-.631,18.34,18.34,0,0,1,.188-1.922q.009-.077.009-.079,0-.077-.084-.077-.136,0-.518.034t-.544.036a.452.452,0,0,1-.316-.077ZM24.1-13.185q.841-1.552,1.385-1.552a.267.267,0,0,1,.235.165,2.329,2.329,0,0,1,.148.732,1.778,1.778,0,0,0,.255.872.423.423,0,0,1,.1.2.138.138,0,0,1-.068.108.24.24,0,0,1-.144.049.381.381,0,0,1-.312-.2,1.505,1.505,0,0,1-.174-.693,3.805,3.805,0,0,0-.081-.614q-.043-.144-.142-.144-.237,0-.955,1.24a3.471,3.471,0,0,1-.316.484.274.274,0,0,1-.185.114.247.247,0,0,1-.167-.059.184.184,0,0,1-.068-.144,1.544,1.544,0,0,1,.036-.244q.278-1.435.438-2.837a.989.989,0,0,1,.116-.433q.08-.108.135-.108a.244.244,0,0,1,.176.079.3.3,0,0,1,.079.219,4.522,4.522,0,0,1-.2,1.141q-.1.359-.21.913a5.188,5.188,0,0,0-.111.684q0,.027.025.027Zm4.459-.088q0,.231-.408.556a1.336,1.336,0,0,1-.841.325.725.725,0,0,1-.562-.215.85.85,0,0,1-.2-.6,2.02,2.02,0,0,1,.436-1.229,1.213,1.213,0,0,1,.953-.583.369.369,0,0,1,.277.111.369.369,0,0,1,.107.267.917.917,0,0,1-.341.666,4.372,4.372,0,0,1-.913.626.181.181,0,0,0-.117.158.416.416,0,0,0,.108.3.425.425,0,0,0,.321.113,1.414,1.414,0,0,0,.99-.538q.075-.075.113-.075.076,0,.076.117Zm-1.57-.352q.96-.568.96-.913,0-.136-.122-.136a.7.7,0,0,0-.469.3,1.76,1.76,0,0,0-.368.746Zm4.337-1.608a.115.115,0,0,0-.1-.115q-.185-.045-.185-.156a.243.243,0,0,1,.076-.162.213.213,0,0,1,.157-.08l.316.009q.221,0,.583-.029t.538-.029a1.414,1.414,0,0,1,1,.351,1.2,1.2,0,0,1,.378.925,1.564,1.564,0,0,1-.541,1.149,3.291,3.291,0,0,1-1.543.757,1.762,1.762,0,0,0-.535.192.594.594,0,0,1-.307.127.189.189,0,0,1-.152-.092.28.28,0,0,1-.067-.145.437.437,0,0,1,.045-.117.851.851,0,0,0,.067-.205,3.324,3.324,0,0,0,.033-.373q.011-.267.083-.862t.116-.844a1.953,1.953,0,0,0,.04-.3Zm.409-.151a16.184,16.184,0,0,0-.269,2.279.636.636,0,0,0,.029.221.111.111,0,0,0,.07.016,3.894,3.894,0,0,0,.756-.19,2.3,2.3,0,0,0,1-.583,1.26,1.26,0,0,0,.382-.9.83.83,0,0,0-.3-.667,1.164,1.164,0,0,0-.778-.247,5.562,5.562,0,0,0-.707.054q-.091.011-.181.018Zm3.278,1.979q.023-.041.054-.113a4.016,4.016,0,0,1,.283-.552,3.67,3.67,0,0,1,.284-.383,1.781,1.781,0,0,1,.283-.278.926.926,0,0,1,.232-.132.594.594,0,0,1,.2-.037.445.445,0,0,1,.321.119.371.371,0,0,1,.124.277.2.2,0,0,1-.044.127.16.16,0,0,1-.135.056.236.236,0,0,1-.174-.084.237.237,0,0,0-.169-.084q-.235,0-.651.569a2.694,2.694,0,0,0-.506,1.254.382.382,0,0,1-.086.233.259.259,0,0,1-.179.056q-.111,0-.16-.165a2.157,2.157,0,0,1-.049-.556q0-.106.011-.468a5.9,5.9,0,0,1,.054-.689q.007-.043.023-.2a1.153,1.153,0,0,1,.04-.242.287.287,0,0,1,.1-.127.247.247,0,0,1,.159-.059.148.148,0,0,1,.125.053.181.181,0,0,1,.042.114.99.99,0,0,1-.045.247,2.029,2.029,0,0,0-.061.247,1.3,1.3,0,0,1-.025.16,4.271,4.271,0,0,0-.045.511v.084Zm3.856.131q0,.231-.408.556a1.336,1.336,0,0,1-.841.325.725.725,0,0,1-.562-.215.851.851,0,0,1-.2-.6,2.02,2.02,0,0,1,.436-1.229,1.213,1.213,0,0,1,.953-.583.369.369,0,0,1,.277.111.369.369,0,0,1,.107.267.917.917,0,0,1-.341.666,4.372,4.372,0,0,1-.913.626.181.181,0,0,0-.117.158.416.416,0,0,0,.108.3.425.425,0,0,0,.321.113,1.414,1.414,0,0,0,.99-.538q.075-.075.113-.075.077,0,.077.119ZM37.3-13.624q.958-.569.958-.915,0-.136-.122-.136a.7.7,0,0,0-.469.3,1.76,1.76,0,0,0-.367.746Zm3.562.3a2.766,2.766,0,0,1-.626.637,1.027,1.027,0,0,1-.567.212.385.385,0,0,1-.3-.148A.558.558,0,0,1,39.247-13a2.143,2.143,0,0,1,.531-1.279,1.429,1.429,0,0,1,1.055-.686.3.3,0,0,1,.283.217.1.1,0,0,0,.093.072q.181,0,.181.14a1.122,1.122,0,0,1-.023.192,6.1,6.1,0,0,0-.122.94q0,.544.208.655a.156.156,0,0,1,.1.133.19.19,0,0,1-.1.141.32.32,0,0,1-.188.071q-.174,0-.287-.239a1.643,1.643,0,0,1-.11-.682ZM40.729-14.6q-.3,0-.693.559a1.75,1.75,0,0,0-.4.927q0,.26.172.26.247,0,.689-.5a1.463,1.463,0,0,0,.44-.922q0-.326-.211-.326Zm3.036.307q-.21,0-.9,1.245a4.23,4.23,0,0,1-.271.455.346.346,0,0,1-.141.067.643.643,0,0,1-.171.029q-.151,0-.151-.59a8.9,8.9,0,0,1,.142-1.2,3.521,3.521,0,0,0,.059-.5q0-.148.133-.148.251,0,.251.361a4.971,4.971,0,0,1-.084.664,6.177,6.177,0,0,0-.1.687,3.252,3.252,0,0,0,.411-.594,4.418,4.418,0,0,1,.566-.8.552.552,0,0,1,.376-.168q.148,0,.234.2a3.191,3.191,0,0,1,.1.938,1.039,1.039,0,0,0,.034.276q.029.091.043.091.106,0,.461-.723a2.617,2.617,0,0,1,.369-.58.53.53,0,0,1,.4-.2.278.278,0,0,1,.267.189,1.9,1.9,0,0,1,.12.559,5.2,5.2,0,0,0,.1.687.534.534,0,0,0,.261.4q.129.061.129.142a.224.224,0,0,1-.108.163.336.336,0,0,1-.2.084.4.4,0,0,1-.323-.221,2.523,2.523,0,0,1-.215-.958,3.858,3.858,0,0,0-.061-.42q-.029-.124-.093-.124-.095,0-.225.181a7.261,7.261,0,0,0-.419.734,4,4,0,0,1-.342.569.312.312,0,0,1-.225.143.238.238,0,0,1-.174-.078.353.353,0,0,1-.1-.188q-.02-.109-.043-.539a2.182,2.182,0,0,0-.121-.831Zm7.068,0q-.077.1-.283.468a7.454,7.454,0,0,1-.958,1.541.282.282,0,0,1-.247-.18,5.05,5.05,0,0,1-.261-.952q-.166-.772-.281-1.477-.043-.2-.084-.325a.9.9,0,0,1-.056-.253.228.228,0,0,1,.067-.159.2.2,0,0,1,.148-.071q.1,0,.173.152a3.422,3.422,0,0,1,.164.742,14.073,14.073,0,0,0,.4,1.93q.565-.9.7-1.146t.388-.792a.2.2,0,0,1,.181-.12q.049,0,.113.1a3.643,3.643,0,0,1,.221.541,9.218,9.218,0,0,0,.535,1.315,6.336,6.336,0,0,0,.924-2.727q0-.032.06-.087a.174.174,0,0,1,.114-.055q.181,0,.181.231a3.232,3.232,0,0,1-.121.717,6.3,6.3,0,0,1-.289.881q-.168.4-.566,1.228-.065.133-.111.237a.175.175,0,0,1-.087.072.267.267,0,0,1-.1.029.278.278,0,0,1-.2-.106,2.552,2.552,0,0,1-.3-.622q-.2-.516-.294-.776-.059-.183-.124-.334Zm3.2-1.237q-.049,0-.072-.1a.667.667,0,0,0-.025-.07.683.683,0,0,1-.061-.255.257.257,0,0,1,.107-.184.354.354,0,0,1,.238-.094.284.284,0,0,1,.148.049q.081.049.081.1a1.007,1.007,0,0,1-.055.253.378.378,0,0,1-.176.24.455.455,0,0,1-.185.06Zm-.3,2.523a1.808,1.808,0,0,0,.049.386.323.323,0,0,1,.009.068q0,.041-.075.1a.238.238,0,0,1-.158.064q-.219,0-.219-.4a7.888,7.888,0,0,1,.172-1.315,3.163,3.163,0,0,0,.059-.386.523.523,0,0,1,.052-.243.161.161,0,0,1,.148-.1.276.276,0,0,1,.182.055.159.159,0,0,1,.067.123.686.686,0,0,1-.032.179,8.411,8.411,0,0,0-.21.854,3.987,3.987,0,0,0-.042.608Zm1.826-1.78q.233-.018.438-.043a3.166,3.166,0,0,1,.339-.023.455.455,0,0,1,.217.032.126.126,0,0,1,.045.111q0,.183-.255.2-.328.02-.6.056a1.006,1.006,0,0,0-.3.06,4.112,4.112,0,0,0-.137.538,4.062,4.062,0,0,0-.115.667.574.574,0,0,0,.065.331.236.236,0,0,0,.2.083,1,1,0,0,0,.54-.293.377.377,0,0,1,.205-.12q.1,0,.1.1,0,.163-.313.421a1,1,0,0,1-.64.259q-.544,0-.544-.643a3.574,3.574,0,0,1,.113-.72,4.3,4.3,0,0,0,.111-.583q0-.034-.054-.034l-.235.02q-.289,0-.289-.231a.117.117,0,0,1,.034-.1.117.117,0,0,1,.1-.032h.466a.107.107,0,0,0,.084-.043,1.108,1.108,0,0,0,.106-.288q.07-.247.124-.484t.212-.237a.183.183,0,0,1,.151.068.208.208,0,0,1,.054.127,3,3,0,0,1-.081.323Zm1.62,1.6q.841-1.552,1.385-1.552a.267.267,0,0,1,.235.165,2.33,2.33,0,0,1,.148.732,1.778,1.778,0,0,0,.255.872.423.423,0,0,1,.1.2.138.138,0,0,1-.068.108.24.24,0,0,1-.144.049.381.381,0,0,1-.312-.2,1.505,1.505,0,0,1-.174-.693,3.8,3.8,0,0,0-.081-.614q-.043-.144-.142-.144-.237,0-.955,1.24a3.471,3.471,0,0,1-.316.484.274.274,0,0,1-.185.114.247.247,0,0,1-.167-.059.184.184,0,0,1-.068-.144,1.543,1.543,0,0,1,.036-.244q.278-1.435.438-2.837a.989.989,0,0,1,.115-.435q.08-.108.135-.108a.244.244,0,0,1,.176.079.3.3,0,0,1,.079.219,4.523,4.523,0,0,1-.2,1.141q-.1.359-.21.913a5.189,5.189,0,0,0-.111.684q0,.027.025.027Zm3.253-2.347q-.049,0-.072-.1a.669.669,0,0,0-.025-.07.683.683,0,0,1-.061-.255.257.257,0,0,1,.107-.184.354.354,0,0,1,.238-.094.284.284,0,0,1,.148.049q.081.049.081.1a1.006,1.006,0,0,1-.055.253.378.378,0,0,1-.176.24.455.455,0,0,1-.185.063Zm-.3,2.523a1.807,1.807,0,0,0,.049.386.323.323,0,0,1,.009.068q0,.041-.075.1a.238.238,0,0,1-.158.064q-.219,0-.219-.4a7.888,7.888,0,0,1,.172-1.315,3.164,3.164,0,0,0,.059-.386.524.524,0,0,1,.052-.243.161.161,0,0,1,.148-.1.276.276,0,0,1,.182.055.159.159,0,0,1,.067.123.685.685,0,0,1-.032.179,8.414,8.414,0,0,0-.21.854,3.987,3.987,0,0,0-.042.611Zm2.444-1.237a.376.376,0,0,0-.256.153,4.058,4.058,0,0,0-.424.689,4.556,4.556,0,0,1-.484.818.307.307,0,0,1-.182.1.232.232,0,0,1-.2-.062.232.232,0,0,1-.069-.2A1.848,1.848,0,0,1,61-13.05a8.024,8.024,0,0,0,.124-1.439.343.343,0,0,1,.073-.191q.073-.1.139-.1a.188.188,0,0,1,.167.072.572.572,0,0,1,.049.291,6.453,6.453,0,0,1-.136.94,2.2,2.2,0,0,0-.045.3q0,.036.018.036a2.6,2.6,0,0,0,.314-.54,3.525,3.525,0,0,1,.495-.772.636.636,0,0,1,.468-.224A.386.386,0,0,1,63-14.5a1.619,1.619,0,0,1,.187.675,4.043,4.043,0,0,0,.114.693q.049.137.161.137a.438.438,0,0,0,.176-.049.069.069,0,0,1,.027-.009q.1,0,.1.113a.3.3,0,0,1-.133.211.483.483,0,0,1-.321.112.34.34,0,0,1-.3-.152,2.2,2.2,0,0,1-.166-.814q-.065-.66-.267-.66Z" transform="translate(11.429 26.475)" fill="#d03a81"></path>
      </g>
    </g>
  </g>
</svg>
