<svg xmlns="http://www.w3.org/2000/svg" width="247.135" height="136.247" viewBox="0 0 247.135 136.247"><g transform="translate(-225.183 -1113.054)"><g transform="translate(225.183 1113.054)"><path d="M82.681,323.346H81.608c-3.34-11.739-2.414-23.535-.557-35.363,1.108-7.055,2.064-14.134,3.068-21.2a6.989,6.989,0,0,1,.771-2.721,122.431,122.431,0,0,1-.5,18.183c-1.087,10.632-2.782,21.211-2.633,31.946A49.535,49.535,0,0,0,82.681,323.346Z" transform="translate(-42.136 -187.099)" fill="#fff"></path><g transform="translate(29.458 10.754)"><path d="M75.746,174.061a5.74,5.74,0,0,1-1.6-.236,10.365,10.365,0,0,1-7.152-9.458h0a5.095,5.095,0,0,1,7.791-4.934c4.3,2.071,6.84,6.979,5.666,10.941A4.842,4.842,0,0,1,75.746,174.061Zm-7.145-9.7a8.8,8.8,0,0,0,5.991,7.921,3.305,3.305,0,0,0,4.314-2.363c.96-3.239-1.2-7.292-4.821-9.034A3.513,3.513,0,0,0,68.6,164.36Z" transform="translate(-66.992 -158.718)" fill="#fff"></path></g><path d="M106.735,172.587c-2.1,3.416-.052,5.585,2.031,7.828a25.789,25.789,0,0,1,4.611,6.3c1.493,3.12,1.093,5.57-1.322,8.046-1.123,1.15-2.2,2.347-3.393,3.426-2.594,2.357-2.851,5.1-1.654,8.23a70.076,70.076,0,0,1,3.418,10.052,26,26,0,0,1-1.631,15.914,116.009,116.009,0,0,0-7.585,26.879,56.677,56.677,0,0,1,1.33-13.223,79.571,79.571,0,0,1,4.082-14.048c2.9-7.4,2.225-14.689-.916-21.856-.188-.429-.37-.862-.534-1.3-2.456-6.525-1.94-8.75,3.12-13.512.537-.505,1.024-1.068,1.594-1.531,3.308-2.69,2.584-4.956,1.074-7.788-1.3-2.437-3.164-4.482-4.736-6.73C104.479,176.777,104.566,175.051,106.735,172.587Z" transform="translate(-50.234 -153.117)" fill="#fff"></path><path d="M52.943,213.374a58.764,58.764,0,0,0-4.589,8.233,22.1,22.1,0,0,0-.7,16.434c1.888,5.92,4.142,11.731,5.062,17.931A46.323,46.323,0,0,1,53,267.512c-.337-2.279-.69-4.557-1.008-6.84-.874-6.28-3.07-12.167-5.272-18.063-2.148-5.749-3.866-11.589-2.2-17.816a42.569,42.569,0,0,1,5.839-12.05q1.146-1.77,2.342-3.508c2.512-3.655,2.468-7.352.262-11.127-2.569-4.4-6.426-7.489-10.452-10.411-1.236-.9-2.536-1.706-3.952-2.652.433,0,.745-.093.953.014,6.011,3.078,11.713,6.58,15.379,12.5a11.167,11.167,0,0,1,1.694,8.643C55.516,209.107,55.516,209.107,52.943,213.374Z" transform="translate(-26.97 -157.732)" fill="#fff"></path><path d="M53.8,262.026a49.312,49.312,0,0,1,1.628,13.123c-.4-.258-.427-.817-.465-1.332-.352-5.047-1.9-9.823-3.293-14.631a127.663,127.663,0,0,1-4.431-28.055,83.918,83.918,0,0,1,.233-16.428c.415-3.073,2.853-8.334,4.456-11.024a23.265,23.265,0,0,0,2.941-5.889c1.98-6.128.5-11.407-3.545-16.234-5.92-7.077-13.267-12.425-20.872-17.472-3.388-2.244-6.882-4.33-10.332-6.492a.626.626,0,0,1,.855-.113c10.672,5.348,21,11.225,29.645,19.634a27.941,27.941,0,0,1,6.806,9.591c2.351,5.914.685,11.394-2.024,16.724-.239.478-.547.918-.823,1.376-3.073,4.632-4.839,11.922-4.915,17.214A157.891,157.891,0,0,0,53.8,262.026Z" transform="translate(-20.12 -147.461)" fill="#fff"></path><path d="M96.3,163.107a6.6,6.6,0,0,0,1.37,5.826c.383.459.679.993,1.062,1.458,2.438,2.992,2.4,6.052.365,9.245a31.844,31.844,0,0,0-2.954,5c-1.873,4.588-.214,8.767,1.358,12.978a15.424,15.424,0,0,1,1.345,6.2c.063,15.077-2.715,33.328-7.975,47.4-.189.515-.113,1.257-1.112,1.263,4.2-15.517,7.984-32.694,6.419-48.814h0c.314-2.47-1.73-5.826-2.44-7.994-1.885-5.788-1.559-11.112,2.237-16.121,2.841-3.752,2.9-4.682.2-8.554a10.914,10.914,0,0,1-1.389-10.238,77.349,77.349,0,0,1,9.433-19.15c-.716,1.634-1.439,3.268-2.149,4.908C99.728,151.9,97.371,157.275,96.3,163.107Z" transform="translate(-45.993 -141.607)" fill="#fff"></path></g><g transform="translate(293.393 1152.494)"><path d="M1.044-18.368l1.319-.281a.652.652,0,0,0,.348-.218.593.593,0,0,0,.14-.395V-30.814a.607.607,0,0,0-.14-.405.652.652,0,0,0-.348-.218l-1.319-.27V-32.2H6.977a9.015,9.015,0,0,1,1.5.135,7.513,7.513,0,0,1,1.59.457,7.049,7.049,0,0,1,1.517.857,5.7,5.7,0,0,1,1.288,1.335,6.628,6.628,0,0,1,.893,1.9,8.731,8.731,0,0,1,.332,2.53,8.106,8.106,0,0,1-.566,3.169A6.1,6.1,0,0,1,11.984-19.6a6.327,6.327,0,0,1-2.28,1.3,8.861,8.861,0,0,1-2.769.426H1.044Zm6.067-.281a5.338,5.338,0,0,0,2.166-.405,3.982,3.982,0,0,0,1.532-1.174,5.123,5.123,0,0,0,.914-1.891,9.833,9.833,0,0,0,.3-2.545,9.249,9.249,0,0,0-.4-2.821,6.3,6.3,0,0,0-1.127-2.13,4.935,4.935,0,0,0-1.751-1.351,5.324,5.324,0,0,0-2.26-.473H4.722v12.789Zm8.062.3,1.153-.26a.624.624,0,0,0,.338-.208.58.58,0,0,0,.13-.384v-6.826a.766.766,0,0,0-.145-.468,1.023,1.023,0,0,0-.5-.322l-.956-.343v-.281l3.231-.717v2.275q.249-.405.551-.826a4.467,4.467,0,0,1,.686-.758,3.614,3.614,0,0,1,.847-.556,2.392,2.392,0,0,1,1.034-.218,4.1,4.1,0,0,1,.5.026,3.173,3.173,0,0,1,.374.068,2.531,2.531,0,0,1,.312.1q.145.057.322.119v2.431h-.53l-.332-.873a.385.385,0,0,0-.177-.182,1.29,1.29,0,0,0-.306-.125,2.814,2.814,0,0,0-.364-.073,2.622,2.622,0,0,0-.348-.026,2.6,2.6,0,0,0-.706.094,2.687,2.687,0,0,0-.634.27,2.971,2.971,0,0,0-.577.447,5.119,5.119,0,0,0-.535.623v6.14a.6.6,0,0,0,.13.395.572.572,0,0,0,.338.2l1.34.26v.468H15.174Zm16.914-1.7v.748a6.724,6.724,0,0,1-.727.6,5.784,5.784,0,0,1-.919.54,6.18,6.18,0,0,1-1.075.39,4.668,4.668,0,0,1-1.195.151,4.846,4.846,0,0,1-1.854-.343,3.9,3.9,0,0,1-1.439-1.013,4.685,4.685,0,0,1-.935-1.647,6.99,6.99,0,0,1-.332-2.254,6.508,6.508,0,0,1,.317-2.031,5.24,5.24,0,0,1,.919-1.709,4.525,4.525,0,0,1,1.47-1.179,4.256,4.256,0,0,1,1.958-.442,3.76,3.76,0,0,1,1.642.343A3.75,3.75,0,0,1,31.121-27a3.752,3.752,0,0,1,.738,1.262,4.324,4.324,0,0,1,.249,1.439q0,.094-.005.2l-.01.208a1.724,1.724,0,0,1-.021.2q-.016.094-.026.177H25.438a6.127,6.127,0,0,0,.857,3.486,2.9,2.9,0,0,0,2.551,1.221,4.157,4.157,0,0,0,1.07-.13,5,5,0,0,0,.878-.317,4.531,4.531,0,0,0,.686-.4q.3-.213.5-.39Zm-1.829-4.156a7.134,7.134,0,0,0-.109-1.262,3.638,3.638,0,0,0-.358-1.075,2.058,2.058,0,0,0-.649-.743,1.671,1.671,0,0,0-.971-.275,2.156,2.156,0,0,0-1.023.239,2.434,2.434,0,0,0-.79.675,3.732,3.732,0,0,0-.556,1.06,6.639,6.639,0,0,0-.312,1.382Zm8.966,4.841a3.614,3.614,0,0,1-.795.883,3.811,3.811,0,0,1-.873.514,3.5,3.5,0,0,1-.873.239,6.082,6.082,0,0,1-.795.057,2.583,2.583,0,0,1-1.075-.218,2.642,2.642,0,0,1-.831-.582,2.589,2.589,0,0,1-.54-.852,2.783,2.783,0,0,1-.192-1.029,2.743,2.743,0,0,1,.223-1.132,2.915,2.915,0,0,1,.6-.878,3.742,3.742,0,0,1,.868-.644,5.845,5.845,0,0,1,1.008-.431,6.635,6.635,0,0,1,1.039-.244,6.539,6.539,0,0,1,.966-.078q.093,0,.27.016l.369.031q.192.016.374.026t.286.01l.01-1.87a3.3,3.3,0,0,0-.088-.831,1.2,1.2,0,0,0-.27-.525.984.984,0,0,0-.462-.27,2.549,2.549,0,0,0-.675-.078,2.946,2.946,0,0,0-.992.171,5.309,5.309,0,0,0-.909.421,8.008,8.008,0,0,0-.79.525l-.623.473h-.229L33.906-27.3q.3-.166.67-.338a6.114,6.114,0,0,1,.795-.3,7.447,7.447,0,0,1,.909-.213,5.969,5.969,0,0,1,1.013-.083,5.191,5.191,0,0,1,1.3.171,3.616,3.616,0,0,1,1.205.556,2.9,2.9,0,0,1,.878,1.018A3.178,3.178,0,0,1,41-24.944L40.939-19.5a.685.685,0,0,0,.052.275.546.546,0,0,0,.161.208.761.761,0,0,0,.27.135,1.368,1.368,0,0,0,.379.047,1.051,1.051,0,0,0,.166-.021l.255-.047q.14-.026.281-.062t.244-.068h.1v.5q-.145.114-.379.265a4.418,4.418,0,0,1-.509.281,4.548,4.548,0,0,1-.571.223,1.879,1.879,0,0,1-.566.094,2.627,2.627,0,0,1-.7-.083,1.169,1.169,0,0,1-.5-.275,1.16,1.16,0,0,1-.3-.519A2.868,2.868,0,0,1,39.225-19.365Zm.031-3.782a9.859,9.859,0,0,0-1.709.135,4.27,4.27,0,0,0-1.3.426,2.2,2.2,0,0,0-.826.748,1.989,1.989,0,0,0-.291,1.091,2.272,2.272,0,0,0,.161.909,1.7,1.7,0,0,0,.416.6,1.527,1.527,0,0,0,.571.327,2.073,2.073,0,0,0,.618.1,3.31,3.31,0,0,0,.618-.062,3.227,3.227,0,0,0,.639-.192,2.805,2.805,0,0,0,.592-.338,2.045,2.045,0,0,0,.478-.5Zm3.886,4.821,1.132-.26A.555.555,0,0,0,44.6-18.8a.658.658,0,0,0,.119-.395v-6.847a.714.714,0,0,0-.135-.447,1.038,1.038,0,0,0-.488-.3l-.956-.343v-.281l3.273-.738v1.683a5.4,5.4,0,0,1,.732-.847,3.563,3.563,0,0,1,.758-.54,3.165,3.165,0,0,1,.805-.291,4.242,4.242,0,0,1,.883-.088,4.1,4.1,0,0,1,.956.109,2.824,2.824,0,0,1,.842.348,2.538,2.538,0,0,1,.67.608,2.7,2.7,0,0,1,.442.888,5.931,5.931,0,0,1,.94-1.086,3.746,3.746,0,0,1,.873-.582,2.742,2.742,0,0,1,.816-.239,6.454,6.454,0,0,1,.758-.047,3.642,3.642,0,0,1,1.226.2,2.566,2.566,0,0,1,.992.634,3.029,3.029,0,0,1,.665,1.112,4.827,4.827,0,0,1,.244,1.626v5.486a.54.54,0,0,0,.13.374.652.652,0,0,0,.338.2l1,.26v.468H55.692v-.447l1.132-.26a.555.555,0,0,0,.327-.218.658.658,0,0,0,.119-.395v-4.81a9.312,9.312,0,0,0-.078-1.262,2.734,2.734,0,0,0-.3-.966,1.521,1.521,0,0,0-.644-.618,2.408,2.408,0,0,0-1.106-.218,3.31,3.31,0,0,0-.618.062,3.47,3.47,0,0,0-.649.192,2.94,2.94,0,0,0-.618.343,2.265,2.265,0,0,0-.514.514v6.784a.536.536,0,0,0,.13.379.668.668,0,0,0,.338.192l1,.26v.468H49.417v-.447l1.132-.26a.573.573,0,0,0,.327-.208A.613.613,0,0,0,51-19.178v-4.831a9.312,9.312,0,0,0-.078-1.262,2.666,2.666,0,0,0-.306-.966,1.554,1.554,0,0,0-.649-.618,2.435,2.435,0,0,0-1.117-.218,3.36,3.36,0,0,0-.629.062,3.346,3.346,0,0,0-.644.192,2.877,2.877,0,0,0-.6.338,2.371,2.371,0,0,0-.5.5V-19.2a.483.483,0,0,0,.119.39.7.7,0,0,0,.348.2l1,.26v.468H43.142Zm23.386-.042,1.319-.281a.652.652,0,0,0,.348-.218.593.593,0,0,0,.14-.395V-30.814a.607.607,0,0,0-.14-.405.652.652,0,0,0-.348-.218l-1.319-.27V-32.2H71.7a10.268,10.268,0,0,1,2.561.265,4.412,4.412,0,0,1,1.574.706,2.341,2.341,0,0,1,.79,1.013,3.293,3.293,0,0,1,.218,1.184,3.467,3.467,0,0,1-.218,1.247A3.327,3.327,0,0,1,76-26.752a3.845,3.845,0,0,1-.977.784,5.309,5.309,0,0,1-1.267.514,5.348,5.348,0,0,1,1.564.286,4.2,4.2,0,0,1,1.278.7,3.251,3.251,0,0,1,.862,1.065A3.051,3.051,0,0,1,77.78-22a4.1,4.1,0,0,1-.234,1.444,3.369,3.369,0,0,1-.644,1.08,3.665,3.665,0,0,1-.966.764,5.894,5.894,0,0,1-1.195.493,7.854,7.854,0,0,1-1.335.265,12.505,12.505,0,0,1-1.392.078H66.528ZM71.151-25.6a7,7,0,0,0,1.751-.187,3.076,3.076,0,0,0,1.148-.535,1.975,1.975,0,0,0,.629-.852,3.173,3.173,0,0,0,.192-1.138,4.22,4.22,0,0,0-.213-1.423,2.327,2.327,0,0,0-.639-.971,2.625,2.625,0,0,0-1.065-.556,5.625,5.625,0,0,0-1.491-.177H70.206V-25.6Zm1.247,6.95a3.852,3.852,0,0,0,2.493-.686,2.751,2.751,0,0,0,.831-2.244,4.544,4.544,0,0,0-.229-1.543,2.293,2.293,0,0,0-.706-1.018,3,3,0,0,0-1.221-.566,7.692,7.692,0,0,0-1.761-.177h-1.6v6.234ZM83.909-17.6a4.976,4.976,0,0,1-1.969-.374,4.147,4.147,0,0,1-1.5-1.07,4.827,4.827,0,0,1-.951-1.673,6.742,6.742,0,0,1-.332-2.182,6.39,6.39,0,0,1,.332-2.083,5.134,5.134,0,0,1,.956-1.7,4.421,4.421,0,0,1,1.522-1.143,4.811,4.811,0,0,1,2.042-.416,4.735,4.735,0,0,1,2.119.442,4.266,4.266,0,0,1,1.475,1.174,4.967,4.967,0,0,1,.868,1.693,6.945,6.945,0,0,1,.286,1.99,6.45,6.45,0,0,1-.327,2.073,5.063,5.063,0,0,1-.951,1.7,4.478,4.478,0,0,1-1.522,1.148A4.785,4.785,0,0,1,83.909-17.6Zm.145-.686a2.13,2.13,0,0,0,1.371-.431,3.076,3.076,0,0,0,.857-1.091,5.2,5.2,0,0,0,.442-1.439,9.414,9.414,0,0,0,.125-1.486,9.376,9.376,0,0,0-.161-1.725,5.688,5.688,0,0,0-.514-1.553,3.209,3.209,0,0,0-.925-1.122,2.228,2.228,0,0,0-1.382-.431,2.229,2.229,0,0,0-.966.2,2.357,2.357,0,0,0-.727.535,3.061,3.061,0,0,0-.519.779,5.444,5.444,0,0,0-.338.935,6.544,6.544,0,0,0-.182,1,9.63,9.63,0,0,0-.052.977,10.673,10.673,0,0,0,.057,1.08,7.189,7.189,0,0,0,.2,1.1,6.287,6.287,0,0,0,.364,1.023,3.262,3.262,0,0,0,.556.852,2.6,2.6,0,0,0,.774.582A2.282,2.282,0,0,0,84.055-18.285Zm13.049-1.1a4.429,4.429,0,0,1-.914.945,4.005,4.005,0,0,1-.909.514,3.271,3.271,0,0,1-.821.213,6.029,6.029,0,0,1-.639.042,3.657,3.657,0,0,1-1.667-.369,3.615,3.615,0,0,1-1.242-1.023,4.716,4.716,0,0,1-.779-1.548,6.724,6.724,0,0,1-.27-1.953,7.382,7.382,0,0,1,.322-2.208,5.523,5.523,0,0,1,.93-1.8,4.421,4.421,0,0,1,1.491-1.216,4.38,4.38,0,0,1,2.005-.447,3.644,3.644,0,0,1,.81.083,3.207,3.207,0,0,1,.66.223,2.838,2.838,0,0,1,.53.322,4.509,4.509,0,0,1,.421.369v-4.145a.784.784,0,0,0-.135-.462.929.929,0,0,0-.5-.306l-1.08-.343v-.281l3.46-.8v13.766a.74.74,0,0,0,.14.457.979.979,0,0,0,.5.3l.956.3v.281l-3.065.8H97.1Zm-.073-7.345a1.739,1.739,0,0,0-.468-.281,4.328,4.328,0,0,0-.608-.208,5.284,5.284,0,0,0-.618-.125,3.78,3.78,0,0,0-.5-.042,2.768,2.768,0,0,0-1.387.332,2.99,2.99,0,0,0-.982.893,3.981,3.981,0,0,0-.587,1.293,6.055,6.055,0,0,0-.192,1.543,8.314,8.314,0,0,0,.182,1.8,4.34,4.34,0,0,0,.561,1.413,2.74,2.74,0,0,0,.966.925,2.79,2.79,0,0,0,1.4.332,3.349,3.349,0,0,0,.54-.052,3.217,3.217,0,0,0,.623-.171,2.7,2.7,0,0,0,.6-.322,1.728,1.728,0,0,0,.473-.5Zm3.9,11.709h.27a2.245,2.245,0,0,0,.4.2q.244.1.5.182t.5.135a1.978,1.978,0,0,0,.39.052,1.325,1.325,0,0,0,.369-.047,1.306,1.306,0,0,0,.369-.192,2.09,2.09,0,0,0,.488-.452,3.992,3.992,0,0,0,.4-.639q.192-.374.39-.873t.447-1.143l-.717-1.444-3.127-7.511a.659.659,0,0,0-.255-.327,1.867,1.867,0,0,0-.452-.182l-.706-.218v-.468h4.644v.468l-1.5.322,2.369,5.808.53,1.3,2.493-7.044-1.475-.384v-.468h3.647v.468l-.727.281q-.291.114-.457.192a.51.51,0,0,0-.249.317l-3.834,10.722a7.391,7.391,0,0,1-.743,1.574,3.534,3.534,0,0,1-.81.9,2.281,2.281,0,0,1-.873.41,4.346,4.346,0,0,1-.93.1,3.223,3.223,0,0,1-.53-.042,3.164,3.164,0,0,1-.457-.109,4.07,4.07,0,0,1-.384-.145,3.043,3.043,0,0,1-.3-.151Zm15.729-7.137h.551l.821,2.067a1.087,1.087,0,0,0,.2.291,1.4,1.4,0,0,0,.265.239,6.41,6.41,0,0,0,.81.436,8.222,8.222,0,0,0,.873.338,7.421,7.421,0,0,0,.831.218,3.649,3.649,0,0,0,.7.078,3.587,3.587,0,0,0,1.19-.187,2.523,2.523,0,0,0,.914-.545,2.369,2.369,0,0,0,.582-.883,3.314,3.314,0,0,0,.2-1.2,2.322,2.322,0,0,0-.519-1.564,3.705,3.705,0,0,0-1.4-.982,6.777,6.777,0,0,0-.779-.275q-.384-.109-.774-.213t-.779-.213a7.294,7.294,0,0,1-.774-.265,4.026,4.026,0,0,1-1.8-1.34,3.489,3.489,0,0,1-.639-2.119,4.045,4.045,0,0,1,.343-1.657,4.171,4.171,0,0,1,.951-1.351,4.415,4.415,0,0,1,1.439-.9,4.862,4.862,0,0,1,1.8-.327,9.589,9.589,0,0,1,1.049.057q.519.057,1.018.151t.966.223q.468.13.9.275v3.377h-.551l-.717-1.922a.649.649,0,0,0-.192-.281q-.14-.125-.255-.208a2.587,2.587,0,0,0-.582-.322,5.813,5.813,0,0,0-.68-.229,5.664,5.664,0,0,0-.681-.14,4.192,4.192,0,0,0-.571-.047,3.266,3.266,0,0,0-1.1.171,2.385,2.385,0,0,0-.816.473,2.059,2.059,0,0,0-.514.727,2.33,2.33,0,0,0-.182.925,4.335,4.335,0,0,0,.083.852,2.43,2.43,0,0,0,.3.779,2.563,2.563,0,0,0,.6.67,3.264,3.264,0,0,0,.961.514q.374.135.743.239l.743.208q.374.1.764.229t.816.3a7.238,7.238,0,0,1,.94.473,3.534,3.534,0,0,1,.826.681,3.206,3.206,0,0,1,.587.966,3.588,3.588,0,0,1,.223,1.33,4.68,4.68,0,0,1-.3,1.626,3.913,3.913,0,0,1-.935,1.439,4.791,4.791,0,0,1-1.636,1.029,6.49,6.49,0,0,1-2.39.395,6.3,6.3,0,0,1-.961-.078q-.5-.078-1.039-.2T118-18.129q-.551-.166-1.091-.343Zm10.888,7.137h.27a2.246,2.246,0,0,0,.4.2q.244.1.5.182a5.217,5.217,0,0,0,.5.135,1.978,1.978,0,0,0,.39.052,1.325,1.325,0,0,0,.369-.047,1.306,1.306,0,0,0,.369-.192,2.09,2.09,0,0,0,.488-.452,3.993,3.993,0,0,0,.4-.639q.192-.374.39-.873t.447-1.143l-.717-1.444-3.127-7.511a.659.659,0,0,0-.255-.327,1.868,1.868,0,0,0-.452-.182l-.706-.218v-.468h4.644v.468l-1.5.322,2.369,5.808.53,1.3,2.493-7.044-1.475-.384v-.468h3.647v.468l-.727.281q-.291.114-.457.192a.51.51,0,0,0-.249.317l-3.834,10.722a7.392,7.392,0,0,1-.743,1.574,3.534,3.534,0,0,1-.81.9,2.281,2.281,0,0,1-.873.41,4.346,4.346,0,0,1-.93.1,3.223,3.223,0,0,1-.53-.042,3.164,3.164,0,0,1-.457-.109,4.07,4.07,0,0,1-.384-.145,3.04,3.04,0,0,1-.3-.151Zm10.306-6.005h.53l.395,1.236a.863.863,0,0,0,.322.436,4.026,4.026,0,0,0,.447.291q.177.094.431.2t.545.2a4.862,4.862,0,0,0,.6.151,3.2,3.2,0,0,0,.587.057,3.158,3.158,0,0,0,.748-.088,1.771,1.771,0,0,0,.644-.3,1.536,1.536,0,0,0,.452-.54,1.8,1.8,0,0,0,.171-.831,1.489,1.489,0,0,0-.151-.7,1.4,1.4,0,0,0-.41-.478,2.364,2.364,0,0,0-.6-.317q-.343-.125-.727-.229l-1.023-.281q-.494-.135-.9-.27a2.742,2.742,0,0,1-.774-.384,2.619,2.619,0,0,1-.6-.6,2.812,2.812,0,0,1-.395-.79A3.038,3.038,0,0,1,138-25.2a2.607,2.607,0,0,1,.3-1.236,2.98,2.98,0,0,1,.805-.961,3.786,3.786,0,0,1,1.179-.618,4.552,4.552,0,0,1,1.418-.218q.436,0,.8.031t.7.088q.338.057.665.135t.691.171l.166,2.784h-.571l-.457-1.247a1,1,0,0,0-.27-.4,1.909,1.909,0,0,0-.405-.286,5.14,5.14,0,0,0-.795-.312,3.126,3.126,0,0,0-.919-.135,2.609,2.609,0,0,0-.655.083,1.722,1.722,0,0,0-.582.27,1.4,1.4,0,0,0-.421.493,1.58,1.58,0,0,0-.161.743,1.863,1.863,0,0,0,.13.738,1.453,1.453,0,0,0,.343.5,1.9,1.9,0,0,0,.473.322,3.819,3.819,0,0,0,.53.208q.218.073.468.145l.483.14.436.125q.2.057.338.1a6.632,6.632,0,0,1,.987.374,3.182,3.182,0,0,1,.795.53,2.27,2.27,0,0,1,.53.732,2.343,2.343,0,0,1,.192.982,3.256,3.256,0,0,1-.322,1.5A2.933,2.933,0,0,1,144-18.389a3.687,3.687,0,0,1-1.278.6,6.1,6.1,0,0,1-1.553.192,7.2,7.2,0,0,1-.982-.062,7.427,7.427,0,0,1-.852-.166q-.4-.1-.764-.223l-.717-.234Zm9.569-6.026H145.8v-.509q.405-.1.727-.192a1.9,1.9,0,0,0,.556-.244,1.081,1.081,0,0,0,.369-.426,1.969,1.969,0,0,0,.166-.738l.073-1.278,1.475-.312v2.867h3.553l-.3.831h-3.252v7.1a.722.722,0,0,0,.208.525,1.731,1.731,0,0,0,.5.353,2.575,2.575,0,0,0,.623.2,3.127,3.127,0,0,0,.577.062,2.191,2.191,0,0,0,.374-.036q.208-.036.405-.083a3.461,3.461,0,0,0,.358-.1,2.3,2.3,0,0,0,.244-.1h.1v.551q-.145.094-.4.244a5.232,5.232,0,0,1-.592.3,4.981,4.981,0,0,1-.748.249,3.523,3.523,0,0,1-.867.1,3.6,3.6,0,0,1-1.013-.135,2.461,2.461,0,0,1-.8-.39,1.805,1.805,0,0,1-.53-.634,1.916,1.916,0,0,1-.192-.878Zm14.171,7v.748a6.726,6.726,0,0,1-.727.6,5.784,5.784,0,0,1-.919.54,6.18,6.18,0,0,1-1.075.39,4.668,4.668,0,0,1-1.195.151,4.846,4.846,0,0,1-1.854-.343,3.9,3.9,0,0,1-1.439-1.013,4.685,4.685,0,0,1-.935-1.647,6.99,6.99,0,0,1-.332-2.254,6.507,6.507,0,0,1,.317-2.031,5.24,5.24,0,0,1,.919-1.709,4.525,4.525,0,0,1,1.47-1.179,4.256,4.256,0,0,1,1.958-.442,3.76,3.76,0,0,1,1.641.343,3.75,3.75,0,0,1,1.205.893,3.752,3.752,0,0,1,.738,1.262,4.324,4.324,0,0,1,.249,1.439q0,.094-.005.2l-.01.208a1.718,1.718,0,0,1-.021.2q-.016.094-.026.177h-6.608a6.127,6.127,0,0,0,.857,3.486,2.9,2.9,0,0,0,2.551,1.221,4.156,4.156,0,0,0,1.07-.13,4.994,4.994,0,0,0,.878-.317,4.53,4.53,0,0,0,.686-.4q.3-.213.5-.39Zm-1.829-4.156a7.134,7.134,0,0,0-.109-1.262,3.637,3.637,0,0,0-.358-1.075,2.058,2.058,0,0,0-.649-.743,1.672,1.672,0,0,0-.971-.275,2.156,2.156,0,0,0-1.023.239,2.433,2.433,0,0,0-.79.675,3.732,3.732,0,0,0-.556,1.06,6.638,6.638,0,0,0-.312,1.382Zm2.867,5.88,1.132-.26a.555.555,0,0,0,.327-.218.658.658,0,0,0,.119-.395v-6.847a.714.714,0,0,0-.135-.447,1.038,1.038,0,0,0-.488-.3l-.956-.343v-.281l3.273-.738v1.683a5.4,5.4,0,0,1,.732-.847,3.563,3.563,0,0,1,.758-.54,3.165,3.165,0,0,1,.805-.291,4.242,4.242,0,0,1,.883-.088,4.105,4.105,0,0,1,.956.109,2.824,2.824,0,0,1,.842.348,2.538,2.538,0,0,1,.67.608,2.7,2.7,0,0,1,.442.888,5.931,5.931,0,0,1,.94-1.086,3.746,3.746,0,0,1,.873-.582,2.743,2.743,0,0,1,.816-.239,6.454,6.454,0,0,1,.758-.047,3.642,3.642,0,0,1,1.226.2,2.566,2.566,0,0,1,.992.634,3.029,3.029,0,0,1,.665,1.112,4.828,4.828,0,0,1,.244,1.626v5.486a.541.541,0,0,0,.13.374.652.652,0,0,0,.338.2l1,.26v.468h-4.789v-.447l1.132-.26a.555.555,0,0,0,.327-.218.658.658,0,0,0,.119-.395v-4.81a9.31,9.31,0,0,0-.078-1.262,2.734,2.734,0,0,0-.3-.966,1.521,1.521,0,0,0-.644-.618,2.408,2.408,0,0,0-1.106-.218,3.31,3.31,0,0,0-.618.062,3.47,3.47,0,0,0-.649.192,2.94,2.94,0,0,0-.618.343,2.265,2.265,0,0,0-.514.514v6.784a.536.536,0,0,0,.13.379.668.668,0,0,0,.338.192l1,.26v.468H168.9v-.447l1.132-.26a.573.573,0,0,0,.327-.208.613.613,0,0,0,.119-.384v-4.831a9.313,9.313,0,0,0-.078-1.262,2.666,2.666,0,0,0-.306-.966,1.554,1.554,0,0,0-.649-.618,2.435,2.435,0,0,0-1.117-.218,3.36,3.36,0,0,0-.629.062,3.346,3.346,0,0,0-.644.192,2.877,2.877,0,0,0-.6.338,2.372,2.372,0,0,0-.5.5V-19.2a.483.483,0,0,0,.119.39.7.7,0,0,0,.348.2l1,.26v.468h-4.789Z" transform="translate(-1.044 33.578)" fill="#fff"></path><path d="M4.368-15.2q.041.032.041.224a.822.822,0,0,1-.041.3l.059.192a7.642,7.642,0,0,0,.3.886q.183.466.361,1a15.611,15.611,0,0,0,.847,2.1,4.8,4.8,0,0,0,.806,1.23,2.656,2.656,0,0,1,.285.308.346.346,0,0,1,.057.2.471.471,0,0,1-.135.34.432.432,0,0,1-.322.139q-.584,0-1.415-1.84-.333-.726-.4-.726a6.894,6.894,0,0,0-.943.132,12.587,12.587,0,0,0-1.322.31,2.113,2.113,0,0,1-.434.105.359.359,0,0,1-.237-.114.085.085,0,0,0-.055-.018q-.1,0-.434.594Q.834-8.855.69-8.666a.4.4,0,0,1-.317.189.506.506,0,0,1-.3-.144A.4.4,0,0,1-.1-8.914a.8.8,0,0,1,.164-.395q.164-.249.671-1a27.505,27.505,0,0,0,1.525-2.511,21.852,21.852,0,0,1,1.246-2.2q.265-.336.406-.336A.583.583,0,0,1,4.368-15.2Zm.279,3.63q-.16-.365-.47-1.338-.338-1.036-.429-1.26-.251.53-.776,1.5L2.144-11.1a1.275,1.275,0,0,1,.507-.119A5.052,5.052,0,0,0,3.2-11.3Q4.445-11.549,4.646-11.567Zm6.7-.119q-.128,0-.616,1.064A14.75,14.75,0,0,1,9.91-9.067q-.42.683-.616.683-.566,0-1.048-1.682a10.394,10.394,0,0,1-.482-2.71.887.887,0,0,1,.167-.552.545.545,0,0,1,.395-.237.6.6,0,0,1,.114,0q.082.007.2.151a.446.446,0,0,1,.119.281v.018q0,.055-.05.457a5.412,5.412,0,0,0-.041.726,5.014,5.014,0,0,0,.26,1.5q.26.822.438.822A4.811,4.811,0,0,0,10.211-11q.452-.881.648-1.214l.146-.274a2.677,2.677,0,0,1,.6-.831q.393.05.393.393a.853.853,0,0,1-.018.192.853.853,0,0,0-.018.192A4.13,4.13,0,0,0,12.4-10.77q.438.925.625.925.137,0,.434-.968a12.507,12.507,0,0,1,.742-1.972,2.9,2.9,0,0,1,.5-.781.575.575,0,0,1,.361-.123.242.242,0,0,1,.194.1.33.33,0,0,1,.08.212.393.393,0,0,1-.05.233A8.2,8.2,0,0,0,14.2-10.823q-.443,1.356-.607,1.7t-.274.347a1.144,1.144,0,0,1-.9-.4,7.844,7.844,0,0,1-.931-2.148Q11.412-11.53,11.348-11.686Zm7.7,1.361a5.591,5.591,0,0,1-1.265,1.288,2.076,2.076,0,0,1-1.146.429.778.778,0,0,1-.607-.3,1.127,1.127,0,0,1-.256-.762,4.332,4.332,0,0,1,1.073-2.586,2.888,2.888,0,0,1,2.132-1.386.61.61,0,0,1,.571.438.2.2,0,0,0,.187.146q.365,0,.365.283a2.267,2.267,0,0,1-.046.388,12.324,12.324,0,0,0-.247,1.9q0,1.1.42,1.324a.316.316,0,0,1,.2.269.385.385,0,0,1-.2.285.646.646,0,0,1-.379.144q-.352,0-.58-.484A3.321,3.321,0,0,1,19.05-10.325Zm-.279-2.57q-.6,0-1.4,1.13a3.537,3.537,0,0,0-.8,1.874q0,.525.347.525.5,0,1.393-1.014a2.956,2.956,0,0,0,.89-1.863Q19.2-12.9,18.772-12.9Zm3.575,2.1q.059-.078.817-.735.717-.625,1-.909,1.055-1.055,1.516-1.055.356,0,.356.342a.6.6,0,0,1-.352.571,10.612,10.612,0,0,0-1.219.774q-.762.541-.762.765a2.779,2.779,0,0,0,.539.683,6.336,6.336,0,0,0,.931.872,1.317,1.317,0,0,0,.762.281l.151,0q.16-.009.16.142a.563.563,0,0,1-.251.409,1,1,0,0,1-.662.208.951.951,0,0,1-.536-.185,6.736,6.736,0,0,1-.966-1q-.552-.671-.689-.8a.379.379,0,0,0-.228-.13,1.123,1.123,0,0,0-.32.237.88.88,0,0,0-.294.361,8.776,8.776,0,0,0-.025.941v.215a.386.386,0,0,1-.16.3.533.533,0,0,1-.347.132.4.4,0,0,1-.3-.112.331.331,0,0,1-.11-.231,5.481,5.481,0,0,1,.123-.776q.173-.881.32-2.36a28.093,28.093,0,0,1,.52-3.952q.183-.459.52-.459a.232.232,0,0,1,.2.128.611.611,0,0,1,.08.329,14.868,14.868,0,0,1-.315,1.94A30.339,30.339,0,0,0,22.347-10.8Zm8.551.584q0,.466-.824,1.123a2.7,2.7,0,0,1-1.7.657,1.465,1.465,0,0,1-1.135-.434,1.719,1.719,0,0,1-.4-1.21,4.082,4.082,0,0,1,.881-2.484,2.451,2.451,0,0,1,1.927-1.178.745.745,0,0,1,.559.224.746.746,0,0,1,.217.539,1.854,1.854,0,0,1-.689,1.347,8.838,8.838,0,0,1-1.845,1.265.365.365,0,0,0-.237.32.84.84,0,0,0,.219.607.858.858,0,0,0,.648.228,2.857,2.857,0,0,0,2-1.087q.151-.151.228-.151Q30.9-10.444,30.9-10.211Zm-3.173-.712q1.936-1.151,1.936-1.849,0-.274-.247-.274a1.406,1.406,0,0,0-.947.616A3.558,3.558,0,0,0,27.725-10.923Zm7.236-1.251a.76.76,0,0,0-.518.31,8.2,8.2,0,0,0-.856,1.393,9.209,9.209,0,0,1-.979,1.653.621.621,0,0,1-.368.2.468.468,0,0,1-.539-.52,3.735,3.735,0,0,1,.073-.621,16.217,16.217,0,0,0,.251-2.908.694.694,0,0,1,.148-.386q.148-.212.281-.212a.38.38,0,0,1,.338.146,1.156,1.156,0,0,1,.1.589,13.043,13.043,0,0,1-.274,1.9,4.44,4.44,0,0,0-.091.6q0,.073.037.073a5.248,5.248,0,0,0,.635-1.091,7.124,7.124,0,0,1,1-1.561,1.285,1.285,0,0,1,.945-.452.781.781,0,0,1,.669.374,3.273,3.273,0,0,1,.377,1.365,8.17,8.17,0,0,0,.231,1.4q.1.276.326.276a.885.885,0,0,0,.356-.1.14.14,0,0,1,.055-.018q.2,0,.2.228a.607.607,0,0,1-.269.427.976.976,0,0,1-.648.226.687.687,0,0,1-.6-.308,4.441,4.441,0,0,1-.336-1.646Q35.373-12.174,34.962-12.174Zm6.406-2.041a.469.469,0,0,1-.05-.228.281.281,0,0,1,.148-.279,3.025,3.025,0,0,1,.888-.082q.909,0,1.632-.066t2.23-.267a8.074,8.074,0,0,1,1.087-.078,3.679,3.679,0,0,1,.5.032,2.438,2.438,0,0,1,.333.062.267.267,0,0,1,.158.164.569.569,0,0,1,.059.208q0,.324-.228.324-.151,0-.411-.027t-.717-.023q-.466,0-1.13.066t-.737.217a12.837,12.837,0,0,0-.24,1.781q-.167,1.63-.167,2.429a3.776,3.776,0,0,0,.114.854.911.911,0,0,1,.018.11.633.633,0,0,1-.11.363.316.316,0,0,1-.265.162.467.467,0,0,1-.395-.228A2.96,2.96,0,0,1,43.924-10a37.069,37.069,0,0,1,.379-3.885q.018-.155.018-.16,0-.155-.169-.155-.274,0-1.046.068t-1.1.073A.913.913,0,0,1,41.367-14.215Zm7.456,4.182q1.7-3.137,2.8-3.137a.54.54,0,0,1,.475.333,4.708,4.708,0,0,1,.3,1.479,3.593,3.593,0,0,0,.516,1.762.855.855,0,0,1,.205.411.278.278,0,0,1-.137.219.485.485,0,0,1-.292.1.771.771,0,0,1-.63-.4,3.042,3.042,0,0,1-.352-1.4,7.691,7.691,0,0,0-.164-1.242q-.087-.292-.288-.292-.479,0-1.931,2.507a7.016,7.016,0,0,1-.639.979.553.553,0,0,1-.374.231.5.5,0,0,1-.338-.119.372.372,0,0,1-.137-.292,3.12,3.12,0,0,1,.073-.493q.562-2.9.886-5.734A2,2,0,0,1,49.026-16q.162-.219.272-.219a.493.493,0,0,1,.356.16.6.6,0,0,1,.16.443,9.141,9.141,0,0,1-.411,2.306q-.2.726-.425,1.845a10.486,10.486,0,0,0-.224,1.383q0,.055.05.055Zm9.013-.178q0,.466-.824,1.123a2.7,2.7,0,0,1-1.7.657,1.465,1.465,0,0,1-1.135-.434,1.719,1.719,0,0,1-.4-1.21,4.082,4.082,0,0,1,.881-2.484,2.451,2.451,0,0,1,1.927-1.178.745.745,0,0,1,.559.224.746.746,0,0,1,.217.539,1.854,1.854,0,0,1-.689,1.347,8.837,8.837,0,0,1-1.845,1.265.365.365,0,0,0-.237.32.84.84,0,0,0,.219.607.858.858,0,0,0,.648.228,2.857,2.857,0,0,0,2-1.087q.151-.151.228-.151Q57.835-10.444,57.835-10.211Zm-3.173-.712Q56.6-12.074,56.6-12.772q0-.274-.247-.274a1.406,1.406,0,0,0-.947.616A3.558,3.558,0,0,0,54.662-10.923Zm8.766-3.251a.233.233,0,0,0-.205-.233q-.374-.091-.374-.315A.491.491,0,0,1,63-15.053a.43.43,0,0,1,.317-.162l.639.018q.447,0,1.178-.059t1.087-.059a2.857,2.857,0,0,1,2.025.71,2.431,2.431,0,0,1,.765,1.87,3.162,3.162,0,0,1-1.093,2.322A6.651,6.651,0,0,1,64.8-8.882a3.562,3.562,0,0,0-1.082.388,1.2,1.2,0,0,1-.621.256.382.382,0,0,1-.308-.185.566.566,0,0,1-.135-.294.883.883,0,0,1,.091-.237,1.719,1.719,0,0,0,.135-.415,6.719,6.719,0,0,0,.066-.753q.023-.539.167-1.742t.235-1.705A3.947,3.947,0,0,0,63.428-14.174Zm.826-.306a32.711,32.711,0,0,0-.543,4.607,1.285,1.285,0,0,0,.059.447.224.224,0,0,0,.142.032,7.871,7.871,0,0,0,1.529-.384A4.639,4.639,0,0,0,67.45-10.96a2.546,2.546,0,0,0,.772-1.817,1.678,1.678,0,0,0-.6-1.349,2.352,2.352,0,0,0-1.573-.5,11.243,11.243,0,0,0-1.429.11Q64.437-14.494,64.255-14.48Zm6.625,4q.046-.082.11-.228a8.119,8.119,0,0,1,.571-1.116,7.416,7.416,0,0,1,.573-.774,3.6,3.6,0,0,1,.571-.562,1.871,1.871,0,0,1,.468-.267,1.2,1.2,0,0,1,.406-.075.9.9,0,0,1,.648.24.75.75,0,0,1,.251.559.405.405,0,0,1-.089.256.323.323,0,0,1-.272.114.477.477,0,0,1-.352-.169.48.48,0,0,0-.342-.169q-.475,0-1.315,1.151a5.445,5.445,0,0,0-1.023,2.534.772.772,0,0,1-.173.47.523.523,0,0,1-.361.114q-.224,0-.324-.333a4.36,4.36,0,0,1-.1-1.123q0-.215.023-.945a11.922,11.922,0,0,1,.11-1.393q.014-.087.046-.406a2.33,2.33,0,0,1,.08-.489.581.581,0,0,1,.2-.256.5.5,0,0,1,.322-.119.3.3,0,0,1,.253.107.366.366,0,0,1,.084.231,2,2,0,0,1-.091.5,4.1,4.1,0,0,0-.123.5,2.628,2.628,0,0,1-.05.324,8.633,8.633,0,0,0-.091,1.032l0,.169Zm7.793.265q0,.466-.824,1.123a2.7,2.7,0,0,1-1.7.657,1.465,1.465,0,0,1-1.135-.434,1.719,1.719,0,0,1-.4-1.21,4.082,4.082,0,0,1,.881-2.484,2.451,2.451,0,0,1,1.927-1.178.745.745,0,0,1,.559.224.746.746,0,0,1,.217.539,1.854,1.854,0,0,1-.689,1.347,8.837,8.837,0,0,1-1.845,1.265.365.365,0,0,0-.237.32.84.84,0,0,0,.219.607.858.858,0,0,0,.648.228,2.857,2.857,0,0,0,2-1.087q.151-.151.228-.151Q78.673-10.444,78.673-10.211ZM75.5-10.923q1.936-1.151,1.936-1.849,0-.274-.247-.274a1.406,1.406,0,0,0-.947.616A3.558,3.558,0,0,0,75.5-10.923Zm7.2.6a5.591,5.591,0,0,1-1.265,1.288,2.076,2.076,0,0,1-1.146.429.778.778,0,0,1-.607-.3,1.127,1.127,0,0,1-.256-.762A4.332,4.332,0,0,1,80.5-12.254a2.888,2.888,0,0,1,2.132-1.386.61.61,0,0,1,.571.438.2.2,0,0,0,.187.146q.365,0,.365.283a2.267,2.267,0,0,1-.046.388,12.324,12.324,0,0,0-.247,1.9q0,1.1.42,1.324a.316.316,0,0,1,.2.269.385.385,0,0,1-.2.285.646.646,0,0,1-.379.144q-.352,0-.58-.484A3.321,3.321,0,0,1,82.7-10.325Zm-.278-2.57q-.6,0-1.4,1.13a3.537,3.537,0,0,0-.8,1.874q0,.525.347.525.5,0,1.393-1.014a2.956,2.956,0,0,0,.89-1.863Q82.855-12.9,82.426-12.9Zm6.136.621q-.425.009-1.817,2.516a8.548,8.548,0,0,1-.548.92.7.7,0,0,1-.285.135,1.3,1.3,0,0,1-.345.059q-.306,0-.306-1.192a17.99,17.99,0,0,1,.288-2.429,7.118,7.118,0,0,0,.119-1.018q0-.3.269-.3.507,0,.507.73a10.051,10.051,0,0,1-.169,1.342q-.2,1.141-.2,1.388a6.571,6.571,0,0,0,.831-1.2,8.93,8.93,0,0,1,1.144-1.609,1.116,1.116,0,0,1,.76-.34q.3,0,.473.4a6.448,6.448,0,0,1,.212,1.895,2.1,2.1,0,0,0,.068.557q.059.183.087.183.215,0,.931-1.461a5.289,5.289,0,0,1,.746-1.173,1.072,1.072,0,0,1,.806-.4.562.562,0,0,1,.539.381,3.849,3.849,0,0,1,.242,1.13,10.5,10.5,0,0,0,.212,1.388,1.08,1.08,0,0,0,.527.808q.26.123.26.288a.452.452,0,0,1-.219.329.68.68,0,0,1-.4.169.8.8,0,0,1-.653-.447,5.1,5.1,0,0,1-.434-1.936,7.8,7.8,0,0,0-.123-.849q-.059-.251-.187-.251-.192,0-.454.365a14.676,14.676,0,0,0-.847,1.484A8.084,8.084,0,0,1,89.9-9.259a.631.631,0,0,1-.454.29.482.482,0,0,1-.352-.158.713.713,0,0,1-.2-.379q-.041-.221-.087-1.089A4.411,4.411,0,0,0,88.562-12.275Zm14.286,0q-.155.21-.571.945a15.067,15.067,0,0,1-1.936,3.114.569.569,0,0,1-.5-.363,10.207,10.207,0,0,1-.527-1.924q-.336-1.561-.568-2.986-.087-.4-.169-.657a1.81,1.81,0,0,1-.114-.511.46.46,0,0,1,.135-.322.4.4,0,0,1,.3-.144q.2,0,.349.308a6.917,6.917,0,0,1,.331,1.5,28.446,28.446,0,0,0,.8,3.9q1.141-1.822,1.42-2.317t.785-1.6a.4.4,0,0,1,.365-.242q.1,0,.228.2a7.364,7.364,0,0,1,.447,1.093,18.631,18.631,0,0,0,1.082,2.657,12.807,12.807,0,0,0,1.867-5.511q0-.064.121-.176a.351.351,0,0,1,.231-.112q.365,0,.365.466a6.533,6.533,0,0,1-.244,1.45,12.724,12.724,0,0,1-.584,1.781q-.34.815-1.144,2.481-.132.269-.224.479a.354.354,0,0,1-.176.146.54.54,0,0,1-.208.059.562.562,0,0,1-.4-.215,5.157,5.157,0,0,1-.612-1.258q-.411-1.043-.594-1.568Q102.98-11.969,102.848-12.275Zm6.465-2.5q-.1,0-.146-.205a1.349,1.349,0,0,0-.05-.142,1.381,1.381,0,0,1-.123-.516.519.519,0,0,1,.217-.372.715.715,0,0,1,.482-.189.574.574,0,0,1,.3.1q.164.1.164.2a2.035,2.035,0,0,1-.112.511.764.764,0,0,1-.356.486A.92.92,0,0,1,109.312-14.777Zm-.6,5.1a3.654,3.654,0,0,0,.1.781.653.653,0,0,1,.018.137q0,.082-.151.212a.482.482,0,0,1-.32.13q-.443,0-.443-.813a15.943,15.943,0,0,1,.347-2.657,6.392,6.392,0,0,0,.119-.781,1.058,1.058,0,0,1,.105-.491.325.325,0,0,1,.3-.2.558.558,0,0,1,.368.112.322.322,0,0,1,.135.249,1.386,1.386,0,0,1-.064.361,17,17,0,0,0-.425,1.726A8.057,8.057,0,0,0,108.714-9.677ZM112.4-13.27q.47-.037.886-.087a6.4,6.4,0,0,1,.685-.046.92.92,0,0,1,.438.064.254.254,0,0,1,.091.224q0,.37-.516.4-.662.041-1.219.114a2.033,2.033,0,0,0-.6.121,8.313,8.313,0,0,0-.276,1.087,8.211,8.211,0,0,0-.233,1.349,1.16,1.16,0,0,0,.132.669.477.477,0,0,0,.4.167A2.011,2.011,0,0,0,113.28-9.8a.762.762,0,0,1,.415-.242q.2,0,.2.21,0,.329-.632.851a2.02,2.02,0,0,1-1.294.523q-1.1,0-1.1-1.3a7.225,7.225,0,0,1,.228-1.456,8.694,8.694,0,0,0,.224-1.178q0-.068-.11-.068l-.475.041q-.584,0-.584-.466a.236.236,0,0,1,.269-.265h.941a.216.216,0,0,0,.169-.087,2.24,2.24,0,0,0,.215-.582q.142-.5.251-.979t.429-.479a.37.37,0,0,1,.306.137.421.421,0,0,1,.11.256,6.06,6.06,0,0,1-.164.653Zm3.274,3.237q1.7-3.137,2.8-3.137a.54.54,0,0,1,.475.333,4.708,4.708,0,0,1,.3,1.479,3.593,3.593,0,0,0,.516,1.762.855.855,0,0,1,.205.411.278.278,0,0,1-.137.219.485.485,0,0,1-.292.1.771.771,0,0,1-.63-.4,3.042,3.042,0,0,1-.352-1.4,7.688,7.688,0,0,0-.164-1.242q-.087-.292-.288-.292-.479,0-1.931,2.507a7.015,7.015,0,0,1-.639.979.553.553,0,0,1-.374.231.5.5,0,0,1-.338-.119.372.372,0,0,1-.137-.292,3.12,3.12,0,0,1,.073-.493q.562-2.9.886-5.734A2,2,0,0,1,115.88-16q.162-.219.272-.219a.493.493,0,0,1,.356.16.6.6,0,0,1,.16.443,9.141,9.141,0,0,1-.411,2.306q-.2.726-.425,1.845a10.486,10.486,0,0,0-.224,1.383q0,.055.05.055Zm6.574-4.744q-.1,0-.146-.205a1.352,1.352,0,0,0-.05-.142,1.38,1.38,0,0,1-.123-.516.519.519,0,0,1,.217-.372.715.715,0,0,1,.482-.189.574.574,0,0,1,.3.1q.164.1.164.2a2.034,2.034,0,0,1-.112.511.764.764,0,0,1-.356.486A.92.92,0,0,1,122.251-14.777Zm-.6,5.1a3.653,3.653,0,0,0,.1.781.654.654,0,0,1,.018.137q0,.082-.151.212a.482.482,0,0,1-.32.13q-.443,0-.443-.813a15.943,15.943,0,0,1,.347-2.657,6.392,6.392,0,0,0,.119-.781,1.058,1.058,0,0,1,.105-.491.325.325,0,0,1,.3-.2.558.558,0,0,1,.368.112.322.322,0,0,1,.135.249,1.385,1.385,0,0,1-.064.361,17,17,0,0,0-.425,1.726A8.055,8.055,0,0,0,121.653-9.677Zm4.94-2.5a.76.76,0,0,0-.518.31,8.2,8.2,0,0,0-.856,1.393,9.209,9.209,0,0,1-.979,1.653.621.621,0,0,1-.368.2.468.468,0,0,1-.539-.52,3.735,3.735,0,0,1,.073-.621,16.216,16.216,0,0,0,.251-2.908.694.694,0,0,1,.148-.386q.148-.212.281-.212a.38.38,0,0,1,.338.146,1.156,1.156,0,0,1,.1.589,13.044,13.044,0,0,1-.274,1.9,4.439,4.439,0,0,0-.091.6q0,.073.037.073a5.248,5.248,0,0,0,.635-1.091,7.125,7.125,0,0,1,1-1.561,1.285,1.285,0,0,1,.945-.452.781.781,0,0,1,.669.374,3.273,3.273,0,0,1,.377,1.365,8.17,8.17,0,0,0,.231,1.4q.1.276.326.276a.885.885,0,0,0,.356-.1.14.14,0,0,1,.055-.018q.2,0,.2.228a.606.606,0,0,1-.269.427.976.976,0,0,1-.648.226.687.687,0,0,1-.6-.308,4.441,4.441,0,0,1-.336-1.646Q127-12.174,126.593-12.174Z" transform="translate(22.998 36.899)" fill="#fff"></path></g></g></svg>