<svg xmlns="http://www.w3.org/2000/svg" xmlns:xlink="http://www.w3.org/1999/xlink" width="204" height="204" viewBox="0 0 204 204"><defs><style>.a{fill:#f1f4f8;}.b{opacity:0;}.b,.c{fill:url(#a);}</style><linearGradient id="a" x1="0.5" x2="0.5" y2="1" gradientUnits="objectBoundingBox"><stop offset="0" stop-color="#571c56"></stop><stop offset="0.47" stop-color="#e5153f"></stop><stop offset="1" stop-color="#fcd000"></stop></linearGradient></defs><g transform="translate(-2285 561)"><circle class="a" cx="102" cy="102" r="102" transform="translate(2285 -561)"></circle><g transform="translate(-1438 223)"><rect class="b" width="116" height="116" transform="translate(3767 -740)"></rect><path class="c" d="M31.887,115.438a2.821,2.821,0,0,1-2.818-2.818v-3.656a6.185,6.185,0,0,1,6.179-6.177h5.1V96.721H24.091a1.691,1.691,0,0,1,0-3.382H60.334V89.1a3.33,3.33,0,0,1,3.326-3.326H65V82.863H3.382v6.415a4.066,4.066,0,0,0,4.063,4.061h6.364a1.691,1.691,0,0,1,0,3.382H7.445A7.452,7.452,0,0,1,0,89.279V7.445A7.454,7.454,0,0,1,7.445,0H108.12a7.451,7.451,0,0,1,7.443,7.443l-.129,81.836a7.453,7.453,0,0,1-5.76,7.249v.8a3.328,3.328,0,0,1-3.326,3.326H75.081v2.139h5.107a6.183,6.183,0,0,1,6.177,6.177v3.656a2.821,2.821,0,0,1-2.818,2.818Zm.564-6.474v3.092H82.983v-3.092a2.8,2.8,0,0,0-2.795-2.795H35.246A2.8,2.8,0,0,0,32.451,108.965Zm11.284-6.177H71.7v-2.139h-8.04a3.328,3.328,0,0,1-3.326-3.326v-.6h-16.6Zm19.981-5.521h42.576V89.162H63.716Zm41.291-11.49h1.341a3.33,3.33,0,0,1,3.326,3.326V92.97a4.061,4.061,0,0,0,2.378-3.691V82.863h-7.045Zm-36.624,0h33.242v-3.56H68.383Zm36.624-18.431h1.341a3.33,3.33,0,0,1,3.326,3.326s-.021,8.618-.054,8.81h2.432V23.007H3.382V79.481H60.39c-.035-.192-.056-8.81-.056-8.81a3.33,3.33,0,0,1,3.326-3.326H65V63.788H63.659a3.33,3.33,0,0,1-3.326-3.328V52.24a3.33,3.33,0,0,1,3.326-3.326H86.271a1.692,1.692,0,1,1,0,3.384H63.716V60.4h42.576V52.3h-9.5a1.692,1.692,0,0,1,0-3.384h9.554a3.33,3.33,0,0,1,3.326,3.326v8.22a3.33,3.33,0,0,1-3.326,3.328h-1.341ZM63.716,78.835h42.576V70.73H63.716Zm4.667-11.49h33.242V63.788H68.383ZM3.506,7.443v12.18H112.052V7.445a4.066,4.066,0,0,0-4.061-4.063H7.569A4.068,4.068,0,0,0,3.506,7.443ZM90.39,94.905a1.691,1.691,0,1,1,0-3.382h11.49a1.691,1.691,0,1,1,0,3.382Zm-8.379,0a1.691,1.691,0,1,1,0-3.382h2.633a1.691,1.691,0,1,1,0,3.382Zm-13.884,0a1.691,1.691,0,0,1,0-3.382h8.14a1.691,1.691,0,0,1,0,3.382ZM90.39,76.474a1.691,1.691,0,1,1,0-3.382h11.487a1.691,1.691,0,1,1,0,3.382Zm-8.379,0a1.691,1.691,0,0,1,0-3.382h2.633a1.691,1.691,0,1,1,0,3.382Zm-13.884,0a1.691,1.691,0,0,1,0-3.382h8.14a1.691,1.691,0,0,1,0,3.382ZM41.256,66.73a1.691,1.691,0,1,1,0-3.382H56.139a1.691,1.691,0,1,1,0,3.382Zm-17.163,0a1.691,1.691,0,1,1,0-3.382H35.487a1.691,1.691,0,0,1,0,3.382Zm-13.935,0a1.691,1.691,0,0,1,0-3.382h8.753a1.691,1.691,0,1,1,0,3.382Zm39.768-7.073a1.691,1.691,0,0,1,0-3.382h5.538a1.691,1.691,0,1,1,0,3.382Zm-8.318,0a1.691,1.691,0,1,1,0-3.382h2.956a1.691,1.691,0,1,1,0,3.382Zm-20.66,0a1.691,1.691,0,1,1,0-3.382H35.466a1.691,1.691,0,0,1,0,3.382Zm-10.79,0a1.691,1.691,0,0,1,0-3.382h4.854a1.691,1.691,0,1,1,0,3.382ZM90.39,58.042a1.691,1.691,0,1,1,0-3.382h11.487a1.691,1.691,0,1,1,0,3.382Zm-8.379,0a1.691,1.691,0,1,1,0-3.382h2.633a1.691,1.691,0,1,1,0,3.382Zm-13.884,0a1.691,1.691,0,0,1,0-3.382h8.14a1.691,1.691,0,0,1,0,3.382ZM27.763,52.523a1.691,1.691,0,0,1,0-3.382H47.8a1.691,1.691,0,1,1,0,3.382Zm-17.605,0a1.691,1.691,0,0,1,0-3.382h11.4a1.691,1.691,0,0,1,0,3.382ZM67.189,44.4a1.691,1.691,0,1,1,0-3.382H81.623a1.691,1.691,0,0,1,0,3.382Zm-10.373,0a1.691,1.691,0,1,1,0-3.382h4.96a1.691,1.691,0,1,1,0,3.382Zm-17.793,0a1.691,1.691,0,0,1,0-3.382H51.178a1.691,1.691,0,1,1,0,3.382Zm-13.037-2.3a1.69,1.69,0,0,1,0-2.392l4.108-4.108L25.987,31.5a1.691,1.691,0,1,1,2.39-2.392l5.3,5.3a1.692,1.692,0,0,1,0,2.392l-5.3,5.3a1.687,1.687,0,0,1-2.39,0Zm-7.665.379a1.693,1.693,0,0,1-.955-2.193l4.166-10.607a1.691,1.691,0,0,1,3.148,1.238l-4.166,10.6A1.691,1.691,0,0,1,18.939,42.6,1.741,1.741,0,0,1,18.321,42.485Zm-5.013-.379L8,36.8A1.7,1.7,0,0,1,8,34.41l5.3-5.3A1.691,1.691,0,1,1,15.7,31.5l-4.108,4.105L15.7,39.714a1.691,1.691,0,1,1-2.392,2.392Zm38.1-5.142a1.691,1.691,0,1,1,0-3.382h35.63a1.691,1.691,0,0,1,0,3.382Zm-12.381,0a1.691,1.691,0,0,1,0-3.382h5.84a1.691,1.691,0,1,1,0,3.382Zm-6.24-25.509a4.963,4.963,0,1,1,4.962,4.964A4.967,4.967,0,0,1,32.783,11.454Zm3.382,0a1.581,1.581,0,1,0,1.58-1.58A1.583,1.583,0,0,0,36.166,11.454Zm-16.018,0a4.963,4.963,0,1,1,4.964,4.964A4.968,4.968,0,0,1,20.147,11.454Zm3.382,0a1.581,1.581,0,1,0,1.582-1.58A1.583,1.583,0,0,0,23.529,11.454Zm-16.018,0a4.963,4.963,0,1,1,4.962,4.964A4.967,4.967,0,0,1,7.511,11.454Zm3.382,0a1.581,1.581,0,1,0,1.58-1.58A1.583,1.583,0,0,0,10.893,11.454Z" transform="translate(3767.438 -739.524)"></path></g></g></svg>