<svg xmlns="http://www.w3.org/2000/svg" xmlns:xlink="http://www.w3.org/1999/xlink" width="204" height="204" viewBox="0 0 204 204"><defs><linearGradient id="a" x1="0.374" y1="1.077" x2="0.473" y2="-0.136" gradientUnits="objectBoundingBox"><stop offset="0" stop-color="#571c56"></stop><stop offset="0.47" stop-color="#fc1141"></stop><stop offset="1" stop-color="#fcd000"></stop></linearGradient></defs><g transform="translate(3129 5836)"><circle cx="102" cy="102" r="102" transform="translate(-3129 -5836)" fill="#f1f4f8"></circle><g transform="translate(-3091.9 -5798.9)"><path d="M3395.7,5955.8a9.269,9.269,0,0,1,6.879-10.145v-5.1a34.625,34.625,0,0,1-20.541-8.517l-3.95,3.95a9.371,9.371,0,1,1-3.276-3.278l3.95-3.95a34.62,34.62,0,0,1-8.516-20.541h-5.1a9.271,9.271,0,1,1,0-4.636h5.1a34.619,34.619,0,0,1,8.516-20.54l-3.95-3.95a9.375,9.375,0,1,1,3.276-3.278l3.95,3.95a34.625,34.625,0,0,1,20.541-8.517v-5.1a9.272,9.272,0,1,1,4.635,0v5.1a34.616,34.616,0,0,1,20.522,8.517l3.95-3.95a9.374,9.374,0,1,1,3.278,3.278l-3.95,3.95a34.621,34.621,0,0,1,8.517,20.54h5.1a9.3,9.3,0,1,1,.018,4.636h-5.1a34.768,34.768,0,0,1-32.334,32.335v5.1A9.271,9.271,0,1,1,3395.7,5955.8Zm4.561-1.221a4.636,4.636,0,1,0,4.637-4.637A4.636,4.636,0,0,0,3400.264,5954.575Zm-34.768-13.908a4.636,4.636,0,1,0,4.635-4.635A4.636,4.636,0,0,0,3365.5,5940.667Zm9.272-34.768a30.132,30.132,0,1,0,30.132-30.132A30.133,30.133,0,0,0,3374.768,5905.9Zm74.171,0a4.635,4.635,0,1,0,4.635-4.635A4.635,4.635,0,0,0,3448.939,5905.9Zm-97.35,0a4.635,4.635,0,1,0,4.635-4.635A4.634,4.634,0,0,0,3351.59,5905.9Zm83.442-34.768a4.636,4.636,0,1,0,4.637-4.635A4.636,4.636,0,0,0,3435.032,5871.132Zm-69.536,0a4.636,4.636,0,1,0,4.635-4.635A4.636,4.636,0,0,0,3365.5,5871.132Zm34.768-13.908a4.636,4.636,0,1,0,4.637-4.635A4.637,4.637,0,0,0,3400.264,5857.224Zm30.132,83.443a9.272,9.272,0,1,1,9.272,9.271A9.272,9.272,0,0,1,3430.4,5940.667Zm4.635,0a4.636,4.636,0,1,0,4.637-4.635A4.636,4.636,0,0,0,3435.032,5940.667ZM3379.4,5905.9a25.5,25.5,0,1,1,25.5,25.5A25.5,25.5,0,0,1,3379.4,5905.9Zm4.635,0a20.861,20.861,0,1,0,20.862-20.86A20.86,20.86,0,0,0,3384.039,5905.9Zm18.543,13.908v-1.16h-4.635a2.318,2.318,0,1,1,0-4.636h8.692a2.9,2.9,0,1,0,0-5.795h-3.477a7.514,7.514,0,0,1-.579-15v-1.219a2.318,2.318,0,1,1,4.635,0v1.159h4.635a2.318,2.318,0,1,1,0,4.635h-8.691a2.9,2.9,0,1,0,0,5.794h3.477a7.515,7.515,0,0,1,.579,15.006v1.22a2.318,2.318,0,0,1-4.635,0Z" transform="translate(-3340 -5841)" fill="url(#a)"></path></g></g></svg>