<svg xmlns="http://www.w3.org/2000/svg" width="210.01" height="150" viewBox="0 0 210.01 150"><defs><style>.a{fill:#3b2c2c;opacity:0;}.b{fill:#bb8ca8;}</style></defs><g transform="translate(0.01)"><rect class="a" width="210" height="150" transform="translate(-0.01)"/><g transform="translate(0.001 59)"><path class="b" d="M12.869,11.008s-1.738-.173-1.738,1.376v6.879H22.608v2.065a.987.987,0,0,1-1.043,1.032H11.131V31.3H23.652s7.581-1.17,7.651-8.944V11.008ZM30.954,0H8.348C.173,1.926,0,8.634,0,8.634V31.3H8.7V10.664A2.12,2.12,0,0,1,10.434,8.6H30.956V0ZM60.8,24.816c-.6.4-1.037.69-1.349.876a24.138,24.138,0,0,1-3.163,1.647,10.247,10.247,0,0,1-3.838.876A13.834,13.834,0,0,1,42.671,24.6a11.844,11.844,0,0,1-3.914-9.111A13.219,13.219,0,0,1,42.283,6.3a11.129,11.129,0,0,1,8.585-3.879,14.436,14.436,0,0,1,4.46.745,12.34,12.34,0,0,1,4.953,2.841L58.024,8.5a8.706,8.706,0,0,0-3.657-2.045,12.739,12.739,0,0,0-3.6-.477,7.469,7.469,0,0,0-5.939,2.841A10.351,10.351,0,0,0,42.44,15.65a8.579,8.579,0,0,0,2.722,6.51,9.653,9.653,0,0,0,6.924,2.6,7.072,7.072,0,0,0,3.579-1.088c1.012-.771,1.531-1.143,1.556-1.17V17.059H49.648l1.088-3.4H60.8Zm22.874-6.642A9.45,9.45,0,0,1,80.873,25a9.51,9.51,0,0,1-13.615.054A9.227,9.227,0,0,1,64.4,18.2a9.833,9.833,0,0,1,2.723-6.908,8.709,8.709,0,0,1,6.665-2.922,9.56,9.56,0,0,1,9.881,9.8Zm-3.554.054a6.232,6.232,0,0,0-1.789-4.517,5.873,5.873,0,0,0-4.435-1.86,5.513,5.513,0,0,0-4.227,1.914,6.289,6.289,0,0,0-1.738,4.382,6.154,6.154,0,0,0,1.763,4.411,5.818,5.818,0,0,0,4.382,1.859,5.7,5.7,0,0,0,4.229-1.833,5.964,5.964,0,0,0,1.816-4.356Zm26.116-.054a9.45,9.45,0,0,1-2.8,6.827,9.51,9.51,0,0,1-13.615.054A9.233,9.233,0,0,1,86.966,18.2a9.833,9.833,0,0,1,2.723-6.908,8.711,8.711,0,0,1,6.665-2.922,9.56,9.56,0,0,1,9.881,9.8Zm-3.554.054a6.232,6.232,0,0,0-1.789-4.517,5.873,5.873,0,0,0-4.435-1.86,5.513,5.513,0,0,0-4.227,1.914,6.289,6.289,0,0,0-1.738,4.382,6.15,6.15,0,0,0,1.765,4.411,5.814,5.814,0,0,0,4.382,1.859,5.7,5.7,0,0,0,4.227-1.833,5.964,5.964,0,0,0,1.816-4.356Zm24.431,9.138-3.267.505V24.709l-.7.8a8.584,8.584,0,0,1-2.075,1.435,8.384,8.384,0,0,1-3.552.771,8.546,8.546,0,0,1-6.484-2.817,9.491,9.491,0,0,1-2.644-6.72,9.94,9.94,0,0,1,2.619-6.908A8.3,8.3,0,0,1,117.414,8.4a9.191,9.191,0,0,1,3.786.717,6.425,6.425,0,0,1,1.945,1.356c.182.239.364.5.546.742V2.925l3.473-.505Zm-3.06-8.953a6.393,6.393,0,0,0-1.893-4.7,5.858,5.858,0,0,0-4.33-1.939,5.639,5.639,0,0,0-4.382,1.833,6.24,6.24,0,0,0-1.583,4.277,6.776,6.776,0,0,0,1.634,4.675,5.3,5.3,0,0,0,4.15,1.833,6.448,6.448,0,0,0,4.409-1.7,5.529,5.529,0,0,0,2-4.278Zm21.4-12.032h-9.725v6.614h7.546v3.4h-7.546V27.34l-3.786.557V2.951H144.7Zm7.806-1.941L150.92,7.388l-2.23-2.948,2.36-2.922Zm-.7,22.926-3.475.478V9.381l3.475-.531V27.366Zm15.69-18.7-1.634,3.771a4.578,4.578,0,0,0-.648-.052,6.63,6.63,0,0,0-1.012.079,3.981,3.981,0,0,0-1.088.373,4.242,4.242,0,0,0-1.893,2.045,8.273,8.273,0,0,0-.909,3.8V27.34l-3.473.557V9.381L160.8,8.8v3.852c.414-.665.856-1.328,1.27-2.018a5.141,5.141,0,0,1,2.075-1.489,16.324,16.324,0,0,1,4.1-.477Zm25.88,18.7-3.475.505V15.2a3.545,3.545,0,0,0-.778-2.55,3.1,3.1,0,0,0-2.309-.8,3.062,3.062,0,0,0-2.774,1.514,4.234,4.234,0,0,0-.648,2.178v11.8l-3.475.638v-12.7a3.852,3.852,0,0,0-.753-2.549,2.609,2.609,0,0,0-2.075-.878H177.5a2.762,2.762,0,0,0-2.646,1.541,6.19,6.19,0,0,0-.622,2.948v11l-3.6.638V9.381l3.241-.557v2.364a7.323,7.323,0,0,1,1.064-1.328,4.594,4.594,0,0,1,3.241-1.3,5.7,5.7,0,0,1,3.086.665A5.72,5.72,0,0,1,183,11.4a5.7,5.7,0,0,1,5.11-2.843,5.588,5.588,0,0,1,4.745,2.02,7.986,7.986,0,0,1,1.271,4.915ZM210,21.76a5.444,5.444,0,0,1-1.789,4.2A6.333,6.333,0,0,1,203.7,27.6a7.29,7.29,0,0,1-3.709-.957,6.935,6.935,0,0,1-2.489-2.2l2.439-2.178a4.8,4.8,0,0,0,.492.636,4.42,4.42,0,0,0,3.267,1.409,2.975,2.975,0,0,0,2.075-.69,2.387,2.387,0,0,0,.753-1.914q0-1.393-1.789-1.912-3.542-1.075-3.813-1.2a6.6,6.6,0,0,1-2.361-1.807,5.2,5.2,0,0,1-.829-3.081A5.174,5.174,0,0,1,199.5,9.726a5.98,5.98,0,0,1,4.174-1.568,7.061,7.061,0,0,1,3.4.824,5.8,5.8,0,0,1,2.23,1.833l-2.075,2.257a7.616,7.616,0,0,0-1.011-.85,4.2,4.2,0,0,0-2.385-.876,3.116,3.116,0,0,0-1.79.477,2.046,2.046,0,0,0-.83,1.754,1.806,1.806,0,0,0,.8,1.647,11.169,11.169,0,0,0,3.008.955,7.088,7.088,0,0,1,3.6,1.914A4.864,4.864,0,0,1,210,21.76Z"/></g></g></svg>