<svg xmlns="http://www.w3.org/2000/svg" xmlns:xlink="http://www.w3.org/1999/xlink" width="204" height="204" viewBox="0 0 204 204"><defs><style>.a{opacity:0.05;fill:url(#a);}.b{fill:#fff;stroke:#707070;opacity:0;}.c{fill:url(#b);}.d{fill:url(#c);}.e{fill:url(#d);}.f{fill:url(#e);}.g{fill:url(#f);}.h{fill:url(#g);}.i{fill:url(#h);}.j{fill:url(#l);}.k{fill:url(#m);}.l{fill:url(#n);}.m{fill:#fff;}.n{stroke:none;}.o{fill:none;}</style><linearGradient id="a" x1="0.5" x2="0.5" y2="1" gradientUnits="objectBoundingBox"><stop offset="0" stop-color="#fff"/><stop offset="0.47" stop-color="#fff"/><stop offset="1" stop-color="#fff"/></linearGradient><linearGradient id="b" x1="0.88" y1="0.021" x2="0.206" y2="0.959" xlink:href="#a"/><linearGradient id="c" x1="0.88" y1="0.021" x2="-1.746" y2="2.806" xlink:href="#a"/><linearGradient id="d" x1="0.88" y1="0.021" x2="-0.656" y2="3.749" xlink:href="#a"/><linearGradient id="e" x1="1.67" y1="-2.443" x2="0.206" y2="0.959" xlink:href="#a"/><linearGradient id="f" x1="1.458" y1="-0.629" x2="-0.429" y2="1.185" xlink:href="#a"/><linearGradient id="g" x1="5.456" y1="-3.967" x2="0.206" y2="0.959" xlink:href="#a"/><linearGradient id="h" x1="4.107" y1="-21.22" x2="-1.607" y2="8.445" xlink:href="#a"/><linearGradient id="l" x1="0.88" y1="0.021" x2="-5.105" y2="1.817" xlink:href="#a"/><linearGradient id="m" x1="0.88" y1="0.021" x2="-2.403" y2="2.977" xlink:href="#a"/><linearGradient id="n" x1="3.945" y1="-1.168" x2="0.206" y2="0.959" xlink:href="#a"/></defs><g transform="translate(-298 -1856)"><path class="a" d="M102,0A102,102,0,1,1,0,102,102,102,0,0,1,102,0Z" transform="translate(298 1856)"/><g transform="translate(14865.393 4775.393)"><g class="b" transform="translate(-14534.393 -2886.393)"><rect class="n" width="130" height="130"/><rect class="o" x="0.5" y="0.5" width="129" height="129"/></g><g transform="translate(-14534 -2886)"><path class="c" d="M130.214,67.691a29.215,29.215,0,0,0-22.925-28.485V11.42A10.432,10.432,0,0,0,96.869,1H42.682a10.432,10.432,0,0,0-10.42,10.42V34.346H20.213l-1.257,5.035-4.447-2.67L3.363,47.851,6.033,52.3,1,53.559v15.76l5.035,1.257L3.363,75.027,14.507,86.169l4.447-2.67,1.259,5.033H32.261v31.261a10.432,10.432,0,0,0,10.42,10.42H96.869a10.432,10.432,0,0,0,10.42-10.42V96.177A29.215,29.215,0,0,0,130.214,67.691Zm-4.168,0a24.823,24.823,0,0,1-2.72,11.283,10.4,10.4,0,0,0-7.257-6.546l-8.78-2.2v-.5a10.431,10.431,0,0,0,4.168-8.293V57.273a10.421,10.421,0,0,0-11.346-10.381,10.72,10.72,0,0,0-9.5,10.81v3.737a10.432,10.432,0,0,0,4.168,8.293v.5L86,72.426a10.4,10.4,0,0,0-7.257,6.546,25,25,0,1,1,47.3-11.281ZM94.784,39.206a28.937,28.937,0,0,0-4.168,1.265V34.346H48.934V63.523H72.193A28.895,28.895,0,0,0,94.784,96.177v4.86H44.766V30.177H94.784Zm-21.7,20.149H53.1V38.514H86.448v3.947A29.279,29.279,0,0,0,73.089,59.355ZM42.682,5.168H96.869a6.26,6.26,0,0,1,6.252,6.252v6.252H36.43V11.42A6.26,6.26,0,0,1,42.682,5.168Zm-10.42,65.8a10.421,10.421,0,1,1,0-19.057Zm-8.793,13.4L22.454,80.3l-.423-1.115-2.38-.967-4.5,2.7-6.54-6.542,2.7-4.5-1.042-2.543-5.1-1.273V56.814l5.1-1.273L11.314,53l-2.7-4.5,6.54-6.542,4.5,2.7,2.543-1.034,1.275-5.11h8.793v8.972a14.589,14.589,0,1,0,0,27.906v8.972Zm73.4,41.682H42.682a6.26,6.26,0,0,1-6.252-6.252v-6.252h66.691v6.252A6.26,6.26,0,0,1,96.869,126.046Zm6.252-16.673H36.43V21.841h66.691V38.62c-.692-.05-1.38-.106-2.084-.106s-1.392.056-2.084.106V26.009H40.6v79.2H98.953V96.762c.692.05,1.38.106,2.084.106s1.392-.056,2.084-.106ZM101.037,92.7A24.938,24.938,0,0,1,82.28,84.178V82.536a6.247,6.247,0,0,1,4.735-6.067l11.938-2.982V67.42l-1.036-.6a6.185,6.185,0,0,1-3.132-5.379V57.7a6.531,6.531,0,0,1,5.687-6.659,6.252,6.252,0,0,1,6.817,6.227v4.168a6.185,6.185,0,0,1-3.132,5.379l-1.036.6v6.067l11.938,2.982a6.247,6.247,0,0,1,4.735,6.067v1.642A24.938,24.938,0,0,1,101.037,92.7Z" transform="translate(-1 -1)"/><path class="d" d="M38,5h4.233V9.233H38Z" transform="translate(39.072 3.465)"/><path class="e" d="M28,5H44.931V9.233H28Z" transform="translate(28.142 3.465)"/><path class="f" d="M30,57H46.931v4.233H30Z" transform="translate(30.3 59.516)"/><path class="g" d="M44,57h4.233v4.233H44Z" transform="translate(45.57 59.516)"/><path class="h" d="M22,57h4.233v4.233H22Z" transform="translate(21.743 59.516)"/><path class="i" d="M24,33H43.047v4.233H24Z" transform="translate(23.808 33.657)"/><path class="i" d="M24,37H43.047v4.233H24Z" transform="translate(23.808 37.989)"/><path class="i" d="M24,41H43.047v4.233H24Z" transform="translate(23.808 42.321)"/><path class="i" d="M24,45H43.047v4.233H24Z" transform="translate(23.808 46.653)"/><path class="j" d="M60.349,34.629A6.334,6.334,0,0,0,62.465,22.32V5H58.233V22.32a6.334,6.334,0,0,0,2.116,12.309Zm0-8.465a2.116,2.116,0,1,1-2.116,2.116A2.118,2.118,0,0,1,60.349,26.164Z" transform="translate(56.167 3.465)"/><path class="k" d="M56,1h4.233V5.233H56Z" transform="translate(58.4 -1)"/><path class="l" d="M14.349,45a6.334,6.334,0,0,0-2.116,12.309v17.32h4.233V57.309A6.334,6.334,0,0,0,14.349,45Zm0,8.465a2.116,2.116,0,1,1,2.116-2.116A2.118,2.118,0,0,1,14.349,53.465Z" transform="translate(6.814 46.12)"/><path class="m" d="M10,61h4.233v4.233H10Z" transform="translate(9.047 63.981)"/></g></g></g></svg>