<svg xmlns="http://www.w3.org/2000/svg" xmlns:xlink="http://www.w3.org/1999/xlink" width="204" height="204" viewBox="0 0 204 204"><defs><style>.a{opacity:0.05;}.a,.c{fill:url(#a);}.b{fill:#fff;stroke:#707070;opacity:0;}.d{fill:#ee1142;}.e{fill:#fc9912;}.f{stroke:none;}.g{fill:none;}</style><linearGradient id="a" x1="0.5" x2="0.5" y2="1" gradientUnits="objectBoundingBox"><stop offset="0" stop-color="#571c56"/><stop offset="0.47" stop-color="#fc1141"/><stop offset="1" stop-color="#fcd000"/></linearGradient></defs><g transform="translate(-1418 -1826)"><circle class="a" cx="102" cy="102" r="102" transform="translate(1418 1826)"/><g transform="translate(15645.504 4907.503)"><g class="b" transform="translate(-14190.504 -3040.503)"><rect class="f" width="130" height="130"/><rect class="g" x="0.5" y="0.5" width="129" height="129"/></g><g transform="translate(-14190.022 -3040.022)"><path class="c" d="M126.517,0H111.53a2.52,2.52,0,0,0-2.52,2.52V7.5H74.533V2.52A2.52,2.52,0,0,0,72.012,0H57.025A2.52,2.52,0,0,0,54.5,2.52V7.5H20.028V2.52A2.52,2.52,0,0,0,17.508,0H2.52A2.52,2.52,0,0,0,0,2.52v15a2.52,2.52,0,0,0,2.52,2.52H17.508a2.52,2.52,0,0,0,2.52-2.52v-4.98H40.993A57.056,57.056,0,0,0,7.487,64.519a2.52,2.52,0,0,0,5.041,0A52.255,52.255,0,0,1,54.5,13.478v4.044a2.52,2.52,0,0,0,2.52,2.52H72.013a2.52,2.52,0,0,0,2.52-2.52V13.489a51.885,51.885,0,0,1,41.044,41.488,2.52,2.52,0,1,0,4.956-.919,57.206,57.206,0,0,0-32.5-41.517h20.981v4.98a2.52,2.52,0,0,0,2.52,2.52h14.988a2.52,2.52,0,0,0,2.52-2.52v-15A2.52,2.52,0,0,0,126.517,0ZM14.987,15H5.04V5.041h9.947Zm54.5,0H59.545V5.041h9.947ZM124,15H114.05V5.041H124Zm0,0" transform="translate(0)"/><path class="d" d="M464.571,245.5h-.008a2.519,2.519,0,0,0-2.512,2.527v.119a2.52,2.52,0,1,0,5.041,0v-.133a2.521,2.521,0,0,0-2.52-2.513Zm0,0" transform="translate(-345.601 -183.627)"/><path class="c" d="M203.033,139.121A96.743,96.743,0,0,1,182.891,95.08a2.521,2.521,0,0,0-4.964,0,96.743,96.743,0,0,1-20.142,44.041l-2.281,2.807a2.52,2.52,0,0,0-.324,2.666l10.362,21.941h-1.1a7.851,7.851,0,0,0-7.841,7.842v21.7a2.52,2.52,0,0,0,2.52,2.52h42.569a2.52,2.52,0,0,0,2.52-2.52v-21.7a7.851,7.851,0,0,0-7.841-7.842h-1.1l10.362-21.941a2.522,2.522,0,0,0-.324-2.666Zm-22.624,2.488a3.865,3.865,0,1,1-3.865,3.865A3.87,3.87,0,0,1,180.409,141.609Zm18.764,32.769v19.182H161.645v-8.471H178.9a2.52,2.52,0,1,0,0-5.041H161.645v-5.67a2.8,2.8,0,0,1,2.8-2.8h31.927a2.8,2.8,0,0,1,2.8,2.8Zm-9.471-7.842H171.115l-10.7-22.659L161.7,142.3a101.757,101.757,0,0,0,16.193-28.177v22.492a2.509,2.509,0,0,0,.022.312,8.906,8.906,0,1,0,5,0,2.509,2.509,0,0,0,.022-.312V114.124A101.759,101.759,0,0,0,199.122,142.3l1.281,1.575Zm0,0" transform="translate(-115.89 -69.562)"/><path class="e" d="M285.739,439.129a2.519,2.519,0,1,0,1.782-.738A2.535,2.535,0,0,0,285.739,439.129Zm0,0" transform="translate(-213.172 -327.904)"/></g></g></g></svg>