<svg xmlns="http://www.w3.org/2000/svg" xmlns:xlink="http://www.w3.org/1999/xlink" width="204" height="204" viewBox="0 0 204 204"><defs><style>.a{fill:#409143;opacity:0.2;}.b{fill:#fff;opacity:0;}.c{fill:#c2bfbf;}.d{clip-path:url(#a);}.e{fill:url(#b);}.f{clip-path:url(#c);}.g{fill:url(#d);}.h{fill:#69b654;}.i{fill:#47474a;}</style><clipPath id="a"><path d="M62.529,261.455s-.657,6.284.986,7.039A15.043,15.043,0,0,0,69.2,253.449c-1.682-7.387-5.627-9.8-6.052-10.732A11.929,11.929,0,0,1,62.2,240.9Z" transform="translate(-62.2 -240.9)"></path></clipPath><linearGradient id="b" x1="-0.143" y1="3.117" x2="-0.108" y2="3.117" gradientUnits="objectBoundingBox"><stop offset="0" stop-color="#49a547"></stop><stop offset="1" stop-color="#409143"></stop></linearGradient><clipPath id="c"><path d="M32.2,241.966c-.967.754-5.878,4.873-6.284,13.265-.019.232-.019.464-.019.677,0,7.967,6.574,12.453,6.574,12.453.483-1.122.986-6.594.812-12.511-.039-1.528.019-14.522-.406-15.45a1.87,1.87,0,0,1-.677,1.566" transform="translate(-25.9 -240.4)"></path></clipPath><linearGradient id="d" x1="0.32" y1="3.186" x2="0.353" y2="3.186" gradientUnits="objectBoundingBox"><stop offset="0" stop-color="#42a347"></stop><stop offset="0.329" stop-color="#4aa74a"></stop><stop offset="0.848" stop-color="#61b251"></stop><stop offset="1" stop-color="#69b654"></stop></linearGradient></defs><g transform="translate(7120 -529)"><circle class="a" cx="102" cy="102" r="102" transform="translate(-7120 529)"></circle><g transform="translate(538 384)"><rect class="b" width="116" height="116" transform="translate(-7614 189)"></rect><g transform="translate(-7639.9 -9.4)"><g transform="translate(31.117 244.403)"><path class="c" d="M54.179,261.1c-1.334.348-1.624,22.16-.947,22.933,1.566.309,1.45,4.621,1.45,4.621l.851.29a15.56,15.56,0,0,1,.077-3.345,3.179,3.179,0,0,1,1.528-1.74c-1.238-16.784-2.2-22.585-2.881-22.759Z" transform="translate(-52.879 -261.1)"></path></g><g transform="translate(32.919 240.497)"><g class="d" transform="translate(0)"><path class="e" d="M40.747,233.6l7.193,27.9L32.393,264l-7.193-27.9Z" transform="translate(-32.355 -235.012)"></path></g></g><g transform="translate(25.9 240.4)"><g class="f" transform="translate(0 0)"><path class="g" d="M-19.1,235.677-3.341,232.1l9.224,27.574-15.74,3.577Z" transform="translate(10.399 -233.705)"></path></g></g><g transform="translate(46.047 251.306)"><path class="h" d="M476.5,296.8c.406,0,1.914.077,2.61.077,1.315,0,2.224-.077,4.679-.077a7.491,7.491,0,0,1,5.028,1.644,6.878,6.878,0,0,1,2.3,5.356,6.988,6.988,0,0,1-2.862,6.014,9.335,9.335,0,0,1-5.917,1.682c-1.412,0-3.809-.039-5.82-.077H476.5c-.1-.193.174-.909.329-.928a2.617,2.617,0,0,0,.947-.193c.425-.174.522-.387.58-1.16.077-1.45.039-3.191.039-5.144,0-1.412.019-4.138-.019-5.008-.077-.715-.367-.909-.986-1.044-.309-.077-.735-.135-1.315-.213-.058-.155.309-.793.425-.928m4.66,13.013a4.04,4.04,0,0,0,2.34.561,4.545,4.545,0,0,0,3.307-1.2,6.367,6.367,0,0,0,1.856-5.008,6.028,6.028,0,0,0-2.707-5.414,7.151,7.151,0,0,0-3.887-.909,3.172,3.172,0,0,0-1.141.135.548.548,0,0,0-.213.329c-.039.425-.039,3.635-.039,5.53,0,1.934,0,4.66.039,4.989a1.4,1.4,0,0,0,.445.986" transform="translate(-409.168 -296.8)"></path><path class="h" d="M562.341,296.8c.213,0,.831.077,2.417.077,1.489,0,2.707-.039,4.157-.039,1.8,0,4.273.657,4.273,3.365a3.246,3.246,0,0,1-2.146,2.92c-.077.019-.077.077,0,.1,1.74.445,3.249,1.528,3.249,3.577,0,2.011-1.238,3.268-3.036,4.08a9.717,9.717,0,0,1-3.829.657c-1.044,0-3.867-.116-5.434-.1-.174-.077.155-.812.29-.928a4.351,4.351,0,0,0,1.063-.174c.561-.135.619-.329.7-1.16.039-.735.039-3.326.039-5.163,0-2.533.019-4.235,0-5.086-.019-.657-.251-.87-.7-.986-.348-.077-.928-.135-1.411-.213-.1-.135.251-.831.367-.928m9.552,10.5c0-2.05-1.489-3.229-4.235-3.229-.116,0-.986-.019-1.2.019-.077.019-.135.077-.135.116,0,1.47-.019,3.829.039,4.776a1.521,1.521,0,0,0,.677,1.122,4.6,4.6,0,0,0,1.8.251,2.808,2.808,0,0,0,3.055-3.055m-5.318-9.359c-.1.019-.213.251-.213.367-.019.851-.039,3.036-.039,4.563a.174.174,0,0,0,.116.116c.309.019,1.044.039,1.682.039a4.037,4.037,0,0,0,1.682-.251,2.21,2.21,0,0,0,1.1-2.088c0-2.03-1.412-2.8-3.481-2.8-.155.019-.541.019-.851.058" transform="translate(-478.438 -296.8)"></path><path class="i" d="M130.3,331.884a1.111,1.111,0,0,1-.077-.464.458.458,0,0,1,.077-.309,5.943,5.943,0,0,0,.889-.193c.406-.1.561-.329.6-.87.077-1.257.077-3.635.039-5.3v-.058a.706.706,0,0,0-.213-.6,5.732,5.732,0,0,0-1.238-.561c-.193-.058-.309-.155-.29-.29,0-.116.135-.271.387-.309a14.913,14.913,0,0,0,3.152-.831.442.442,0,0,1,.1.329c0,.077-.019.155-.019.232-.019.232-.039.5-.039.773a.17.17,0,0,0,.174.155.138.138,0,0,0,.116-.058,5.857,5.857,0,0,1,3.133-1.431,2.7,2.7,0,0,1,2.4,1.489.157.157,0,0,0,.271,0,6.284,6.284,0,0,1,3.249-1.489c1.914,0,3.055,1.45,3.055,3.887,0,.7,0,1.586-.019,2.417,0,.715-.019,1.412-.019,1.876a.675.675,0,0,0,.387.5,4.328,4.328,0,0,0,1.2.29h.019a1.842,1.842,0,0,1-.116.793c-.135,0-.309-.019-.522-.019-.406-.019-.947-.058-1.586-.058-1.276,0-1.934.019-2.572.058a2.182,2.182,0,0,1,0-.793,5.542,5.542,0,0,0,.773-.193c.406-.135.522-.329.541-.87,0-.387.077-3.79-.039-4.6A2.05,2.05,0,0,0,142,323.57a3.683,3.683,0,0,0-2.108.812.248.248,0,0,0-.077.193v.019a8.465,8.465,0,0,1,.1,1.721v1.373c0,.947-.019,1.818,0,2.494a.633.633,0,0,0,.483.657c.116.019.213.058.309.077.193.039.367.1.657.135a1.2,1.2,0,0,1-.019.58c-.039.135-.058.193-.077.193-.715-.019-1.431-.039-2.475-.039-.309,0-.831.019-1.3.019-.367.019-.715.019-.928.019a.752.752,0,0,1-.077-.406.773.773,0,0,1,.077-.387l.29-.058a4.889,4.889,0,0,0,.657-.135c.348-.116.483-.309.5-.754a35.811,35.811,0,0,0-.019-4.8,1.961,1.961,0,0,0-2.011-1.818,3.751,3.751,0,0,0-2.108.812.623.623,0,0,0-.193.483v1.238c0,1.508-.019,3.384.019,4.2a.672.672,0,0,0,.58.657,3.454,3.454,0,0,0,.483.1c.116.019.251.039.367.058a1.863,1.863,0,0,1-.058.793c-.213,0-.445-.019-.735-.019-.445-.019-.986-.039-1.6-.039-.735,0-1.238.019-1.644.039a3.249,3.249,0,0,1-.793.1" transform="translate(-130.089 -317.208)"></path><path class="i" d="M233.176,332.258c-3.519,0-4.776-2.61-4.776-5.047a4.553,4.553,0,0,1,2.05-3.964,6.23,6.23,0,0,1,3.171-.948,4.454,4.454,0,0,1,4.563,4.737,4.925,4.925,0,0,1-2.166,4.331,6.016,6.016,0,0,1-2.842.889m-.367-8.972a2.065,2.065,0,0,0-1.122.309q-1.218.754-1.218,2.958c0,2.746,1.354,4.66,3.307,4.66a2.117,2.117,0,0,0,1.431-.5,3.761,3.761,0,0,0,.909-2.92c0-2.688-1.334-4.505-3.307-4.505" transform="translate(-209.39 -317.369)"></path><path class="i" d="M421.476,332.258c-3.519,0-4.776-2.61-4.776-5.047a4.553,4.553,0,0,1,2.05-3.964,6.23,6.23,0,0,1,3.171-.948,4.454,4.454,0,0,1,4.563,4.737,4.925,4.925,0,0,1-2.166,4.331,6.016,6.016,0,0,1-2.842.889m-.367-8.972a2.065,2.065,0,0,0-1.122.309q-1.218.754-1.218,2.958c0,2.746,1.354,4.66,3.307,4.66a2.117,2.117,0,0,0,1.431-.5,3.761,3.761,0,0,0,.909-2.92c-.019-2.688-1.334-4.505-3.307-4.505" transform="translate(-361.279 -317.369)"></path><path class="i" d="M361.741,337.7a4.511,4.511,0,0,1-2.939-.87,2.845,2.845,0,0,1-1.1-2.069,1.617,1.617,0,0,1,.406-1.044,10.477,10.477,0,0,1,1.914-1.547.106.106,0,0,0,.058-.1.088.088,0,0,0-.077-.1,2.017,2.017,0,0,1-1.354-1.334.071.071,0,0,0-.019-.058c-.019-.135-.058-.251.116-.387.135-.1.348-.232.58-.367a7.346,7.346,0,0,0,.947-.619.163.163,0,0,0,.039-.135.131.131,0,0,0-.077-.116,3.066,3.066,0,0,1-2.166-3.21,3.2,3.2,0,0,1,1.334-2.63,6.008,6.008,0,0,1,2.958-1.025h.058a6.182,6.182,0,0,1,2.262.5,3.515,3.515,0,0,0,1.334.213,1.847,1.847,0,0,0,1.45-.541,1.276,1.276,0,0,1,.077.425,1.688,1.688,0,0,1-.251.967,1.145,1.145,0,0,1-.909.387h-.1a2.855,2.855,0,0,1-.541-.1l-.1.039a.155.155,0,0,0,.019.155c0,.019.019.019.019.039a8.315,8.315,0,0,1,.135.889,3.409,3.409,0,0,1-1.392,3.036,4.831,4.831,0,0,1-2.417.948h0a2.421,2.421,0,0,0-.271.019,1.84,1.84,0,0,1-.271.019h-.019c-.155.039-.561.251-.561.619,0,.309.193.677,1.083.754.174.019.367.019.58.039a17.1,17.1,0,0,1,3.326.425,2.344,2.344,0,0,1,1.547,2.243,4.558,4.558,0,0,1-2.9,3.887,6.176,6.176,0,0,1-2.784.638m-.135-5.434a1.773,1.773,0,0,0-.87.213c-.851.561-1.257,1.1-1.257,1.76a1.874,1.874,0,0,0,.735,1.508,3.617,3.617,0,0,0,2.475.773c2.108,0,3.036-1.141,3.036-2.282a1.619,1.619,0,0,0-1.2-1.624,9.773,9.773,0,0,0-2.92-.348m.135-9.224c-1.083,0-1.779.87-1.779,2.2,0,1.354.6,2.939,2.3,2.939a1.676,1.676,0,0,0,1.083-.425,2.778,2.778,0,0,0,.657-1.914c0-1.779-.851-2.8-2.262-2.8" transform="translate(-313.688 -317.208)"></path><path class="i" d="M300.621,330.853a4.237,4.237,0,0,1-1.334-.348.549.549,0,0,1-.174-.329c-.039-.715-.039-2.823-.039-4.215a5.108,5.108,0,0,0-.657-2.8,2.8,2.8,0,0,0-2.378-1.257,5.6,5.6,0,0,0-3.133,1.489c-.019.019-.174.174-.174-.058s.039-.7.058-.986a.5.5,0,0,0-.155-.425,14.422,14.422,0,0,1-3.191.851c-.5.1-.638.58-.1.754h0a4.147,4.147,0,0,1,1.2.541.637.637,0,0,1,.193.58c.019,1.566.019,3.983-.039,5.279-.019.522-.155.7-.541.793l.039-.019a5.4,5.4,0,0,1-.87.155,1.281,1.281,0,0,0,0,.928c.232,0,1.431-.077,2.417-.077,1.354,0,2.05.077,2.417.077a1.319,1.319,0,0,0,.1-.928,5.808,5.808,0,0,1-.967-.135c-.367-.1-.464-.29-.483-.7-.039-1.1-.039-3.442-.039-5.028a.946.946,0,0,1,.251-.773,3.015,3.015,0,0,1,1.914-.7,2.146,2.146,0,0,1,1.431.483,2.042,2.042,0,0,1,.657,1.315c.1.889.077,2.668.077,4.215,0,.851-.077,1.044-.367,1.141a3.872,3.872,0,0,1-.967.193,1.281,1.281,0,0,0,0,.928c.6,0,1.315-.077,2.34-.077,1.3,0,2.108.077,2.436.077a1.46,1.46,0,0,0,.077-.947" transform="translate(-258.272 -317.047)"></path></g></g></g></g></svg>