<svg xmlns="http://www.w3.org/2000/svg" width="204" height="204" viewBox="0 0 204 204"><defs><style>.a,.c{fill:#fb503b;}.a{opacity:0.2;}.b{fill:#fff;opacity:0;}</style></defs><g transform="translate(7120 -335)"><circle class="a" cx="102" cy="102" r="102" transform="translate(-7120 335)"></circle><g transform="translate(-13 -79)"><rect class="b" width="116" height="116" transform="translate(-7063 458)"></rect><path class="c" d="M115.541,37.1c-.827-.827-11.444-14.2-13.236-16.408-1.93-2.206-2.758-1.792-4-1.655s-14.615,2.482-16.132,2.62c-1.517.276-2.482.827-1.517,2.206.827,1.241,9.652,13.65,11.582,16.545L57.08,48.815,29.228,2.074C28.125.419,27.849-.132,25.368.006S3.445,1.8,2.066,1.8c-1.379.138-2.9.689-1.517,4S23.989,56.536,24.54,57.915s2.206,3.585,5.929,2.758c3.861-.965,17.1-4.412,24.4-6.342,3.861,6.894,11.582,20.958,13.1,23.026,1.93,2.758,3.309,2.206,6.2,1.379,2.344-.689,36.124-12.823,37.641-13.512s2.482-1.1,1.379-2.62c-.827-1.1-9.652-13.1-14.339-19.3,3.171-.827,14.615-3.861,15.856-4.274,1.379-.414,1.655-1.1.827-1.93ZM51.7,50.194c-.414.138-20.13,4.826-21.1,5.1-1.1.276-1.1.138-1.1-.276-.276-.414-23.439-48.4-23.853-48.947-.276-.552-.276-1.1,0-1.1S24.265,3.315,24.816,3.315c.689,0,.552.138.827.552,0,0,25.783,44.535,26.2,45.224.552.689.276.965-.138,1.1ZM107.13,60.534c.276.552.689.827-.414,1.1-.965.414-33.229,11.306-33.918,11.582s-1.1.414-1.93-.827-11.306-19.3-11.306-19.3l34.332-8.962c.827-.276,1.1-.414,1.655.414.552.965,11.306,15.58,11.582,15.994Zm2.206-24.267c-.827.138-13.374,3.309-13.374,3.309L85.621,25.513c-.276-.414-.552-.827.138-.965S98.168,22.342,98.719,22.2s.965-.276,1.655.689c.689.827,9.514,12.133,9.927,12.547s-.138.689-.965.827Z" transform="translate(-7063.006 476.015)"></path></g></g></svg>