<svg xmlns="http://www.w3.org/2000/svg" width="204" height="204" viewBox="0 0 204 204"><defs><style>.a,.c,.e{fill:#00567d;}.a{opacity:0.2;}.b{fill:#fff;opacity:0;}.d,.f{fill:#df7709;}.e,.f{fill-rule:evenodd;}</style></defs><g transform="translate(7306 -529)"><circle class="a" cx="102" cy="102" r="102" transform="translate(-7306 529)"></circle><g transform="translate(615 384)"><rect class="b" width="116" height="116" transform="translate(-7877 189)"></rect><g transform="translate(-7988.652 -79)"><path class="c" d="M111.652,436.893h3.822V421.8l5.916,13.156c.7,1.592,1.653,2.156,3.528,2.156s2.793-.563,3.491-2.156l5.916-13.156v15.091h3.822V421.826a2.3,2.3,0,0,0-1.8-2.548c-2.9-.906-4.85-.123-5.732,1.837L124.808,434.1l-5.622-12.984c-.845-1.96-2.829-2.744-5.732-1.837a2.3,2.3,0,0,0-1.8,2.548v15.066Z" transform="translate(0 -86.329)"></path><path class="c" d="M211.361,437.982h3.82V446.3c-.036.452.145,1.512,2.238,1.544,1.068.017,8.244,0,8.311,0v-9.9h3.829c.018,0,0,13.5,0,13.557.021,3.329-4.131,4.053-6.045,4.108H211.444v-2.571c.021,0,12.058,0,12.088,0,2.46-.26,2.169-1.482,2.169-1.894v-1h-8.123c-3.779-.035-6.186-1.684-6.215-3.581,0-.176.082-8.493,0-8.577Z" transform="translate(-70.037 -99.702)"></path><path class="d" d="M282.41,437.721H293.4a8.474,8.474,0,0,0,3.528-.735c1.653-.759,2.462-1.788,2.462-3.136v-2.793c0-1.1-.919-2.132-2.719-2.818a9.4,9.4,0,0,0-3.27-.563h-4.63c-1.543,0-2.278-.465-2.462-1.494a1.088,1.088,0,0,1-.037-.343V424.1a1.014,1.014,0,0,1,.037-.318c.184-.784.588-1,1.947-1.127.11,0,.257-.024.368-.024h10.914v-2.548H288.8a10.3,10.3,0,0,0-3.087.318c-2.278.711-3.271,1.837-3.271,3.8v2.229c0,1.715,1.948,3.185,5.218,3.528.367.024.735.049,1.1.049h3.969a2.051,2.051,0,0,1,.4.024c1.213.1,1.727.318,2.095.759a.911.911,0,0,1,.294.686V433.7a1.276,1.276,0,0,1-.551.906,2.707,2.707,0,0,1-1.617.539c-.147,0-.257.025-.4.025H282.41v2.548Z" transform="translate(-119.942 -87.157)"></path><path class="d" d="M419.57,433.287c0,2.621,1.948,4.091,5.879,4.385.368.024.735.049,1.1.049h9.958v-2.548H426.479c-2.242,0-3.087-.564-3.087-1.911v-13.18H419.57v13.2Z" transform="translate(-216.285 -87.157)"></path><path class="d" d="M347.654,433.5v-9.083c0-2.308,1.62-3.707,4.824-4.149a7.323,7.323,0,0,1,1.031-.073h7.254a7.856,7.856,0,0,1,1.068.073c3.2.442,4.824,1.841,4.824,4.149V433.5a3.316,3.316,0,0,1-2.274,3.527l3.764,3.4h-4.437l-3.046-2.749-3.066.194h-4.087a8.469,8.469,0,0,1-2.246-.319c-2.43-.663-3.609-1.939-3.609-4.051Zm4.125-.221a1.681,1.681,0,0,0,.074.393c.221,1.056,1.215,1.645,2.725,1.645h3.472l-3.189-2.879H359.3l2.782,2.511a1.812,1.812,0,0,0,.968-1.228,1.262,1.262,0,0,0,.037-.368v-8.715a1.182,1.182,0,0,0-.037-.344c-.221-.982-1.215-1.547-2.688-1.547h-5.781c-1.694,0-2.8.737-2.8,1.89v8.641Z" transform="translate(-165.77 -87.234)"></path><path class="c" d="M394.183,328.7a13.437,13.437,0,0,0-5.678.8c-.436.184-1.131.188-1.2.735.24.251.277.626.467.935a7.354,7.354,0,0,0,1.536,1.8c.6.455,1.224.942,1.87,1.336,1.15.7,2.434,1.1,3.54,1.8.653.414,1.3.936,1.937,1.4.315.231.526.59.935.735v-.067c-.215-.274-.271-.65-.468-.935l-.868-.868a14.243,14.243,0,0,0-3.073-2.939c-.914-.656-2.958-1.542-3.34-2.605l-.067-.067a14.677,14.677,0,0,0,2-.468c1-.269,1.9-.2,2.939-.468l1.4-.4v-.267c-.524-.538-.9-1.25-1.47-1.737a42.93,42.93,0,0,0-4.809-3.607c-.932-.588-2.085-.971-3.073-1.469-.332-.168-.916-.255-1.136-.534a14.126,14.126,0,0,1-1.2-2.271c-.839-1.614-1.662-3.378-2.4-5.077a27.3,27.3,0,0,0-1.47-3.34A29.5,29.5,0,0,0,369.2,300.176a13.609,13.609,0,0,0-3.74-1.2l-2.2-.134a11.785,11.785,0,0,1-1.336-1c-1.675-1.059-5.973-3.361-7.214-.334-.783,1.911,1.171,3.775,1.87,4.743a14.355,14.355,0,0,1,1.47,2.2c.231.5.271,1.005.468,1.536a35.416,35.416,0,0,0,1.536,3.941,13.981,13.981,0,0,0,1.069,1.8c.246.336.668.483.735,1a8.139,8.139,0,0,0-.668,2.2c-1.044,3.292-.651,7.383.868,9.82.466.748,1.564,2.352,3.073,1.737,1.32-.538,1.025-2.2,1.4-3.674.086-.333.033-.578.2-.8v.067l1.2,2.4a16.366,16.366,0,0,0,3.807,3.941c.694.524,1.24,1.431,2.138,1.737V330.1h-.067c-.174-.271-.446-.383-.668-.6a15.337,15.337,0,0,1-1.536-1.737,40.692,40.692,0,0,1-3.273-5.344c-.468-.9-.874-1.891-1.269-2.806-.152-.353-.15-.886-.468-1.069a13.387,13.387,0,0,0-1.4,2,17.17,17.17,0,0,0-.8,4.409c-.117.042-.065.013-.134.067-.93-.225-1.257-1.182-1.6-2a12.63,12.63,0,0,1-.267-7.816c.2-.619,1.1-2.568.735-3.14-.174-.57-.748-.9-1.069-1.336a10.5,10.5,0,0,1-1.069-1.87c-.716-1.62-1.05-3.439-1.8-5.077a14.853,14.853,0,0,0-1.469-2.271,13.227,13.227,0,0,1-1.6-2.271c-.153-.332-.36-.862-.134-1.2a.53.53,0,0,1,.4-.4c.387-.3,1.466.1,1.87.267a16.31,16.31,0,0,1,2.872,1.47c.436.289.876.847,1.4,1h.6c.94.216,1.994.067,2.872.334a17.35,17.35,0,0,1,4.208,2,26.052,26.052,0,0,1,9.151,10.02c.346.665.5,1.3.8,2,.616,1.422,1.391,2.885,2,4.275a19.963,19.963,0,0,0,2.071,3.941c.454.607,2.209.932,3.006,1.269a17.639,17.639,0,0,1,2,.8c1.011.609,1.991,1.336,2.939,2,.474.334,1.931,1.066,2,1.67Z" transform="translate(-170.596)"></path><path class="e" d="M384.621,320.357a4.791,4.791,0,0,0-1.2.133v.067h.067a9.177,9.177,0,0,0,.935,1.2l.668,1.4.067-.067a1.632,1.632,0,0,0,.6-1.47c-.166-.174-.19-.393-.334-.6-.191-.277-.56-.435-.8-.668Z" transform="translate(-190.892 -17.108)"></path><path class="f" d="M482.524,463.9a2.816,2.816,0,1,0,2.816-2.817,2.779,2.779,0,0,0-2.816,2.817Zm5,0a2.186,2.186,0,1,1-2.185-2.231,2.179,2.179,0,0,1,2.185,2.231Zm-1.427,1.607h.631l-.924-1.412c.5-.052.871-.293.871-.879,0-.653-.413-.923-1.209-.923h-1.254v3.214h.541v-1.389h.5l.841,1.389Zm-1.345-1.84v-.924h.623c.323,0,.713.06.713.436,0,.45-.353.488-.759.488Z" transform="translate(-260.505 -115.958)"></path></g></g></g></svg>