<svg xmlns="http://www.w3.org/2000/svg" width="204" height="204" viewBox="0 0 204 204"><defs><style>.a,.d{fill:#a6120d;}.a{opacity:0.2;}.b{fill:#fff;opacity:0;}.c{fill:#b3b3b3;}.e{fill:#dd1b16;}.f{fill:#f2f2f2;}</style></defs><g transform="translate(7120 -145)"><circle class="a" cx="102" cy="102" r="102" transform="translate(-7120 145)"></circle><g transform="translate(670 157)"><rect class="b" width="116" height="116" transform="translate(-7746 32)"></rect><g transform="translate(-7742.752 32)"><path class="c" d="M9.179,91.587l46.011,25.288,46.248-25.631,8.621-71.5L55.131.875.554,20.082Z" transform="translate(-0.554 -0.875)"></path><path class="d" d="M83.05,113.966l41.576-23.01,8.035-63.949L83.05,10.089Z" transform="translate(-28.6 -4.007)"></path><path class="e" d="M58.158,113.965V10.086L9.833,27.311l7.39,63.95Z" transform="translate(-3.709 -4.006)"></path><path class="f" d="M79.325,67.33,65.669,73.716H51.276L44.51,90.639l-12.585.233L65.669,15.8ZM78,64.115,65.759,39.873,55.715,63.7h9.953Z" transform="translate(-11.219 -5.95)"></path><path class="c" d="M94.537,63.717H83.075L83.049,73.7l15.849.015,7.408,17.159,12.042.223L83.049,15.8l.09,24.069Z" transform="translate(-28.6 -5.95)"></path></g></g></g></svg>