<svg xmlns="http://www.w3.org/2000/svg" xmlns:xlink="http://www.w3.org/1999/xlink" width="204" height="204" viewBox="0 0 204 204"><defs><style>.a{fill:#3e863d;opacity:0.2;}.b{fill:#fff;opacity:0;}.c,.e{fill:#689f63;}.d{fill:#333;}.d,.e{fill-rule:evenodd;}.f{clip-path:url(#a);}.g{fill:url(#b);}.h{clip-path:url(#c);}.i{fill:url(#d);}.j{clip-path:url(#e);}.k{fill:url(#f);}</style><clipPath id="a"><path d="M206.069,226.1l-11.048,6.376a1.333,1.333,0,0,0-.668,1.155V246.4a1.333,1.333,0,0,0,.668,1.155l11.048,6.382a1.338,1.338,0,0,0,1.335,0l11.046-6.382a1.336,1.336,0,0,0,.666-1.155V233.635a1.333,1.333,0,0,0-.669-1.155L207.4,226.1a1.343,1.343,0,0,0-1.337,0" transform="translate(-194.354 -225.925)"></path></clipPath><linearGradient id="b" x1="-0.847" y1="-1.034" x2="-0.838" y2="-1.034" gradientUnits="objectBoundingBox"><stop offset="0.3" stop-color="#3e863d"></stop><stop offset="0.5" stop-color="#55934f"></stop><stop offset="0.8" stop-color="#5aad45"></stop></linearGradient><clipPath id="c"><path d="M195.4,247.314a1.336,1.336,0,0,0,.393.345l9.477,5.474,1.579.907a1.339,1.339,0,0,0,.769.174,1.366,1.366,0,0,0,.262-.048l11.652-21.335a1.322,1.322,0,0,0-.31-.246l-7.234-4.177-3.824-2.2a1.4,1.4,0,0,0-.346-.139Zm0,0" transform="translate(-195.398 -226.069)"></path></clipPath><linearGradient id="d" x1="-0.742" y1="-0.932" x2="-0.737" y2="-0.932" gradientUnits="objectBoundingBox"><stop offset="0.57" stop-color="#3e863d"></stop><stop offset="0.72" stop-color="#619857"></stop><stop offset="1" stop-color="#76ac64"></stop></linearGradient><clipPath id="e"><path d="M208.571,225.939a1.348,1.348,0,0,0-.534.171l-11.016,6.358L208.9,254.1a1.325,1.325,0,0,0,.475-.164l11.047-6.382a1.339,1.339,0,0,0,.645-.911l-12.109-20.687a1.389,1.389,0,0,0-.27-.027c-.037,0-.073,0-.11.005" transform="translate(-197.021 -225.934)"></path></clipPath><linearGradient id="f" x1="-2.148" y1="-2.103" x2="-2.138" y2="-2.103" gradientUnits="objectBoundingBox"><stop offset="0.16" stop-color="#6bbf47"></stop><stop offset="0.38" stop-color="#79b461"></stop><stop offset="0.47" stop-color="#75ac64"></stop><stop offset="0.7" stop-color="#659e5a"></stop><stop offset="0.9" stop-color="#3e863d"></stop></linearGradient></defs><g transform="translate(7306 -335)"><circle class="a" cx="102" cy="102" r="102" transform="translate(-7306 335)"></circle><g transform="translate(20 426)"><rect class="b" width="116" height="116" transform="translate(-7282 -40)"></rect><g transform="translate(-7282 -18)"><path class="c" d="M182.958,190.5a2.205,2.205,0,0,1-1.1-.294l-3.5-2.071c-.522-.292-.267-.4-.1-.455a7.061,7.061,0,0,0,1.581-.721.265.265,0,0,1,.26.018l2.687,1.594a.355.355,0,0,0,.325,0l10.476-6.047a.33.33,0,0,0,.16-.283V170.149a.336.336,0,0,0-.162-.288l-10.472-6.042a.322.322,0,0,0-.323,0l-10.47,6.042a.334.334,0,0,0-.166.286v12.089a.323.323,0,0,0,.163.281l2.869,1.657c1.558.779,2.509-.139,2.509-1.062V171.179a.3.3,0,0,1,.3-.3h1.327a.3.3,0,0,1,.3.3v11.936c0,2.077-1.133,3.27-3.1,3.27a4.491,4.491,0,0,1-2.415-.656l-2.748-1.584a2.215,2.215,0,0,1-1.1-1.912V170.146a2.2,2.2,0,0,1,1.1-1.909l10.486-6.049a2.3,2.3,0,0,1,2.2,0l10.473,6.052a2.21,2.21,0,0,1,1.1,1.909v12.089a2.216,2.216,0,0,1-1.1,1.909L184.061,190.2a2.2,2.2,0,0,1-1.1.294" transform="translate(-125.623 -119.451)"></path><path class="c" d="M215.387,197.846c-4.584,0-5.545-2.1-5.545-3.869a.3.3,0,0,1,.3-.3H211.5a.3.3,0,0,1,.3.256c.2,1.379.813,2.074,3.585,2.074,2.208,0,3.147-.5,3.147-1.67,0-.674-.267-1.175-3.7-1.51-2.869-.283-4.641-.915-4.641-3.21,0-2.114,1.783-3.372,4.77-3.372,3.354,0,5.016,1.164,5.226,3.666a.305.305,0,0,1-.081.233.312.312,0,0,1-.223.1h-1.361a.3.3,0,0,1-.294-.236c-.328-1.45-1.12-1.914-3.273-1.914-2.41,0-2.69.839-2.69,1.468,0,.763.33.986,3.582,1.416,3.22.427,4.749,1.031,4.749,3.294,0,2.281-1.9,3.59-5.224,3.59m12.76-12.82h.351a.305.305,0,0,0,.344-.32c0-.309-.212-.309-.33-.309h-.362Zm-.427-.991h.779c.267,0,.792,0,.792.6a.52.52,0,0,1-.427.556c.312.021.333.226.375.514a2.209,2.209,0,0,0,.118.6h-.48c-.013-.1-.087-.682-.087-.713-.031-.128-.076-.191-.236-.191h-.4v.907H227.7Zm-.936,1.128a1.693,1.693,0,1,0,1.686-1.689,1.695,1.695,0,0,0-1.686,1.689m3.713.008a2.019,2.019,0,1,1-2.019-2.019,2.025,2.025,0,0,1,2.019,2.019" transform="translate(-154.816 -135.132)"></path><path class="d" d="M24.894,23.745a1.341,1.341,0,0,0-.671-1.166l-11.107-6.39a1.3,1.3,0,0,0-.61-.176h-.115a1.32,1.32,0,0,0-.614.176L.672,22.579A1.352,1.352,0,0,0,0,23.746L.024,40.958a.661.661,0,0,0,.333.58.635.635,0,0,0,.666,0l6.6-3.781A1.354,1.354,0,0,0,8.3,36.592V28.551a1.337,1.337,0,0,1,.67-1.162l2.811-1.619a1.334,1.334,0,0,1,.671-.18,1.31,1.31,0,0,1,.667.18l2.81,1.618A1.338,1.338,0,0,1,16.6,28.55v8.041a1.359,1.359,0,0,0,.673,1.164l6.6,3.779a.656.656,0,0,0,.671,0,.673.673,0,0,0,.332-.58ZM77.3,32.706a.333.333,0,0,1-.168.29l-3.815,2.2a.336.336,0,0,1-.335,0L69.172,33a.332.332,0,0,1-.168-.29V28.3a.337.337,0,0,1,.165-.291l3.813-2.2a.339.339,0,0,1,.338,0l3.815,2.2a.334.334,0,0,1,.168.291ZM78.335.085a.671.671,0,0,0-1,.587V17.716a.469.469,0,0,1-.7.406l-2.782-1.6a1.339,1.339,0,0,0-1.34,0L61.4,22.932a1.339,1.339,0,0,0-.671,1.159V36.919a1.343,1.343,0,0,0,.671,1.162L72.511,44.5a1.347,1.347,0,0,0,1.342,0l11.11-6.419a1.345,1.345,0,0,0,.671-1.162V4.946a1.345,1.345,0,0,0-.69-1.172Zm37,28.1a1.342,1.342,0,0,0,.667-1.16V23.918a1.342,1.342,0,0,0-.668-1.16l-11.04-6.409a1.341,1.341,0,0,0-1.345,0L91.839,22.76a1.339,1.339,0,0,0-.671,1.162V36.744a1.346,1.346,0,0,0,.677,1.167L102.882,44.2a1.338,1.338,0,0,0,1.316.008l6.676-3.71a.67.67,0,0,0,.005-1.167L99.7,32.918a.666.666,0,0,1-.338-.58V28.316a.666.666,0,0,1,.336-.581l3.477-2.006a.663.663,0,0,1,.669,0l3.48,2.006a.669.669,0,0,1,.336.58v3.162a.669.669,0,0,0,1.007.58Zm0,0" transform="translate(0 0)"></path><path class="e" d="M388.175,105.1a.255.255,0,0,1,.257,0l2.132,1.23a.258.258,0,0,1,.128.223v2.462a.257.257,0,0,1-.128.223l-2.132,1.23a.255.255,0,0,1-.257,0l-2.131-1.23a.257.257,0,0,1-.131-.223v-2.462a.254.254,0,0,1,.129-.223Zm0,0" transform="translate(-284.717 -77.516)"></path><g class="f" transform="translate(30.431 16.234)"><path class="g" d="M198.869,203.862,167.74,188.6l-15.962,32.561,31.129,15.26Zm0,0" transform="translate(-162.942 -198.39)"></path></g><g class="h" transform="translate(30.704 16.272)"><path class="i" d="M144.07,203.578l21.981,29.75,29.07-21.478L173.139,182.1Zm0,0" transform="translate(-157.529 -193.63)"></path></g><g class="j" transform="translate(31.13 16.237)"><path class="k" d="M197.02,225.934V254.1h24.041V225.934Zm0,0" transform="translate(-197.02 -225.934)"></path></g></g></g></g></svg>