<?xml version="1.0" encoding="UTF-8"?>
<svg xmlns="http://www.w3.org/2000/svg" xmlns:xlink="http://www.w3.org/1999/xlink" width="131.097" height="115" viewBox="0 0 131.097 115">
  <defs>
    <clipPath id="clip-path">
      <path id="Path_18404" data-name="Path 18404" d="M274.692,56.018H269.97V47.455h-8.231v8.564H257V35.765h4.722v8.464h8.231V35.765h4.722V56.018Zm8.846-18.374a2.1,2.1,0,0,1-.216.964,2.683,2.683,0,0,1-.565.8,2.49,2.49,0,0,1-.848.549,2.627,2.627,0,0,1-1.014.2,2.407,2.407,0,0,1-.981-.2,2.7,2.7,0,0,1-.815-.549,2.63,2.63,0,0,1-.549-.8,2.329,2.329,0,0,1-.2-.964,2.407,2.407,0,0,1,.2-.981,2.565,2.565,0,0,1,1.364-1.364,2.407,2.407,0,0,1,.981-.2,2.567,2.567,0,0,1,1.014.2,2.859,2.859,0,0,1,.848.549,2.319,2.319,0,0,1,.565.815A2.173,2.173,0,0,1,283.539,37.644Zm-.5,4.772v13.6h-4.307v-13.6Zm8.979-4.772a2.1,2.1,0,0,1-.216.964,2.683,2.683,0,0,1-.565.8,2.49,2.49,0,0,1-.848.549,2.627,2.627,0,0,1-1.014.2,2.407,2.407,0,0,1-.981-.2,2.705,2.705,0,0,1-.815-.549,2.631,2.631,0,0,1-.549-.8,2.329,2.329,0,0,1-.2-.964,2.407,2.407,0,0,1,.2-.981,2.565,2.565,0,0,1,1.364-1.364,2.407,2.407,0,0,1,.981-.2,2.567,2.567,0,0,1,1.014.2,2.858,2.858,0,0,1,.848.549,2.319,2.319,0,0,1,.565.815A2.173,2.173,0,0,1,292.019,37.644Zm-.5,4.772v13.6h-4.307v-13.6Zm8.73,1.546H301a1.69,1.69,0,0,0,1.5-.649l4.556-6.618a1.834,1.834,0,0,1,.848-.732,3.072,3.072,0,0,1,1.181-.2h4.091l-6,8.2a3.6,3.6,0,0,1-.665.732,3.859,3.859,0,0,1-.715.482,3.874,3.874,0,0,1,.964.532,3.329,3.329,0,0,1,.8.915l6.119,9.395h-4.207a3.947,3.947,0,0,1-.682-.05,2.2,2.2,0,0,1-.5-.166,1.478,1.478,0,0,1-.366-.266,3.534,3.534,0,0,1-.3-.366L303.06,48.1a1.328,1.328,0,0,0-.632-.549,2.833,2.833,0,0,0-1.031-.166H300.25v8.63h-4.706V35.765h4.706Zm28.767-8.2v3.608H320.7V44.1h6.369v3.475H320.7v4.822h8.314V56H315.964V35.765Zm7.932,12.77v7.5h-4.706V35.765h6.585a13.557,13.557,0,0,1,3.741.449,6.8,6.8,0,0,1,2.528,1.264,4.836,4.836,0,0,1,1.43,1.912,6.264,6.264,0,0,1,.449,2.394,6.152,6.152,0,0,1-.266,1.862,5.58,5.58,0,0,1-.782,1.613,6.9,6.9,0,0,1-1.28,1.33,6.768,6.768,0,0,1-1.746.964,3.856,3.856,0,0,1,.881.582,3.582,3.582,0,0,1,.715.848l4.307,7.05h-4.257a1.813,1.813,0,0,1-1.7-.9l-3.359-5.886a1.277,1.277,0,0,0-.516-.549,1.705,1.705,0,0,0-.848-.166Zm0-3.243h1.9a4.73,4.73,0,0,0,1.63-.249,3,3,0,0,0,1.114-.682,2.559,2.559,0,0,0,.632-1.014,3.772,3.772,0,0,0,.2-1.247,2.57,2.57,0,0,0-.865-2.079,4.07,4.07,0,0,0-2.694-.748h-1.9v6.019Z" transform="translate(-257 -35.1)"></path>
    </clipPath>
    <clipPath id="clip-path-2">
      <path id="Path_18432" data-name="Path 18432" d="M54.256,40.331c-1.23-1.214-7.1-4.988-16.346-5.155-9.794-.183-16.08,4.041-17.21,5.155q6.884-12.172,13.768-24.36c1.58,2.843,3.143,5.67,4.722,8.514,1.031-1.746,2.045-3.475,3.076-5.221Q48.253,29.814,54.256,40.331ZM42.267,13.976A1.729,1.729,0,1,0,44,15.7,1.728,1.728,0,0,0,42.267,13.976ZM34.452,10.6a1.729,1.729,0,1,0,1.729,1.729A1.728,1.728,0,0,0,34.452,10.6ZM44.828,25.732l-2.544-4.34c-.549.915-1.081,1.829-1.63,2.744.266.582.549,1.147.815,1.729.316-.432.649-.865.964-1.3.6.782,1.2,1.58,1.8,2.361Zm-8.065-3.625c-.765-1.38-1.53-2.777-2.295-4.157-.782,1.4-1.563,2.777-2.328,4.174.249.366.482.732.732,1.1.366-.432.715-.881,1.081-1.314.565.7,1.114,1.4,1.679,2.079C36,23.354,36.38,22.722,36.763,22.107Z" transform="translate(-20.7 -10.6)"></path>
    </clipPath>
  </defs>
  <g id="Hiker" transform="translate(-6525.903 1)">
    <g id="hiiker-logo-ec7789f763436390214e" transform="translate(6505.203 31.594)">
      <g id="Group_3934" data-name="Group 3934" transform="translate(59.993 14.674)">
        <g id="Group_3933" data-name="Group 3933" transform="translate(0 0)" clip-path="url(#clip-path)">
          <g id="Group_3919" data-name="Group 3919" transform="translate(-72.383 -37.43)">
            <g id="Group_3908" data-name="Group 3908" transform="translate(155.973 0)">
              <path id="Path_18381" data-name="Path 18381" d="M826.047-113.427h15.847L775.3-190H759.7Z" transform="translate(-759.7 190)" fill="#f17b21"></path>
            </g>
            <g id="Group_3909" data-name="Group 3909" transform="translate(140.376 0)">
              <path id="Path_18382" data-name="Path 18382" d="M732-113.427h15.847L681.5-190H665.9Z" transform="translate(-665.9 190)" fill="#f9a846"></path>
            </g>
            <g id="Group_3910" data-name="Group 3910" transform="translate(124.778 0)">
              <path id="Path_18383" data-name="Path 18383" d="M637.948-113.427h15.847L587.7-190H572.1Z" transform="translate(-572.1 190)" fill="#fbba43"></path>
            </g>
            <g id="Group_3911" data-name="Group 3911" transform="translate(109.181 0)">
              <path id="Path_18384" data-name="Path 18384" d="M543.9-113.427h15.847L493.9-190H478.3Z" transform="translate(-478.3 190)" fill="#ffcd16"></path>
            </g>
            <g id="Group_3912" data-name="Group 3912" transform="translate(93.584 0)">
              <path id="Path_18385" data-name="Path 18385" d="M449.849-113.427H465.7L400.1-190H384.5Z" transform="translate(-384.5 190)" fill="#e1e31c"></path>
            </g>
            <g id="Group_3913" data-name="Group 3913" transform="translate(77.986 0)">
              <path id="Path_18386" data-name="Path 18386" d="M355.8-113.427h15.847L306.3-190H290.7Z" transform="translate(-290.7 190)" fill="#c8d82c"></path>
            </g>
            <g id="Group_3914" data-name="Group 3914" transform="translate(62.389 0)">
              <path id="Path_18387" data-name="Path 18387" d="M261.734-113.427H277.6L212.5-190H196.9Z" transform="translate(-196.9 190)" fill="#a7cf4b"></path>
            </g>
            <g id="Group_3915" data-name="Group 3915" transform="translate(46.792 0)">
              <path id="Path_18388" data-name="Path 18388" d="M167.684-113.427h15.847L118.7-190H103.1Z" transform="translate(-103.1 190)" fill="#84c344"></path>
            </g>
            <g id="Group_3916" data-name="Group 3916" transform="translate(31.195 0)">
              <path id="Path_18389" data-name="Path 18389" d="M73.635-113.427H89.481L24.9-190H9.3Z" transform="translate(-9.3 190)" fill="#75c48e"></path>
            </g>
            <g id="Group_3917" data-name="Group 3917" transform="translate(15.597 0)">
              <path id="Path_18390" data-name="Path 18390" d="M-20.415-113.427H-4.568L-68.9-190H-84.5Z" transform="translate(84.5 190)" fill="#28c1e1"></path>
            </g>
            <g id="Group_3918" data-name="Group 3918" transform="translate(0 0)">
              <path id="Path_18391" data-name="Path 18391" d="M-114.464-113.427h15.847L-162.7-190h-15.6Z" transform="translate(178.3 190)" fill="#5499d3"></path>
            </g>
          </g>
          <g id="Group_3932" data-name="Group 3932" transform="translate(-94.182 -37.43)" opacity="0.65">
            <g id="Group_3920" data-name="Group 3920" transform="translate(171.554 0)">
              <path id="Path_18392" data-name="Path 18392" d="M788.913-190h15.847L737.9-113.427H722.3Z" transform="translate(-722.3 190)" fill="#f05926"></path>
            </g>
            <g id="Group_3921" data-name="Group 3921" transform="translate(155.956 0)">
              <path id="Path_18393" data-name="Path 18393" d="M694.863-190H710.71L644.1-113.427H628.5Z" transform="translate(-628.5 190)" fill="#f17b21"></path>
            </g>
            <g id="Group_3922" data-name="Group 3922" transform="translate(140.359 0)">
              <path id="Path_18394" data-name="Path 18394" d="M600.814-190h15.847L550.3-113.427H534.7Z" transform="translate(-534.7 190)" fill="#f9a846"></path>
            </g>
            <g id="Group_3923" data-name="Group 3923" transform="translate(124.762 0)">
              <path id="Path_18395" data-name="Path 18395" d="M506.748-190h15.863L456.5-113.427H440.9Z" transform="translate(-440.9 190)" fill="#fbba43"></path>
            </g>
            <g id="Group_3924" data-name="Group 3924" transform="translate(109.181 0)">
              <path id="Path_18396" data-name="Path 18396" d="M412.782-190h15.847l-65.848,76.573H347.2Z" transform="translate(-347.2 190)" fill="#ffcd16"></path>
            </g>
            <g id="Group_3925" data-name="Group 3925" transform="translate(93.584 0)">
              <path id="Path_18397" data-name="Path 18397" d="M318.732-190h15.847L269-113.427H253.4Z" transform="translate(-253.4 190)" fill="#e1e31c"></path>
            </g>
            <g id="Group_3926" data-name="Group 3926" transform="translate(77.986 0)">
              <path id="Path_18398" data-name="Path 18398" d="M224.683-190H240.53L175.2-113.427H159.6Z" transform="translate(-159.6 190)" fill="#c8d82c"></path>
            </g>
            <g id="Group_3927" data-name="Group 3927" transform="translate(62.389 0)">
              <path id="Path_18399" data-name="Path 18399" d="M130.634-190H146.48L81.4-113.427H65.8Z" transform="translate(-65.8 190)" fill="#a7cf4b"></path>
            </g>
            <g id="Group_3928" data-name="Group 3928" transform="translate(46.792 0)">
              <path id="Path_18400" data-name="Path 18400" d="M36.584-190H52.431L-12.4-113.427H-28Z" transform="translate(28 190)" fill="#84c344"></path>
            </g>
            <g id="Group_3929" data-name="Group 3929" transform="translate(31.195 0)">
              <path id="Path_18401" data-name="Path 18401" d="M-57.465-190h15.847L-106.2-113.427h-15.6Z" transform="translate(121.8 190)" fill="#75c48e"></path>
            </g>
            <g id="Group_3930" data-name="Group 3930" transform="translate(15.597 0)">
              <path id="Path_18402" data-name="Path 18402" d="M-151.515-190h15.847L-200-113.427h-15.6Z" transform="translate(215.6 190)" fill="#28c1e1"></path>
            </g>
            <g id="Group_3931" data-name="Group 3931" transform="translate(0 0)">
              <path id="Path_18403" data-name="Path 18403" d="M-245.564-190h15.847L-293.8-113.427h-15.6Z" transform="translate(309.4 190)" fill="#5499d3"></path>
            </g>
          </g>
        </g>
      </g>
      <g id="Group_3964" data-name="Group 3964" transform="translate(20.7 10.6)">
        <path id="Path_18405" data-name="Path 18405" d="M54.256,40.331c-1.23-1.214-7.1-4.988-16.346-5.155-9.794-.183-16.08,4.041-17.21,5.155q6.884-12.172,13.768-24.36c1.58,2.843,3.143,5.67,4.722,8.514,1.031-1.746,2.045-3.475,3.076-5.221Q48.253,29.814,54.256,40.331ZM42.267,13.976A1.729,1.729,0,1,0,44,15.7,1.728,1.728,0,0,0,42.267,13.976ZM34.452,10.6a1.729,1.729,0,1,0,1.729,1.729A1.728,1.728,0,0,0,34.452,10.6ZM44.828,25.732l-2.544-4.34c-.549.915-1.081,1.829-1.63,2.744.266.582.549,1.147.815,1.729.316-.432.649-.865.964-1.3.6.782,1.2,1.58,1.8,2.361Zm-8.065-3.625c-.765-1.38-1.53-2.777-2.295-4.157-.782,1.4-1.563,2.777-2.328,4.174.249.366.482.732.732,1.1.366-.432.715-.881,1.081-1.314.565.7,1.114,1.4,1.679,2.079C36,23.354,36.38,22.722,36.763,22.107Z" transform="translate(-20.7 -10.6)" fill="#2cc2e3"></path>
        <g id="Group_3963" data-name="Group 3963" transform="translate(0)" clip-path="url(#clip-path-2)">
          <g id="Group_3949" data-name="Group 3949" transform="translate(-17.243 -11.008)">
            <g id="Group_3935" data-name="Group 3935" transform="translate(56.37 7.732)">
              <path id="Path_18406" data-name="Path 18406" d="M267.939,41.6l4.406.6L260.34-8.518,256-9.1Z" transform="translate(-256 9.1)" fill="#f05926"></path>
            </g>
            <g id="Group_3936" data-name="Group 3936" transform="translate(52.03 7.134)">
              <path id="Path_18407" data-name="Path 18407" d="M241.773,38l4.406.6L234.24-12.1l-4.34-.6Z" transform="translate(-229.9 12.7)" fill="#f17b21"></path>
            </g>
            <g id="Group_3937" data-name="Group 3937" transform="translate(47.69 6.535)">
              <path id="Path_18408" data-name="Path 18408" d="M215.606,34.383l4.406.615L208.14-15.7l-4.34-.6Z" transform="translate(-203.8 16.3)" fill="#f9a846"></path>
            </g>
            <g id="Group_3938" data-name="Group 3938" transform="translate(43.366 5.936)">
              <path id="Path_18409" data-name="Path 18409" d="M189.523,30.783l4.406.6L182.123-19.3l-4.323-.6Z" transform="translate(-177.8 19.9)" fill="#fbba43"></path>
            </g>
            <g id="Group_3939" data-name="Group 3939" transform="translate(39.027 5.354)">
              <path id="Path_18410" data-name="Path 18410" d="M163.34,27.266l4.423.6L156.04-22.818,151.7-23.4Z" transform="translate(-151.7 23.4)" fill="#ffcd16"></path>
            </g>
            <g id="Group_3940" data-name="Group 3940" transform="translate(34.687 4.756)">
              <path id="Path_18411" data-name="Path 18411" d="M137.173,23.65l4.406.615L129.94-26.4,125.6-27Z" transform="translate(-125.6 27)" fill="#e1e31c"></path>
            </g>
            <g id="Group_3941" data-name="Group 3941" transform="translate(30.347 4.157)">
              <path id="Path_18412" data-name="Path 18412" d="M111.007,20.05l4.406.6L103.84-30l-4.34-.6Z" transform="translate(-99.5 30.6)" fill="#c8d82c"></path>
            </g>
            <g id="Group_3942" data-name="Group 3942" transform="translate(26.007 3.558)">
              <path id="Path_18413" data-name="Path 18413" d="M84.84,16.45l4.406.6L77.74-33.6l-4.34-.6Z" transform="translate(-73.4 34.2)" fill="#a7cf4b"></path>
            </g>
            <g id="Group_3943" data-name="Group 3943" transform="translate(21.667 2.976)">
              <path id="Path_18414" data-name="Path 18414" d="M58.674,12.916l4.406.615L51.64-37.118,47.3-37.7Z" transform="translate(-47.3 37.7)" fill="#84c344"></path>
            </g>
            <g id="Group_3944" data-name="Group 3944" transform="translate(17.327 2.378)">
              <path id="Path_18415" data-name="Path 18415" d="M32.507,9.316l4.406.6L25.54-40.7l-4.34-.6Z" transform="translate(-21.2 41.3)" fill="#75c48e"></path>
            </g>
            <g id="Group_3945" data-name="Group 3945" transform="translate(12.987 1.779)">
              <path id="Path_18416" data-name="Path 18416" d="M6.324,5.716l4.423.6L-.56-44.3l-4.34-.6Z" transform="translate(4.9 44.9)" fill="#28c1e1"></path>
            </g>
            <g id="Group_3946" data-name="Group 3946" transform="translate(8.647 1.197)">
              <path id="Path_18417" data-name="Path 18417" d="M-19.842,2.183l4.406.615L-26.66-47.818-31-48.4Z" transform="translate(31 48.4)" fill="#81d1e8"></path>
            </g>
            <g id="Group_3947" data-name="Group 3947" transform="translate(4.34 0.599)">
              <path id="Path_18418" data-name="Path 18418" d="M-45.659-1.384l4.406.6L-52.56-51.4-56.9-52Z" transform="translate(56.9 52)" fill="#bde5f1"></path>
            </g>
            <g id="Group_3948" data-name="Group 3948">
              <path id="Path_18419" data-name="Path 18419" d="M-71.826-5l4.406.615L-78.66-55-83-55.6Z" transform="translate(83 55.6)" fill="#f5fbfd"></path>
            </g>
          </g>
          <g id="Group_3962" data-name="Group 3962" transform="translate(-21.268 -8.214)" opacity="0.65">
            <g id="Group_3950" data-name="Group 3950" transform="translate(47.74 6.635)">
              <path id="Path_18420" data-name="Path 18420" d="M205.025,1.1l4.406.615L184.24,47.327l-4.34-.6Z" transform="translate(-179.9 -1.1)" fill="#f05926"></path>
            </g>
            <g id="Group_3951" data-name="Group 3951" transform="translate(43.4 6.036)">
              <path id="Path_18421" data-name="Path 18421" d="M178.859-2.5l4.406.6L158.14,43.727l-4.34-.582Z" transform="translate(-153.8 2.5)" fill="#f17b21"></path>
            </g>
            <g id="Group_3952" data-name="Group 3952" transform="translate(39.06 5.437)">
              <path id="Path_18422" data-name="Path 18422" d="M152.692-6.1l4.406.6L132.04,40.143l-4.34-.6Z" transform="translate(-127.7 6.1)" fill="#f9a846"></path>
            </g>
            <g id="Group_3953" data-name="Group 3953" transform="translate(34.72 4.822)">
              <path id="Path_18423" data-name="Path 18423" d="M126.509-9.8l4.423.615L105.94,36.46l-4.34-.6Z" transform="translate(-101.6 9.8)" fill="#fbba43"></path>
            </g>
            <g id="Group_3954" data-name="Group 3954" transform="translate(30.38 4.224)">
              <path id="Path_18424" data-name="Path 18424" d="M100.343-13.4l4.406.6L79.84,32.86l-4.34-.6Z" transform="translate(-75.5 13.4)" fill="#ffcd16"></path>
            </g>
            <g id="Group_3955" data-name="Group 3955" transform="translate(26.04 3.625)">
              <path id="Path_18425" data-name="Path 18425" d="M74.176-17l4.406.6L53.74,29.26l-4.34-.582Z" transform="translate(-49.4 17)" fill="#e1e31c"></path>
            </g>
            <g id="Group_3956" data-name="Group 3956" transform="translate(21.7 3.01)">
              <path id="Path_18426" data-name="Path 18426" d="M48.01-20.7l4.406.615L27.64,25.593l-4.34-.6Z" transform="translate(-23.3 20.7)" fill="#c8d82c"></path>
            </g>
            <g id="Group_3957" data-name="Group 3957" transform="translate(17.36 2.411)">
              <path id="Path_18427" data-name="Path 18427" d="M21.843-24.3l4.406.6L1.54,21.993l-4.34-.6Z" transform="translate(2.8 24.3)" fill="#a7cf4b"></path>
            </g>
            <g id="Group_3958" data-name="Group 3958" transform="translate(13.02 1.812)">
              <path id="Path_18428" data-name="Path 18428" d="M-4.323-27.9l4.406.6L-24.56,18.393l-4.34-.6Z" transform="translate(28.9 27.9)" fill="#84c344"></path>
            </g>
            <g id="Group_3959" data-name="Group 3959" transform="translate(8.68 1.197)">
              <path id="Path_18429" data-name="Path 18429" d="M-30.507-31.6l4.423.615L-50.66,14.71-55,14.128Z" transform="translate(55 31.6)" fill="#75c48e"></path>
            </g>
            <g id="Group_3960" data-name="Group 3960" transform="translate(4.34 0.599)">
              <path id="Path_18430" data-name="Path 18430" d="M-56.673-35.2l4.406.6L-76.76,11.126l-4.34-.6Z" transform="translate(81.1 35.2)" fill="#28c1e1"></path>
            </g>
            <g id="Group_3961" data-name="Group 3961">
              <path id="Path_18431" data-name="Path 18431" d="M-82.84-38.8l4.406.6L-102.86,7.526l-4.34-.6Z" transform="translate(107.2 38.8)" fill="#5499d3"></path>
            </g>
          </g>
        </g>
      </g>
    </g>
    <rect id="Rectangle_3866" data-name="Rectangle 3866" width="131" height="115" transform="translate(6526 -1)" fill="#fff" opacity="0"></rect>
  </g>
</svg>
