<?xml version="1.0" encoding="UTF-8"?>
<svg xmlns="http://www.w3.org/2000/svg" xmlns:xlink="http://www.w3.org/1999/xlink" width="117.375" height="136.324" viewBox="0 0 117.375 136.324">
  <defs>
    <style>.a,.b{fill:#fff;}.b{stroke:rgba(0,0,0,0);stroke-miterlimit:10;}.c{opacity:0.14;}.d{clip-path:url(#a);}.e{fill:#ff1f1f;}</style>
    <clipPath id="a">
      <path class="a" d="M232.876,118.741H176.308a9.811,9.811,0,0,0-9.811,9.811V169c0,.071,0,.143,0,.215.05,9.1,11.2,13.522,17.595,7.043l22.616-22.911-15.144-9.325,3.814-3.814,18.169,6.013,7.353-7.663a3.59,3.59,0,0,1,4.542-.6,3.51,3.51,0,0,1,.507,5.466l-7.758,7.445,6.012,18.169-3.814,3.814L211.065,157.7l-19.043,19.77c-10.665,11.072-2.987,29.644,12.385,29.781h.345A38.254,38.254,0,0,0,243.005,169V128.87A10.129,10.129,0,0,0,232.876,118.741Z" transform="translate(-166.497 -118.741)"></path>
    </clipPath>
  </defs>
  <g transform="translate(0 0.5)">
    <g transform="translate(19.99 0)">
      <path class="b" d="M38.255,88.51h-.488c-.163,0-.33-.005-.5-.009a17.31,17.31,0,0,1-9.222-3.1,17.7,17.7,0,0,1-2.524-26.66l19.042-19.77,9.325,15.144L57.7,50.293,51.693,32.124l7.758-7.445a3.488,3.488,0,0,0,1.065-2.837,3.529,3.529,0,0,0-1.572-2.629,3.316,3.316,0,0,0-1.853-.555,3.753,3.753,0,0,0-2.689,1.16l-7.354,7.663L28.88,21.468l-3.814,3.814L40.21,34.607,17.594,57.518A10.156,10.156,0,0,1,10.328,60.6a10.719,10.719,0,0,1-6.971-2.626A9.739,9.739,0,0,1,.982,54.857,10.116,10.116,0,0,1,0,50.694c0-.047,0-.094,0-.141,0-.029,0-.055,0-.082,0-.072,0-.143,0-.215V9.81A9.81,9.81,0,0,1,9.81,0H66.7a9.81,9.81,0,0,1,9.81,9.81V50.256c0,.071,0,.143,0,.215,0,.027,0,.054,0,.081a38.072,38.072,0,0,1-6.535,21.1A38.372,38.372,0,0,1,53.393,85.4a38,38,0,0,1-14.657,3.11l-.138,0Z" transform="translate(0 0)"></path>
      <g class="c" transform="translate(0 0)">
        <g class="d" transform="translate(0 0)">
          <g transform="translate(-12.339 6.733)">
            <path class="e" d="M185.521,196.359a4.949,4.949,0,0,0-1.5-.511l-.99-.218L180.169,195c-.379-.083-.832-.237-.9-.619a1.661,1.661,0,0,1,.121-.667c.052-.222,0-.514-.214-.583a2.6,2.6,0,0,0-1.51-1.279,14.077,14.077,0,0,1-1.831-.786,3.236,3.236,0,0,1-1.2-1.337c-.405-.844-1.812-.808-2.743-.715a7.243,7.243,0,0,0-1.139.239l-2.212.588c-.077.02-.155.039-.235.058l-.005,0-.03.006c-.065.014-.129.026-.194.037a2.585,2.585,0,0,1-1.555-.237v0a1.927,1.927,0,0,1-.594-.409,1.573,1.573,0,0,1-.4-1,7.33,7.33,0,0,1,0-1.089c.025-.3-.275-.541-.573-.6a7.2,7.2,0,0,0-.906-.014.774.774,0,0,1-.726-.448.918.918,0,0,1,.054-.547c.146-.446.216-1.02.6-1.283.233-.157.509-.382.436-.654a.421.421,0,0,0-.36-.283.829.829,0,0,0-.467.106c-.755.381-1.212,1.321-2.051,1.437a1.607,1.607,0,0,1-1.593-1.154,5.81,5.81,0,0,1-.153-2.146,1.841,1.841,0,0,1,1.328-1.654,6.032,6.032,0,0,1,1.1-.106,3.954,3.954,0,0,0,1.021-.382,1.685,1.685,0,0,1,1.51.189c.68.465.914,1.345,1.387,2.019.128.182.328.37.543.31a.409.409,0,0,0,.262-.4c0-.17.022-.395.014-.565a6.884,6.884,0,0,1,.019-1.364,2.317,2.317,0,0,1,.538-1.235c.494-.54,1.364-.706,1.538-1.417a2.439,2.439,0,0,1,1.087-1.334,9.016,9.016,0,0,0,1.43-1.022,4.828,4.828,0,0,0,.763-1.244A2.143,2.143,0,0,1,173.9,172.3c.468-.069,1.032-.014,1.323-.389a.947.947,0,0,0-.029-1.039,6.5,6.5,0,0,0-.719-.835,1.312,1.312,0,0,1-.4-.99,1.1,1.1,0,0,1,.665-.805,2.667,2.667,0,0,1,1.066-.187,6.573,6.573,0,0,0,1.95-.167,1.56,1.56,0,0,0,1.162-1.413,2.506,2.506,0,0,0-.99-1.507,2.64,2.64,0,0,1-.489-.661c-.005-.01-.011-.017-.017-.027s-.021-.048-.033-.073-.021-.044-.03-.066a2.81,2.81,0,0,1-.181-1.559.679.679,0,0,0-.186-.631c-.228-.158-.541,0-.747.184s-.419.417-.7.416c-.344,0-.577-.375-.607-.718s.068-.686.048-1.03c-.035-.606-.59-.978-1.056-1.367a1.119,1.119,0,0,0-1.211-.193,1.7,1.7,0,0,0-.594.7,4.3,4.3,0,0,0-.674,1.733c-.035.451.073.906.027,1.356a1.771,1.771,0,0,1-.237.716l0,.006a3.627,3.627,0,0,0-.537,1.138,5.037,5.037,0,0,1-.257,1.213.722.722,0,0,1-.307.437.541.541,0,0,1-.656-.257,1.94,1.94,0,0,1-.2-.745,5.808,5.808,0,0,0-3.073-4.225,1.482,1.482,0,0,1-.543-1.846,4,4,0,0,1,1.37-1.573c1.058-.833,2.172-1.509,3.258-2.305l1.308-.959a2.435,2.435,0,0,0,.968-1.07,5.987,5.987,0,0,0,.138-.764.879.879,0,0,1,.4-.636c.389-.2.841.11,1.143.425a8.366,8.366,0,0,1,1.053,1.592l0,.009a1.058,1.058,0,0,1-.314,1.55h0l-1.585.864c-.21.115-.456.307-.387.537s.406.25.658.285a1.674,1.674,0,0,1,1.082.722,3.657,3.657,0,0,1,.691,1.183.753.753,0,0,0,.853.517,1.035,1.035,0,0,0,.761-.718,1.7,1.7,0,0,0-.061-1.079c-.126-.344-.121-.783-.4-1.024a.318.318,0,0,1,.12-.519.475.475,0,0,1,.443.176c.114.122.2.272.32.384a.857.857,0,0,0,.814.133c.144-.06.416-.259.249-.792h0l-.6-1.816-.574-1.745a2.074,2.074,0,0,0-.819-1.174,5.843,5.843,0,0,1-2.012-2.081,6.01,6.01,0,0,0-.667-1.084c-.283-.317-.854-.827-1.206-.589a3.675,3.675,0,0,0-1.423,1.89,1.517,1.517,0,0,0-.06.918,3.416,3.416,0,0,0,.519.8,1,1,0,0,1,.064.912,2.183,2.183,0,0,1-.358.687.74.74,0,0,1-.691.27.973.973,0,0,1-.6-.721,3.672,3.672,0,0,1-.11-1.464l.206-2.22a1.139,1.139,0,0,1,.19-.634,1.429,1.429,0,0,1,.877-.339c.314-.063.673-.25.68-.57a.5.5,0,0,0-.278-.432.815.815,0,0,0-.528-.056,2.107,2.107,0,0,0-1.252,1.039c-.489.759-.518,1.721-.934,2.522a2.752,2.752,0,0,0-.215,1.271,3.224,3.224,0,0,1-.171,1.281,1.04,1.04,0,0,1-1.006.678c-.4-.051-.683-.4-.985-.668-.454-.4-1.1-.412-1.652-.669a.833.833,0,0,0-.742.15.972.972,0,0,1-.737.2c-.223-.068-.357-.287-.511-.462-.415-.47-1.113-.421-1.724-.565a.859.859,0,0,1-.341-.135.293.293,0,0,1-.112-.325.383.383,0,0,1,.29-.188.744.744,0,0,0,.335-.119.351.351,0,0,0,.057-.392,3.49,3.49,0,0,0-1.006-.935h0a5.8,5.8,0,0,1-.534-.341l-.007-.006a.2.2,0,0,1-.02-.018l0,0a1.088,1.088,0,0,0-.466-.194,1.239,1.239,0,0,1-.662-.255,2.77,2.77,0,0,1-.323-.635,1.2,1.2,0,0,0-.854-.535,2.441,2.441,0,0,0-1.061-.049,12.24,12.24,0,0,1-1.542.388,1.774,1.774,0,0,1-.681.009c-.223-.051-.394-.322-.573-.464a13.2,13.2,0,0,1-3.385-3.267,2.305,2.305,0,0,0-1.3-1.016,2,2,0,0,0-1.691.069L146,144.358a1.833,1.833,0,0,1-.668.362c-.275.06-.591,0-.82.161a.662.662,0,0,0-.249.491,1.382,1.382,0,0,0,.006.585,2.71,2.71,0,0,1,.152,1.991.6.6,0,0,1-.684.234c-.253-.061-.477-.211-.725-.291a1.407,1.407,0,0,0-1.176.152,1.6,1.6,0,0,0-.545.979.631.631,0,0,0,.3.733c.439.224,1.045-.181,1.519-.046.13-.051.273.084.281.224a.566.566,0,0,1-.165.374,5.2,5.2,0,0,1-1.831,1.2,3.051,3.051,0,0,0-1.682,1.36,1.627,1.627,0,0,0,.089,1.376c.081.144.184.277.25.428s.169.389.056.511a.549.549,0,0,0-.109.544.48.48,0,0,0,.449.279,1.466,1.466,0,0,1,.5.093.5.5,0,0,1,.31.376c.026.242-.183.438-.372.591l-1.112.9c-.107.087-.224.2-.211.334a.286.286,0,0,0,.269.227.838.838,0,0,0,.369-.082,10.611,10.611,0,0,1,1.64-.63,1.531,1.531,0,0,0,1-.973c.19-.444.281-.93.505-1.358a2.433,2.433,0,0,1,.972-.993.685.685,0,0,1,.526-.1.3.3,0,0,1,.155.426,1.817,1.817,0,0,1-.512.535,1.1,1.1,0,0,0-.429.592c-.048.244.068.417.317.412a1.247,1.247,0,0,0,.978-.459,1.589,1.589,0,0,1,.974-.567c1.072,0,1.938,1.084,2.653,1.882a7.909,7.909,0,0,1,1.419,1.987,6.333,6.333,0,0,1,.44,4.258,2.258,2.258,0,0,0,.624,2.241,1.752,1.752,0,0,1,.558.626,1.263,1.263,0,0,1-.107.839,19.8,19.8,0,0,0-1.549,4.471c-.177,1.475-.2,3.157.749,4.3a12.021,12.021,0,0,1,1.842,4.413,7.974,7.974,0,0,0,.986,2.084c.132.2.307.411.546.421a.412.412,0,0,0,.369-.208.881.881,0,0,0,.015-.48,2.363,2.363,0,0,0-.454-.979,5.11,5.11,0,0,1-1.115-2.2l-.044-.749a.562.562,0,0,1,.018-.225.188.188,0,0,1,.168-.131c.076,0,.248.114.21.179a4.822,4.822,0,0,0,1.228,2.532,4.855,4.855,0,0,1,1.023,1.461,7.8,7.8,0,0,0,1.207,2.763,4.309,4.309,0,0,0,2.421,1.718c.867.2,1.824.437,2.7.581a2.712,2.712,0,0,1,2.024,1.6,4.373,4.373,0,0,0,.68,1.517c.432.432,1.169.4,1.776.46a1.33,1.33,0,0,1,1.122,1.75,4.587,4.587,0,0,1-.621.99,6.516,6.516,0,0,0-.523,2.638c-.249,1.435.551,2.821,1.319,4.058.616.992.961,2.194,1.883,2.911a5.5,5.5,0,0,1,1.891,3.644c.188,1.391.5,3.021-.03,4.321-.624,1.523-1.258,3.192-.8,4.774.237.826.755,1.55.994,2.375a14.983,14.983,0,0,1,.3,2.043,3.018,3.018,0,0,0,.826,1.849c.545.493.909,1.181,1.473,1.653a1.358,1.358,0,0,0,.711.366.545.545,0,0,0,.606-.412.815.815,0,0,0-.1-.417l-.985-2.188a.912.912,0,0,1,.108-.826c.143-.275.368-.5.534-.761a.959.959,0,0,0,.144-.881c-.127-.283-.458-.448-.543-.746a.8.8,0,0,1,.219-.709c.166-.2.377-.354.53-.561a1.354,1.354,0,0,0-.141-1.716,1.412,1.412,0,0,1,.466-1.236,4.56,4.56,0,0,1,1.108-.727,2.966,2.966,0,0,0,1.042-.808,1.376,1.376,0,0,1,.475-1.185c.344-.3.753-.514,1.082-.828.9-.859,1.031-2.231,1.563-3.358a4.915,4.915,0,0,1,2.527-2.412,5.639,5.639,0,0,0,.794-2.752,7.987,7.987,0,0,1,.081-1.374,1.34,1.34,0,0,1,.817-1.032,1.621,1.621,0,0,0,.827-1.515A1.718,1.718,0,0,0,185.521,196.359Z" transform="translate(-139.563 -138.686)"></path>
            <path class="e" d="M177.2,150.075a1.281,1.281,0,0,0,.318,1.969,1.916,1.916,0,0,1,.38.226.332.332,0,0,1,.093.4c-.095.151-.321.139-.487.074a.927.927,0,0,0-.512-.128.469.469,0,0,0-.327.432,1.371,1.371,0,0,0,.115.564c.127.356.3.756.655.876.515.173,1.05-.352,1.584-.245a1.315,1.315,0,0,1,.66.455,1.747,1.747,0,0,0,.627.508.541.541,0,0,0,.693-.241c.086-.23-.059-.486-.025-.729.045-.318.364-.507.6-.727a3.353,3.353,0,0,0,.708-2.447,1.39,1.39,0,0,0-.051-.5.472.472,0,0,0-.35-.323c-.3-.043-.5.288-.693.526-.159.2-.554.581-.837.487-.3-.1-.667-.652-.891-.877a2.569,2.569,0,0,0-.837-.636A1.314,1.314,0,0,0,177.2,150.075Z" transform="translate(-159.669 -142.226)"></path>
            <path class="e" d="M173.816,147.276a.559.559,0,0,0,.452-.211,2.847,2.847,0,0,0,.281-.434,2.6,2.6,0,0,1,1.18-1.023,2.817,2.817,0,0,0,1.112-.572.941.941,0,0,0-.1-1.279c-.578-.5-1.449.006-1.928.406a4.279,4.279,0,0,0-1.365,2.079,1.23,1.23,0,0,0-.054.618A.521.521,0,0,0,173.816,147.276Z" transform="translate(-157.887 -138.919)"></path>
            <path class="e" d="M186.025,231.172c-.146,0-.339.049-.339.195,0,.107.111.176.208.223l.98.475a10.736,10.736,0,0,0,1.428.609.874.874,0,0,0,.519.045c.845-.267-.593-1-.833-1.108A4.827,4.827,0,0,0,186.025,231.172Z" transform="translate(-164.556 -186.398)"></path>
            <path class="e" d="M195.265,235.018c-.18,0-.395.011-.489.164a.343.343,0,0,0,.062.4.763.763,0,0,0,.375.2,2.072,2.072,0,0,0,.863.045c.289-.046.683-.3.4-.606C196.218,234.931,195.6,235.025,195.265,235.018Z" transform="translate(-169.461 -188.478)"></path>
            <path class="e" d="M240.854,149.818a1.663,1.663,0,0,0,.223-1.555c-.224-.52-.8-1.01-.568-1.525.169-.374.652-.448,1.035-.594a2.079,2.079,0,0,0,1.25-2.294,6.9,6.9,0,0,1,1.741-5.969,2.713,2.713,0,0,0,.508-.649.733.733,0,0,0-.053-.78.856.856,0,0,0-.865-.157,4.113,4.113,0,0,1-.893.237c-.309.011-.662-.185-.673-.493s.3-.52.545-.722.423-.607.173-.8a4.886,4.886,0,0,0-4.418-.869,8.146,8.146,0,0,1-2.781.889c-.542-.023-1.057-.249-1.6-.312a1.3,1.3,0,0,0-1.39.606c-1.072.723-2.175,1.729-3.248,2.453a3.593,3.593,0,0,0-1.675,1.836,1.809,1.809,0,0,0,.462,1.712,6.807,6.807,0,0,0,1.041.717,1.479,1.479,0,0,1,.719.993c.111,1.083.6,2.121.779,3.194a8.132,8.132,0,0,1,.094,2.279,5.634,5.634,0,0,1-1.364,3.032,2.989,2.989,0,0,0-.521,1.213,1.693,1.693,0,0,0,.1,1.233c.194.353.558.618.64,1.013a2.378,2.378,0,0,1,0,.562.77.77,0,0,0,.139.533.874.874,0,0,0,.767.077c.362-.205.781.148,1.032.481s.6.723,1,.6c.381-.122.456-.613.537-1.005a4.985,4.985,0,0,1,2.452-3.036c1.14-.7,2.415-1.158,3.567-1.84A3.748,3.748,0,0,0,240.854,149.818Z" transform="translate(-187.545 -133.439)"></path>
            <path class="e" d="M245.607,185.192c.213-.224.307-.5.562-.7.271-.218.719-.339.888-.66a.588.588,0,0,0-.043-.586.762.762,0,0,0-.511-.314c-.637-.1-1.24.49-1.874.37-.345-.065-.693-.336-1.011-.186a.591.591,0,0,0-.223.744,1.722,1.722,0,0,0,.55.643C244.339,184.828,245.091,185.734,245.607,185.192Z" transform="translate(-195.803 -160.25)"></path>
            <path class="e" d="M319.135,146.545c-.088-.11-.2-.2-.287-.312a1.559,1.559,0,0,1-.24-.909,2.38,2.38,0,0,0-.142-.939.694.694,0,0,0-.766-.426,2.5,2.5,0,0,1-1.469.016c-.706-.241-1.121-1.013-1.818-1.279a13.183,13.183,0,0,0-1.928-.458,4.74,4.74,0,0,0-2.165-.133,1.624,1.624,0,0,0-1.306,1.536c.008.11-.1.213-.189.273a1.012,1.012,0,0,1-.312.109l-1.44.333a2.347,2.347,0,0,1-.616.086.791.791,0,0,1-.561-.233,10.375,10.375,0,0,0-1.311-.948.548.548,0,0,0-.372-.165.626.626,0,0,0-.295.16,2.022,2.022,0,0,1-1.478.389,22.164,22.164,0,0,1-3.312-.779,2.153,2.153,0,0,0-1.355.044.367.367,0,0,0-.216.157.405.405,0,0,0,.085.375,8.49,8.49,0,0,1,.453.871.335.335,0,0,1-.086.356.983.983,0,0,1-.332.2l-1.69.726a1.678,1.678,0,0,1-.94.2,1.124,1.124,0,0,1-.657-.437,3.616,3.616,0,0,1-.453-.687.736.736,0,0,0-.451-.368,2.194,2.194,0,0,0-.592-.08,2.613,2.613,0,0,1-.955-.138.253.253,0,0,0-.308.157,1.7,1.7,0,0,0-.075.377,1.047,1.047,0,0,1-.689.744,1.725,1.725,0,0,1-1.043,0,4.659,4.659,0,0,1-1.037-.339.956.956,0,0,0-1.238.312c-.138.222-.224.536-.481.582s-.468-.261-.446-.526a2.157,2.157,0,0,1,.3-.732c.423-.867-.086-1.832-.571-2.666a.59.59,0,0,0-.864-.137c-.136.121-.214.309-.378.387a.487.487,0,0,1-.535-.135,2.681,2.681,0,0,1-.281-.522,2.545,2.545,0,0,0-.719-.858.871.871,0,0,0-1.046.017.827.827,0,0,0-.169.839,1.224,1.224,0,0,0,.584.7.55.55,0,0,1,.228.669,1,1,0,0,1-.537.529,6.9,6.9,0,0,1-.731.25c-.645.221-1.017.847-1.616,1.172a.807.807,0,0,0-.25,1.207c.113.143.271.245.388.386a.442.442,0,0,1,.083.5.386.386,0,0,1-.355.147c-.134-.011-.267-.083-.4-.089a.53.53,0,0,0-.484.335.872.872,0,0,0,0,.614,1.8,1.8,0,0,0,.3.481,1.434,1.434,0,0,1,.254.472.49.49,0,0,1-.13.493.538.538,0,0,1-.571.011c-.181-.09-.329-.232-.5-.335s-.41-.247-.547-.1a1.23,1.23,0,0,0-.145,1.218c.138.406.383.77.523,1.176s.232.965-.1,1.237a.7.7,0,0,1-.9-.125,2.043,2.043,0,0,1-.43-.887l-.462-1.558a1.748,1.748,0,0,0-.228-.539.593.593,0,0,0-.494-.269c-.347.022-.534.428-.551.775-.047,1.015.845,1.964.659,2.964a.437.437,0,0,1-.482.306,1.05,1.05,0,0,1-.548-.285,2.237,2.237,0,0,0-.5-.374.55.55,0,0,0-.59.049c-.2.18-.076.441-.08.707a.551.551,0,0,1-.4.451,4.587,4.587,0,0,0-.61.2,5.457,5.457,0,0,1-.522.35c-.267.106-.71.013-.717-.274a.445.445,0,0,0-.411-.418.767.767,0,0,0-.616.447c-.138.229-.241.529-.474.659a.436.436,0,0,1-.432.235c-.175,0-.344-.062-.519-.074a.551.551,0,0,0-.437.136.42.42,0,0,0-.008.51,1.245,1.245,0,0,1,.086.384.423.423,0,0,1-.153.348.69.69,0,0,1-.666-.02.59.59,0,0,0-.712.343,6.144,6.144,0,0,0-.244.839c-.093.277-.314.553-.606.551s-.511-.288-.67-.544l-.565-.908a.662.662,0,0,1-.132-.344.464.464,0,0,1,.4-.4,1.746,1.746,0,0,1,.609.044.944.944,0,0,0,.6-.049.72.72,0,0,0,.207-.948,1.068,1.068,0,0,0-.706-.657,4.143,4.143,0,0,1-2.485-1.145,2.817,2.817,0,0,0-.644-.735,1.123,1.123,0,0,0-.932-.046c-.3.106-.529.38-.831.49a6.916,6.916,0,0,0-3.025,2.663,7.617,7.617,0,0,0-.831,2.028,3.054,3.054,0,0,1-1.368,1.74,1.263,1.263,0,0,0-.339.21.43.43,0,0,0-.145.357,2.2,2.2,0,0,0,.159.367.9.9,0,0,1,.006.4,9.749,9.749,0,0,0-.055,1.029.718.718,0,0,0,.162.5.471.471,0,0,0,.485.147c.27-.092.374-.444.637-.554a.579.579,0,0,1,.7.375c.108.275.014.584.089.869l.2.743c.051.193.124.411.308.488a.666.666,0,0,0,.538-.1,2.412,2.412,0,0,0,.714-.477,1.074,1.074,0,0,0,.3-.806c-.177-1.541-.667-3.388.3-4.6a7.527,7.527,0,0,1,.65-.717,2.119,2.119,0,0,1,.531-.4.872.872,0,0,1,.65-.065.557.557,0,0,1,.387.494.927.927,0,0,1-.27.554,9.832,9.832,0,0,1-.635.827,1.059,1.059,0,0,0-.143,1.273,1.274,1.274,0,0,0,1.217.442,4.124,4.124,0,0,1,1.308.116c.144.037.314.114.323.262s-.153.246-.3.28a4.864,4.864,0,0,0-.949.162.878.878,0,0,0-.431,1.074c.09.206-.123.425-.338.491a2.33,2.33,0,0,0-.645.185c-.341.228-.3.731-.449,1.115a1.534,1.534,0,0,1-1.3.884,5.106,5.106,0,0,1-1.67-.137,1.151,1.151,0,0,1-.853-.913,1.748,1.748,0,0,0-.058-.324.293.293,0,0,0-.233-.207.279.279,0,0,0-.262.263.812.812,0,0,0,.093.394,1.255,1.255,0,0,1,.156.591.81.81,0,0,1-.351.584,3.553,3.553,0,0,1-.621.331,3.739,3.739,0,0,0-1.972,1.825,1.163,1.163,0,0,1-.755.552l-.988.361c-.29.106-.622.259-.683.561a.8.8,0,0,0,.364.71,1.8,1.8,0,0,1,.581.592.688.688,0,0,1-.06.646.709.709,0,0,1-.58.295,3.271,3.271,0,0,0-1.324.194,1.966,1.966,0,0,0-.966,1.382,1.894,1.894,0,0,0,2.714,2.2c1.243-.667,1.449-2.5,2.664-3.216a3.961,3.961,0,0,1,2.105-.353c1.211.02,1.978,1.46,2.3,2.628.057.2.12.438.313.523a.447.447,0,0,0,.46-.1,1.327,1.327,0,0,0,.276-.41,1.2,1.2,0,0,0,.188-.774c-.084-.379-.492-.571-.826-.768a3.613,3.613,0,0,1-1.126-1.041.543.543,0,0,1-.121-.538.394.394,0,0,1,.442-.158,1.15,1.15,0,0,1,.431.257,6.709,6.709,0,0,1,2.461,3.492,1.61,1.61,0,0,0,.165.486.468.468,0,0,0,.425.242.485.485,0,0,0,.363-.512,2.081,2.081,0,0,0-.193-.658.863.863,0,0,1-.031-.669.593.593,0,0,1,.684.022,1.739,1.739,0,0,1,.465.559l.927,1.5a1,1,0,0,0,.772.5,3.528,3.528,0,0,0,.99-.119,1.863,1.863,0,0,1,.988.009,1.1,1.1,0,0,1,.108,1.988,2.579,2.579,0,0,1-1.191.159l-1.942-.048a4.517,4.517,0,0,1-1.307-.161c-.411-.136-.84-.393-1.245-.24a1.44,1.44,0,0,0-.582.544,1.152,1.152,0,0,1-.615.5c-.263.058-.591-.156-.536-.421a2.192,2.192,0,0,0-1.5-.889.972.972,0,0,1-.529-.14c-.237-.2-.155-.569-.155-.877a1.394,1.394,0,0,0-.844-1.257,3.345,3.345,0,0,0-2.251.1,13.717,13.717,0,0,1-2.166.69,7.027,7.027,0,0,0-.941.143,1.044,1.044,0,0,0-.713.58c-.542,1.459-1.964,2.516-2.889,3.767a10.59,10.59,0,0,0-1.584,2.648,5.958,5.958,0,0,0-.2,1.55q-.041.515-.083,1.029a3.728,3.728,0,0,0-.015.635,1.879,1.879,0,0,0,.406,1c.673.187,1.034,1.038,1.251,1.7a3.708,3.708,0,0,0,.937,1.839,2.1,2.1,0,0,0,1.714.345,6.233,6.233,0,0,0,1.669-.67c1.219-.632,2.795.026,3.986.709a4.618,4.618,0,0,1,.643.374c.281.229.588.51.58.872a2.7,2.7,0,0,1-.308.8,1.117,1.117,0,0,0,.443,1.28,3.582,3.582,0,0,1,1.184,4.074c-.184.509-.489.973-.622,1.5a1.336,1.336,0,0,0,.419,1.46,2.648,2.648,0,0,1,.856,1.889c.106.578.066,1.172.136,1.755a2.188,2.188,0,0,0,.75,1.539c.692.509,0,1.837.53,2.516a1.754,1.754,0,0,0,1.442.526,4.745,4.745,0,0,0,3.278-1.4,3.939,3.939,0,0,0,1.14-1.449,2.078,2.078,0,0,1,1.31-1.882c.318-.248.58-.682.4-1.041a2.171,2.171,0,0,1,.3-2.141,9.9,9.9,0,0,1,1.316-1.205,1.589,1.589,0,0,0,.57-1.59,6.619,6.619,0,0,1-.16-3.746A4.125,4.125,0,0,1,272.5,192.5a4.077,4.077,0,0,0,1.8-1.71,2.137,2.137,0,0,0,.007-2.392,2.179,2.179,0,0,0-1.289-.61,4.558,4.558,0,0,1-1.339-.338,1.674,1.674,0,0,1-.782-.908c-.1-.276-.415-.388-.619-.6a3.486,3.486,0,0,1-.532-.8l-.788-1.453c-.549-1.012-1.015-2.13-1.559-3.145a1.186,1.186,0,0,1-.179-.507.407.407,0,0,1,.273-.42c.208-.049.4.13.533.295a18.992,18.992,0,0,1,2.823,4.565,8.836,8.836,0,0,0,.746,1.747,1.979,1.979,0,0,0,1.6.888,2.932,2.932,0,0,0,1.365-.543l1.931-1.18a5.108,5.108,0,0,0,1.148-.86,1.723,1.723,0,0,0,.5-1.3,1.054,1.054,0,0,0-.915-.955,5.594,5.594,0,0,1-2.026-.373,1.263,1.263,0,0,1-.845-.73,1.9,1.9,0,0,0-.807-1.069,1.84,1.84,0,0,1-.328-.238.393.393,0,0,1-.117-.369.361.361,0,0,1,.231-.221.824.824,0,0,1,.328-.03,1.362,1.362,0,0,1,.577.153c.377.212.591.657.935.919a1.748,1.748,0,0,0,1.2.4,2.877,2.877,0,0,1,.678-.073,1.674,1.674,0,0,1,.711.4.891.891,0,0,0,.761.228,6.56,6.56,0,0,1,2.367.179,1.505,1.505,0,0,1,.621.138.513.513,0,0,1,.284.526.961.961,0,0,0,1.513,1.024c.237-.179.572.065.686.339a2.214,2.214,0,0,1,.082.88,4.545,4.545,0,0,0,.352,1.795,13.5,13.5,0,0,0,1.228,2.383c.153.224.343.469.613.49a.666.666,0,0,0,.623-.511,3.371,3.371,0,0,0,.072-.864,3.1,3.1,0,0,1,1.207-2.3c.474-.36.862-.844,1.345-1.193a1.157,1.157,0,0,0,.507-.585c.055-.213-.01-.464.122-.64a.463.463,0,0,1,.406-.157,1.372,1.372,0,0,1,.432.132,3.7,3.7,0,0,1,1.288.782,1.752,1.752,0,0,1,.481.785,5.335,5.335,0,0,0,.2.916.786.786,0,0,0,.7.534c.153-.008.3-.082.451-.079a.629.629,0,0,1,.513.356,1.864,1.864,0,0,1,.164.63,11.055,11.055,0,0,0,.431,3.187,6.781,6.781,0,0,0,.492.846l.811,1.251a1.088,1.088,0,0,0,.632.416.45.45,0,0,0,.471-.048.34.34,0,0,0,.054-.331,1,1,0,0,0-.181-.3c-.249-.32-.422-.676-.644-1.015s-.443-.672-.666-1.007a3.813,3.813,0,0,1-.5-.911,1.262,1.262,0,0,1,.055-1.01c.1-.178.195-.326.4-.35a.573.573,0,0,1,.531.244c.014.214.273.333.477.4a.942.942,0,0,1,.55.3c.109.173.074.41.193.577a.366.366,0,0,0,.664-.227.861.861,0,0,1,.358-.587,2.582,2.582,0,0,0,.482-.353.787.787,0,0,0-.016-1.029,5.553,5.553,0,0,1-1.581-2.51,1.261,1.261,0,0,1-.026-.545.524.524,0,0,1,.341-.4,8,8,0,0,1,1.368-.187,4.034,4.034,0,0,0,.854-.146,1.352,1.352,0,0,0,.7-.481,4.972,4.972,0,0,1,1.426-1.111c.236-.159.479-.386.461-.669a1.335,1.335,0,0,1,.262-.867,7.162,7.162,0,0,0,.559-.773.877.877,0,0,0,0-.906,2.154,2.154,0,0,1-.4-.748,6.245,6.245,0,0,1-.072-.662,2.034,2.034,0,0,0-.63-1.223.837.837,0,0,1-.076-1.092c.142-.164.369-.279.413-.492s-.142-.432-.335-.559a1.318,1.318,0,0,1-.522-.442.613.613,0,0,1,.254-.752.986.986,0,0,1,.839-.055,2.4,2.4,0,0,1,1.1.953,8.489,8.489,0,0,1,.746,1.652.993.993,0,0,0,.283.434.622.622,0,0,0,.819-.159,1.087,1.087,0,0,0,.16-.88,2.83,2.83,0,0,0-.623-1.032,1.51,1.51,0,0,1-.108-2.035,4.216,4.216,0,0,1,.776-1.218c.24-.234.532-.407.783-.628a1.272,1.272,0,0,0,.488-.846c.076-1.479.665-2.867.349-4.315a5.861,5.861,0,0,0-.814-1.843,2.312,2.312,0,0,0-1.049-.992c-.079-.03-.16-.054-.239-.086a1.086,1.086,0,0,1-.261-1.851,1.224,1.224,0,0,0,.33-1.205,1.875,1.875,0,0,1-.081-.731.8.8,0,0,1,.376-.474,2.37,2.37,0,0,1,.575-.228c.832-.248,1.737-.076,2.577-.3a1.661,1.661,0,0,0,.859-.44.656.656,0,0,0,.023-.884c-.029-.4-.06-.834-.089-1.236a1.578,1.578,0,0,1,.02-.53.537.537,0,0,1,.333-.387c.4-.124.8.4,1.194.257.149.084.292-.1.338-.264s.073-.367.229-.439a.326.326,0,0,1,.406.221.942.942,0,0,1-.019.514l-.252,1.109q-.361,1.589-.722,3.178a2.21,2.21,0,0,0,.358,1.729,27.015,27.015,0,0,1,1.641,2.989.591.591,0,0,0,.278.312c.251.092.494-.2.5-.468a4.721,4.721,0,0,0-.165-.781c-.1-.64.338-1.225.526-1.845a3.306,3.306,0,0,0-.524-2.715c-.323-.49-.82-.856-.9-1.438a1.379,1.379,0,0,1,.754-1.452,2.77,2.77,0,0,1,.695-.135,1.359,1.359,0,0,0,.664-.224.56.56,0,0,0,.215-.624,1.314,1.314,0,0,1,.278-1.178,2.2,2.2,0,0,0,.525-1.129c0-.218-.064-.468.081-.631a2.1,2.1,0,0,1,.263-.184.455.455,0,0,0-.105-.734,1.226,1.226,0,0,1-.725-.729,2.429,2.429,0,0,1,0-1.018,2.275,2.275,0,0,1,.258-.9.776.776,0,0,1,.794-.391,1.632,1.632,0,0,1,.844.341,5.3,5.3,0,0,1,.347.464.831.831,0,0,0,.458.335.4.4,0,0,0,.465-.242A.463.463,0,0,0,319.135,146.545Zm-49.482,25.817a.85.85,0,0,1-.863.456,6.7,6.7,0,0,1-1.018-.232,2.667,2.667,0,0,0-2.24.563c-.261.22-.669.629-1.023.326a.906.906,0,0,1-.14-.935,4.9,4.9,0,0,1,1.309-2.088l.443-.4a1.142,1.142,0,0,1,.279-.206c.356-.164.76.07,1.082.294l1.464,1.019a2.3,2.3,0,0,1,.567.5A.779.779,0,0,1,269.653,172.362Zm5,2.524a.973.973,0,0,1-1.286-.443,4.2,4.2,0,0,1-.341-1.5c-.167-1.016-1.322-2.078-.832-3.13a1.011,1.011,0,0,1,1.081-.568.861.861,0,0,1,.656.985c-.076.322-.348.564-.451.878a1.458,1.458,0,0,0,.418,1.338,6.58,6.58,0,0,1,.945,1.115A1.033,1.033,0,0,1,274.648,174.886Zm2.82-3.742a.879.879,0,0,1-.622.5.633.633,0,0,1-.6-.741,1.108,1.108,0,0,1,.094-.251l.14-.3.1-.222a.779.779,0,0,1,.352-.43C277.791,169.351,277.688,170.763,277.468,171.144Z" transform="translate(-197.274 -137.299)"></path>
            <path class="e" d="M257.053,190.335a1.613,1.613,0,0,1,.417,1.126c-.078.567-1.784,1.854-.453,2,.934.1,2.464-.6,2.017-1.76-.222-.575-.831-.9-1.057-1.474a7.353,7.353,0,0,1-.191-1.119c-.082-.37-.356-.758-.735-.746-.41.013-.661.507-.591.911A2.653,2.653,0,0,0,257.053,190.335Z" transform="translate(-202.901 -163.199)"></path>
            <path class="e" d="M253.056,195.457a.955.955,0,0,0,.114.36.427.427,0,0,0,.3.212c.216.027.4-.155.537-.321a2.747,2.747,0,0,0,.513-.763c.243-.631-.186-1.3-.889-.95a1.085,1.085,0,0,0-.523.631A1.775,1.775,0,0,0,253.056,195.457Z" transform="translate(-201.048 -166.201)"></path>
            <path class="e" d="M298.871,162.67c.168.079.389.131.522,0,.268-.263-.122-.659-.24-.894a3.444,3.444,0,0,1-.21-.711c-.13-.487-.661-1.266-1.242-.779a.688.688,0,0,0-.225.509,1.329,1.329,0,0,0,.124.555A2.591,2.591,0,0,0,298.871,162.67Z" transform="translate(-225.133 -147.904)"></path>
            <path class="e" d="M299.336,152.674a3.171,3.171,0,0,1,1.222-1.619,2.367,2.367,0,0,0,1.153-1.54c.022-.3-.161-.668-.46-.643a.679.679,0,0,0-.4.248l-2.215,2.272c-.353.362-.735.821-.616,1.312C298.211,153.476,299.1,153.283,299.336,152.674Z" transform="translate(-225.418 -141.801)"></path>
            <path class="e" d="M382.291,190.988a2.221,2.221,0,0,0,.643,1.111c.125.1.6.419.762.2.117-.165-.371-.894-.448-1.093a6.662,6.662,0,0,1-.361-1.335c-.092-.57-.109-1.151-.224-1.716a2.709,2.709,0,0,0-.774-1.515c-.2-.177-.525-.3-.715-.114a.451.451,0,0,0-.038.515,2.47,2.47,0,0,0,.342.433,3.109,3.109,0,0,1,.591,1.7A11.139,11.139,0,0,0,382.291,190.988Z" transform="translate(-270.434 -162.154)"></path>
            <path class="e" d="M377.884,213.313a1.266,1.266,0,0,0-.425.809c-.039.659.795,1.055,1.069.367.119-.3.07-.506.307-.789a4.131,4.131,0,0,1,.928-.8,5.475,5.475,0,0,0,1.615-1.141,3.375,3.375,0,0,0,.362-2.292c-.02-.249-.088-.558-.332-.614a.412.412,0,0,0-.41.2,1.4,1.4,0,0,0-.164.454,5.779,5.779,0,0,1-2.2,3.251A6.693,6.693,0,0,0,377.884,213.313Z" transform="translate(-268.474 -174.298)"></path>
            <path class="e" d="M354.227,254.574l-2.087-2.154a2.15,2.15,0,0,0-.654-.519.73.73,0,0,0-.787.092.819.819,0,0,0,.143,1.11c.3.292.7.448,1.021.712a4.224,4.224,0,0,1,.93,1.347,2.921,2.921,0,0,0,1.038,1.252c.393.221,1.286.287,1.443-.279C355.421,255.6,354.546,254.9,354.227,254.574Z" transform="translate(-253.885 -197.593)"></path>
            <path class="e" d="M365.671,254.006c.14-.27-.106-.612,0-.9.153-.393.826-.336.99-.725.135-.323-.2-.658-.2-1.008,0-.5.652-.886.5-1.356a.641.641,0,0,0-.864-.274,2.834,2.834,0,0,0-.776.654,3.85,3.85,0,0,1-1.77.934c-.489.131-.876.288-.944.85-.161,1.345,1.245,1.96,2.323,2.052C365.207,254.259,365.545,254.249,365.671,254.006Z" transform="translate(-260.421 -196.43)"></path>
            <path class="e" d="M303.469,268.628a.826.826,0,0,0-.492.562,1.782,1.782,0,0,1-.343.689c-.3.288-.8.268-1.089.568s-.219.725-.29,1.094a1.446,1.446,0,0,1-.428.782,1,1,0,0,0-.016,1.532,1.192,1.192,0,0,0,1.427.117,2.01,2.01,0,0,0,.72-1.461,4.759,4.759,0,0,1,.351-1.633,8.434,8.434,0,0,1,.573-.8,1.3,1.3,0,0,0,.28-.918A.619.619,0,0,0,303.469,268.628Z" transform="translate(-226.749 -206.688)"></path>
          </g>
        </g>
      </g>
    </g>
    <path class="a" d="M4.19-12.087v-7.381H6.66l4.167,7.381h3.045L9.424-19.735a6.058,6.058,0,0,0,3.438-2.091,6.13,6.13,0,0,0,1.473-4.139,5.914,5.914,0,0,0-1.88-4.448,6.446,6.446,0,0,0-4.588-1.8H1.37v20.121Zm0-17.582H7.867a3.541,3.541,0,0,1,2.652,1.024,3.723,3.723,0,0,1,1,2.68,4.079,4.079,0,0,1-1.01,2.806,3.355,3.355,0,0,1-2.638,1.151H4.19Zm13.442,1.235a1.692,1.692,0,0,0,1.7-1.726,1.692,1.692,0,0,0-1.7-1.726,1.707,1.707,0,0,0-1.726,1.726A1.707,1.707,0,0,0,17.633-28.434ZM19.05-12.087V-26.456H16.23v14.368ZM35.706-32.209H32.857v7.591a5.648,5.648,0,0,0-4.532-2.063,7.3,7.3,0,0,0-3.718.982A7.336,7.336,0,0,0,21.9-23a7.324,7.324,0,0,0-1,3.732,7.273,7.273,0,0,0,1,3.718,7.336,7.336,0,0,0,2.708,2.694,7.31,7.31,0,0,0,3.718,1,7.4,7.4,0,0,0,7.381-7.409Zm-7.381,8.251A4.374,4.374,0,0,1,31.594-22.6a4.6,4.6,0,0,1,1.319,3.326,4.6,4.6,0,0,1-1.319,3.326,4.353,4.353,0,0,1-3.269,1.361,4.383,4.383,0,0,1-3.283-1.361,4.6,4.6,0,0,1-1.319-3.326A4.607,4.607,0,0,1,25.056-22.6,4.353,4.353,0,0,1,28.325-23.958Zm9.934,8.419a7.123,7.123,0,0,0,2.68,2.68,7.287,7.287,0,0,0,3.732,1A7.31,7.31,0,0,0,48.643-13a7.453,7.453,0,0,0,2.75-3l-3.368-.028a4.492,4.492,0,0,1-3.452,1.445,4.261,4.261,0,0,1-2.919-1.024,3.8,3.8,0,0,1-1.361-2.624H51.912A8.788,8.788,0,0,0,52-19.524a7.33,7.33,0,0,0-2.371-5.262,7.721,7.721,0,0,0-5.051-1.894,7.065,7.065,0,0,0-3.7,1.01,7.186,7.186,0,0,0-2.638,2.708,7.561,7.561,0,0,0-.954,3.718A7.247,7.247,0,0,0,38.26-15.539Zm2.035-5A4.654,4.654,0,0,1,41.866-23a4.3,4.3,0,0,1,2.806-.954,4.2,4.2,0,0,1,2.722.968,4.582,4.582,0,0,1,1.586,2.456ZM58.9-11.863A6.936,6.936,0,0,0,63-12.986a3.7,3.7,0,0,0,1.543-3.241c-.084-5.543-8.223-3.326-8.223-6.2,0-1.052,1.038-1.754,2.442-1.754a3.373,3.373,0,0,1,1.852.491,1.521,1.521,0,0,1,.758,1.319h2.708A3.807,3.807,0,0,0,62.6-25.544a6.081,6.081,0,0,0-3.789-1.137,6.28,6.28,0,0,0-3.789,1.123A3.47,3.47,0,0,0,53.5-22.639c0,5.571,8.223,3.115,8.223,6.356,0,1.137-1.024,1.894-2.764,1.894a3.869,3.869,0,0,1-2.147-.547,1.675,1.675,0,0,1-.842-1.459H53.273a3.907,3.907,0,0,0,.8,2.456A5.826,5.826,0,0,0,58.9-11.863ZM72.286-26.68a4.237,4.237,0,0,0-3.508,1.515v-7.044h-2.82v20.121h2.82v-7.619c0-2.848,1.221-4.252,3.508-4.252,2.343,0,3.508,1.431,3.508,4.308v7.563h2.82v-7.563C78.615-24.478,75.963-26.68,72.286-26.68ZM87.609-11.863a5.523,5.523,0,0,0,2.764-.716,4.151,4.151,0,0,0,1.8-1.782v2.273h2.82v-7.184A7.311,7.311,0,0,0,94.008-23,7.3,7.3,0,0,0,91.313-25.7a7.247,7.247,0,0,0-3.7-.982,7.3,7.3,0,0,0-3.718.982A7.336,7.336,0,0,0,81.183-23a7.324,7.324,0,0,0-1,3.732A7.423,7.423,0,0,0,87.609-11.863Zm-3.255-4.083a4.563,4.563,0,0,1-1.347-3.326A4.607,4.607,0,0,1,84.34-22.6a4.414,4.414,0,0,1,3.3-1.361,4.371,4.371,0,0,1,3.269,1.347,4.7,4.7,0,0,1,1.291,3.34,4.64,4.64,0,0,1-1.3,3.326,4.3,4.3,0,0,1-3.255,1.361A4.383,4.383,0,0,1,84.354-15.946ZM99.8-12.087v-7.507c0-2.82,1.165-4.2,3.227-4.2h.281v-2.722h-.281a5.771,5.771,0,0,0-4.392,1.74,7.243,7.243,0,0,0-1.656,5.178v7.507Zm5.206-3.452a7.123,7.123,0,0,0,2.68,2.68,7.287,7.287,0,0,0,3.732,1A7.31,7.31,0,0,0,115.392-13a7.453,7.453,0,0,0,2.75-3l-3.368-.028a4.492,4.492,0,0,1-3.452,1.445,4.261,4.261,0,0,1-2.919-1.024,3.8,3.8,0,0,1-1.361-2.624h11.618a8.789,8.789,0,0,0,.084-1.291,7.33,7.33,0,0,0-2.371-5.262,7.721,7.721,0,0,0-5.051-1.894,7.065,7.065,0,0,0-3.7,1.01,7.186,7.186,0,0,0-2.638,2.708,7.562,7.562,0,0,0-.954,3.718A7.247,7.247,0,0,0,105.008-15.539Zm2.035-5A4.654,4.654,0,0,1,108.615-23a4.3,4.3,0,0,1,2.806-.954,4.2,4.2,0,0,1,2.722.968,4.582,4.582,0,0,1,1.586,2.456Z" transform="translate(-1.37 130.293)"></path>
    <path class="a" d="M7.468-18.281H.774V-6.908H1.821v-5.457H6.85v-.991H1.821V-17.29H7.468Zm15.9,11.5a5.907,5.907,0,0,0,2.292-.452,5.824,5.824,0,0,0,1.864-1.229,5.814,5.814,0,0,0,1.237-1.848,5.735,5.735,0,0,0,.46-2.284,5.735,5.735,0,0,0-.46-2.284,5.851,5.851,0,0,0-1.237-1.856,5.8,5.8,0,0,0-1.864-1.221,5.907,5.907,0,0,0-2.292-.452,5.829,5.829,0,0,0-2.276.452,5.719,5.719,0,0,0-1.864,1.221,5.741,5.741,0,0,0-1.245,1.856,5.735,5.735,0,0,0-.46,2.284,5.735,5.735,0,0,0,.46,2.284,5.706,5.706,0,0,0,1.245,1.848,5.738,5.738,0,0,0,1.864,1.229A5.829,5.829,0,0,0,23.368-6.781Zm0-1.023a4.82,4.82,0,0,1-2.427-.634A4.546,4.546,0,0,1,19.2-10.168a4.747,4.747,0,0,1-.642-2.427,4.747,4.747,0,0,1,.642-2.427,4.567,4.567,0,0,1,1.737-1.737,4.813,4.813,0,0,1,2.427-.627,4.821,4.821,0,0,1,2.435.627,4.643,4.643,0,0,1,1.745,1.737,4.82,4.82,0,0,1,.634,2.427,4.82,4.82,0,0,1-.634,2.427A4.622,4.622,0,0,1,25.8-8.439,4.828,4.828,0,0,1,23.368-7.8Zm21.9,1.023a5.907,5.907,0,0,0,2.292-.452,5.824,5.824,0,0,0,1.864-1.229,5.814,5.814,0,0,0,1.237-1.848,5.734,5.734,0,0,0,.46-2.284,5.734,5.734,0,0,0-.46-2.284,5.851,5.851,0,0,0-1.237-1.856,5.8,5.8,0,0,0-1.864-1.221,5.907,5.907,0,0,0-2.292-.452A5.829,5.829,0,0,0,43-17.956a5.719,5.719,0,0,0-1.864,1.221,5.741,5.741,0,0,0-1.245,1.856,5.734,5.734,0,0,0-.46,2.284,5.734,5.734,0,0,0,.46,2.284,5.706,5.706,0,0,0,1.245,1.848A5.738,5.738,0,0,0,43-7.233,5.829,5.829,0,0,0,45.272-6.781Zm0-1.023a4.82,4.82,0,0,1-2.427-.634,4.547,4.547,0,0,1-1.737-1.729,4.747,4.747,0,0,1-.642-2.427,4.747,4.747,0,0,1,.642-2.427,4.567,4.567,0,0,1,1.737-1.737,4.813,4.813,0,0,1,2.427-.627,4.821,4.821,0,0,1,2.435.627,4.643,4.643,0,0,1,1.745,1.737,4.82,4.82,0,0,1,.634,2.427,4.82,4.82,0,0,1-.634,2.427,4.622,4.622,0,0,1-1.745,1.729A4.828,4.828,0,0,1,45.272-7.8ZM61.41-18.281V-6.908h3.331A6.047,6.047,0,0,0,68.9-8.526a5.614,5.614,0,0,0,1.7-4.069,5.632,5.632,0,0,0-1.7-4.077,6.041,6.041,0,0,0-4.156-1.61ZM62.457-7.9v-9.39h2.284a4.652,4.652,0,0,1,4.806,4.7,4.652,4.652,0,0,1-4.806,4.7ZM81.925-18.281H80.879V-6.908h1.047Zm17.058,0H92.29V-6.908h6.694V-7.9H93.337v-4.465h5.028v-.991H93.337V-17.29h5.647Zm17.3,8.272c0-4.2-5.687-2.482-5.687-5.488a1.772,1.772,0,0,1,.595-1.38,2.152,2.152,0,0,1,1.507-.539,2.1,2.1,0,0,1,1.515.555,1.959,1.959,0,0,1,.579,1.491h1.039a2.9,2.9,0,0,0-.888-2.189,3.147,3.147,0,0,0-2.244-.849,3.242,3.242,0,0,0-2.244.8,2.7,2.7,0,0,0-.9,2.094,2.424,2.424,0,0,0,.722,1.856,4.87,4.87,0,0,0,1.658.928c1.554.547,3.307.888,3.307,2.72a2.073,2.073,0,0,1-.682,1.642,2.636,2.636,0,0,1-1.784.595,2.577,2.577,0,0,1-1.832-.65,2.179,2.179,0,0,1-.706-1.681H109.2a3.091,3.091,0,0,0,1.023,2.379,3.592,3.592,0,0,0,2.522.944,3.691,3.691,0,0,0,2.53-.888A2.964,2.964,0,0,0,116.279-10.009Z" transform="translate(-0.522 142.605)"></path>
  </g>
</svg>
