<?xml version="1.0" encoding="UTF-8"?>
<svg xmlns="http://www.w3.org/2000/svg" xmlns:xlink="http://www.w3.org/1999/xlink" width="120" height="120" viewBox="0 0 120 120">
  <defs>
    <linearGradient id="linear-gradient" x1="0.281" y1="-0.369" x2="0.625" y2="0.997" gradientUnits="objectBoundingBox">
      <stop offset="0" stop-color="#e5c499"></stop>
      <stop offset="1" stop-color="#ac8461"></stop>
    </linearGradient>
    <linearGradient id="linear-gradient-2" x1="0.15" y1="-0.923" x2="0.7" y2="1.343" xlink:href="#linear-gradient"></linearGradient>
    <radialGradient id="radial-gradient" cx="-0.265" cy="-0.421" r="1.538" gradientTransform="translate(0.044) scale(0.912 1)" gradientUnits="objectBoundingBox">
      <stop offset="0" stop-color="#552210"></stop>
      <stop offset="0.078" stop-color="#6d4232"></stop>
      <stop offset="0.212" stop-color="#937368"></stop>
      <stop offset="0.348" stop-color="#b49e96"></stop>
      <stop offset="0.482" stop-color="#cfc1bc"></stop>
      <stop offset="0.616" stop-color="#e4dcd9"></stop>
      <stop offset="0.747" stop-color="#f3efee"></stop>
      <stop offset="0.876" stop-color="#fcfbfa"></stop>
      <stop offset="1" stop-color="#fff"></stop>
    </radialGradient>
    <radialGradient id="radial-gradient-2" cx="1.182" cy="-0.431" r="1.506" xlink:href="#radial-gradient"></radialGradient>
    <radialGradient id="radial-gradient-3" cx="-0.346" cy="-1.222" r="4.662" gradientTransform="translate(0.392) scale(0.216 1)" xlink:href="#radial-gradient"></radialGradient>
    <radialGradient id="radial-gradient-4" cx="0.143" cy="-0.12" r="1.303" gradientTransform="translate(0.177) scale(0.646 1)" gradientUnits="objectBoundingBox">
      <stop offset="0" stop-color="#ddc2a0"></stop>
      <stop offset="0.074" stop-color="#cbb292"></stop>
      <stop offset="0.534" stop-color="#5e5344"></stop>
      <stop offset="0.852" stop-color="#1a1713"></stop>
      <stop offset="1"></stop>
    </radialGradient>
    <radialGradient id="radial-gradient-5" cx="0.045" cy="-0.083" r="1.326" xlink:href="#radial-gradient-4"></radialGradient>
    <radialGradient id="radial-gradient-6" cx="0.594" cy="-0.03" r="0.789" gradientTransform="translate(-0.198) scale(1.397 1)" xlink:href="#radial-gradient-4"></radialGradient>
    <radialGradient id="radial-gradient-7" cx="0.51" cy="0.018" r="0.851" gradientTransform="translate(-0.183) scale(1.365 1)" gradientUnits="objectBoundingBox">
      <stop offset="0" stop-color="#ddc2a0"></stop>
      <stop offset="0.513" stop-color="#635747"></stop>
      <stop offset="0.759" stop-color="#2e2821"></stop>
      <stop offset="0.854" stop-color="#1a1612"></stop>
      <stop offset="1"></stop>
    </radialGradient>
    <radialGradient id="radial-gradient-8" cx="-0.036" cy="-0.334" r="1.162" gradientTransform="translate(-0.1) scale(1.199 1)" xlink:href="#radial-gradient"></radialGradient>
    <radialGradient id="radial-gradient-9" cx="1.048" cy="-0.329" r="1.067" gradientTransform="translate(-0.071) scale(1.142 1)" xlink:href="#radial-gradient"></radialGradient>
    <linearGradient id="linear-gradient-3" x1="0.482" y1="-0.29" x2="0.527" y2="1.674" xlink:href="#linear-gradient"></linearGradient>
    <linearGradient id="linear-gradient-4" x1="0.472" y1="-0.736" x2="0.517" y2="1.228" xlink:href="#linear-gradient"></linearGradient>
  </defs>
  <g id="Salon_App_Logo" data-name="Salon App Logo" transform="translate(1768.616 -569.834)">
    <g id="Group_15994" data-name="Group 15994" transform="translate(-1768.616 569.834)">
      <g id="Group_15992" data-name="Group 15992" transform="translate(0)">
        <g id="Group_15991" data-name="Group 15991">
          <path id="Path_84811" data-name="Path 84811" d="M-1653.332,606.479a59.8,59.8,0,0,0-12.858-19.071,59.807,59.807,0,0,0-19.071-12.858q-2.081-.88-4.208-1.6a59.732,59.732,0,0,0-19.147-3.118,59.735,59.735,0,0,0-19.147,3.118q-2.127.717-4.208,1.6a59.805,59.805,0,0,0-19.071,12.858,59.8,59.8,0,0,0-12.858,19.071,59.62,59.62,0,0,0-4.716,23.355,59.612,59.612,0,0,0,4.716,23.354,59.808,59.808,0,0,0,12.858,19.073,59.8,59.8,0,0,0,19.071,12.858q2.08.88,4.208,1.6a59.734,59.734,0,0,0,19.147,3.119,59.732,59.732,0,0,0,19.147-3.119q2.127-.717,4.208-1.6a59.8,59.8,0,0,0,19.071-12.858,59.808,59.808,0,0,0,12.858-19.073,59.617,59.617,0,0,0,4.716-23.354A59.624,59.624,0,0,0-1653.332,606.479Zm-37.461,78.269a57.9,57.9,0,0,1-25.166,2.351,57.324,57.324,0,0,1-10.481-2.351,57.832,57.832,0,0,1-39.906-54.913,57.836,57.836,0,0,1,39.906-54.915,57.885,57.885,0,0,1,35.646,0,57.834,57.834,0,0,1,39.9,54.915A57.831,57.831,0,0,1-1690.793,684.747Z" transform="translate(1768.616 -569.834)" fill="url(#linear-gradient)"></path>
          <path id="Path_84812" data-name="Path 84812" d="M-1505.73,826.436c-4.325,0-6.143,3.239-6.877,5.44a26.14,26.14,0,0,1-1.7,3.977l-6.821-9.651,15.451-18.138a10.584,10.584,0,0,0,2.368-5.015l.771-4.34.989-5.558a.266.266,0,0,0-.475-.219l-21.307,30.15-21.307-30.15a.267.267,0,0,0-.476.219l1.138,6.393.624,3.505a10.581,10.581,0,0,0,2.366,5.015l15.453,18.138-6.82,9.651a26.128,26.128,0,0,1-1.7-3.977c-.734-2.2-2.552-5.44-6.877-5.44-5.735,0-5.991,7-6,8.034,0,.074,0,.146.006.22a8.438,8.438,0,0,0,8.173,7.694,8.156,8.156,0,0,0,5.756-2.207l1.88-2.253,7.786-9.138,5.518,6.475,2.269,2.662,1.878,2.253a8.162,8.162,0,0,0,5.756,2.207,8.44,8.44,0,0,0,8.175-7.694c0-.074.006-.146.006-.22C-1499.739,833.435-1500,826.436-1505.73,826.436Zm-33.315,14.355a6.9,6.9,0,0,1-5.722-3.135,4.851,4.851,0,0,1-.347-4.8,4.272,4.272,0,0,1,4.156-2.379c3.447,0,4.341,4.075,6.621,7.987A6.425,6.425,0,0,1-1539.044,840.792Zm37.142-3.135a6.9,6.9,0,0,1-5.723,3.135,6.424,6.424,0,0,1-4.708-2.324c2.28-3.912,3.173-7.987,6.621-7.987a4.272,4.272,0,0,1,4.156,2.379A4.851,4.851,0,0,1-1501.9,837.656Zm-3.827-11.22c-4.325,0-6.143,3.239-6.877,5.44a26.14,26.14,0,0,1-1.7,3.977l-6.821-9.651,15.451-18.138a10.584,10.584,0,0,0,2.368-5.015l.771-4.34.989-5.558a.266.266,0,0,0-.475-.219l-21.307,30.15-21.307-30.15a.267.267,0,0,0-.476.219l1.138,6.393.624,3.505a10.581,10.581,0,0,0,2.366,5.015l15.453,18.138-6.82,9.651a26.128,26.128,0,0,1-1.7-3.977c-.734-2.2-2.552-5.44-6.877-5.44-5.735,0-5.991,7-6,8.034,0,.074,0,.146.006.22a8.438,8.438,0,0,0,8.173,7.694,8.156,8.156,0,0,0,5.756-2.207l1.88-2.253,7.786-9.138,5.518,6.475,2.269,2.662,1.878,2.253a8.162,8.162,0,0,0,5.756,2.207,8.44,8.44,0,0,0,8.175-7.694c0-.074.006-.146.006-.22C-1499.739,833.435-1500,826.436-1505.73,826.436Zm-33.315,14.355a6.9,6.9,0,0,1-5.722-3.135,4.851,4.851,0,0,1-.347-4.8,4.272,4.272,0,0,1,4.156-2.379c3.447,0,4.341,4.075,6.621,7.987A6.425,6.425,0,0,1-1539.044,840.792Zm37.142-3.135a6.9,6.9,0,0,1-5.723,3.135,6.424,6.424,0,0,1-4.708-2.324c2.28-3.912,3.173-7.987,6.621-7.987a4.272,4.272,0,0,1,4.156,2.379A4.851,4.851,0,0,1-1501.9,837.656Zm-21.432-40.8a15.924,15.924,0,0,1-5.061-.817l-.92,1.945a18.074,18.074,0,0,0,5.981,1.009,18.15,18.15,0,0,0,3.934-.428v-2.2A15.957,15.957,0,0,1-1523.334,796.852Zm0,0a15.924,15.924,0,0,1-5.061-.817l-.92,1.945a18.074,18.074,0,0,0,5.981,1.009,18.15,18.15,0,0,0,3.934-.428v-2.2A15.957,15.957,0,0,1-1523.334,796.852Zm37.524,18.277a37.8,37.8,0,0,0-.565-6.524c-.088-.505-.188-1.016-.3-1.515a37.652,37.652,0,0,0-12.973-21.066,37.333,37.333,0,0,0-10.9-6.183,37.323,37.323,0,0,0-10.288-2.155q-1.25-.08-2.5-.079c-.834,0-1.671.026-2.5.079a37.283,37.283,0,0,0-5.221.715,37.144,37.144,0,0,0-5.065,1.441,37.311,37.311,0,0,0-10.9,6.183A37.654,37.654,0,0,0-1560,807.09c-.109.5-.209,1.01-.3,1.515a37.976,37.976,0,0,0-.564,6.524,37.514,37.514,0,0,0,5.061,18.833,37.551,37.551,0,0,0,4.083,5.714c-.008.013-.016.026-.026.039q.882,1.016,1.842,1.977a37.951,37.951,0,0,0,6.485,5.2,19.7,19.7,0,0,0,10.014,3.038c.216.006.337.006.337.006l0-.006a20.215,20.215,0,0,0,3-.152,22.648,22.648,0,0,0,6.728-1.971,22.649,22.649,0,0,0,6.728,1.971,20.217,20.217,0,0,0,3,.152v.006s.121,0,.337-.006a19.822,19.822,0,0,0,6.278-1.2,19.466,19.466,0,0,0,3.737-1.841,38,38,0,0,0,6.485-5.2q.96-.96,1.841-1.977l-.024-.039a37.54,37.54,0,0,0,4.082-5.714A37.5,37.5,0,0,0-1485.81,815.129Zm-39.075-35.22c1.032-.045,2.068-.045,3.1,0a35.016,35.016,0,0,1,13.652,3.455,14.63,14.63,0,0,1-11.267,13,15.957,15.957,0,0,1-3.934.488,15.924,15.924,0,0,1-5.061-.817,14.543,14.543,0,0,1-10.141-12.672A35.016,35.016,0,0,1-1524.885,779.909Zm-4.968,59.733q-.676-.829-1.267-1.716l7.786-9.138,5.518,6.475,2.269,2.662q-.593.885-1.267,1.716a28.019,28.019,0,0,1-6.519,5.924A28.018,28.018,0,0,1-1529.853,839.641Zm24.511,5.811.013.021c-.544.324-1.1.637-1.662.932-.117.062-.235.123-.353.183l-.16.083a15.716,15.716,0,0,1-13.767.066l.018-.01a27.372,27.372,0,0,0,4.244-3.03c.091-.079.175-.154.256-.227.194-.175.361-.329.5-.46.068-.065.128-.125.181-.177.186-.185.284-.29.284-.29a14.776,14.776,0,0,0,2.123-2.366,8.162,8.162,0,0,0,5.756,2.207,8.44,8.44,0,0,0,8.175-7.694c0-.074.006-.146.006-.22-.006-1.036-.263-8.034-6-8.034-4.325,0-6.143,3.239-6.877,5.44a26.14,26.14,0,0,1-1.7,3.977l-6.821-9.651,15.451-18.138a10.584,10.584,0,0,0,2.368-5.015l.771-4.34.989-5.558a.266.266,0,0,0-.475-.219l-21.307,30.15-21.307-30.15a.267.267,0,0,0-.476.219l1.138,6.393.624,3.505a10.581,10.581,0,0,0,2.366,5.015l15.453,18.138-6.82,9.651a26.128,26.128,0,0,1-1.7-3.977c-.734-2.2-2.552-5.44-6.877-5.44-5.735,0-5.991,7-6,8.034,0,.074,0,.146.006.22a8.438,8.438,0,0,0,8.173,7.694,8.156,8.156,0,0,0,5.756-2.207,14.793,14.793,0,0,0,2.124,2.366,25.265,25.265,0,0,0,5.48,4.194,15.716,15.716,0,0,1-13.767-.066l-.162-.083c-.686-.348-1.356-.723-2.014-1.115l.011-.021a35.448,35.448,0,0,1-17.261-30.323,35.535,35.535,0,0,1,.531-6.132c.083-.475.177-.954.28-1.423a35.323,35.323,0,0,1,17.2-23.143,16.742,16.742,0,0,0,11.265,13.548,18.074,18.074,0,0,0,5.981,1.009,18.15,18.15,0,0,0,3.934-.428,16.875,16.875,0,0,0,13.31-14.13,35.322,35.322,0,0,1,17.2,23.143c.1.468.2.948.28,1.423a35.693,35.693,0,0,1,.531,6.132A35.446,35.446,0,0,1-1505.343,845.452Zm-6.991-6.984c2.28-3.912,3.173-7.987,6.621-7.987a4.272,4.272,0,0,1,4.156,2.379,4.851,4.851,0,0,1-.347,4.8,6.9,6.9,0,0,1-5.723,3.135A6.424,6.424,0,0,1-1512.333,838.468Zm-22,0a6.425,6.425,0,0,1-4.709,2.324,6.9,6.9,0,0,1-5.722-3.135,4.851,4.851,0,0,1-.347-4.8,4.272,4.272,0,0,1,4.156-2.379C-1537.51,830.481-1536.615,834.556-1534.335,838.468Zm11-41.616a15.924,15.924,0,0,1-5.061-.817l-.92,1.945a18.074,18.074,0,0,0,5.981,1.009,18.15,18.15,0,0,0,3.934-.428v-2.2A15.957,15.957,0,0,1-1523.334,796.852Zm0,0a15.924,15.924,0,0,1-5.061-.817l-.92,1.945a18.074,18.074,0,0,0,5.981,1.009,18.15,18.15,0,0,0,3.934-.428v-2.2A15.957,15.957,0,0,1-1523.334,796.852Zm-21.307-3.92a.267.267,0,0,0-.476.219l1.138,6.393.624,3.505a10.581,10.581,0,0,0,2.366,5.015l15.453,18.138.531-.753,1.672-2.366Z" transform="translate(1583.334 -755.129)" fill="url(#linear-gradient-2)"></path>
        </g>
        <path id="Path_84813" data-name="Path 84813" d="M-1293.677,1342.818l-2.061,1.171a25.266,25.266,0,0,1-5.48-4.194,14.79,14.79,0,0,1-2.125-2.366l1.88-2.252q.59.885,1.267,1.716A28.007,28.007,0,0,0-1293.677,1342.818Z" transform="translate(1353.677 -1252.382)" fill="url(#radial-gradient)" style="mix-blend-mode: multiply;isolation: isolate"></path>
        <path id="Path_84814" data-name="Path 84814" d="M-1204.33,1337.43a14.778,14.778,0,0,1-2.123,2.366s-.1.105-.284.29c-.053.054-.113.112-.181.177-.136.131-.3.285-.5.46-.081.073-.166.149-.256.227a27.368,27.368,0,0,1-4.244,3.03l-.018.01-2.061-1.171a28.011,28.011,0,0,0,6.519-5.925q.676-.829,1.267-1.716Z" transform="translate(1273.994 -1252.382)" fill="url(#radial-gradient-2)" style="mix-blend-mode: multiply;isolation: isolate"></path>
        <path id="Path_84815" data-name="Path 84815" d="M-1197.652,1413.563v2.33a19.826,19.826,0,0,1-6.278,1.2c-.216.007-.337.007-.337.007v-.007a20.2,20.2,0,0,1-3-.152,22.647,22.647,0,0,1-6.728-1.971s1.429-.7,2.061-1.073a15.716,15.716,0,0,0,13.767-.066l.16-.083C-1197.887,1413.686-1197.769,1413.625-1197.652,1413.563Z" transform="translate(1273.994 -1322.287)" fill="url(#radial-gradient-3)" style="mix-blend-mode: multiply;isolation: isolate"></path>
        <path id="Path_84816" data-name="Path 84816" d="M-1417.583,1238.394c-3-1.408-3.432-7.945-8.5-7.945s-6.073,6.563-6.073,6.563c.007-1.036.263-8.034,6-8.034,4.325,0,6.143,3.239,6.877,5.44A26.117,26.117,0,0,0-1417.583,1238.394Z" transform="translate(1468.559 -1157.67)" fill="url(#radial-gradient-4)" style="mix-blend-mode: screen;isolation: isolate"></path>
        <path id="Path_84817" data-name="Path 84817" d="M-1116,1237.012s-1.087-6.5-6.542-6.341-5.355,6.093-8.036,7.723a26.117,26.117,0,0,0,1.7-3.976c.734-2.2,2.552-5.44,6.877-5.44C-1116.262,1228.978-1116.006,1235.977-1116,1237.012Z" transform="translate(1199.601 -1157.67)" fill="url(#radial-gradient-5)" style="mix-blend-mode: screen;isolation: isolate"></path>
        <path id="Path_84818" data-name="Path 84818" d="M-1266.6,918.555l-.989,5.558-29.818,37.144,6.82-9.651,2.2-3.119,21.307-30.15A.266.266,0,0,1-1266.6,918.555Z" transform="translate(1348.387 -880.533)" fill="url(#radial-gradient-6)" style="mix-blend-mode: screen;isolation: isolate"></path>
        <path id="Path_84819" data-name="Path 84819" d="M-1378.676,1016.108l-5.518-6.475-2.2-2.586-15.452-18.137a10.582,10.582,0,0,1-2.366-5.015l-.624-3.505,18.974,25.9Z" transform="translate(1444.194 -935.974)" fill="url(#radial-gradient-7)" style="mix-blend-mode: screen;isolation: isolate"></path>
        <path id="Path_84820" data-name="Path 84820" d="M-1361.228,843.5l-.92,1.945a16.743,16.743,0,0,1-11.265-13.549s1.4-.765,2.045-1.068A14.543,14.543,0,0,0-1361.228,843.5Z" transform="translate(1416.168 -802.591)" fill="url(#radial-gradient-8)" style="mix-blend-mode: multiply;isolation: isolate"></path>
        <path id="Path_84821" data-name="Path 84821" d="M-1164.316,831.894a16.875,16.875,0,0,1-13.31,14.13v-2.2a14.63,14.63,0,0,0,11.267-13S-1165.388,831.263-1164.316,831.894Z" transform="translate(1241.56 -802.591)" fill="url(#radial-gradient-9)" style="mix-blend-mode: multiply;isolation: isolate"></path>
      </g>
      <g id="Group_15993" data-name="Group 15993" transform="translate(9.16 56.585)">
        <rect id="Rectangle_17641" data-name="Rectangle 17641" width="4.83" height="4.83" transform="translate(3.415) rotate(45)" fill="url(#linear-gradient-3)"></rect>
        <rect id="Rectangle_17642" data-name="Rectangle 17642" width="4.83" height="4.83" transform="translate(98.265 0) rotate(45)" fill="url(#linear-gradient-4)"></rect>
      </g>
    </g>
    <g id="Group_15996" data-name="Group 15996" transform="translate(-1720.341 673.659)">
      <g id="Group_15995" data-name="Group 15995">
        <path id="Path_84822" data-name="Path 84822" d="M-1317.621,1535.537l-.249-1.159-2.579-.449-.626,1.006-1.3-.226,3.391-5.15,1.3.226,1.409,5.987Zm-2.238-2.547,1.759.306-.5-2.318Z" transform="translate(1322.373 -1529.559)" fill="#fff"></path>
        <path id="Path_84823" data-name="Path 84823" d="M-1229.872,1536.99a1.82,1.82,0,0,1,.569,1.459,1.974,1.974,0,0,1-.616,1.522,2.377,2.377,0,0,1-1.676.522l-1.123-.016-.023,1.616-1.277-.018.081-5.655,2.4.034A2.471,2.471,0,0,1-1229.872,1536.99Zm-.941,2.2a.9.9,0,0,0,.3-.719.868.868,0,0,0-.277-.711,1.267,1.267,0,0,0-.824-.25l-1.058-.015-.028,1.915,1.058.015A1.236,1.236,0,0,0-1230.813,1539.191Z" transform="translate(1243.576 -1535.677)" fill="#fff"></path>
        <path id="Path_84824" data-name="Path 84824" d="M-1160.849,1530.417a1.82,1.82,0,0,1,.82,1.333,1.975,1.975,0,0,1-.334,1.608,2.377,2.377,0,0,1-1.556.812l-1.108.185.266,1.594-1.259.21-.93-5.579,2.367-.395A2.471,2.471,0,0,1-1160.849,1530.417Zm-.532,2.333a.9.9,0,0,0,.164-.76.867.867,0,0,0-.4-.65,1.267,1.267,0,0,0-.856-.1l-1.044.174.315,1.889,1.044-.174A1.237,1.237,0,0,0-1161.381,1532.75Z" transform="translate(1181.98 -1530.07)" fill="#fff"></path>
      </g>
    </g>
    <path id="Path_84911" data-name="Path 84911" d="M-18.552-7.415l1.23-1.17a1.845,1.845,0,0,0,.763-1.453c0-.815-.644-1.322-1.644-1.322a2.125,2.125,0,0,0-1.749.763l.6.46a1.3,1.3,0,0,1,1.078-.48c.565,0,.855.243.855.664,0,.256-.079.526-.526.953l-1.828,1.736v.572h3.393v-.723Zm5.22.789c1.1,0,1.926-.855,1.926-2.367s-.828-2.367-1.926-2.367-1.92.855-1.92,2.367S-14.422-6.626-13.331-6.626Zm0-.743c-.625,0-1.059-.513-1.059-1.624s.434-1.624,1.059-1.624,1.065.513,1.065,1.624S-12.7-7.369-13.331-7.369Zm4.293-.046,1.23-1.17a1.845,1.845,0,0,0,.763-1.453c0-.815-.644-1.322-1.644-1.322a2.125,2.125,0,0,0-1.749.763l.6.46a1.3,1.3,0,0,1,1.078-.48c.565,0,.855.243.855.664,0,.256-.079.526-.526.953l-1.828,1.736v.572h3.393v-.723Zm3.084-3.879v.717h.973v3.886h.855v-4.6Z" transform="translate(-1697.22 610.788)" fill="#fff"></path>
    <g id="Group_15998" data-name="Group 15998" transform="translate(-1733.803 578.653)">
      <g id="Group_15997" data-name="Group 15997" transform="translate(0 0)">
        <path id="Path_84825" data-name="Path 84825" d="M-1443.355,697.717a3.765,3.765,0,0,0-1.094.326,1.319,1.319,0,0,0-.551.467.528.528,0,0,0-.013.543.667.667,0,0,0,.613.373,5.76,5.76,0,0,0,1.227-.139,10.007,10.007,0,0,1,1.35-.184,2.277,2.277,0,0,1,1.078.212,1.892,1.892,0,0,1,.869.9,2.061,2.061,0,0,1,.231,1.288,2.369,2.369,0,0,1-.573,1.192,4.061,4.061,0,0,1-1.233.941,5.231,5.231,0,0,1-1.757.541,4.883,4.883,0,0,1-1.775-.084l-.034-1.555a4.616,4.616,0,0,0,1.557.135,3.557,3.557,0,0,0,1.357-.346,1.5,1.5,0,0,0,.647-.553.631.631,0,0,0,.007-.637.634.634,0,0,0-.4-.337,1.537,1.537,0,0,0-.594-.041q-.329.036-.88.149a9.7,9.7,0,0,1-1.33.2,2.236,2.236,0,0,1-1.059-.2,1.83,1.83,0,0,1-.859-.886,2.005,2.005,0,0,1-.221-1.233,2.336,2.336,0,0,1,.552-1.175,3.963,3.963,0,0,1,1.241-.951,5.328,5.328,0,0,1,1.472-.5,5.213,5.213,0,0,1,1.472-.077l.063,1.564A5.765,5.765,0,0,0-1443.355,697.717Z" transform="translate(1446.813 -691.23)" fill="#fff"></path>
        <path id="Path_84826" data-name="Path 84826" d="M-1344.057,670.375l-.939-1.283-3.4.861-.217,1.574-1.712.433,1.334-8.16,1.712-.433,5,6.559Zm-4.133-1.894,2.322-.587-1.878-2.565Z" transform="translate(1360.766 -662.068)" fill="#fff"></path>
        <path id="Path_84827" data-name="Path 84827" d="M-1248.164,651.406l1.711-.051.18,6.086,3.249-.1.044,1.495-4.96.147Z" transform="translate(1269.654 -651.355)" fill="#fff"></path>
        <path id="Path_84828" data-name="Path 84828" d="M-1160.595,658.852a3.808,3.808,0,0,1,1.173,1.658,3.79,3.79,0,0,1,.146,2.054,3.817,3.817,0,0,1-.908,1.854,3.835,3.835,0,0,1-1.711,1.107,4.208,4.208,0,0,1-2.13.109,4.206,4.206,0,0,1-1.933-.9,3.844,3.844,0,0,1-1.172-1.663,3.809,3.809,0,0,1-.144-2.065,3.79,3.79,0,0,1,.907-1.849,3.817,3.817,0,0,1,1.7-1.1,4.235,4.235,0,0,1,2.134-.1A4.243,4.243,0,0,1-1160.595,658.852Zm-3.408.666a2.337,2.337,0,0,0-1.007.692,2.411,2.411,0,0,0-.54,1.131,2.4,2.4,0,0,0,.079,1.263,2.433,2.433,0,0,0,.672,1.025,2.205,2.205,0,0,0,1.081.542,2.179,2.179,0,0,0,1.194-.093,2.319,2.319,0,0,0,.987-.7,2.494,2.494,0,0,0,.538-1.148,2.444,2.444,0,0,0-.071-1.25,2.334,2.334,0,0,0-.652-1.016,2.179,2.179,0,0,0-1.071-.534A2.264,2.264,0,0,0-1164,659.518Z" transform="translate(1197.584 -657.163)" fill="#fff"></path>
        <path id="Path_84829" data-name="Path 84829" d="M-1061.356,685.455l1.467.7-3.263,6.846-1.409-.671-1.218-5.981-2.1,4.4-1.477-.7,3.263-6.846,1.408.671,1.218,6.006Z" transform="translate(1110.187 -679.754)" fill="#fff"></path>
      </g>
    </g>
  </g>
</svg>
