<svg xmlns="http://www.w3.org/2000/svg" xmlns:xlink="http://www.w3.org/1999/xlink" width="204" height="204" viewBox="0 0 204 204"><defs><style>.a{fill:#f1f4f8;}.b{fill:#fff;opacity:0;}.c{fill:url(#a);}</style><linearGradient id="a" x1="0.5" x2="0.5" y2="1" gradientUnits="objectBoundingBox"><stop offset="0" stop-color="#571c56"></stop><stop offset="0.47" stop-color="#e5153f"></stop><stop offset="1" stop-color="#fcd000"></stop></linearGradient></defs><g transform="translate(353 -208)"><circle class="a" cx="102" cy="102" r="102" transform="translate(-353 208)"></circle><rect class="b" width="116" height="116" transform="translate(-309 252)"></rect><g transform="translate(-310 251)"><path class="c" d="M310-135v-56.129h3.742v-9.355a24.343,24.343,0,0,1,16.3-22.934,14.959,14.959,0,0,1-6.944-12.614A14.985,14.985,0,0,1,338.064-251a14.985,14.985,0,0,1,14.968,14.968,14.965,14.965,0,0,1-6.909,12.6,24.074,24.074,0,0,1,10.326,7.085,9.239,9.239,0,0,1,4.067-.971h48.646a9.366,9.366,0,0,1,9.355,9.355v16.838H426V-135Zm3.742-3.742H422.258v-7.484H313.742Zm0-11.226H422.258v-37.419h-3.742v9.355a9.366,9.366,0,0,1-9.355,9.355h-7.484v7.484h7.484v3.742H360.516v-3.742H368v-7.484h-7.484a9.366,9.366,0,0,1-9.355-9.355v-9.355H313.742Zm58-11.226h26.194v-7.484H371.742ZM354.9-178.033a5.62,5.62,0,0,0,5.612,5.613h48.646a5.62,5.62,0,0,0,5.612-5.613v-1.87H354.9Zm0-29.935v24.322h59.871v-24.322a5.62,5.62,0,0,0-5.612-5.613H360.516A5.62,5.62,0,0,0,354.9-207.967Zm-28.065,0v16.838h24.322v-16.838a9.274,9.274,0,0,1,2.324-6.1,20.381,20.381,0,0,0-15.421-6.994,20.6,20.6,0,0,0-20.58,20.58v9.355H323.1v-16.838Zm0-28.065a11.237,11.237,0,0,0,11.226,11.226,11.237,11.237,0,0,0,11.226-11.226,11.237,11.237,0,0,0-11.226-11.226A11.237,11.237,0,0,0,326.839-236.032Zm-9.355,74.839v-14.968c0-5.224,11.151-7.484,16.839-7.484s16.838,2.26,16.838,7.484v14.968c0,5.224-11.151,7.484-16.838,7.484S317.484-155.97,317.484-161.194Zm3.742,0c.365,1.205,6.664,3.742,13.1,3.742s12.731-2.537,13.1-3.785v-2.829c-3.766,1.972-9.516,2.872-13.1,2.872s-9.331-.9-13.1-2.87Zm0-7.484c.365,1.2,6.664,3.741,13.1,3.741s12.716-2.531,13.1-3.781v-2.831c-3.766,1.97-9.514,2.87-13.1,2.87s-9.331-.9-13.1-2.87Zm0-7.448v.016c.394,1.162,6.677,3.69,13.1,3.69,6.359,0,12.587-2.481,13.087-3.742-.5-1.261-6.728-3.741-13.087-3.741C327.9-179.9,321.62-177.376,321.226-176.126Zm39.29-11.262v-3.742h3.742V-206.1h11.226v14.967h3.742v-11.226h11.226v11.226h3.742v-18.709h11.226v18.709h3.742v3.742Zm37.42-3.742h3.741V-206.1h-3.741Zm-14.968,0h3.741v-7.483h-3.741Zm-14.968,0h3.742v-11.226H368Zm3.742-35.548a5.5,5.5,0,0,1,.28-1.661l-6.528-4.9a5.576,5.576,0,0,1-3.108.945,5.62,5.62,0,0,1-5.612-5.613,5.619,5.619,0,0,1,5.612-5.612A5.62,5.62,0,0,1,368-237.9a5.492,5.492,0,0,1-.281,1.661l6.528,4.9a5.579,5.579,0,0,1,3.108-.944,5.571,5.571,0,0,1,2.407.561l7.511-7.511a5.52,5.52,0,0,1-.563-2.4,5.62,5.62,0,0,1,5.613-5.612,5.62,5.62,0,0,1,5.613,5.612,5.558,5.558,0,0,1-.562,2.407l3.77,3.77a5.519,5.519,0,0,1,2.4-.563,5.558,5.558,0,0,1,2.407.562l7.511-7.512a5.519,5.519,0,0,1-.563-2.4A5.62,5.62,0,0,1,418.516-251a5.62,5.62,0,0,1,5.612,5.613,5.619,5.619,0,0,1-5.612,5.612,5.564,5.564,0,0,1-2.406-.561l-7.512,7.511a5.519,5.519,0,0,1,.563,2.4,5.62,5.62,0,0,1-5.613,5.613,5.62,5.62,0,0,1-5.612-5.613,5.557,5.557,0,0,1,.561-2.406l-3.77-3.77a5.519,5.519,0,0,1-2.4.563,5.555,5.555,0,0,1-2.406-.562l-7.512,7.512a5.52,5.52,0,0,1,.563,2.4,5.62,5.62,0,0,1-5.613,5.613A5.62,5.62,0,0,1,371.742-226.678Zm3.741,0a1.874,1.874,0,0,0,1.871,1.871,1.874,1.874,0,0,0,1.871-1.871,1.874,1.874,0,0,0-1.871-1.871A1.875,1.875,0,0,0,375.484-226.678Zm26.194-3.742a1.874,1.874,0,0,0,1.871,1.871,1.874,1.874,0,0,0,1.871-1.871,1.873,1.873,0,0,0-1.871-1.87A1.874,1.874,0,0,0,401.677-230.42ZM360.516-237.9a1.874,1.874,0,0,0,1.871,1.871,1.874,1.874,0,0,0,1.871-1.871,1.874,1.874,0,0,0-1.871-1.871A1.875,1.875,0,0,0,360.516-237.9Zm29.936-3.742a1.874,1.874,0,0,0,1.871,1.871,1.874,1.874,0,0,0,1.871-1.871,1.874,1.874,0,0,0-1.871-1.87A1.874,1.874,0,0,0,390.452-241.646Zm26.194-3.741a1.874,1.874,0,0,0,1.871,1.871,1.875,1.875,0,0,0,1.871-1.871,1.874,1.874,0,0,0-1.871-1.871A1.874,1.874,0,0,0,416.645-245.387Z" transform="translate(-309 252)"></path></g></g></svg>