<svg xmlns="http://www.w3.org/2000/svg" xmlns:xlink="http://www.w3.org/1999/xlink" width="204" height="204" viewBox="0 0 204 204"><defs><linearGradient id="a" x1="0.5" y1="1" x2="0.5" gradientUnits="objectBoundingBox"><stop offset="0" stop-color="#571c56"></stop><stop offset="0.47" stop-color="#fc1141"></stop><stop offset="1" stop-color="#fcd000"></stop></linearGradient></defs><g transform="translate(2487 5836)"><circle cx="102" cy="102" r="102" transform="translate(-2487 -5836)" fill="#f1f4f8"></circle><path d="M2498.735,5896.672v-51.311a22.025,22.025,0,0,0-23.569.63,2.259,2.259,0,0,1-1.3.379h-.025a2.252,2.252,0,0,1-1.515-.585c-7.44-4.767-18.467-4.7-25.8.2a2.264,2.264,0,0,1-3.517-2.068c2.392-29.008,28.2-51.923,57.992-51.923,29.81,0,55.6,22.933,57.992,51.923a2.264,2.264,0,0,1-3.517,2.068c-7.331-4.9-18.358-4.972-25.8-.2a2.247,2.247,0,0,1-1.515.585h-.022c-.015,0-.03,0-.044,0a2.263,2.263,0,0,1-1.26-.382,22.022,22.022,0,0,0-23.569-.632v51.311a6.8,6.8,0,0,0,13.594,0v-9.062a2.266,2.266,0,0,1,4.531,0v9.063a11.328,11.328,0,0,1-22.656,0Zm31.542-56.358a29.25,29.25,0,0,1,12.14-2.584h.043a29.41,29.41,0,0,1,11.469,2.3c-3.458-19.8-19.211-36.159-38.862-41.584C2525.088,5808.384,2529.436,5826.086,2530.276,5840.314Zm-58.552,0c.841-14.23,5.187-31.929,15.21-41.866-19.65,5.425-35.406,21.789-38.863,41.584a29.873,29.873,0,0,1,23.654.282Zm31.542-9.8v9.721a26.512,26.512,0,0,1,22.46-.049c-1.462-22.915-10.982-41.28-22.46-43.439v15.643a2.266,2.266,0,1,1-4.531,0v-15.643c-11.478,2.159-21,20.524-22.462,43.439a26.516,26.516,0,0,1,22.462.049v-9.721a2.266,2.266,0,1,1,4.531,0ZM2443,5883.079A24.922,24.922,0,1,1,2467.922,5908,24.952,24.952,0,0,1,2443,5883.079Zm4.531,0a20.391,20.391,0,1,0,20.392-20.392A20.415,20.415,0,0,0,2447.531,5883.079Zm18.353,13.432v-2.644a9.387,9.387,0,0,1-4.146-2.95,2.266,2.266,0,0,1,3.468-2.917,4.1,4.1,0,0,0,2.943,1.714,2.266,2.266,0,0,0,0-4.531,6.8,6.8,0,0,1-2.266-13.2v-2.655a2.266,2.266,0,0,1,4.531,0v2.639a8.737,8.737,0,0,1,3.336,2.086,2.266,2.266,0,0,1-3.151,3.256,3.634,3.634,0,0,0-2.449-1.185,2.266,2.266,0,0,0,0,4.531,6.8,6.8,0,0,1,2.266,13.2v2.656a2.266,2.266,0,0,1-4.531,0Zm32.851-75.058a2.266,2.266,0,1,1,2.265,2.266A2.266,2.266,0,0,1,2498.735,5821.453Z" transform="translate(-4886 -11584)" fill="url(#a)"></path></g></svg>