<svg xmlns="http://www.w3.org/2000/svg" xmlns:xlink="http://www.w3.org/1999/xlink" width="204" height="204" viewBox="0 0 204 204"><defs><style>.a{fill:#f1f4f8;}.b{fill:#fff;opacity:0;}.c{fill:url(#a);}</style><linearGradient id="a" x1="0.5" x2="0.5" y2="1" gradientUnits="objectBoundingBox"><stop offset="0" stop-color="#571c56"></stop><stop offset="0.47" stop-color="#e5153f"></stop><stop offset="1" stop-color="#fcd000"></stop></linearGradient></defs><g transform="translate(-175 168)"><circle class="a" cx="102" cy="102" r="102" transform="translate(175 -168)"></circle><rect class="b" width="116" height="116" transform="translate(219 -124)"></rect><g transform="translate(219 -124)"><path class="c" d="M-210.3,240a8.711,8.711,0,0,1-8.7-8.7V132.7a8.711,8.711,0,0,1,8.7-8.7h98.6a8.711,8.711,0,0,1,8.7,8.7v98.6a8.711,8.711,0,0,1-8.7,8.7Zm-4.834-8.7a4.839,4.839,0,0,0,4.834,4.833h98.6a4.837,4.837,0,0,0,4.833-4.833V151.067H-215.133Zm0-98.6v14.5h108.266V132.7a4.839,4.839,0,0,0-4.833-4.834h-98.6A4.839,4.839,0,0,0-215.133,132.7Zm30.933,97.633a1.932,1.932,0,0,1-1.933-1.933,1.932,1.932,0,0,1,1.933-1.933h69.6a1.932,1.932,0,0,1,1.933,1.933,1.932,1.932,0,0,1-1.933,1.933Zm-23.2,0a1.932,1.932,0,0,1-1.933-1.933,1.932,1.932,0,0,1,1.933-1.933h13.533a1.932,1.932,0,0,1,1.933,1.933,1.932,1.932,0,0,1-1.933,1.933Zm79.267-7.734a1.932,1.932,0,0,1-1.933-1.933,1.932,1.932,0,0,1,1.933-1.933H-114.6a1.932,1.932,0,0,1,1.933,1.933A1.932,1.932,0,0,1-114.6,222.6Zm-79.267,0a1.932,1.932,0,0,1-1.933-1.933,1.932,1.932,0,0,1,1.933-1.933h69.6a1.932,1.932,0,0,1,1.933,1.933A1.932,1.932,0,0,1-137.8,222.6Zm23.2-7.734a1.932,1.932,0,0,1-1.933-1.933A1.932,1.932,0,0,1-184.2,211h69.6a1.932,1.932,0,0,1,1.933,1.933,1.932,1.932,0,0,1-1.933,1.933Zm-23.2,0a1.932,1.932,0,0,1-1.933-1.933A1.932,1.932,0,0,1-207.4,211h13.533a1.932,1.932,0,0,1,1.933,1.933,1.932,1.932,0,0,1-1.933,1.933Zm79.267-7.733a1.932,1.932,0,0,1-1.933-1.933,1.932,1.932,0,0,1,1.933-1.933H-114.6a1.932,1.932,0,0,1,1.933,1.933,1.932,1.932,0,0,1-1.933,1.933Zm-79.267,0a1.932,1.932,0,0,1-1.933-1.933,1.932,1.932,0,0,1,1.933-1.933h69.6a1.932,1.932,0,0,1,1.933,1.933,1.932,1.932,0,0,1-1.933,1.933Zm0-9.667a1.932,1.932,0,0,1-1.933-1.933V158.8a1.932,1.932,0,0,1,1.933-1.933h92.8a1.933,1.933,0,0,1,1.933,1.933v36.734a1.933,1.933,0,0,1-1.933,1.933Zm1.932-3.866h88.934V160.733h-88.934Zm41.168-6.367-3.832-3.832-.036-.035-.035-.036-2.465-2.465-6.367,6.367a1.924,1.924,0,0,1-1.366.566,1.928,1.928,0,0,1-1.367-.566,1.931,1.931,0,0,1,0-2.733l7.733-7.734a1.925,1.925,0,0,1,1.367-.567,1.923,1.923,0,0,1,1.367.567l2.5,2.5,6.367-6.367a1.923,1.923,0,0,1,1.367-.567,1.923,1.923,0,0,1,1.367.567l7.734,7.734a1.93,1.93,0,0,1,0,2.733,1.928,1.928,0,0,1-1.367.566,1.928,1.928,0,0,1-1.367-.566L-159.067,177l-5,5,2.5,2.5a1.931,1.931,0,0,1,0,2.733,1.928,1.928,0,0,1-1.367.566A1.924,1.924,0,0,1-164.3,187.233Zm18.811-11.033a3.914,3.914,0,0,1-3.911-3.91v-3.779a3.915,3.915,0,0,1,3.911-3.911h3.777a3.914,3.914,0,0,1,3.911,3.909v3.78a3.915,3.915,0,0,1-3.911,3.911Zm-.045-3.91,3.822.043a.045.045,0,0,0,.045-.043v-3.779l-3.822-.045ZM-178.4,143.333a1.932,1.932,0,0,1-1.933-1.933v-7.734a1.932,1.932,0,0,1,1.933-1.933h7.734a1.933,1.933,0,0,1,1.933,1.933V141.4a1.933,1.933,0,0,1-1.933,1.933Zm1.933-3.866h3.866V135.6h-3.866Zm-17.4,3.866A1.932,1.932,0,0,1-195.8,141.4v-7.734a1.932,1.932,0,0,1,1.933-1.933h7.734a1.933,1.933,0,0,1,1.933,1.933V141.4a1.933,1.933,0,0,1-1.933,1.933Zm1.933-3.866h3.866V135.6h-3.866Zm-17.4,3.866a1.932,1.932,0,0,1-1.933-1.933v-7.734a1.932,1.932,0,0,1,1.933-1.933h7.734a1.933,1.933,0,0,1,1.933,1.933V141.4a1.933,1.933,0,0,1-1.933,1.933Zm1.933-3.866h3.867V135.6H-207.4Z" transform="translate(219 -124)"></path></g></g></svg>