<?xml version="1.0" encoding="UTF-8"?>
<svg xmlns="http://www.w3.org/2000/svg" width="150" height="150" viewBox="0 0 150 150">
  <g id="Invision_Studio" data-name="Invision Studio" transform="translate(-2446 2324)">
    <rect id="Rectangle_20" data-name="Rectangle 20" width="150" height="150" transform="translate(2446 -2324)" fill="#fff" opacity="0"></rect>
    <g id="invision" transform="translate(2713 -2481)">
      <path id="Path_46" data-name="Path 46" d="M150,13.6A13.6,13.6,0,0,0,136.4,0H13.6A13.6,13.6,0,0,0,0,13.6V136.4A13.6,13.6,0,0,0,13.6,150H136.4A13.6,13.6,0,0,0,150,136.4ZM49.982,29.28a9.029,9.029,0,1,1-9.162,9.026A9.057,9.057,0,0,1,49.982,29.28Zm61.3,86.373c-9.3,0-13.743-5.522-13.743-13.071a23.9,23.9,0,0,1,.942-6.737l4.448-15.9a16.162,16.162,0,0,0,.674-4.851c0-5.119-3.1-8.219-8.086-8.219-6.334,0-10.511,4.546-12.667,13.305l-8.625,34.593H59.137L61.845,103.9c-4.436,7.287-10.6,11.8-18.2,11.8-9.163,0-13.475-5.279-13.475-13.23a31.011,31.011,0,0,1,.809-6.783l6.872-28.075H27.209l3.234-11.932h25.6L45.939,95.774A25.4,25.4,0,0,0,45,101.941c0,2.564,1.262,3.313,3.235,3.758,1.2.269,10.777.081,15.991-11.508L70.86,67.614H60.08l3.234-11.932H86.356L83.392,69.228C87.434,61.681,95.52,54.51,103.47,54.51c8.489,0,15.5,6.048,15.5,17.636a34.155,34.155,0,0,1-1.482,9.826l-4.313,15.491a17.879,17.879,0,0,0-.674,4.179c0,2.694,1.079,4.041,3.1,4.041s4.581-1.486,7.546-9.7l5.928,2.289C125.569,110.535,119.236,115.654,111.285,115.654Z" transform="translate(-267 157)"></path>
    </g>
  </g>
</svg>
