<svg xmlns="http://www.w3.org/2000/svg" xmlns:xlink="http://www.w3.org/1999/xlink" width="204" height="204" viewBox="0 0 204 204"><defs><style>.a{opacity:0;fill:url(#a);}.b{fill:#f1f4f8;}.c{clip-path:url(#b);}.d{fill:url(#c);}.e{fill:none;}.f,.g{fill:#be202e;}.g{opacity:0.35;}.h{fill:url(#d);}.i{fill:url(#e);}.j{fill:url(#f);}.k{fill:url(#g);}.l{fill:url(#h);}.m{fill:url(#i);}.n{fill:url(#j);}.o{fill:url(#k);}.p{fill:#fff;}.q{fill:#b0afb0;}.r,.u{fill:#d22128;}.r{stroke:#d22128;}.r,.s{stroke-linejoin:round;stroke-width:0.547px;}.s{stroke:#707070;fill:url(#l);}.t{fill:url(#m);}</style><linearGradient id="a" x1="0.5" x2="0.5" y2="1" gradientUnits="objectBoundingBox"><stop offset="0" stop-color="#571c56"></stop><stop offset="0.47" stop-color="#e5153f"></stop><stop offset="1" stop-color="#fcd000"></stop></linearGradient><clipPath id="b"><rect class="a" width="116" height="116" transform="translate(0 0.466)"></rect></clipPath><linearGradient id="c" x1="-101.142" y1="-11.494" x2="-100.178" y2="-10.254" gradientUnits="objectBoundingBox"><stop offset="0" stop-color="#f69923"></stop><stop offset="0.312" stop-color="#f79a23"></stop><stop offset="0.838" stop-color="#e97826"></stop></linearGradient><linearGradient id="d" x1="-108.127" y1="-6.797" x2="-101.208" y2="-6.797" gradientUnits="objectBoundingBox"><stop offset="0.323" stop-color="#9e2064"></stop><stop offset="0.63" stop-color="#c92037"></stop><stop offset="0.751" stop-color="#cd2335"></stop><stop offset="1" stop-color="#e97826"></stop></linearGradient><linearGradient id="e" x1="-89.098" y1="-12.603" x2="-85.643" y2="-12.603" gradientUnits="objectBoundingBox"><stop offset="0" stop-color="#282662"></stop><stop offset="0.095" stop-color="#662e8d"></stop><stop offset="0.788" stop-color="#9f2064"></stop><stop offset="0.949" stop-color="#cd2032"></stop></linearGradient><linearGradient id="f" x1="-82.732" y1="-4.245" x2="-77.367" y2="-4.245" xlink:href="#d"></linearGradient><linearGradient id="g" x1="-125.966" y1="-5.298" x2="-121.629" y2="-5.298" xlink:href="#e"></linearGradient><linearGradient id="h" x1="-53.304" y1="-4.575" x2="-49.857" y2="-4.575" xlink:href="#d"></linearGradient><linearGradient id="i" x1="-72.873" y1="-7.763" x2="-68.224" y2="-7.763" xlink:href="#d"></linearGradient><linearGradient id="j" x1="-2725.133" y1="-2016.97" x2="-2551.043" y2="-2016.97" xlink:href="#d"></linearGradient><linearGradient id="k" x1="-8459.03" y1="-9843.259" x2="-7919.35" y2="-9843.259" xlink:href="#d"></linearGradient><linearGradient id="l" x2="1" gradientUnits="objectBoundingBox"><stop offset="0"></stop><stop offset="1"></stop></linearGradient><linearGradient id="m" x2="1" gradientUnits="objectBoundingBox"><stop offset="0" stop-color="#4d4d4d"></stop><stop offset="1" stop-color="#4d4d4d"></stop></linearGradient></defs><circle class="b" cx="102" cy="102" r="102"></circle><g transform="translate(44 44)"><g class="c"><g transform="translate(-193.09 -55.539)"><g transform="translate(190.212 93.095)"><path class="d" d="M19.61,1.439a14.442,14.442,0,0,0-2.863,2.885L17.87,6.446a27.144,27.144,0,0,1,2.4-3.01c.059-.066.1-.1.1-.1-.029.037-.066.066-.1.1A24.132,24.132,0,0,0,18.017,6.49a42.074,42.074,0,0,0,4.368-.543c.433-2.408-.418-3.509-.418-3.509S20.88.683,19.61,1.439Z"></path><path class="e" d="M17.7,13.538a.027.027,0,0,0,.022-.007l-.162.015c-.007.007-.022.007-.029.015l.169-.022Z"></path><path class="e" d="M16.556,17.334c-.088.022-.184.037-.279.051C16.372,17.371,16.468,17.356,16.556,17.334Z"></path><path class="e" d="M8.759,25.858c.015-.029.022-.066.037-.1.25-.653.492-1.285.734-1.909.272-.69.543-1.366.808-2.019.279-.683.558-1.351.83-1.99.286-.675.565-1.322.844-1.946.228-.507.448-1,.668-1.476.073-.162.147-.316.22-.47.147-.308.286-.609.426-.9.132-.272.257-.536.382-.8.044-.088.088-.176.125-.257l.022-.044-.139.015-.11-.213c-.007.022-.022.044-.029.066-.2.389-.4.786-.587,1.189-.11.228-.22.463-.338.7-.308.646-.609,1.292-.9,1.953s-.595,1.329-.881,1.99-.558,1.307-.83,1.96-.536,1.3-.793,1.946c-.272.675-.536,1.344-.786,2-.059.147-.117.3-.169.448-.206.536-.4,1.057-.595,1.578l.176.345.154-.015a.1.1,0,0,0,.015-.044c.228-.7.477-1.366.719-2.012Z"></path><path class="e" d="M16.2,17.393Z"></path><path class="f" d="M15.829,19.25c-.147.029-.294.051-.441.073h0c.073-.007.154-.022.228-.037A1.835,1.835,0,0,0,15.829,19.25Z"></path><path class="g" d="M15.829,19.25c-.147.029-.294.051-.441.073h0c.073-.007.154-.022.228-.037A1.835,1.835,0,0,0,15.829,19.25Z"></path><path class="f" d="M16.211,17.393h0c.022,0,.044-.007.066-.007.1-.015.191-.029.279-.051-.11.022-.228.037-.345.059Z"></path><path class="g" d="M16.211,17.393h0c.022,0,.044-.007.066-.007.1-.015.191-.029.279-.051-.11.022-.228.037-.345.059Z"></path><path class="h" d="M14.551,11.923q.518-.958,1.035-1.872c.36-.631.727-1.241,1.1-1.835.022-.037.044-.073.066-.1.367-.58.734-1.138,1.109-1.674L16.739,4.324c-.081.1-.169.206-.257.316-.323.4-.661.837-1.006,1.3-.389.521-.786,1.072-1.2,1.652-.374.536-.756,1.1-1.138,1.681-.323.5-.646,1.006-.969,1.527-.015.022-.022.037-.037.059L13.6,13.744c.323-.609.639-1.219.954-1.821Z"></path><path class="i" d="M7.892,28.2c-.191.529-.389,1.072-.58,1.63,0,.007-.007.015-.007.022-.029.081-.059.154-.081.235-.132.374-.242.712-.507,1.476a2.918,2.918,0,0,1,1.1,1.3,2.366,2.366,0,0,0-.764-1.623c2.122.1,3.957-.441,4.9-2,.081-.139.162-.286.235-.441a2.039,2.039,0,0,1-1.968.719h0a5.7,5.7,0,0,0,2.871-2.349c.154-.25.308-.521.463-.822a4.626,4.626,0,0,1-4.368,1.417L8,27.9C7.966,28,7.929,28.1,7.892,28.2Z"></path><path class="j" d="M8.443,25.549c.257-.661.521-1.329.786-2,.257-.646.521-1.292.793-1.946s.551-1.307.83-1.96.58-1.329.881-1.99.6-1.307.9-1.953c.11-.235.22-.463.338-.7.191-.4.389-.793.587-1.189.007-.022.022-.044.029-.066l-1.446-2.878a1.028,1.028,0,0,1-.073.117c-.338.558-.683,1.123-1.013,1.7s-.668,1.182-.991,1.791c-.272.514-.536,1.028-.8,1.549-.051.1-.1.213-.154.316-.316.653-.609,1.292-.866,1.9-.294.69-.551,1.351-.778,1.975-.147.411-.286.808-.411,1.189-.1.323-.2.653-.294.976-.22.764-.4,1.527-.558,2.291l1.468,2.9c.191-.521.4-1.043.595-1.578C8.326,25.85,8.384,25.7,8.443,25.549Z"></path><path class="k" d="M6.182,24.778A22.5,22.5,0,0,0,5.8,27.554c0,.029-.007.066-.007.1A5.85,5.85,0,0,0,4.111,26.2a8.131,8.131,0,0,1,1.645,3.781A3.737,3.737,0,0,1,3.9,29.668a3.724,3.724,0,0,0,1.586.962,4.55,4.55,0,0,0-2.2,1.1A4.669,4.669,0,0,1,5.9,31.254C4.89,34.1,3.884,37.237,2.878,40.57a.873.873,0,0,0,.595-.58c.176-.6,1.373-4.567,3.238-9.772.051-.147.11-.294.162-.448.015-.044.029-.081.044-.125q.3-.815.617-1.674c.051-.132.1-.257.147-.389v-.007l-1.468-2.9a.541.541,0,0,0-.029.1Z"></path><path class="l" d="M13.832,13.993c-.044.088-.081.169-.125.257-.125.264-.257.529-.382.8-.139.294-.279.595-.426.9-.073.154-.147.308-.22.47-.22.477-.441.969-.668,1.476-.279.624-.558,1.27-.844,1.946-.272.639-.551,1.307-.83,1.99-.264.653-.536,1.322-.808,2.019-.242.617-.485,1.255-.734,1.909-.015.029-.022.066-.037.1-.242.646-.492,1.314-.742,2A.1.1,0,0,0,8,27.9l1.182-.132c-.022-.007-.044-.007-.073-.015a8.4,8.4,0,0,0,4.508-2.54,11.309,11.309,0,0,0,1.534-2.136,18.054,18.054,0,0,0,.991-2.063c.272-.661.536-1.38.786-2.158a4.376,4.376,0,0,1-1.109.382l-.22.044c-.073.015-.147.022-.228.037h0a5.113,5.113,0,0,0,2.753-2.687,4.808,4.808,0,0,1-1.586.7c-.088.022-.184.037-.279.051-.022,0-.044.007-.073.007h0a5.329,5.329,0,0,0,1.182-.661,2.285,2.285,0,0,0,.206-.169c.1-.088.2-.184.294-.279.059-.066.117-.125.176-.191a3.726,3.726,0,0,0,.367-.507c.037-.059.073-.11.1-.169.044-.088.088-.169.125-.25.184-.367.33-.7.448-.991.059-.147.11-.279.154-.4.015-.051.037-.1.051-.147.044-.139.088-.264.117-.374a3.712,3.712,0,0,0,.088-.389h0a.8.8,0,0,1-.154.1,5.676,5.676,0,0,1-1.63.558L18.8,13.4l-1.087.117a.027.027,0,0,0-.022.007,1.638,1.638,0,0,0-.169.029c.007-.007.022-.007.029-.015l-3.715.4c.007.029,0,.044-.007.051Z"></path><path class="m" d="M18.017,6.49c-.33.507-.69,1.087-1.079,1.733a.734.734,0,0,0-.059.1c-.338.565-.69,1.182-1.065,1.865-.323.587-.661,1.211-1.013,1.894-.308.587-.617,1.211-.947,1.872l3.715-.4a4.523,4.523,0,0,0,2.034-1.6c.125-.176.25-.367.374-.565a21.688,21.688,0,0,0,1.087-1.9,18.865,18.865,0,0,0,.822-1.813,10.333,10.333,0,0,0,.33-.984c.066-.257.117-.5.162-.734a43.611,43.611,0,0,1-4.361.536Z"></path><path class="f" d="M15.616,19.294c-.073.015-.147.022-.228.037h0A2.105,2.105,0,0,1,15.616,19.294Z"></path><path class="g" d="M15.616,19.294c-.073.015-.147.022-.228.037h0A2.105,2.105,0,0,1,15.616,19.294Z"></path><path class="n" d="M15.616,19.294c-.073.015-.147.022-.228.037h0A2.105,2.105,0,0,1,15.616,19.294Z"></path><path class="f" d="M16.2,17.393c.022,0,.044-.007.073-.007-.022,0-.044.007-.073.007Z"></path><path class="g" d="M16.2,17.393c.022,0,.044-.007.073-.007-.022,0-.044.007-.073.007Z"></path><path class="o" d="M16.2,17.393c.022,0,.044-.007.073-.007-.022,0-.044.007-.073.007Z"></path><path class="f" d="M16.211,17.393Z"></path><path class="g" d="M16.211,17.393Z"></path><path class="p" d="M16.211,17.393Z"></path></g><path class="q" d="M208.124,106.581v.537h-.151v-.537h-.19v-.129h.525v.129Z"></path><path class="q" d="M209.013,106.7l-.179.363h-.089l-.179-.363v.419h-.145v-.665h.2l.173.363.173-.363h.2v.665h-.145V106.7Z"></path><path class="r" d="M214.224,132.618a11.681,11.681,0,0,1-1.632-.1,9.012,9.012,0,0,1-1.188-.215V128.61q.53.115,1.117.2a8.526,8.526,0,0,0,1.26.086,4.89,4.89,0,0,0,1.217-.143,2.366,2.366,0,0,0,.988-.5,2.171,2.171,0,0,0,.658-.93,3.871,3.871,0,0,0,.243-1.474V105.535h4.438V125.7a8.231,8.231,0,0,1-.53,3.106,5.575,5.575,0,0,1-1.46,2.147,5.72,5.72,0,0,1-2.233,1.26,9.754,9.754,0,0,1-2.877.4"></path><path class="s" d="M223.7,105.538v20.925h3.967v-9.736c0-.267-.008-.567-.017-.9s-.009-.68-.028-1.043-.021-.728-.04-1.1-.027-.736-.046-1.089q-.057-1.231-.143-2.548h.131l4.594,16.416H236.2l4.953-16.388h.114c-.029.868-.059,1.7-.1,2.5-.01.344-.027.7-.046,1.06s-.019.719-.029,1.072-.019.688-.029,1,0,.6,0,.844v9.907H245.2V105.538h-6.042l-4.811,16h-.086l-4.52-16H223.7Zm41.548,1.516-1.26,3.374-2.4,1.465v1.847h2.086v7.712a7.666,7.666,0,0,0,.371,2.576,4.262,4.262,0,0,0,1.049,1.63,3.723,3.723,0,0,0,1.562.849,7.43,7.43,0,0,0,1.944.239,8.556,8.556,0,0,0,1.978-.211,6.334,6.334,0,0,0,1.528-.519v-3.249a11.929,11.929,0,0,1-1.186.359,5.027,5.027,0,0,1-1.22.142,1.656,1.656,0,0,1-1.2-.445,1.835,1.835,0,0,1-.456-1.374V113.74h3.893v-3.278h-3.893v-3.409H265.25Zm-11.206,3.107a8.054,8.054,0,0,0-2.975.53,6.076,6.076,0,0,0-2.291,1.585A7.349,7.349,0,0,0,247.3,114.9a11.536,11.536,0,0,0-.53,3.677,10.433,10.433,0,0,0,.576,3.625,6.971,6.971,0,0,0,1.63,2.548,6.723,6.723,0,0,0,2.491,1.5,9.6,9.6,0,0,0,3.164.5c.592,0,1.134-.021,1.63-.068a9.949,9.949,0,0,0,1.391-.2,10.673,10.673,0,0,0,1.214-.348,9.589,9.589,0,0,0,1.163-.513v-3.38q-.63.315-1.231.559a11.3,11.3,0,0,1-1.22.388,10.7,10.7,0,0,1-1.271.245,12.485,12.485,0,0,1-1.374.068,4.221,4.221,0,0,1-1.562-.268,3.36,3.36,0,0,1-1.163-.775,3.769,3.769,0,0,1-.741-1.248,5.581,5.581,0,0,1-.285-1.659h9.759v-2.12a9.053,9.053,0,0,0-.484-3.089,6.128,6.128,0,0,0-1.374-2.291,5.644,5.644,0,0,0-2.177-1.4,7.964,7.964,0,0,0-2.861-.485Zm26.283,0a8.054,8.054,0,0,0-2.975.53,6.076,6.076,0,0,0-2.291,1.585,7.349,7.349,0,0,0-1.476,2.622,11.536,11.536,0,0,0-.53,3.677,10.432,10.432,0,0,0,.576,3.625,6.97,6.97,0,0,0,1.63,2.548,6.723,6.723,0,0,0,2.491,1.5,9.6,9.6,0,0,0,3.164.5c.592,0,1.134-.021,1.63-.068a9.947,9.947,0,0,0,1.391-.2,10.673,10.673,0,0,0,1.214-.348,9.591,9.591,0,0,0,1.163-.513v-3.38q-.63.315-1.231.559a11.3,11.3,0,0,1-1.22.388,10.7,10.7,0,0,1-1.271.245,12.485,12.485,0,0,1-1.374.068,4.221,4.221,0,0,1-1.562-.268,3.337,3.337,0,0,1-1.157-.775,3.782,3.782,0,0,1-.747-1.248,5.582,5.582,0,0,1-.285-1.659h9.759v-2.12a9.053,9.053,0,0,0-.484-3.089,6.128,6.128,0,0,0-1.374-2.291,5.644,5.644,0,0,0-2.177-1.4,7.965,7.965,0,0,0-2.861-.485Zm16.411,0a4.713,4.713,0,0,0-1.431.2,3.794,3.794,0,0,0-1.117.542,4.36,4.36,0,0,0-.884.849,8.059,8.059,0,0,0-.747,1.112h-.217l-.644-2.4h-3.306v16h4.366v-8.145a5.78,5.78,0,0,1,.274-1.9,3.2,3.2,0,0,1,.787-1.26,3.054,3.054,0,0,1,1.22-.7,5.381,5.381,0,0,1,1.556-.217c.1,0,.216.008.359.017a3.224,3.224,0,0,1,.427.028c.153.01.3.027.433.046s.237.038.314.057v-4.1a1.209,1.209,0,0,0-.257-.04,3.347,3.347,0,0,0-.359-.046,2.62,2.62,0,0,0-.4-.028c-.134-.01-.262-.011-.376-.011Zm-42.665,3.107a2.658,2.658,0,0,1,1.2.257,2.4,2.4,0,0,1,.861.713,3.049,3.049,0,0,1,.513,1.06,5.385,5.385,0,0,1,.188,1.345h-5.569a4.073,4.073,0,0,1,.872-2.559,2.551,2.551,0,0,1,1.932-.815Zm26.283,0a2.658,2.658,0,0,1,1.2.257,2.4,2.4,0,0,1,.861.713,3.049,3.049,0,0,1,.513,1.06,5.386,5.386,0,0,1,.188,1.345h-5.569a4.073,4.073,0,0,1,.872-2.559,2.551,2.551,0,0,1,1.932-.815Z"></path><g transform="translate(182.49 78.918)"><path class="t" d="M120.026,31.2h-.971V27.421H117.9v-.81h3.273v.81h-1.15V31.2"></path><path class="t" d="M123.729,31.2l-1.008-3.6h-.028q.019.289.031.559.006.116.009.239t.009.242q.006.119.006.229t0,.2V31.2h-.87V26.61h1.325l.992,3.511h.019l1.055-3.511H126.6V31.2h-.908V28.844q0-.1.006-.22t.006-.236q.006-.119.009-.232.013-.264.022-.55h-.025l-1.087,3.6h-.9"></path></g><g transform="translate(202.038 84.687)"><path class="u" d="M14.789,17.631l3.134-7.49h.6l3.134,7.49h-.788l-.973-2.34h-3.37l-.96,2.34h-.782Zm3.44-6.625-1.539,3.7h3.039l-1.5-3.7Z"></path><path class="u" d="M22.463,17.631v-7.49h3.1a2.331,2.331,0,0,1,2.213,2.352,2.259,2.259,0,0,1-2.149,2.372H23.194v2.766Zm.731-3.421h2.4a1.577,1.577,0,0,0,1.456-1.717,1.622,1.622,0,0,0-1.52-1.7H23.194Z"></path><path class="u" d="M27.371,17.631l3.134-7.49h.6l3.134,7.49h-.8l-.973-2.34H29.107l-.96,2.34Zm3.44-6.625-1.539,3.7h3.039l-1.5-3.7Z"></path><path class="u" d="M37.779,10.1a2.945,2.945,0,0,1,2.766,1.634l-.591.356a2.359,2.359,0,0,0-2.213-1.329,2.909,2.909,0,0,0-2.772,3.109,3.023,3.023,0,0,0,2.8,3.154,2.546,2.546,0,0,0,2.308-1.392l.61.318a3.266,3.266,0,0,1-2.963,1.742,3.765,3.765,0,0,1-3.5-3.859A3.615,3.615,0,0,1,37.779,10.1Z"></path><path class="u" d="M47.628,10.141v7.49H46.89v-3.5H42.452v3.5h-.725v-7.49h.725v3.332H46.89V10.141Z"></path><path class="u" d="M54.348,16.976v.655H49.319v-7.49h4.934V10.8H50.044v2.7h3.669v.623H50.044v2.855Z"></path></g></g></g></g></svg>