<svg xmlns="http://www.w3.org/2000/svg" xmlns:xlink="http://www.w3.org/1999/xlink" width="604" height="498" viewBox="0 0 604 498"><defs><style>.a{opacity:0.14;fill:url(#a);}.b,.h{fill:none;}.b{stroke:#571c56;stroke-dasharray:12;}.c{fill:#fff;opacity:0;}.d{fill:#fcbd06;}.e{fill:#fc193d;}.f{fill:#571c56;}.g{stroke:none;}</style><linearGradient id="a" x1="0.236" x2="0.672" y2="1" gradientUnits="objectBoundingBox"><stop offset="0" stop-color="#fcbd06"></stop><stop offset="1" stop-color="#fc193d"></stop></linearGradient></defs><g transform="translate(-264 -3770)"><ellipse class="a" cx="147.721" cy="147.721" rx="147.721" ry="147.721" transform="translate(572.558 3870.279)"></ellipse><g class="b" transform="translate(264 3770)"><circle class="g" cx="249" cy="249" r="249"></circle><circle class="h" cx="249" cy="249" r="248.5"></circle></g><g transform="translate(-5358 1955)"><rect class="c" width="300" height="263" rx="5" transform="translate(5721 1932)"></rect><g transform="translate(5738 1930)"><g transform="translate(6.383 6.383)"><circle class="d" cx="9" cy="9" r="9" transform="translate(170.617 126.617)"></circle><path class="d" d="M123.848,41.645,112.583,47.3l-2.06,1.008a21.68,21.68,0,0,1-14.07,1.885L81.9,47.3V91.133H3V47.3A26.3,26.3,0,0,1,29.3,21h8.767l13.15,17.533L64.367,21h7.408a52.4,52.4,0,0,1,19.55,3.77l12.492,5,8.767-2.5,5.917-1.709Z" transform="translate(-3 57.9)"></path><path class="e" d="M9,7H35.3A17.533,17.533,0,0,1,52.833,24.533H9Z" transform="translate(17.3 10.533)"></path><path class="d" d="M19.854,28.767a21.61,21.61,0,0,0,10.958,4.252l-6.663,8.9L11,24.383V20a21.917,21.917,0,0,0,26.125.132,21.772,21.772,0,0,1-17.27,8.635Z" transform="translate(24.067 54.517)"></path><path class="d" d="M31.533,47.3,14,38.533,27.15,21h8.767Z" transform="translate(34.217 57.9)"></path><path class="d" d="M13.383,47.3l17.533-8.767L17.767,21H9Z" transform="translate(17.3 57.9)"></path><path class="d" d="M43.859,34.177,34.7,38.736,29.35,22.649l2.805-.789a8.889,8.889,0,0,0,11.7,3.55A7.04,7.04,0,0,0,46.62,23a6.461,6.461,0,0,1,1.008,1.973,7.544,7.544,0,0,1-3.77,9.205Z" transform="translate(86.151 60.81)"></path><path class="d" d="M56.533,53h43.833A17.533,17.533,0,0,1,117.9,70.533V88.067H39V70.533A17.533,17.533,0,0,1,56.533,53Z" transform="translate(118.8 166.166)"></path><path class="d" d="M38.533,53H82.367A17.533,17.533,0,0,1,99.9,70.533V88.067H21V70.533A17.533,17.533,0,0,1,38.533,53Z" transform="translate(57.9 166.166)"></path><path class="d" d="M20.533,53H64.367A17.533,17.533,0,0,1,81.9,70.533V88.067H3V70.533A17.533,17.533,0,0,1,20.533,53Z" transform="translate(-3 166.166)"></path></g><g transform="translate(2 2)"><path class="f" d="M225.55,85.879h-2.367a26.3,26.3,0,1,0-39.1,0h-2.367a21.838,21.838,0,0,0-17.533,8.9,21.838,21.838,0,0,0-17.533-8.9h-2.367a26.3,26.3,0,1,0-39.1,0h-2.367a21.838,21.838,0,0,0-17.533,8.9,21.838,21.838,0,0,0-17.533-8.9H65.383a26.3,26.3,0,1,0-39.1,0H23.917A21.943,21.943,0,0,0,2,107.8v17.533a4.383,4.383,0,1,0,8.767,0V107.8a13.15,13.15,0,0,1,13.15-13.15H67.75A13.15,13.15,0,0,1,80.9,107.8v17.533a4.383,4.383,0,1,0,8.767,0V107.8a13.15,13.15,0,0,1,13.15-13.15H146.65A13.15,13.15,0,0,1,159.8,107.8v17.533a4.383,4.383,0,0,0,8.767,0V107.8a13.15,13.15,0,0,1,13.15-13.15H225.55A13.15,13.15,0,0,1,238.7,107.8v17.533a4.383,4.383,0,0,0,8.767,0V107.8A21.943,21.943,0,0,0,225.55,85.879ZM28.3,68.346A17.533,17.533,0,1,1,45.833,85.879,17.533,17.533,0,0,1,28.3,68.346Zm78.9,0a17.533,17.533,0,1,1,17.533,17.533A17.533,17.533,0,0,1,107.2,68.346Zm78.9,0a17.533,17.533,0,1,1,17.533,17.533A17.533,17.533,0,0,1,186.1,68.346Z" transform="translate(-2 133.287)"></path><path class="e" d="M61.15,32.3A13.15,13.15,0,1,0,48,19.15,13.15,13.15,0,0,0,61.15,32.3Zm0-17.533a4.383,4.383,0,1,1-4.383,4.383A4.383,4.383,0,0,1,61.15,14.767Z" transform="translate(153.633 11.533)"></path><path class="e" d="M48.15,18A13.15,13.15,0,1,0,61.3,31.15,13.15,13.15,0,0,0,48.15,18Zm0,17.533a4.383,4.383,0,1,1,4.383-4.383A4.383,4.383,0,0,1,48.15,35.533Z" transform="translate(109.65 52.133)"></path><path class="e" d="M46.266,28.464a4.383,4.383,0,1,0,6.2-6.2l-3.1-3.1,3.1-3.1a4.383,4.383,0,1,0-6.2-6.2l-3.1,3.1-3.1-3.1a4.383,4.383,0,1,0-6.2,6.2l3.1,3.1-3.1,3.1a4.383,4.383,0,1,0,6.2,6.2l3.1-3.1Z" transform="translate(101.483 20.283)"></path><path class="e" d="M63.266,16.87l-3.1,3.1-3.1-3.1a4.383,4.383,0,1,0-6.2,6.2l3.1,3.1-3.1,3.1a4.383,4.383,0,1,0,6.2,6.2l3.1-3.1,3.1,3.1a4.383,4.383,0,1,0,6.2-6.2l-3.1-3.1,3.1-3.1a4.383,4.383,0,1,0-6.2-6.2Z" transform="translate(158.999 43.966)"></path><path class="e" d="M62.406,60.477A10.836,10.836,0,0,1,60.53,70.769l-2.884,3.607a4.385,4.385,0,1,0,6.847,5.479l2.884-3.612A19.778,19.778,0,0,0,57.125,44.819a11.011,11.011,0,0,1-4.892-18.41l4.453-4.445v2.569a4.383,4.383,0,0,0,8.767,0V11.383A4.383,4.383,0,0,0,61.069,7H47.92a4.383,4.383,0,1,0,0,8.767h2.569l-4.44,4.44a19.782,19.782,0,0,0,8.767,33.072,10.831,10.831,0,0,1,7.592,7.2Z" transform="translate(127.414 14.917)"></path><path class="f" d="M260.616,107.2H251.85V10.767h8.767a4.383,4.383,0,1,0,0-8.767h-157.8a4.383,4.383,0,1,0,0,8.767h8.767V88.238l-4.147,1.184L96.316,84.976a56.681,56.681,0,0,0-19.427-3.993,3.51,3.51,0,0,0-.373-.083H74.15A26.164,26.164,0,0,0,80.9,63.367V41.45A21.943,21.943,0,0,0,58.983,19.533h-26.3A4.383,4.383,0,0,0,28.3,23.917v39.45A26.164,26.164,0,0,0,35.05,80.9H32.683A30.718,30.718,0,0,0,2,111.583v43.833a4.383,4.383,0,1,0,8.767,0V111.583A21.917,21.917,0,0,1,29.032,90.035l3.713,22.272a4.383,4.383,0,0,0,6.281,3.2l11.191-5.6v45.508a4.383,4.383,0,1,0,8.767,0V109.909l11.191,5.619a4.383,4.383,0,0,0,6.281-3.2l3.726-22.355a47.974,47.974,0,0,1,12.878,3.169l12.514,5.006a4.383,4.383,0,0,0,2.832.14l10.638-3.038,2.832,8.5-9.911,4.953a17.63,17.63,0,0,1-11.278,1.512L86.16,107.288a4.383,4.383,0,0,0-5.26,4.3v43.833a4.383,4.383,0,1,0,8.767,0V116.931l9.3,1.859a26.4,26.4,0,0,0,16.92-2.266l1.118-.557h64.711v13.957a13.15,13.15,0,1,0,8.767,0V115.967h70.133a4.383,4.383,0,1,0,0-8.767ZM54.6,95.51l-4.721-6.281a25.147,25.147,0,0,0,9.442,0ZM37.067,45.833H72.133V63.367a17.533,17.533,0,1,1-35.067,0Zm0-17.533H58.983a13.176,13.176,0,0,1,12.4,8.767H37.067Zm3.349,76.708L37.86,89.667h1.4l8.683,11.581Zm28.369,0-7.526-3.761,8.683-11.581h1.4ZM186.1,146.65a4.383,4.383,0,1,1,4.383-4.383A4.383,4.383,0,0,1,186.1,146.65ZM127.482,92.814,132.1,91.5a3.213,3.213,0,0,1,2.314,5.966L129.8,99.77Zm10.84,12.488a11.98,11.98,0,0,0-8.635-22.21l-9.336,2.63V10.767H243.083V107.2H134.539Z" transform="translate(-2 -2)"></path><path class="f" d="M14.767,67.45V32.383a4.383,4.383,0,1,0-8.767,0V67.45a4.383,4.383,0,1,0,8.767,0Z" transform="translate(11.533 85.967)"></path></g></g></g></g></svg>