<svg xmlns="http://www.w3.org/2000/svg" xmlns:xlink="http://www.w3.org/1999/xlink" width="204" height="204" viewBox="0 0 204 204"><defs><linearGradient id="a" x1="0.5" x2="0.5" y2="1" gradientUnits="objectBoundingBox"><stop offset="0" stop-color="#571c56"></stop><stop offset="0.47" stop-color="#e5153f"></stop><stop offset="1" stop-color="#fcd000"></stop></linearGradient></defs><g transform="translate(2808 6131)"><circle cx="102" cy="102" r="102" transform="translate(-2808 -6131)" fill="#f1f4f8"></circle><g transform="translate(-2764 -6087)"><path d="M2764,6145a58,58,0,1,1,58,58A58.034,58.034,0,0,1,2764,6145Zm5.032,0A52.969,52.969,0,1,0,2822,6092.03,53.024,53.024,0,0,0,2769.032,6145Zm42.9,32.7a2.5,2.5,0,0,1-2.514-2.515v-17.61h-17.611a2.5,2.5,0,0,1-2.515-2.515v-20.125a2.506,2.506,0,0,1,2.515-2.518h17.611v-17.608a2.5,2.5,0,0,1,2.514-2.515h20.125a2.5,2.5,0,0,1,2.518,2.515v17.608h17.608a2.709,2.709,0,0,1,2.518,2.518v20.125a2.507,2.507,0,0,1-2.518,2.515H2834.58v17.61a2.505,2.505,0,0,1-2.518,2.515Zm-17.607-25.157h17.607a2.506,2.506,0,0,1,2.518,2.518v17.607h15.093v-17.607a2.506,2.506,0,0,1,2.515-2.518h17.75v-15.094H2832.2a2.5,2.5,0,0,1-2.514-2.514v-17.611h-15.233v17.611a2.5,2.5,0,0,1-2.518,2.514h-17.607Z" transform="translate(-2764 -6087)" fill="url(#a)"></path><path d="M2822,6086.826a57.885,57.885,0,0,1,32.513,9.942,58.408,58.408,0,0,1,21.084,25.6,58.045,58.045,0,0,1-5.367,55.146,58.408,58.408,0,0,1-25.6,21.086,58.044,58.044,0,0,1-55.147-5.367,58.419,58.419,0,0,1-21.085-25.6,58.043,58.043,0,0,1,5.367-55.146,58.411,58.411,0,0,1,25.6-21.084A57.74,57.74,0,0,1,2822,6086.826Zm0,116A57.825,57.825,0,1,0,2764.175,6145,57.89,57.89,0,0,0,2822,6202.825Zm0-110.97A53.144,53.144,0,1,1,2768.857,6145,53.2,53.2,0,0,1,2822,6091.855Zm0,105.938A52.794,52.794,0,1,0,2769.207,6145,52.854,52.854,0,0,0,2822,6197.793Zm-10.064-85.67h20.125a2.678,2.678,0,0,1,2.692,2.689v17.434h17.433a2.553,2.553,0,0,1,1.8.786,3.124,3.124,0,0,1,.891,1.889v20.143a2.694,2.694,0,0,1-2.692,2.689h-17.433v17.436a2.68,2.68,0,0,1-2.692,2.689h-20.125a2.68,2.68,0,0,1-2.689-2.689v-17.436h-17.436a2.68,2.68,0,0,1-2.689-2.689v-20.125a2.682,2.682,0,0,1,2.689-2.692h17.436v-17.434a2.677,2.677,0,0,1,2.689-2.689Zm42.594,22.825a2.545,2.545,0,0,0-2.343-2.352H2834.4v-17.783a2.316,2.316,0,0,0-2.343-2.34h-20.125a2.315,2.315,0,0,0-2.339,2.34V6132.6h-17.786a2.344,2.344,0,0,0-2.34,2.343v20.125a2.343,2.343,0,0,0,2.34,2.34H2809.6v17.785a2.342,2.342,0,0,0,2.339,2.34h20.125a2.344,2.344,0,0,0,2.343-2.34V6157.4h17.783a2.344,2.344,0,0,0,2.343-2.34Zm-40.251-17.8h15.583v17.786a2.342,2.342,0,0,0,2.339,2.339h17.786v15.443h-17.925a2.344,2.344,0,0,0-2.34,2.343v17.782h-15.443v-17.782a2.318,2.318,0,0,0-2.343-2.343h-17.782v-15.443h17.782a2.343,2.343,0,0,0,2.343-2.339Zm15.233.35h-14.883v17.437a2.679,2.679,0,0,1-2.692,2.688H2794.5v14.744h17.433a2.681,2.681,0,0,1,2.692,2.692V6172.5h14.744v-17.433a2.68,2.68,0,0,1,2.689-2.692h17.575v-14.744H2832.2a2.678,2.678,0,0,1-2.689-2.688Z" transform="translate(-2764 -6087)" fill="#707070"></path></g></g></svg>