<svg xmlns="http://www.w3.org/2000/svg" xmlns:xlink="http://www.w3.org/1999/xlink" width="204" height="204" viewBox="0 0 204 204"><defs><style>.a{fill:#f1f4f8;}.b{opacity:0;}.b,.c{fill:url(#a);}</style><linearGradient id="a" x1="0.5" x2="0.5" y2="1" gradientUnits="objectBoundingBox"><stop offset="0" stop-color="#571c56"></stop><stop offset="0.47" stop-color="#e5153f"></stop><stop offset="1" stop-color="#fcd000"></stop></linearGradient></defs><circle class="a" cx="102" cy="102" r="102"></circle><g transform="translate(44 44)"><rect class="b" width="116" height="116" transform="translate(0 0.466)"></rect><g transform="translate(-0.999 -20.024)"><path class="c" d="M75.6,83.321a3.008,3.008,0,0,1-3-3V76.459H33.082v3.26a3.607,3.607,0,0,1-3.6,3.6H3.6a3.608,3.608,0,0,1-3.6-3.6V38.366a3.608,3.608,0,0,1,3.6-3.6H9.079V4.293A4.3,4.3,0,0,1,13.369,0h87.989a4.3,4.3,0,0,1,4.292,4.293V27.235h6.073a3.007,3.007,0,0,1,3,3V80.317a3.008,3.008,0,0,1-3,3ZM74.416,30.239V80.317A1.184,1.184,0,0,0,75.6,81.5h36.123a1.183,1.183,0,0,0,1.183-1.183V30.239a1.184,1.184,0,0,0-1.183-1.182H75.6A1.184,1.184,0,0,0,74.416,30.239ZM1.821,38.366V79.719A1.784,1.784,0,0,0,3.6,81.5H29.479a1.784,1.784,0,0,0,1.781-1.781V38.366a1.784,1.784,0,0,0-1.781-1.782h-3.2l-1.163,2.745a2.788,2.788,0,0,1-2.573,1.7H10.538a2.79,2.79,0,0,1-2.573-1.7L6.8,36.584H3.6A1.784,1.784,0,0,0,1.821,38.366ZM72.595,74.638V68.59l-33.378-.041H33.082v6.089Zm-.048-7.91V62.8l-31.466-.041h-.953v3.969Zm-34.241,0V62.759H33.082v3.969Zm34.289-5.79v-30.7a3.007,3.007,0,0,1,3-3h28.23V4.293a2.474,2.474,0,0,0-2.47-2.471H13.369A2.473,2.473,0,0,0,10.9,4.293v30.47h18.58a3.607,3.607,0,0,1,3.6,3.6V60.938H72.595ZM9.641,38.619a.974.974,0,0,0,.9.594H22.544a.975.975,0,0,0,.9-.594l.862-2.035H8.78ZM91.985,78.456A1.675,1.675,0,1,1,93.66,80.13,1.675,1.675,0,0,1,91.985,78.456ZM77.517,75.234a.91.91,0,0,1-.911-.911V32.465a.91.91,0,0,1,.911-.909H109.8a.911.911,0,0,1,.911.909V74.323a.911.911,0,0,1-.911.911Zm.911-1.821h30.466V33.375H78.428Zm-61.712-3.39a.374.374,0,0,0-.351,0,5.786,5.786,0,0,1-4.337.569A5.618,5.618,0,0,1,8.8,67.557C6.988,64,6.67,58.434,9.085,55.834c1.115-1.2,3.258-2.289,7.133-.664a.84.84,0,0,0,.645,0c4.756-2,6.911.1,7.773,1.525a.91.91,0,0,1-.433,1.313,2.974,2.974,0,0,0,.421,5.642.909.909,0,0,1,.67,1.1,13.086,13.086,0,0,1-1.015,2.808,5.608,5.608,0,0,1-3.227,3.033,4.607,4.607,0,0,1-1.4.213A6.475,6.475,0,0,1,16.716,70.022Zm.85-1.611a4,4,0,0,0,2.935.444,3.893,3.893,0,0,0,2.155-2.124,10.538,10.538,0,0,0,.649-1.622,4.8,4.8,0,0,1-.826-8.206c-1.066-.957-2.712-.977-4.912-.054a2.673,2.673,0,0,1-2.054,0c-2.332-.978-4.047-.9-5.093.225-1.817,1.955-1.5,6.71,0,9.657a3.893,3.893,0,0,0,2.155,2.125,4,4,0,0,0,2.937-.444,2.2,2.2,0,0,1,2.05,0Zm67.427-6.069a.911.911,0,0,1-.911-.911V57.794A9.549,9.549,0,0,1,86.8,51.115l-2.689-2.689A.911.911,0,0,1,85.4,47.138l2.795,2.794a9.56,9.56,0,0,1,10.933,0l2.8-2.794a.911.911,0,1,1,1.287,1.288l-2.69,2.689a9.548,9.548,0,0,1,2.719,6.679v3.637a.911.911,0,0,1-.911.911Zm.909-4.548v2.726h15.516V57.794a7.758,7.758,0,0,0-15.516,0Zm10.682-.345V55.731a.911.911,0,0,1,1.822,0v1.719a.911.911,0,0,1-1.822,0Zm-7.669,0V55.731a.911.911,0,0,1,1.821,0v1.719a.911.911,0,0,1-1.821,0ZM16.036,54.018a.91.91,0,0,1-.754-.754,4.886,4.886,0,0,1,5.609-5.609.911.911,0,0,1,.755.754,4.893,4.893,0,0,1-5.61,5.609Zm1.9-3.709a3.079,3.079,0,0,0-.888,1.941,3.055,3.055,0,0,0,2.829-2.828A3.066,3.066,0,0,0,17.938,50.309Zm52.269-3.167L55.329,44.66a.911.911,0,0,1-.76-.9V32.8a.91.91,0,0,1,.911-.91H70.356a.91.91,0,0,1,.911.91V46.245a.911.911,0,0,1-.911.91A.856.856,0,0,1,70.207,47.143ZM56.39,42.99l13.055,2.179V33.707H56.39Zm-4.159,1.375L41.113,42.509a.911.911,0,0,1-.762-.9V32.8a.912.912,0,0,1,.911-.911H52.38a.911.911,0,0,1,.911.911V43.467a.91.91,0,0,1-.911.911A1,1,0,0,1,52.231,44.365ZM42.173,40.84l9.3,1.552V33.707h-9.3ZM55.48,30.608a.911.911,0,0,1-.911-.911V19.372a.91.91,0,0,1,.8-.9l14.877-1.884a.91.91,0,0,1,1.025.9V29.7a.911.911,0,0,1-.911.911Zm.911-10.433v8.613H69.445V18.521ZM41.262,30.608a.911.911,0,0,1-.911-.911V21a.911.911,0,0,1,.8-.9l11.118-1.409a.913.913,0,0,1,1.026.9V29.7a.911.911,0,0,1-.911.911Zm.911-8.8v6.981h9.3V20.63ZM12.133,14.8V9.337a.91.91,0,1,1,1.82,0V14.8a.91.91,0,1,1-1.82,0Z" transform="translate(1.999 36.49)"></path></g></g></svg>