<?xml version="1.0" encoding="UTF-8"?>
<svg xmlns="http://www.w3.org/2000/svg" width="131" height="115" viewBox="0 0 131 115">
  <g id="Owomi" transform="translate(-8381 -1133)">
    <rect id="Rectangle_3898" data-name="Rectangle 3898" width="131" height="115" transform="translate(8381 1133)" fill="#fff" opacity="0"></rect>
    <g id="Group_3981" data-name="Group 3981" transform="translate(8288 799)">
      <path id="Path_1" data-name="Path 1" d="M241.995,301a5.64,5.64,0,0,0-1.128-2.149,15.421,15.421,0,0,0-2.36-2.248c-2.269-1.638-4.441-3.412-6.848-4.854a2.457,2.457,0,0,1-1.061-.724c-1.1-.782-2.222-1.542-3.384-2.232-1.955-1.16-3.857-2.405-5.843-3.519-1.5-.843-2.986-1.723-4.49-2.564a36.8,36.8,0,0,0-3.828-2.052l-2.343-1.339c-1.323-.728-2.714-1.328-4.026-2.074-1.978-1.124-4.016-2.134-6.061-3.12-3.018-1.455-6.032-2.921-9.058-4.361-2.335-1.111-4.708-2.143-7.027-3.289-.911-.45-1.845-.866-2.776-1.277-1.521-.672-3.056-1.317-4.569-2.006-2.193-1-4.44-1.868-6.632-2.865-1-.454-2.04-.8-3.006-1.327h-.118a.429.429,0,0,0,.1.666,13.636,13.636,0,0,0,1.577,1.2,3.476,3.476,0,0,1,1.06.848,1.167,1.167,0,0,0,.232.264c1.453,1.064,2.784,2.277,4.166,3.426,1.4,1.163,2.756,2.374,4.159,3.532,1.252,1.033,2.478,2.1,3.717,3.147,1.508,1.278,3.008,2.571,4.48,3.889,1.589,1.424,3.282,2.725,4.848,4.176.6.557,1.213,1.106,1.871,1.608.609.465,1.122,1.06,1.749,1.525-4.279-1.712-8.561-3.367-12.891-4.9q-1.343-.432-2.668-.919c-2.474-1.119-5.1-1.826-7.642-2.745-1.839-.536-3.656-1.136-5.467-1.758-.224-.077-.535-.307-.676-.022-.126.255.285.287.423.452a9.171,9.171,0,0,0,1.7,1.225c1.527.99,3.009,2.047,4.54,3.029,1.132.726,2.192,1.555,3.319,2.282,1.289.831,2.533,1.726,3.826,2.549,1.164.742,2.288,1.538,3.422,2.322,1.2.829,2.427,1.614,3.631,2.434,1.334.908,2.662,1.826,4,2.728,1.85,1.249,3.724,2.467,5.576,3.714,1.789,1.2,3.56,2.434,5.364,3.616a8.688,8.688,0,0,1,1.678,1.154,5.331,5.331,0,0,1,1.227,3.376,12.776,12.776,0,0,1-.188,3.661c-.166.751-.289,1.514-.485,2.257-.209.8-.482,1.573-.727,2.359-.418,1.051-.763,2.128-1.182,3.178-.539,1.337-1.07,2.678-1.619,4.011-.782,1.9-1.6,3.785-2.362,5.691-.836,2.083-1.619,4.187-2.448,6.272-.708,1.782-1.447,3.552-2.172,5.328a5.752,5.752,0,0,1-.437.883,2.086,2.086,0,0,0-.25.442,4.95,4.95,0,0,1-.044.52c.04.669.463.316.764.284a1.044,1.044,0,0,0,.153-.074,4.2,4.2,0,0,0,.824-.3,3.576,3.576,0,0,0,.473-.172c1.3-.65,2.682-1.084,4.006-1.67.515-.228.994-.375,1.6-.576a1.589,1.589,0,0,0,.394-.116c1.643-.739,3.3-1.438,4.937-2.193,1.725-.8,3.418-1.671,5.111-2.536,1.813-.928,3.657-1.8,5.424-2.822,1.544-.892,3.12-1.732,4.64-2.663,1.587-.971,3.184-1.928,4.742-2.946a54.77,54.77,0,0,0,4.7-3.217,1.8,1.8,0,0,1,.584-.432,34.315,34.315,0,0,0,4.09-3.031q1.368-1.1,2.733-2.21a12.48,12.48,0,0,0,3.17-3.492c.134-.367.329-.706.491-1.06a6.655,6.655,0,0,0,.717-2.916A11.4,11.4,0,0,0,241.995,301Zm-23.661,1.65a17.346,17.346,0,0,1-2.092,4.364,18.516,18.516,0,0,1-2.267,3.1c-.236.235-.262.614-.564.8-.455.438-.682,1.066-1.209,1.444a44.991,44.991,0,0,1-3.677,3.977l-2.954,2.924c-.384.1-.44-.118-.35-.4a5.211,5.211,0,0,1,.37-1.044c.341-.6.552-1.251.854-1.861.564-1.138,1.033-2.319,1.6-3.458a21.754,21.754,0,0,0,1.631-4.413c.2-.788.262-1.6.431-2.38a22.15,22.15,0,0,0,.2-2.673,8.934,8.934,0,0,0-.291-1.894,11.275,11.275,0,0,0-1.3-3.975,13.2,13.2,0,0,0-2.644-3.607c-.444-.414-.863-.856-1.3-1.282a1.348,1.348,0,0,1-.255-.391.264.264,0,0,1,.036-.323c.1-.109.206-.07.32-.026a3.918,3.918,0,0,0,.913.388,10.419,10.419,0,0,0,1.622.741c.9.315,1.692.859,2.608,1.13a3.184,3.184,0,0,1,.64.4,18.834,18.834,0,0,1,3.4,2.014,13.649,13.649,0,0,1,3.2,2.819,11.509,11.509,0,0,1,1.07,1.66A2.3,2.3,0,0,1,218.334,302.649Z" transform="translate(-46.026 78)" fill="#1977af"></path>
      <text id="Owomi-2" data-name="Owomi" transform="translate(157.375 440.529)" fill="#1977af" font-size="18" font-family="SegoeUI-Bold, Segoe UI" font-weight="700">
        <tspan x="-30.261" y="0">Owomi</tspan>
      </text>
    </g>
  </g>
</svg>
