<?xml version="1.0" encoding="UTF-8"?>
<svg xmlns="http://www.w3.org/2000/svg" width="131" height="115" viewBox="0 0 131 115">
  <g id="Player" transform="translate(-7209 -172)">
    <rect id="Rectangle_3888" data-name="Rectangle 3888" width="131" height="115" transform="translate(7209 172)" fill="#fff" opacity="0"></rect>
    <g id="player-2" data-name="player" transform="translate(7034.88 95.489)">
      <path id="Path_18433" data-name="Path 18433" d="M231.828,353.425c24.065-.235,44.587,8.156,52.019,17.1l-.315-32.237c-7.431-8.944-27.933-15.231-52-15-23.894.233-44.146,6.826-51.535,15.814l.315,32.237c7.389-8.989,27.621-17.685,51.514-17.918" transform="translate(0 -183.324)" fill="#1a1818"></path>
      <path id="Path_18434" data-name="Path 18434" d="M318.064,364.364a103.474,103.474,0,0,0-27.672-3.306,108.053,108.053,0,0,0-20.191,2.033l2.017-23.689-3.414.691c-1.76.356-3.525.763-5.248,1.208l-1.778.46-3.187,34.753,3.824-1.323a89.926,89.926,0,0,1,28.073-4.438,92.985,92.985,0,0,1,25.783,3.173l3.034.859.869-9.849Z" transform="translate(-59.008 -195.425)" fill="#1a1818"></path>
      <path id="Path_18435" data-name="Path 18435" d="M312.554,488.461a.261.261,0,0,0-.3-.292l-.668.007.015,1.489.668-.007a.261.261,0,0,0,.292-.3ZM312.53,486a.261.261,0,0,0-.3-.292l-.668.007.014,1.489.668-.007a.262.262,0,0,0,.292-.286Zm.991,1.145a.531.531,0,0,1-.459.528v.015a.531.531,0,0,1,.47.518l.013,1.356a.954.954,0,0,1-1.058,1.072l-1.769.017a.109.109,0,0,1-.119-.116l-.054-5.66a.1.1,0,0,1,.116-.119l1.768-.017a.954.954,0,0,1,1.079,1.05Z" transform="translate(-98.017 -304.542)" fill="#1a1818"></path>
      <path id="Path_18436" data-name="Path 18436" d="M347.811,487.332a.265.265,0,0,0,.292-.3l-.013-1.386a.265.265,0,0,0-.3-.292l-.73.007.019,1.975Zm1.3-.1a.954.954,0,0,1-.529.978l.528,1.926c.023.089-.021.133-.1.134l-.763.008a.116.116,0,0,1-.126-.1l-.512-1.867-.508,0,.018,1.857a.109.109,0,0,1-.116.119l-.763.008a.109.109,0,0,1-.119-.117l-.055-5.66a.109.109,0,0,1,.117-.119l1.849-.018a.954.954,0,0,1,1.072,1.05Z" transform="translate(-124.676 -304.279)" fill="#1a1818"></path>
      <path id="Path_18437" data-name="Path 18437" d="M382.721,485.326l-.447,2.576.944-.01Zm1.025,4.6a.114.114,0,0,1-.119-.1l-.217-1.074-1.312.013-.191,1.078a.114.114,0,0,1-.116.1l-.788.008c-.081,0-.118-.043-.1-.124l1.168-5.68a.115.115,0,0,1,.125-.1l1.024-.01a.115.115,0,0,1,.126.1l1.279,5.656c.015.081-.013.126-.1.126Z" transform="translate(-150.843 -304.016)" fill="#1a1818"></path>
      <path id="Path_18438" data-name="Path 18438" d="M421.723,483.634a.109.109,0,0,1,.119.117l.054,5.659a.109.109,0,0,1-.117.119l-.729.008a.127.127,0,0,1-.134-.1l-1.159-3.136h-.036l.031,3.125a.1.1,0,0,1-.116.119l-.763.008a.108.108,0,0,1-.118-.117l-.055-5.659a.109.109,0,0,1,.116-.119l.73-.007a.127.127,0,0,1,.134.1l1.151,3.121h.044l-.03-3.11a.1.1,0,0,1,.115-.119Z" transform="translate(-179.22 -303.718)" fill="#1a1818"></path>
      <path id="Path_18439" data-name="Path 18439" d="M456.7,488.25a.261.261,0,0,0,.292-.3l-.032-3.353a.267.267,0,0,0-.3-.3l-.677.007.038,3.95Zm-1.728-4.789a.106.106,0,0,1,.117-.119l1.768-.017a.954.954,0,0,1,1.072,1.058l.036,3.766a.954.954,0,0,1-1.05,1.072l-1.769.017c-.081,0-.118-.036-.118-.117Z" transform="translate(-206.458 -303.486)" fill="#1a1818"></path>
      <path id="Path_18440" data-name="Path 18440" d="M372.547,365.273h.533l.871-8.292-5.2-11.832c-.2.006-.408.01-.612.017l5.263,11.972Z" transform="translate(-141.26 -199.742)" fill="#96999c"></path>
      <path id="Path_18441" data-name="Path 18441" d="M438.116,369.009l1.831-19.885c-.177-.026-.353-.052-.531-.077l-1.832,19.9c.178.021.355.045.532.067" transform="translate(-193.402 -202.666)" fill="#96999c"></path>
      <path id="Path_18442" data-name="Path 18442" d="M409.3,351.6l2.352-5.377c-.122-.009-.242-.021-.365-.03l-2.165,4.949Z" transform="translate(-172.035 -200.525)" fill="#96999c"></path>
      <path id="Path_18443" data-name="Path 18443" d="M535.485,390.337a.78.78,0,0,0,.355-.158.922.922,0,0,0,.27-.4,1.535,1.535,0,0,0,.1-.585,2.513,2.513,0,0,0-.116-.592,3.385,3.385,0,0,0-.307-.689,3.041,3.041,0,0,0-.477-.616,1.888,1.888,0,0,0-.477-.35l-.036.4a3.671,3.671,0,0,1,.33.467,4.049,4.049,0,0,1,.375.845,3.237,3.237,0,0,1,.151.778,2.263,2.263,0,0,1-.134.866Z" transform="translate(-266.378 -231.124)" fill="#96999c"></path>
      <path id="Path_18444" data-name="Path 18444" d="M561.94,436.315a1.91,1.91,0,0,0,.252,1.011l.055.015a.7.7,0,0,0,.511-.112,2.651,2.651,0,0,1,.131-2.509,1.929,1.929,0,0,0-.954,1.593" transform="translate(-286.771 -266.993)" fill="#96999c"></path>
      <path id="Path_18445" data-name="Path 18445" d="M303.2,368.955l.153-.439c.619-1.775,2.318-6.584,3.96-11.242,1.39-3.941,2.749-7.788,3.4-9.644-.147.015-.3.031-.442.048-1.165,3.33-6.333,17.946-7.525,21.36.15-.029.3-.053.456-.082" transform="translate(-92.156 -201.603)" fill="#96999c"></path>
      <path id="Path_18446" data-name="Path 18446" d="M341.342,386.414l-.392,1.172.322,1.762c.2-.02.394-.042.594-.06Z" transform="translate(-120.846 -230.723)" fill="#96999c"></path>
      <path id="Path_18447" data-name="Path 18447" d="M346.418,420.591l.6-.045-.417-2.228-.6.056Z" transform="translate(-124.64 -254.678)" fill="#96999c"></path>
      <path id="Path_18448" data-name="Path 18448" d="M191.241,401.2a2.481,2.481,0,0,1-.678-1.034,3.935,3.935,0,0,1-.21-1.272,7.92,7.92,0,0,1,.914-3.616,14.716,14.716,0,0,1,2.371-3.346c-.215.207-.423.414-.62.624a14.082,14.082,0,0,0-2.4,3.333,7.143,7.143,0,0,0-.835,3.275,3.118,3.118,0,0,0,.167,1.028,1.74,1.74,0,0,0,.47.729,1.281,1.281,0,0,0,.743.32h.127Z" transform="translate(-7.349 -234.864)" fill="#96999c"></path>
      <path id="Path_18449" data-name="Path 18449" d="M322,457.722a98.74,98.74,0,0,0-21.415,2.463,104.447,104.447,0,0,1,20.1-2,92.94,92.94,0,0,1,26.522,3.362l.069-.859A95.694,95.694,0,0,0,322,457.721" transform="translate(-90.536 -284.259)" fill="#96999c"></path>
      <path id="Path_18450" data-name="Path 18450" d="M503.826,363.224l-.526-.156-1.718,19.657c.177.053.349.11.525.164Z" transform="translate(-241.458 -213.193)" fill="#96999c"></path>
      <path id="Path_18451" data-name="Path 18451" d="M533.392,430.179a6.251,6.251,0,0,1-1.6-2.117,7.454,7.454,0,0,1-.634-2.541,16.142,16.142,0,0,1,.043-2.767,4.683,4.683,0,0,0-.015-.859,2.195,2.195,0,0,0-.186-.668c-.022-.05-.047-.1-.073-.144l-.367,4.089c.008.191.014.387.03.573a6.7,6.7,0,0,0,.573,2.29,5.488,5.488,0,0,0,1.413,1.865,7.538,7.538,0,0,0,2.474,1.365l.03.013c.056.025.115.045.172.067a7.539,7.539,0,0,1-1.855-1.16" transform="translate(-263.21 -256.746)" fill="#96999c"></path>
      <path id="Path_18452" data-name="Path 18452" d="M215.668,404l.191-2.4c-.118.1-.231.207-.343.31-.085.08-.166.157-.244.234l-.051.622.033.047a2.61,2.61,0,0,1,.409,1.188" transform="translate(-26.449 -242.125)" fill="#96999c"></path>
      <path id="Path_18453" data-name="Path 18453" d="M243.242,388.891a5.5,5.5,0,0,0,.427-1.336,6.919,6.919,0,0,0,.117-1.261c-.006-.619-.214-.71-.292-.744a.974.974,0,0,0-.548-.026,1.813,1.813,0,0,1,.273,1.038,7.621,7.621,0,0,1-.128,1.4,6.23,6.23,0,0,1-.487,1.517,5.539,5.539,0,0,1-.373.668l-.016.206c.059-.059.115-.12.17-.181a5.394,5.394,0,0,0,.859-1.284" transform="translate(-46.714 -230.036)" fill="#96999c"></path>
      <path id="Path_18454" data-name="Path 18454" d="M265.747,387.446l2.715-29.621-.549.141-2.339,26.252-.3,3.388c.156-.055.317-.107.477-.161" transform="translate(-64.025 -209.257)" fill="#96999c"></path>
      <path id="Path_18455" data-name="Path 18455" d="M211.905,416.083c-.031.129-.068.258-.11.387a5.794,5.794,0,0,1-.56,1.2l-.891,11.009c.191-.113.382-.221.573-.333Z" transform="translate(-22.784 -252.999)" fill="#96999c"></path>
      <path id="Path_18456" data-name="Path 18456" d="M281.873,356.791a3.206,3.206,0,0,0-.151-.778,4.059,4.059,0,0,0-.374-.844,3.752,3.752,0,0,0-.6-.771,2.659,2.659,0,0,0-.807-.551q-.166-.072-.422-.16c-.171-.058-.315-.1-.435-.135l-.419,4.712.477.212a2.424,2.424,0,0,0,1.247.253,1.578,1.578,0,0,0,.859-.351,1.646,1.646,0,0,0,.488-.719,2.286,2.286,0,0,0,.135-.866m9.861,11.139c-.121,2.365-2.436,4.449-3.861,5.088h0a3.382,3.382,0,0,1-.449.181,3.948,3.948,0,0,1-1.462.169,4.374,4.374,0,0,1-1.477-.362l-.03-.013a7.538,7.538,0,0,1-2.481-1.365,5.5,5.5,0,0,1-1.412-1.865,6.709,6.709,0,0,1-.573-2.29,15.31,15.31,0,0,1,.042-2.642,5.407,5.407,0,0,0-.017-1.024,2.933,2.933,0,0,0-.249-.9,2.493,2.493,0,0,0-.531-.74,2.791,2.791,0,0,0-.838-.548l-.723,8.072q-2.36-.908-4.931-1.686l1.718-19.657c3.71,1.109,4.747,1.309,7.544,3,6.66,4.279,4.741,10.633,1.576,10.808a4.805,4.805,0,0,1,1.362,4.517c-.181,1.78.627,2.934,1.687,3.156a1.689,1.689,0,0,0,1.592-.692l.026-.033a1.916,1.916,0,0,1-.461-1.307,1.976,1.976,0,0,1,3.949.133m-34.936-3.177a95.017,95.017,0,0,1,13.142,2.45l.4-4.521h0q-3.81-.97-7.884-1.65l.337-3.872q2.347.382,4.62.869l.428-3.646q-2.334-.484-4.742-.873l.367-3.489q3.672.587,7.186,1.394l.365-4.063a99.72,99.72,0,0,0-12.39-2.493ZM229.7,358.351q1.733-.205,3.493-.358l-1.19-6.535Zm-2.242,6.841q-2.174.323-4.268.725c1.192-3.414,6.362-18.035,7.526-21.36q2.645-.3,5.344-.477l4.2,19.988q-2.977.1-5.866.328l-.523-2.8q-2.755.231-5.413.583Zm16.438-1.178q2.933,0,5.79.148l.835-7.92,5.484-11.71q-2.053-.23-4.14-.382l-3.34,7.641-3.068-7.936q-1.55-.027-3.109-.012-1.431.013-2.863.064l5.263,11.973ZM209.125,355a1.4,1.4,0,0,0-.739-1.42,2.334,2.334,0,0,0-1.908.234l-.547,6.8a5.677,5.677,0,0,0,1.6-1.233,6.076,6.076,0,0,0,.973-1.465,6.241,6.241,0,0,0,.486-1.517,7.688,7.688,0,0,0,.128-1.4m4.613-2.235a10.122,10.122,0,0,1-.106,1.38,13.743,13.743,0,0,1-.382,1.813A14.668,14.668,0,0,1,212.51,358a11.833,11.833,0,0,1-1.169,2.053,10.983,10.983,0,0,1-1.664,1.847,8.609,8.609,0,0,1-2.243,1.426l-1.757.793-.614,7.443a50.97,50.97,0,0,0-4.891,2.593l1.425-17.611q-.965.735-1.735,1.452a9.761,9.761,0,0,0-1.2,1.3,1.217,1.217,0,0,1,.82.556,1.917,1.917,0,0,1,.3,1.05,3.339,3.339,0,0,1-.183,1.094,4.986,4.986,0,0,1-.512,1.083,4.726,4.726,0,0,1-.763.928,3.523,3.523,0,0,1-.913.635,1.9,1.9,0,0,1-.985.216,1.281,1.281,0,0,1-.743-.321,1.729,1.729,0,0,1-.469-.728,3.149,3.149,0,0,1-.167-1.028,7.141,7.141,0,0,1,.836-3.276,14.074,14.074,0,0,1,2.4-3.332A23.953,23.953,0,0,1,202,353.022a32.551,32.551,0,0,1,4.809-2.757,12.2,12.2,0,0,1,3.174-1.079,3.8,3.8,0,0,1,2.139.167,2.337,2.337,0,0,1,1.209,1.25,5.591,5.591,0,0,1,.4,2.176M242.713,367a100.508,100.508,0,0,1,26.963,3.216l-.4,4.53a95.146,95.146,0,0,0-26.521-3.271,92.624,92.624,0,0,0-28.9,4.58l.3-3.3h0l2.346-25.592q2.511-.65,5.112-1.178l-2.023,23.753A103.68,103.68,0,0,1,242.713,367" transform="translate(-11.304 -198.754)" fill="#fff"></path>
      <path id="Path_18457" data-name="Path 18457" d="M334.215,382.607c.076.021.156.04.231.061l.3-3.374a100.469,100.469,0,0,0-26.961-3.217,103.654,103.654,0,0,0-23.118,2.737l2.022-23.753q-2.158.436-4.258.962l-.019.207q1.983-.489,4.016-.9L284.4,379.08a103.665,103.665,0,0,1,23.119-2.738,100.506,100.506,0,0,1,26.964,3.217Z" transform="translate(-76.889 -207.183)" fill="#96999c"></path>
      <path id="Path_18458" data-name="Path 18458" d="M572.755,437.36q.015-.124.022-.249a1.958,1.958,0,0,0-1.908-2,2.018,2.018,0,0,0-.546.059,1.576,1.576,0,0,0-.265.266,1.977,1.977,0,0,1,2.46,1.945,4.036,4.036,0,0,1-.152.9,4.77,4.77,0,0,0,.39-.915" transform="translate(-292.865 -267.282)" fill="#96999c"></path>
      <path id="Path_18459" data-name="Path 18459" d="M412,401.351l.725-6.87.1-.21.04-.375-.4.85-.7,6.6.232.009" transform="translate(-174.018 -236.34)" fill="#96999c"></path>
      <path id="Path_18460" data-name="Path 18460" d="M338.722,347.818l-.087.248q2.211-.234,4.454-.382l3.931,18.734.314-.011-3.985-18.989q-2.329.151-4.627.4" transform="translate(-119.108 -201.444)" fill="#96999c"></path>
      <path id="Path_18461" data-name="Path 18461" d="M551.739,427.947l-.047.01a1.456,1.456,0,0,1-1.184.3c-1.06-.22-1.87-1.376-1.689-3.156a4.8,4.8,0,0,0-1.179-4.322,2.521,2.521,0,0,1-.442.071,4.8,4.8,0,0,1,1.362,4.516c-.181,1.779.627,2.935,1.687,3.157a1.622,1.622,0,0,0,1.491-.573" transform="translate(-275.704 -256.523)" fill="#96999c"></path>
      <path id="Path_18462" data-name="Path 18462" d="M521.559,368.307a22.53,22.53,0,0,0-6.727-2.756l-.029.333a21.937,21.937,0,0,1,6.5,2.688c4.014,2.576,4.909,5.908,4.294,8.187a3.89,3.89,0,0,0,.382-.891c.3-2.235-.763-5.211-4.423-7.561" transform="translate(-251.38 -215.058)" fill="#96999c"></path>
      <path id="Path_18463" data-name="Path 18463" d="M423.117,347.911l-.117.276c1.114.09,2.222.191,3.324.315l.131-.279q-1.655-.183-3.334-.314" transform="translate(-182.449 -201.813)" fill="#96999c"></path>
      <path id="Path_18464" data-name="Path 18464" d="M235.719,367.839a3.805,3.805,0,0,0-2.139-.167,11.246,11.246,0,0,0-2.708.866,33.2,33.2,0,0,0-3.71,2.067c.942-.562,1.931-1.094,2.983-1.588a12.178,12.178,0,0,1,3.174-1.079,3.8,3.8,0,0,1,2.139.166,2.344,2.344,0,0,1,1.208,1.249,5.6,5.6,0,0,1,.394,2.177,10.066,10.066,0,0,1-.106,1.38,13.906,13.906,0,0,1-.382,1.813c-.1.356-.218.721-.354,1.094.019-.041.04-.081.057-.122a14.54,14.54,0,0,0,.722-1.988c.043-.159.084-.316.12-.469.038-.2.073-.4.1-.594a10.071,10.071,0,0,0,.107-1.38,5.6,5.6,0,0,0-.4-2.176,2.342,2.342,0,0,0-1.208-1.25" transform="translate(-35.411 -216.596)" fill="#96999c"></path>
      <path id="Path_18465" data-name="Path 18465" d="M206.687,407.5c.076-.1.163-.213.258-.323h-.023a7.283,7.283,0,0,0-.5.593,1.212,1.212,0,0,1,.82.556,1.917,1.917,0,0,1,.3,1.05,3.267,3.267,0,0,1-.117.866,4.677,4.677,0,0,0,.36-.807h0a2.728,2.728,0,0,0,.017-.321,1.908,1.908,0,0,0-.3-1.05,1.212,1.212,0,0,0-.82-.555" transform="translate(-19.844 -246.31)" fill="#96999c"></path>
      <path id="Path_18466" data-name="Path 18466" d="M462.642,356.345l.263-2.935a99.386,99.386,0,0,0-11.565-2.373l-.028.3a98.934,98.934,0,0,1,11.332,2.338l-.235,2.618.232.051" transform="translate(-203.709 -204.161)" fill="#96999c"></path>
      <path id="Path_18467" data-name="Path 18467" d="M470.276,420.49l.3-3.375h0c-2.54-.647-5.174-1.2-7.884-1.65l-.261.266c2.71.451,5.344,1,7.884,1.649h0l-.273,3.054c.076.02.156.038.231.058" transform="translate(-212.058 -252.534)" fill="#96999c"></path>
      <path id="Path_18468" data-name="Path 18468" d="M465.016,385.54q2.407.388,4.741.873l-.26,2.22.223.045.3-2.532q-2.332-.485-4.741-.873Z" transform="translate(-213.998 -229.867)" fill="#96999c"></path>
      <path id="Path_18469" data-name="Path 18469" d="M203.846,442.405l-2.427.947-2.386,1.024-2.348,1.114-2.3,1.21-2.235,1.315L190,449.45l-2.057,1.566L186,452.723l-.544.477-.016-.722-.1-4.053c-.014-.676-.009-1.351-.013-2.026s0-1.351.011-2.027c.021-1.351.021-2.7.071-4.053.021-.676.033-1.352.063-2.028s.054-1.352.1-2.028h.074c.056.675.1,1.35.137,2.025s.068,1.35.1,2.026c.075,1.351.1,2.7.149,4.053.023.676.044,1.351.051,2.026s.029,1.351.026,2.026l-.011,4.054-.56-.242,2.02-1.678,2.124-1.537,2.214-1.4,2.29-1.272,2.345-1.145,2.393-1.041,2.43-.954,2.455-.868Z" transform="translate(-4.009 -268.152)" fill="#5a5b5e"></path>
      <path id="Path_18470" data-name="Path 18470" d="M522.417,462.938l-.785-.518-.9-.594-.554-.366-.635-.37-1.431-.826c-.5-.3-1.064-.563-1.622-.859s-1.145-.609-1.762-.876l-1.846-.847-1.886-.757c-.619-.255-1.24-.477-1.84-.7s-1.163-.469-1.712-.675-1.064-.406-1.538-.6-.911-.365-1.3-.511-.726-.286-1-.4c-.556-.226-.87-.368-.87-.368l.021-.072s.339.06.926.191,1.431.3,2.418.6c.5.143,1.029.305,1.593.483s1.145.413,1.748.629c.6.242,1.221.477,1.829.776l1.863.859,1.828.93c.609.294,1.18.637,1.74.954s1.11.608,1.6.942l1.393.911.616.406.533.4.868.643.756.56Z" transform="translate(-242.314 -281.166)" fill="#5a5b5e"></path>
      <path id="Path_18471" data-name="Path 18471" d="M538.507,353.3l1.76.708c.3.113.581.25.87.382l.866.392c.286.127.573.26.859.408l.847.43c.286.146.573.281.842.444l.826.477c.273.162.557.305.819.486l.8.519c.265.176.539.338.788.536l.763.573a8.449,8.449,0,0,1,.746.6l.724.626a9.352,9.352,0,0,1,.69.668l.675.684.059.06v.1l.135,6.258c.05,2.086.1,4.172.132,6.258,0,1.043.018,2.086,0,3.13l-.033,3.129c-.01,1.043-.049,2.087-.073,3.13s-.071,2.088-.125,3.131H551.4q-.112-1.563-.191-3.127c-.044-1.043-.1-2.086-.134-3.128l-.1-3.129c-.035-1.043-.038-2.086-.058-3.129-.014-2.086,0-4.173.009-6.259l.012-6.259.061.158-.642-.68a8.877,8.877,0,0,0-.659-.668l-.7-.631a8.392,8.392,0,0,0-.72-.6l-.741-.581c-.242-.2-.508-.368-.763-.551l-.776-.537c-.254-.191-.531-.337-.8-.506l-.805-.494c-.265-.171-.547-.312-.823-.465l-.83-.452c-.275-.156-.557-.3-.842-.432l-.85-.415c-.286-.136-.565-.286-.859-.4l-1.739-.763Z" transform="translate(-269.156 -205.858)" fill="#5a5b5e"></path>
      <path id="Path_18472" data-name="Path 18472" d="M185.861,348.531l-.071-5.48v-.021l.013-.016a27.562,27.562,0,0,1,7.061-5.581,44.713,44.713,0,0,1,4.016-2.067c1.366-.634,2.767-1.2,4.176-1.718s2.845-.99,4.282-1.437c1.444-.426,2.893-.839,4.357-1.191s2.932-.684,4.408-.986,2.958-.558,4.448-.789,2.979-.441,4.474-.621,2.994-.329,4.494-.453,3-.218,4.51-.268,3.01-.089,4.518-.079,3.009.046,4.514.1l2.255.111,2.252.163,2.246.21,2.242.253,2.234.312,2.225.363-.01.074-2.241-.226L250.022,329l-2.243-.163-2.244-.123-2.247-.088-2.246-.06c-1.5-.024-2.991-.031-4.494,0s-2.993.053-4.485.115l-2.243.1-2.241.136c-1.493.112-2.987.229-4.475.387s-2.976.332-4.458.551-2.958.462-4.432.729-2.939.58-4.4.927-2.906.726-4.347,1.132c-1.431.427-2.867.866-4.275,1.377s-2.807,1.043-4.176,1.651a44.621,44.621,0,0,0-4.024,1.99,27.393,27.393,0,0,0-7.1,5.432l.013-.036.037,5.48Z" transform="translate(-4.348 -186.727)" fill="#5a5b5e"></path>
      <path id="Path_18473" data-name="Path 18473" d="M265.954,122.509l-.251-1.253-1.223-1.364c-.47-.636-1.06-1.542-1.534-1.673-.635.325-4.117,3.368-6.245,5.01l-.052.031a1.723,1.723,0,0,0-.721.6c-.161.483-3.444,5.4-4.812,7.214a26.7,26.7,0,0,0-3.8,6.447q-.3.763-.554,1.4a18.5,18.5,0,0,0-1.184,3.426,3.036,3.036,0,0,0,.828,2.337,14.736,14.736,0,0,0,8.728,2.218c1.595-.147,2.887-.3,3.912-.444.706-.39,1.823-2.589,1.908-4.668a5.667,5.667,0,0,0-1.622-3.7,4.227,4.227,0,0,0-2-.321,16.635,16.635,0,0,0-2.357.523c-.487,1.539-1.1,3.679-1.1,3.705l-.392-.191c.016-.054,1.676-6.282,2.365-8.164.244-.668.573-1.636.88-2.57a22.329,22.329,0,0,1,1.446-3.867c.324-.371,1.175-1.267,1.211-1.3l.12-.127.172.035a4.187,4.187,0,0,0,1.961.031c.582-.313,1.95-1.224,1.964-1.234l.1-.068.12.018a3.238,3.238,0,0,0,2.043-.458c.967-.659,1.015-1.083,1.018-1.282a1.775,1.775,0,0,0-.716-.276Z" transform="translate(-49.232 -29.355)" fill="#fff"></path>
      <path id="Path_18474" data-name="Path 18474" d="M421.575,157.066a16.187,16.187,0,0,0-3.223-2.546c-2.023-1.195-4.784-2.543-4.812-2.555l-.066.147c.028.013,2.556,1.56,4.556,2.742,1.838,1.086,3.545,2.213,3.545,2.213" transform="translate(-175.299 -54.692)" fill="#fff"></path>
      <path id="Path_18475" data-name="Path 18475" d="M364.168,178.5a3.931,3.931,0,0,0-.4,1.417l-.021.173-1.042.5-.469.781-.191-.016a5.767,5.767,0,0,0-.91,0,1.159,1.159,0,0,0-.286.089c1.346-.022,1.468.278,1.519.406a10.648,10.648,0,0,1,.294,1.205c.12.542.247,1.137.317,1.465h.6c-.079-.668-.657-2.061-.657-2.473a2.767,2.767,0,0,1,.573-1.381.316.316,0,0,1,.418-.076l.833.523a2.792,2.792,0,0,1-.344-1.089,4.615,4.615,0,0,1,.416-1.786,1.227,1.227,0,0,0-.638.268" transform="translate(-135.782 -74.415)" fill="#fff"></path>
      <path id="Path_18476" data-name="Path 18476" d="M389.257,158.42l.879-.509a.316.316,0,0,1,.156-.042h1.622a.315.315,0,0,1,.314.315v.286l.49-.874q-.344-.214-.727-.432A18.687,18.687,0,0,1,386.5,153h-1.336l-.854-.573-2.164,1.821-.177-.365c-.052-.108-.494-1.073.053-1.661a.553.553,0,0,0,.191-.359h0l-.716-1.336-.15-.954-.51-.048c-.373.294-1.039.872-1.179,1a13.08,13.08,0,0,0-.3,2.031l.511.949-1.718,3.073a4.377,4.377,0,0,0-.533,1.888,8.942,8.942,0,0,0,1.646,2.989,7.209,7.209,0,0,1,.257-1.723,4.4,4.4,0,0,1,.225-.668,1.6,1.6,0,0,0,.344.3,4.62,4.62,0,0,0-.167.523,5.185,5.185,0,0,0,1.939,4.973c1.323.8,2.687.023,3.682-.545.191-.111.382-.216.546-.3.477-.239,1.162-.631,1.807-1.027a.313.313,0,0,1-.2-.115l-1.283-1.622a.314.314,0,0,1,.011-.4c.1-.115.138-.108.248,0a3.563,3.563,0,0,0,.942.7c.552.1.824-.286,1.05-.371.125-.045.5-.068.181.6l-.12.607c.7-.444.829-.477.954-.64a13.068,13.068,0,0,0,.888-1.651l.029-.064.08-.068-.441-.494-.74.185a.315.315,0,0,1-.391-.305v-.647a.315.315,0,0,1,.157-.273" transform="translate(-148.372 -52.857)" fill="#fff"></path>
      <path id="Path_18477" data-name="Path 18477" d="M470.108,288.678l-.344.988-.24-.017a1.968,1.968,0,0,0-1.165.174,2.279,2.279,0,0,0-.117.874l.024.286-.278.053c-.487.1-1.079.34-1.152.538a2.493,2.493,0,0,0-.123.883.31.31,0,0,1,.144-.159l1.431-.74a.316.316,0,0,1,.242-.019.312.312,0,0,1,.183.158l.369.741a.315.315,0,0,1-.286.456h-1.8a.316.316,0,0,1-.269-.154v.053l-.281.051s-.567.115-.622.477c-.042.272.421.577.651.682l.131.059.041.138c0,.006.135.453.237.787a.36.36,0,0,0,.043.181,1.292,1.292,0,0,0,.146.213,1.223,1.223,0,0,0,.138.147l.05.041.063.03-.015.052c-.01.041-.013.086-.019.126-.645.023-1.9,0-1.866-.53a1.408,1.408,0,0,1,.356-.928,1.186,1.186,0,0,1-.579-1.094,1.24,1.24,0,0,1,.87-.931,3.055,3.055,0,0,1,.162-.932c.184-.506.938-.77,1.366-.883a2.679,2.679,0,0,1,.142-.815v-1.718l.11-.1a6.531,6.531,0,0,0,1.357-1.659.79.79,0,0,0-.014-.808.529.529,0,0,0-.286-.243,8.114,8.114,0,0,0-1.1,1.369l-.041.061-.064.037a26.3,26.3,0,0,0-2.535,1.578,22.971,22.971,0,0,0-1.753,2.347l-.1.138H462.25l-.06-.026c-.79-.344-2.943-1.261-3.414-1.369a39.588,39.588,0,0,1-4.325-1.645,8.832,8.832,0,0,1-1.363-1.008,13.476,13.476,0,0,0-2.744-1.9c-1.69-.777-3.769-1.7-3.79-1.71l-.075-.043-2.933-4.854c-.432.55-1.454.944-3.048,1.172a21.743,21.743,0,0,1-3.054.23,13.807,13.807,0,0,1-1.842-.112c.876,1.517,2.156,3.7,2.7,4.476a33.973,33.973,0,0,1,2.585,4.244,5.6,5.6,0,0,0,1.357,1.225,7.989,7.989,0,0,1,.74.6,21.6,21.6,0,0,0,8.714,3.845c2.527.454,4.974.843,6.762,1.126,1.553.246,2.576.409,2.928.5.255.064.694.217,1.2.393a15.379,15.379,0,0,0,2.992.846,9.077,9.077,0,0,0,2.122-.477,1.508,1.508,0,0,0,.4-.117c.062-.027.121-.057.183-.087l.1-.043.056-.021.025-.01.04-.016.1-.039c.065-.023.131-.045.2-.064s.108-.028.161-.042l.055.011c.824-.286,1.521-.545,1.737-.642a1.933,1.933,0,0,0-.364-.88l-.059-.092.111-1.538.729-.593v-1.107l.059-.082a2.65,2.65,0,0,0,.548-1.24,4.982,4.982,0,0,0-1.672-.9" transform="translate(-191.915 -149.408)" fill="#fff"></path>
      <path id="Path_18478" data-name="Path 18478" d="M586.885,266.517a.494.494,0,0,1-.135-.108l-.632,1.622.45.139.62-1.571a.821.821,0,0,1-.133-.018.528.528,0,0,1-.172-.069" transform="translate(-304.926 -140.62)" fill="#fff"></path>
      <path id="Path_18479" data-name="Path 18479" d="M602.277,141.775l-11.54,29.719a.493.493,0,0,1,.461.157c2.362-5.991,7.825-19.855,11.63-29.554a.561.561,0,0,1-.551-.322" transform="translate(-308.393 -47.041)" fill="#fff"></path>
      <path id="Path_18480" data-name="Path 18480" d="M635.269,83.948c-.32-.32-2.719-1.737-4.286-2.678-.979-.587-2.74-1.431-3.531-.485a.8.8,0,0,0-.191.763,2.321,2.321,0,0,0,1.614,1.234c1.7.553,4.343,1.616,4.369,1.622a.314.314,0,0,1,.2.292v1.2a.331.331,0,0,1-.021.114l-.209.537a.535.535,0,0,1,.636.164c.252-.652.4-1.036.412-1.092.191-.692.8-.417,1.127-.845a.527.527,0,0,0-.125-.833" transform="translate(-335.799 -0.929)" fill="#fff"></path>
      <path id="Path_18481" data-name="Path 18481" d="M386.588,156.371l.487.277v.673l.21.211.42-1.249L387.22,156v-.191h.656v-.42l-1.076-.21Z" transform="translate(-155.113 -57.105)" fill="#1a1818"></path>
      <path id="Path_18482" data-name="Path 18482" d="M407.489,171.428l.554.694a.318.318,0,0,0,.129.1l1.421.573v.712a.318.318,0,0,0,.256.31l.06.006a.314.314,0,0,0,.291-.2l.166-.415.427-.506c.052.035.157.155.221.155l.557-.1a.316.316,0,0,0,.316-.315c0-.174-.151-.113-.325-.113l-.449-.2-.924-1.05-.1-.073-2.97-1.078.3,1.385a.319.319,0,0,0,.061.126" transform="translate(-170.533 -68.174)" fill="#1a1818"></path>
      <path id="Path_18483" data-name="Path 18483" d="M396.68,186.269a.32.32,0,0,0,.177-.023l1.211-.532c.159-.07.259-.133.191-.293s-.225-.12-.382-.051l-1.172.259h-.025l-1.527-.243a.382.382,0,0,0-.35.129l-1.622,1.908a.382.382,0,0,0-.1.246v.4c0,.371.226.466.443.165a.25.25,0,0,0,.048-.146l.137-.319.011-.017,1.468-1.723Z" transform="translate(-159.99 -79.728)" fill="#1a1818"></path>
      <path id="Path_18484" data-name="Path 18484" d="M400.843,203.4a3.257,3.257,0,0,1-1.21-.821l-.392.5a3.516,3.516,0,0,0,1.508.805l.073.009c.156,0,.27.019.286-.149a.337.337,0,0,0-.265-.342" transform="translate(-164.613 -92.692)" fill="#1a1818"></path>
      <path id="Path_18485" data-name="Path 18485" d="M569.258,327.951a.315.315,0,0,0,.316.315h.971a.315.315,0,0,0,0-.63h-.971a.315.315,0,0,0-.316.315" transform="translate(-292.266 -186.591)" fill="#1a1818"></path>
      <path id="Path_18486" data-name="Path 18486" d="M561.564,340.446h-.9a.315.315,0,1,0,0,.63h.9a.315.315,0,1,0,0-.63" transform="translate(-285.575 -196.208)" fill="#1a1818"></path>
      <path id="Path_18487" data-name="Path 18487" d="M309.494,133.877c.363-.115.394-.573.88-1.381.915-.2,4.835-1.55.9-.708.406-3.993-2.556,1.908-1.776,2.089" transform="translate(-97.127 -38.503)" fill="#1a1818"></path>
      <path id="Path_18488" data-name="Path 18488" d="M342.875,191.428c-.015-.039-.032-.077-.047-.117-.03-.073-.056-.148-.084-.222h-.477l-.191-.034c.009.124.01.158.012.286a7.663,7.663,0,0,1,.786.1" transform="translate(-121.692 -84.041)" fill="#1a1818"></path>
      <path id="Path_18489" data-name="Path 18489" d="M403.793,193.022c-.265.172-.217.3-.763.2-.179-.026-1.344-.859-1.4-1.279a1.388,1.388,0,0,1,.071-.482c.1-.311,1.05.722,1.491,1.032.218.153.74.382.594.525m.573-.167a12.056,12.056,0,0,1-1.01-.668c-.755-.533-1.734-1.349-1.743-1.359-.1-.1-.223-.255-.342-.205s-.2.1-.2.219v1.342a.315.315,0,0,0,.068.2c.349.439,1.219,1.46,1.774,1.46a4.427,4.427,0,0,0,1.5-.5c.111-.058.176-.117.168-.243a.286.286,0,0,0-.217-.245" transform="translate(-165.986 -83.713)" fill="#1a1818"></path>
      <path id="Path_18490" data-name="Path 18490" d="M346.927,83.852c-.323.429-.934.155-1.126.845-.015.055-.161.44-.412,1.092a.535.535,0,0,0-.636-.164l.209-.537a.337.337,0,0,0,.021-.114v-1.2a.315.315,0,0,0-.2-.292c-.027-.01-2.666-1.074-4.369-1.622a2.318,2.318,0,0,1-1.61-1.235.794.794,0,0,1,.191-.763c.788-.947,2.549-.1,3.531.485,1.567.941,3.967,2.358,4.286,2.678a.527.527,0,0,1,.125.833m-16.794,40.758a.391.391,0,0,0-.114-.1.591.591,0,0,0-.348-.063l11.536-29.718a.56.56,0,0,0,.551.322c-3.806,9.7-9.269,23.563-11.63,29.554m-1.161,2.944-.45-.139.632-1.622a.5.5,0,0,0,.135.107.534.534,0,0,0,.172.069c.039.007.1.014.133.018l-.62,1.571M327.2,140.178a2.657,2.657,0,0,1-.548,1.24l-.058.082v1.107l-.73.593-.111,1.539.06.09a1.921,1.921,0,0,1,.363.88c-.215.1-.912.361-1.737.642l-.055-.011c-.054.013-.109.026-.161.042s-.133.041-.2.063l-.106.039-.04.016-.025.01-.056.021-.1.043c-.061.03-.12.059-.183.087a1.5,1.5,0,0,1-.4.117,9.066,9.066,0,0,1-2.123.477,15.38,15.38,0,0,1-2.992-.846c-.507-.178-.946-.329-1.2-.393-.348-.087-1.375-.25-2.928-.5-1.787-.286-4.235-.668-6.762-1.126a21.6,21.6,0,0,1-8.714-3.845,7.961,7.961,0,0,0-.74-.6,5.6,5.6,0,0,1-1.357-1.225,33.888,33.888,0,0,0-2.585-4.244c-.544-.773-1.824-2.958-2.7-4.476a13.883,13.883,0,0,0,1.841.112,21.679,21.679,0,0,0,3.053-.23c1.594-.228,2.616-.622,3.048-1.172l2.934,4.854.09.04c.021.009,2.1.933,3.789,1.71a13.492,13.492,0,0,1,2.744,1.892,8.819,8.819,0,0,0,1.363,1.007,39.437,39.437,0,0,0,4.325,1.645c.47.109,2.624,1.025,3.414,1.369l.059.026h1.067l.1-.139a23.035,23.035,0,0,1,1.753-2.347,26.313,26.313,0,0,1,2.535-1.579l.064-.036.041-.061a8.109,8.109,0,0,1,1.1-1.369.528.528,0,0,1,.286.243.79.79,0,0,1,.014.808,6.558,6.558,0,0,1-1.357,1.659l-.11.1v1.718a2.712,2.712,0,0,0-.143.815c-.427.113-1.182.382-1.365.883a3.067,3.067,0,0,0-.162.933,1.24,1.24,0,0,0-.871.931,1.189,1.189,0,0,0,.579,1.095,1.409,1.409,0,0,0-.356.928c-.037.531,1.22.552,1.865.53.007-.041.01-.085.02-.126l.015-.052-.062-.03-.051-.041a1.224,1.224,0,0,1-.138-.147,1.291,1.291,0,0,1-.147-.213.356.356,0,0,1-.043-.181c-.1-.333-.235-.781-.237-.787l-.041-.138-.131-.059c-.231-.1-.694-.41-.651-.682.055-.363.617-.477.622-.477l.286-.051v-.052a.316.316,0,0,0,.269.154h1.805a.316.316,0,0,0,.286-.456l-.37-.74a.315.315,0,0,0-.426-.139l-1.431.74a.309.309,0,0,0-.144.159,2.488,2.488,0,0,1,.123-.883c.073-.2.668-.444,1.152-.538l.278-.053-.024-.286a2.282,2.282,0,0,1,.117-.874,1.967,1.967,0,0,1,1.166-.174l.24.017.344-.988a4.982,4.982,0,0,1,1.672.9m-42.72-28.717c-.994.573-2.36,1.345-3.682.545a5.185,5.185,0,0,1-1.939-4.973,4.465,4.465,0,0,1,.167-.523,1.583,1.583,0,0,1-.344-.3,4.362,4.362,0,0,0-.225.668,7.231,7.231,0,0,0-.257,1.723,8.93,8.93,0,0,1-1.645-2.989,4.377,4.377,0,0,1,.533-1.888l1.718-3.073-.51-.949a13.055,13.055,0,0,1,.3-2.032c.139-.129.805-.706,1.178-1l.51.048.15.954L281.161,99h0c.009.038-.008.165-.191.359-.548.589-.1,1.553-.052,1.661l.177.365,2.164-1.821.859.573h1.336a18.686,18.686,0,0,0,5.493,4.168q.382.218.728.432l-.49.874v-.286a.315.315,0,0,0-.315-.316h-1.622a.315.315,0,0,0-.156.042l-.879.509a.315.315,0,0,0-.157.273v.647a.315.315,0,0,0,.392.305l.74-.184.441.494-.08.068-.029.064a13.049,13.049,0,0,1-.888,1.651c-.127.163-.253.2-.954.64l.12-.607c.323-.668-.056-.643-.181-.6-.229.084-.5.463-1.05.371a3.555,3.555,0,0,1-.942-.7c-.11-.108-.148-.114-.248,0a.314.314,0,0,0-.01.4l1.282,1.622a.314.314,0,0,0,.2.115c-.645.4-1.328.788-1.807,1.028-.167.084-.351.191-.547.3m-8.206-4.758-.834-.523a.316.316,0,0,0-.418.076,2.767,2.767,0,0,0-.573,1.381c0,.411.579,1.813.657,2.473h-.6c-.07-.327-.2-.922-.317-1.465a11.01,11.01,0,0,0-.293-1.205c-.052-.129-.173-.428-1.519-.407a1.15,1.15,0,0,1,.286-.089,5.82,5.82,0,0,1,.91,0l.191.016.468-.781,1.042-.5.021-.173a3.924,3.924,0,0,1,.4-1.417,1.227,1.227,0,0,1,.638-.268,4.623,4.623,0,0,0-.416,1.786,2.79,2.79,0,0,0,.344,1.089m-2.819,2.553-2.438-1.769a.311.311,0,0,0-.125-.052c.334,0,.609.019.614.019l.106.007.089-.058c.1-.07.25-.156.4-.238l-.04.072a.315.315,0,0,0,.081.344l1.364,1.254Zm12.1-11.974c.028.013,2.79,1.361,4.812,2.555a16.171,16.171,0,0,1,3.224,2.546s-1.707-1.127-3.545-2.213c-2-1.182-4.53-2.729-4.556-2.742Zm4.57,9.631-.09-.435.748-.052Zm-21.612,26.2-1.225-1.514.23-.929,1.293,2.27Zm-11.38-16c-1.022.14-2.314.3-3.912.444a14.736,14.736,0,0,1-8.728-2.218,3.036,3.036,0,0,1-.828-2.337,18.513,18.513,0,0,1,1.184-3.426q.254-.637.554-1.4a26.679,26.679,0,0,1,3.8-6.447c1.368-1.813,4.651-6.731,4.812-7.214a1.717,1.717,0,0,1,.721-.6l.052-.032c2.128-1.641,5.61-4.683,6.245-5.01.477.132,1.064,1.038,1.534,1.673l1.223,1.364.251,1.253.207.04a1.776,1.776,0,0,1,.716.276c0,.2-.052.622-1.018,1.282a3.239,3.239,0,0,1-2.043.457l-.119-.018-.1.068c-.013.01-1.382.92-1.964,1.234a4.189,4.189,0,0,1-1.961-.031l-.172-.035-.12.127c-.036.037-.886.934-1.212,1.3a22.331,22.331,0,0,0-1.446,3.867c-.312.934-.635,1.9-.88,2.57-.689,1.883-2.347,8.111-2.365,8.164l.392.186c.008-.027.618-2.167,1.1-3.705a16.636,16.636,0,0,1,2.357-.523,4.229,4.229,0,0,1,2,.321,5.666,5.666,0,0,1,1.622,3.7c-.089,2.079-1.205,4.278-1.908,4.668m90.219-33.959a.352.352,0,0,0-.085-.177c-.063-.065-2.623-1.735-4.485-2.854-2.683-1.61-3.869-.909-4.336-.347a.878.878,0,0,0-.25,1.026,2.869,2.869,0,0,0,2.026,1.658c1.412.458,3.487,1.276,4.13,1.532l.421.93L343.8,87.4a47.7,47.7,0,0,0-2.04,5.2l-12.7,32.362a.667.667,0,0,0-.07.169v.013l-3.975,10.125a1.136,1.136,0,0,0-.954-.1,6.728,6.728,0,0,0-1.3,1.52,25.287,25.287,0,0,0-2.582,1.622,20.611,20.611,0,0,0-1.76,2.325h-.6c-.489-.212-2.881-1.24-3.464-1.38a39.39,39.39,0,0,1-4.185-1.594,8.7,8.7,0,0,1-1.24-.929,13.913,13.913,0,0,0-2.883-1.989c-1.492-.686-3.285-1.486-3.705-1.673l-3.941-6.522-.593-3.938a25.307,25.307,0,0,0-2.271-6.07c-.121-.191-.249-.373-.376-.559-.191.1-.224.144-.155.273.148.215.286.427.422.63,1.145,1.77,1.75,5.778,1.756,5.821l.021.143-.859-.355.325-.7a.311.311,0,0,0,0-.27l-2.222-4.626a.316.316,0,0,0-.266-.177l-4.149-.245.1-.142h3.531a.315.315,0,0,0,.185-.573,14.26,14.26,0,0,0-3.244-1.807,27.289,27.289,0,0,0-4.828-.423l.679-.3a.322.322,0,0,0,.152-.142l.353-.676a.316.316,0,0,0-.28-.461h-1.023l.07-.445c.465-.254,1.092-.617,1.685-.987l.267.294.965.46.68.808a3.113,3.113,0,0,0,1.874.775c.167.025.588-.042.382-.236l-.016-.024a2.085,2.085,0,0,1-1.7-.852l-.819-.982-.978-.465-.111-.122a6.3,6.3,0,0,0,1.185-.906,12.616,12.616,0,0,0,.932-1.708l1.426-1.2.716-1.28a13.515,13.515,0,0,1,2.276,1.891c.6.648.949.944,1.3.867a.525.525,0,0,0,.382-.382c.046-.135.18-.539-2.148-4.574l1.027-1.518a5.241,5.241,0,0,0,1.646-2.958c.1-1.5-1.644-3.361-1.833-3.556a10.448,10.448,0,0,0-1.777-1.861,8.945,8.945,0,0,0-1.2-.677l-.5-.907h-.619A4.547,4.547,0,0,0,289,90.3l-.181-.02c-2.958-.331-4.935-.1-5.878.694a11.292,11.292,0,0,0-2.43,3.092c-.132.21-.487.763-.662.972a2.619,2.619,0,0,0-.341,1.24c-.286.227-1,.793-1.166.954-.073.073-.266.265-.461,2.461l-.006.063.255.809-1.424,2.553a2.316,2.316,0,0,0-1.491.573,4.008,4.008,0,0,0-.5,1.555l-.9.43-.367.611a5.588,5.588,0,0,0-.834.013,3.4,3.4,0,0,0-1.16.5c-.5.146-1.566.382-1.79.423l-.012.007c.015.1.031.191.048.286.191-.033.394-.063.573-.078s.345-.018.518-.019a.31.31,0,0,0-.179.1.315.315,0,0,0,.007.424l2.72,2.9a1.718,1.718,0,0,1-.215.668,14.212,14.212,0,0,1-2.021-2.349.322.322,0,0,0-.109-.1l-1.943-1.017a.315.315,0,0,0-.366.5l2.428,2.386.47,2.386-3.174-1.262-.829-2.138a.315.315,0,0,0-.211-.191l-2.544-.694-.082-.01h-1.387a.315.315,0,0,0-.316.315v.471h-.2v-1.118a.315.315,0,0,0-.434-.291l-1.574.647a.316.316,0,0,0-.152.45l.757,1.3-1.867.442a6.745,6.745,0,0,0-1.419-2.653l1.472-.647a11.652,11.652,0,0,1,6.166-.925c.042-.207.016-.071.065-.276a16.415,16.415,0,0,0-2.276-.153,23.15,23.15,0,0,0-4.143.751l-1.813.793a4.793,4.793,0,0,0-2.258-.34,15.4,15.4,0,0,0-2.053.429c.45-1.415.932-2.9,1.23-3.708.247-.677.557-1.605.886-2.587a36.844,36.844,0,0,1,1.323-3.651c.245-.281.825-.9,1.076-1.161a4.282,4.282,0,0,0,2.213-.064c.521-.281,1.592-.984,1.919-1.2a3.8,3.8,0,0,0,2.365-.573c.9-.61,1.294-1.176,1.294-1.833,0-.477-.6-.713-1.017-.819l-.214-1.066-1.63-1.324c-.787-1.057-1.363-1.593-1.71-1.593-.131,0-.477,0-6.6,4.719a2.136,2.136,0,0,0-1.009.954c-.156.412-3.253,5.1-4.718,7.036a27.264,27.264,0,0,0-3.881,6.6q-.3.759-.552,1.393a17.956,17.956,0,0,0-1.225,3.59,3.553,3.553,0,0,0,1.114,2.937,15.409,15.409,0,0,0,9.126,2.315c3.054-.281,5.02-.6,6.076-.771.244-.039.466-.076.608-.1.427,1.028,2.231,6.856,2.271,7.375.042.544.159,2.106.181,2.4a15.26,15.26,0,0,0-.269,1.511l.246.049.656-1.967-.675-3.287,4.156,5.31.682,1.263-.72.823-1.692-2.559s-1.881,1.737-1.75,2.047.876,2.605.876,2.605l-.876,2.729h-.675l.675-2.977-.668-2.528H262.1a1.131,1.131,0,0,0,.012.14l.272,2.356c-.088.443-.692,3.5-.737,4.41a14.748,14.748,0,0,0,.151,3.826,4.231,4.231,0,0,0,.431,1.011,3.4,3.4,0,0,1,1.486-.321,3.59,3.59,0,0,1,1.025.145,3.289,3.289,0,0,1,1.765-.477,3.558,3.558,0,0,1,1.145.179,3.224,3.224,0,0,1,1.979-.617,3.682,3.682,0,0,1,.835.1,3.558,3.558,0,0,1,3.4.021,3.34,3.34,0,0,1,1.616-.388,3.547,3.547,0,0,1,1.145.181,3.37,3.37,0,0,1,1.534-.345,3.321,3.321,0,0,1,1.674.419,3.457,3.457,0,0,1,1.336-.255,3.374,3.374,0,0,1,1.533.344,3.573,3.573,0,0,1,3.1.018,3.454,3.454,0,0,1,1.336-.254,3.755,3.755,0,0,1,.755.074l.016-1.24-.225-1.122c.156-.668,1.436-6.177,1.734-7.024.191-.535.4-1.3.553-1.866.786,1.375,2.553,4.435,3.244,5.412a34.408,34.408,0,0,1,2.5,4.081c.142.43.743.906,1.575,1.527a8.189,8.189,0,0,1,.674.536A22.027,22.027,0,0,0,307.02,145c2.532.456,4.984.844,6.775,1.129,1.481.236,2.551.4,2.873.486.228.057.654.205,1.145.376a15.126,15.126,0,0,0,3.17.882c1.1.049,4.969-1.375,5.465-1.6a.594.594,0,0,0,.334-.389,1.966,1.966,0,0,0-.374-1.322l.075-1.05.75-.61V141.7a2.816,2.816,0,0,0,.6-1.636c-.1-.536-1.252-1.065-2.1-1.386l2.088-6.445c.747-1.893,18.106-46.576,18.321-47.274.23-.74,1.538-.363,1.224-1.8" transform="translate(-47.332)" fill="#191717"></path>
      <path id="Path_18491" data-name="Path 18491" d="M435.6,283.291c.876,1.517,2.156,3.7,2.7,4.476a33.955,33.955,0,0,1,2.585,4.244,5.606,5.606,0,0,0,1.357,1.225,7.9,7.9,0,0,1,.741.594,21.589,21.589,0,0,0,8.715,3.845c2.527.454,4.974.844,6.761,1.127,1.553.246,2.576.409,2.928.5.255.064.695.216,1.2.393a15.377,15.377,0,0,0,2.992.846h.1a7.956,7.956,0,0,0,1.477-.313l.077-.022.055-.015h.009l.042-.012.019,0,.04-.012h.039l.125-.037h.01l.071-.021.034-.01.022-.007a1.507,1.507,0,0,0,.4-.117c.062-.028.122-.058.183-.087l.1-.043h-.006l-.022.008.087-.032.024-.01.04-.015.1-.039c.066-.023.131-.044.2-.064s.108-.028.162-.042l.055.012c.286-.1.549-.191.787-.277l.1-.038-3.011-.367.034.1a1.261,1.261,0,0,0,.146.213,1.176,1.176,0,0,0,.138.147l.05.041.063.03-.016.052c-.01.041-.013.086-.019.126h-.011c-.1,0-.191,0-.3,0h-.016c-.656,0-1.533-.083-1.534-.511a.144.144,0,0,1,0-.018v-.009q.006-.086.017-.162c-.274.025-.594.043-.92.043a4.619,4.619,0,0,1-1.231-.137,1.718,1.718,0,0,1-1.208-1.336,31.618,31.618,0,0,0-5.535-2.114c-3.762-1.135-11.289-4.149-11.289-4.149l-.427-1.6-2.556-.573-3.52-5.742c-.483.033-.921.047-1.315.047a13.853,13.853,0,0,1-1.842-.112" transform="translate(-191.914 -153.295)" fill="#aeb0b3"></path>
      <path id="Path_18492" data-name="Path 18492" d="M435.6,283.29h0a13.8,13.8,0,0,0,1.842.112c.394,0,.833-.013,1.315-.047h0c-.482.032-.922.047-1.315.047a13.8,13.8,0,0,1-1.842-.112m29.849,15.676h0c-.008.051-.013.1-.017.161a1.045,1.045,0,0,1,.019-.161m-.019.164h0m4.374.23c-.239.086-.506.18-.787.277.286-.1.549-.191.787-.277m-2.473.119-.015.052c-.01.041-.013.086-.019.126.006-.04.01-.085.019-.126Zm-.047.177c-.1,0-.191.006-.3.006.11,0,.213,0,.3-.006m-.321.006h0m1.411.154h0m-.674.247-.022.007.022-.007m-.057.017-.071.021.071-.021m-.079.024-.125.037.125-.037m-.135.04h0m-.016,0h0m-.054.016-.019,0,.019,0m-.062.018h0m-.063.018-.077.022.077-.022m-1.554.336h0m-.064,0h0" transform="translate(-191.914 -153.294)" fill="#77797c"></path>
      <path id="Path_18493" data-name="Path 18493" d="M266,138.536l-.184.048-.079.018c-.486.808-.517,1.266-.88,1.381h-.019c-.1-.034-.122-.158-.11-.34l-3.975.345-3.626,8.9s-1.348,1.135-3.479,4.97-3.551,4.119-3.551,4.119-.426.771,0,1.2,2.414.565,2.414.565a9.107,9.107,0,0,0,5.193,1.963,6.008,6.008,0,0,0,.675-.037,20.387,20.387,0,0,0,4.872-1.164,8.665,8.665,0,0,0,.954-3.34h0v-.014h0v-.014h0v-.032h0V157.1h0a.062.062,0,0,0,0-.01v-.1h0v-.007a3.77,3.77,0,0,0-.121-.99l-6.966,1.28h0l-.392-.191c.017-.054,1.676-6.282,2.365-8.164.245-.668.573-1.636.88-2.57a22.322,22.322,0,0,1,1.446-3.866c.325-.371,1.175-1.267,1.212-1.305l.12-.127.172.035h.037l.026,0a7,7,0,0,0,1.219.126h0a1.569,1.569,0,0,0,.676-.108c.582-.313,1.949-1.224,1.964-1.234l.076-.051Z" transform="translate(-52.49 -44.609)" fill="#aeb0b3"></path>
      <path id="Path_18494" data-name="Path 18494" d="M310.639,138.536l-.184.048.184-.048m-.263.066h0c-.487.808-.517,1.266-.88,1.381h0c.363-.115.394-.573.88-1.381m-1.009,1.035h0c-.012.181.02.3.111.34-.1-.035-.122-.159-.11-.34m.11.34h0m0,0h0m0,0h0m0,0h0m0,0h0m0,0h0m0,0h0" transform="translate(-97.127 -44.609)" fill="#77797c"></path>
      <path id="Path_18495" data-name="Path 18495" d="M283.509,148.717h0m.028.006h0m1.923.024a1.571,1.571,0,0,1-.676.107,1.571,1.571,0,0,0,.676-.107m-.679.107h0m.008,15.755h0m0,.008h0m0,.089h0m-7.479.007h0l.392.191h0Zm7.478.007h0m0,.014h0m0,.015h0m0,.031h0m0,.014h0m0,.014h0" transform="translate(-73.06 -52.253)" fill="#77797c"></path>
      <path id="Path_18496" data-name="Path 18496" d="M386.588,159.962l.487.278h0Z" transform="translate(-155.113 -60.696)" fill="#aeb0b3"></path>
      <path id="Path_18497" data-name="Path 18497" d="M368.668,195.89l-.326.676.019.085.083.382c.063.294.12.559.158.741h.6v-.008h0a16.114,16.114,0,0,0-.53-1.874" transform="translate(-141.413 -87.672)" fill="#aeb0b3"></path>
      <path id="Path_18498" data-name="Path 18498" d="M368.669,195.888h0a16.116,16.116,0,0,1,.53,1.874,16.107,16.107,0,0,0-.53-1.874m-.326.676h0l.019.085-.019-.085m.1.466.158.741c-.038-.182-.1-.448-.158-.741m.754.735h0" transform="translate(-141.414 -87.67)" fill="#77797c"></path>
      <path id="Path_18499" data-name="Path 18499" d="M587.621,266.97l-.6,1.554.227.071.62-1.571a.821.821,0,0,1-.133-.018.436.436,0,0,1-.111-.036" transform="translate(-305.601 -141.041)" fill="#aeb0b3"></path>
      <path id="Path_18500" data-name="Path 18500" d="M589.441,266.966h0a.428.428,0,0,0,.111.036c.039.007.09.014.132.018a.794.794,0,0,1-.132-.018Z" transform="translate(-307.421 -141.038)" fill="#77797c"></path>
      <path id="Path_18501" data-name="Path 18501" d="M637.824,142.688h0a.6.6,0,0,0,.32.1.6.6,0,0,1-.32-.1m.358.1h0M638.148,142.783Z" transform="translate(-343.748 -47.726)" fill="#aeb0b3"></path>
      <path id="Path_18502" data-name="Path 18502" d="M603.212,142.688,591.726,172.2a.491.491,0,0,1,.215.14c2.361-5.991,7.825-19.855,11.63-29.554h-.038a.6.6,0,0,1-.32-.1" transform="translate(-309.136 -47.726)" fill="#aeb0b3"></path>
      <path id="Path_18503" data-name="Path 18503" d="M603.212,142.683h0a.6.6,0,0,0,.32.1h.006a.6.6,0,0,1-.325-.1m-11.487,29.509h0l.1.046a.381.381,0,0,0-.1-.047" transform="translate(-309.135 -47.723)" fill="#77797c"></path>
      <path id="Path_18504" data-name="Path 18504" d="M651.462,105.027Zm0,0a.542.542,0,0,1,.249.065.542.542,0,0,0-.249-.065m-.191.043h0" transform="translate(-353.84 -19.45)" fill="#aeb0b3"></path>
      <path id="Path_18505" data-name="Path 18505" d="M630.4,83.209a.444.444,0,0,0-.231.049c-.4.245.011,1.01.319,1.478a4.439,4.439,0,0,0,.468.182c1.7.552,4.343,1.615,4.369,1.622a.315.315,0,0,1,.2.292v1.2a.331.331,0,0,1-.021.114l-.209.537h.01a.432.432,0,0,1,.191-.043h.006a.544.544,0,0,1,.248.065l.309-.829-.315-1.5a13.264,13.264,0,0,0-1.269-1.5c-.286-.205-3.116-1.681-4.076-1.681" transform="translate(-337.876 -3.068)" fill="#aeb0b3"></path>
      <path id="Path_18506" data-name="Path 18506" d="M651.476,102.609a.331.331,0,0,1-.021.114l-.209.537.209-.537a.33.33,0,0,0,.021-.114m-.029.6h0a.436.436,0,0,0-.191.043h-.01a.427.427,0,0,1,.2-.048.551.551,0,0,1,.255.066h0a.55.55,0,0,0-.249-.065h0" transform="translate(-353.825 -17.634)" fill="#77797c"></path>
      <path id="Path_18507" data-name="Path 18507" d="M650.542,102.371l-.26.659h0Z" transform="translate(-353.101 -17.455)" fill="#aeb0b3"></path>
      <path id="Path_18508" data-name="Path 18508" d="M326.7,195.824l-.4.835h.954l.082.01,2.544.694a.314.314,0,0,1,.211.191l.828,2.138,3.175,1.262-.471-2.386-.191-.184-1.342.573a27.611,27.611,0,0,0-1.863-2.367c-.472-.427-3.531-.763-3.531-.763" transform="translate(-109.848 -87.622)" fill="#aeb0b3"></path>
      <path id="Path_18509" data-name="Path 18509" d="M354.936,206.085h0l.191.183.47,2.386-.47-2.386Z" transform="translate(-131.347 -95.327)" fill="#77797c"></path>
      <path id="Path_18510" data-name="Path 18510" d="M401.227,185.594Z" transform="translate(-166.104 -79.941)" fill="#aeb0b3"></path>
      <path id="Path_18511" data-name="Path 18511" d="M401.219,185.6h0" transform="translate(-166.096 -79.945)" fill="#77797c"></path>
      <path id="Path_18512" data-name="Path 18512" d="M358.923,201.74l-.427.416c.177.22.35.43.513.619a5.1,5.1,0,0,0,.8.8h0a1.7,1.7,0,0,0,.215-.668Z" transform="translate(-134.021 -92.064)" fill="#aeb0b3"></path>
      <path id="Path_18513" data-name="Path 18513" d="M360.207,201.739h0l1.1,1.172Zm.087,1.035a5.1,5.1,0,0,0,.8.8,5.117,5.117,0,0,1-.8-.8" transform="translate(-135.305 -92.064)" fill="#77797c"></path>
      <path id="Path_18514" data-name="Path 18514" d="M387.965,152.6l-1.05.286-.141.4.874.171v.42h-.656v.191l.485.278-.42,1.249-.12-.119.068.562,1.1,2.2,2.8.748.676,2.082h.012l1.172-.259.014-.006h.006a.543.543,0,0,1,.191-.05h0a.167.167,0,0,1,.16.107h0a.232.232,0,0,1,.023.1c0,.1-.087.145-.211.2l-1.211.532h-.007a.308.308,0,0,1-.116.024h0a.324.324,0,0,1-.049,0l-1.49-.238-1.468,1.723-.011.016-.136.32a.248.248,0,0,1-.048.146v.006h0a.345.345,0,0,1-.245.173h0c-.11,0-.191-.123-.191-.344V163.1a.382.382,0,0,1,.083-.228l-.008.008-1.05-.7.642-2.514h-.733l-.627,1.738a1.609,1.609,0,0,0,.306.26,4.588,4.588,0,0,0-.167.523,3.312,3.312,0,0,0-.086.791,5.133,5.133,0,0,0,2.025,4.182l.026.015h0a2.3,2.3,0,0,0,1.187.325h0a5.028,5.028,0,0,0,2.369-.836h0l.087-.05c.191-.111.382-.216.547-.3.477-.239,1.162-.632,1.807-1.028a.313.313,0,0,1-.2-.115l-1.283-1.622a.313.313,0,0,1,.01-.4l.01-.011h0a.154.154,0,0,1,.1-.06h.006c.035,0,.071.029.122.079h0a3.56,3.56,0,0,0,.943.7,1.019,1.019,0,0,0,.167.014h0a1.589,1.589,0,0,0,.836-.365h.016l.026-.01h.006a.35.35,0,0,1,.11-.018h0a.177.177,0,0,1,.191.2.979.979,0,0,1-.114.392h0v.023l-.119.607h.007l.242-.152h.008c.324-.2.477-.286.579-.362-.13-.374-.31-1.018-.125-1.3.2-.3,1.132-.477,1.132-.477h0l.029-.064.08-.068-.441-.494-.74.184h-.008a.3.3,0,0,1-.068.008h0a.317.317,0,0,1-.181-.058l-.01-.008a.316.316,0,0,1-.121-.249v-.647a.314.314,0,0,1,.157-.273l.879-.51a.315.315,0,0,1,.157-.042h1.622a.315.315,0,0,1,.315.315v.286l.49-.874q-.344-.215-.727-.432a21.456,21.456,0,0,1-4.932-3.55h0q-.286-.3-.534-.62h-1.336l-.854-.573-2.164,1.821-.177-.365a2.277,2.277,0,0,1-.219-.906,1.077,1.077,0,0,1,.272-.756.573.573,0,0,0,.191-.339.093.093,0,0,0,0-.02h0l-.716-1.336Zm6.3,8.206-.06-.006a.317.317,0,0,1-.256-.31v-.712l-1.421-.573a.32.32,0,0,1-.13-.1l-.554-.694a.32.32,0,0,1-.061-.126l-.3-1.385,2.97,1.078.1.073.924,1.05.449.2c.055,0,.108-.006.155-.009h.044c.076,0,.128.022.128.123a.316.316,0,0,1-.316.316l-.558.1c-.064,0-.169-.119-.221-.155l-.427.506-.166.415a.314.314,0,0,1-.286.2m-4.053,1.261h0c.1,0,.212.132.286.211h0c.01.01.988.826,1.743,1.359a12.008,12.008,0,0,0,1.01.668.286.286,0,0,1,.217.245v.02c0,.113-.064.169-.168.223a4.426,4.426,0,0,1-1.5.5c-.555,0-1.425-1.021-1.774-1.46a.313.313,0,0,1-.068-.2v-1.342c0-.128.078-.17.191-.219a.118.118,0,0,1,.045-.009Zm-.7,3.478h0l.391-.5a3.257,3.257,0,0,0,1.211.821.343.343,0,0,1,.267.316.226.226,0,0,1,0,.026c-.014.137-.1.15-.205.15h-.083l-.073-.009a3.519,3.519,0,0,1-1.508-.805" transform="translate(-154.891 -55.172)" fill="#aeb0b3"></path>
      <path id="Path_18515" data-name="Path 18515" d="M398.092,185.311h0m0,0a.546.546,0,0,0-.191.05.546.546,0,0,1,.191-.05m-.191.051h0m-.01,0h0m.368.053h0m.025.1c0,.1-.087.145-.211.2l-1.211.532,1.211-.532c.124-.054.211-.1.211-.2M396.707,185.625Zm-1.512.4-1.468,1.723-.011.017-.137.32a.247.247,0,0,1-.048.146h0a.247.247,0,0,0,.048-.146l.137-.32.011-.017,1.468-1.723,1.491.238Zm1.66.218a.31.31,0,0,1-.116.024.309.309,0,0,0,.116-.024m-.122.024h0m-3.558,1.158h0a.382.382,0,0,0-.083.228.382.382,0,0,1,.087-.231m-.087.233h0M393.092,187.663Zm.438.573a.345.345,0,0,1-.245.173.345.345,0,0,0,.245-.173m-.248.173h0" transform="translate(-159.99 -79.728)" fill="#77797c"></path>
      <path id="Path_18516" data-name="Path 18516" d="M399.242,204.575h0a3.516,3.516,0,0,0,1.508.805l.073.009h0l-.073-.009a3.516,3.516,0,0,1-1.508-.805m1.869.637a.236.236,0,0,1,0,.027c-.014.137-.1.15-.205.15.113,0,.191-.013.205-.15a.236.236,0,0,0,0-.027m-.209.177h0" transform="translate(-164.614 -94.193)" fill="#77797c"></path>
      <path id="Path_18517" data-name="Path 18517" d="M388.163,153.534h0l.716,1.336h0a.09.09,0,0,1,0,.02.092.092,0,0,0,0-.02h0Zm2.819,1.908-2.164,1.82-.177-.365a2.277,2.277,0,0,1-.219-.906,2.278,2.278,0,0,0,.219.906l.176.365,2.164-1.82.859.573h0Zm2.728,1.19h0m.006.007a21.449,21.449,0,0,0,4.952,3.542q.382.218.727.432-.344-.215-.727-.432a33.215,33.215,0,0,1-2.841-1.763h0a14.155,14.155,0,0,1-2.108-1.777m2.063,5.071h0v.647a.316.316,0,0,0,.121.249l.01.009-.01-.009a.316.316,0,0,1-.121-.249Zm-9.018.668a4.457,4.457,0,0,0-.167.523,3.3,3.3,0,0,0-.086.791,3.3,3.3,0,0,1,.086-.791,4.452,4.452,0,0,1,.167-.523m10.151.1-.74.185.74-.185.441.494Zm-.745.191h0m0,0a.308.308,0,0,1-.069.008.307.307,0,0,0,.069-.008m-.071.008h0m-2.879,1.1h0m0,0a.153.153,0,0,0-.1.06.153.153,0,0,1,.1-.06m-.1.063h0m0,0h0m0,0-.01.011.01-.011m.234.007h0m-.323.212h0a.313.313,0,0,0,.069.2l1.282,1.622a.314.314,0,0,0,.2.115.314.314,0,0,1-.2-.115L393.1,164.27a.313.313,0,0,1-.069-.2m2.436.1h0m0,0a.354.354,0,0,0-.111.018.355.355,0,0,1,.111-.018m-.111.018h0m0,0-.026.011.026-.011m-.033.014h0m-.012.006a1.588,1.588,0,0,1-.836.365,1.588,1.588,0,0,0,.836-.365M394.473,164.578Zm1.08.191h0m-.006.012h0m-.008.014h0l-.12.607Zm.138.447h0m-.01.006-.242.152.242-.152m-3.435,2.085-.088.05.088-.05m-.1.052a5.03,5.03,0,0,1-2.369.836,5.028,5.028,0,0,0,2.369-.836m-3.564.509h0m1.191.327h0" transform="translate(-155.052 -55.87)" fill="#77797c"></path>
      <path id="Path_18518" data-name="Path 18518" d="M403.481,193.792h0a.073.073,0,0,0-.075.058,1.579,1.579,0,0,0-.074.412.529.529,0,0,0,0,.071c.053.419,1.218,1.253,1.4,1.279h.024a1.67,1.67,0,0,0,.273.03h.007c.231,0,.255-.1.448-.231h.006a.077.077,0,0,0,.025-.055c0-.144-.428-.335-.62-.469l-.01-.008h0l-.025-.019c-.393-.295-1.128-1.061-1.375-1.061" transform="translate(-167.683 -86.097)" fill="#aeb0b3"></path>
      <path id="Path_18519" data-name="Path 18519" d="M403.48,193.792h0c.247,0,.982.763,1.375,1.061-.393-.295-1.128-1.061-1.375-1.061m0,0a.074.074,0,0,0-.075.058,1.59,1.59,0,0,0-.075.412,1.591,1.591,0,0,1,.075-.412.073.073,0,0,1,.075-.058m1.375,1.061.026.019-.026-.019m.029.021.01.008c.191.135.62.326.62.469,0-.144-.429-.335-.62-.469l-.01-.008m.6.532h0m-.009.006c-.191.128-.217.231-.448.231.231,0,.255-.1.448-.231m-.75.2h0m.017,0h0m.279.031h0" transform="translate(-167.683 -86.097)" fill="#77797c"></path>
      <path id="Path_18520" data-name="Path 18520" d="M406.093,186.367l-.468-.074Z" transform="translate(-169.406 -80.466)" fill="#aeb0b3"></path>
      <path id="Path_18521" data-name="Path 18521" d="M415.816,205.122c-.593.369-1.22.734-1.685.988l-.07.445h1.016a.315.315,0,0,1,.28.461l-.353.676a.321.321,0,0,1-.152.142l-.679.3c.173,0,.4.009.674.018.721.024,1.718.069,2.6.155l-.4-2.428-.965-.46Z" transform="translate(-175.738 -94.603)" fill="#aeb0b3"></path>
      <path id="Path_18522" data-name="Path 18522" d="M415.816,205.122c-.593.369-1.22.733-1.685.987l-.07.445.07-.445c.465-.254,1.092-.617,1.685-.987l.266.294.965.46-.965-.46Zm-.424,1.747a.315.315,0,0,1-.035.146l-.353.676a.321.321,0,0,1-.153.142l-.679.3.679-.3a.321.321,0,0,0,.153-.142l.353-.676a.315.315,0,0,0,.035-.146m-.546,1.281c.721.024,1.718.069,2.6.155h0c-.88-.086-1.876-.131-2.6-.155" transform="translate(-175.738 -94.603)" fill="#77797c"></path>
      <path id="Path_18523" data-name="Path 18523" d="M432.25,188.721l-.529.036.06.293Z" transform="translate(-188.999 -82.289)" fill="#aeb0b3"></path>
      <path id="Path_18524" data-name="Path 18524" d="M431.721,188.757l.529-.037Z" transform="translate(-189 -82.288)" fill="#77797c"></path>
    </g>
  </g>
</svg>
