<svg xmlns="http://www.w3.org/2000/svg" width="204" height="204" viewBox="0 0 204 204"><defs><style>.a{fill:#f1f4f8;}.b{fill:#fff;}.c{fill:#ff6c37;}</style></defs><circle class="a" cx="102" cy="102" r="102"></circle><g transform="translate(170.151 -139.149)"><circle class="b" cx="51" cy="51" r="51" transform="translate(-119.151 190.116)"></circle><g transform="translate(0 -0.413)"><path class="c" d="M17,229.3a.917.917,0,0,0-.5,1.3.1.1,0,0,0,.1.1,3.218,3.218,0,0,1-.4,3.4,1.071,1.071,0,0,0-.1,1.4l.1.1a.854.854,0,0,0,.7,0,1.234,1.234,0,0,0,.8-.4,5.175,5.175,0,0,0,.7-5.7A1.1,1.1,0,0,0,17,229.3Z" transform="translate(-52.44 -17.172)"></path><path class="c" d="M-60.826,184.02a57.864,57.864,0,0,0-64.847,50.127,57.967,57.967,0,0,0,50.132,64.9A58.051,58.051,0,0,0-10.63,248.924a57.968,57.968,0,0,0-50.2-64.9Zm11.976,36.115a4.339,4.339,0,0,0-2.867,1.21l-21.531,21.529-4.586-4.586C-56.621,217.141-52.8,216.95-48.85,220.134Zm-23.505,23.5,21.467-21.274a3.078,3.078,0,0,1,4.268,0,3.145,3.145,0,0,1,.892,2.166,3.162,3.162,0,0,1-1.019,2.166l-22.677,20Zm1.593,3.248-5.351,1.338a.289.289,0,0,1-.319,0,.284.284,0,0,1,0-.318l3.249-3.248Zm-13.568-2.229,5.669-5.669,4.268,4.395-9.746,2.1a.374.374,0,0,1-.446-.318.233.233,0,0,1,.127-.318Zm-17.581,29.49a.636.636,0,0,1-.318-.255.406.406,0,0,1,0-.382l4.586-4.586,5.924,5.86Zm11.721-6.115h0a1.071,1.071,0,0,0-.573,1.21l.956,4.2a.707.707,0,0,1-.255.7.5.5,0,0,1-.7,0l-5.924-6.115,18.155-18.216,8.791-1.911,4.2,4.2a117.67,117.67,0,0,1-24.652,15.8v.127Zm25.544-16.56-4.013-4.013,22.677-19.936a2.738,2.738,0,0,0,.573-.637C-46.175,233.319-55.284,242.555-64.648,251.472ZM-47,220.262a8.843,8.843,0,0,1,.255-12.484,8.825,8.825,0,0,1,11.593-.51l-7.771,7.771a.67.67,0,0,0,0,.828l6.052,6.051a8.922,8.922,0,0,1-10.192-1.72Zm12.485,0a11.037,11.037,0,0,1-1.338,1.083l-5.8-5.8,7.389-7.389A8.675,8.675,0,0,1-34.517,220.262Z"></path></g></g></svg>