<svg xmlns="http://www.w3.org/2000/svg" xmlns:xlink="http://www.w3.org/1999/xlink" width="622" height="498" viewBox="0 0 622 498"><defs><style>.a{opacity:0.14;fill:url(#a);}.b,.d,.i{fill:none;}.b,.d{stroke:#571c56;}.b{stroke-dasharray:12;}.c{fill:#fff;opacity:0;}.d{stroke-width:11px;}.e{fill:#fcbd06;}.f{fill:#fc193d;}.g{fill:#571c56;}.h{stroke:none;}</style><linearGradient id="a" x1="0.236" x2="0.672" y2="1" gradientUnits="objectBoundingBox"><stop offset="0" stop-color="#fcbd06"></stop><stop offset="1" stop-color="#fc193d"></stop></linearGradient></defs><g transform="translate(-1050 -4496)"><ellipse class="a" cx="147.721" cy="147.721" rx="147.721" ry="147.721" transform="translate(1050 4596.779)"></ellipse><g class="b" transform="translate(1174 4496)"><circle class="h" cx="249" cy="249" r="249"></circle><circle class="i" cx="249" cy="249" r="248.5"></circle></g><g transform="translate(-4972 3798)"><rect class="c" width="300" height="260" rx="5" transform="translate(6245 817)"></rect><g transform="translate(6277.002 817)"><g class="d" transform="translate(-0.002)"><rect class="h" width="237" height="177" rx="5"></rect><rect class="i" x="5.5" y="5.5" width="226" height="166" rx="0.5"></rect></g><g transform="translate(57.366 22.789)"><rect class="e" width="8" height="37" transform="translate(57.632 77.211)"></rect><path class="e" d="M101,67H6a6.007,6.007,0,0,1-6-6V6A6.007,6.007,0,0,1,6,0h95a6.007,6.007,0,0,1,6,6V61A6.007,6.007,0,0,1,101,67ZM10.868,7.882a3,3,0,0,0-3,3V56.118a3,3,0,0,0,3,3H96.133a3,3,0,0,0,3-3V10.883a3,3,0,0,0-3-3Z" transform="translate(7.632 8.211)"></path><rect class="f" width="28" height="21" rx="1" transform="translate(47.632 0.211)"></rect><rect class="f" width="24" height="21" rx="1" transform="translate(98.632 32.211)"></rect><rect class="f" width="28" height="21" rx="1" transform="translate(47.632 106.211)"></rect><rect class="f" width="24" height="21" rx="1" transform="translate(-0.368 32.211)"></rect><path class="f" d="M4.523,4.523,29.862,0,24.405,24.405,0,29.862Z" transform="translate(61.296 50.051) rotate(45)"></path></g></g><rect class="f" width="19.646" height="93.515" rx="9.823" transform="translate(6353.114 985.17) rotate(20)"></rect><rect class="f" width="19.646" height="93.515" rx="9.823" transform="translate(6464.304 1073.045) rotate(160)"></rect><rect class="g" width="257.756" height="18.86" rx="1" transform="translate(6266 980.455)"></rect></g></g></svg>