<svg xmlns="http://www.w3.org/2000/svg" xmlns:xlink="http://www.w3.org/1999/xlink" width="204" height="204" viewBox="0 0 204 204"><defs><style>.a{opacity:0.05;fill:url(#a);}.b{fill:#fff;stroke:#fff;opacity:0;}.c{fill:url(#b);}.d{fill:url(#c);}.e{fill:url(#d);}.f{fill:url(#e);}.g{fill:url(#f);}.h{fill:url(#g);}.i{fill:url(#h);}.j{fill:url(#i);}.k{fill:url(#j);}.l{fill:url(#k);}.m{fill:url(#l);}.n{fill:url(#m);}.o{stroke:none;}.p{fill:none;}</style><linearGradient id="a" x1="0.5" x2="0.5" y2="1" gradientUnits="objectBoundingBox"><stop offset="0" stop-color="#fff"/><stop offset="0.47" stop-color="#fff"/><stop offset="1" stop-color="#fff"/></linearGradient><linearGradient id="b" x1="0.027" y1="1.098" x2="0.985" y2="-0.071" xlink:href="#a"/><linearGradient id="c" x1="-5.887" y1="27.771" x2="2.323" y2="-7.284" xlink:href="#a"/><linearGradient id="d" x1="-3.313" y1="26.084" x2="1.911" y2="-8.97" xlink:href="#a"/><linearGradient id="e" x1="-3.135" y1="24.888" x2="2.09" y2="-10.167" xlink:href="#a"/><linearGradient id="f" x1="-1.491" y1="24.795" x2="1.382" y2="-10.26" xlink:href="#a"/><linearGradient id="g" x1="-20.547" y1="26.177" x2="8.186" y2="-8.877" xlink:href="#a"/><linearGradient id="h" x1="-2.165" y1="20.005" x2="2.624" y2="-15.05" xlink:href="#a"/><linearGradient id="i" x1="-1.206" y1="18.195" x2="2.174" y2="-16.859" xlink:href="#a"/><linearGradient id="j" x1="-4.427" y1="15.528" x2="7.066" y2="-19.526" xlink:href="#a"/><linearGradient id="k" x1="-2.345" y1="17.858" x2="3.401" y2="-17.198" xlink:href="#a"/><linearGradient id="l" x1="-0.534" y1="16.906" x2="1.676" y2="-18.149" xlink:href="#a"/><linearGradient id="m" x1="-8.886" y1="17.676" x2="10.27" y2="-17.378" xlink:href="#a"/></defs><g transform="translate(-858 -2519)"><circle class="a" cx="102" cy="102" r="102" transform="translate(858 2519)"/><g transform="translate(15873 5442)"><g class="b" transform="translate(-14977.951 -2885.951)"><rect class="o" width="129.902" height="129.902"/><rect class="p" x="0.5" y="0.5" width="128.902" height="128.902"/></g><g transform="translate(-14978 -2886)"><path class="c" d="M131.372,30.8l-19.5-19.5a2.238,2.238,0,0,0-1.538-.628H62.753L58.767,6.658a2.184,2.184,0,0,0-3.077,0l-6.023,6.023V4.167A2.167,2.167,0,0,0,47.5,2H30.167A2.167,2.167,0,0,0,28,4.167v8.515L21.977,6.658a2.184,2.184,0,0,0-3.077,0L6.658,18.9a2.184,2.184,0,0,0,0,3.077L12.682,28H4.167A2.167,2.167,0,0,0,2,30.167V47.5a2.167,2.167,0,0,0,2.167,2.167h8.515L6.658,55.69a2.184,2.184,0,0,0,0,3.077L18.9,71.008a2.184,2.184,0,0,0,3.077,0L28,64.985V73.5a2.167,2.167,0,0,0,2.167,2.167H45.333V99.5H10.667a8.667,8.667,0,0,0,0,17.333H45.333v13A2.167,2.167,0,0,0,47.5,132h69.333A2.167,2.167,0,0,0,119,129.834v-39h10.833A2.167,2.167,0,0,0,132,88.667V32.333a2.238,2.238,0,0,0-.628-1.538ZM12.833,112.5H10.667a4.333,4.333,0,1,1,0-8.667h2.167Zm8.667,0H17.167v-8.667H21.5Zm91-94.445,12.112,12.112H112.5ZM32.333,71.333V63.317a2.149,2.149,0,0,0-1.452-2.037,21.717,21.717,0,0,1-2.275-.953,2.214,2.214,0,0,0-2.492.412l-5.677,5.677-9.187-9.187,5.677-5.677a2.214,2.214,0,0,0,.412-2.492,21.716,21.716,0,0,1-.953-2.275,2.149,2.149,0,0,0-2.037-1.452H6.333v-13H14.35a2.149,2.149,0,0,0,2.037-1.452,21.715,21.715,0,0,1,.953-2.275,2.214,2.214,0,0,0-.412-2.492l-5.677-5.677,9.187-9.187,5.677,5.677a2.221,2.221,0,0,0,2.492.412,21.716,21.716,0,0,1,2.275-.953,2.149,2.149,0,0,0,1.452-2.037V6.333h13V14.35a2.149,2.149,0,0,0,1.452,2.037,21.717,21.717,0,0,1,2.275.953,2.214,2.214,0,0,0,2.492-.412l5.677-5.677,9.187,9.187-5.677,5.677a2.214,2.214,0,0,0-.412,2.492,21.717,21.717,0,0,1,.953,2.275,2.149,2.149,0,0,0,2.037,1.452h8.017v13H63.317a2.149,2.149,0,0,0-2.037,1.452,21.719,21.719,0,0,1-.953,2.275,2.214,2.214,0,0,0,.412,2.492l.3.282H50.252a17.26,17.26,0,1,0-4.918,3.055V71.333Zm6.5-19.5a13,13,0,1,1,13-13,13,13,0,0,1-13,13Zm-13,60.667v-8.667h52V112.5Zm88.834,15.167h-65V116.834H80a2.266,2.266,0,0,0,.845-.173l15.167-6.5a2.167,2.167,0,0,0,0-3.987l-15.167-6.5A2.244,2.244,0,0,0,80,99.522V99.5H49.667V56.167h45.5V73.5a2.167,2.167,0,0,0,2.167,2.167h17.333Zm-32.5-16.293V104.96l7.5,3.207ZM99.5,71.333V59.222l12.112,12.112ZM127.667,86.5H119v-13a2.238,2.238,0,0,0-.628-1.538l-19.5-19.5a2.238,2.238,0,0,0-1.538-.628H67.152l-2.167-2.167H73.5A2.167,2.167,0,0,0,75.667,47.5V30.167A2.167,2.167,0,0,0,73.5,28H64.985l6.023-6.023a2.184,2.184,0,0,0,0-3.077L67.087,15h41.08V32.333a2.167,2.167,0,0,0,2.167,2.167h17.333Z" transform="translate(-2 -2)"/><path class="d" d="M42,10H57.178v4.337H42Z" transform="translate(44.658 7.346)"/><path class="e" d="M38,14H61.851v4.337H38Z" transform="translate(39.987 11.999)"/><path class="f" d="M38,18H61.851v4.337H38Z" transform="translate(39.987 16.666)"/><path class="g" d="M38,22H81.366v4.337H38Z" transform="translate(39.961 21.332)"/><path class="h" d="M38,10h4.337v4.337H38Z" transform="translate(39.998 7.346)"/><path class="i" d="M31,29H57.02v4.337H31Z" transform="translate(31.822 29.499)"/><path class="j" d="M26,33H62.861v4.337H26Z" transform="translate(25.985 34.165)"/><path class="k" d="M26,37H36.842v4.337H26Z" transform="translate(25.997 38.832)"/><path class="l" d="M33,37H54.683v4.337H33Z" transform="translate(34.157 38.832)"/><path class="m" d="M26,41H82.376v4.337H26Z" transform="translate(25.97 43.498)"/><path class="n" d="M26,29h6.5v4.337H26Z" transform="translate(25.998 29.499)"/></g></g></g></svg>