<svg xmlns="http://www.w3.org/2000/svg" xmlns:xlink="http://www.w3.org/1999/xlink" width="622" height="498" viewBox="0 0 622 498"><defs><style>.a{opacity:0.14;fill:url(#a);}.b,.g{fill:none;}.b{stroke:#571c56;stroke-dasharray:12;}.c{fill:#fff;opacity:0;}.d{fill:#571c56;}.e{fill:#fcbd06;}.f{stroke:none;}</style><linearGradient id="a" x1="0.236" x2="0.672" y2="1" gradientUnits="objectBoundingBox"><stop offset="0" stop-color="#fcbd06"></stop><stop offset="1" stop-color="#fc193d"></stop></linearGradient></defs><g transform="translate(-1050 -3017)"><ellipse class="a" cx="147.721" cy="147.721" rx="147.721" ry="147.721" transform="translate(1050 3117.779)"></ellipse><g class="b" transform="translate(1174 3017)"><circle class="f" cx="249" cy="249" r="249"></circle><circle class="g" cx="249" cy="249" r="248.5"></circle></g><g transform="translate(-5115 2998)"><rect class="c" width="300" height="260" rx="5" transform="translate(6388 138)"></rect><g transform="translate(5315.052 -196.964)"><path class="d" d="M1378.414,356.888c-4.75-4.708-9.1-9.074-13.519-13.37-1.666-1.619-2.93-3.329-2-5.74.991-2.57,3.179-2.818,5.609-2.814q37.608.061,75.217.024c4.922,0,6.139,1.206,6.139,6.041q0,37.609.024,75.217c0,2.4-.148,4.623-2.726,5.667-2.547,1.031-4.279-.361-5.955-2.078-4.247-4.351-8.56-8.638-13.052-13.158-.883.843-1.66,1.556-2.4,2.3q-33.632,33.623-67.259,67.251c-3.821,3.82-5.378,3.806-9.256-.071q-20.43-20.423-40.854-40.852c-3.461-3.463-3.458-5.237-.019-8.678q33.721-33.726,67.452-67.442C1376.515,358.481,1377.3,357.862,1378.414,356.888Zm-.151-13.047c.06.3.038.508.132.6q3.824,3.885,7.671,7.749c3.809,3.827,3.8,5.4-.061,9.267q-33.545,33.548-67.089,67.1c-.754.754-1.474,1.541-1.89,1.976l37.514,37.481c.419-.5,1.012-1.305,1.712-2.007q18.4-18.428,36.815-36.832,15.519-15.519,31.045-31.034c2.922-2.917,4.943-2.9,7.907.016,2.461,2.423,4.883,4.885,7.34,7.311.461.456,1.009.824,1.632,1.325V343.84Z" transform="translate(-96.571 0)"></path><path class="d" d="M1241.664,343.71H1222.7v-8.7h10.287c6.542,0,13.085-.022,19.627.012,2.759.014,4.69,1.441,4.713,3.849.1,10.245.041,20.49.041,30.878h-8.628V350.32l-53.315,53.323-5.921-6.545,52.657-52.635Z" transform="translate(-43.706 -0.019)"></path><path class="d" d="M1444.9,653.259l53.458-53.442h-19.993V591.14c.867-.041,1.738-.118,2.609-.119q13.356-.015,26.712-.006c3.96,0,5.421,1.437,5.427,5.388.015,9.709,0,19.418,0,29.314h-8.676V606.328l-53.388,53.4Z" transform="translate(-159.824 -116.414)"></path><path class="d" d="M1165.616,466.479l5.862,5.349-8.641,8.632-5.43-5.794Z" transform="translate(-29.112 -59.795)"></path><path class="d" d="M1133.613,497.879l5.445,5.465-8.622,8.686-5.489-5.592Z" transform="translate(-14.353 -74.071)"></path><path class="d" d="M1098.664,544.34l-5.287-5.434,8.575-8.586,5.283,5.544Z" transform="translate(0 -88.821)"></path><path class="d" d="M1413.492,730.117l8.247-8.211,5.1,5.79-8.179,8.167Z" transform="translate(-145.544 -175.927)"></path><path class="d" d="M1381.394,762.062l8.253-8.179,5.113,5.851-8.153,8.149Z" transform="translate(-130.95 -190.466)"></path><path class="d" d="M1358.032,786.2l5.2,5.429-8.52,8.5-5.145-5.542Z" transform="translate(-116.481 -205.157)"></path><path class="e" d="M1387.637,351.241h62.728v62.95c-.623-.5-1.171-.869-1.632-1.325-2.457-2.426-4.88-4.888-7.34-7.311-2.963-2.919-4.985-2.933-7.907-.016q-15.535,15.5-31.044,31.034-18.412,18.412-36.815,36.832c-.7.7-1.293,1.512-1.712,2.007L1326.4,437.932c.415-.435,1.136-1.223,1.89-1.976q33.542-33.551,67.089-67.1c3.865-3.865,3.87-5.44.061-9.267q-3.845-3.865-7.671-7.749C1387.676,351.749,1387.7,351.539,1387.637,351.241Z" transform="translate(-105.946 -7.401)"></path></g><path class="e" d="M161.171,64.056l-13.118-3.274L155.008,49.2,125.976,20.163l-11.587,6.955L111.115,14H70.056L66.782,27.118,55.195,20.163,26.163,49.2l6.955,11.587L20,64.056v41.059l13.118,3.274-6.955,11.592,29.032,29.027,11.587-6.955,3.274,13.118h41.059l3.274-13.118,11.587,6.955,29.032-29.027-6.955-11.592,13.118-3.274ZM90.585,117.163a32.578,32.578,0,1,1,32.578-32.578A32.576,32.576,0,0,1,90.585,117.163Z" transform="translate(6387.635 243.591)"></path><path class="d" d="M102.015,58.008A38.008,38.008,0,1,0,64.008,96.015,38.049,38.049,0,0,0,102.015,58.008Zm-65.156,0A27.148,27.148,0,1,1,64.008,85.156,27.179,27.179,0,0,1,36.859,58.008Z" transform="translate(6414.213 270.169)"></path><path class="d" d="M62.578,40.289A16.289,16.289,0,1,0,46.289,56.578,16.309,16.309,0,0,0,62.578,40.289Zm-21.719,0a5.43,5.43,0,1,1,5.43,5.43A5.439,5.439,0,0,1,40.859,40.289Z" transform="translate(6431.931 287.888)"></path></g></g></svg>