<?xml version="1.0" encoding="UTF-8"?>
<svg xmlns="http://www.w3.org/2000/svg" width="150" height="150" viewBox="0 0 150 150">
  <g id="Protio.io" transform="translate(-2228 2081)">
    <rect id="Rectangle_27" data-name="Rectangle 27" width="150" height="150" transform="translate(2228 -2081)" fill="#fff" opacity="0"></rect>
    <g id="protoio-seeklogo.com" transform="translate(2228 -2081)">
      <path id="Path_57" data-name="Path 57" d="M75,0a75,75,0,1,0,75,75A75,75,0,0,0,75,0m0,137.5A62.5,62.5,0,1,1,137.5,75,62.5,62.5,0,0,1,75,137.5"></path>
      <path id="Path_58" data-name="Path 58" d="M133.182,93.722c0-16.927-7.4-32.291-19.441-43.666C101.7,61.419,94.274,76.813,94.274,93.722a57.433,57.433,0,0,0,4.445,22.028c-4.121,5.394-7.164,12.949-8.5,21.638a33.559,33.559,0,0,1,15.27-9.455,65.687,65.687,0,0,0,8.267,9.455,65.527,65.527,0,0,0,8.263-9.455,33.194,33.194,0,0,1,15.289,9.491c-1.337-8.689-4.378-16.245-8.5-21.638a58.466,58.466,0,0,0,4.4-22.064m-19.466.16c-4.848,0-8.777-3.526-8.777-7.875s3.929-7.874,8.777-7.874,8.8,3.51,8.8,7.9c-.024,4.263-3.912,7.853-8.8,7.853" transform="translate(-38.743 -18.72)"></path>
    </g>
  </g>
</svg>
