<svg xmlns="http://www.w3.org/2000/svg" width="204" height="204" viewBox="0 0 204 204"><defs><style>.a{fill:#f1f4f8;}.b{fill:#e1c5c5;opacity:0;}.c{fill:#dfdedf;}.d{fill:#fff;}.e{fill:#00d8a2;}</style></defs><g transform="translate(0 -0.466)"><circle class="a" cx="102" cy="102" r="102" transform="translate(0 0.466)"></circle><g transform="translate(-763 -258.534)"><rect class="b" width="116" height="116" transform="translate(807 303)"></rect><g transform="translate(826 303)"><path class="c" d="M78.452,192.374H2.192v-4.3a5.232,5.232,0,0,1,5.232-5.232h65.8a5.232,5.232,0,0,1,5.232,5.232Z" transform="translate(-1.526 -127.34)"></path><path class="d" d="M73.139,264.121H7.5a5.313,5.313,0,0,1-5.313-5.313V214.246H78.452v44.563a5.313,5.313,0,0,1-5.313,5.313" transform="translate(-1.526 -149.212)"></path><path d="M75.979,94.747V90.89a4.123,4.123,0,0,0-4.123-4.123h-66A4.123,4.123,0,0,0,1.73,90.89v3.857Zm0,45.978V96.477H1.73v44.249a4.122,4.122,0,0,0,4.122,4.122h66A4.122,4.122,0,0,0,75.979,140.725ZM6.239,85.038l.257-2.8L5.406,85.06c.148-.011.3-.022.447-.022Zm64.778-4.726.381,4.726h.459a5.868,5.868,0,0,1,.724.049Zm5.235,6.728a5.821,5.821,0,0,1,1.456,3.851v49.835a5.859,5.859,0,0,1-5.852,5.852h-66A5.859,5.859,0,0,1,0,140.725V90.89a5.827,5.827,0,0,1,1.623-4.034L7.457,71.734,10,43.943l2.87.263L10.579,69.246l.807.311-1.1,2.841L9.134,85.038H68.506l-3.295-40.9,2.873-.232,1.943,24.123h0ZM6.422,89.586a1.306,1.306,0,1,1-1.306,1.306A1.306,1.306,0,0,1,6.422,89.586Zm4.465,0a1.306,1.306,0,1,1-1.306,1.306A1.306,1.306,0,0,1,10.887,89.586Zm4.324,0A1.306,1.306,0,1,1,13.9,90.892,1.306,1.306,0,0,1,15.211,89.586Z" transform="translate(0 -30.577)"></path><path d="M25.292,278.348a1.513,1.513,0,0,0,.342-1.024,1.477,1.477,0,0,0-.342-1.011,1.27,1.27,0,0,0-.992-.382H22.222v2.8H24.3A1.27,1.27,0,0,0,25.292,278.348Zm-.992-4.1a2.8,2.8,0,0,1,2.137.833,3.586,3.586,0,0,1,.012,4.479,2.814,2.814,0,0,1-2.149.847H22.222v3.768H20.616v-9.927Zm8.665,6.088v-2.9h1.73v6.539h-1.73v-.59a2.776,2.776,0,0,1-2.057.786,2.5,2.5,0,0,1-1.9-.773,2.746,2.746,0,0,1-.721-1.979v-3.983h1.73v3.616a1.61,1.61,0,0,0,.367,1.114,1.194,1.194,0,0,0,.956.419C32.428,282.593,32.965,281.846,32.965,280.339Zm8.477,1.8a1.955,1.955,0,0,0,.511-1.415,1.987,1.987,0,0,0-.511-1.428,1.787,1.787,0,0,0-1.323-.537,1.817,1.817,0,0,0-1.3.55,1.875,1.875,0,0,0-.563,1.415,1.9,1.9,0,0,0,1.86,1.952A1.787,1.787,0,0,0,41.442,282.134Zm-1.022-4.887a3.073,3.073,0,0,1,2.254.983,3.44,3.44,0,0,1,.956,2.489,3.389,3.389,0,0,1-.956,2.476,3.05,3.05,0,0,1-2.254.983,3.352,3.352,0,0,1-2.162-.707v3.63h-1.73v-9.658h1.73v.524A3.24,3.24,0,0,1,40.42,277.247Zm9.434,4.887a1.955,1.955,0,0,0,.511-1.415,1.987,1.987,0,0,0-.511-1.428,1.787,1.787,0,0,0-1.323-.537,1.817,1.817,0,0,0-1.3.55,1.875,1.875,0,0,0-.564,1.415,1.9,1.9,0,0,0,1.861,1.952A1.787,1.787,0,0,0,49.853,282.134Zm-1.022-4.887a3.073,3.073,0,0,1,2.254.983,3.441,3.441,0,0,1,.956,2.489,3.39,3.39,0,0,1-.956,2.476,3.051,3.051,0,0,1-2.254.983,3.353,3.353,0,0,1-2.162-.707v3.63H44.94v-9.658h1.729v.524A3.241,3.241,0,0,1,48.831,277.247Zm5.765,2.712h3.158a1.54,1.54,0,0,0-.576-.9,1.64,1.64,0,0,0-.97-.3,1.725,1.725,0,0,0-1,.314A1.448,1.448,0,0,0,54.6,279.959Zm1.612-2.712a3.228,3.228,0,0,1,2.306.93,3.415,3.415,0,0,1,1.009,2.411v.59H54.543a1.963,1.963,0,0,0,.59,1.1,1.5,1.5,0,0,0,1.048.419,1.743,1.743,0,0,0,1.625-.864l1.546.328a3.1,3.1,0,0,1-1.245,1.507,3.586,3.586,0,0,1-1.926.511,3.251,3.251,0,0,1-2.385-.969,3.679,3.679,0,0,1,.013-4.992A3.262,3.262,0,0,1,56.207,277.247Zm8.084,5.32a2.354,2.354,0,0,0,1.088-.315l.5,1.441a3.561,3.561,0,0,1-1.7.485,2.643,2.643,0,0,1-1.887-.655,2.545,2.545,0,0,1-.681-1.952v-2.713H60.2v-1.415h1.4v-1.978h1.73v1.978h2.136v1.415H63.335v2.581C63.335,282.187,63.65,282.567,64.292,282.567Zm3.629-2.608h3.158a1.54,1.54,0,0,0-.576-.9,1.64,1.64,0,0,0-.97-.3,1.725,1.725,0,0,0-1,.314A1.449,1.449,0,0,0,67.92,279.959Zm1.612-2.712a3.228,3.228,0,0,1,2.306.93,3.415,3.415,0,0,1,1.009,2.411v.59H67.868a1.963,1.963,0,0,0,.59,1.1,1.5,1.5,0,0,0,1.048.419,1.743,1.743,0,0,0,1.625-.864l1.546.328a3.1,3.1,0,0,1-1.245,1.507,3.585,3.585,0,0,1-1.926.511,3.251,3.251,0,0,1-2.385-.969,3.679,3.679,0,0,1,.013-4.992A3.262,3.262,0,0,1,69.532,277.247Zm6.158,2.712h3.158a1.539,1.539,0,0,0-.576-.9,1.639,1.639,0,0,0-.97-.3,1.725,1.725,0,0,0-1,.314A1.449,1.449,0,0,0,75.69,279.959Zm1.612-2.712a3.227,3.227,0,0,1,2.306.93,3.416,3.416,0,0,1,1.009,2.411v.59H75.638a1.965,1.965,0,0,0,.589,1.1,1.5,1.5,0,0,0,1.048.419,1.743,1.743,0,0,0,1.625-.864l1.546.328a3.1,3.1,0,0,1-1.245,1.507,3.584,3.584,0,0,1-1.926.511,3.25,3.25,0,0,1-2.385-.969,3.678,3.678,0,0,1,.013-4.992A3.261,3.261,0,0,1,77.3,277.247Zm8.7.1a1.425,1.425,0,0,1,.459.052l-.092,1.664h-.38c-1.559,0-2.333.93-2.333,2.8v2.109H81.927v-6.539h1.729v1.192A2.737,2.737,0,0,1,86,277.352Z" transform="translate(-14.358 -191.002)"></path><path class="e" d="M74.516,43.308l9.331-4.5V34.3L62.289,24,83.848,12.9V8.556l-9.01-4.183L49.311,17.083,23.355,4.373l-8.366,4.5v3.861L35.26,23.84l-20.272,10.3V38.8l8.688,4.5L49.418,30.115Z" transform="translate(-10.439 -3.046)"></path><path d="M72.353,38.425v-1.94l7.024-3.64v2.179ZM12.22,32.794l6.787,3.9v1.551L12.22,34.807ZM46.987,24.6,70.335,36.136v2.32L46.987,26.494ZM21.025,36.474,44.969,24.6v1.892L21.025,38.608Zm16.954-19.4-24.23-11.7,6.276-3.189L45.978,15.642,71.5,2.193l6.5,3.328L54.365,17.412a1.286,1.286,0,0,0,0,2.3l23.385,11.7-6.061,3.141L45.978,21.38,19.81,34.824l-5.977-3.431L37.992,19.384a1.286,1.286,0,0,0-.013-2.309ZM12.522,9.34V7.211l22.6,11.274-2.285.913ZM58.86,19.524C58.829,19.5,56.7,18.5,56.7,18.5L79.377,7.083V9.222Zm2.27,1.118,19.936-10.01A.6.6,0,0,0,81.4,10.1V5.362a.6.6,0,0,0-.325-.532L71.771.067a.6.6,0,0,0-.543,0L46.246,12.744a.6.6,0,0,1-.537,0L20.286.063a.6.6,0,0,0-.537,0L10.529,4.75a.6.6,0,0,0-.327.533V10.1a.6.6,0,0,0,.333.536l20.019,9.891L10.628,30.416a.6.6,0,0,0-.331.524l-.087,4.733a.6.6,0,0,0,.328.544L20.11,41.06a.6.6,0,0,0,.538,0l25.06-12.584a.6.6,0,0,1,.539,0L70.995,41.062a.6.6,0,0,0,.531.005l9.532-4.615a.6.6,0,0,0,.337-.538V30.97a.6.6,0,0,0-.334-.536Z" transform="translate(-7.105 0)"></path></g></g></g></svg>