<svg xmlns="http://www.w3.org/2000/svg" xmlns:xlink="http://www.w3.org/1999/xlink" width="239" height="125.318" viewBox="0 0 239 125.318"><defs><filter id="a" x="0" y="1.509" width="239" height="123.809" filterUnits="userSpaceOnUse"><feGaussianBlur stdDeviation="19.5"></feGaussianBlur></filter></defs><g transform="translate(-10811.5 2173)"><rect width="120" height="120" transform="translate(10872 -2173)" fill="#fff" opacity="0"></rect><g transform="translate(-2641 1080.953)"><g transform="translate(13528.023 -3230.139)"><rect width="4.823" height="73.2" transform="translate(0 0)" fill="#1a1a1a"></rect><rect width="4.823" height="73.2" transform="translate(7.377 0)" fill="#1a1a1a"></rect><rect width="1.844" height="73.2" transform="translate(14.612 0)" fill="#1a1a1a"></rect><rect width="1.844" height="73.2" transform="translate(26.386 0)" fill="#1a1a1a"></rect><rect width="1.844" height="73.2" transform="translate(38.019 0)" fill="#1a1a1a"></rect><rect width="1.844" height="73.2" transform="translate(42.416 0)" fill="#1a1a1a"></rect><rect width="1.844" height="73.2" transform="translate(61.426 0)" fill="#1a1a1a"></rect><rect width="1.844" height="73.2" transform="translate(70.221 0)" fill="#1a1a1a"></rect><rect width="1.844" height="73.2" transform="translate(65.823 0)" fill="#1a1a1a"></rect><rect width="1.844" height="73.2" transform="translate(74.619 0)" fill="#1a1a1a"></rect><rect width="1.844" height="73.2" transform="translate(78.874 0)" fill="#1a1a1a"></rect><rect width="4.823" height="73.2" transform="translate(30.784 0)" fill="#1a1a1a"></rect><rect width="4.823" height="73.2" transform="translate(19.009 0)" fill="#1a1a1a"></rect><rect width="4.823" height="73.2" transform="translate(46.814 0)" fill="#1a1a1a"></rect><rect width="4.823" height="73.2" transform="translate(54.191 0)" fill="#1a1a1a"></rect><rect width="4.823" height="73.2" transform="translate(83.272 0)" fill="#1a1a1a"></rect></g><g transform="matrix(1, 0, 0, 1, 13452.5, -3253.95)" filter="url(#a)"><rect width="122" height="6.809" rx="3.405" transform="translate(58.5 57.01)" fill="#fe0000"></rect></g><g transform="translate(13515.54 -3250)"><path d="M11802.351-3235.291h-10.8s-10.9-.392-10.9,11.16v10.9" transform="translate(-11780.642 3235.292)" fill="none" stroke="#c0c1c3" stroke-linecap="round" stroke-linejoin="round" stroke-width="4"></path><path d="M11802.351-3213.222h-10.8s-10.9.392-10.9-11.16v-10.9" transform="translate(-11780.642 3326.271)" fill="none" stroke="#c0c1c3" stroke-linecap="round" stroke-linejoin="round" stroke-width="4" opacity="0.9"></path><path d="M11780.642-3235.291h10.806s10.9-.392,10.9,11.16v10.9" transform="translate(-11689.426 3235.292)" fill="none" stroke="#c0c1c3" stroke-linecap="round" stroke-linejoin="round" stroke-width="4"></path><path d="M11780.642-3213.222h10.806s10.9.392,10.9-11.16v-10.9" transform="translate(-11689.426 3326.271)" fill="none" stroke="#c0c1c3" stroke-linecap="round" stroke-linejoin="round" stroke-width="4" opacity="0.9"></path></g></g></g></svg>