<svg xmlns="http://www.w3.org/2000/svg" xmlns:xlink="http://www.w3.org/1999/xlink" width="204" height="204" viewBox="0 0 204 204"><defs><style>.a{opacity:0.05;}.a,.i{fill:url(#a);}.b{fill:#fff;stroke:#fff;opacity:0;}.c{fill:#fff;}.d{fill:url(#b);}.e{fill:url(#c);}.f{fill:url(#d);}.g{fill:url(#e);}.h{fill:url(#f);}.j{stroke:none;}.k{fill:none;}</style><linearGradient id="a" x1="0.5" x2="0.5" y2="1" gradientUnits="objectBoundingBox"><stop offset="0" stop-color="#fff"/><stop offset="0.47" stop-color="#fff"/><stop offset="1" stop-color="#fff"/></linearGradient><linearGradient id="b" x1="1" y1="-0.371" x2="-0.51" y2="1.348" xlink:href="#a"/><linearGradient id="c" x1="1.558" y1="0.047" x2="0" y2="1.782" xlink:href="#a"/><linearGradient id="d" x1="2.109" y1="-1.733" x2="-3.257" y2="3.031" xlink:href="#a"/><linearGradient id="e" x1="3.889" y1="-0.576" x2="-1.04" y2="4.08" xlink:href="#a"/><linearGradient id="f" x1="1.282" y1="-3.457" x2="0" xlink:href="#a"/></defs><g transform="translate(-298 -2519)"><circle class="a" cx="102" cy="102" r="102" transform="translate(298 2519)"/><g transform="translate(14896.415 4833.415)"><g class="b" transform="translate(-14561.415 -2277.415)"><rect class="j" width="130" height="130"/><rect class="k" x="0.5" y="0.5" width="129" height="129"/></g><g transform="translate(-14561 -2277)"><g transform="translate(88.678 29.265)"><path class="c" d="M355.806,116.739a2.521,2.521,0,1,0,.739,1.784A2.541,2.541,0,0,0,355.806,116.739Z" transform="translate(-351.5 -116)"/></g><g transform="translate(46.925 29.265)"><path class="d" d="M255.631,116H239.547a2.523,2.523,0,1,0,0,5.046h16.083a7.577,7.577,0,0,1,7.569,7.569v36.329a7.577,7.577,0,0,1-7.569,7.569H252.1a2.524,2.524,0,0,0-1.784.739l-8.307,8.307-8.307-8.307a2.524,2.524,0,0,0-1.784-.739h-33.3a7.577,7.577,0,0,1-7.569-7.569v-9.082a2.523,2.523,0,1,0-5.046,0v9.082a12.629,12.629,0,0,0,12.614,12.614h32.256l9.352,9.352a2.523,2.523,0,0,0,3.568,0l9.353-9.352h2.487a12.629,12.629,0,0,0,12.614-12.614V128.614A12.629,12.629,0,0,0,255.631,116Z" transform="translate(-186 -116)"/></g><g transform="translate(0.006)"><path class="e" d="M69.656,0H12.639A12.629,12.629,0,0,0,.025,12.614V48.943A12.628,12.628,0,0,0,12.639,61.557h5.3L27.29,70.91a2.523,2.523,0,0,0,3.568,0l9.353-9.352H69.656A12.629,12.629,0,0,0,82.27,48.943V12.614A12.629,12.629,0,0,0,69.656,0Zm7.568,48.943a7.577,7.577,0,0,1-7.569,7.569H39.165a2.524,2.524,0,0,0-1.784.739l-8.307,8.307-8.307-8.307a2.524,2.524,0,0,0-1.784-.739H12.639A7.577,7.577,0,0,1,5.07,48.943V12.614a7.577,7.577,0,0,1,7.569-7.569H69.655a7.577,7.577,0,0,1,7.569,7.569Z" transform="translate(-0.025)"/></g><g transform="translate(79.731 46.925)"><path class="f" d="M338.776,208.733l-8.947-21.192a2.523,2.523,0,0,0-4.649,0l-8.946,21.192a2.523,2.523,0,1,0,4.649,1.962l1.264-3h10.716l1.264,3a2.523,2.523,0,0,0,4.649-1.963Zm-14.5-6.079,3.227-7.645,3.228,7.645Z" transform="translate(-316.035 -186)"/></g><g transform="translate(28.388 17.156)"><path class="g" d="M136.979,90.441l-2.394-1.763a11.537,11.537,0,0,0,1.151-5.035V79.606a11.605,11.605,0,1,0-23.21,0v4.037a11.6,11.6,0,0,0,18.927,8.995l2.534,1.866a2.523,2.523,0,1,0,2.992-4.063Zm-6.289-6.8a6.542,6.542,0,0,1-.3,1.949l-2.665-1.963a2.523,2.523,0,0,0-2.992,4.063l2.408,1.773a6.555,6.555,0,0,1-9.574-5.823V79.606h0a6.559,6.559,0,0,1,13.119,0v4.037Z" transform="translate(-112.525 -68.001)"/></g><g transform="translate(0 100.659)"><path class="h" d="M98.07,411.022,76.206,399.29a2.523,2.523,0,0,0-1.193-.3H8.9a8.912,8.912,0,0,0-8.9,8.9V418.6a8.913,8.913,0,0,0,8.9,8.9H75.013a2.525,2.525,0,0,0,1.193-.3L98.07,415.468a2.523,2.523,0,0,0,0-4.446ZM16.463,422.455H8.9A3.861,3.861,0,0,1,5.046,418.6V407.892A3.861,3.861,0,0,1,8.9,404.035h7.56Zm56.028,0H21.508v-6.886h32.1a2.523,2.523,0,0,0,0-5.046h-32.1v-6.488H72.49Zm5.046-1.694V405.73l14.006,7.516Z" transform="translate(0 -398.99)"/></g><g transform="translate(60.801 112.193)"><path class="i" d="M245.306,445.447a2.521,2.521,0,1,0,.739,1.784A2.538,2.538,0,0,0,245.306,445.447Z" transform="translate(-241 -444.71)"/></g></g></g></g></svg>