<svg xmlns="http://www.w3.org/2000/svg" xmlns:xlink="http://www.w3.org/1999/xlink" width="204" height="204" viewBox="0 0 204 204"><defs><style>.a{fill:#f1f4f8;}.b{fill:#fff;opacity:0;}.c{fill:url(#a);}</style><linearGradient id="a" x1="0.5" x2="0.5" y2="1" gradientUnits="objectBoundingBox"><stop offset="0" stop-color="#571c56"></stop><stop offset="0.47" stop-color="#e5153f"></stop><stop offset="1" stop-color="#fcd000"></stop></linearGradient></defs><g transform="translate(-175 -208)"><circle class="a" cx="102" cy="102" r="102" transform="translate(175 208)"></circle><rect class="b" width="116" height="116" transform="translate(219 252)"></rect><g transform="translate(218.999 252)"><path class="c" d="M-173.8-136.288a3.616,3.616,0,0,1-3.616-3.616V-179.68h3.616v12.656h12.656v3.616H-173.8v10.848h16.272v3.616H-173.8v9.04h25.313V-179.68h3.615V-138.1a1.807,1.807,0,0,1-1.807,1.808Zm-10.848-32.544v-7.232h-7.232v-3.615h7.232a3.542,3.542,0,0,1,3.616,3.466c0,.049,0,.1,0,.149v7.232Zm-13.4-14.627-19.888-9.04a1.809,1.809,0,0,1-.9-2.395,1.809,1.809,0,0,1,.9-.9l19.888-9.04a1.778,1.778,0,0,1,.749-.163h88.591a5.568,5.568,0,0,1,5.424,5.424v10.848a5.566,5.566,0,0,1-5.424,5.424h-88.6A1.778,1.778,0,0,1-198.052-183.459Zm82.109-3.453h7.231a1.933,1.933,0,0,0,1.808-1.808v-10.848a1.933,1.933,0,0,0-1.808-1.808h-7.231Zm-7.232,0h3.616v-14.464h-3.616Zm-72.32,0h68.7v-14.464h-68.7v5.424h56.048v3.615H-195.5Zm-9.04-11v7.533l5.424,2.465v-12.464Zm-8.286,3.766,4.67,2.122v-4.245Zm71.566-17.931c0-.049,0-.1,0-.149v-7.232h3.616v7.232h7.232v3.615h-7.309A3.542,3.542,0,0,1-141.256-212.074Zm-7.231,3.466v-39.775H-173.8v9.04h16.272v3.616H-173.8v10.848h12.656v3.616H-173.8v12.656h-3.616v-39.775A3.616,3.616,0,0,1-173.8-252h27.121a1.807,1.807,0,0,1,1.807,1.808v41.584Z" transform="translate(219 252)"></path></g></g></svg>