<svg xmlns="http://www.w3.org/2000/svg" xmlns:xlink="http://www.w3.org/1999/xlink" width="204" height="204" viewBox="0 0 204 204"><defs><linearGradient id="a" x1="0.03" y1="1.077" x2="1.087" y2="-0.015" gradientUnits="objectBoundingBox"><stop offset="0" stop-color="#571c56"></stop><stop offset="0.47" stop-color="#fc1141"></stop><stop offset="1" stop-color="#fcd000"></stop></linearGradient></defs><g transform="translate(2487 6131)"><circle cx="102" cy="102" r="102" transform="translate(-2487 -6131)" fill="#f1f4f8"></circle><g transform="translate(-2444.871 -6088.871)"><path d="M2701.742,6250.129a1.871,1.871,0,0,1-1.871-1.871v-5.612a1.871,1.871,0,0,1,1.871-1.872h1.871v-71.1h-1.871a1.871,1.871,0,0,1-1.871-1.872v-5.612a1.872,1.872,0,0,1,1.871-1.871h31.806v-1.87h-11.226a1.871,1.871,0,0,1-1.87-1.872v-16.838a1.871,1.871,0,0,1,1.87-1.872h71.1a1.871,1.871,0,0,1,1.871,1.872v16.838a1.871,1.871,0,0,1-1.871,1.872h-11.226v1.87H2814a1.873,1.873,0,0,1,1.871,1.871v5.612a1.872,1.872,0,0,1-1.871,1.872h-1.871v71.1H2814a1.872,1.872,0,0,1,1.871,1.872v5.612a1.872,1.872,0,0,1-1.871,1.871Zm1.871-3.741h108.516v-1.871H2703.614Zm97.289-71.1a1.871,1.871,0,0,1,1.871,1.87v63.614h5.612v-71.1H2707.354v71.1h58v-63.614a1.871,1.871,0,0,1,1.871-1.87Zm-31.806,65.483h29.935v-52.387H2769.1Zm0-56.128h29.935v-5.614H2769.1Zm-65.483-18.71h108.516v-1.871H2703.614Zm56.128-5.614h18.71v-1.87h-18.71Zm-22.451,0H2756v-1.87h-18.71Zm-13.1-5.612h67.355v-13.1h-67.355Zm-9.355,69.226a1.871,1.871,0,0,1-1.87-1.872v-44.9a1.871,1.871,0,0,1,1.87-1.87h43.032a1.871,1.871,0,0,1,1.871,1.87v44.9a1.871,1.871,0,0,1-1.871,1.872Zm1.871-3.743H2756v-31.806h-39.291Zm0-35.547H2756v-5.614h-39.291Zm74.838,35.547v-11.225a1.871,1.871,0,0,1,3.743,0v11.225a1.871,1.871,0,0,1-3.743,0Z" transform="translate(-2698 -6134.129)" fill="url(#a)"></path></g></g></svg>