<svg xmlns="http://www.w3.org/2000/svg" width="254.454" height="50.129" viewBox="0 0 254.454 50.129"><g id="Group_1462" data-name="Group 1462" transform="translate(-81.594 -427.687)"><g id="Group_273" data-name="Group 273" transform="translate(138.331 427.905)"><g id="Group_275" data-name="Group 275" transform="translate(0 0)"><path id="Path_14" data-name="Path 14" d="M302.357,453.139a24.534,24.534,0,0,1-6.791,17.124,23.105,23.105,0,0,1-12.893,6.834,25.836,25.836,0,0,1-14.739-1.429,22.521,22.521,0,0,1-13.139-13.626,25.715,25.715,0,0,1,1.551-21.97,22.734,22.734,0,0,1,15.714-11.5,25.357,25.357,0,0,1,15.712,1.365,23.049,23.049,0,0,1,13.606,15.61A28.851,28.851,0,0,1,302.357,453.139Zm-44.136-.53a22.168,22.168,0,0,0,.9,6.622,18.764,18.764,0,0,0,9.349,11.848,19.732,19.732,0,0,0,13.017,1.856,17.819,17.819,0,0,0,13.407-10,22.3,22.3,0,0,0,.766-18.658,18.158,18.158,0,0,0-9.524-10.338,19.823,19.823,0,0,0-11.18-1.6,17.987,17.987,0,0,0-11.765,6.273A21.223,21.223,0,0,0,258.221,452.609Z" transform="translate(-145.488 -427.914)" fill="#fff"></path><path id="Path_15" data-name="Path 15" d="M172.561,476.392c-1.93,0-3.684-.023-5.437.015-.5.011-.617-.309-.8-.613q-3.007-5.068-6.007-10.143c-2.1-3.551-4.219-7.1-6.3-10.659a1.192,1.192,0,0,0-1.206-.674c-2.123.036-4.246.013-6.369.014-.806,0-.823-.106-.823.84q0,10.063,0,20.126c0,.2-.012.4,0,.594.027.341-.067.512-.46.506-1.3-.02-2.6-.012-3.907,0-.308,0-.49-.078-.447-.431a4.289,4.289,0,0,0,0-.509q0-22.632,0-45.262c0-1.129-.136-1,.985-1,4.388,0,8.775-.019,13.163,0a25.6,25.6,0,0,1,7.29.983,13.352,13.352,0,0,1,4.517,2.268,9.778,9.778,0,0,1,3.318,4.719,13.683,13.683,0,0,1,.372,7.694,11.218,11.218,0,0,1-6.3,7.563,14.765,14.765,0,0,1-4.6,1.4c-.219.028-.432.09-.762.162Zm-26.942-34.677v2.8c0,1.7,0,3.393,0,5.09,0,.588.013.6.613.6.707.007,1.414.011,2.121,0,2.826-.044,5.656.127,8.477-.165a14.371,14.371,0,0,0,5.038-1.368,7.086,7.086,0,0,0,3.716-4.1,9,9,0,0,0,.368-3.766,6.981,6.981,0,0,0-4.027-6.041,13.929,13.929,0,0,0-5.559-1.352c-3.39-.178-6.785-.049-10.179-.074-.559,0-.569.017-.57.652Q145.614,437.855,145.619,441.715Z" transform="translate(-140.802 -427.967)" fill="#fff"></path><path id="Path_16" data-name="Path 16" d="M179.043,452.815q0-11.335,0-22.671c0-1.1-.1-.951.946-.951q13.671-.006,27.342,0a4.188,4.188,0,0,0,.424,0c.386-.042.563.081.552.511-.025,1.1-.018,2.208,0,3.311,0,.339-.125.457-.446.432-.2-.015-.4,0-.594,0H184.935c-1.1,0-1.1,0-1.1,1.141v14.181c0,.17.012.34,0,.509-.029.314.073.483.419.453.2-.017.4,0,.594,0h20.718c.171,0,.34,0,.51,0,.638.011.645.012.649.657q.009,1.486,0,2.972c0,.58-.013.589-.623.591-1.756.006-3.51,0-5.265,0H184.869c-.2,0-.4.013-.594,0-.321-.025-.475.093-.443.431.016.169,0,.339,0,.509v16.3c0,.2.01.4,0,.594-.014.254.1.357.346.349.226-.008.453,0,.679,0H208.38c.791,0,.737-.048.736.731,0,1.019-.014,2.038.007,3.057.008.377-.133.51-.491.477-.168-.015-.339,0-.509,0H179.762c-.8,0-.718.076-.718-.735q0-9.17,0-18.341Z" transform="translate(-142.399 -427.967)" fill="#fff"></path><path id="Path_17" data-name="Path 17" d="M210.51,429.191c1.528,0,3,.026,4.469-.013a.8.8,0,0,1,.9.637c.948,2.6,1.926,5.188,2.895,7.78q5.946,15.909,11.9,31.815a1.605,1.605,0,0,0,.369.727,1.372,1.372,0,0,0,.308-.634q7.378-19.714,14.751-39.429a4.814,4.814,0,0,0,.173-.477.486.486,0,0,1,.545-.409c1.551.011,3.1,0,4.656,0a1.381,1.381,0,0,1-.185.767q-8.734,22.827-17.473,45.652c-.369.963-.187.768-1.126.778-1.16.013-2.321,0-3.48,0-.8,0-.8,0-1.081-.727q-2.944-7.716-5.887-15.434-5.75-15.081-11.5-30.162A1.891,1.891,0,0,1,210.51,429.191Z" transform="translate(-143.712 -427.967)" fill="#fff"></path><path id="Path_18" data-name="Path 18" d="M324.9,470.314c.34-.883.607-1.561.862-2.242q7.129-19.038,14.258-38.078c.3-.8.3-.8,1.1-.8h4.158c.172.362-.066.627-.167.89q-5.531,14.484-11.084,28.961-3.182,8.307-6.364,16.613c-.282.735-.283.735-1.065.736-1.217,0-2.435-.028-3.651.013a.8.8,0,0,1-.9-.633q-3-7.923-6.036-15.83-5.68-14.881-11.359-29.763c-.108-.286-.206-.574-.355-.987h1.4c1.047,0,2.1.031,3.141-.013.52-.022.726.165.9.643,1.54,4.188,3.111,8.363,4.674,12.542q5.077,13.566,10.156,27.131C324.659,469.705,324.745,469.912,324.9,470.314Z" transform="translate(-147.628 -427.967)" fill="#fff"></path></g></g><g id="Group_274" data-name="Group 274" transform="translate(81.594 427.687)"><path id="Path_19" data-name="Path 19" d="M126.981,436.916c-.12.282-.378.362-.585.5a31.1,31.1,0,0,0-11.422,38.852c.046.1.088.209.142.309.135.253.093.438-.2.513-.712.179-1.427.348-2.139.527-.418.106-.532-.181-.661-.477a32.942,32.942,0,0,1-1.831-5.37,33.934,33.934,0,0,1,12.005-35.061c.73-.58,1.526-1.074,2.265-1.643.353-.271.57-.2.853.094A21.08,21.08,0,0,1,126.981,436.916Z" transform="translate(-82.749 -427.988)" fill="#fff"></path><path id="Path_20" data-name="Path 20" d="M87.678,437.026a16.348,16.348,0,0,1,1.635-1.848.541.541,0,0,1,.848-.09,36.6,36.6,0,0,1,4.513,3.587,34.043,34.043,0,0,1,7.963,38.275c-.328.762-.33.767-1.11.585-.578-.135-1.151-.287-1.726-.433-.275-.07-.379-.224-.246-.5.075-.152.145-.307.214-.462A31.163,31.163,0,0,0,89.852,438.5c-.337-.257-.691-.492-1.043-.73S88.105,437.305,87.678,437.026Z" transform="translate(-81.848 -427.989)" fill="#fff"></path><path id="Path_21" data-name="Path 21" d="M92.324,432.7a14.338,14.338,0,0,1,2.358-1.586c.284-.176.474.008.68.158a37.567,37.567,0,0,1,3.524,2.926,39.374,39.374,0,0,1,7.757,10.027c.094.173.191.346.3.514.027.044.088.066.169.124.411-.706.809-1.414,1.228-2.109a39.544,39.544,0,0,1,10.245-11.321c.727-.544.558-.5,1.32-.059a12.656,12.656,0,0,1,1.943,1.311,37.473,37.473,0,0,0-14.773,20.164A37.283,37.283,0,0,0,92.324,432.7Z" transform="translate(-82.042 -427.827)" fill="#fff"></path><path id="Path_22" data-name="Path 22" d="M115.411,463.608c.306-10.133,4.644-18.041,13.093-23.684.658-.439.6-.288.881.186s.572.976.839,1.473c.293.547.292.564-.257.918a25.523,25.523,0,0,0-3.792,2.988,24.506,24.506,0,0,0-7.312,13.306,24.983,24.983,0,0,0,1.319,14.24c.144.368.31.727.47,1.089.267.6.274.613-.333.951-.493.275-1.009.509-1.5.792-.373.216-.554.177-.753-.253a28.923,28.923,0,0,1-2.656-12Z" transform="translate(-83.006 -428.187)" fill="#fff"></path><path id="Path_23" data-name="Path 23" d="M99.379,463.129a28.575,28.575,0,0,1-2.576,12.3c-.313.677-.323.68-.975.356-.455-.227-.907-.464-1.35-.712-.609-.341-.609-.349-.294-1.034a23.256,23.256,0,0,0,1.782-5.559,25.089,25.089,0,0,0-10.926-25.85c-.773-.512-.836-.349-.31-1.292.248-.445.525-.874.756-1.327.187-.367.37-.4.718-.169a31.535,31.535,0,0,1,3.722,2.811,27.689,27.689,0,0,1,8.836,15.124A25.423,25.423,0,0,1,99.379,463.129Z" transform="translate(-81.711 -428.188)" fill="#fff"></path><path id="Path_24" data-name="Path 24" d="M107.33,434.192c.759-.841,1.451-1.623,2.16-2.39.979-1.06,2.039-2.037,3.1-3.013a1.055,1.055,0,0,1,1.147-.266c.862.263,1.729.509,2.7.9a44.983,44.983,0,0,0-9.1,9.74,43.686,43.686,0,0,0-9.1-9.72,19.711,19.711,0,0,1,3.035-1c.366-.1.576.145.809.349a46.586,46.586,0,0,1,4.644,4.705C106.905,433.715,107.093,433.923,107.33,434.192Z" transform="translate(-82.289 -427.718)" fill="#fff"></path><path id="Path_25" data-name="Path 25" d="M87.3,458.44c1.555,0,3.111.024,4.666-.013.509-.011.712.17.788.641.095.585.245,1.161.35,1.745s.078.608-.55.611c-1.273.008-2.545,0-3.819,0-1.81,0-3.62-.012-5.43.009-.436,0-.674-.11-.759-.565-.126-.665-.292-1.323-.459-1.981-.087-.347.04-.455.377-.452,1.274.009,2.546,0,3.819,0Z" transform="translate(-81.614 -428.97)" fill="#fff"></path><path id="Path_26" data-name="Path 26" d="M132.947,458.441a17.018,17.018,0,0,1-.574,2.659.374.374,0,0,1-.419.326c-.113,0-.226,0-.339,0q-4.582,0-9.164,0a.813.813,0,0,1-.607-.126,16.978,16.978,0,0,1,.479-2.543.375.375,0,0,1,.429-.313c.113,0,.226,0,.339,0h9.855Z" transform="translate(-83.275 -428.971)" fill="#fff"></path><path id="Path_27" data-name="Path 27" d="M83.932,464.607c3.113,0,6.08,0,9.048-.006.367,0,.5.122.475.49-.042.62-.037,1.244-.082,1.864-.042.585-.075.61-.662.617-.961.011-1.922,0-2.883,0-1.244,0-2.489-.021-3.731.011a.891.891,0,0,1-.932-.549C84.768,466.263,84.314,465.519,83.932,464.607Z" transform="translate(-81.692 -429.228)" fill="#fff"></path><path id="Path_28" data-name="Path 28" d="M91.472,455.255H83.719c-.537,0-1.075-.024-1.611.007-.44.025-.523-.191-.514-.562.016-.593-.009-1.187.007-1.781.015-.578.028-.591.646-.593,1.781-.008,3.562,0,5.343,0a7.01,7.01,0,0,0,1.27-.013,1.426,1.426,0,0,1,1.693,1.011A18.764,18.764,0,0,1,91.472,455.255Z" transform="translate(-81.594 -428.713)" fill="#fff"></path><path id="Path_29" data-name="Path 29" d="M123.546,455.256a21.416,21.416,0,0,1,1.372-2.649c.21-.352.521-.28.82-.281q3.478-.006,6.956,0c.085,0,.171.007.255,0,.365-.033.5.14.5.5-.014.677-.012,1.357-.006,2.035,0,.289-.122.417-.406.4-.028,0-.057,0-.084,0Z" transform="translate(-83.346 -428.715)" fill="#fff"></path><path id="Path_30" data-name="Path 30" d="M121.688,464.641H131.1a22.042,22.042,0,0,1-1.389,2.672.512.512,0,0,1-.511.222c-2.317,0-4.633-.008-6.95.006-.411,0-.563-.175-.563-.55C121.687,466.23,121.688,465.469,121.688,464.641Z" transform="translate(-83.268 -429.23)" fill="#fff"></path><path id="Path_31" data-name="Path 31" d="M127.7,448.911a20.663,20.663,0,0,1,2.761-2.519c.6-.451,1.307-.178,1.968-.19.123,0,.153.146.185.254a15.838,15.838,0,0,1,.579,2.535A25.183,25.183,0,0,1,127.7,448.911Z" transform="translate(-83.519 -428.457)" fill="#fff"></path><path id="Path_32" data-name="Path 32" d="M82.024,449a22.613,22.613,0,0,1,.545-2.434.475.475,0,0,1,.511-.428,2.7,2.7,0,0,1,2.308.719c.672.713,1.488,1.288,2.123,2.056A26,26,0,0,1,82.024,449Z" transform="translate(-81.612 -428.457)" fill="#fff"></path><path id="Path_33" data-name="Path 33" d="M87.812,470.812h4.977a11.993,11.993,0,0,1-.857,2.642c-.152.36-1.01.388-1.417.042-.493-.418-.956-.871-1.415-1.326C88.705,471.779,88.334,471.365,87.812,470.812Z" transform="translate(-81.854 -429.487)" fill="#fff"></path><path id="Path_34" data-name="Path 34" d="M127.364,470.836a20,20,0,0,1-2.65,2.669.954.954,0,0,1-1.577-.451,16.743,16.743,0,0,1-.725-2.217Z" transform="translate(-83.298 -429.488)" fill="#fff"></path><path id="Path_35" data-name="Path 35" d="M107.674,475.6c.487,1.449.911,2.752,1.493,4.085a11.018,11.018,0,0,1-2.658.088c-.3-.013-.27-.205-.187-.422q.424-1.1.831-2.213C107.315,476.7,107.459,476.241,107.674,475.6Z" transform="translate(-82.624 -429.687)" fill="#fff"></path><path id="Path_36" data-name="Path 36" d="M109.5,427.689l-1.84,1.856-1.9-1.808c.882-.017,1.683-.036,2.483-.047C108.657,427.684,109.065,427.689,109.5,427.689Z" transform="translate(-82.603 -427.687)" fill="#fff"></path></g></g></svg>