<?xml version="1.0" encoding="UTF-8"?>
<svg xmlns="http://www.w3.org/2000/svg" width="131" height="115" viewBox="0 0 131 115">
  <g id="Revov" transform="translate(-6962 -172)">
    <rect id="Rectangle_3887" data-name="Rectangle 3887" width="131" height="115" transform="translate(6962 172)" fill="#fff" opacity="0"></rect>
    <g id="Group_1462" data-name="Group 1462" transform="translate(6880.407 -210.687)">
      <g id="Group_273" data-name="Group 273" transform="translate(110.802 427.796)">
        <g id="Group_275" data-name="Group 275" transform="translate(0 0)">
          <path id="Path_14" data-name="Path 14" d="M278.428,440.9a12.631,12.631,0,0,1-3.5,8.816,11.9,11.9,0,0,1-6.638,3.518,13.3,13.3,0,0,1-7.588-.736,11.6,11.6,0,0,1-6.764-7.015,13.239,13.239,0,0,1,.8-11.311,11.7,11.7,0,0,1,8.09-5.921,13.054,13.054,0,0,1,8.089.7,11.866,11.866,0,0,1,7,8.037A14.854,14.854,0,0,1,278.428,440.9Zm-22.723-.273a11.412,11.412,0,0,0,.463,3.409,9.661,9.661,0,0,0,4.813,6.1,10.159,10.159,0,0,0,6.7.956,9.174,9.174,0,0,0,6.9-5.148,11.481,11.481,0,0,0,.394-9.606,9.349,9.349,0,0,0-4.9-5.322,10.206,10.206,0,0,0-5.756-.824,9.261,9.261,0,0,0-6.057,3.23A10.927,10.927,0,0,0,255.705,440.624Z" transform="translate(-197.664 -427.907)" fill="#b02562"></path>
          <path id="Path_15" data-name="Path 15" d="M157.151,453.49c-.994,0-1.9-.012-2.8.008-.257.006-.318-.159-.412-.316q-1.548-2.609-3.093-5.222c-1.081-1.828-2.172-3.655-3.243-5.488a.614.614,0,0,0-.621-.347c-1.093.019-2.186.007-3.279.007-.415,0-.424-.055-.424.432v10.362c0,.1-.006.206,0,.306.014.176-.035.264-.237.26-.669-.01-1.339-.006-2.011,0-.159,0-.252-.04-.23-.222a2.2,2.2,0,0,0,0-.262q0-11.652,0-23.3c0-.581-.07-.515.507-.515,2.259,0,4.518-.01,6.777,0a13.179,13.179,0,0,1,3.753.506,6.874,6.874,0,0,1,2.326,1.168,5.034,5.034,0,0,1,1.708,2.43,7.045,7.045,0,0,1,.192,3.961,5.775,5.775,0,0,1-3.243,3.894,7.6,7.6,0,0,1-2.368.721c-.113.014-.222.046-.392.083ZM143.28,435.637V439.7c0,.3.007.309.316.309.364,0,.728.006,1.092,0,1.455-.023,2.912.065,4.364-.085a7.4,7.4,0,0,0,2.594-.7,3.648,3.648,0,0,0,1.913-2.111,4.634,4.634,0,0,0,.189-1.939,3.594,3.594,0,0,0-2.073-3.11,7.172,7.172,0,0,0-2.862-.7c-1.745-.092-3.493-.025-5.241-.038-.288,0-.293.009-.293.336Q143.278,433.65,143.28,435.637Z" transform="translate(-140.799 -428.555)" fill="#b02562"></path>
          <path id="Path_16" data-name="Path 16" d="M179.042,441.351V429.679c0-.566-.051-.49.487-.49q7.038,0,14.077,0a2.179,2.179,0,0,0,.218,0c.2-.022.29.042.284.263-.013.566-.009,1.137,0,1.7,0,.175-.064.235-.23.222-.1-.008-.206,0-.306,0h-11.5c-.566,0-.566,0-.566.587v7.3c0,.088.006.175,0,.262-.015.162.038.249.216.233.1-.009.206,0,.306,0h10.929c.328.006.332.006.334.338q0,.765,0,1.53c0,.3-.007.3-.321.3-.9,0-1.807,0-2.711,0h-8.221c-.1,0-.206.007-.306,0-.165-.013-.245.048-.228.222.008.087,0,.175,0,.262v8.392c0,.1.005.206,0,.306-.007.131.051.184.178.18s.233,0,.35,0h12.111c.407,0,.379-.025.379.376,0,.525-.007,1.049,0,1.574,0,.194-.068.263-.253.246-.086-.008-.175,0-.262,0h-14.6c-.412,0-.37.039-.37-.378V441.351Z" transform="translate(-160.174 -428.554)" fill="#b02562"></path>
          <path id="Path_17" data-name="Path 17" d="M210.51,429.181c.787,0,1.545.013,2.3-.007a.412.412,0,0,1,.463.328c.488,1.339.992,2.671,1.49,4.005q3.061,8.191,6.127,16.38a.827.827,0,0,0,.19.374.706.706,0,0,0,.159-.326q3.8-10.15,7.594-20.3a2.476,2.476,0,0,0,.089-.246.25.25,0,0,1,.281-.211c.8.006,1.6,0,2.4,0a.711.711,0,0,1-.1.395q-4.5,11.752-9,23.5c-.19.5-.1.4-.58.4-.6.007-1.195,0-1.792,0-.412,0-.412,0-.557-.374l-3.031-7.946-5.921-15.529A.974.974,0,0,1,210.51,429.181Z" transform="translate(-176.118 -428.547)" fill="#b02562"></path>
          <path id="Path_18" data-name="Path 18" d="M314.9,450.357c.175-.455.313-.8.444-1.154l7.341-19.6c.154-.412.154-.412.566-.412H325.4c.089.186-.034.323-.086.458q-2.848,7.457-5.706,14.91l-3.276,8.553c-.145.378-.146.378-.548.379-.627,0-1.254-.014-1.88.007a.412.412,0,0,1-.463-.326q-1.545-4.079-3.108-8.15L304.48,429.7c-.056-.147-.106-.3-.183-.508h.721c.539,0,1.081.016,1.617-.007.268-.011.374.085.463.331.793,2.156,1.6,4.306,2.406,6.457q2.614,6.984,5.229,13.968C314.78,450.043,314.824,450.15,314.9,450.357Z" transform="translate(-223.636 -428.551)" fill="#b02562"></path>
        </g>
      </g>
      <g id="Group_274" data-name="Group 274" transform="translate(81.593 427.687)">
        <path id="Path_19" data-name="Path 19" d="M118.377,435.936c-.062.145-.195.186-.3.257a16.012,16.012,0,0,0-5.88,20c.024.052.045.108.073.159.07.13.048.225-.1.264-.367.092-.735.179-1.1.271-.215.055-.274-.093-.34-.246a16.961,16.961,0,0,1-.943-2.765,17.471,17.471,0,0,1,6.181-18.051c.376-.3.786-.553,1.166-.846.182-.139.293-.1.439.048A10.849,10.849,0,0,1,118.377,435.936Z" transform="translate(-95.605 -431.34)" fill="#b02562"></path>
        <path id="Path_20" data-name="Path 20" d="M87.678,436.006a8.415,8.415,0,0,1,.842-.951.279.279,0,0,1,.437-.046,18.842,18.842,0,0,1,2.323,1.847,17.527,17.527,0,0,1,4.1,19.705c-.169.392-.17.395-.571.3-.3-.07-.593-.148-.889-.223-.142-.036-.2-.115-.127-.257.039-.078.075-.158.11-.238A16.044,16.044,0,0,0,88.8,436.765c-.174-.132-.356-.253-.537-.376S87.9,436.149,87.678,436.006Z" transform="translate(-84.676 -431.353)" fill="#b02562"></path>
        <path id="Path_21" data-name="Path 21" d="M92.324,431.892a7.385,7.385,0,0,1,1.214-.817c.146-.091.244,0,.35.081a19.353,19.353,0,0,1,1.814,1.506,20.273,20.273,0,0,1,3.994,5.162c.048.089.1.178.154.265.014.023.045.034.087.064.212-.363.417-.728.632-1.086a20.358,20.358,0,0,1,5.275-5.829c.374-.28.287-.257.68-.03a6.513,6.513,0,0,1,1,.675,19.293,19.293,0,0,0-7.606,10.381A19.2,19.2,0,0,0,92.324,431.892Z" transform="translate(-87.03 -429.383)" fill="#b02562"></path>
        <path id="Path_22" data-name="Path 22" d="M115.411,451.991a14.414,14.414,0,0,1,6.741-12.193c.339-.226.309-.148.454.1s.294.5.432.758c.151.282.15.29-.132.473a13.139,13.139,0,0,0-1.952,1.538,12.617,12.617,0,0,0-3.764,6.85,12.862,12.862,0,0,0,.679,7.331c.074.189.16.374.242.561.137.309.141.316-.171.49-.254.142-.519.262-.772.408-.192.111-.285.091-.388-.13a14.89,14.89,0,0,1-1.367-6.178Z" transform="translate(-98.727 -433.755)" fill="#b02562"></path>
        <path id="Path_23" data-name="Path 23" d="M92.106,451.76a14.712,14.712,0,0,1-1.326,6.333c-.161.349-.166.35-.5.183-.234-.117-.467-.239-.7-.367-.314-.176-.314-.18-.151-.532a11.973,11.973,0,0,0,.917-2.862,12.917,12.917,0,0,0-5.625-13.309c-.4-.264-.43-.18-.16-.665.128-.229.27-.45.389-.683.1-.189.19-.206.37-.087a16.232,16.232,0,0,1,1.916,1.447A14.255,14.255,0,0,1,91.788,449a13.089,13.089,0,0,1,.318,2.755Z" transform="translate(-83.009 -433.771)" fill="#b02562"></path>
        <path id="Path_24" data-name="Path 24" d="M102.918,431.392c.391-.433.747-.836,1.112-1.23.5-.546,1.05-1.049,1.6-1.551a.543.543,0,0,1,.591-.137c.444.135.89.262,1.39.463a23.158,23.158,0,0,0-4.685,5.015,22.491,22.491,0,0,0-4.685-5,10.149,10.149,0,0,1,1.563-.515c.188-.051.3.075.417.18a23.984,23.984,0,0,1,2.391,2.422C102.7,431.146,102.8,431.253,102.918,431.392Z" transform="translate(-90.026 -428.059)" fill="#b02562"></path>
        <path id="Path_25" data-name="Path 25" d="M84.758,458.433c.8,0,1.6.012,2.4-.007.262-.006.367.088.406.33.049.3.126.6.18.9s.04.313-.283.315c-.655,0-1.31,0-1.966,0-.932,0-1.864-.006-2.8,0-.224,0-.347-.057-.391-.291-.065-.342-.15-.681-.236-1.02-.045-.179.021-.234.194-.233.656,0,1.311,0,1.966,0Z" transform="translate(-81.83 -443.261)" fill="#b02562"></path>
        <path id="Path_26" data-name="Path 26" d="M127.56,458.44a8.76,8.76,0,0,1-.3,1.369.192.192,0,0,1-.216.168h-4.893a.418.418,0,0,1-.313-.065,8.742,8.742,0,0,1,.247-1.309.193.193,0,0,1,.221-.161h5.248Z" transform="translate(-101.987 -443.268)" fill="#b02562"></path>
        <path id="Path_27" data-name="Path 27" d="M83.932,464.6c1.6,0,3.13,0,4.658,0,.189,0,.257.063.245.252-.022.319-.019.64-.042.96-.022.3-.039.314-.341.318-.495.006-.99,0-1.484,0-.64,0-1.281-.011-1.921.006a.459.459,0,0,1-.48-.283C84.362,465.457,84.129,465.074,83.932,464.6Z" transform="translate(-82.778 -446.39)" fill="#b02562"></path>
        <path id="Path_28" data-name="Path 28" d="M86.679,453.81H82.688c-.276,0-.553-.012-.829,0-.227.013-.269-.1-.265-.289.008-.305,0-.611,0-.917s.014-.3.333-.305c.917,0,1.834,0,2.751,0a3.6,3.6,0,0,0,.654-.007.734.734,0,0,1,.872.52,9.663,9.663,0,0,1,.473.994Z" transform="translate(-81.593 -440.145)" fill="#b02562"></path>
        <path id="Path_29" data-name="Path 29" d="M123.546,453.832a11.026,11.026,0,0,1,.706-1.364c.108-.181.268-.144.422-.145q1.791,0,3.581,0c.044,0,.088,0,.131,0,.188-.017.257.072.257.257-.007.349-.006.7,0,1.048,0,.149-.063.215-.209.206h-.043Z" transform="translate(-102.849 -440.168)" fill="#b02562"></path>
        <path id="Path_30" data-name="Path 30" d="M121.688,464.641h4.846a11.35,11.35,0,0,1-.715,1.376.263.263,0,0,1-.263.114c-1.193,0-2.385,0-3.578,0-.212,0-.29-.09-.29-.283C121.687,465.459,121.688,465.067,121.688,464.641Z" transform="translate(-101.907 -446.41)" fill="#b02562"></path>
        <path id="Path_31" data-name="Path 31" d="M127.7,447.562a10.635,10.635,0,0,1,1.421-1.3c.309-.232.673-.092,1.013-.1.063,0,.079.075.1.131a8.15,8.15,0,0,1,.3,1.305A12.966,12.966,0,0,1,127.7,447.562Z" transform="translate(-104.954 -437.032)" fill="#b02562"></path>
        <path id="Path_32" data-name="Path 32" d="M82.024,447.594a11.64,11.64,0,0,1,.281-1.253.245.245,0,0,1,.263-.22,1.39,1.39,0,0,1,1.188.37c.346.367.766.663,1.093,1.059a13.381,13.381,0,0,1-2.825.045Z" transform="translate(-81.812 -437.018)" fill="#b02562"></path>
        <path id="Path_33" data-name="Path 33" d="M87.812,470.812h2.562a6.175,6.175,0,0,1-.441,1.36c-.078.185-.52.2-.73.022-.254-.215-.492-.448-.728-.683C88.272,471.31,88.081,471.1,87.812,470.812Z" transform="translate(-84.744 -449.536)" fill="#b02562"></path>
        <path id="Path_34" data-name="Path 34" d="M124.961,470.836a10.294,10.294,0,0,1-1.364,1.374.491.491,0,0,1-.812-.232,8.62,8.62,0,0,1-.373-1.141Z" transform="translate(-102.274 -449.548)" fill="#b02562"></path>
        <path id="Path_35" data-name="Path 35" d="M106.991,475.6c.251.746.469,1.417.769,2.1a5.671,5.671,0,0,1-1.368.045c-.154-.007-.139-.106-.1-.217q.218-.566.428-1.139C106.806,476.166,106.88,475.93,106.991,475.6Z" transform="translate(-94.094 -451.962)" fill="#b02562"></path>
        <path id="Path_36" data-name="Path 36" d="M107.685,427.688l-.947.956-.978-.931c.454-.009.866-.018,1.278-.024C107.251,427.685,107.462,427.688,107.685,427.688Z" transform="translate(-93.838 -427.687)" fill="#b02562"></path>
      </g>
    </g>
  </g>
</svg>
