<?xml version="1.0" encoding="UTF-8"?>
<svg xmlns="http://www.w3.org/2000/svg" xmlns:xlink="http://www.w3.org/1999/xlink" width="131" height="115.5" viewBox="0 0 131 115.5">
  <defs>
    <clipPath id="clip-path">
      <path id="Path_18547" data-name="Path 18547" d="M222.7,118.741H174.8a8.307,8.307,0,0,0-8.307,8.307v34.428a8.7,8.7,0,0,0,14.9,5.963l19.148-19.4-12.822-7.9,3.229-3.229,15.383,5.091,6.226-6.488a3.04,3.04,0,0,1,3.846-.508,2.972,2.972,0,0,1,.429,4.628l-6.568,6.3,5.09,15.383-3.229,3.229-7.894-12.829-16.123,16.739c-9.03,9.374-2.529,25.1,10.486,25.215h.292a32.388,32.388,0,0,0,32.388-32.385V127.317A8.576,8.576,0,0,0,222.7,118.741Z" transform="translate(-166.497 -118.741)" fill="#fff"></path>
    </clipPath>
  </defs>
  <g id="Ride_share" data-name="Ride share" transform="translate(-7209 -22.5)">
    <rect id="Rectangle_3889" data-name="Rectangle 3889" width="131" height="115" transform="translate(7209 23)" fill="#fff" opacity="0"></rect>
    <g id="iicon" transform="translate(7224.811 23)">
      <g id="Group_3974" data-name="Group 3974" transform="translate(16.925)">
        <path id="Path_18529" data-name="Path 18529" d="M32.389,74.939h-.413c-.138,0-.279,0-.423-.008a14.656,14.656,0,0,1-7.808-2.625,14.986,14.986,0,0,1-2.137-22.572L37.73,33l7.9,12.822,3.228-3.236L43.767,27.2l6.568-6.3a2.953,2.953,0,0,0,.9-2.4,2.988,2.988,0,0,0-1.331-2.226,2.808,2.808,0,0,0-1.569-.47,3.178,3.178,0,0,0-2.277.982l-6.226,6.488L24.452,18.176l-3.229,3.229,12.822,7.9L14.9,48.7a8.6,8.6,0,0,1-6.152,2.609,9.075,9.075,0,0,1-5.9-2.223A8.246,8.246,0,0,1,.831,46.446,8.565,8.565,0,0,1,0,42.921q0-.06,0-.119V8.306A8.306,8.306,0,0,1,8.306,0H56.473a8.306,8.306,0,0,1,8.306,8.306V42.8A32.366,32.366,0,0,1,32.8,74.939h-.407Z" transform="translate(0)" fill="#000240" stroke="rgba(0,0,0,0)" stroke-miterlimit="10" stroke-width="1"></path>
        <g id="Group_3973" data-name="Group 3973" transform="translate(0)" opacity="0.14">
          <g id="Group_3972" data-name="Group 3972" clip-path="url(#clip-path)">
            <g id="Group_3971" data-name="Group 3971" transform="translate(-10.448 5.711)">
              <path id="Path_18530" data-name="Path 18530" d="M178.474,188.193a4.191,4.191,0,0,0-1.27-.433l-.838-.185-2.423-.533c-.321-.07-.7-.2-.762-.524a1.407,1.407,0,0,1,.1-.565c.044-.188,0-.435-.181-.494a2.2,2.2,0,0,0-1.278-1.083,11.92,11.92,0,0,1-1.55-.665,2.74,2.74,0,0,1-1.016-1.132c-.343-.715-1.534-.684-2.322-.605a6.131,6.131,0,0,0-.964.2l-1.873.5-.2.049h0l-.025.005c-.055.012-.109.022-.164.031a2.189,2.189,0,0,1-1.317-.2h0a1.631,1.631,0,0,1-.5-.346,1.331,1.331,0,0,1-.339-.847,6.206,6.206,0,0,1,0-.922c.021-.254-.233-.458-.485-.508a6.09,6.09,0,0,0-.767-.012.655.655,0,0,1-.615-.379.777.777,0,0,1,.046-.463c.124-.378.183-.864.508-1.086.2-.133.431-.323.369-.554a.356.356,0,0,0-.3-.24.7.7,0,0,0-.4.09c-.639.323-1.026,1.118-1.736,1.217a1.361,1.361,0,0,1-1.349-.977,4.919,4.919,0,0,1-.13-1.817,1.559,1.559,0,0,1,1.124-1.4,5.11,5.11,0,0,1,.931-.09,3.348,3.348,0,0,0,.864-.323,1.427,1.427,0,0,1,1.278.16c.576.394.774,1.139,1.174,1.709.108.154.278.313.46.262a.346.346,0,0,0,.222-.339c0-.144.019-.334.012-.478a5.83,5.83,0,0,1,.016-1.155,1.962,1.962,0,0,1,.455-1.046c.418-.457,1.155-.6,1.3-1.2a2.065,2.065,0,0,1,.92-1.129,7.634,7.634,0,0,0,1.211-.865,4.089,4.089,0,0,0,.646-1.053,1.814,1.814,0,0,1,1.33-.945c.4-.058.874-.012,1.12-.329a.8.8,0,0,0-.025-.88,5.5,5.5,0,0,0-.609-.707,1.111,1.111,0,0,1-.339-.838.931.931,0,0,1,.563-.682,2.258,2.258,0,0,1,.9-.158,5.565,5.565,0,0,0,1.651-.141,1.321,1.321,0,0,0,.984-1.2,2.122,2.122,0,0,0-.838-1.276,2.235,2.235,0,0,1-.414-.56c0-.008-.009-.014-.014-.023s-.018-.041-.028-.062-.018-.037-.025-.056a2.379,2.379,0,0,1-.153-1.32.575.575,0,0,0-.157-.534c-.193-.134-.458,0-.632.156s-.355.353-.593.352c-.291,0-.489-.318-.514-.608s.058-.581.041-.872c-.03-.513-.5-.828-.894-1.157a.947.947,0,0,0-1.025-.163,1.439,1.439,0,0,0-.5.593,3.641,3.641,0,0,0-.571,1.467c-.03.382.062.767.023,1.148a1.5,1.5,0,0,1-.2.606v.005a3.071,3.071,0,0,0-.455.964,4.264,4.264,0,0,1-.218,1.027.611.611,0,0,1-.26.37.458.458,0,0,1-.555-.218,1.642,1.642,0,0,1-.169-.631,4.918,4.918,0,0,0-2.6-3.577,1.255,1.255,0,0,1-.46-1.563,3.387,3.387,0,0,1,1.16-1.332c.9-.705,1.839-1.278,2.758-1.952l1.107-.812a2.062,2.062,0,0,0,.82-.906,5.076,5.076,0,0,0,.117-.647.744.744,0,0,1,.339-.538c.329-.169.712.093.968.36a7.084,7.084,0,0,1,.892,1.348v.008a.9.9,0,0,1-.266,1.312h0l-1.342.732c-.178.1-.386.26-.328.455s.344.212.557.241a1.417,1.417,0,0,1,.916.611,3.1,3.1,0,0,1,.585,1,.638.638,0,0,0,.722.438.876.876,0,0,0,.644-.608,1.439,1.439,0,0,0-.052-.914c-.107-.291-.1-.663-.339-.867a.269.269,0,0,1,.1-.439.4.4,0,0,1,.375.149c.1.1.169.23.271.325a.725.725,0,0,0,.689.113c.122-.051.352-.219.211-.671h0l-.508-1.538-.486-1.477a1.756,1.756,0,0,0-.693-.994,4.947,4.947,0,0,1-1.7-1.762,5.088,5.088,0,0,0-.565-.918c-.24-.268-.723-.7-1.021-.5a3.112,3.112,0,0,0-1.2,1.6,1.284,1.284,0,0,0-.051.777,2.893,2.893,0,0,0,.439.677.847.847,0,0,1,.054.772,1.847,1.847,0,0,1-.3.582.626.626,0,0,1-.585.229.824.824,0,0,1-.508-.61,3.109,3.109,0,0,1-.093-1.24l.174-1.88a.964.964,0,0,1,.161-.537,1.21,1.21,0,0,1,.743-.287c.266-.053.57-.212.576-.483a.423.423,0,0,0-.235-.366.69.69,0,0,0-.447-.047,1.784,1.784,0,0,0-1.06.88c-.414.643-.439,1.457-.791,2.135a2.33,2.33,0,0,0-.182,1.076,2.73,2.73,0,0,1-.145,1.085.881.881,0,0,1-.852.574c-.339-.043-.578-.339-.834-.566-.384-.339-.931-.349-1.4-.566a.705.705,0,0,0-.628.127.823.823,0,0,1-.624.169c-.189-.058-.3-.243-.433-.391-.351-.4-.942-.356-1.46-.478a.727.727,0,0,1-.289-.114.248.248,0,0,1-.095-.275.324.324,0,0,1,.246-.159.63.63,0,0,0,.284-.1.3.3,0,0,0,.048-.332,2.955,2.955,0,0,0-.852-.792h0a4.91,4.91,0,0,1-.452-.289l-.006-.005-.017-.015h0a.921.921,0,0,0-.395-.164,1.049,1.049,0,0,1-.561-.216,2.346,2.346,0,0,1-.273-.538,1.016,1.016,0,0,0-.723-.453,2.067,2.067,0,0,0-.9-.041,10.366,10.366,0,0,1-1.306.329,1.5,1.5,0,0,1-.577.008c-.189-.043-.334-.273-.485-.393a11.177,11.177,0,0,1-2.866-2.766,1.952,1.952,0,0,0-1.1-.86,1.693,1.693,0,0,0-1.432.058l-1.147.872a1.552,1.552,0,0,1-.566.306c-.233.051-.5,0-.694.136a.561.561,0,0,0-.211.416,1.17,1.17,0,0,0,.005.5,2.294,2.294,0,0,1,.129,1.686.508.508,0,0,1-.579.2c-.214-.052-.4-.179-.614-.246a1.191,1.191,0,0,0-1,.129,1.355,1.355,0,0,0-.461.829.534.534,0,0,0,.254.621c.372.19.885-.153,1.286-.039.11-.043.231.071.238.19a.479.479,0,0,1-.14.317,4.4,4.4,0,0,1-1.55,1.016,2.583,2.583,0,0,0-1.424,1.151,1.377,1.377,0,0,0,.075,1.165c.069.122.156.235.212.362s.143.329.047.433a.465.465,0,0,0-.092.461.406.406,0,0,0,.38.236,1.242,1.242,0,0,1,.423.079.423.423,0,0,1,.262.318c.022.2-.155.371-.315.5l-.941.762c-.091.074-.19.169-.179.283a.242.242,0,0,0,.228.192.709.709,0,0,0,.312-.069,8.983,8.983,0,0,1,1.389-.533,1.3,1.3,0,0,0,.847-.824c.161-.376.238-.787.428-1.15a2.06,2.06,0,0,1,.823-.841.58.58,0,0,1,.445-.085.254.254,0,0,1,.131.361,1.539,1.539,0,0,1-.434.453.932.932,0,0,0-.363.5c-.041.207.058.353.268.349a1.056,1.056,0,0,0,.828-.389,1.345,1.345,0,0,1,.825-.48c.908,0,1.641.918,2.246,1.593a6.7,6.7,0,0,1,1.2,1.682,5.362,5.362,0,0,1,.373,3.605,1.912,1.912,0,0,0,.528,1.9,1.483,1.483,0,0,1,.472.53,1.069,1.069,0,0,1-.091.71,16.763,16.763,0,0,0-1.311,3.785,4.793,4.793,0,0,0,.634,3.641,10.178,10.178,0,0,1,1.56,3.736,6.751,6.751,0,0,0,.835,1.764.655.655,0,0,0,.462.356.349.349,0,0,0,.312-.176.746.746,0,0,0,.013-.406,2,2,0,0,0-.384-.829,4.326,4.326,0,0,1-.944-1.863l-.037-.634a.476.476,0,0,1,.015-.191.159.159,0,0,1,.142-.111c.064,0,.21.1.178.152a4.082,4.082,0,0,0,1.04,2.144,4.111,4.111,0,0,1,.866,1.237,6.6,6.6,0,0,0,1.022,2.339,3.648,3.648,0,0,0,2.05,1.455c.734.169,1.544.37,2.286.492a2.3,2.3,0,0,1,1.714,1.355,3.7,3.7,0,0,0,.576,1.284c.366.366.99.339,1.5.389a1.126,1.126,0,0,1,.95,1.482,3.884,3.884,0,0,1-.526.838,5.517,5.517,0,0,0-.443,2.234,5.158,5.158,0,0,0,1.117,3.436,8.412,8.412,0,0,0,1.594,2.465,4.657,4.657,0,0,1,1.6,3.085,7.446,7.446,0,0,1-.025,3.658,6.31,6.31,0,0,0-.677,4.042c.2.7.639,1.312.842,2.011a12.688,12.688,0,0,1,.254,1.73,2.555,2.555,0,0,0,.7,1.566c.461.417.77,1,1.247,1.4a1.15,1.15,0,0,0,.6.31.461.461,0,0,0,.513-.349.689.689,0,0,0-.085-.353l-.834-1.853a.772.772,0,0,1,.091-.7c.121-.233.312-.423.452-.644a.812.812,0,0,0,.122-.746c-.108-.24-.388-.379-.46-.632a.677.677,0,0,1,.185-.6c.141-.169.319-.3.449-.475a1.146,1.146,0,0,0-.119-1.453,1.2,1.2,0,0,1,.395-1.046,3.86,3.86,0,0,1,.938-.616,2.511,2.511,0,0,0,.882-.684,1.165,1.165,0,0,1,.4-1c.291-.254.638-.435.916-.7.762-.727.873-1.889,1.323-2.843a4.162,4.162,0,0,1,2.14-2.042,4.774,4.774,0,0,0,.672-2.33,6.762,6.762,0,0,1,.069-1.163,1.135,1.135,0,0,1,.692-.874,1.372,1.372,0,0,0,.7-1.283,1.455,1.455,0,0,0-.755-1.066Z" transform="translate(-139.562 -139.374)" fill="#ff1f1f"></path>
              <path id="Path_18531" data-name="Path 18531" d="M177.118,150.011a1.085,1.085,0,0,0,.269,1.667,1.623,1.623,0,0,1,.322.191.281.281,0,0,1,.079.339c-.08.128-.272.118-.412.063a.785.785,0,0,0-.433-.108.4.4,0,0,0-.277.366,1.161,1.161,0,0,0,.1.478c.108.3.254.64.555.742.436.146.889-.3,1.341-.207a1.113,1.113,0,0,1,.559.385,1.479,1.479,0,0,0,.531.43.458.458,0,0,0,.587-.2c.073-.195-.05-.411-.021-.617.038-.269.308-.429.508-.616a2.839,2.839,0,0,0,.6-2.072,1.177,1.177,0,0,0-.043-.423.4.4,0,0,0-.3-.274c-.254-.036-.423.244-.587.445-.135.169-.469.492-.709.412s-.565-.552-.754-.743a2.176,2.176,0,0,0-.709-.538A1.113,1.113,0,0,0,177.118,150.011Z" transform="translate(-162.274 -143.376)" fill="#ff1f1f"></path>
              <path id="Path_18532" data-name="Path 18532" d="M173.749,146.7a.473.473,0,0,0,.383-.179,2.412,2.412,0,0,0,.238-.367,2.2,2.2,0,0,1,1-.866,2.385,2.385,0,0,0,.942-.484.8.8,0,0,0-.085-1.083c-.489-.423-1.227.005-1.632.344a3.623,3.623,0,0,0-1.156,1.76,1.042,1.042,0,0,0-.046.523.441.441,0,0,0,.357.352Z" transform="translate(-160.261 -139.639)" fill="#ff1f1f"></path>
              <path id="Path_18533" data-name="Path 18533" d="M185.973,231.172c-.124,0-.287.041-.287.165,0,.091.094.149.176.189l.83.4a9.089,9.089,0,0,0,1.209.516.74.74,0,0,0,.439.038c.715-.226-.5-.847-.705-.938a4.087,4.087,0,0,0-1.662-.372Z" transform="translate(-167.795 -193.274)" fill="#ff1f1f"></path>
              <path id="Path_18534" data-name="Path 18534" d="M195.184,235.017c-.152,0-.334.009-.414.139a.291.291,0,0,0,.052.339.646.646,0,0,0,.318.169,1.754,1.754,0,0,0,.731.038c.245-.039.578-.254.339-.513C195.991,234.943,195.468,235.023,195.184,235.017Z" transform="translate(-173.336 -195.623)" fill="#ff1f1f"></path>
              <path id="Path_18535" data-name="Path 18535" d="M238.9,147.309a1.408,1.408,0,0,0,.189-1.317c-.19-.44-.677-.855-.481-1.291.143-.317.552-.379.876-.5a1.76,1.76,0,0,0,1.058-1.942,5.842,5.842,0,0,1,1.474-5.054,2.3,2.3,0,0,0,.43-.549.621.621,0,0,0-.045-.66.725.725,0,0,0-.732-.133,3.484,3.484,0,0,1-.756.2c-.262.009-.56-.157-.57-.417s.254-.44.461-.611.358-.514.146-.677a4.137,4.137,0,0,0-3.741-.736,6.9,6.9,0,0,1-2.355.753c-.459-.02-.895-.211-1.355-.264a1.1,1.1,0,0,0-1.177.513c-.908.612-1.842,1.464-2.75,2.077a3.042,3.042,0,0,0-1.418,1.555,1.532,1.532,0,0,0,.391,1.449,5.765,5.765,0,0,0,.881.607,1.252,1.252,0,0,1,.609.841c.094.917.508,1.8.66,2.7a6.887,6.887,0,0,1,.08,1.93,4.77,4.77,0,0,1-1.155,2.567,2.53,2.53,0,0,0-.441,1.027,1.434,1.434,0,0,0,.085,1.044c.164.3.472.523.542.858a2.011,2.011,0,0,1,0,.476.652.652,0,0,0,.118.451.74.74,0,0,0,.649.065c.306-.174.661.125.874.407s.508.612.847.508c.323-.1.386-.519.455-.851a4.221,4.221,0,0,1,2.076-2.57c.965-.593,2.045-.98,3.02-1.558A3.173,3.173,0,0,0,238.9,147.309Z" transform="translate(-193.764 -133.451)" fill="#ff1f1f"></path>
              <path id="Path_18536" data-name="Path 18536" d="M245.26,184.844c.18-.19.26-.423.476-.593.229-.185.609-.287.752-.559a.5.5,0,0,0-.036-.5.645.645,0,0,0-.433-.266c-.539-.085-1.05.415-1.587.313-.292-.055-.587-.284-.856-.157a.5.5,0,0,0-.189.63,1.458,1.458,0,0,0,.466.544C244.186,184.536,244.823,185.3,245.26,184.844Z" transform="translate(-203.091 -163.737)" fill="#ff1f1f"></path>
              <path id="Path_18537" data-name="Path 18537" d="M307.931,145.628c-.075-.093-.169-.169-.243-.264a1.32,1.32,0,0,1-.2-.77,2.015,2.015,0,0,0-.12-.8.588.588,0,0,0-.649-.361,2.117,2.117,0,0,1-1.244.014c-.6-.2-.949-.858-1.539-1.083a11.161,11.161,0,0,0-1.632-.388,4.013,4.013,0,0,0-1.833-.113,1.375,1.375,0,0,0-1.106,1.3c.007.093-.085.18-.16.231a.857.857,0,0,1-.264.092l-1.219.282a1.987,1.987,0,0,1-.522.073.67.67,0,0,1-.475-.2,8.783,8.783,0,0,0-1.11-.8.464.464,0,0,0-.315-.14.53.53,0,0,0-.25.135,1.712,1.712,0,0,1-1.251.329,18.769,18.769,0,0,1-2.8-.66,1.823,1.823,0,0,0-1.147.037.311.311,0,0,0-.183.133.343.343,0,0,0,.072.318,7.189,7.189,0,0,1,.384.737.283.283,0,0,1-.073.3.832.832,0,0,1-.281.169l-1.431.615a1.421,1.421,0,0,1-.8.169.952.952,0,0,1-.556-.37,3.062,3.062,0,0,1-.384-.582.623.623,0,0,0-.382-.312,1.857,1.857,0,0,0-.5-.068,2.213,2.213,0,0,1-.809-.117.214.214,0,0,0-.261.133,1.439,1.439,0,0,0-.064.319.887.887,0,0,1-.583.63,1.461,1.461,0,0,1-.883,0,3.944,3.944,0,0,1-.878-.287.809.809,0,0,0-1.048.264c-.117.188-.19.454-.407.493s-.4-.221-.378-.445a1.827,1.827,0,0,1,.254-.62,2.482,2.482,0,0,0-.483-2.257.5.5,0,0,0-.731-.116c-.115.1-.181.262-.32.328a.412.412,0,0,1-.453-.114,2.268,2.268,0,0,1-.238-.442,2.155,2.155,0,0,0-.609-.726.737.737,0,0,0-.886.014.7.7,0,0,0-.143.71,1.036,1.036,0,0,0,.495.593.466.466,0,0,1,.193.566.847.847,0,0,1-.455.448,5.843,5.843,0,0,1-.619.212c-.546.187-.861.717-1.368.992a.683.683,0,0,0-.212,1.022c.1.121.229.207.329.327a.374.374,0,0,1,.07.423.327.327,0,0,1-.3.124c-.113-.009-.226-.07-.339-.075a.449.449,0,0,0-.41.284.739.739,0,0,0,0,.52,1.525,1.525,0,0,0,.254.407,1.214,1.214,0,0,1,.215.4.415.415,0,0,1-.11.417.455.455,0,0,1-.483.009c-.153-.076-.279-.2-.423-.284s-.347-.209-.463-.085a1.041,1.041,0,0,0-.123,1.031c.117.344.324.652.443,1s.2.817-.085,1.047a.593.593,0,0,1-.762-.106,1.729,1.729,0,0,1-.364-.751l-.391-1.319a1.478,1.478,0,0,0-.193-.456.5.5,0,0,0-.418-.228c-.294.019-.452.362-.467.656-.04.859.715,1.663.558,2.51a.37.37,0,0,1-.408.259.889.889,0,0,1-.464-.241,1.893,1.893,0,0,0-.423-.317.466.466,0,0,0-.5.041c-.169.152-.064.373-.068.6a.467.467,0,0,1-.339.382,3.886,3.886,0,0,0-.516.169,4.618,4.618,0,0,1-.442.3c-.226.09-.6.011-.607-.232a.377.377,0,0,0-.348-.354.649.649,0,0,0-.522.378c-.117.194-.2.448-.4.558a.369.369,0,0,1-.366.2c-.148,0-.291-.053-.439-.063a.467.467,0,0,0-.37.115.356.356,0,0,0-.007.432,1.054,1.054,0,0,1,.073.325.358.358,0,0,1-.13.295.584.584,0,0,1-.564-.017.5.5,0,0,0-.6.29,5.2,5.2,0,0,0-.207.71.61.61,0,0,1-.513.467c-.247,0-.433-.244-.567-.461l-.478-.769a.561.561,0,0,1-.112-.291.393.393,0,0,1,.339-.339,1.478,1.478,0,0,1,.516.037.8.8,0,0,0,.508-.042.61.61,0,0,0,.175-.8.9.9,0,0,0-.6-.556,3.508,3.508,0,0,1-2.1-.969,2.385,2.385,0,0,0-.545-.622.951.951,0,0,0-.789-.039c-.254.09-.448.322-.7.415a5.856,5.856,0,0,0-2.561,2.255,6.451,6.451,0,0,0-.7,1.717,2.586,2.586,0,0,1-1.158,1.473,1.07,1.07,0,0,0-.287.178.364.364,0,0,0-.123.3,1.864,1.864,0,0,0,.135.311.762.762,0,0,1,.005.339,8.251,8.251,0,0,0-.047.871.608.608,0,0,0,.137.423.4.4,0,0,0,.411.124c.229-.078.317-.376.539-.469a.49.49,0,0,1,.593.317c.091.233.012.494.075.736l.169.629a.424.424,0,0,0,.716.329,2.042,2.042,0,0,0,.6-.4.909.909,0,0,0,.254-.682c-.15-1.3-.565-2.869.254-3.895a6.365,6.365,0,0,1,.55-.607,1.8,1.8,0,0,1,.45-.339.738.738,0,0,1,.55-.055.472.472,0,0,1,.328.418.785.785,0,0,1-.229.469,8.343,8.343,0,0,1-.538.7.9.9,0,0,0-.121,1.078,1.079,1.079,0,0,0,1.03.374,3.492,3.492,0,0,1,1.107.1c.122.031.266.1.273.222s-.13.208-.254.237a4.118,4.118,0,0,0-.8.137.743.743,0,0,0-.365.909c.076.174-.1.36-.286.416a1.973,1.973,0,0,0-.546.157c-.289.193-.254.619-.38.944a1.3,1.3,0,0,1-1.1.748,4.324,4.324,0,0,1-1.414-.116.975.975,0,0,1-.722-.773,1.479,1.479,0,0,0-.049-.274.248.248,0,0,0-.2-.175.236.236,0,0,0-.222.223.687.687,0,0,0,.079.334,1.063,1.063,0,0,1,.132.5.686.686,0,0,1-.3.494,3.005,3.005,0,0,1-.526.28,3.166,3.166,0,0,0-1.67,1.545.985.985,0,0,1-.639.467l-.837.306c-.246.09-.527.219-.578.475a.677.677,0,0,0,.308.6,1.524,1.524,0,0,1,.492.5.583.583,0,0,1-.051.547.6.6,0,0,1-.491.25,2.769,2.769,0,0,0-1.121.164,1.665,1.665,0,0,0-.818,1.17,1.6,1.6,0,0,0,2.3,1.863c1.052-.565,1.227-2.117,2.256-2.723a3.353,3.353,0,0,1,1.782-.3c1.025.017,1.675,1.236,1.947,2.225.048.169.1.371.265.443a.379.379,0,0,0,.389-.085,1.122,1.122,0,0,0,.234-.347,1.016,1.016,0,0,0,.159-.655c-.071-.321-.417-.483-.7-.65a3.059,3.059,0,0,1-.953-.881.46.46,0,0,1-.1-.455.334.334,0,0,1,.374-.134.974.974,0,0,1,.365.218,5.681,5.681,0,0,1,2.084,2.957,1.363,1.363,0,0,0,.14.411.4.4,0,0,0,.36.2.411.411,0,0,0,.307-.434,1.761,1.761,0,0,0-.163-.557.731.731,0,0,1-.026-.566.5.5,0,0,1,.579.019,1.472,1.472,0,0,1,.394.473l.785,1.27a.847.847,0,0,0,.654.423,2.988,2.988,0,0,0,.838-.1,1.577,1.577,0,0,1,.836.008.931.931,0,0,1,.091,1.683,2.184,2.184,0,0,1-1.008.135l-1.644-.041a3.825,3.825,0,0,1-1.107-.136c-.348-.115-.711-.333-1.054-.2a1.219,1.219,0,0,0-.493.461.976.976,0,0,1-.521.423c-.223.049-.5-.132-.454-.356a1.856,1.856,0,0,0-1.27-.753.823.823,0,0,1-.448-.119c-.2-.169-.131-.482-.131-.743a1.18,1.18,0,0,0-.715-1.064,2.832,2.832,0,0,0-1.906.085,11.612,11.612,0,0,1-1.834.584,5.952,5.952,0,0,0-.8.121.884.884,0,0,0-.6.491c-.459,1.235-1.663,2.13-2.446,3.189a8.966,8.966,0,0,0-1.341,2.242,5.044,5.044,0,0,0-.169,1.312q-.035.436-.07.871a3.154,3.154,0,0,0-.013.538,1.591,1.591,0,0,0,.344.847c.57.158.875.879,1.059,1.439a3.139,3.139,0,0,0,.793,1.557,1.778,1.778,0,0,0,1.451.292,5.278,5.278,0,0,0,1.413-.567c1.032-.535,2.366.022,3.375.6a3.911,3.911,0,0,1,.544.317c.238.194.5.432.491.738a2.285,2.285,0,0,1-.261.677.946.946,0,0,0,.375,1.084,3.033,3.033,0,0,1,1,3.449c-.156.431-.414.824-.527,1.27a1.131,1.131,0,0,0,.355,1.236,2.242,2.242,0,0,1,.725,1.6c.09.489.056.992.115,1.486a1.853,1.853,0,0,0,.635,1.3c.586.431,0,1.555.449,2.13a1.485,1.485,0,0,0,1.221.445,4.018,4.018,0,0,0,2.775-1.185,3.335,3.335,0,0,0,.965-1.227,1.759,1.759,0,0,1,1.109-1.593c.269-.21.491-.577.339-.881a1.838,1.838,0,0,1,.254-1.813,8.382,8.382,0,0,1,1.114-1.02,1.345,1.345,0,0,0,.483-1.346,5.6,5.6,0,0,1-.135-3.172,3.492,3.492,0,0,1,1.912-2.421,3.452,3.452,0,0,0,1.524-1.448,1.809,1.809,0,0,0,.006-2.025,1.845,1.845,0,0,0-1.091-.516,3.859,3.859,0,0,1-1.134-.286,1.417,1.417,0,0,1-.662-.769c-.085-.234-.351-.329-.524-.508a2.951,2.951,0,0,1-.45-.677l-.667-1.23c-.465-.857-.859-1.8-1.32-2.663a1,1,0,0,1-.152-.429.345.345,0,0,1,.231-.356c.176-.041.339.11.451.25a16.08,16.08,0,0,1,2.39,3.865,7.481,7.481,0,0,0,.632,1.479,1.676,1.676,0,0,0,1.355.752,2.482,2.482,0,0,0,1.156-.46l1.635-1a4.325,4.325,0,0,0,.972-.728,1.459,1.459,0,0,0,.423-1.1.892.892,0,0,0-.775-.809,4.736,4.736,0,0,1-1.715-.316,1.069,1.069,0,0,1-.715-.618,1.609,1.609,0,0,0-.683-.905,1.557,1.557,0,0,1-.278-.2.333.333,0,0,1-.1-.312.306.306,0,0,1,.2-.187.7.7,0,0,1,.278-.025,1.154,1.154,0,0,1,.489.13c.319.18.5.556.792.778a1.48,1.48,0,0,0,1.016.339,2.436,2.436,0,0,1,.574-.062,1.417,1.417,0,0,1,.6.339.754.754,0,0,0,.644.193,5.554,5.554,0,0,1,2,.152,1.275,1.275,0,0,1,.526.117.434.434,0,0,1,.24.445.814.814,0,0,0,1.281.867c.2-.152.484.055.581.287a1.875,1.875,0,0,1,.069.745,3.848,3.848,0,0,0,.3,1.52,11.428,11.428,0,0,0,1.04,2.018c.13.19.29.4.519.415a.564.564,0,0,0,.527-.433,2.855,2.855,0,0,0,.061-.732,2.625,2.625,0,0,1,1.022-1.947c.4-.3.73-.715,1.139-1.01a.979.979,0,0,0,.429-.5c.047-.18-.008-.393.1-.542a.392.392,0,0,1,.344-.133,1.161,1.161,0,0,1,.366.112,3.133,3.133,0,0,1,1.091.662,1.484,1.484,0,0,1,.407.665,4.516,4.516,0,0,0,.169.776.666.666,0,0,0,.593.452c.13-.007.254-.069.382-.067a.533.533,0,0,1,.434.3,1.577,1.577,0,0,1,.139.533,9.362,9.362,0,0,0,.365,2.7,5.737,5.737,0,0,0,.417.716l.687,1.059a.921.921,0,0,0,.535.352.381.381,0,0,0,.4-.041.288.288,0,0,0,.046-.28.845.845,0,0,0-.153-.254c-.211-.271-.357-.572-.545-.859s-.375-.569-.564-.853a3.228,3.228,0,0,1-.423-.771,1.069,1.069,0,0,1,.047-.855c.085-.151.165-.276.339-.3a.485.485,0,0,1,.45.207c.012.181.231.282.4.339a.8.8,0,0,1,.466.254c.092.146.063.347.163.489a.31.31,0,0,0,.562-.192.729.729,0,0,1,.3-.5,2.187,2.187,0,0,0,.408-.3.666.666,0,0,0-.014-.871,4.7,4.7,0,0,1-1.339-2.125,1.067,1.067,0,0,1-.022-.461.444.444,0,0,1,.289-.339,6.773,6.773,0,0,1,1.158-.158,3.418,3.418,0,0,0,.723-.124,1.145,1.145,0,0,0,.593-.407,4.21,4.21,0,0,1,1.207-.941c.2-.135.406-.327.39-.566a1.131,1.131,0,0,1,.222-.734,6.056,6.056,0,0,0,.473-.654.742.742,0,0,0,0-.767,1.824,1.824,0,0,1-.339-.633,5.3,5.3,0,0,1-.061-.561,1.722,1.722,0,0,0-.533-1.035.709.709,0,0,1-.064-.925c.12-.139.312-.236.35-.417s-.12-.366-.284-.473a1.116,1.116,0,0,1-.442-.374.519.519,0,0,1,.215-.637.835.835,0,0,1,.71-.047,2.032,2.032,0,0,1,.931.807,7.183,7.183,0,0,1,.632,1.4.84.84,0,0,0,.24.367.527.527,0,0,0,.693-.135.92.92,0,0,0,.135-.745,2.4,2.4,0,0,0-.527-.874,1.278,1.278,0,0,1-.091-1.723,3.57,3.57,0,0,1,.657-1.031c.2-.2.45-.345.663-.532a1.077,1.077,0,0,0,.413-.716c.064-1.252.563-2.427.3-3.653a4.961,4.961,0,0,0-.689-1.56,1.958,1.958,0,0,0-.888-.84c-.067-.025-.135-.046-.2-.073a.919.919,0,0,1-.221-1.567,1.036,1.036,0,0,0,.279-1.02,1.586,1.586,0,0,1-.069-.619.677.677,0,0,1,.318-.4,2.006,2.006,0,0,1,.487-.193c.7-.21,1.471-.064,2.182-.254a1.406,1.406,0,0,0,.727-.373.555.555,0,0,0,.02-.748c-.025-.339-.051-.706-.075-1.046a1.335,1.335,0,0,1,.017-.449.455.455,0,0,1,.282-.328c.339-.1.677.339,1.011.218.126.071.247-.085.286-.224s.062-.311.194-.372a.276.276,0,0,1,.344.187.8.8,0,0,1-.016.435l-.213.939-.611,2.691a1.871,1.871,0,0,0,.3,1.464,22.882,22.882,0,0,1,1.389,2.531.5.5,0,0,0,.235.264c.212.078.418-.169.423-.4a4,4,0,0,0-.14-.661c-.085-.542.286-1.037.445-1.562a2.8,2.8,0,0,0-.444-2.3c-.273-.415-.694-.725-.762-1.218a1.168,1.168,0,0,1,.638-1.229,2.345,2.345,0,0,1,.588-.114,1.151,1.151,0,0,0,.562-.19.474.474,0,0,0,.182-.528,1.113,1.113,0,0,1,.235-1,1.863,1.863,0,0,0,.444-.956c0-.185-.054-.4.069-.534a1.774,1.774,0,0,1,.223-.156.385.385,0,0,0-.089-.621,1.038,1.038,0,0,1-.614-.617,2.056,2.056,0,0,1,0-.862,1.926,1.926,0,0,1,.218-.762.657.657,0,0,1,.672-.331,1.382,1.382,0,0,1,.715.289,4.486,4.486,0,0,1,.294.393.7.7,0,0,0,.388.284.339.339,0,0,0,.394-.2A.392.392,0,0,0,307.931,145.628Zm-41.895,21.858a.72.72,0,0,1-.731.386,5.672,5.672,0,0,1-.862-.2,2.258,2.258,0,0,0-1.9.477c-.221.186-.566.533-.866.276a.767.767,0,0,1-.119-.792,4.149,4.149,0,0,1,1.108-1.768l.375-.339a.967.967,0,0,1,.236-.174c.3-.139.643.059.916.249l1.24.863a1.947,1.947,0,0,1,.48.423.66.66,0,0,1,.119.6Zm4.233,2.137a.824.824,0,0,1-1.089-.375,3.556,3.556,0,0,1-.289-1.27c-.141-.86-1.119-1.759-.7-2.65a.856.856,0,0,1,.915-.481.729.729,0,0,1,.555.834c-.064.273-.295.478-.382.743a1.234,1.234,0,0,0,.354,1.133,5.573,5.573,0,0,1,.8.944.875.875,0,0,1-.165,1.122Zm2.388-3.168a.744.744,0,0,1-.527.423.536.536,0,0,1-.508-.627.937.937,0,0,1,.08-.213l.119-.254.085-.188a.66.66,0,0,1,.3-.364c.723-.3.636.9.45,1.223Z" transform="translate(-204.754 -137.81)" fill="#ff1f1f"></path>
              <path id="Path_18538" data-name="Path 18538" d="M256.96,190.032a1.366,1.366,0,0,1,.353.953c-.066.48-1.51,1.57-.384,1.693.791.085,2.086-.508,1.708-1.49-.188-.487-.7-.762-.895-1.248a6.218,6.218,0,0,1-.162-.947c-.069-.313-.3-.642-.622-.632-.347.011-.56.429-.5.771A2.246,2.246,0,0,0,256.96,190.032Z" transform="translate(-211.111 -167.068)" fill="#ff1f1f"></path>
              <path id="Path_18539" data-name="Path 18539" d="M253.052,195.218a.808.808,0,0,0,.1.3.361.361,0,0,0,.254.18c.183.023.339-.131.455-.272a2.326,2.326,0,0,0,.434-.646c.206-.534-.157-1.1-.753-.8a.918.918,0,0,0-.443.534,1.5,1.5,0,0,0-.044.7Z" transform="translate(-209.017 -170.458)" fill="#ff1f1f"></path>
              <path id="Path_18540" data-name="Path 18540" d="M298.657,162.281c.142.067.329.111.442,0,.227-.223-.1-.558-.2-.757a2.913,2.913,0,0,1-.178-.6c-.11-.412-.56-1.072-1.052-.66a.582.582,0,0,0-.19.431,1.125,1.125,0,0,0,.1.47A2.194,2.194,0,0,0,298.657,162.281Z" transform="translate(-236.225 -149.789)" fill="#ff1f1f"></path>
              <path id="Path_18541" data-name="Path 18541" d="M299.131,152.091a2.685,2.685,0,0,1,1.035-1.371,2,2,0,0,0,.976-1.3c.019-.254-.136-.566-.389-.544a.575.575,0,0,0-.339.21l-1.875,1.924c-.3.306-.622.7-.522,1.111C298.178,152.77,298.931,152.606,299.131,152.091Z" transform="translate(-236.546 -142.895)" fill="#ff1f1f"></path>
              <path id="Path_18542" data-name="Path 18542" d="M382.1,190.29a1.88,1.88,0,0,0,.544.941c.106.085.508.355.645.169.1-.14-.314-.757-.379-.925a5.644,5.644,0,0,1-.306-1.13c-.078-.483-.092-.975-.19-1.453a2.294,2.294,0,0,0-.655-1.283c-.169-.15-.444-.254-.605-.1a.382.382,0,0,0-.032.436,2.089,2.089,0,0,0,.29.367,2.632,2.632,0,0,1,.5,1.439,9.431,9.431,0,0,0,.188,1.536Z" transform="translate(-287.397 -165.887)" fill="#ff1f1f"></path>
              <path id="Path_18543" data-name="Path 18543" d="M377.819,212.629a1.072,1.072,0,0,0-.36.685c-.033.558.673.893.905.311.1-.254.059-.428.26-.668a3.5,3.5,0,0,1,.786-.677,4.636,4.636,0,0,0,1.367-.966,2.858,2.858,0,0,0,.306-1.941c-.017-.211-.074-.472-.281-.52a.349.349,0,0,0-.347.169,1.186,1.186,0,0,0-.139.384,4.893,4.893,0,0,1-1.863,2.753,5.667,5.667,0,0,0-.635.47Z" transform="translate(-285.184 -179.606)" fill="#ff1f1f"></path>
              <path id="Path_18544" data-name="Path 18544" d="M353.662,254.153l-1.767-1.824a1.821,1.821,0,0,0-.554-.439.618.618,0,0,0-.666.078.694.694,0,0,0,.121.94c.254.247.593.379.864.6a3.577,3.577,0,0,1,.787,1.14,2.473,2.473,0,0,0,.879,1.06c.333.187,1.089.243,1.222-.236C354.673,255.021,353.932,254.429,353.662,254.153Z" transform="translate(-268.705 -205.919)" fill="#ff1f1f"></path>
              <path id="Path_18545" data-name="Path 18545" d="M365.2,253.341c.119-.229-.09-.518,0-.762.13-.333.7-.284.838-.614.114-.273-.169-.557-.169-.853,0-.423.552-.75.423-1.148a.543.543,0,0,0-.731-.232,2.4,2.4,0,0,0-.657.554,3.259,3.259,0,0,1-1.5.791c-.414.111-.742.244-.8.72-.136,1.139,1.054,1.659,1.967,1.737C364.806,253.556,365.093,253.547,365.2,253.341Z" transform="translate(-276.086 -204.604)" fill="#ff1f1f"></path>
              <path id="Path_18546" data-name="Path 18546" d="M303.008,268.627a.7.7,0,0,0-.417.476,1.508,1.508,0,0,1-.29.583c-.254.244-.677.227-.922.481s-.185.614-.246.926a1.224,1.224,0,0,1-.362.662.847.847,0,0,0-.013,1.3,1.009,1.009,0,0,0,1.208.1,1.7,1.7,0,0,0,.61-1.237,4.029,4.029,0,0,1,.3-1.383,7.139,7.139,0,0,1,.485-.677,1.1,1.1,0,0,0,.237-.777.524.524,0,0,0-.587-.451Z" transform="translate(-238.051 -216.195)" fill="#ff1f1f"></path>
            </g>
          </g>
        </g>
      </g>
      <path id="Path_18548" data-name="Path 18548" d="M3.758-15.173v-6.249H5.849l3.528,6.249h2.578L8.189-21.648a5.129,5.129,0,0,0,2.911-1.77,5.19,5.19,0,0,0,1.247-3.5,5.007,5.007,0,0,0-1.592-3.766,5.458,5.458,0,0,0-3.885-1.524H1.37v17.036Zm0-14.886H6.871a3,3,0,0,1,2.245.867,3.152,3.152,0,0,1,.847,2.269,3.454,3.454,0,0,1-.855,2.376,2.841,2.841,0,0,1-2.234.975H3.758Zm11.381,1.046a1.433,1.433,0,0,0,1.028-.427,1.433,1.433,0,0,0,.412-1.034,1.433,1.433,0,0,0-.412-1.034,1.433,1.433,0,0,0-1.028-.427,1.445,1.445,0,0,0-1.038.423,1.445,1.445,0,0,0-.423,1.038,1.445,1.445,0,0,0,.424,1.038,1.445,1.445,0,0,0,1.039.423Zm1.2,13.841V-27.339H13.952v12.165Zm14.1-17.037H28.029v6.427a4.782,4.782,0,0,0-3.837-1.747,6.181,6.181,0,0,0-3.148.831,6.211,6.211,0,0,0-2.292,2.285,6.2,6.2,0,0,0-.847,3.16,6.158,6.158,0,0,0,.847,3.148,6.211,6.211,0,0,0,2.293,2.281,6.189,6.189,0,0,0,3.148.847,6.265,6.265,0,0,0,6.249-6.273Zm-6.249,6.986a3.7,3.7,0,0,1,2.768,1.15,3.9,3.9,0,0,1,1.117,2.816,3.9,3.9,0,0,1-1.117,2.816,3.686,3.686,0,0,1-2.768,1.152,3.711,3.711,0,0,1-2.78-1.152A3.9,3.9,0,0,1,20.3-21.258a3.9,3.9,0,0,1,1.129-2.816,3.686,3.686,0,0,1,2.768-1.15ZM32.6-18.1a6.031,6.031,0,0,0,2.269,2.269,6.17,6.17,0,0,0,3.16.847,6.189,6.189,0,0,0,3.363-.966,6.31,6.31,0,0,0,2.328-2.54l-2.852-.024a3.8,3.8,0,0,1-2.923,1.223,3.608,3.608,0,0,1-2.471-.867,3.217,3.217,0,0,1-1.152-2.222h9.837a7.44,7.44,0,0,0,.075-1.095,6.206,6.206,0,0,0-2.007-4.455,6.537,6.537,0,0,0-4.277-1.6,5.982,5.982,0,0,0-3.133.855,6.084,6.084,0,0,0-2.234,2.293,6.4,6.4,0,0,0-.808,3.148A6.136,6.136,0,0,0,32.6-18.1Zm1.723-4.233a3.94,3.94,0,0,1,1.331-2.084,3.641,3.641,0,0,1,2.376-.808,3.556,3.556,0,0,1,2.3.82,3.879,3.879,0,0,1,1.343,2.079Zm15.753,7.346a5.873,5.873,0,0,0,3.471-.951,3.133,3.133,0,0,0,1.306-2.744c-.071-4.693-6.962-2.816-6.962-5.249,0-.891.879-1.485,2.068-1.485A2.856,2.856,0,0,1,51.53-25a1.288,1.288,0,0,1,.642,1.117h2.293a3.223,3.223,0,0,0-1.253-2.686A5.149,5.149,0,0,0,50-27.529a5.317,5.317,0,0,0-3.208.951,2.938,2.938,0,0,0-1.289,2.471c0,4.717,6.962,2.637,6.962,5.381,0,.963-.867,1.6-2.34,1.6a3.276,3.276,0,0,1-1.818-.463,1.418,1.418,0,0,1-.713-1.235H45.315a3.308,3.308,0,0,0,.677,2.079A4.933,4.933,0,0,0,50.079-14.983ZM61.412-27.529a3.587,3.587,0,0,0-2.97,1.283V-32.21H56.055v17.036h2.388v-6.451c0-2.411,1.034-3.6,2.97-3.6,1.984,0,2.97,1.212,2.97,3.647v6.4H66.77v-6.4C66.771-25.664,64.526-27.529,61.412-27.529ZM74.386-14.983a4.676,4.676,0,0,0,2.34-.606A3.515,3.515,0,0,0,78.25-17.1v1.924h2.388v-6.082a6.19,6.19,0,0,0-.834-3.156A6.181,6.181,0,0,0,77.522-26.7a6.136,6.136,0,0,0-3.133-.831,6.181,6.181,0,0,0-3.148.831,6.211,6.211,0,0,0-2.3,2.286,6.2,6.2,0,0,0-.847,3.16,6.285,6.285,0,0,0,6.287,6.27ZM71.63-18.44a3.863,3.863,0,0,1-1.14-2.816,3.9,3.9,0,0,1,1.129-2.818,3.737,3.737,0,0,1,2.794-1.152,3.7,3.7,0,0,1,2.768,1.14,3.979,3.979,0,0,1,1.093,2.828,3.929,3.929,0,0,1-1.1,2.816,3.641,3.641,0,0,1-2.756,1.152A3.711,3.711,0,0,1,71.63-18.44Zm13.078,3.267v-6.356c0-2.388.986-3.556,2.732-3.556h.238v-2.3H87.44a4.886,4.886,0,0,0-3.719,1.473,6.132,6.132,0,0,0-1.4,4.384v6.356ZM89.116-18.1a6.031,6.031,0,0,0,2.269,2.269,6.17,6.17,0,0,0,3.16.847,6.189,6.189,0,0,0,3.365-.966,6.31,6.31,0,0,0,2.328-2.54l-2.852-.024a3.8,3.8,0,0,1-2.923,1.223,3.608,3.608,0,0,1-2.471-.867,3.217,3.217,0,0,1-1.152-2.222h9.837a7.442,7.442,0,0,0,.071-1.093,6.206,6.206,0,0,0-2.007-4.455,6.537,6.537,0,0,0-4.277-1.6,5.982,5.982,0,0,0-3.133.855A6.084,6.084,0,0,0,89.1-24.379a6.4,6.4,0,0,0-.808,3.148,6.136,6.136,0,0,0,.828,3.135Zm1.723-4.233a3.94,3.94,0,0,1,1.333-2.084,3.641,3.641,0,0,1,2.376-.808,3.556,3.556,0,0,1,2.3.82,3.879,3.879,0,0,1,1.343,2.079Z" transform="translate(-1.37 115.255)" fill="#000240"></path>
      <path id="Path_18549" data-name="Path 18549" d="M6.442-18.3H.774v9.629H1.66v-4.62H5.918v-.839H1.66v-3.331H6.442ZM19.9-8.564a5,5,0,0,0,1.941-.383,4.931,4.931,0,0,0,1.578-1.041,4.923,4.923,0,0,0,1.047-1.565,4.856,4.856,0,0,0,.389-1.934,4.856,4.856,0,0,0-.389-1.934,4.954,4.954,0,0,0-1.047-1.571,4.911,4.911,0,0,0-1.578-1.034,5,5,0,0,0-1.941-.383,4.935,4.935,0,0,0-1.927.383A4.842,4.842,0,0,0,16.4-16.991a4.861,4.861,0,0,0-1.054,1.571,4.856,4.856,0,0,0-.389,1.934,4.856,4.856,0,0,0,.389,1.934A4.831,4.831,0,0,0,16.4-9.987a4.858,4.858,0,0,0,1.578,1.041A4.935,4.935,0,0,0,19.9-8.564Zm0-.866a4.081,4.081,0,0,1-2.055-.537,3.849,3.849,0,0,1-1.474-1.465,4.019,4.019,0,0,1-.544-2.055,4.019,4.019,0,0,1,.544-2.055,3.867,3.867,0,0,1,1.471-1.471,4.075,4.075,0,0,1,2.055-.531,4.082,4.082,0,0,1,2.062.531,3.931,3.931,0,0,1,1.477,1.471,4.081,4.081,0,0,1,.537,2.055,4.081,4.081,0,0,1-.537,2.055,3.913,3.913,0,0,1-1.477,1.464,4.088,4.088,0,0,1-2.059.541Zm18.542.866a5,5,0,0,0,1.941-.383,4.931,4.931,0,0,0,1.578-1.041,4.922,4.922,0,0,0,1.047-1.565,4.855,4.855,0,0,0,.389-1.934,4.855,4.855,0,0,0-.389-1.934,4.954,4.954,0,0,0-1.047-1.571,4.911,4.911,0,0,0-1.578-1.034,5,5,0,0,0-1.941-.383,4.935,4.935,0,0,0-1.92.382,4.842,4.842,0,0,0-1.578,1.034,4.861,4.861,0,0,0-1.054,1.571,4.855,4.855,0,0,0-.389,1.934,4.855,4.855,0,0,0,.389,1.934,4.831,4.831,0,0,0,1.054,1.565,4.858,4.858,0,0,0,1.578,1.041,4.935,4.935,0,0,0,1.924.383Zm0-.866a4.081,4.081,0,0,1-2.055-.537,3.85,3.85,0,0,1-1.471-1.464,4.019,4.019,0,0,1-.544-2.055,4.019,4.019,0,0,1,.544-2.055,3.867,3.867,0,0,1,1.471-1.471,4.075,4.075,0,0,1,2.055-.531,4.082,4.082,0,0,1,2.062.531,3.931,3.931,0,0,1,1.477,1.471,4.081,4.081,0,0,1,.537,2.055,4.081,4.081,0,0,1-.537,2.055,3.913,3.913,0,0,1-1.477,1.464,4.088,4.088,0,0,1-2.058.54ZM52.113-18.3v9.629h2.82a5.12,5.12,0,0,0,3.521-1.37,4.753,4.753,0,0,0,1.439-3.445,4.768,4.768,0,0,0-1.439-3.452A5.115,5.115,0,0,0,54.936-18.3ZM53-9.511v-7.95h1.934a3.939,3.939,0,0,1,2.884,1.121A3.939,3.939,0,0,1,59-13.482a3.939,3.939,0,0,1-1.185,2.859A3.939,3.939,0,0,1,54.933-9.5ZM69.482-18.3H68.6v9.629h.886Zm14.442,0H78.258v9.629h5.668v-.84H79.144v-3.78H83.4v-.839H79.144v-3.331h4.781Zm14.647,7c0-3.556-4.815-2.1-4.815-4.647a1.5,1.5,0,0,1,.5-1.168,1.822,1.822,0,0,1,1.276-.456,1.778,1.778,0,0,1,1.283.47,1.659,1.659,0,0,1,.49,1.262h.88a2.455,2.455,0,0,0-.752-1.853,2.665,2.665,0,0,0-1.9-.719,2.745,2.745,0,0,0-1.9.677,2.286,2.286,0,0,0-.762,1.773,2.052,2.052,0,0,0,.611,1.571,4.123,4.123,0,0,0,1.4.786c1.316.463,2.8.752,2.8,2.3a1.755,1.755,0,0,1-.577,1.39,2.232,2.232,0,0,1-1.51.5,2.182,2.182,0,0,1-1.551-.55,1.845,1.845,0,0,1-.6-1.423h-.879a2.617,2.617,0,0,0,.866,2.014,3.041,3.041,0,0,0,2.135.8,3.125,3.125,0,0,0,2.142-.752,2.51,2.51,0,0,0,.85-1.981Z" transform="translate(-0.561 123.562)" fill="#000240"></path>
    </g>
  </g>
</svg>
