<?xml version="1.0" encoding="UTF-8"?>
<svg xmlns="http://www.w3.org/2000/svg" xmlns:xlink="http://www.w3.org/1999/xlink" width="131" height="115" viewBox="0 0 131 115">
  <defs>
    <linearGradient id="linear-gradient" x1="0.281" y1="-0.369" x2="0.625" y2="0.997" gradientUnits="objectBoundingBox">
      <stop offset="0" stop-color="#e5c499"></stop>
      <stop offset="1" stop-color="#ac8461"></stop>
    </linearGradient>
    <linearGradient id="linear-gradient-2" x1="0.15" y1="-0.923" x2="0.7" y2="1.343" xlink:href="#linear-gradient"></linearGradient>
    <radialGradient id="radial-gradient" cx="0.143" cy="-0.12" r="1.303" gradientTransform="translate(0.177) scale(0.646 1)" gradientUnits="objectBoundingBox">
      <stop offset="0" stop-color="#ddc2a0"></stop>
      <stop offset="0.074" stop-color="#cbb292"></stop>
      <stop offset="0.534" stop-color="#5e5344"></stop>
      <stop offset="0.852" stop-color="#1a1713"></stop>
      <stop offset="1"></stop>
    </radialGradient>
    <radialGradient id="radial-gradient-2" cx="0.045" cy="-0.083" r="1.326" gradientTransform="matrix(1, 0, 0, 1, 0, 0)" xlink:href="#radial-gradient"></radialGradient>
    <radialGradient id="radial-gradient-3" cx="0.594" cy="-0.03" r="0.789" gradientTransform="translate(-0.198) scale(1.397 1)" xlink:href="#radial-gradient"></radialGradient>
    <radialGradient id="radial-gradient-4" cx="0.51" cy="0.018" r="0.851" gradientTransform="translate(-0.183) scale(1.365 1)" gradientUnits="objectBoundingBox">
      <stop offset="0" stop-color="#ddc2a0"></stop>
      <stop offset="0.513" stop-color="#635747"></stop>
      <stop offset="0.759" stop-color="#2e2821"></stop>
      <stop offset="0.854" stop-color="#1a1612"></stop>
      <stop offset="1"></stop>
    </radialGradient>
    <linearGradient id="linear-gradient-3" x1="0.482" y1="-0.29" x2="0.527" y2="1.674" xlink:href="#linear-gradient"></linearGradient>
    <linearGradient id="linear-gradient-4" x1="0.472" y1="-0.736" x2="0.517" y2="1.228" xlink:href="#linear-gradient"></linearGradient>
  </defs>
  <g id="Saloon" transform="translate(-8145 -292)">
    <rect id="Rectangle_3889" data-name="Rectangle 3889" width="131" height="115" transform="translate(8145 292)" fill="#fff" opacity="0"></rect>
    <g id="Salon_App_Logo" data-name="Salon App Logo" transform="translate(9927.614 -271.832)">
      <g id="Group_15994" data-name="Group 15994" transform="translate(-1768.614 569.832)">
        <g id="Group_15992" data-name="Group 15992" transform="translate(0 0)">
          <g id="Group_15991" data-name="Group 15991">
            <path id="Path_84811" data-name="Path 84811" d="M-1669.83,601.234a51.242,51.242,0,0,0-11.018-16.342,51.248,51.248,0,0,0-16.341-11.018q-1.783-.754-3.606-1.371a51.18,51.18,0,0,0-16.406-2.672,51.187,51.187,0,0,0-16.407,2.672q-1.823.614-3.606,1.371a51.245,51.245,0,0,0-16.342,11.018,51.238,51.238,0,0,0-11.018,16.342,51.083,51.083,0,0,0-4.041,20.012,51.079,51.079,0,0,0,4.041,20.011,51.244,51.244,0,0,0,11.018,16.343,51.238,51.238,0,0,0,16.342,11.018q1.782.754,3.606,1.371a51.18,51.18,0,0,0,16.406,2.673,51.181,51.181,0,0,0,16.407-2.673q1.822-.614,3.606-1.371a51.242,51.242,0,0,0,16.342-11.018,51.248,51.248,0,0,0,11.018-16.343,51.082,51.082,0,0,0,4.041-20.011A51.086,51.086,0,0,0-1669.83,601.234Zm-32.1,67.067a49.612,49.612,0,0,1-21.564,2.015,49.113,49.113,0,0,1-8.981-2.015,49.555,49.555,0,0,1-34.194-47.054,49.558,49.558,0,0,1,34.194-47.055,49.6,49.6,0,0,1,30.544,0,49.557,49.557,0,0,1,34.189,47.055,49.554,49.554,0,0,1-34.188,47.053Z" transform="translate(1768.614 -569.832)" fill="url(#linear-gradient)"></path>
            <path id="Path_84812" data-name="Path 84812" d="M-1513.621,819.448c-3.706,0-5.264,2.775-5.893,4.661a22.392,22.392,0,0,1-1.457,3.408l-5.845-8.27,13.24-15.542a9.069,9.069,0,0,0,2.029-4.3l.661-3.719.848-4.763a.228.228,0,0,0-.125-.263.228.228,0,0,0-.281.075l-18.258,25.835-18.257-25.835a.229.229,0,0,0-.281-.074.229.229,0,0,0-.127.261l.975,5.478.535,3a9.067,9.067,0,0,0,2.027,4.3l13.241,15.542-5.844,8.27a22.379,22.379,0,0,1-1.457-3.408c-.629-1.885-2.187-4.661-5.893-4.661-4.914,0-5.133,6-5.141,6.884,0,.063,0,.125.005.188a7.23,7.23,0,0,0,7,6.593,6.988,6.988,0,0,0,4.932-1.891l1.611-1.931,6.672-7.83,4.728,5.548,1.944,2.281,1.609,1.931a6.994,6.994,0,0,0,4.932,1.891,7.232,7.232,0,0,0,7-6.593c0-.063.005-.125.005-.188C-1508.488,825.445-1508.711,819.448-1513.621,819.448Zm-28.547,12.3a5.912,5.912,0,0,1-4.9-2.686,4.157,4.157,0,0,1-.3-4.113,3.66,3.66,0,0,1,3.561-2.038c2.954,0,3.72,3.492,5.673,6.844a5.506,5.506,0,0,1-4.03,1.995Zm31.826-2.686a5.912,5.912,0,0,1-4.9,2.686,5.5,5.5,0,0,1-4.034-1.991c1.954-3.352,2.719-6.844,5.673-6.844a3.661,3.661,0,0,1,3.561,2.039,4.157,4.157,0,0,1-.294,4.11Zm-3.279-9.614c-3.706,0-5.264,2.775-5.893,4.661a22.392,22.392,0,0,1-1.457,3.408l-5.845-8.27,13.24-15.542a9.069,9.069,0,0,0,2.029-4.3l.661-3.719.848-4.763a.228.228,0,0,0-.125-.263.228.228,0,0,0-.281.075l-18.258,25.835-18.257-25.835a.229.229,0,0,0-.281-.074.229.229,0,0,0-.127.261l.975,5.478.535,3a9.067,9.067,0,0,0,2.027,4.3l13.241,15.542-5.844,8.27a22.379,22.379,0,0,1-1.457-3.408c-.629-1.885-2.187-4.661-5.893-4.661-4.914,0-5.133,6-5.141,6.884,0,.063,0,.125.005.188a7.23,7.23,0,0,0,7,6.593,6.988,6.988,0,0,0,4.932-1.891l1.611-1.931,6.672-7.83,4.728,5.548,1.944,2.281,1.609,1.931a6.994,6.994,0,0,0,4.932,1.891,7.232,7.232,0,0,0,7-6.593c0-.063.005-.125.005-.188C-1508.488,825.445-1508.711,819.448-1513.621,819.448Zm-28.547,12.3a5.912,5.912,0,0,1-4.9-2.686,4.157,4.157,0,0,1-.3-4.113,3.66,3.66,0,0,1,3.561-2.038c2.954,0,3.72,3.492,5.673,6.844a5.506,5.506,0,0,1-4.03,1.995Zm31.826-2.686a5.912,5.912,0,0,1-4.9,2.686,5.5,5.5,0,0,1-4.034-1.991c1.954-3.352,2.719-6.844,5.673-6.844a3.661,3.661,0,0,1,3.561,2.039,4.157,4.157,0,0,1-.294,4.11Zm-18.365-34.961a13.643,13.643,0,0,1-4.337-.7l-.788,1.667a15.49,15.49,0,0,0,5.125.865,15.544,15.544,0,0,0,3.371-.367v-1.885a13.67,13.67,0,0,1-3.367.417Zm0,0a13.643,13.643,0,0,1-4.337-.7l-.788,1.667a15.49,15.49,0,0,0,5.125.865,15.544,15.544,0,0,0,3.371-.367v-1.885a13.67,13.67,0,0,1-3.367.417Zm32.154,15.661a32.383,32.383,0,0,0-.484-5.59c-.075-.433-.161-.871-.257-1.3a32.264,32.264,0,0,0-11.116-18.051,31.993,31.993,0,0,0-9.34-5.3,31.98,31.98,0,0,0-8.816-1.847q-1.071-.069-2.142-.068c-.715,0-1.432.022-2.142.068a31.946,31.946,0,0,0-4.474.613,31.812,31.812,0,0,0-4.34,1.235,31.969,31.969,0,0,0-9.34,5.3,32.264,32.264,0,0,0-11.12,18.047c-.094.428-.179.865-.257,1.3a32.531,32.531,0,0,0-.483,5.59,32.144,32.144,0,0,0,4.337,16.138,32.2,32.2,0,0,0,3.5,4.9c-.007.011-.014.022-.022.033q.756.87,1.578,1.694a32.518,32.518,0,0,0,5.557,4.456,16.88,16.88,0,0,0,8.581,2.6c.185.005.289.005.289.005v-.005a17.331,17.331,0,0,0,2.571-.13,19.409,19.409,0,0,0,5.765-1.689,19.406,19.406,0,0,0,5.765,1.689,17.348,17.348,0,0,0,2.571.13v.005s.1,0,.289-.005a16.991,16.991,0,0,0,5.38-1.028,16.685,16.685,0,0,0,3.2-1.578,32.559,32.559,0,0,0,5.557-4.456q.823-.823,1.578-1.694l-.021-.033a32.174,32.174,0,0,0,3.5-4.9,32.135,32.135,0,0,0,4.341-16.135Zm-33.482-30.179c.884-.039,1.772-.039,2.656,0a30,30,0,0,1,11.7,2.96,12.536,12.536,0,0,1-9.654,11.14,13.671,13.671,0,0,1-3.371.418,13.643,13.643,0,0,1-4.337-.7,12.462,12.462,0,0,1-8.69-10.858,30,30,0,0,1,11.694-2.963Zm-4.257,51.184q-.579-.71-1.086-1.47l6.672-7.83,4.728,5.548,1.944,2.281q-.508.758-1.086,1.47a24.007,24.007,0,0,1-5.586,5.076,24.009,24.009,0,0,1-5.584-5.08Zm21,4.979.011.018c-.466.278-.943.546-1.424.8-.1.053-.2.105-.3.157l-.137.071a13.466,13.466,0,0,1-11.8.057l.015-.009a23.448,23.448,0,0,0,3.637-2.6c.078-.068.15-.132.219-.194.166-.15.309-.282.428-.394.058-.056.11-.107.155-.152.159-.159.243-.249.243-.249a12.657,12.657,0,0,0,1.819-2.027,6.993,6.993,0,0,0,4.932,1.891,7.232,7.232,0,0,0,7.005-6.593c0-.063.005-.125.005-.188-.005-.888-.225-6.884-5.141-6.884-3.706,0-5.264,2.775-5.893,4.661a22.39,22.39,0,0,1-1.457,3.408l-5.845-8.27,13.24-15.542a9.069,9.069,0,0,0,2.029-4.3l.661-3.719.848-4.763a.228.228,0,0,0-.126-.263.228.228,0,0,0-.281.075l-18.257,25.835-18.257-25.835a.229.229,0,0,0-.281-.074.229.229,0,0,0-.127.262l.975,5.478.535,3a9.065,9.065,0,0,0,2.027,4.3l13.241,15.542-5.844,8.27a22.388,22.388,0,0,1-1.457-3.408c-.629-1.885-2.187-4.661-5.893-4.661-4.914,0-5.134,6-5.141,6.884,0,.063,0,.125.005.188a7.23,7.23,0,0,0,7,6.593,6.989,6.989,0,0,0,4.932-1.891,12.68,12.68,0,0,0,1.82,2.027,21.651,21.651,0,0,0,4.7,3.594,13.466,13.466,0,0,1-11.8-.057l-.139-.071c-.588-.3-1.162-.62-1.726-.955l.009-.018a30.374,30.374,0,0,1-14.791-25.983,30.459,30.459,0,0,1,.455-5.254c.071-.407.152-.818.24-1.219a30.267,30.267,0,0,1,14.738-19.831,14.346,14.346,0,0,0,9.653,11.609,15.489,15.489,0,0,0,5.125.865,15.544,15.544,0,0,0,3.371-.367,14.46,14.46,0,0,0,11.405-12.108,30.267,30.267,0,0,1,14.738,19.831c.086.4.171.812.24,1.219a30.582,30.582,0,0,1,.455,5.254,30.373,30.373,0,0,1-14.8,25.98Zm-5.99-5.984c1.954-3.352,2.719-6.844,5.673-6.844a3.66,3.66,0,0,1,3.561,2.038,4.156,4.156,0,0,1-.3,4.113,5.912,5.912,0,0,1-4.9,2.686,5.5,5.5,0,0,1-4.03-2Zm-18.851,0a5.506,5.506,0,0,1-4.035,1.991,5.912,5.912,0,0,1-4.9-2.686,4.158,4.158,0,0,1-.3-4.113,3.66,3.66,0,0,1,3.561-2.039c2.953,0,3.724,3.49,5.678,6.842Zm9.426-35.66a13.647,13.647,0,0,1-4.337-.7l-.788,1.667a15.49,15.49,0,0,0,5.125.865,15.545,15.545,0,0,0,3.371-.367v-1.885a13.666,13.666,0,0,1-3.368.417Zm0,0a13.647,13.647,0,0,1-4.337-.7l-.788,1.667a15.49,15.49,0,0,0,5.125.865,15.545,15.545,0,0,0,3.371-.367v-1.885a13.666,13.666,0,0,1-3.368.417Zm-18.257-3.359a.229.229,0,0,0-.281-.074.229.229,0,0,0-.127.262l.975,5.478.535,3a9.067,9.067,0,0,0,2.027,4.3l13.241,15.542.455-.645,1.433-2.027Z" transform="translate(1580.117 -758.345)" fill="url(#linear-gradient-2)"></path>
          </g>
          <path id="Path_84813" data-name="Path 84813" d="M-1295.063,1341.726l-1.766,1a21.648,21.648,0,0,1-4.7-3.594,12.667,12.667,0,0,1-1.821-2.027l1.611-1.93q.506.758,1.086,1.47A24,24,0,0,0-1295.063,1341.726Z" transform="translate(1346.472 -1264.23)" fill="#bf9974"></path>
          <path id="Path_84814" data-name="Path 84814" d="M-1205.714,1337.108a12.658,12.658,0,0,1-1.819,2.027s-.086.09-.243.249c-.045.046-.1.1-.155.152-.116.112-.257.244-.428.394-.069.063-.142.128-.219.195a23.447,23.447,0,0,1-3.637,2.6l-.015.009-1.766-1a24,24,0,0,0,5.586-5.077q.58-.71,1.086-1.47Z" transform="translate(1265.406 -1264.23)" fill="#bf9974"></path>
          <path id="Path_84815" data-name="Path 84815" d="M-1199.989,1413.56v2a16.992,16.992,0,0,1-5.379,1.028c-.185.006-.289.006-.289.006v-.006a17.313,17.313,0,0,1-2.571-.13,19.4,19.4,0,0,1-5.765-1.689s1.224-.6,1.766-.919a13.466,13.466,0,0,0,11.8-.057l.137-.071C-1200.195,1413.671-1200.092,1413.62-1199.989,1413.56Z" transform="translate(1265.405 -1335.349)" fill="#bf9974"></path>
          <path id="Path_84816" data-name="Path 84816" d="M-1419.666,1237.042c-2.571-1.206-2.941-6.808-7.284-6.808s-5.2,5.624-5.2,5.624c.006-.888.225-6.884,5.141-6.884,3.706,0,5.264,2.775,5.893,4.661A22.385,22.385,0,0,0-1419.666,1237.042Z" transform="translate(1463.347 -1167.874)" fill="url(#radial-gradient)"></path>
          <path id="Path_84817" data-name="Path 84817" d="M-1118.086,1235.86s-.932-5.57-5.606-5.433-4.589,5.221-6.886,6.618a22.37,22.37,0,0,0,1.457-3.407c.629-1.885,2.187-4.661,5.893-4.661C-1118.309,1228.979-1118.1,1234.978-1118.086,1235.86Z" transform="translate(1189.721 -1167.874)" fill="url(#radial-gradient-2)"></path>
          <path id="Path_84818" data-name="Path 84818" d="M-1271.009,918.506l-.847,4.762-25.55,31.828,5.844-8.27,1.885-2.673,18.257-25.835a.228.228,0,0,1,.288-.087A.228.228,0,0,1-1271.009,918.506Z" transform="translate(1341.089 -885.924)" fill="url(#radial-gradient-3)"></path>
          <path id="Path_84819" data-name="Path 84819" d="M-1382.424,1011l-4.728-5.548-1.885-2.216-13.24-15.541a9.066,9.066,0,0,1-2.027-4.3l-.535-3,16.258,22.193Z" transform="translate(1438.56 -942.329)" fill="url(#radial-gradient-4)"></path>
          <path id="Path_84820" data-name="Path 84820" d="M-1362.974,841.686l-.788,1.667a14.347,14.347,0,0,1-9.653-11.61s1.2-.656,1.752-.915a12.462,12.462,0,0,0,8.689,10.858Z" transform="translate(1410.048 -806.631)" fill="#c19b76"></path>
          <path id="Path_84821" data-name="Path 84821" d="M-1166.225,831.741a14.46,14.46,0,0,1-11.405,12.108v-1.885a12.536,12.536,0,0,0,9.654-11.139S-1167.142,831.2-1166.225,831.741Z" transform="translate(1232.409 -806.63)" fill="#c29c76"></path>
        </g>
        <g id="Group_15993" data-name="Group 15993" transform="translate(7.847 48.488)">
          <rect id="Rectangle_17641" data-name="Rectangle 17641" width="4.139" height="4.139" transform="translate(2.927) rotate(45)" fill="url(#linear-gradient-3)"></rect>
          <rect id="Rectangle_17642" data-name="Rectangle 17642" width="4.139" height="4.139" transform="translate(84.201) rotate(45)" fill="url(#linear-gradient-4)"></rect>
        </g>
      </g>
      <g id="Group_15996" data-name="Group 15996" transform="translate(-1727.251 658.802)">
        <g id="Group_15995" data-name="Group 15995" transform="translate(0 0)">
          <path id="Path_84822" data-name="Path 84822" d="M-1318.3,1534.684l-.213-.993-2.21-.385-.536.862-1.114-.194,2.906-4.413,1.114.194,1.207,5.13Zm-1.918-2.182,1.507.262-.428-1.986Z" transform="translate(1322.374 -1529.562)" fill="#c29c76"></path>
          <path id="Path_84823" data-name="Path 84823" d="M-1230.463,1536.908a1.559,1.559,0,0,1,.488,1.25,1.691,1.691,0,0,1-.528,1.3,2.038,2.038,0,0,1-1.436.448l-.962-.014-.02,1.385-1.094-.015.069-4.846,2.057.029A2.118,2.118,0,0,1-1230.463,1536.908Zm-.806,1.885a.771.771,0,0,0,.257-.616.744.744,0,0,0-.237-.609,1.086,1.086,0,0,0-.706-.214l-.907-.013-.024,1.641.907.013a1.059,1.059,0,0,0,.711-.2Z" transform="translate(1242.209 -1535.786)" fill="#c29c76"></path>
          <path id="Path_84824" data-name="Path 84824" d="M-1161.437,1530.378a1.559,1.559,0,0,1,.7,1.142,1.692,1.692,0,0,1-.286,1.378,2.037,2.037,0,0,1-1.333.7l-.949.159.228,1.366-1.079.18-.8-4.78,2.028-.339a2.117,2.117,0,0,1,1.486.2Zm-.456,2a.77.77,0,0,0,.141-.651.743.743,0,0,0-.343-.557,1.086,1.086,0,0,0-.733-.086l-.895.149.27,1.619.895-.149a1.059,1.059,0,0,0,.668-.327Z" transform="translate(1179.544 -1530.08)" fill="#c29c76"></path>
        </g>
      </g>
      <path id="Path_84911" data-name="Path 84911" d="M-18.752-7.98l1.054-1a1.581,1.581,0,0,0,.654-1.245c0-.7-.552-1.133-1.409-1.133a1.821,1.821,0,0,0-1.5.654l.514.394a1.114,1.114,0,0,1,.924-.411c.484,0,.733.208.733.569,0,.219-.068.451-.451.817L-19.8-7.851v.49h2.907v-.62Zm4.473.676c.943,0,1.65-.733,1.65-2.028s-.709-2.028-1.65-2.028-1.645.733-1.645,2.028S-15.213-7.3-14.279-7.3Zm0-.637c-.536,0-.907-.44-.907-1.392s.372-1.392.907-1.392.913.44.913,1.392-.371,1.392-.912,1.392ZM-10.6-7.98l1.054-1a1.581,1.581,0,0,0,.654-1.245c0-.7-.552-1.133-1.409-1.133a1.821,1.821,0,0,0-1.5.654l.514.394a1.114,1.114,0,0,1,.924-.411c.484,0,.733.208.733.569,0,.219-.068.451-.451.817l-1.566,1.488v.49H-8.74v-.62ZM-7.958-11.3v.614h.834v3.33h.733V-11.3Z" transform="translate(-1704.583 606.553)" fill="#c29c76"></path>
      <g id="Group_15998" data-name="Group 15998" transform="translate(-1738.78 577.391)">
        <g id="Group_15997" data-name="Group 15997" transform="translate(0)">
          <path id="Path_84825" data-name="Path 84825" d="M-1443.845,697.481a3.222,3.222,0,0,0-.937.279,1.13,1.13,0,0,0-.472.4.452.452,0,0,0-.011.465.571.571,0,0,0,.525.32,4.935,4.935,0,0,0,1.052-.119,8.566,8.566,0,0,1,1.157-.158,1.95,1.95,0,0,1,.924.182,1.622,1.622,0,0,1,.745.771,1.766,1.766,0,0,1,.2,1.1,2.029,2.029,0,0,1-.491,1.021,3.478,3.478,0,0,1-1.057.806,4.482,4.482,0,0,1-1.506.464,4.183,4.183,0,0,1-1.521-.072l-.029-1.332a3.955,3.955,0,0,0,1.334.116,3.051,3.051,0,0,0,1.163-.3,1.286,1.286,0,0,0,.554-.474.54.54,0,0,0,.006-.546.543.543,0,0,0-.343-.289,1.317,1.317,0,0,0-.509-.035q-.282.031-.754.128a8.305,8.305,0,0,1-1.139.171,1.916,1.916,0,0,1-.908-.171,1.569,1.569,0,0,1-.736-.759,1.718,1.718,0,0,1-.189-1.056,2,2,0,0,1,.473-1.007,3.4,3.4,0,0,1,1.063-.815,4.569,4.569,0,0,1,1.261-.428,4.47,4.47,0,0,1,1.261-.066l.054,1.34A4.939,4.939,0,0,0-1443.845,697.481Z" transform="translate(1446.806 -691.922)" fill="#c29c76"></path>
          <path id="Path_84826" data-name="Path 84826" d="M-1344.957,669.372l-.8-1.1-2.913.738-.186,1.349-1.467.371,1.143-6.992,1.467-.371,4.284,5.62Zm-3.542-1.623,1.99-.5-1.609-2.2Z" transform="translate(1359.267 -662.254)" fill="#c29c76"></path>
          <path id="Path_84827" data-name="Path 84827" d="M-1248.16,651.4l1.466-.044.154,5.215,2.784-.086.038,1.281-4.25.126Z" transform="translate(1266.572 -651.355)" fill="#c29c76"></path>
          <path id="Path_84828" data-name="Path 84828" d="M-1161.557,658.711a3.263,3.263,0,0,1,1.005,1.421,3.248,3.248,0,0,1,.125,1.76,3.272,3.272,0,0,1-.778,1.589,3.287,3.287,0,0,1-1.466.949,3.6,3.6,0,0,1-1.825.093,3.606,3.606,0,0,1-1.656-.771,3.294,3.294,0,0,1-1-1.425,3.264,3.264,0,0,1-.124-1.769,3.248,3.248,0,0,1,.777-1.584,3.271,3.271,0,0,1,1.457-.943,3.629,3.629,0,0,1,1.829-.086,3.634,3.634,0,0,1,1.661.767Zm-2.92.571a2,2,0,0,0-.863.593,2.066,2.066,0,0,0-.463.969,2.055,2.055,0,0,0,.068,1.082,2.083,2.083,0,0,0,.576.878,1.889,1.889,0,0,0,.926.464,1.867,1.867,0,0,0,1.023-.08,1.987,1.987,0,0,0,.846-.6,2.138,2.138,0,0,0,.461-.984,2.1,2.1,0,0,0-.061-1.071,2,2,0,0,0-.559-.871,1.867,1.867,0,0,0-.918-.458,1.941,1.941,0,0,0-1.039.075Z" transform="translate(1193.251 -657.264)" fill="#c29c76"></path>
          <path id="Path_84829" data-name="Path 84829" d="M-1062.505,685.133l1.257.6-2.8,5.866-1.207-.575-1.044-5.125-1.8,3.77-1.266-.6,2.8-5.866,1.207.575,1.044,5.146Z" transform="translate(1104.338 -680.248)" fill="#c29c76"></path>
        </g>
      </g>
    </g>
  </g>
</svg>
