<svg xmlns="http://www.w3.org/2000/svg" xmlns:xlink="http://www.w3.org/1999/xlink" width="622" height="498" viewBox="0 0 622 498"><defs><style>.a{opacity:0.14;fill:url(#a);}.b,.i{fill:none;}.b,.f{stroke:#571c56;}.b{stroke-dasharray:12;}.c{fill:#fff;opacity:0;}.d{fill:#fc193d;}.e{fill:#fcbd06;}.f,.g{fill:#571c56;}.h{stroke:none;}</style><linearGradient id="a" x1="0.764" x2="0.328" y2="1" gradientUnits="objectBoundingBox"><stop offset="0" stop-color="#fcbd06"></stop><stop offset="1" stop-color="#fc193d"></stop></linearGradient></defs><g transform="translate(-1050 -1594)"><ellipse class="a" cx="147.721" cy="147.721" rx="147.721" ry="147.721" transform="translate(1050 1695.279)"></ellipse><g class="b" transform="translate(1174 1594)"><circle class="h" cx="249" cy="249" r="249"></circle><circle class="i" cx="249" cy="249" r="248.5"></circle></g><g transform="translate(-4425 2347)"><rect class="c" width="300" height="260" rx="5" transform="translate(5698 -634)"></rect><path class="d" d="M5701.474-416.628c2.774-.462,60.575,0,60.575,0l37.75,19h33.927l21.733-5.126,19.421-13.872h63.813s1.387-12.023,2.774-12.023,27.744,20.808,27.744,20.808L5941.467-383.8l-2.774-13.832h-87.4l-71.924,1.739h-77.9Z"></path><path class="e" d="M5981.195-579.24l9.3-3.01,4.651,12.039-1.095,20.521s-8.208,16.964-8.482,18.879-17.511,16.964-18.605,17.785-13.955,4.651-15.323,5.2-18.605,2.189-18.605,2.189-12.586-1.368-13.681-2.189-8.756-2.463-8.756-3.283-3.831-14.5-3.831-14.5-.274-4.1,0-4.1,3.01,3.557,4.925,4.1,14.5,4.1,15.6,4.925,13.955,2.463,13.955,2.463,10.123-2.463,10.4-2.463,6.84-3.283,8.208-3.831,18.059-15.6,18.059-15.6l4.378-14.5v-11.218l-1.095-9.85Z"></path><path class="e" d="M5954.376-602.2s-2.228,3.783,0,4.406,8.954.5,9.95,0,6.476-1.619,7.721-2.74,2.74.125,1.246-3.861-2.117-10.337-4.11-11.956-4.109-5.978-4.857-3.487-.747,5.106-2.366,4.483-5.48-2.615-8.22-2.615-24.535-.872-25.282-.872-3.113,1.619-5.978,2.242-5.978.747-8.344,2.366-3.362,3.114-6.85,4.359-2.741,1-4.733,3.113a27.384,27.384,0,0,1-4.981,4.561c-2.864,2.164-3.611,2.787-4.857,4.406a91.63,91.63,0,0,0-5.23,7.846c-2.366,3.861-1.371,3.985-2.616,6.476a12.511,12.511,0,0,0-1.37,4.234s-2.616,19.926-1.37,20.674,1,3.612,3.487,4.732a23.192,23.192,0,0,1,5.479,4.234s3.99-1.121,3.99-2.118a84.613,84.613,0,0,0-.5-8.469,18.808,18.808,0,0,1,0-4.982s2.289-13.216,2.985-15.321,2.8-5.051,3.432-6.525a46.346,46.346,0,0,1,6.282-8c1.084-.842,8.662-6.6,9.714-7.191s8.629-4.106,10.1-4.561,8.419-1.718,11.155-1.3,13.909,3.1,14.476,3.438A10.058,10.058,0,0,1,5954.376-602.2Z"></path><g transform="translate(5501.5 -920.901)"><g transform="translate(196.5 485.614)"><path class="f" d="M435.463,452.419V436.668H196.5V411.062h58.7c2.1,1.971,4.318,3.849,6.608,5.632h-59.68v14.343h85.774a95.149,95.149,0,0,0,64.185,0h83.371v-.15h5.632v10.288l23.091-17.309-23.091-17.29v10.119H378.186c2.29-1.783,4.506-3.661,6.608-5.632h50.669V395.33l38.109,28.535Z" transform="translate(-196.5 -395.33)"></path></g><g transform="translate(217.676 292.42)"><path class="g" d="M292.62,326.919l.019.019a4.227,4.227,0,0,1,0-.488Z" transform="translate(-133.349 -262.565)"></path><path class="f" d="M482.524,337.25c-.394-1.108-.845-2.215-1.3-3.285l-.375-.882-15.995,7.434.357.845c.507,1.145.92,2.309,1.22,3.191a42,42,0,0,1-69.517,42.99,42.675,42.675,0,0,1-4.825-5.82,26.2,26.2,0,0,1-1.765-2.76,41.966,41.966,0,0,1,50.105-60.731l-4.449,9.5,31.8-6.664L452.45,292.42l-4.543,9.762a59.563,59.563,0,0,0-80.762,52.3l-.019-.019-.037,1.183a94.273,94.273,0,0,0-56.976-19.036,95.243,95.243,0,0,0-87.426,57.633L207.78,388.82l8.392,27.784,4.43,14.681.957,3.135,13.573-8.861,6.12-4.017,20.181-13.179-14.718-5.35a69.591,69.591,0,1,1,1.108,59.811c-.826-1.69-1.615-3.4-2.309-5.163l-5.313,1.934-13.4,4.881-5.294,1.934c.676,1.746,1.427,3.473,2.215,5.181a95.472,95.472,0,0,0,21.589,29.755c2.1,1.971,4.318,3.849,6.608,5.632a94.889,94.889,0,0,0,116.374,0c2.29-1.783,4.506-3.661,6.608-5.632A94.963,94.963,0,0,0,403.3,412.7c.263.113.544.225.807.338a1.3,1.3,0,0,1,.244.094,59.752,59.752,0,0,0,22.246,4.3c.713,0,1.427-.019,2.14-.038,1.746-.056,3.567-.206,5.407-.432a59.5,59.5,0,0,0,51.57-51.57c.225-1.84.375-3.661.432-5.407A59.462,59.462,0,0,0,482.524,337.25ZM372.4,358.689a53.724,53.724,0,0,1,15.826-39.2,54.353,54.353,0,0,1,58.347-12.071c.995.375,2.046.845,3.116,1.352l.864.413,2.234-4.825,6.908,12.935-14.361,3.022,2.309-4.881-.864-.394c-1.07-.507-2.178-.976-3.266-1.389a47.325,47.325,0,0,0-63.19,54.01,85,85,0,0,0-7.9-7.7l-.019-.864A3.028,3.028,0,0,1,372.4,358.689ZM367.07,356.3a4.227,4.227,0,0,0,0,.488l-.019-.019Zm-.751,145.041a91.407,91.407,0,0,1-7.735,5.632,89.576,89.576,0,0,1-129.553-37.321l13.479-4.9a75.2,75.2,0,0,0,67.6,42.221,75.224,75.224,0,1,0-68.691-105.9c-.77,1.708-1.483,3.454-2.121,5.219l5.294,1.915,4.337,1.577-6.064,3.961-6.758,4.412-11.339,7.415-2.816-9.311-3.285-10.851-2.253-7.453,4.186,1.521,5.313,1.934c.62-1.784,1.314-3.529,2.065-5.238a89.433,89.433,0,0,1,140.291-32.4c1.37,1.183,2.722,2.4,4.017,3.68a89.465,89.465,0,0,1,22.565,35.537c.582,1.708,1.126,3.435,1.6,5.181a89.465,89.465,0,0,1-30.131,93.171ZM480.534,363.589a54.081,54.081,0,0,1-42.446,47.289,55.553,55.553,0,0,1-5.745.9,54.043,54.043,0,0,1-29.492-5.163c-.131-.056-.263-.131-.394-.188l-.77-.375a83.257,83.257,0,0,0-3.6-10.419,47.256,47.256,0,0,0,46.764,5.895,47.462,47.462,0,0,0,25.438-25.419,47.636,47.636,0,0,0,1.352-32.834l6.308-2.947A54.727,54.727,0,0,1,480.534,363.589Z" transform="translate(-207.78 -292.42)"></path></g><g transform="translate(376.947 356.305)"><g transform="translate(37.058 56.732)"><path class="g" d="M312.36,356.67l.244.113v-.019A1.3,1.3,0,0,0,312.36,356.67Z" transform="translate(-312.36 -356.67)"></path></g><path class="g" d="M292.62,326.919l.019.019a4.227,4.227,0,0,1,0-.488Z" transform="translate(-292.62 -326.45)"></path></g></g><path class="e" d="M112.99,46.972l-8.641-2.157,4.582-7.632L89.807,18.059l-7.632,4.582L80.018,14H52.972l-2.157,8.641-7.632-4.582L24.059,37.183l4.582,7.632L20,46.972V74.018l8.641,2.157L24.059,83.81l19.124,19.12,7.632-4.582,2.157,8.641H80.018l2.157-8.641,7.632,4.582L108.93,83.81l-4.582-7.636,8.641-2.157ZM66.495,81.954A21.459,21.459,0,1,1,87.954,60.495,21.458,21.458,0,0,1,66.495,81.954Z" transform="translate(5755.505 -548.495)"></path><path class="g" d="M76.071,45.036A25.036,25.036,0,1,0,51.036,70.071,25.063,25.063,0,0,0,76.071,45.036Zm-42.918,0A17.883,17.883,0,1,1,51.036,62.918,17.9,17.9,0,0,1,33.153,45.036Z" transform="translate(5770.965 -533.036)"></path><path class="g" d="M51.459,34.73a10.73,10.73,0,1,0-10.73,10.73A10.743,10.743,0,0,0,51.459,34.73Zm-14.306,0a3.577,3.577,0,1,1,3.577,3.577A3.582,3.582,0,0,1,37.153,34.73Z" transform="translate(5781.271 -522.729)"></path></g></g></svg>