<svg xmlns="http://www.w3.org/2000/svg" width="204" height="204" viewBox="0 0 204 204"><defs><style>.a{fill:#f1f4f8;}.b{fill:#e1c5c5;opacity:0;}.c{fill:#fff;}.d{fill:#2cb134;}</style></defs><circle class="a" cx="102" cy="102" r="102"></circle><g transform="translate(-763 -259.034)"><rect class="b" width="116" height="116" transform="translate(807 303)"></rect><rect class="c" width="110.7" height="116" transform="translate(810 303)"></rect><g transform="translate(810 303)"><path class="d" d="M101.25,0a.744.744,0,0,1,.663,1.16h0L73.245,40.1a1.107,1.107,0,0,1-1.657,0h0L61.48,28.835A1.173,1.173,0,0,0,59.657,29h0l-6.131,7.788a1.3,1.3,0,0,0,.166,1.326h0L71.919,57.006a1.107,1.107,0,0,0,1.657,0h0L109.37,16.738a.766.766,0,0,1,1.326.5h0V115.17a.783.783,0,0,1-.829.829H.83A.783.783,0,0,1,0,115.17H0V.83A.782.782,0,0,1,.83,0H101.25ZM73.08,66.12a18.082,18.082,0,0,0-18.394,18.56c0,11.434,8.285,18.725,19.057,18.725A22.814,22.814,0,0,0,87.662,99.1a1.026,1.026,0,0,0,.166-1.326h0L84.845,93.3a1,1,0,0,0-1.326-.166,16.193,16.193,0,0,1-8.783,2.817c-5.8,0-9.446-3.646-10.108-7.954a.356.356,0,0,1,.331-.331H89.982a1.069,1.069,0,0,0,.994-.995h0v-.994C90.976,74.074,83.685,66.12,73.08,66.12Zm-24.691-6.3a26.529,26.529,0,0,0-17.9-5.966c-11.268,0-18.228,6.628-18.228,14.583,0,18.062,27.508,12.262,27.508,20.714,0,2.651-2.651,5.3-8.286,5.3A20.823,20.823,0,0,1,17.07,88.822a1.107,1.107,0,0,0-1.657.166h0L11.1,94.953a1.026,1.026,0,0,0,.166,1.326c4.474,4.143,10.771,6.96,19.554,6.96,12.925,0,19.222-6.628,19.554-15.246,0-17.9-27.508-12.76-27.508-20.382,0-2.817,2.486-4.806,6.794-4.806A20.569,20.569,0,0,1,42.755,67.28a1.049,1.049,0,0,0,1.491-.166h0l4.309-5.8a1.05,1.05,0,0,0-.166-1.491ZM73.245,73.411a8.347,8.347,0,0,1,8.783,7.623.356.356,0,0,1-.331.331h-16.9a.357.357,0,0,1-.332-.331A8.71,8.71,0,0,1,73.245,73.411Z" transform="translate(0 0)"></path></g></g></svg>