<?xml version="1.0" encoding="UTF-8"?>
<svg xmlns="http://www.w3.org/2000/svg" width="131" height="115" viewBox="0 0 131 115">
  <g id="Shelter" transform="translate(-8182 -812)">
    <rect id="Rectangle_3896" data-name="Rectangle 3896" width="131" height="115" transform="translate(8182 812)" fill="#fff" opacity="0"></rect>
    <g id="shelter-2" data-name="shelter" transform="translate(8059.002 720)">
      <g id="Group_3978" data-name="Group 3978" transform="translate(123.998 126.181)">
        <path id="Path_18558" data-name="Path 18558" d="M0,45.07v-.189a1.777,1.777,0,0,1,.007-.19V17.345a12.307,12.307,0,0,1,.48-3.615A17.7,17.7,0,0,1,1.967,10a20.877,20.877,0,0,1,3.086-4.32,16.872,16.872,0,0,1,3.9-3.137A18.151,18.151,0,0,1,12.819.862a17.97,17.97,0,0,1,4.968-.8c.092,0,.143,0,.168,0h.028L29.467.027a8.315,8.315,0,0,1,5.465,2.528,7.925,7.925,0,0,1,.03,11.013,8.313,8.313,0,0,1-5.406,2.551H17.983a2.53,2.53,0,0,0-1.021.392,2.417,2.417,0,0,0-1.068,2.083,2.337,2.337,0,0,0,1.021,2.129,2.846,2.846,0,0,0,1.068.433H29.76a8.126,8.126,0,0,1,3.549.983,7.041,7.041,0,0,1,2.539,2.328,9.339,9.339,0,0,1,1.406,4.522,7.354,7.354,0,0,1-1.636,5.588,7.2,7.2,0,0,1-1.849,1.5,9.371,9.371,0,0,1-1.909.831,10.055,10.055,0,0,1-2.091.431H18.809v.017a.56.56,0,0,0-.078-.006,2.5,2.5,0,0,0-2.494,2.494,2.572,2.572,0,0,0,2.534,2.541.548.548,0,0,0,.077-.005h1.524c4.079,0,8.724-.031,10.169-.043h.278a12.007,12.007,0,0,0,8.747-4.064,15.435,15.435,0,0,0,3.225-5.826,10.348,10.348,0,0,0,.444-2.625V3.2q-.013-.133-.013-.269V2.74a2.739,2.739,0,1,1,5.479,0v.189a2.769,2.769,0,0,1-.017.32V30.468a.006.006,0,0,1,0,0A12.251,12.251,0,0,1,48.2,34.08a17.535,17.535,0,0,1-1.479,3.737,20.824,20.824,0,0,1-3.086,4.318,16.75,16.75,0,0,1-3.9,3.137A18.5,18.5,0,0,1,30.9,47.746c-.112,0-.174,0-.194,0h0l-12.388.043a8.375,8.375,0,0,1-5.49-2.474,7.685,7.685,0,0,1,.028-10.895,8.394,8.394,0,0,1,5.551-2.45H29.291a3.417,3.417,0,0,0,1.268-.36,2.409,2.409,0,0,0,1.322-2.215,2.279,2.279,0,0,0-.592-1.7,3.193,3.193,0,0,0-2.006-.829H17.755a9.029,9.029,0,0,1-1.189-.34,11.55,11.55,0,0,1-2.586-1.266A8.06,8.06,0,0,1,11.465,22.7a7.293,7.293,0,0,1-.974-4.225,8.173,8.173,0,0,1,1.257-4.09,7.274,7.274,0,0,1,2.388-2.262,9.159,9.159,0,0,1,2.318-.966,7.576,7.576,0,0,1,1.031-.2H29.032a.607.607,0,0,0,.139.016,2.79,2.79,0,0,0,2.717-2.787,2.72,2.72,0,0,0-2.716-2.716.667.667,0,0,0-.133.015V5.44l-11.055.032h-.112A12.011,12.011,0,0,0,9.121,9.54,15.462,15.462,0,0,0,5.9,15.366a10.364,10.364,0,0,0-.445,2.626V44.5a2.777,2.777,0,0,1,.026.38v.189a2.74,2.74,0,1,1-5.48,0ZM37.254,0h0Z" fill="#fe9661"></path>
      </g>
      <g id="Group_3980" data-name="Group 3980" transform="translate(182.335 125)">
        <g id="Group_3979" data-name="Group 3979">
          <text id="Shelter-3" data-name="Shelter" transform="translate(0 22)" fill="#393939" font-size="22" font-family="SourceSansPro-Bold, Source Sans Pro" font-weight="700">
            <tspan x="0" y="0">Shelter</tspan>
          </text>
          <text id="FURNITURE" transform="translate(0.472 30.744)" fill="#fe9661" font-size="5" font-family="SourceSansPro-Bold, Source Sans Pro" font-weight="700">
            <tspan x="0" y="0">FURNITURE</tspan>
          </text>
        </g>
        <text id="By_Mela_Group" data-name="By Mela Group" transform="translate(0.709 40.191)" fill="#393939" font-size="5" font-family="SourceSansPro-Bold, Source Sans Pro" font-weight="700">
          <tspan x="0" y="0">By Mela Group</tspan>
        </text>
      </g>
    </g>
  </g>
</svg>
