<svg xmlns="http://www.w3.org/2000/svg" width="247.135" height="87.451" viewBox="0 0 247.135 87.451"><g id="Shelter_app_logo" data-name="Shelter app logo" transform="translate(-123.998 -125)"><g id="Group_81414" data-name="Group 81414" transform="translate(123.998 127.108)"><path id="Union_52" data-name="Union 52" d="M0,80.452v-.337c0-.114,0-.228.012-.339V30.961a21.969,21.969,0,0,1,.856-6.453,31.6,31.6,0,0,1,2.643-6.665A37.266,37.266,0,0,1,9.02,10.131a30.118,30.118,0,0,1,6.962-5.6,32.4,32.4,0,0,1,6.9-2.993A32.077,32.077,0,0,1,31.75.117c.165,0,.256,0,.3.005h.05l20.5-.074A14.843,14.843,0,0,1,62.355,4.56a14.147,14.147,0,0,1,.054,19.659,14.839,14.839,0,0,1-9.65,4.553H32.1a4.516,4.516,0,0,0-1.822.7,4.314,4.314,0,0,0-1.907,3.718,4.171,4.171,0,0,0,1.822,3.8,5.08,5.08,0,0,0,1.907.773H53.123a14.506,14.506,0,0,1,6.335,1.755,12.568,12.568,0,0,1,4.532,4.156A16.67,16.67,0,0,1,66.5,51.746c.293,4.073-.689,7.43-2.92,9.975a12.85,12.85,0,0,1-3.3,2.678,16.728,16.728,0,0,1-3.407,1.483,17.949,17.949,0,0,1-3.732.769H33.575v.03a1,1,0,0,0-.139-.01,4.457,4.457,0,0,0-4.452,4.452,4.591,4.591,0,0,0,4.523,4.536.98.98,0,0,0,.137-.009c.81,0,1.738,0,2.72,0,7.282,0,15.572-.055,18.153-.076h.279l.014,0h.027l.014,0h.162A21.434,21.434,0,0,0,70.626,68.32a27.553,27.553,0,0,0,5.756-10.4,18.472,18.472,0,0,0,.792-4.685l0-47.528q-.023-.237-.023-.48V4.891a4.89,4.89,0,1,1,9.78,0v.338A4.943,4.943,0,0,1,86.9,5.8V54.387a.005.005,0,0,0,0,0,.01.01,0,0,1,0,.006,21.868,21.868,0,0,1-.86,6.442A31.3,31.3,0,0,1,83.4,67.505a37.172,37.172,0,0,1-5.508,7.708,29.9,29.9,0,0,1-6.959,5.6,33.024,33.024,0,0,1-15.773,4.416c-.2,0-.31,0-.347-.005h0L32.7,85.3a14.949,14.949,0,0,1-9.8-4.416,13.718,13.718,0,0,1,.05-19.448,14.983,14.983,0,0,1,9.908-4.374H52.286a6.1,6.1,0,0,0,2.264-.642,4.3,4.3,0,0,0,2.36-3.954,4.068,4.068,0,0,0-1.056-3.035,5.7,5.7,0,0,0-3.581-1.479H31.694a16.116,16.116,0,0,1-2.122-.607,20.617,20.617,0,0,1-4.616-2.259,14.388,14.388,0,0,1-4.49-4.573,13.019,13.019,0,0,1-1.738-7.542,14.59,14.59,0,0,1,2.243-7.3,12.985,12.985,0,0,1,4.263-4.037,16.35,16.35,0,0,1,4.137-1.725,13.524,13.524,0,0,1,1.84-.363.068.068,0,0,0,.017,0H51.823a1.084,1.084,0,0,0,.248.029A4.98,4.98,0,0,0,56.921,14.6a4.855,4.855,0,0,0-4.849-4.849,1.191,1.191,0,0,0-.238.027V9.711L32.1,9.769h-.093l-.044,0H31.9a21.441,21.441,0,0,0-15.619,7.26,27.6,27.6,0,0,0-5.749,10.4,18.5,18.5,0,0,0-.794,4.688l0,47.323a4.957,4.957,0,0,1,.047.679v.337a4.891,4.891,0,0,1-9.781,0ZM66.5,0H65.485L66.5,0V0Z" fill="#ff9057"></path></g><g id="Group_81427" data-name="Group 81427" transform="translate(228.133 125)"><g id="Group_81405" data-name="Group 81405" transform="translate(0 0)"><text id="Shelter" transform="translate(0 41)" fill="#393939" font-size="42" font-family="SourceSansPro-Bold, Source Sans Pro" font-weight="700"><tspan x="0" y="0">Shelter</tspan></text><text id="Furniture" transform="translate(0.843 58.954)" fill="#ff9057" font-size="13" font-family="SourceSansPro-Bold, Source Sans Pro" font-weight="700"><tspan x="0" y="0">FURNITURE</tspan></text></g><text id="By_Mela_Group" data-name="By Mela Group" transform="translate(1.265 73.818)" fill="#393939" font-size="11" font-family="SourceSansPro-Bold, Source Sans Pro" font-weight="700"><tspan x="0" y="0">By Mela Group</tspan></text></g></g></svg>