<svg xmlns="http://www.w3.org/2000/svg" xmlns:xlink="http://www.w3.org/1999/xlink" width="204" height="204" viewBox="0 0 204 204"><defs><style>.a{fill:#f1f4f8;}.b{opacity:0;fill:url(#a);}.c{fill:#fcdc00;}.d{fill:#173647;}</style><linearGradient id="a" x1="0.5" x2="0.5" y2="1" gradientUnits="objectBoundingBox"><stop offset="0" stop-color="#571c56"></stop><stop offset="0.47" stop-color="#e5153f"></stop><stop offset="1" stop-color="#fcd000"></stop></linearGradient></defs><circle class="a" cx="102" cy="102" r="102"></circle><g transform="translate(44 43.5)"><rect class="b" width="116" height="116" transform="translate(0 0.466)"></rect><g transform="translate(131 -189.534)"><path class="c" d="M-72.253,304.138A55.368,55.368,0,0,1-127.6,248.79,55.183,55.183,0,0,1-72.253,193.6a55.317,55.317,0,0,1,55.347,55.348A55.233,55.233,0,0,1-72.253,304.138Z" transform="translate(-0.747 -0.791)"></path><path class="d" d="M-73,195.6A52.432,52.432,0,0,1-20.6,248,52.432,52.432,0,0,1-73,300.4,52.432,52.432,0,0,1-125.4,248,52.432,52.432,0,0,1-73,195.6m0-5.6a58.049,58.049,0,0,0-58,58,58.1,58.1,0,0,0,58,58,58.15,58.15,0,0,0,58-58,58.15,58.15,0,0,0-58-58Z" transform="translate(0 0)"></path><path class="d" d="M-33.935,251.446l4.515-6.416-4.832-11.724-7.683-1.426-3.406-3.406-1.267-7.684L-58.49,215.8l-6.416,4.515h-4.832l-6.416-4.515-11.882,4.832-1.426,7.684-3.564,3.406-7.683,1.426-4.99,11.724,4.515,6.416v4.832l-4.515,6.416,4.832,11.882,7.683,1.426,3.406,3.406,1.426,7.684,11.723,4.99,6.416-4.515h4.832l6.416,4.515,11.882-4.832,1.426-7.684L-42.094,276l7.683-1.267,4.99-11.724-4.515-6.416v-5.149Zm-1.743,12.04-2.535,6.258-6.416,1.109-5.941,5.941-1.109,6.416-6.258,2.535-5.307-3.723H-71.56l-5.466,3.723-6.258-2.535-1.109-6.416-5.782-5.941-6.416-1.109-2.535-6.258,3.723-5.307v-8.317l-3.723-5.466,2.535-6.258,6.416-1.109,5.941-5.941,1.109-6.416,6.258-2.535,5.307,3.723h8.317l5.466-3.723,6.258,2.535,1.109,6.416,5.941,5.941,6.416,1.109,2.535,6.258-3.723,5.466v8.317Zm-11.09-8.238A20.825,20.825,0,0,1-67.52,276a20.825,20.825,0,0,1-20.753-20.754,20.172,20.172,0,0,1,6.1-14.654l3.881,3.881a15.3,15.3,0,0,0-4.515,10.773,14.993,14.993,0,0,0,8.634,13.625l7.525-11.882-11.565-2.376L-65.54,231.96l4.832,2.693-9.03,16.08,12.2,2.693-10.773,17.031h.792a15.128,15.128,0,0,0,15.129-15.13,14.717,14.717,0,0,0-5.466-11.565l3.564-4.357A20.4,20.4,0,0,1-46.767,255.248Z" transform="translate(-5.557 -5.667)"></path></g></g></svg>