<svg xmlns="http://www.w3.org/2000/svg" width="210.5" height="150" viewBox="0 0 210.5 150"><defs><style>.a{fill:#3b2c2c;opacity:0;}.b{fill:#bb8ca8;}</style></defs><g transform="translate(0.001)"><rect class="a" width="210" height="150" transform="translate(0.499)"/><g transform="translate(-0.001 48)"><g transform="translate(84.349)"><path class="b" d="M121.52,35.922a7.26,7.26,0,0,0-1.732-1.09q-1.018-.465-2.31-.95-.981-.347-1.681-.657a5.741,5.741,0,0,1-1.172-.674,2.41,2.41,0,0,1-.7-.813A2.258,2.258,0,0,1,113.7,30.7a1.775,1.775,0,0,1,1.016-1.677,5.036,5.036,0,0,1,2.381-.535,10.819,10.819,0,0,1,2.7.294,8.318,8.318,0,0,1,1.645.57l0-2.956-.19-.052c-.339-.091-.73-.178-1.172-.258s-.923-.149-1.436-.209a13.981,13.981,0,0,0-1.542-.085,7.691,7.691,0,0,0-4.868,1.4,4.556,4.556,0,0,0-1.786,3.785,4.216,4.216,0,0,0,1.541,3.458,6.974,6.974,0,0,0,1.663,1.019c.642.289,1.314.57,2.012.848a14.96,14.96,0,0,1,3.116,1.557,2.2,2.2,0,0,1,.945,1.867,1.751,1.751,0,0,1-.963,1.66,6.452,6.452,0,0,1-2.959.535,10.4,10.4,0,0,1-3.256-.416c-.83-.281-1.394-.476-1.786-.622l0,2.983c.309.1.8.254,1.26.386a14.387,14.387,0,0,0,3.782.381,9.408,9.408,0,0,0,5.34-1.28,4.271,4.271,0,0,0,1.874-3.768,5.4,5.4,0,0,0-.385-2.161A4.242,4.242,0,0,0,121.52,35.922Zm39.931,5.642a2.518,2.518,0,0,1-1.066-.8,3.329,3.329,0,0,1-.631-1.383,9.87,9.87,0,0,1-.21-2.231v-8.3h5.421v-2.7h-5.421l0-5.652-3.261.757V37.182a14.962,14.962,0,0,0,.3,3.164,5.632,5.632,0,0,0,1.026,2.327,4.456,4.456,0,0,0,1.913,1.446,10.083,10.083,0,0,0,5.446.274V41.571A6.765,6.765,0,0,1,161.451,41.564Zm-9.6-15.652c-.363-.035-.682-.051-.962-.051a18.658,18.658,0,0,0-3.852.364,22.326,22.326,0,0,0-2.871.777V44.22h3.256V29.111c.187-.047.578-.132,1.173-.258a8.718,8.718,0,0,1,1.8-.191,10.854,10.854,0,0,1,3.571.518V26.236c-.292-.057-.7-.129-1.052-.187S152.214,25.946,151.851,25.911ZM136.994,40.053a4.87,4.87,0,0,1-7.53,0,7.659,7.659,0,0,1-1.384-4.824,7.66,7.66,0,0,1,1.384-4.824,4.87,4.87,0,0,1,7.53,0,7.656,7.656,0,0,1,1.384,4.824A7.663,7.663,0,0,1,136.994,40.053Zm2.382-11.669a7.756,7.756,0,0,0-2.713-1.919,9.066,9.066,0,0,0-6.863,0,7.787,7.787,0,0,0-2.714,1.919,8.8,8.8,0,0,0-1.767,2.99,12.157,12.157,0,0,0,0,7.729,8.85,8.85,0,0,0,1.767,2.974A7.754,7.754,0,0,0,129.8,44a9.071,9.071,0,0,0,6.863,0,7.813,7.813,0,0,0,2.713-1.918,8.831,8.831,0,0,0,1.767-2.974,12.166,12.166,0,0,0,0-7.729,8.794,8.794,0,0,0-1.767-2.99Z" transform="translate(-110.439 -18.27)"/><path class="b" d="M249.276,17.583a1.905,1.905,0,0,0-1.346.516,2.024,2.024,0,0,0,0,2.784,2.013,2.013,0,0,0,2.694,0,2.024,2.024,0,0,0,0-2.784A1.912,1.912,0,0,0,249.276,17.583Zm24.609,21.551a2.5,2.5,0,0,1-1.066-.8,3.316,3.316,0,0,1-.631-1.383,9.876,9.876,0,0,1-.211-2.231v-8.3H277.4v-2.7h-5.422V18.154l-3.256.553V34.75a14.952,14.952,0,0,0,.3,3.163,5.624,5.624,0,0,0,1.026,2.327,4.47,4.47,0,0,0,1.913,1.446,10.088,10.088,0,0,0,5.446.273V39.138A6.748,6.748,0,0,1,273.886,39.134Zm-8.777-5.642a7.257,7.257,0,0,0-1.732-1.09q-1.018-.465-2.31-.95-.98-.346-1.681-.657a5.747,5.747,0,0,1-1.173-.674,2.425,2.425,0,0,1-.7-.813,2.258,2.258,0,0,1-.227-1.037,1.776,1.776,0,0,1,1.016-1.677,5.037,5.037,0,0,1,2.381-.535,10.845,10.845,0,0,1,2.7.293,8.3,8.3,0,0,1,1.645.57l0-2.952s-.125-.039-.19-.056q-.51-.138-1.173-.259c-.444-.081-.923-.15-1.436-.208a13.984,13.984,0,0,0-1.541-.086,7.691,7.691,0,0,0-4.868,1.4,4.559,4.559,0,0,0-1.785,3.785A4.219,4.219,0,0,0,255.572,32a7.011,7.011,0,0,0,1.663,1.019q.963.433,2.013.848a14.914,14.914,0,0,1,3.115,1.557,2.195,2.195,0,0,1,.945,1.867,1.752,1.752,0,0,1-.962,1.66,6.46,6.46,0,0,1-2.96.536,10.393,10.393,0,0,1-3.257-.416c-.828-.281-1.394-.476-1.786-.623l0,2.983c.309.1.8.255,1.261.387a14.425,14.425,0,0,0,3.782.38,9.409,9.409,0,0,0,5.339-1.279,4.272,4.272,0,0,0,1.874-3.769,5.426,5.426,0,0,0-.383-2.16A4.249,4.249,0,0,0,265.108,33.491Zm-17.46,8.3H250.9V23.81h-3.256Zm-5.225-3.077a1.791,1.791,0,0,1-.455-.831,5.132,5.132,0,0,1-.14-1.314V15.529l-3.258.738v20.82a5.013,5.013,0,0,0,1.261,3.769c.84.807,2.475,1.306,4.727,1.333v-2.75a8.97,8.97,0,0,1-1.3-.259,1.986,1.986,0,0,1-.838-.467Z" transform="translate(-181.109 -15.529)"/></g><g transform="translate(83.895 36.587)"><path class="b" d="M237.427,115.932h1.424a.6.6,0,0,1,.386.12.74.74,0,0,1,.221.3l3.722,9.29a6.536,6.536,0,0,1,.234.68q.106.368.207.763.083-.395.179-.763a5.422,5.422,0,0,1,.225-.68l3.7-9.29a.768.768,0,0,1,.221-.29.574.574,0,0,1,.386-.134h1.433L244.4,129.1h-1.608Z" transform="translate(-237.427 -115.565)"/><path class="b" d="M268.615,124.211a4.16,4.16,0,0,1,1.544.28,3.464,3.464,0,0,1,1.222.809,3.683,3.683,0,0,1,.8,1.3,5.044,5.044,0,0,1,.29,1.769,1.063,1.063,0,0,1-.083.514.344.344,0,0,1-.312.129h-6.194a5.133,5.133,0,0,0,.239,1.535,3.138,3.138,0,0,0,.607,1.089,2.424,2.424,0,0,0,.919.652,3.155,3.155,0,0,0,1.195.216,3.5,3.5,0,0,0,1.062-.142,5.042,5.042,0,0,0,.767-.308,5.9,5.9,0,0,0,.538-.308.71.71,0,0,1,.372-.142.36.36,0,0,1,.313.157l.459.6a3.116,3.116,0,0,1-.726.639,4.5,4.5,0,0,1-.905.445,5.7,5.7,0,0,1-1,.262,6.079,6.079,0,0,1-1.02.087,4.733,4.733,0,0,1-1.778-.327,3.9,3.9,0,0,1-1.406-.956,4.388,4.388,0,0,1-.924-1.558,6.326,6.326,0,0,1-.331-2.132,5.427,5.427,0,0,1,.3-1.819,4.293,4.293,0,0,1,.859-1.466,3.955,3.955,0,0,1,1.369-.974A4.518,4.518,0,0,1,268.615,124.211Zm.036,1.2a2.512,2.512,0,0,0-1.865.684,3.22,3.22,0,0,0-.845,1.9H271a3.318,3.318,0,0,0-.156-1.043,2.329,2.329,0,0,0-.459-.818,2.057,2.057,0,0,0-.74-.533A2.507,2.507,0,0,0,268.651,125.415Z" transform="translate(-252.231 -120.131)"/><path class="b" d="M287.218,133.644v-9.309h.937a.517.517,0,0,1,.368.1.621.621,0,0,1,.138.349l.11,1.452a4.262,4.262,0,0,1,1.181-1.521,2.779,2.779,0,0,1,2.348-.46,2.445,2.445,0,0,1,.579.244l-.211,1.222a.277.277,0,0,1-.285.23,1.422,1.422,0,0,1-.4-.087,2.489,2.489,0,0,0-.744-.087,2.108,2.108,0,0,0-1.429.5,3.729,3.729,0,0,0-.96,1.443v5.927h-1.636Z" transform="translate(-264.889 -120.108)"/><path class="b" d="M305.739,116.576a1.035,1.035,0,0,1-.1.445,1.284,1.284,0,0,1-.257.368,1.2,1.2,0,0,1-.372.252,1.114,1.114,0,0,1-.45.091,1.082,1.082,0,0,1-.446-.091,1.221,1.221,0,0,1-.62-.62,1.081,1.081,0,0,1-.092-.445,1.151,1.151,0,0,1,.092-.455,1.177,1.177,0,0,1,.253-.377,1.2,1.2,0,0,1,.368-.252,1.08,1.08,0,0,1,.446-.092,1.115,1.115,0,0,1,.45.092,1.2,1.2,0,0,1,.372.252,1.249,1.249,0,0,1,.257.377A1.1,1.1,0,0,1,305.739,116.576Zm-.368,2.922v9.309h-1.636V119.5Z" transform="translate(-273.817 -115.271)"/><path class="b" d="M313.234,128.672V120.76l-1.029-.12a.815.815,0,0,1-.317-.142.334.334,0,0,1-.124-.28v-.67h1.47v-.514a4.439,4.439,0,0,1,.266-1.567,3.277,3.277,0,0,1,.8-1.227,3.65,3.65,0,0,1,1.328-.8,5.928,5.928,0,0,1,2.564-.238,3.093,3.093,0,0,1,.629.141l-.055.855a.167.167,0,0,1-.11.148.861.861,0,0,1-.266.031h-.459a3.448,3.448,0,0,0-2.366.674,2.608,2.608,0,0,0-.74,2.029v.468h5.624v9.125h-1.635v-7.94h-3.933v7.94h-1.645Z" transform="translate(-278.427 -115.136)"/><path class="b" d="M340.453,124.211a4.158,4.158,0,0,1,1.543.28,3.464,3.464,0,0,1,1.223.809,3.689,3.689,0,0,1,.8,1.3,5.034,5.034,0,0,1,.29,1.769,1.064,1.064,0,0,1-.083.514.343.343,0,0,1-.312.129h-6.194a5.149,5.149,0,0,0,.239,1.535,3.131,3.131,0,0,0,.607,1.089,2.423,2.423,0,0,0,.919.652,3.157,3.157,0,0,0,1.195.216,3.506,3.506,0,0,0,1.062-.142,5.031,5.031,0,0,0,.767-.308,5.835,5.835,0,0,0,.537-.308.71.71,0,0,1,.372-.142.359.359,0,0,1,.313.157l.459.6a3.11,3.11,0,0,1-.726.639,4.506,4.506,0,0,1-.906.445,5.687,5.687,0,0,1-1,.262,6.083,6.083,0,0,1-1.02.087,4.731,4.731,0,0,1-1.778-.327,3.9,3.9,0,0,1-1.406-.956,4.388,4.388,0,0,1-.924-1.558,6.331,6.331,0,0,1-.331-2.132,5.437,5.437,0,0,1,.3-1.819,4.292,4.292,0,0,1,.859-1.466,3.962,3.962,0,0,1,1.37-.974A4.522,4.522,0,0,1,340.453,124.211Zm.036,1.2a2.511,2.511,0,0,0-1.865.684,3.216,3.216,0,0,0-.845,1.9h5.063a3.3,3.3,0,0,0-.156-1.043,2.327,2.327,0,0,0-.459-.818,2.058,2.058,0,0,0-.74-.533A2.506,2.506,0,0,0,340.489,125.415Z" transform="translate(-291.852 -120.131)"/><path class="b" d="M364.772,128.649a.416.416,0,0,1-.441-.34l-.147-1.131a4.909,4.909,0,0,1-1.365,1.162,3.5,3.5,0,0,1-1.76.437,3.36,3.36,0,0,1-1.452-.308,3.011,3.011,0,0,1-1.112-.905,4.3,4.3,0,0,1-.708-1.488,7.658,7.658,0,0,1-.248-2.049,6.432,6.432,0,0,1,.275-1.916,4.678,4.678,0,0,1,.795-1.539,3.645,3.645,0,0,1,2.954-1.4,3.37,3.37,0,0,1,1.461.29,3.515,3.515,0,0,1,1.084.813v-5.164h1.635v13.536Zm-3.17-1.195a2.633,2.633,0,0,0,1.4-.367,4.041,4.041,0,0,0,1.107-1.038v-4.5a2.59,2.59,0,0,0-.988-.85,2.85,2.85,0,0,0-1.19-.243,2.356,2.356,0,0,0-2,.928,4.336,4.336,0,0,0-.7,2.646,6.71,6.71,0,0,0,.156,1.557,2.988,2.988,0,0,0,.459,1.066,1.8,1.8,0,0,0,.744.611A2.506,2.506,0,0,0,361.6,127.454Z" transform="translate(-303.674 -115.113)"/><path class="b" d="M399.429,129.1h-1.378a.591.591,0,0,1-.385-.12.728.728,0,0,1-.221-.3l-1.232-3.18H390.3l-1.231,3.18a.716.716,0,0,1-.221.294.588.588,0,0,1-.386.129h-1.378l5.265-13.168h1.81Zm-8.628-4.889h4.916l-2.068-5.357a10.061,10.061,0,0,1-.4-1.241q-.1.377-.2.694c-.065.212-.127.4-.189.556Z" transform="translate(-319.972 -115.565)"/><path class="b" d="M419.79,124.19a4.628,4.628,0,0,1,1.134.134,3.569,3.569,0,0,1,.961.39h2.527v.607q0,.3-.386.386l-1.057.147a3.024,3.024,0,0,1,.05,2.569,2.8,2.8,0,0,1-.726.951,3.262,3.262,0,0,1-1.1.607,4.426,4.426,0,0,1-1.4.212,4.689,4.689,0,0,1-1.231-.157,1.555,1.555,0,0,0-.446.409.752.752,0,0,0-.152.427.578.578,0,0,0,.266.518,1.849,1.849,0,0,0,.708.252,5.931,5.931,0,0,0,1,.076h1.145a6.366,6.366,0,0,1,1.144.1,3.461,3.461,0,0,1,1,.335,1.868,1.868,0,0,1,.708.642,1.913,1.913,0,0,1,.267,1.06,2.486,2.486,0,0,1-.3,1.172,3.169,3.169,0,0,1-.859,1.009,4.411,4.411,0,0,1-1.37.707,5.838,5.838,0,0,1-1.828.266,7.064,7.064,0,0,1-1.788-.2,4.193,4.193,0,0,1-1.273-.543,2.363,2.363,0,0,1-.758-.787,1.864,1.864,0,0,1-.253-.934,1.683,1.683,0,0,1,.437-1.172,2.987,2.987,0,0,1,1.2-.768,1.64,1.64,0,0,1-.629-.491,1.318,1.318,0,0,1-.235-.821,1.3,1.3,0,0,1,.073-.417,1.635,1.635,0,0,1,.225-.427,2.407,2.407,0,0,1,.887-.743,2.9,2.9,0,0,1-1.08-1.025,2.8,2.8,0,0,1-.391-1.493,2.867,2.867,0,0,1,.262-1.236,2.744,2.744,0,0,1,.731-.946,3.355,3.355,0,0,1,1.117-.6A4.534,4.534,0,0,1,419.79,124.19Zm2.9,9.937a.824.824,0,0,0-.193-.572,1.243,1.243,0,0,0-.524-.332,3.69,3.69,0,0,0-.762-.174,7.016,7.016,0,0,0-.91-.057h-.974a3.556,3.556,0,0,1-.946-.124,2.691,2.691,0,0,0-.85.607,1.228,1.228,0,0,0-.326.856,1.134,1.134,0,0,0,.16.585,1.377,1.377,0,0,0,.492.47,2.886,2.886,0,0,0,.831.313,5.971,5.971,0,0,0,2.367-.006,2.965,2.965,0,0,0,.887-.347,1.681,1.681,0,0,0,.556-.534A1.265,1.265,0,0,0,422.693,134.127Zm-2.9-5.021a2.574,2.574,0,0,0,.877-.138,1.782,1.782,0,0,0,.639-.386,1.581,1.581,0,0,0,.385-.593,2.151,2.151,0,0,0,.129-.758,1.811,1.811,0,0,0-.519-1.36,2.5,2.5,0,0,0-3.014,0,1.809,1.809,0,0,0-.519,1.36,2.073,2.073,0,0,0,.133.758,1.617,1.617,0,0,0,.391.593,1.783,1.783,0,0,0,.634.386A2.5,2.5,0,0,0,419.79,129.106Z" transform="translate(-335.794 -120.119)"/><path class="b" d="M441.551,124.211a4.161,4.161,0,0,1,1.544.28,3.471,3.471,0,0,1,1.222.809,3.7,3.7,0,0,1,.8,1.3,5.043,5.043,0,0,1,.289,1.769,1.066,1.066,0,0,1-.083.514.344.344,0,0,1-.312.129h-6.194a5.129,5.129,0,0,0,.239,1.535,3.136,3.136,0,0,0,.606,1.089,2.424,2.424,0,0,0,.919.652,3.157,3.157,0,0,0,1.195.216,3.5,3.5,0,0,0,1.062-.142,5.033,5.033,0,0,0,.767-.308,5.943,5.943,0,0,0,.538-.308.709.709,0,0,1,.372-.142.359.359,0,0,1,.312.157l.46.6a3.115,3.115,0,0,1-.726.639,4.5,4.5,0,0,1-.905.445,5.7,5.7,0,0,1-1,.262,6.074,6.074,0,0,1-1.019.087,4.732,4.732,0,0,1-1.778-.327,3.9,3.9,0,0,1-1.406-.956,4.392,4.392,0,0,1-.924-1.558,6.343,6.343,0,0,1-.331-2.132,5.426,5.426,0,0,1,.3-1.819,4.29,4.29,0,0,1,.859-1.466,3.952,3.952,0,0,1,1.369-.974A4.518,4.518,0,0,1,441.551,124.211Zm.037,1.2a2.513,2.513,0,0,0-1.866.684,3.223,3.223,0,0,0-.845,1.9h5.063a3.3,3.3,0,0,0-.156-1.043,2.327,2.327,0,0,0-.459-.818,2.058,2.058,0,0,0-.74-.533A2.5,2.5,0,0,0,441.588,125.415Z" transform="translate(-347.613 -120.131)"/><path class="b" d="M460.154,133.667v-9.309h.974a.417.417,0,0,1,.441.34l.129,1.011a5.226,5.226,0,0,1,1.355-1.084,3.528,3.528,0,0,1,1.732-.413,3.368,3.368,0,0,1,1.346.252,2.609,2.609,0,0,1,.974.717,3.164,3.164,0,0,1,.592,1.116,4.871,4.871,0,0,1,.2,1.443v5.927h-1.635v-5.927a2.507,2.507,0,0,0-.483-1.64,1.8,1.8,0,0,0-1.475-.583,2.751,2.751,0,0,0-1.355.349,4.46,4.46,0,0,0-1.162.946v6.855h-1.636Z" transform="translate(-360.27 -120.131)"/><path class="b" d="M488.475,126.013a.719.719,0,0,1-.147.156.347.347,0,0,1-.211.055.523.523,0,0,1-.3-.115,4.385,4.385,0,0,0-.409-.252,3.4,3.4,0,0,0-.6-.252,3.2,3.2,0,0,0-2.073.129,2.334,2.334,0,0,0-.878.7,3.194,3.194,0,0,0-.533,1.112,5.523,5.523,0,0,0-.179,1.461,5.356,5.356,0,0,0,.193,1.5,3.25,3.25,0,0,0,.542,1.1,2.316,2.316,0,0,0,.85.68,2.619,2.619,0,0,0,1.126.234,2.871,2.871,0,0,0,.983-.142,3.007,3.007,0,0,0,.644-.317,4.686,4.686,0,0,0,.423-.317.506.506,0,0,1,.33-.142.346.346,0,0,1,.313.156l.459.6a3.531,3.531,0,0,1-1.516,1.089,5.376,5.376,0,0,1-1.92.345,4.058,4.058,0,0,1-1.622-.322,3.7,3.7,0,0,1-1.3-.932,4.423,4.423,0,0,1-.869-1.5,6.043,6.043,0,0,1-.317-2.031,6.117,6.117,0,0,1,.29-1.92,4.362,4.362,0,0,1,.846-1.521,3.832,3.832,0,0,1,1.373-1,4.628,4.628,0,0,1,1.875-.359,4.43,4.43,0,0,1,1.728.317,4.156,4.156,0,0,1,1.332.9Z" transform="translate(-372.023 -120.131)"/><path class="b" d="M503.314,136.594a.864.864,0,0,1-.207.294.564.564,0,0,1-.382.11h-1.213l1.7-3.694-3.841-8.766h1.415a.485.485,0,0,1,.331.105.669.669,0,0,1,.175.234l2.49,5.863a4.2,4.2,0,0,1,.142.4q.06.2.105.413c.043-.14.086-.279.129-.413s.092-.272.147-.413l2.417-5.854a.529.529,0,0,1,.188-.244.481.481,0,0,1,.29-.1h1.3Z" transform="translate(-381.901 -120.311)"/></g><rect class="b" width="0.448" height="50.571" transform="translate(59.897 1.447)"/><g transform="translate(0 0.84)"><path class="b" d="M44.381,56.934a15.81,15.81,0,0,0-3.149-1.1,20.462,20.462,0,0,0-5.158-.567A9.57,9.57,0,0,0,31.52,56.3a3.422,3.422,0,0,0-1.942,3.234,4.379,4.379,0,0,0,.436,2A4.634,4.634,0,0,0,31.352,63.1,11.019,11.019,0,0,0,33.6,64.4q1.338.6,3.215,1.267,2.477.936,4.42,1.833a13.823,13.823,0,0,1,3.317,2.1,8.072,8.072,0,0,1,2.109,2.9,10.468,10.468,0,0,1,.738,4.167,8.255,8.255,0,0,1-3.583,7.267Q40.229,86.4,33.6,86.4a27.261,27.261,0,0,1-7.235-.734c-.87-.255-1.816-.551-2.407-.745l0-5.756c.75.284,1.832.659,3.416,1.2a19.774,19.774,0,0,0,6.23.8,12.22,12.22,0,0,0,5.66-1.035,3.377,3.377,0,0,0,1.841-3.2,4.245,4.245,0,0,0-1.809-3.6,28.692,28.692,0,0,0-5.961-3q-2.009-.8-3.851-1.634A13.441,13.441,0,0,1,26.3,66.734,8.589,8.589,0,0,1,24.156,64a8.7,8.7,0,0,1-.8-3.933,8.811,8.811,0,0,1,3.415-7.3q3.416-2.7,9.311-2.7a26.376,26.376,0,0,1,2.946.166q1.474.167,2.747.4t2.245.5c.137.038.363.1.363.1Z" transform="translate(-23.352 -34.97)"/><path class="b" d="M96.757,67.8c-4.308-.05-7.434-1.014-9.042-2.569S85.3,61.257,85.3,57.967V17.826L91.534,16.4V56.967A9.867,9.867,0,0,0,91.8,59.5a3.459,3.459,0,0,0,.869,1.6,3.744,3.744,0,0,0,1.608.9,16.663,16.663,0,0,0,2.478.5Z" transform="translate(-57.521 -16.402)"/></g></g></g></svg>