<svg xmlns="http://www.w3.org/2000/svg" xmlns:xlink="http://www.w3.org/1999/xlink" width="204" height="204" viewBox="0 0 204 204"><defs><linearGradient id="a" x1="0.501" y1="1.03" x2="0.5" gradientUnits="objectBoundingBox"><stop offset="0" stop-color="#571c56"></stop><stop offset="0.47" stop-color="#fc1141"></stop><stop offset="1" stop-color="#fcd000"></stop></linearGradient></defs><g transform="translate(2808 5836)"><circle cx="102" cy="102" r="102" transform="translate(-2808 -5836)" fill="#f1f4f8"></circle><g transform="translate(-2763.74 -5792)"><path d="M3048.711,5916.416a42.677,42.677,0,0,1,38.563-44.576q2.074-.195,4.182-.194a42.375,42.375,0,0,1,29.856,12.194v.009a42.676,42.676,0,0,1-25.676,72.957q-2.075.2-4.18.194h-.12A42.68,42.68,0,0,1,3048.711,5916.416Zm44.683,36.51c5.536-1.165,10.455-7.236,13.651-15.907a38.53,38.53,0,0,0-13.651-3.209Zm-17.531-15.907c3.2,8.677,8.115,14.743,13.651,15.907v-19.117A38.538,38.538,0,0,0,3075.864,5937.019Zm3.335,14.094.479.155a37.131,37.131,0,0,1-7.388-12.458,38.753,38.753,0,0,0-6.453,4.584c.241.211.474.432.716.637.411.344.825.68,1.248,1.006q.814.634,1.664,1.217c.437.3.872.6,1.32.882.578.365,1.167.707,1.764,1.042.459.255.918.516,1.384.752.612.311,1.236.592,1.863.87.475.209.946.421,1.432.616h0C3077.876,5950.67,3078.537,5950.89,3079.2,5951.112Zm24.031.148c.163-.051.326-.106.489-.16.658-.22,1.316-.437,1.958-.691.487-.191.964-.411,1.444-.624.621-.278,1.24-.552,1.846-.861.474-.241.936-.5,1.4-.763.582-.329,1.165-.668,1.746-1.028.453-.287.9-.591,1.34-.9.558-.388,1.1-.785,1.642-1.2q.643-.5,1.269-1.024v.006c.241-.2.469-.422.7-.634a38.652,38.652,0,0,0-6.452-4.584A37.106,37.106,0,0,1,3103.23,5951.26Zm8.655-16.2a42.494,42.494,0,0,1,7.939,5.648,38.337,38.337,0,0,0,10.333-24.442H3114.68A72.3,72.3,0,0,1,3111.885,5935.057Zm-48.8,5.648a42.579,42.579,0,0,1,7.938-5.643,72.418,72.418,0,0,1-2.8-18.8h-15.477A38.33,38.33,0,0,0,3063.085,5940.706Zm30.309-10.776v.006a42.468,42.468,0,0,1,14.874,3.37,68.475,68.475,0,0,0,2.536-17.042h-17.41Zm-18.752,3.376a42.452,42.452,0,0,1,14.872-3.37v-13.672h-17.408A68.465,68.465,0,0,0,3074.642,5933.305Zm37.242-39.723a72.361,72.361,0,0,1,2.8,18.8h15.477a38.317,38.317,0,0,0-10.333-24.442A42.518,42.518,0,0,1,3111.885,5893.582Zm-18.49,5.129v13.671h17.41a68.482,68.482,0,0,0-2.536-17.042A42.47,42.47,0,0,1,3093.394,5898.711Zm-21.288,13.671h17.408v-13.671a42.453,42.453,0,0,1-14.872-3.371A68.482,68.482,0,0,0,3072.106,5912.382Zm-19.355,0h15.477a72.436,72.436,0,0,1,2.8-18.794,42.541,42.541,0,0,1-7.938-5.648A38.338,38.338,0,0,0,3052.752,5912.382Zm40.642-17.546a38.556,38.556,0,0,0,13.651-3.2c-3.2-8.679-8.115-14.744-13.651-15.909Zm-17.531-3.209a38.569,38.569,0,0,0,13.651,3.209V5875.72C3083.979,5876.883,3079.061,5882.956,3075.864,5891.627Zm-10.024-6.368a38.669,38.669,0,0,0,6.451,4.584,37.11,37.11,0,0,1,7.39-12.458c-.164.051-.327.106-.49.16-.656.218-1.314.437-1.958.691-.486.191-.964.411-1.443.622-.62.279-1.239.553-1.846.862-.474.241-.937.5-1.4.763-.583.329-1.174.668-1.746,1.028-.454.287-.9.591-1.341.9-.556.386-1.1.784-1.641,1.2q-.644.5-1.269,1.024v-.006C3066.3,5884.836,3066.074,5885.045,3065.839,5885.259Zm44.781,4.576a38.65,38.65,0,0,0,6.452-4.583c-.241-.212-.474-.432-.716-.637q-.617-.519-1.247-1.006c-.544-.421-1.1-.828-1.663-1.217-.437-.3-.877-.6-1.323-.882-.579-.365-1.168-.708-1.763-1.042-.459-.255-.918-.516-1.386-.752-.612-.311-1.235-.592-1.863-.869-.474-.209-.947-.423-1.431-.617v.012c-.647-.266-1.31-.486-1.972-.708l-.478-.154A37.086,37.086,0,0,1,3110.62,5889.835Zm-50.693,63.407,1.42-3.61c1.156.462,2.343.87,3.524,1.238l-1.148,3.7C3062.447,5954.18,3061.173,5953.731,3059.927,5953.243Zm-7.242-3.5,1.944-3.358c1.067.619,2.18,1.205,3.3,1.748l-1.685,3.491C3055.036,5951.048,3053.837,5950.414,3052.685,5949.748Zm-6.647-4.526,2.415-3.035c.972.771,1.982,1.518,3.008,2.212l-2.183,3.21C3048.173,5946.856,3047.084,5946.055,3046.038,5945.222Zm-5.9-5.449,2.834-2.65c.851.912,1.742,1.8,2.648,2.632l-2.628,2.851C3042.011,5941.711,3041.052,5940.753,3040.134,5939.772Zm-5.044-6.261,3.2-2.2c.691,1.006,1.441,2.021,2.229,2.99l-3.019,2.433C3036.643,5935.682,3035.839,5934.6,3035.09,5933.511Zm-4.063-6.929,3.482-1.712c.555,1.127,1.148,2.233,1.77,3.289l-3.347,1.966C3032.261,5928.986,3031.621,5927.794,3031.026,5926.582Zm-2.993-7.471,3.7-1.163c.365,1.173.8,2.354,1.259,3.5l-3.6,1.444C3028.89,5921.65,3028.434,5920.376,3028.033,5919.111Zm-1.851-7.813,3.83-.611c.193,1.217.437,2.45.722,3.666l-3.776.891C3026.652,5913.934,3026.39,5912.608,3026.182,5911.3Zm-.683-8.01,3.88-.038c.018,1.23.076,2.486.178,3.727l-3.863.326C3025.577,5905.967,3025.512,5904.617,3025.5,5903.288Zm.1-4.019c.09-1.325.215-2.67.4-4l3.845.521c-.175,1.238-.292,2.489-.369,3.721Zm1.088-7.964c.26-1.215.568-2.447.918-3.66l3.729,1.07q-.484,1.677-.851,3.4Zm99.854-7.613,3.6-1.459c.508,1.257.969,2.522,1.372,3.778l-3.685,1.188C3127.457,5886.034,3127.026,5884.854,3126.546,5883.692Zm-89.407,2.667a3.869,3.869,0,0,1-2.743-1.135l-15.088-15.088a1.939,1.939,0,0,1,0-2.743l4.113-4.115a1.94,1.94,0,0,1,2.5-.208l8.275,5.9,6.767-6.768-14.493-9.661a1.939,1.939,0,0,1-.3-2.986l4.352-4.348a1.94,1.94,0,0,1,2.009-.463l19.192,6.693,8.74-8.741a5.83,5.83,0,0,1,8.231,0l4.115,4.117a3.879,3.879,0,0,1,0,5.485l-32.922,32.922a3.866,3.866,0,0,1-2.736,1.135Zm-13.718-17.6,13.718,13.717,32.921-32.922-4.115-4.113a1.939,1.939,0,0,0-2.745,0l-27.434,27.432a1.939,1.939,0,0,1-2.5.208l-8.266-5.9Zm7.16-18.133,13.168,8.777,4.92-4.92-16.269-5.675Zm92.659,26.378,3.337-1.977c.677,1.14,1.323,2.328,1.921,3.531l-3.473,1.729C3124.47,5879.173,3123.867,5878.07,3123.239,5877.01Zm-4.27-6.126,3.011-2.449c.84,1.034,1.655,2.115,2.419,3.211l-3.181,2.225C3120.508,5872.852,3119.751,5871.84,3118.969,5870.883Zm-5.125-5.427,2.619-2.864c.991.908,1.954,1.854,2.865,2.823l-2.823,2.663C3115.663,5867.18,3114.769,5866.3,3113.844,5865.456Zm-5.864-4.62,2.167-3.215c1.117.749,2.207,1.549,3.251,2.373l-2.407,3.043C3110.026,5862.273,3109.014,5861.535,3107.981,5860.836Zm-6.482-3.7,1.672-3.5c1.2.571,2.4,1.2,3.563,1.865l-1.924,3.371C3103.723,5858.244,3102.613,5857.663,3101.5,5857.133Zm-6.958-2.7,1.133-3.711c1.278.39,2.552.833,3.8,1.317l-1.4,3.616C3096.912,5855.205,3095.725,5854.792,3094.541,5854.429Zm-34.083-3.5,2.745-2.742,2.742,2.745-2.745,2.742Zm26.806,1.855.568-3.838c1.323.194,2.654.448,3.956.742l-.854,3.779C3089.727,5853.2,3088.493,5852.968,3087.263,5852.786Zm-7.447-.539v-3.881c1.34,0,2.691.049,4.014.145l-.282,3.871C3082.317,5852.291,3081.063,5852.248,3079.816,5852.248Z" transform="translate(-3018.693 -5841)" fill="url(#a)"></path></g></g></svg>