<svg xmlns="http://www.w3.org/2000/svg" xmlns:xlink="http://www.w3.org/1999/xlink" width="204" height="204" viewBox="0 0 204 204"><defs><style>.a{fill:#f1f4f8;}.b{opacity:0;}.b,.c{fill:url(#a);}</style><linearGradient id="a" x1="0.5" x2="0.5" y2="1" gradientUnits="objectBoundingBox"><stop offset="0" stop-color="#571c56"></stop><stop offset="0.47" stop-color="#e5153f"></stop><stop offset="1" stop-color="#fcd000"></stop></linearGradient></defs><circle class="a" cx="102" cy="102" r="102"></circle><g transform="translate(44 44)"><rect class="b" width="116" height="116" transform="translate(0 0.466)"></rect><path class="c" d="M10.717,116a1.268,1.268,0,1,1,1.269-1.268A1.268,1.268,0,0,1,10.717,116Zm5.692,0a1.268,1.268,0,1,1,0-2.535h2.747l2.009-8.809-1.172-4.406-1.366.921a1.279,1.279,0,0,1-1.836-.472l-3.063-5.968a29.083,29.083,0,0,0-6.745,2.858C4,99.463,2.588,101.769,2.535,104.846v8.618h2.49a1.268,1.268,0,1,1,0,2.535H1.267A1.267,1.267,0,0,1,0,114.732v-9.917c.144-8.82,9.163-11.426,15.747-13.329.769-.222,1.508-.436,2.2-.649V87.2a12.9,12.9,0,0,1-5.78-8.276H11.12a4.6,4.6,0,0,1-4.591-4.595v-1.34A4.557,4.557,0,0,1,6.9,71.168c0-.017,0-.033,0-.05V68.958a17.859,17.859,0,1,1,35.717,0v2.223a4.571,4.571,0,0,1,.37,1.8v1.341a4.572,4.572,0,0,1-.37,1.805v4.31A3.564,3.564,0,0,1,39.059,84H35.048a12.969,12.969,0,0,1-3.477,3.2v3.639c.692.213,1.431.427,2.2.649,6.584,1.9,15.6,4.509,15.747,13.329v9.917A1.268,1.268,0,0,1,48.251,116Zm11.945-11.345,2.011,8.809H46.983v-8.618c-.053-3.077-1.467-5.385-4.448-7.259a29.036,29.036,0,0,0-6.744-2.857L32.732,100.7a1.28,1.28,0,0,1-1.837.472l-1.369-.922Zm-6.6,8.809h6.008L26.037,105.9H23.481Zm.46-14.717,1.228,4.616h2.628L27.3,98.746,24.76,97.032Zm4.81-3.244,4.1,2.766,2.191-4.274-.252-.073c-.9-.26-1.758-.508-2.565-.762ZM16.451,93.921l-.252.073,2.194,4.274,4.1-2.765-3.476-2.344C18.209,93.413,17.351,93.661,16.451,93.921Zm4.031-2.831,4.278,2.884,4.275-2.884V88.422a12.84,12.84,0,0,1-8.553,0Zm-6.051-14.8a10.446,10.446,0,0,0,.076,1.229s0,0,0,0A10.317,10.317,0,0,0,31.62,84H24.759a1.267,1.267,0,1,1,0-2.534h8.932a10.264,10.264,0,0,0,1.4-5.175V72.181c-.509-.31-.982-.61-1.414-.886-2.488-1.584-3.866-2.462-6.261-1.793-.716.269-1.375.523-2.011.768-4.044,1.557-6.631,2.552-10.968,2.446Zm22.1,5.174h2.525a1.026,1.026,0,0,0,1.025-1.024V78.6a4.564,4.564,0,0,1-1.686.322H37.351A12.75,12.75,0,0,1,36.534,81.466Zm1.086-5.08H38.4a2.06,2.06,0,0,0,2.056-2.059V72.986A2.058,2.058,0,0,0,38.4,70.93h-.777S37.621,76.354,37.62,76.386Zm-28.556-3.4v1.34a2.059,2.059,0,0,0,2.056,2.059H11.9c0-.032,0-5.456,0-5.456H11.12A2.058,2.058,0,0,0,9.064,72.986Zm5.368-3.821v1.015c3.86.109,6.048-.733,10.057-2.277.656-.253,1.335-.514,2.081-.794.031-.013.064-.022.1-.032,3.52-1.007,5.766.423,8.367,2.079l.051.033v-.024a10.327,10.327,0,1,0-20.654,0ZM37.6,68.395h.8a4.562,4.562,0,0,1,1.682.32,15.322,15.322,0,0,0-30.641,0,4.57,4.57,0,0,1,1.679-.32h.8a12.862,12.862,0,0,1,25.677,0ZM35.589,109.66a1.267,1.267,0,1,1,0-2.534h6.388a1.267,1.267,0,1,1,0,2.534ZM52.8,83.7a1.635,1.635,0,0,1-1.634-1.635V67.987A5.092,5.092,0,0,1,56.255,62.9h.711L50.244,48.668a1.633,1.633,0,0,1,.211-1.729l1.48-1.821A62.746,62.746,0,0,0,65,16.553a1.635,1.635,0,0,1,3.22,0A62.738,62.738,0,0,0,81.284,45.119l1.48,1.821a1.636,1.636,0,0,1,.21,1.729L76.253,62.9h.711a5.092,5.092,0,0,1,5.086,5.087V82.064A1.635,1.635,0,0,1,80.415,83.7Zm1.635-3.27H78.781V67.988a1.82,1.82,0,0,0-1.817-1.818H56.255a1.819,1.819,0,0,0-1.816,1.818v3.677h11.19a1.635,1.635,0,1,1,0,3.27H54.438Zm.032-33.248L53.64,48.2l6.941,14.7H72.637l6.941-14.7-.831-1.021a66,66,0,0,1-10.5-18.276V43.494a1.664,1.664,0,0,1-.013.2,5.776,5.776,0,1,1-3.242,0,1.664,1.664,0,0,1-.013-.2V28.905A66,66,0,0,1,54.471,47.182ZM64.1,49.24a2.507,2.507,0,1,0,2.507-2.507A2.509,2.509,0,0,0,64.1,49.24Zm7.726,25.216a1.635,1.635,0,1,1,1.156.479A1.649,1.649,0,0,1,71.828,74.456Zm28.465-32.607v-.077a1.634,1.634,0,0,1,1.629-1.639h.005a1.634,1.634,0,0,1,1.634,1.63v.086a1.634,1.634,0,1,1-3.269,0Zm-70.678,0A37.007,37.007,0,0,1,51.35,8.135H37.75v3.23A1.635,1.635,0,0,1,36.115,13H26.394a1.635,1.635,0,0,1-1.635-1.634V1.634A1.635,1.635,0,0,1,26.394,0h9.721A1.635,1.635,0,0,1,37.75,1.634V4.865H60.113V1.634A1.635,1.635,0,0,1,61.748,0h9.721A1.635,1.635,0,0,1,73.1,1.634V4.865H95.467V1.634A1.635,1.635,0,0,1,97.1,0h9.721a1.635,1.635,0,0,1,1.635,1.634v9.732A1.635,1.635,0,0,1,106.823,13H97.1a1.635,1.635,0,0,1-1.635-1.634V8.135H81.858a37.1,37.1,0,0,1,21.083,26.93,1.634,1.634,0,0,1-1.31,1.905,1.694,1.694,0,0,1-.3.027,1.635,1.635,0,0,1-1.606-1.336A33.654,33.654,0,0,0,73.1,8.75v2.615A1.635,1.635,0,0,1,71.469,13H61.748a1.635,1.635,0,0,1-1.635-1.634V8.742A33.9,33.9,0,0,0,32.885,41.849a1.635,1.635,0,1,1-3.27,0ZM98.736,9.731h6.452V3.27H98.736Zm-35.354,0h6.452V3.27H63.382Zm-35.354,0h6.452V3.27H28.029Z" transform="translate(4 0.466)"></path></g></svg>