<svg xmlns="http://www.w3.org/2000/svg" xmlns:xlink="http://www.w3.org/1999/xlink" width="204" height="204" viewBox="0 0 204 204"><defs><style>.a{fill:#f1f4f8;}.b{opacity:0;}.b,.c{fill:url(#a);}</style><linearGradient id="a" x1="0.5" x2="0.5" y2="1" gradientUnits="objectBoundingBox"><stop offset="0" stop-color="#571c56"></stop><stop offset="0.47" stop-color="#e5153f"></stop><stop offset="1" stop-color="#fcd000"></stop></linearGradient></defs><g transform="translate(-2881 546)"><circle class="a" cx="102" cy="102" r="102" transform="translate(2881 -546)"></circle><g transform="translate(-77 238)"><rect class="b" width="116" height="116" transform="translate(3002 -740)"></rect><path class="c" d="M21.242,115.828a1.931,1.931,0,0,1-1.931-1.931v-2.443L6.641,103.39A16.352,16.352,0,0,1,.007,89.762L.034,54.538a8.214,8.214,0,0,1,16.3-1.419l4.555,25.811a7.376,7.376,0,0,1,5.226,1.29l15.538,10.93a1.931,1.931,0,0,1,.821,1.578V113.9a1.931,1.931,0,0,1-1.931,1.931ZM3.9,54.542,3.869,89.764a12.452,12.452,0,0,0,4.887,10.394l13.523,8.608a1.935,1.935,0,0,1,.894,1.628v1.572H38.615V93.731L23.9,83.378a3.547,3.547,0,0,0-4.169,5.738L30.121,96.91,27.806,100,17.412,92.2a7.6,7.6,0,0,1-.791-.689,7.407,7.407,0,0,1,0-10.475,7.646,7.646,0,0,1,.623-.559l-4.71-26.691a4.352,4.352,0,0,0-8.638.753Zm71.4,61.283a1.931,1.931,0,0,1-1.931-1.931V92.725a1.926,1.926,0,0,1,.821-1.578L89.721,80.219a7.37,7.37,0,0,1,5.229-1.29L99.5,53.116a8.215,8.215,0,0,1,16.3,1.421l.027,35.222a16.338,16.338,0,0,1-6.6,13.6L96.53,111.452v2.443a1.931,1.931,0,0,1-1.931,1.931Zm16.648-32.45L77.226,93.728v18.235H92.669v-1.572a1.93,1.93,0,0,1,.894-1.628l13.562-8.636a12.441,12.441,0,0,0,4.849-10.369l-.027-35.22a4.353,4.353,0,0,0-8.64-.753L98.6,80.478a7.677,7.677,0,0,1,.625.559A7.416,7.416,0,0,1,98.427,92.2L88.036,100l-2.318-3.088L96.11,89.114a3.546,3.546,0,0,0-4.167-5.738Zm-34.023-2.3a40.9,40.9,0,0,1-7.86-.762l.744-3.789a36.833,36.833,0,0,0,7.116.689l.041,3.862Zm7.194-4.567a36.472,36.472,0,0,0,6.873-2.088l1.481,3.564a40.319,40.319,0,0,1-7.6,2.311ZM35.445,74.283l2.142-3.211a36.632,36.632,0,0,0,6.341,3.382l-1.476,3.568A40.7,40.7,0,0,1,35.445,74.283Zm42.871-3.257a36.982,36.982,0,0,0,5.554-4.567L86.6,69.189a40.885,40.885,0,0,1-6.134,5.044Zm-20.4.53a12.666,12.666,0,0,1-6.523,1.8A12.886,12.886,0,0,1,38.72,61.615c-6.075-1.073-9.757-7.428-9.757-13.355a13.762,13.762,0,0,1,2.365-7.721,13.769,13.769,0,0,1-2.365-7.724,13.411,13.411,0,0,1,9.386-12.945A13.288,13.288,0,0,1,51.4,7.721a12.688,12.688,0,0,1,6.523,1.8,12.7,12.7,0,0,1,6.525-1.8,12.884,12.884,0,0,1,12.675,11.74c6.077,1.073,9.759,7.43,9.759,13.355a13.764,13.764,0,0,1-2.365,7.724,13.762,13.762,0,0,1,2.365,7.721,13.407,13.407,0,0,1-9.386,12.945A13.288,13.288,0,0,1,64.444,73.355,12.68,12.68,0,0,1,57.92,71.556ZM59.85,46.33V68.181A8.859,8.859,0,0,0,64.444,69.5,9.468,9.468,0,0,0,73.7,59.844a2.113,2.113,0,0,1,1.592-2.074,9.5,9.5,0,0,0,7.728-9.509A9.874,9.874,0,0,0,80.624,41.8a1.925,1.925,0,0,1,0-2.527,9.865,9.865,0,0,0,2.393-6.459c0-4.66-3.1-9.652-7.721-9.652a3.862,3.862,0,0,0,0,7.724v3.859a7.7,7.7,0,0,1-2.076-15.124,9.026,9.026,0,0,0-8.774-8.04A8.857,8.857,0,0,0,59.85,12.9V39.682a7.623,7.623,0,0,1,3.862-1.073,7.73,7.73,0,0,1,7.721,7.721H67.574a3.862,3.862,0,0,0-7.724,0Zm-19.284,0a7.7,7.7,0,0,1,2.056,15.124A9.03,9.03,0,0,0,51.4,69.5a8.865,8.865,0,0,0,4.594-1.315V31.742a7.623,7.623,0,0,1-3.862,1.073,7.729,7.729,0,0,1-7.721-7.721h3.859a3.862,3.862,0,1,0,7.724,0V12.9A8.842,8.842,0,0,0,51.4,11.583a9.468,9.468,0,0,0-9.252,9.652,2.115,2.115,0,0,1-1.592,2.074,9.5,9.5,0,0,0-7.728,9.507,9.865,9.865,0,0,0,2.393,6.459,1.925,1.925,0,0,1,0,2.527,9.869,9.869,0,0,0-2.393,6.459c0,4.66,3.1,9.652,7.721,9.652a3.861,3.861,0,1,0,0-7.721V46.33ZM24.249,63.121l3.2-2.154a37.016,37.016,0,0,0,4.574,5.549L29.3,69.25A40.657,40.657,0,0,1,24.249,63.121Zm64.181-2.215a36.708,36.708,0,0,0,3.391-6.336l3.566,1.478a40.711,40.711,0,0,1-3.746,7ZM18.167,48.524l3.787-.757a36.419,36.419,0,0,0,2.095,6.871l-3.564,1.487A40.339,40.339,0,0,1,18.167,48.524ZM93.9,47.692a37.016,37.016,0,0,0,.7-7.153l3.862-.164v.164a40.756,40.756,0,0,1-.771,7.9ZM17.38,40.537a41.01,41.01,0,0,1,.753-7.817l3.789.739a36.968,36.968,0,0,0-.68,7.078l-3.862.082ZM91.761,26.368l3.562-1.494a40.487,40.487,0,0,1,2.333,7.594l-3.784.766A36.371,36.371,0,0,0,91.761,26.368ZM20.419,25.111A40.624,40.624,0,0,1,24.151,18.1l3.216,2.14a36.477,36.477,0,0,0-3.377,6.343ZM83.76,14.505l2.72-2.738a40.778,40.778,0,0,1,5.065,6.118l-3.2,2.161A36.88,36.88,0,0,0,83.76,14.505ZM29.179,11.949A40.884,40.884,0,0,1,35.3,6.891l2.158,3.2a36.878,36.878,0,0,0-5.542,4.578ZM71.841,6.6l1.467-3.571A40.4,40.4,0,0,1,80.324,6.75L78.188,9.966A36.722,36.722,0,0,0,71.841,6.6ZM42.3,3.123A40.321,40.321,0,0,1,49.891.8l.762,3.787a36.252,36.252,0,0,0-6.868,2.1Zm15.624.739L57.8,0h.121A40.953,40.953,0,0,1,65.7.746l-.737,3.789A37.136,37.136,0,0,0,57.92,3.862Z" transform="translate(3002 -739.996)"></path></g></g></svg>