<svg xmlns="http://www.w3.org/2000/svg" xmlns:xlink="http://www.w3.org/1999/xlink" width="204" height="204" viewBox="0 0 204 204"><defs><style>.a{fill:#f1f4f8;}.b{fill:#fff;opacity:0;}.c{fill:url(#a);}</style><linearGradient id="a" x1="0.5" x2="0.5" y2="1" gradientUnits="objectBoundingBox"><stop offset="0" stop-color="#571c56"></stop><stop offset="0.47" stop-color="#e5153f"></stop><stop offset="1" stop-color="#fcd000"></stop></linearGradient></defs><g transform="translate(-175 -584)"><circle class="a" cx="102" cy="102" r="102" transform="translate(175 584)"></circle><g transform="translate(0 0)"><rect class="b" width="116" height="116" transform="translate(219 628)"></rect><g transform="translate(218.978 628.017)"><path class="c" d="M-113.869-513.939l-10.537-9.437a22.036,22.036,0,0,1-10.507,2.648,22.114,22.114,0,0,1-16.911-7.87H-159.2v6.147a2.835,2.835,0,0,1-2.832,2.832h-54.112a2.836,2.836,0,0,1-2.832-2.832v-84.776a2.836,2.836,0,0,1,2.832-2.832h6.113v-6.146a2.835,2.835,0,0,1,2.832-2.832h6.112v-6.147a2.836,2.836,0,0,1,2.832-2.832h63.188a2.836,2.836,0,0,1,2.832,2.832v60.139a22.245,22.245,0,0,1,18.217,14.6,1.7,1.7,0,0,1-1.031,2.171,1.7,1.7,0,0,1-2.171-1.032,18.826,18.826,0,0,0-17.692-12.508,18.893,18.893,0,0,0-18.779,18.842,18.833,18.833,0,0,0,18.779,18.842,18.8,18.8,0,0,0,18.767-18.156,1.7,1.7,0,0,1,1.759-1.638,1.7,1.7,0,0,1,1.638,1.76,22.192,22.192,0,0,1-2.721,9.9l10.457,9.305c.022.02.043.039.064.059a6.423,6.423,0,0,1,.159,9.1,6.23,6.23,0,0,1-4.406,1.793A6.649,6.649,0,0,1-113.869-513.939Zm-7.582-11.354,9.884,8.852a3.085,3.085,0,0,0,4.386.226,3.009,3.009,0,0,0-.126-4.235l-10.04-8.935A22.53,22.53,0,0,1-121.451-525.293Zm-94.127,2.275H-162.6v-5.58h-44.6a2.835,2.835,0,0,1-2.832-2.832v-23.8a1.7,1.7,0,0,1,1.7-1.7,1.7,1.7,0,0,1,1.7,1.7V-532H-154.2a22.12,22.12,0,0,1-2.233-5.58H-199.39a1.7,1.7,0,0,1-1.7-1.7V-615.64h-5.546v53.23a1.7,1.7,0,0,1-1.7,1.7,1.7,1.7,0,0,1-1.7-1.7V-606.66h-5.546Zm38.725-26.821a12.248,12.248,0,0,1-3.79,8.864H-157c-.059-.658-.09-1.323-.09-2a22.246,22.246,0,0,1,1.253-7.387q.285-.809.626-1.585h-5.031a1.7,1.7,0,0,1-1.7-1.7,1.7,1.7,0,0,1,1.7-1.7h6.9a22.209,22.209,0,0,1,17.709-9.855v-59.422H-197.69v83.643h8.614a8.854,8.854,0,0,0,8.824-8.864v-3.8a1.7,1.7,0,0,1,1.7-1.7h10.943a1.7,1.7,0,0,1,1.7,1.7,1.7,1.7,0,0,1-1.7,1.7h-9.244Zm27.454,6.869A14.571,14.571,0,0,1-134.914-557.5a14.522,14.522,0,0,1,14.486,14.525,14.522,14.522,0,0,1-14.486,14.525A14.522,14.522,0,0,1-149.4-542.97Zm3.4,0a11.118,11.118,0,0,0,11.086,11.126,11.119,11.119,0,0,0,11.087-11.126A11.119,11.119,0,0,0-134.914-554.1h-.146A11.158,11.158,0,0,0-146-542.97Zm-46.023-20.592a1.7,1.7,0,0,1-1.7-1.7,1.7,1.7,0,0,1,1.7-1.7h34.861a1.7,1.7,0,0,1,1.7,1.7,1.7,1.7,0,0,1-1.7,1.7Zm34.937-9.507a1.7,1.7,0,0,1-1.7-1.7,1.7,1.7,0,0,1,1.7-1.7H-141.2a1.7,1.7,0,0,1,1.7,1.7,1.7,1.7,0,0,1-1.7,1.7Zm-34.937,0a1.7,1.7,0,0,1-1.7-1.7,1.7,1.7,0,0,1,1.7-1.7h27.571a1.7,1.7,0,0,1,1.7,1.7,1.7,1.7,0,0,1-1.7,1.7Zm13.68-9.3a1.7,1.7,0,0,1-1.7-1.7,1.7,1.7,0,0,1,1.7-1.7h23.361a1.7,1.7,0,0,1,1.7,1.7,1.7,1.7,0,0,1-1.7,1.7Zm17.97-11.62a2.835,2.835,0,0,1-2.832-2.832v-5.576a1.7,1.7,0,0,1,1.7-1.7,1.7,1.7,0,0,1,1.7,1.7v5.01H-143v-16.883h-16.806v3.7a1.7,1.7,0,0,1-1.7,1.7,1.7,1.7,0,0,1-1.7-1.7v-4.262a2.835,2.835,0,0,1,2.832-2.832h17.938a2.835,2.835,0,0,1,2.833,2.832v18.015a2.836,2.836,0,0,1-2.833,2.832Zm-31.65-2.747a1.7,1.7,0,0,1-1.7-1.7,1.7,1.7,0,0,1,1.7-1.7h23.151a1.7,1.7,0,0,1,1.7,1.7,1.7,1.7,0,0,1-1.7,1.7Zm0-7.393a1.7,1.7,0,0,1-1.7-1.7,1.7,1.7,0,0,1,1.7-1.7h23.151a1.7,1.7,0,0,1,1.7,1.7,1.7,1.7,0,0,1-1.7,1.7Zm0-7.394a1.7,1.7,0,0,1-1.7-1.7,1.7,1.7,0,0,1,1.7-1.7h23.151a1.7,1.7,0,0,1,1.7,1.7,1.7,1.7,0,0,1-1.7,1.7Z" transform="translate(219 628.017)"></path></g></g></g></svg>