<svg xmlns="http://www.w3.org/2000/svg" xmlns:xlink="http://www.w3.org/1999/xlink" width="204" height="204" viewBox="0 0 204 204"><defs><style>.a{fill:#f1f4f8;}.b{opacity:0;}.b,.c{fill:url(#a);}</style><linearGradient id="a" x1="0.5" x2="0.5" y2="1" gradientUnits="objectBoundingBox"><stop offset="0" stop-color="#571c56"></stop><stop offset="0.47" stop-color="#e5153f"></stop><stop offset="1" stop-color="#fcd000"></stop></linearGradient></defs><g transform="translate(-3192 546)"><circle class="a" cx="102" cy="102" r="102" transform="translate(3192 -546)"></circle><g transform="translate(-112 238)"><rect class="b" width="116" height="116" transform="translate(3348 -740)"></rect><path class="c" d="M18.637,95.048a1.864,1.864,0,1,1,0-3.727H35.411V87.593a1.863,1.863,0,0,1,1.864-1.864h6.111l2.484-7.455H7.455A7.465,7.465,0,0,1,0,70.82V7.455A7.465,7.465,0,0,1,7.455,0H108.094a7.465,7.465,0,0,1,7.455,7.455V70.82a7.465,7.465,0,0,1-7.455,7.455H69.677l2.486,7.455h6.111a1.864,1.864,0,0,1,1.864,1.864V91.32h20.5a1.864,1.864,0,1,1,0,3.727Zm20.5-3.727H76.411V89.457H39.138Zm8.177-5.591H68.234l-2.486-7.455H49.8ZM3.727,70.82a3.731,3.731,0,0,0,3.727,3.727H108.094a3.732,3.732,0,0,0,3.727-3.727V67.092H3.727ZM87.4,30.849l5.591,11.182a1.878,1.878,0,0,1,.2.835V63.133a1.825,1.825,0,0,1-.016.232h18.653V7.455a3.732,3.732,0,0,0-3.727-3.727H7.455A3.731,3.731,0,0,0,3.727,7.455v55.91H25L24.23,44.8c0-.042,0-.083,0-.127V44.62a1.576,1.576,0,0,1,.024-.194V44.42l1.723-10.346a9.978,9.978,0,0,1-3.612-7.982c0-4.79,5.552-10.094,6.184-10.685a1.868,1.868,0,0,1,2.54,0c.634.591,6.186,5.895,6.186,10.685a9.973,9.973,0,0,1-3.614,7.982L35.385,44.42v.006c.01.063.018.129.022.194v.057c0,.044,0,.085,0,.127l-.773,18.56h4.521a1.823,1.823,0,0,1-.016-.232V27.956a1.876,1.876,0,0,1,.194-.835l5.591-11.182a1.867,1.867,0,0,1,3.337,0l5.591,11.182a1.9,1.9,0,0,1,.194.835V63.133a1.824,1.824,0,0,1-.016.232h1.88V16.774a1.864,1.864,0,0,1,1.864-1.864H74.547a1.864,1.864,0,0,1,1.864,1.864V63.365h1.88a1.825,1.825,0,0,1-.016-.232V42.866a1.878,1.878,0,0,1,.2-.835l5.591-11.182a1.865,1.865,0,0,1,3.335,0ZM82,63.133a1.823,1.823,0,0,1-.016.232h7.487a1.826,1.826,0,0,1-.016-.232V48.455H82Zm-22.365.232H72.683V55.91H67.092a1.864,1.864,0,0,1,0-3.727h5.591V48.455H70.82a1.863,1.863,0,1,1,0-3.725h1.864V41H67.092a1.864,1.864,0,0,1,0-3.727h5.591V33.547H70.82a1.864,1.864,0,0,1,0-3.727h1.864V26.092H67.092a1.864,1.864,0,1,1,0-3.727h5.591V18.637H59.637Zm-16.772-.232a2.282,2.282,0,0,1-.018.232h7.489a2.282,2.282,0,0,1-.018-.232V33.547H42.866Zm-14.133.232H30.9l.7-16.774H28.035ZM82,43.306v1.424h7.455V43.306l-3.727-7.455Zm-53.711-.44h3.055L30.1,35.411h-.569Zm-2.2-16.774c0,3.03,1.707,5.591,3.727,5.591s3.727-2.562,3.727-5.591c0-2.05-2.137-4.881-3.733-6.652C28.043,21.4,26.092,24.179,26.092,26.092Zm16.774,2.3V29.82h7.453V28.4l-.218-.44H43.084Zm2.082-4.168h3.289l-1.646-3.287ZM26.092,72.683a1.864,1.864,0,1,1,0-3.727h1.864a1.864,1.864,0,1,1,0,3.727Zm-16.774,0a1.864,1.864,0,1,1,0-3.727H20.5a1.864,1.864,0,1,1,0,3.727ZM98.775,59.637a1.864,1.864,0,1,1,0-3.727h7.455a1.864,1.864,0,1,1,0,3.727Zm-14.91-1.864V52.182a1.864,1.864,0,1,1,3.727,0v5.591a1.864,1.864,0,0,1-3.727,0Zm-39.138,0v-20.5a1.864,1.864,0,0,1,3.727,0v20.5a1.864,1.864,0,0,1-3.727,0Zm59.639-3.727a1.864,1.864,0,1,1,0-3.727h1.864a1.864,1.864,0,1,1,0,3.727ZM9.319,16.774a1.864,1.864,0,0,1,0-3.727h3.727a1.864,1.864,0,1,1,0,3.727Zm0-5.591a1.864,1.864,0,0,1,0-3.727h14.91a1.864,1.864,0,0,1,0,3.727Z" transform="translate(3348.451 -729.951)"></path></g></g></svg>