<?xml version="1.0" encoding="UTF-8"?>
<svg xmlns="http://www.w3.org/2000/svg" xmlns:xlink="http://www.w3.org/1999/xlink" width="131" height="115" viewBox="0 0 131 115">
  <defs>
    <clipPath id="clip-path">
      <rect id="Rectangle_1681" data-name="Rectangle 1681" width="130" height="21.464" fill="none"></rect>
    </clipPath>
  </defs>
  <g id="Wheel_bees" data-name="Wheel bees" transform="translate(-8117 -1455)">
    <rect id="Rectangle_3897" data-name="Rectangle 3897" width="131" height="115" transform="translate(8117 1455)" fill="#fff" opacity="0"></rect>
    <g id="Wheelbees_logo" data-name="Wheelbees logo" transform="translate(8072 1141)">
      <g id="Group_13695" data-name="Group 13695" transform="translate(46 361)">
        <g id="Component_1_1" data-name="Component 1 – 1">
          <g id="Group_13679" data-name="Group 13679" clip-path="url(#clip-path)">
            <path id="Path_7981" data-name="Path 7981" d="M28.631,10.614a10.291,10.291,0,0,1-1.058,4.5,2.007,2.007,0,0,0-.126,1.5c.393,1.459.767,2.922,1.146,4.384.022.084.05.166.068.25a.153.153,0,0,1-.174.2,2.825,2.825,0,0,1-.316-.07c-1.39-.4-2.784-.781-4.169-1.193a2.464,2.464,0,0,0-1.827.106,9.652,9.652,0,0,1-4.661.884,7.03,7.03,0,0,1-1.785-.293,4.737,4.737,0,0,0-2.554-.046A10.227,10.227,0,0,1,6.519,20.3a2.6,2.6,0,0,0-1.89-.1c-1.344.4-2.694.78-4.043,1.164-.178.051-.383.2-.539.005-.123-.15.013-.328.057-.489.356-1.335.694-2.674,1.073-4a2.721,2.721,0,0,0-.168-2.007A10.541,10.541,0,0,1,7.171.6,9.913,9.913,0,0,1,13.415.421,3.136,3.136,0,0,0,15.2.441a10.516,10.516,0,0,1,13.1,7.61,11.893,11.893,0,0,1,.333,2.563" transform="translate(0.002 -0.001)" fill="#050404"></path>
            <g id="Group_82150" data-name="Group 82150" transform="translate(29.075 2.064)">
              <path id="Path_7982" data-name="Path 7982" d="M602.341,23.105a1.848,1.848,0,0,0,.141-.695q.164-2.849.325-5.7a2.676,2.676,0,0,1,.134-.762.841.841,0,0,1,.7-.6,4.921,4.921,0,0,1,1.994.058,2.322,2.322,0,0,1,1.873,2.27,9.8,9.8,0,0,1-.021,1.425c-.053.863-.129,1.724-.194,2.586-.13,1.724-.262,3.448-.386,5.173-.032.453-.03.909-.054,1.361a.481.481,0,0,0,.367.537,2.278,2.278,0,0,1,.632.322c.126.088.243.033.274-.125a3.054,3.054,0,0,0,.044-.385q.277-4.043.549-8.087c.055-.819.094-1.64.145-2.459.021-.345.036-.692.088-1.033a.944.944,0,0,1,.788-.838,2.883,2.883,0,0,1,.32-.047,30.77,30.77,0,0,1,4.34-.128,8.437,8.437,0,0,1,2.722.536,3.936,3.936,0,0,1,2.671,3.295,5.622,5.622,0,0,1-.333,2.991,4.443,4.443,0,0,1-.675,1.1.254.254,0,0,0-.027.353,6.351,6.351,0,0,1,.848,1.375c.021.04.107.06.166.067a.124.124,0,0,0,.092-.074,4.319,4.319,0,0,0,.113-.435,9.017,9.017,0,0,1,.934-2.681,5.773,5.773,0,0,1,3.747-2.971,6.6,6.6,0,0,1,3.461.013,3.494,3.494,0,0,1,2.682,3.07c.036.242-.057.519.148.729.364-.063.319-.42.435-.644a5.919,5.919,0,0,1,4.529-3.307,6.42,6.42,0,0,1,2.827.164,3.506,3.506,0,0,1,2.51,2.4,2.432,2.432,0,0,0,.087.242.154.154,0,0,0,.263.029,2.088,2.088,0,0,0,.127-.224,4.5,4.5,0,0,1,3.155-2.469,7.007,7.007,0,0,1,3.15-.066,3.194,3.194,0,0,1,2.554,3.359,2.4,2.4,0,0,1-1.38,2.188c-.549.258-.51.388-.1.756a3.761,3.761,0,0,1,1.166,3.594,5.009,5.009,0,0,1-.133.632,3.915,3.915,0,0,1-2.861,2.82,6.947,6.947,0,0,1-3.339.077,6.849,6.849,0,0,1-1.97-.619,2.526,2.526,0,0,1-1.3-1.376.616.616,0,0,0-.112-.15.378.378,0,0,0-.219.232,3.046,3.046,0,0,1-1.623,1.511,6.537,6.537,0,0,1-3.292.526,7,7,0,0,1-1.459-.288,4.782,4.782,0,0,1-3.345-3.482,7.845,7.845,0,0,1-.2-2.958c.019-.192.021-.386.022-.579,0-.03-.046-.075-.079-.088a.134.134,0,0,0-.115.014,1.079,1.079,0,0,0-.171.192,4.511,4.511,0,0,1-1.492,1.322c-.056.032-.114.062-.168.1-.124.079-.324.119-.324.286,0,.221.233.219.384.27a2.369,2.369,0,0,1,.821,3.856,3.81,3.81,0,0,1-1.511.974,7,7,0,0,1-4.394.1,4.751,4.751,0,0,1-3.261-3.162c-.064-.182-.131-.364-.206-.542a.119.119,0,0,0-.207-.009,1.946,1.946,0,0,0-.119.3,4.429,4.429,0,0,1-2.515,2.885,8.612,8.612,0,0,1-2.222.683,11.289,11.289,0,0,1-4.253-.052,4.22,4.22,0,0,1-1.09-.4,2.324,2.324,0,0,1-1.213-1.371,2.355,2.355,0,0,0-.128-.3.121.121,0,0,0-.208,0c-.071.158-.13.319-.2.477a2.694,2.694,0,0,1-2.318,1.727,3.78,3.78,0,0,1-1.6-.151,2.3,2.3,0,0,1-1.428-1.233,5.284,5.284,0,0,1-.458-2.2,15.386,15.386,0,0,1,.164-2.067c.046-.452.092-.9.1-1.357a5.406,5.406,0,0,0-.029-1.645,1.449,1.449,0,0,1,.147-1.228" transform="translate(-549.665 -15.276)" fill="#050404"></path>
              <path id="Path_7983" data-name="Path 7983" d="M228.759,37.878c-.388-.025-.777-.037-1.164-.075a2.411,2.411,0,0,1-1.983-1.379,5.51,5.51,0,0,1-.514-1.994c-.079-.664-.171-1.326-.26-1.989-.005-.036-.044-.066-.068-.1-.051.036-.139.066-.146.11-.109.616-.2,1.235-.309,1.852-.123.7-.252,1.4-.4,2.1a2.433,2.433,0,0,1-.212.608,1.308,1.308,0,0,1-1.183.774c-.648.023-1.3.057-1.944.061a2.352,2.352,0,0,1-2.283-1.413,6.4,6.4,0,0,1-.463-1.344c-.852-3.57-1.682-7.145-2.427-10.738-.083-.4-.171-.8-.234-1.209a4.92,4.92,0,0,1-.061-.838,1.124,1.124,0,0,1,.828-1.111,1.356,1.356,0,0,1,.313-.075,6.7,6.7,0,0,1,2.567.214,2.419,2.419,0,0,1,1.726,1.769,6.976,6.976,0,0,1,.237,1.206,23.958,23.958,0,0,1,.183,2.586,4.666,4.666,0,0,0,.024.518c.012.128.033.274.2.274.145,0,.143-.14.158-.237.025-.171.03-.344.05-.514q.232-2.028.47-4.055a6.029,6.029,0,0,1,.119-.7,1.107,1.107,0,0,1,.838-.9,6.15,6.15,0,0,1,2.628-.107c.21.048.415.119.623.177a2.525,2.525,0,0,1,1.724,1.538,5.891,5.891,0,0,1,.411,1.694q.136,1.289.272,2.578a.68.68,0,0,0,.018.128c.018.058.018.13.1.144s.111-.049.122-.106c.085-.445.175-.89.245-1.338.186-1.173.362-2.348.544-3.521a2.406,2.406,0,0,1,.055-.253,1.2,1.2,0,0,1,1.319-1.079,4.132,4.132,0,0,1,2.677.56,2.007,2.007,0,0,1,1.008,1.9,9.163,9.163,0,0,1-.2,1.41,103.466,103.466,0,0,1-2.753,10.72c-.1.329-.2.661-.323.984a1.6,1.6,0,0,1-1.57,1.135c-.324.008-.648,0-.972,0v.04" transform="translate(-215.112 -20.282)" fill="#050404"></path>
              <path id="Path_7984" data-name="Path 7984" d="M465.048,50.336a5.783,5.783,0,0,1-.746,1.359,4.487,4.487,0,0,1-1.444,1.28,3.118,3.118,0,0,0-.337.192.37.37,0,0,0-.151.2c-.017.088.077.141.156.175s.162.058.244.087a2.366,2.366,0,0,1,.928,3.715,3.4,3.4,0,0,1-.824.725,4.257,4.257,0,0,1-1,.458,6.944,6.944,0,0,1-4.46-.056,4.712,4.712,0,0,1-3.131-3.525,6.3,6.3,0,0,1-.162-2.888,2.224,2.224,0,0,0,.013-.516.129.129,0,0,0-.073-.089.139.139,0,0,0-.119.007.96.96,0,0,0-.177.185,4.69,4.69,0,0,1-1.6,1.389,3.217,3.217,0,0,0-.279.164.176.176,0,0,0,.008.314c.115.058.237.1.356.158a2.34,2.34,0,0,1,.882,3.64,3.209,3.209,0,0,1-1.387,1.036,6.685,6.685,0,0,1-5.533-.141,4.668,4.668,0,0,1-2.561-3.467,10.671,10.671,0,0,1-.04-3.164,8.6,8.6,0,0,1,.658-2.563,7.084,7.084,0,0,1,.873-1.511,5.7,5.7,0,0,1,4.237-2.332,7.281,7.281,0,0,1,2,.088,3.647,3.647,0,0,1,3.151,3.377c.015.128.023.258.045.384a.133.133,0,0,0,.086.079.131.131,0,0,0,.115-.023,2.711,2.711,0,0,0,.237-.384,6.794,6.794,0,0,1,.775-1.27A5.791,5.791,0,0,1,460,45.15a6.312,6.312,0,0,1,2.564.251,3.46,3.46,0,0,1,2.48,2.734c.055.253.1.508.152.762a2.106,2.106,0,0,1-.141,1.438" transform="translate(-412.634 -41.081)" fill="#050404"></path>
              <path id="Path_7985" data-name="Path 7985" d="M367.326,27.127c.037,1.073-.155,2.1-.2,3.133-.017.388-.037.776-.064,1.164-.059.84-.123,1.68-.187,2.52-.021.28-.042.56-.077.839a4.755,4.755,0,0,1-.107.571.893.893,0,0,1-.761.707,4.384,4.384,0,0,1-2.661-.3,1.8,1.8,0,0,1-1.009-1.349,6.19,6.19,0,0,1-.053-2.127c.059-.383.083-.773.114-1.16.079-.99.162-1.98.229-2.971a4,4,0,0,0-.029-.774.4.4,0,0,0-.449-.371,1.083,1.083,0,0,0-.913.532,3.213,3.213,0,0,0-.467,1.13,15.494,15.494,0,0,0-.232,2.059c-.1,1.335-.182,2.672-.282,4.008a3.276,3.276,0,0,1-.14.7.865.865,0,0,1-.739.645,4.55,4.55,0,0,1-2.421-.237,1.981,1.981,0,0,1-1.223-1.633,6.2,6.2,0,0,1-.062-1.678c.079-.708.1-1.423.156-2.134.119-1.572.245-3.144.365-4.716.026-.345.033-.69.057-1.035.026-.366.06-.731.092-1.1a2.452,2.452,0,0,0,.034-.322c-.047-.974.2-1.929.186-2.9a2.184,2.184,0,0,1,.119-.57.777.777,0,0,1,.683-.608,8.26,8.26,0,0,1,2.7.087.694.694,0,0,1,.535.418,5.367,5.367,0,0,1,.586,2.429c0,.064,0,.13-.005.194-.047.7.022.781.691.56a5.392,5.392,0,0,1,3.069-.036,2.872,2.872,0,0,1,1.968,1.65,4.98,4.98,0,0,1,.5,2.061v.616" transform="translate(-336.575 -18.563)" fill="#050404"></path>
            </g>
            <path id="Path_7986" data-name="Path 7986" d="M602.861,74.527A7.519,7.519,0,0,0,603,73.089a.289.289,0,0,1,.119.011c-.006.77-.009,1.541-.02,2.31a1.1,1.1,0,0,1-.1.563,5.515,5.515,0,0,1-.013-1.056c0-.144.02-.3-.13-.39" transform="translate(-521.372 -63.208)" fill="#cbc0ba"></path>
            <path id="Path_7987" data-name="Path 7987" d="M22.8,31.633a8.1,8.1,0,0,1-3.9-1.048,1.693,1.693,0,0,0-1.43-.15c-.637.2-1.281.383-1.922.571a1.922,1.922,0,0,1-.316.068.137.137,0,0,1-.164-.147,3.41,3.41,0,0,1,.155-.89,6.024,6.024,0,0,1,.237-.805,2.7,2.7,0,0,0-.209-2.424,6.919,6.919,0,0,1-.748-1.992,8.057,8.057,0,0,1,.309-4.773,9.656,9.656,0,0,1,1.714-2.878,7.979,7.979,0,0,1,4.872-2.723,10.08,10.08,0,0,1,2.063-.142,1.446,1.446,0,0,1,.38.066.112.112,0,0,1,.043.164c-.132.14-.277.27-.418.4a11.048,11.048,0,0,0-2.925,4.219A10.621,10.621,0,0,0,22.994,30.57c.244.244.506.47.76.7.061.056.145.1.1.207s-.138.093-.22.1c-.279.022-.56.036-.84.053" transform="translate(-12.35 -12.362)" fill="#fbfbfb"></path>
            <path id="Path_7988" data-name="Path 7988" d="M136.2,22.5a8.511,8.511,0,0,1-1.115,4.409,1.931,1.931,0,0,0-.182,1.669c.177.553.307,1.124.453,1.688a3.114,3.114,0,0,1,.083.443c.01.092-.036.168-.148.158a1.48,1.48,0,0,1-.255-.045c-.643-.183-1.295-.342-1.925-.562a1.833,1.833,0,0,0-1.608.16,7.983,7.983,0,0,1-4.561.957c-.123-.008-.292.034-.349-.1-.076-.187.119-.247.224-.339a10.536,10.536,0,0,0,3.214-4.624,11.375,11.375,0,0,0,.579-4.788,9.683,9.683,0,0,0-1.342-4.023A11.918,11.918,0,0,0,127,14.68c-.112-.1-.227-.2-.336-.3a.135.135,0,0,1,.057-.243,4.454,4.454,0,0,1,1.031-.088,8.655,8.655,0,0,1,8.181,6.732A8.8,8.8,0,0,1,136.2,22.5" transform="translate(-109.466 -12.143)" fill="#fbfbfb"></path>
            <path id="Path_7989" data-name="Path 7989" d="M74.465,85.029c1.337,0,2.674-.007,4.011,0,.686.005,1.024.065.708.966-.085.243-.131.5-.2.748a.412.412,0,0,1-.421.332c-.151,0-.3.006-.453.006l-7.5-.007c-.662,0-.669,0-.894-.6a5.583,5.583,0,0,1-.237-.8.431.431,0,0,1,.341-.538,3.311,3.311,0,0,1,.9-.075h3.752Z" transform="translate(-60.07 -73.534)" fill="#f4b00a"></path>
            <path id="Path_7990" data-name="Path 7990" d="M75.157,56.369c-1.383,0-2.767,0-4.15,0-.807,0-.862-.079-.665-.869.041-.167.094-.332.137-.5a.782.782,0,0,1,.8-.625c.129-.007.259-.013.389-.013q3.338-.019,6.679-.034a5.929,5.929,0,0,1,.773.055.63.63,0,0,1,.553.484c.111.416.192.841.272,1.265a.18.18,0,0,1-.185.215c-.172.013-.345.017-.517.018H75.158Z" transform="translate(-60.752 -46.984)" fill="#efbc0d"></path>
            <path id="Path_7991" data-name="Path 7991" d="M86.093,116.42h2.593c.108,0,.216,0,.324.008.207.015.277.141.158.3a6.561,6.561,0,0,1-1.458,1.462c-.195.136-.388.277-.586.405a1.48,1.48,0,0,0-.669.843.886.886,0,0,1-.142.286.28.28,0,0,1-.509-.079,1.963,1.963,0,0,0-1.036-1.26,6.937,6.937,0,0,1-1.657-1.534,1.046,1.046,0,0,1-.105-.163.164.164,0,0,1,.106-.249c.128-.012.258-.015.387-.016q1.3,0,2.593,0" transform="translate(-71.765 -100.684)" fill="#f4a50e"></path>
            <path id="Path_7992" data-name="Path 7992" d="M87.644,23.2H85.38c-.172,0-.344-.01-.514-.027a.146.146,0,0,1-.108-.235,8.835,8.835,0,0,1,2.413-2.028.83.83,0,0,1,.862.01,5.352,5.352,0,0,1,.709.448c.518.422,1.017.867,1.521,1.307a1.729,1.729,0,0,1,.216.239.167.167,0,0,1-.116.281c-.15.011-.3.011-.453.012H87.647Z" transform="translate(-73.273 -17.983)" fill="#f4cb0e"></path>
            <path id="Path_7993" data-name="Path 7993" d="M656.806,41.012a11,11,0,0,1-2.513-.261,1.945,1.945,0,0,1-1.454-1.262,1.581,1.581,0,0,1-.113-.5,7.9,7.9,0,0,1,.011-1.423c.126-.815.1-1.637.187-2.453.107-.965.115-1.94.181-2.909.059-.861.138-1.721.206-2.582.012-.151.021-.3.028-.453.047-.971.093-1.941.143-2.912a1.529,1.529,0,0,1,.06-.381.391.391,0,0,1,.313-.3c.277-.04.553-.085.834-.105.6-.043,1.207-.079,1.811-.1a11.627,11.627,0,0,1,3.725.343,4.369,4.369,0,0,1,1.954,1.1,2.965,2.965,0,0,1,.648,1.035,3.835,3.835,0,0,1,.191.884,5.422,5.422,0,0,1-.26,2.425,2.458,2.458,0,0,1-.7,1.074c-.145.13-.282.268-.413.411-.158.17-.145.268.036.435a1.328,1.328,0,0,0,.151.123,2.639,2.639,0,0,1,1.067,1.648,5.686,5.686,0,0,1-.044,2.946,3.663,3.663,0,0,1-1.125,1.783,4.951,4.951,0,0,1-2.547,1.193,14.121,14.121,0,0,1-2.376.24" transform="translate(-564.473 -21.924)" fill="#f5a60e"></path>
            <path id="Path_7994" data-name="Path 7994" d="M745.151,50.593c.213,0,.429-.008.644,0a3.2,3.2,0,0,1,2.038.881,2.559,2.559,0,0,1,.854,1.628,3.607,3.607,0,0,1-1.337,3.515,4.621,4.621,0,0,1-1.465.812,9.123,9.123,0,0,1-2.211.467c-.28.017-.559.053-.837.09a.339.339,0,0,0-.316.407,1.1,1.1,0,0,0,.035.19,1.808,1.808,0,0,0,2.915.879,3.249,3.249,0,0,0,.272-.277.862.862,0,0,1,.952-.218,1.52,1.52,0,0,1,1.082,1.812,1.94,1.94,0,0,1-.824,1.2,3.767,3.767,0,0,1-1.162.561,7.213,7.213,0,0,1-3.65.043,3.873,3.873,0,0,1-2.477-1.847,4.488,4.488,0,0,1-.684-2.4,12.3,12.3,0,0,1,.146-2.582,7.619,7.619,0,0,1,1.5-3.4,5.323,5.323,0,0,1,3.1-1.751,4.052,4.052,0,0,1,1.423-.014" transform="translate(-639.091 -43.706)" fill="#f5a60e"></path>
            <path id="Path_7995" data-name="Path 7995" d="M826.949,53.556c0,.194.014.39,0,.582a2.885,2.885,0,0,1-.736,1.688,4.765,4.765,0,0,1-2.375,1.489,13.2,13.2,0,0,1-2.416.427c-.086.008-.173,0-.259.01-.245.026-.331.137-.311.392a1.474,1.474,0,0,0,.253.725,1.762,1.762,0,0,0,2.744.263,1.08,1.08,0,0,1,1.268-.368,1.383,1.383,0,0,1,.943,1.206,1.85,1.85,0,0,1-.909,1.868,3.682,3.682,0,0,1-1.059.474,6.641,6.641,0,0,1-2.565.185,7.285,7.285,0,0,1-1.148-.179,4.336,4.336,0,0,1-3.057-3.794,10.576,10.576,0,0,1,.3-3.781,6.476,6.476,0,0,1,1.178-2.429,5.1,5.1,0,0,1,2.885-1.858,6.087,6.087,0,0,1,3.2.057,2.818,2.818,0,0,1,1.992,1.952,3.8,3.8,0,0,1,.073,1.093" transform="translate(-706.798 -43.474)" fill="#f5a60e"></path>
            <path id="Path_7996" data-name="Path 7996" d="M897.273,62.767a8.392,8.392,0,0,1-2.618-.364,3.129,3.129,0,0,1-1.144-.59,1.312,1.312,0,0,1-.466-1.39,1.666,1.666,0,0,1,.661-1.076.915.915,0,0,1,.921-.1,3.315,3.315,0,0,1,.407.2,4.067,4.067,0,0,0,1.739.453,2.024,2.024,0,0,0,.827-.132.536.536,0,0,0,.249-.923,1.555,1.555,0,0,0-.507-.4,8.121,8.121,0,0,0-1.3-.569,3.727,3.727,0,0,1-1.634-1.127,2.548,2.548,0,0,1-.684-1.77c.006-.281,0-.562-.005-.843a3.28,3.28,0,0,1,1.225-2.544,4.333,4.333,0,0,1,2.22-.988,8,8,0,0,1,2.323.026,2.516,2.516,0,0,1,2.169,2.45,1.8,1.8,0,0,1-1.906,1.91c-.087,0-.173,0-.259,0-.39-.026-.482-.1-.567-.483-.019-.084-.03-.17-.049-.254a1.148,1.148,0,0,0-1.914-.5.849.849,0,0,0,.023,1.21,3.815,3.815,0,0,0,.948.553c.362.142.724.281,1.09.413a4.16,4.16,0,0,1,1.84,1.383,2.243,2.243,0,0,1,.46,1.057,3.708,3.708,0,0,1-1.135,3.536,2.57,2.57,0,0,1-.877.538,5.035,5.035,0,0,1-2.031.323" transform="translate(-772.296 -43.698)" fill="#f5a60e"></path>
            <path id="Path_7997" data-name="Path 7997" d="M607.309,33.879c.09-1.281.182-2.594.273-3.908.061-.883.119-1.767.182-2.648.063-.861.141-1.722.2-2.583.033-.517.046-1.037.044-1.555a11.522,11.522,0,0,1,.122-1.484c.053-.42.164-.532.574-.547a9.262,9.262,0,0,1,1.1.016,1.667,1.667,0,0,1,1.684,1.707,3.971,3.971,0,0,1-.025.969c-.051.365-.066.73-.091,1.1-.07,1.056-.147,2.11-.224,3.165-.045.624-.07,1.25-.124,1.875-.094,1.1-.107,2.2-.182,3.3a1.073,1.073,0,0,0,.721,1.225.514.514,0,0,1,.362.547,2.552,2.552,0,0,1-.177,1.078,1.98,1.98,0,0,1-1.7,1.216,4.034,4.034,0,0,1-1.35-.116,1.557,1.557,0,0,1-.984-.79,2.49,2.49,0,0,1-.344-1.1c-.023-.474-.036-.949-.055-1.46" transform="translate(-525.219 -18.285)" fill="#f5a60e"></path>
            <path id="Path_7998" data-name="Path 7998" d="M879.524,91.384c-.151-.047-.36-.1-.56-.178-.322-.123-.645-.247-.955-.4a1.593,1.593,0,0,0-2.073.654c-.129.224-.256.449-.388.672a.141.141,0,0,1-.217-.025c-.04-.1-.081-.2-.113-.3a2.063,2.063,0,0,0-1.349-1.377,2.983,2.983,0,0,1-.3-.113.219.219,0,0,1-.016-.336.875.875,0,0,1,.163-.1,4.632,4.632,0,0,0,2.016-1.852c.087-.141.138-.37.327-.364.241.008.232.265.295.438a4.062,4.062,0,0,0,2.353,2.433c.3.126.6.248.893.377a.793.793,0,0,1,.218.137c.044.04.1.119.084.162a.228.228,0,0,1-.19.152c-.043.006-.086.009-.188.019" transform="translate(-755.414 -75.815)" fill="#fbc04e"></path>
            <path id="Path_7999" data-name="Path 7999" d="M851.427,109.446a.92.92,0,0,1-.717-.318.2.2,0,0,1,.079-.316.3.3,0,0,1,.059-.026c.489-.079.976-.164,1.465-.237a.178.178,0,0,1,.176.261,1.058,1.058,0,0,1-1.064.636" transform="translate(-735.678 -93.875)" fill="#fbc04e"></path>
            <path id="Path_8000" data-name="Path 8000" d="M773.33,109.546a1.124,1.124,0,0,1-.656-.207.291.291,0,0,1-.117-.281.188.188,0,0,1,.177-.158c.488-.077.976-.155,1.466-.219.147-.019.213.128.137.27a1.069,1.069,0,0,1-1.007.6" transform="translate(-668.127 -93.99)" fill="#fcc356"></path>
            <path id="Path_8001" data-name="Path 8001" d="M925.8,76.92c.24,0,.389.068.46.249a.341.341,0,0,1-.032.364.27.27,0,0,1-.351.044,2.209,2.209,0,0,1-.337-.185.243.243,0,0,1-.123-.273.277.277,0,0,1,.24-.187c.064-.009.128-.011.141-.012" transform="translate(-800.326 -66.522)" fill="#fbc04e"></path>
            <path id="Path_8002" data-name="Path 8002" d="M229.054,31.954a1.073,1.073,0,0,0-.168.514q-.4,2.787-.783,5.576c-.141,1.028-.277,2.052-.512,3.063a2.978,2.978,0,0,1-.071.316.9.9,0,0,1-.92.672,3.774,3.774,0,0,1-.583-.016,2.561,2.561,0,0,0-.774,0,2.541,2.541,0,0,1-.258.015,1.716,1.716,0,0,1-1.88-1.175,6.205,6.205,0,0,1-.34-1.112q-.85-3.624-1.682-7.251c-.242-1.051-.48-2.1-.7-3.159-.116-.548-.2-1.1-.293-1.657a1.375,1.375,0,0,1,.01-.45.521.521,0,0,1,.525-.481,7.911,7.911,0,0,1,1.876.049,2.088,2.088,0,0,1,1.851,1.952c.11,1.2.25,2.4.383,3.6.107.965.226,1.929.337,2.893.067.579.127,1.158.193,1.737.014.125,0,.262.134.348.123,0,.1-.106.116-.175a48.4,48.4,0,0,0,.778-4.788c.158-1.241.32-2.482.474-3.724.029-.237.023-.474.046-.711.019-.192.051-.385.087-.575a.622.622,0,0,1,.457-.5,1.793,1.793,0,0,1,.44-.1,10.75,10.75,0,0,1,2.132.079,2.072,2.072,0,0,1,1.55,1.146,3.166,3.166,0,0,1,.361,1.1c.054.362.088.728.123,1.094.144,1.5.282,3.008.43,4.512.074.751.164,1.5.249,2.253a.467.467,0,0,0,.064.179.222.222,0,0,0,.1.068c.009,0,.036-.021.05-.037a.813.813,0,0,0,.154-.418q.134-.83.266-1.66.371-2.332.74-4.666.217-1.375.43-2.75a2.939,2.939,0,0,1,.053-.319.692.692,0,0,1,.728-.6,4.39,4.39,0,0,1,1.6.152,2.26,2.26,0,0,1,.748.376,1.275,1.275,0,0,1,.525,1.057,8.477,8.477,0,0,1-.189,1.67q-1.152,5.55-2.836,10.963c-.025.083-.055.164-.087.244a1.066,1.066,0,0,1-1.225.83c-.474,0-.951,0-1.426,0a2.027,2.027,0,0,1-2.166-1.722,6.073,6.073,0,0,1-.119-.7c-.1-1.031-.19-2.063-.289-3.095-.037-.387-.093-.771-.131-1.158-.087-.881-.165-1.762-.252-2.642a1.365,1.365,0,0,0-.331-.82" transform="translate(-190.323 -23.158)" fill="#f5a60e"></path>
            <path id="Path_8003" data-name="Path 8003" d="M448.362,57.6a8.877,8.877,0,0,1,.751-3.842,5.437,5.437,0,0,1,2.6-2.776,5.826,5.826,0,0,1,1.611-.46,6.865,6.865,0,0,1,2.061.011,3.268,3.268,0,0,1,2.226,1.309,1.967,1.967,0,0,1,.356.756,3.7,3.7,0,0,1-1.706,4.3,5.794,5.794,0,0,1-1.551.639,11.2,11.2,0,0,1-2.425.37c-.3.009-.381.119-.339.408a1.66,1.66,0,0,0,1.18,1.408,1.585,1.585,0,0,0,1.783-.4.523.523,0,0,0,.045-.046.977.977,0,0,1,1.077-.412,1.36,1.36,0,0,1,1.014.823,1.646,1.646,0,0,1-.327,1.861,3.438,3.438,0,0,1-1.982,1.017,7.7,7.7,0,0,1-3.146-.067,4.064,4.064,0,0,1-2.887-2.551,4.858,4.858,0,0,1-.342-2.027q0-.162,0-.324" transform="translate(-387.755 -43.632)" fill="#f5a60e"></path>
            <path id="Path_8004" data-name="Path 8004" d="M531.6,62.509a5.13,5.13,0,0,1-1.788-.221,4.168,4.168,0,0,1-2.931-3.015,4.4,4.4,0,0,1-.166-1.085,10.383,10.383,0,0,1,.546-4.143,5.791,5.791,0,0,1,2.341-3.01,3.906,3.906,0,0,1,.746-.385,6.174,6.174,0,0,1,4-.156,2.858,2.858,0,0,1,1.865,1.674,3.308,3.308,0,0,1,.19,1.143,3.389,3.389,0,0,1-1,2.771,4.738,4.738,0,0,1-1.633,1.028,9.787,9.787,0,0,1-2.137.5c-.342.046-.687.07-1.028.11a.341.341,0,0,0-.328.451,1.62,1.62,0,0,0,1.093,1.337,1.674,1.674,0,0,0,1.811-.323c.079-.075.149-.158.223-.234a.959.959,0,0,1,1.072-.237A1.236,1.236,0,0,1,535.46,60c0,.151-.008.3-.005.453a1.362,1.362,0,0,1-.564,1.113,3.694,3.694,0,0,1-1.874.825,6,6,0,0,1-1.418.124" transform="translate(-455.5 -43.442)" fill="#f5a60e"></path>
            <path id="Path_8005" data-name="Path 8005" d="M560.93,109.551a.769.769,0,0,1-.692-.311c-.133-.158-.1-.369.092-.41a7.354,7.354,0,0,1,1.517-.222.166.166,0,0,1,.145.227,1.019,1.019,0,0,1-1.063.715" transform="translate(-484.442 -93.929)" fill="#feca66"></path>
            <path id="Path_8006" data-name="Path 8006" d="M482.622,109.469a.982.982,0,0,1-.625-.223.283.283,0,0,1-.112-.281c.022-.1.1-.13.187-.149.145-.034.293-.06.441-.083.338-.051.676-.1,1.016-.145a.179.179,0,0,1,.168.265,1.114,1.114,0,0,1-1.075.615" transform="translate(-416.743 -93.91)" fill="#ffcc6b"></path>
            <path id="Path_8007" data-name="Path 8007" d="M360.666,35.766q.13-1.907.26-3.813.009-.13.013-.259c.037-1.166.14-2.327.249-3.489.06-.645.058-1.294.119-1.941.091-.967.124-1.939.174-2.91.024-.463.149-.615.6-.669a7.877,7.877,0,0,1,1.866.092.8.8,0,0,1,.613.431,2.218,2.218,0,0,1,.286.988,8.344,8.344,0,0,1-.059,1.747,8.09,8.09,0,0,0-.04,1.23.56.56,0,0,0,.071.243.147.147,0,0,0,.215.071,2.239,2.239,0,0,0,.3-.237,3.6,3.6,0,0,1,2.716-.813c.172.008.343.04.514.054a2.459,2.459,0,0,1,2.123,1.48,3.936,3.936,0,0,1,.377,1.63,16.161,16.161,0,0,1-.084,2.524c-.094.749-.121,1.506-.182,2.259-.065.818-.138,1.635-.2,2.453-.026.345-.03.691-.056,1.035-.034.448-.133.545-.586.624a3.864,3.864,0,0,1-1.609-.077,1.449,1.449,0,0,1-1.025-1,2.664,2.664,0,0,1-.1-1.218c.024-.193.06-.385.068-.579.04-1.058.146-2.11.242-3.164.059-.644.043-1.3.055-1.944a1.278,1.278,0,0,0-.087-.511,1.17,1.17,0,0,0-1.69-.539,2.083,2.083,0,0,0-.835.8,3.377,3.377,0,0,0-.494,1.193,13.665,13.665,0,0,0-.277,2.182q-.062,1.423-.194,2.844c-.036.388-.053.775-.069,1.164a3.787,3.787,0,0,1-.043.516.359.359,0,0,1-.3.3,3.9,3.9,0,0,1-1.863-.054,1.4,1.4,0,0,1-1.039-1.277,10.453,10.453,0,0,1-.04-1.362" transform="translate(-311.91 -19.596)" fill="#f5a60e"></path>
            <path id="Path_8008" data-name="Path 8008" d="M681.879,92.5a1.66,1.66,0,0,1,1.876,1.786,2.232,2.232,0,0,1-.124.825,1.466,1.466,0,0,1-.806.878,2.506,2.506,0,0,1-1.829.091.445.445,0,0,1-.341-.424,3.973,3.973,0,0,1,.014-.774,12,12,0,0,0,.11-1.611c0-.108,0-.216.013-.323a.373.373,0,0,1,.31-.361,3.07,3.07,0,0,1,.778-.087" transform="translate(-588.64 -79.997)" fill="#050404"></path>
            <path id="Path_8009" data-name="Path 8009" d="M684.657,51.36a3.439,3.439,0,0,1-.835-.1.321.321,0,0,1-.274-.316,1.573,1.573,0,0,1,0-.45,10.1,10.1,0,0,0,.116-1.607c.019-.452.136-.569.582-.593.237-.012.474-.017.711-.006a1.391,1.391,0,0,1,1.437,1.488,3.168,3.168,0,0,1-.053.576,1.207,1.207,0,0,1-.8.866,2.109,2.109,0,0,1-.882.139" transform="translate(-591.138 -41.758)" fill="#050404"></path>
            <path id="Path_8010" data-name="Path 8010" d="M768.481,72.954a.959.959,0,0,1-.481.959,2.866,2.866,0,0,1-1.76.536A.226.226,0,0,1,766,74.2a2.706,2.706,0,0,1,.813-2.039,1.5,1.5,0,0,1,.369-.258.88.88,0,0,1,1.3.764c.005.086,0,.172,0,.285" transform="translate(-662.46 -62.098)" fill="#050404"></path>
            <path id="Path_8011" data-name="Path 8011" d="M847.012,72.98a1.03,1.03,0,0,1-.479.975,2.834,2.834,0,0,1-1.757.549c-.176,0-.27-.1-.267-.29a2.84,2.84,0,0,1,.788-1.993,1.023,1.023,0,0,1,1.181-.277.89.89,0,0,1,.534.949v.087" transform="translate(-730.356 -62.149)" fill="#050404"></path>
            <path id="Path_8012" data-name="Path 8012" d="M477.891,73.141a.953.953,0,0,1-.348.754,2.709,2.709,0,0,1-1.767.679.755.755,0,0,1-.191-.024.316.316,0,0,1-.277-.371,3.3,3.3,0,0,1,.638-1.663,1.258,1.258,0,0,1,.915-.537.9.9,0,0,1,1.012.854c.008.064.008.129.018.308" transform="translate(-411.056 -62.247)" fill="#050404"></path>
            <path id="Path_8013" data-name="Path 8013" d="M556.392,72.839a1,1,0,0,1-.488.967,2.888,2.888,0,0,1-1.7.534c-.189,0-.3-.088-.3-.264a2.739,2.739,0,0,1,.956-2.176.929.929,0,0,1,1.528.72c0,.065,0,.13,0,.218" transform="translate(-479.037 -61.984)" fill="#050404"></path>
            <path id="Path_8014" data-name="Path 8014" d="M686.208,98.981c.022-.342.031-.645.065-.945a.371.371,0,0,1,.345-.331,1.761,1.761,0,0,1,.768.073.607.607,0,0,1,.37.343,1.575,1.575,0,0,1,.117,1.136.9.9,0,0,1-.821.717c-.086.009-.172.02-.258.022-.5.013-.59-.079-.586-.6v-.414" transform="translate(-593.453 -84.484)" fill="#fdc65b"></path>
            <path id="Path_8015" data-name="Path 8015" d="M689.007,54.535c.013-.192.016-.385.042-.576a.282.282,0,0,1,.258-.246c.084-.012.17-.015.255-.02.656-.031.956.272.919,1a.559.559,0,0,1-.387.535,2.036,2.036,0,0,1-.69.138.353.353,0,0,1-.41-.381c-.006-.149,0-.3,0-.449h.011" transform="translate(-595.862 -46.434)" fill="#fdc55a"></path>
            <path id="Path_8016" data-name="Path 8016" d="M773.6,78.05a.692.692,0,0,1-.039.162.925.925,0,0,1-.69.522.239.239,0,0,1-.277-.27.966.966,0,0,1,.483-.722.352.352,0,0,1,.522.309" transform="translate(-668.159 -67.194)" fill="#fcc356"></path>
            <path id="Path_8017" data-name="Path 8017" d="M851.562,77.851a.553.553,0,0,1-.183.463,1.214,1.214,0,0,1-.5.288.3.3,0,0,1-.305-.034c-.1-.087-.068-.2-.034-.3a1.423,1.423,0,0,1,.273-.509.747.747,0,0,1,.311-.222.311.311,0,0,1,.435.31" transform="translate(-735.546 -67.039)" fill="#fbc04e"></path>
            <path id="Path_8018" data-name="Path 8018" d="M482.816,77.943a.592.592,0,0,1-.059.187,1.052,1.052,0,0,1-.662.469.277.277,0,0,1-.33-.292,1.034,1.034,0,0,1,.624-.751c.223-.068.439.1.428.388" transform="translate(-416.643 -67.059)" fill="#ffcc6b"></path>
            <path id="Path_8019" data-name="Path 8019" d="M560.156,78.546a.189.189,0,0,1-.179-.213,1.179,1.179,0,0,1,.586-.867.311.311,0,0,1,.466.256.712.712,0,0,1-.052.308.958.958,0,0,1-.82.517" transform="translate(-484.282 -66.959)" fill="#fecb69"></path>
          </g>
        </g>
      </g>
    </g>
  </g>
</svg>
