<svg xmlns="http://www.w3.org/2000/svg" xmlns:xlink="http://www.w3.org/1999/xlink" width="283.831" height="46.862" viewBox="0 0 283.831 46.862"><defs><clipPath id="a"><rect width="283.831" height="46.862" fill="none"></rect></clipPath></defs><g transform="translate(-46 -361)"><g transform="translate(0 -21.964)"><g transform="translate(46 382.964)"><g clip-path="url(#a)"><path d="M62.514,23.172A22.467,22.467,0,0,1,60.2,33a4.382,4.382,0,0,0-.275,3.275c.857,3.185,1.674,6.38,2.506,9.571.048.183.11.362.148.545a.335.335,0,0,1-.38.434,6.168,6.168,0,0,1-.689-.154c-3.036-.863-6.078-1.7-9.1-2.605a5.379,5.379,0,0,0-3.989.231,21.074,21.074,0,0,1-10.177,1.93,15.348,15.348,0,0,1-3.9-.64,10.342,10.342,0,0,0-5.576-.1,22.328,22.328,0,0,1-14.533-1.165,5.682,5.682,0,0,0-4.127-.223c-2.933.879-5.882,1.7-8.827,2.542-.389.111-.837.427-1.177.011-.268-.327.03-.716.123-1.069.774-2.914,1.515-5.837,2.344-8.736a5.941,5.941,0,0,0-.366-4.382A23.01,23.01,0,0,1,15.66,1.307,21.643,21.643,0,0,1,29.291.917a6.846,6.846,0,0,0,3.9.043,22.959,22.959,0,0,1,28.6,16.615,25.965,25.965,0,0,1,.728,5.6" transform="translate(0 0)" fill="#050404"></path><path d="M602.791,32.369a4.036,4.036,0,0,0,.308-1.517q.357-6.22.709-12.439a5.842,5.842,0,0,1,.292-1.663,1.838,1.838,0,0,1,1.526-1.31,10.745,10.745,0,0,1,4.353.128,5.069,5.069,0,0,1,4.089,4.956,21.393,21.393,0,0,1-.045,3.111c-.115,1.884-.282,3.765-.424,5.647-.284,3.764-.572,7.528-.842,11.294-.071.988-.067,1.981-.118,2.971a1.05,1.05,0,0,0,.8,1.173,4.972,4.972,0,0,1,1.38.7c.275.192.531.072.6-.273a6.711,6.711,0,0,0,.1-.84q.6-8.828,1.2-17.657c.12-1.789.205-3.58.317-5.37.047-.753.079-1.511.192-2.256a2.061,2.061,0,0,1,1.72-1.83,6.293,6.293,0,0,1,.7-.1,67.178,67.178,0,0,1,9.475-.279,18.421,18.421,0,0,1,5.943,1.17,8.594,8.594,0,0,1,5.832,7.194,12.272,12.272,0,0,1-.726,6.531,9.7,9.7,0,0,1-1.474,2.4.555.555,0,0,0-.06.77,13.865,13.865,0,0,1,1.852,3c.045.09.235.132.362.147a.271.271,0,0,0,.2-.16,9.385,9.385,0,0,0,.247-.953,19.693,19.693,0,0,1,2.039-5.853,12.6,12.6,0,0,1,8.182-6.487,14.405,14.405,0,0,1,7.556.028,7.629,7.629,0,0,1,5.856,6.7c.077.528-.125,1.134.323,1.592.794-.138.7-.917.953-1.406a12.923,12.923,0,0,1,9.887-7.22,14.016,14.016,0,0,1,6.171.357,7.654,7.654,0,0,1,5.476,5.244,5.312,5.312,0,0,0,.189.529.336.336,0,0,0,.574.064,4.6,4.6,0,0,0,.278-.49,9.823,9.823,0,0,1,6.888-5.391,15.3,15.3,0,0,1,6.877-.143,6.973,6.973,0,0,1,5.577,7.331,5.237,5.237,0,0,1-3.012,4.776c-1.2.563-1.113.847-.223,1.651a8.212,8.212,0,0,1,2.546,7.847,10.953,10.953,0,0,1-.29,1.383,8.548,8.548,0,0,1-6.247,6.158,15.168,15.168,0,0,1-7.29.168,14.954,14.954,0,0,1-4.3-1.35,5.516,5.516,0,0,1-2.846-3,1.34,1.34,0,0,0-.245-.327.826.826,0,0,0-.477.508,6.65,6.65,0,0,1-3.543,3.3,14.273,14.273,0,0,1-7.187,1.149,15.281,15.281,0,0,1-3.186-.629,10.442,10.442,0,0,1-7.3-7.6,17.131,17.131,0,0,1-.438-6.457c.04-.419.047-.842.048-1.264,0-.067-.1-.163-.175-.192a.293.293,0,0,0-.252.031,2.358,2.358,0,0,0-.373.42,9.847,9.847,0,0,1-3.258,2.886c-.123.071-.249.135-.368.212-.27.176-.708.26-.706.624,0,.482.509.479.839.589,3.5,1.173,4.276,5.858,1.793,8.419a8.316,8.316,0,0,1-3.3,2.127,15.273,15.273,0,0,1-9.593.224,10.372,10.372,0,0,1-7.12-6.9c-.141-.4-.286-.794-.449-1.183a.258.258,0,0,0-.451-.02,4.247,4.247,0,0,0-.263.65,9.67,9.67,0,0,1-5.49,6.295,18.8,18.8,0,0,1-4.852,1.49,24.647,24.647,0,0,1-9.286-.114,9.211,9.211,0,0,1-2.38-.877,5.075,5.075,0,0,1-2.649-2.99,5.114,5.114,0,0,0-.278-.647.263.263,0,0,0-.454.008c-.154.342-.284.7-.43,1.042a5.882,5.882,0,0,1-5.06,3.771,8.254,8.254,0,0,1-3.5-.33,5.029,5.029,0,0,1-3.119-2.692,11.536,11.536,0,0,1-1-4.81,33.587,33.587,0,0,1,.358-4.513c.1-.987.2-1.971.22-2.963a11.806,11.806,0,0,0-.064-3.591,3.163,3.163,0,0,1,.32-2.681" transform="translate(-424.304 -10.771)" fill="#543019"></path><path d="M244.908,57.758c-.848-.053-1.7-.081-2.542-.165a5.262,5.262,0,0,1-4.329-3.011,12.031,12.031,0,0,1-1.12-4.354c-.169-1.45-.372-2.9-.569-4.342-.011-.077-.1-.145-.148-.217-.11.079-.3.144-.319.24-.238,1.345-.439,2.7-.676,4.043-.269,1.532-.55,3.062-.859,4.586a5.314,5.314,0,0,1-.462,1.328,2.856,2.856,0,0,1-2.584,1.689c-1.415.05-2.829.123-4.244.134a5.136,5.136,0,0,1-4.985-3.085,13.964,13.964,0,0,1-1.011-2.934c-1.861-7.794-3.674-15.6-5.3-23.446-.182-.877-.374-1.754-.51-2.638a10.742,10.742,0,0,1-.133-1.83,2.453,2.453,0,0,1,1.807-2.426,2.959,2.959,0,0,1,.684-.163,14.636,14.636,0,0,1,5.6.467,5.282,5.282,0,0,1,3.769,3.863,15.236,15.236,0,0,1,.514,2.633,52.314,52.314,0,0,1,.4,5.645,10.194,10.194,0,0,0,.052,1.131c.026.279.073.6.444.6.318,0,.313-.3.345-.521.054-.373.066-.751.108-1.126q.508-4.428,1.025-8.854a13.163,13.163,0,0,1,.258-1.534,2.418,2.418,0,0,1,1.83-1.971,13.427,13.427,0,0,1,5.738-.233c.459.1.905.261,1.36.385a5.514,5.514,0,0,1,3.765,3.358,12.863,12.863,0,0,1,.9,3.7q.3,2.814.593,5.629a1.482,1.482,0,0,0,.039.279c.039.127.039.284.227.314s.242-.106.266-.231c.186-.973.381-1.944.536-2.921.405-2.561.791-5.126,1.187-7.688a5.263,5.263,0,0,1,.12-.552c.459-1.714,1.1-2.239,2.879-2.357a9.681,9.681,0,0,1,4.322.486,9.583,9.583,0,0,1,1.524.735,4.382,4.382,0,0,1,2.2,4.151,20.005,20.005,0,0,1-.432,3.079,225.911,225.911,0,0,1-6.011,23.405c-.225.719-.442,1.443-.706,2.148a3.5,3.5,0,0,1-3.428,2.479c-.707.018-1.415,0-2.122,0,0,.03,0,.059,0,.089" transform="translate(-151.632 -14.834)" fill="#543019"></path><path d="M490.534,56.518a12.626,12.626,0,0,1-1.629,2.967,9.8,9.8,0,0,1-3.152,2.794,6.8,6.8,0,0,0-.737.419.806.806,0,0,0-.328.427c-.037.192.168.309.34.382s.354.127.532.191c3.509,1.247,4.066,5.642,2.025,8.115a7.428,7.428,0,0,1-1.8,1.583,9.293,9.293,0,0,1-2.18,1,15.161,15.161,0,0,1-9.737-.122,10.288,10.288,0,0,1-6.837-7.7,13.758,13.758,0,0,1-.355-6.3,4.864,4.864,0,0,0,.028-1.127.283.283,0,0,0-.159-.194.3.3,0,0,0-.258.015,2.1,2.1,0,0,0-.387.4,10.24,10.24,0,0,1-3.5,3.032c-.207.113-.416.225-.609.358a.384.384,0,0,0,.018.686c.251.128.518.223.773.342a5.108,5.108,0,0,1,1.926,7.948A7.006,7.006,0,0,1,461.479,74,14.6,14.6,0,0,1,449.4,73.69a10.19,10.19,0,0,1-5.591-7.57,23.3,23.3,0,0,1-.084-6.908,18.773,18.773,0,0,1,1.436-5.595,15.465,15.465,0,0,1,1.907-3.3,12.434,12.434,0,0,1,9.25-5.091,15.9,15.9,0,0,1,4.371.192,7.962,7.962,0,0,1,6.88,7.373c.032.28.049.562.1.839a.291.291,0,0,0,.188.173.286.286,0,0,0,.251-.051,5.933,5.933,0,0,0,.514-.838,14.835,14.835,0,0,1,1.693-2.772A12.643,12.643,0,0,1,479.5,45.2a13.781,13.781,0,0,1,5.6.548,7.554,7.554,0,0,1,5.414,5.97c.119.553.221,1.109.331,1.664a4.6,4.6,0,0,1-.308,3.14" transform="translate(-312.618 -31.804)" fill="#54301a"></path><path d="M381.244,36.655c.081,2.341-.339,4.581-.439,6.841-.037.847-.08,1.694-.139,2.54-.129,1.834-.269,3.668-.409,5.5-.047.611-.093,1.223-.167,1.831a10.383,10.383,0,0,1-.234,1.246,1.95,1.95,0,0,1-1.662,1.543,9.571,9.571,0,0,1-5.809-.652,3.925,3.925,0,0,1-2.2-2.946,13.515,13.515,0,0,1-.116-4.645c.129-.837.18-1.687.248-2.532.175-2.162.353-4.324.5-6.487a8.726,8.726,0,0,0-.062-1.69.876.876,0,0,0-.981-.81,2.364,2.364,0,0,0-1.993,1.162,7.014,7.014,0,0,0-1.02,2.467,33.846,33.846,0,0,0-.507,4.495c-.224,2.915-.4,5.835-.616,8.75a7.148,7.148,0,0,1-.3,1.519,1.889,1.889,0,0,1-1.613,1.409,9.934,9.934,0,0,1-5.286-.521,4.325,4.325,0,0,1-2.67-3.565,13.523,13.523,0,0,1-.136-3.664c.173-1.545.222-3.1.34-4.656.261-3.433.535-6.864.8-10.3.057-.752.071-1.508.124-2.261.056-.8.132-1.6.2-2.394a5.344,5.344,0,0,0,.073-.7c-.1-2.127.446-4.211.406-6.335a4.772,4.772,0,0,1,.256-1.243,1.7,1.7,0,0,1,1.492-1.328,18.036,18.036,0,0,1,5.9.191,1.514,1.514,0,0,1,1.168.912,11.719,11.719,0,0,1,1.281,5.3c-.009.141,0,.283-.012.424-.1,1.53.049,1.706,1.51,1.222a11.771,11.771,0,0,1,6.7-.078,6.271,6.271,0,0,1,4.3,3.6,10.873,10.873,0,0,1,1.087,4.5c0,.472,0,.943,0,1.345" transform="translate(-250.625 -13.45)" fill="#54301a"></path><path d="M602.864,76.231a16.419,16.419,0,0,0,.308-3.14.63.63,0,0,1,.262.025c-.013,1.681-.019,3.362-.043,5.043a2.391,2.391,0,0,1-.214,1.229,12.038,12.038,0,0,1-.029-2.305c-.007-.315.044-.646-.284-.851" transform="translate(-424.948 -51.518)" fill="#cbc0ba"></path><path d="M32.886,52.149a17.685,17.685,0,0,1-8.514-2.287,3.7,3.7,0,0,0-3.123-.327c-1.391.441-2.8.837-4.2,1.247a4.2,4.2,0,0,1-.687.148.3.3,0,0,1-.359-.32,7.445,7.445,0,0,1,.339-1.943,13.151,13.151,0,0,1,.522-1.758,5.889,5.889,0,0,0-.457-5.293,15.106,15.106,0,0,1-1.633-4.349,17.592,17.592,0,0,1,.675-10.42,21.081,21.081,0,0,1,3.742-6.283,17.42,17.42,0,0,1,10.628-5.946,22.008,22.008,0,0,1,4.505-.311,3.157,3.157,0,0,1,.83.145.244.244,0,0,1,.093.359c-.288.306-.6.589-.913.872A24.121,24.121,0,0,0,27.951,24.9a23.188,23.188,0,0,0,5.363,24.932c.532.534,1.1,1.026,1.66,1.538.134.123.316.229.226.451s-.3.2-.481.217c-.61.048-1.222.079-1.833.116" transform="translate(-10.074 -10.074)" fill="#fbfbfb"></path><path d="M147.586,32.5a18.582,18.582,0,0,1-2.434,9.625,4.216,4.216,0,0,0-.4,3.643c.386,1.211.67,2.453.989,3.685a6.8,6.8,0,0,1,.184.967c.022.2-.079.368-.324.343a3.232,3.232,0,0,1-.555-.1c-1.4-.4-2.827-.747-4.2-1.226a4,4,0,0,0-3.511.35,17.431,17.431,0,0,1-9.958,2.089c-.267-.018-.637.075-.761-.229-.166-.407.256-.54.488-.741a23,23,0,0,0,7.017-10.1,24.834,24.834,0,0,0,1.264-10.453,21.139,21.139,0,0,0-2.929-8.782,26.021,26.021,0,0,0-4.954-6.146c-.245-.221-.5-.436-.733-.665a.3.3,0,0,1,.124-.531,9.723,9.723,0,0,1,2.251-.193,18.9,18.9,0,0,1,17.862,14.7,19.214,19.214,0,0,1,.578,3.758" transform="translate(-89.223 -9.896)" fill="#fbfbfb"></path><path d="M80.391,85.032c2.919,0,5.838-.015,8.756.006,1.5.011,2.235.141,1.546,2.109-.186.531-.285,1.091-.441,1.633a.9.9,0,0,1-.919.724c-.329,0-.659.013-.988.013q-8.192-.006-16.385-.015c-1.445,0-1.46,0-1.953-1.3a12.19,12.19,0,0,1-.517-1.756.941.941,0,0,1,.745-1.175,7.227,7.227,0,0,1,1.964-.165q4.1,0,8.192,0Z" transform="translate(-48.962 -59.934)" fill="#f4b00a"></path><path d="M80.968,58.785c-3.02,0-6.04.006-9.06,0-1.762-.005-1.881-.169-1.451-1.9.091-.365.206-.725.3-1.09A1.707,1.707,0,0,1,72.5,54.43c.282-.014.565-.028.848-.03q7.289-.042,14.579-.074a12.94,12.94,0,0,1,1.688.12A1.376,1.376,0,0,1,90.824,55.5c.241.909.419,1.836.595,2.761a.393.393,0,0,1-.4.469c-.375.028-.753.038-1.13.039q-4.459,0-8.918,0Z" transform="translate(-49.516 -38.293)" fill="#efbc0d"></path><path d="M89.778,116.422h5.661c.236,0,.472,0,.707.016.452.033.6.307.346.648a14.325,14.325,0,0,1-3.183,3.195c-.426.3-.846.6-1.28.885a3.232,3.232,0,0,0-1.46,1.841,1.934,1.934,0,0,1-.31.624.612.612,0,0,1-1.111-.174,4.287,4.287,0,0,0-2.261-2.752,15.145,15.145,0,0,1-3.618-3.35,2.283,2.283,0,0,1-.229-.355.357.357,0,0,1,.232-.543c.28-.027.564-.034.846-.034q2.83,0,5.661,0" transform="translate(-58.496 -82.064)" fill="#f4a50e"></path><path d="M91.094,26.048c-1.648,0-3.3,0-4.944,0-.375,0-.752-.023-1.125-.059a.318.318,0,0,1-.236-.513,19.29,19.29,0,0,1,5.268-4.428,1.809,1.809,0,0,1,1.883.021,11.686,11.686,0,0,1,1.547.978c1.13.923,2.221,1.893,3.321,2.853a3.776,3.776,0,0,1,.471.522.365.365,0,0,1-.254.613c-.328.024-.658.025-.988.026q-2.472,0-4.944,0Z" transform="translate(-59.717 -14.655)" fill="#f4cb0e"></path><path d="M661.664,59.557a24.014,24.014,0,0,1-5.486-.57A4.246,4.246,0,0,1,653,56.233a3.452,3.452,0,0,1-.246-1.1,17.235,17.235,0,0,1,.024-3.109c.275-1.78.212-3.574.409-5.357.233-2.106.251-4.235.394-6.352.128-1.88.3-3.758.45-5.636.026-.329.045-.659.061-.989.1-2.119.2-4.238.311-6.357a3.345,3.345,0,0,1,.132-.833.854.854,0,0,1,.684-.646c.605-.09,1.212-.186,1.822-.229,1.317-.093,2.635-.171,3.954-.224a25.385,25.385,0,0,1,8.133.748,9.538,9.538,0,0,1,4.266,2.4,6.468,6.468,0,0,1,1.415,2.261,8.375,8.375,0,0,1,.417,1.931,11.839,11.839,0,0,1-.567,5.3,5.366,5.366,0,0,1-1.534,2.346c-.315.284-.616.586-.9.9-.342.372-.316.586.078.948a2.89,2.89,0,0,0,.328.269,5.762,5.762,0,0,1,2.332,3.6,12.414,12.414,0,0,1-.1,6.431,8,8,0,0,1-2.455,3.893,10.811,10.811,0,0,1-5.56,2.605,30.833,30.833,0,0,1-5.187.524" transform="translate(-460.073 -17.881)" fill="#f5a60e"></path><path d="M752.474,50.662c.464,0,.936-.017,1.407,0a6.99,6.99,0,0,1,4.449,1.924,5.586,5.586,0,0,1,1.865,3.555,7.874,7.874,0,0,1-2.919,7.674,10.088,10.088,0,0,1-3.2,1.773,19.918,19.918,0,0,1-4.827,1.019c-.611.038-1.22.115-1.827.2a.74.74,0,0,0-.686.889,2.4,2.4,0,0,0,.076.415,3.947,3.947,0,0,0,6.364,1.919,7.063,7.063,0,0,0,.594-.605,1.882,1.882,0,0,1,2.078-.477,3.319,3.319,0,0,1,2.362,3.956,4.236,4.236,0,0,1-1.8,2.619,8.226,8.226,0,0,1-2.536,1.224,15.748,15.748,0,0,1-7.969.094,8.455,8.455,0,0,1-5.408-4.032,9.8,9.8,0,0,1-1.493-5.238,26.858,26.858,0,0,1,.319-5.637,16.636,16.636,0,0,1,3.284-7.421,11.622,11.622,0,0,1,6.759-3.822,8.847,8.847,0,0,1,3.1-.03" transform="translate(-520.912 -35.625)" fill="#f5a60e"></path><path d="M838.407,57.445c0,.424.031.851-.006,1.271A6.3,6.3,0,0,1,836.8,62.4a10.405,10.405,0,0,1-5.186,3.251,28.825,28.825,0,0,1-5.274.932c-.188.017-.378,0-.565.022-.535.057-.723.3-.68.855a3.219,3.219,0,0,0,.553,1.583,3.847,3.847,0,0,0,5.991.574,2.358,2.358,0,0,1,2.769-.8,3.022,3.022,0,0,1,2.059,2.632,4.04,4.04,0,0,1-1.986,4.079,8.04,8.04,0,0,1-2.312,1.035,14.5,14.5,0,0,1-5.6.4,15.9,15.9,0,0,1-2.507-.391,9.466,9.466,0,0,1-6.674-8.283,23.088,23.088,0,0,1,.655-8.256,14.14,14.14,0,0,1,2.571-5.3,11.135,11.135,0,0,1,6.3-4.059,13.286,13.286,0,0,1,6.987.123,6.152,6.152,0,0,1,4.35,4.261,8.284,8.284,0,0,1,.16,2.386" transform="translate(-576.079 -35.434)" fill="#f5a60e"></path><path d="M902.334,77.248a18.322,18.322,0,0,1-5.716-.8,6.833,6.833,0,0,1-2.5-1.289,2.864,2.864,0,0,1-1.016-3.036,3.638,3.638,0,0,1,1.444-2.349,2,2,0,0,1,2.01-.228,7.216,7.216,0,0,1,.889.434,8.881,8.881,0,0,0,3.8.99,4.42,4.42,0,0,0,1.805-.288,1.17,1.17,0,0,0,.544-2.016,3.4,3.4,0,0,0-1.107-.863,17.738,17.738,0,0,0-2.849-1.242,8.138,8.138,0,0,1-3.568-2.46,5.562,5.562,0,0,1-1.494-3.865c.012-.613-.007-1.227-.011-1.84a7.161,7.161,0,0,1,2.671-5.555,9.462,9.462,0,0,1,4.848-2.157,17.477,17.477,0,0,1,5.072.056,5.492,5.492,0,0,1,4.735,5.353,3.931,3.931,0,0,1-4.162,4.17c-.189-.008-.378.006-.566-.006-.851-.056-1.052-.229-1.239-1.054-.042-.184-.067-.371-.107-.555-.459-2.07-3.076-2.242-4.178-1.088a1.854,1.854,0,0,0,.05,2.641,8.328,8.328,0,0,0,2.068,1.209c.79.31,1.582.614,2.38.9a9.082,9.082,0,0,1,4.017,3.022,4.9,4.9,0,0,1,1.005,2.307,8.1,8.1,0,0,1-2.478,7.721,5.6,5.6,0,0,1-1.915,1.175,10.993,10.993,0,0,1-4.436.706" transform="translate(-629.469 -35.615)" fill="#f5a60e"></path><path d="M607.309,48.946c.2-2.8.4-5.664.6-8.532.134-1.928.256-3.857.4-5.785.137-1.88.309-3.758.428-5.64.072-1.129.1-2.264.1-3.4a25.159,25.159,0,0,1,.268-3.239c.115-.916.358-1.162,1.253-1.195a20.219,20.219,0,0,1,2.4.036c2.31.191,3.426,1.408,3.676,3.726a8.675,8.675,0,0,1-.054,2.117c-.112.8-.145,1.595-.2,2.394-.153,2.3-.322,4.608-.49,6.911-.1,1.363-.153,2.729-.27,4.092-.205,2.395-.235,4.8-.4,7.2a2.342,2.342,0,0,0,1.575,2.679,1.121,1.121,0,0,1,.792,1.2A5.573,5.573,0,0,1,617,53.865a4.323,4.323,0,0,1-3.722,2.655,8.808,8.808,0,0,1-2.949-.253,3.4,3.4,0,0,1-2.148-1.724,5.441,5.441,0,0,1-.752-2.41c-.05-1.036-.078-2.074-.119-3.188" transform="translate(-428.081 -14.901)" fill="#f5a60e"></path><path d="M886.673,95.786c-.33-.1-.785-.222-1.222-.388-.7-.268-1.407-.538-2.086-.86a3.479,3.479,0,0,0-4.527,1.429c-.282.488-.559.979-.847,1.463a.307.307,0,0,1-.474-.055c-.091-.216-.178-.435-.247-.658a4.5,4.5,0,0,0-2.944-3.007,6.509,6.509,0,0,1-.655-.246.479.479,0,0,1-.036-.732,1.906,1.906,0,0,1,.356-.225,10.113,10.113,0,0,0,4.4-4.044c.19-.307.3-.809.714-.8.527.017.507.579.644.957a8.868,8.868,0,0,0,5.137,5.313c.65.274,1.3.541,1.949.823a1.734,1.734,0,0,1,.476.3c.1.088.212.262.183.355a.5.5,0,0,1-.415.332c-.093.013-.187.02-.412.042" transform="translate(-615.702 -61.794)" fill="#fbc04e"></path><path d="M852.336,110.508a2.008,2.008,0,0,1-1.565-.7.434.434,0,0,1,.174-.693.662.662,0,0,1,.129-.056c1.066-.175,2.131-.359,3.2-.514a.389.389,0,0,1,.384.57,2.311,2.311,0,0,1-2.322,1.387" transform="translate(-599.618 -76.512)" fill="#fbc04e"></path><path d="M774.248,110.572a2.455,2.455,0,0,1-1.432-.452.635.635,0,0,1-.254-.614.412.412,0,0,1,.387-.344c1.065-.168,2.13-.338,3.2-.478.32-.042.464.281.3.588a2.334,2.334,0,0,1-2.2,1.3" transform="translate(-544.558 -76.607)" fill="#fcc356"></path><path d="M926.269,76.92c.523-.008.849.147,1,.543a.744.744,0,0,1-.069.794.589.589,0,0,1-.765.1,4.818,4.818,0,0,1-.736-.4.53.53,0,0,1-.267-.6.6.6,0,0,1,.524-.408c.139-.02.28-.023.309-.026" transform="translate(-652.307 -54.219)" fill="#fbc04e"></path><path d="M239.68,38.084a2.342,2.342,0,0,0-.366,1.122q-.862,6.086-1.71,12.174c-.309,2.24-.607,4.481-1.117,6.687a6.5,6.5,0,0,1-.155.689,1.965,1.965,0,0,1-2.01,1.468,8.241,8.241,0,0,1-1.272-.035,5.593,5.593,0,0,0-1.69,0c-.184.033-.377.018-.565.033a3.747,3.747,0,0,1-4.105-2.565,13.544,13.544,0,0,1-.742-2.427q-1.855-7.912-3.673-15.831c-.528-2.3-1.048-4.593-1.538-6.9-.254-1.2-.447-2.408-.639-3.617a3,3,0,0,1,.022-.982,1.138,1.138,0,0,1,1.147-1.051,17.273,17.273,0,0,1,4.1.106,4.559,4.559,0,0,1,4.041,4.262c.241,2.627.545,5.248.837,7.87.234,2.107.493,4.211.735,6.317.145,1.264.278,2.529.421,3.792.031.272.006.571.292.76.269,0,.218-.231.253-.381a105.675,105.675,0,0,0,1.7-10.454c.341-2.711.7-5.419,1.035-8.131.064-.514.051-1.037.1-1.553.041-.421.111-.839.19-1.255a1.357,1.357,0,0,1,1-1.088,3.915,3.915,0,0,1,.961-.208,23.469,23.469,0,0,1,4.654.17,4.523,4.523,0,0,1,3.384,2.5,6.913,6.913,0,0,1,.788,2.408c.118.792.192,1.59.268,2.388.315,3.283.616,6.568.938,9.85.162,1.641.357,3.278.545,4.917a1.02,1.02,0,0,0,.139.391.485.485,0,0,0,.227.149c.021.009.079-.045.108-.08a1.776,1.776,0,0,0,.336-.913q.293-1.814.582-3.628.81-5.093,1.616-10.187.474-3,.938-6a6.429,6.429,0,0,1,.115-.7,1.511,1.511,0,0,1,1.59-1.319,9.584,9.584,0,0,1,3.5.331,4.935,4.935,0,0,1,1.633.821,2.783,2.783,0,0,1,1.147,2.308,18.506,18.506,0,0,1-.411,3.646q-2.516,12.118-6.191,23.936c-.055.18-.121.357-.19.533a2.319,2.319,0,0,1-2.672,1.808c-1.038.007-2.076,0-3.114,0a4.427,4.427,0,0,1-4.73-3.76,13.276,13.276,0,0,1-.256-1.534c-.22-2.251-.416-4.5-.631-6.756-.081-.844-.2-1.684-.287-2.528-.189-1.922-.361-3.847-.55-5.769a2.98,2.98,0,0,0-.722-1.789" transform="translate(-155.121 -18.878)" fill="#f5a60e"></path><path d="M448.37,66.065a19.383,19.383,0,0,1,1.639-8.388,11.871,11.871,0,0,1,5.677-6.062,12.721,12.721,0,0,1,3.517-1,14.989,14.989,0,0,1,4.5.024,7.134,7.134,0,0,1,4.86,2.857,4.3,4.3,0,0,1,.777,1.651c.9,3.956-.3,7.338-3.725,9.385a12.652,12.652,0,0,1-3.386,1.4,24.451,24.451,0,0,1-5.294.808c-.665.021-.833.257-.74.892a3.621,3.621,0,0,0,2.576,3.075,3.46,3.46,0,0,0,3.893-.863,1.126,1.126,0,0,0,.1-.1,2.133,2.133,0,0,1,2.351-.9,2.968,2.968,0,0,1,2.214,1.8,3.594,3.594,0,0,1-.713,4.063,7.505,7.505,0,0,1-4.326,2.22,16.818,16.818,0,0,1-6.869-.147,8.874,8.874,0,0,1-6.3-5.569,10.607,10.607,0,0,1-.748-4.426c0-.236,0-.471,0-.707" transform="translate(-316.046 -35.562)" fill="#f5a60e"></path><path d="M537.414,77.034a11.2,11.2,0,0,1-3.9-.482,9.1,9.1,0,0,1-6.4-6.582,9.62,9.62,0,0,1-.362-2.369,22.668,22.668,0,0,1,1.193-9.046,12.643,12.643,0,0,1,5.111-6.573,8.529,8.529,0,0,1,1.629-.842,13.479,13.479,0,0,1,8.739-.34,6.239,6.239,0,0,1,4.071,3.654,7.224,7.224,0,0,1,.415,2.5A7.4,7.4,0,0,1,545.725,63a10.343,10.343,0,0,1-3.567,2.246,21.368,21.368,0,0,1-4.665,1.1c-.746.1-1.5.152-2.248.24a.744.744,0,0,0-.716.984,3.533,3.533,0,0,0,2.387,2.918,3.655,3.655,0,0,0,3.954-.706c.169-.164.324-.343.488-.512a2.094,2.094,0,0,1,2.341-.519,2.7,2.7,0,0,1,2.143,2.794c0,.33-.018.66-.011.99a2.973,2.973,0,0,1-1.231,2.43,8.066,8.066,0,0,1-4.091,1.8,13.109,13.109,0,0,1-3.1.27" transform="translate(-371.27 -35.404)" fill="#f5a60e"></path><path d="M561.843,110.666a1.68,1.68,0,0,1-1.511-.678c-.29-.346-.214-.806.2-.895a16.057,16.057,0,0,1,3.313-.484.364.364,0,0,1,.317.5,2.225,2.225,0,0,1-2.32,1.561" transform="translate(-394.845 -76.557)" fill="#feca66"></path><path d="M483.5,110.51a2.144,2.144,0,0,1-1.365-.485.618.618,0,0,1-.244-.615c.048-.212.229-.284.408-.326.318-.073.64-.132.963-.181.738-.112,1.477-.226,2.218-.315a.391.391,0,0,1,.367.579,2.431,2.431,0,0,1-2.346,1.342" transform="translate(-339.665 -76.54)" fill="#ffcc6b"></path><path d="M360.673,51.264q.285-4.163.569-8.326.019-.283.028-.566c.08-2.546.306-5.082.543-7.617.132-1.408.126-2.825.258-4.237.2-2.111.27-4.234.38-6.352.053-1.011.325-1.343,1.32-1.462a17.2,17.2,0,0,1,4.074.2,1.753,1.753,0,0,1,1.338.94A4.841,4.841,0,0,1,369.808,26a18.216,18.216,0,0,1-.129,3.814,17.666,17.666,0,0,0-.09,2.685,1.223,1.223,0,0,0,.156.531.321.321,0,0,0,.47.155,4.887,4.887,0,0,0,.664-.52,7.851,7.851,0,0,1,5.93-1.776c.376.017.749.089,1.125.119a5.369,5.369,0,0,1,4.635,3.23,8.592,8.592,0,0,1,.823,3.559,35.278,35.278,0,0,1-.183,5.51c-.207,1.635-.265,3.289-.4,4.933-.143,1.786-.3,3.57-.438,5.356-.058.752-.065,1.509-.122,2.261-.075.978-.29,1.19-1.28,1.362a8.436,8.436,0,0,1-3.512-.168,3.164,3.164,0,0,1-2.237-2.18,5.817,5.817,0,0,1-.208-2.659c.052-.421.131-.841.147-1.263.089-2.31.318-4.608.528-6.908.128-1.407.094-2.829.119-4.244a2.791,2.791,0,0,0-.187-1.108c-.681-1.683-2.377-1.78-3.69-1.178a4.547,4.547,0,0,0-1.823,1.736,7.372,7.372,0,0,0-1.082,2.6,29.846,29.846,0,0,0-.606,4.763q-.135,3.108-.424,6.208c-.078.848-.115,1.693-.151,2.54a8.272,8.272,0,0,1-.093,1.127.785.785,0,0,1-.658.658,8.517,8.517,0,0,1-4.069-.117,3.056,3.056,0,0,1-2.269-2.787,22.813,22.813,0,0,1-.086-2.973" transform="translate(-254.223 -15.962)" fill="#f5a60e"></path><path d="M683.344,92.5c2.606-.039,4.075,1.406,4.1,3.9a4.875,4.875,0,0,1-.271,1.8,3.2,3.2,0,0,1-1.76,1.916,5.471,5.471,0,0,1-3.993.2.97.97,0,0,1-.745-.925,8.681,8.681,0,0,1,.03-1.69,26.215,26.215,0,0,0,.24-3.518c.008-.235.011-.471.029-.705a.814.814,0,0,1,.677-.789,6.7,6.7,0,0,1,1.7-.189" transform="translate(-479.773 -65.203)" fill="#58331b"></path><path d="M685.988,55a7.5,7.5,0,0,1-1.823-.217.7.7,0,0,1-.6-.687,3.435,3.435,0,0,1,0-.982,22.046,22.046,0,0,0,.253-3.509c.041-.987.3-1.242,1.27-1.291.516-.026,1.035-.036,1.551-.014a3.037,3.037,0,0,1,3.136,3.249,6.917,6.917,0,0,1-.115,1.258,2.636,2.636,0,0,1-1.743,1.89,4.6,4.6,0,0,1-1.927.3" transform="translate(-481.806 -34.039)" fill="#59351d"></path><path d="M771.419,74.319a2.094,2.094,0,0,1-1.05,2.094,6.257,6.257,0,0,1-3.841,1.17.493.493,0,0,1-.523-.535,5.907,5.907,0,0,1,1.776-4.453,3.274,3.274,0,0,1,.806-.562,1.921,1.921,0,0,1,2.831,1.665c.012.187,0,.376,0,.621" transform="translate(-539.942 -50.617)" fill="#58341c"></path><path d="M849.974,74.3a2.249,2.249,0,0,1-1.047,2.128,6.188,6.188,0,0,1-3.836,1.2c-.385,0-.59-.225-.582-.634a6.2,6.2,0,0,1,1.721-4.351,2.234,2.234,0,0,1,2.578-.6,1.943,1.943,0,0,1,1.167,2.069c0,.048,0,.094,0,.191" transform="translate(-595.278 -50.657)" fill="#58331b"></path><path d="M480.953,74.527a2.081,2.081,0,0,1-.759,1.646,5.913,5.913,0,0,1-3.858,1.481,1.648,1.648,0,0,1-.417-.052.693.693,0,0,1-.6-.811,7.208,7.208,0,0,1,1.393-3.631,2.746,2.746,0,0,1,2-1.172,1.97,1.97,0,0,1,2.209,1.866c.017.139.017.281.039.673" transform="translate(-335.033 -50.741)" fill="#59351c"></path><path d="M559.333,74.2a2.187,2.187,0,0,1-1.066,2.112,6.3,6.3,0,0,1-3.711,1.166c-.413.01-.648-.192-.645-.576A5.98,5.98,0,0,1,556,72.155a2.028,2.028,0,0,1,3.337,1.572c-.005.141,0,.283,0,.476" transform="translate(-390.441 -50.503)" fill="#58341c"></path><path d="M686.208,100.506c.048-.748.068-1.409.142-2.063a.809.809,0,0,1,.753-.722,3.844,3.844,0,0,1,1.675.161,1.325,1.325,0,0,1,.809.748,3.437,3.437,0,0,1,.254,2.48,1.955,1.955,0,0,1-1.791,1.566c-.188.02-.375.044-.564.049-1.1.027-1.287-.17-1.28-1.314,0-.331,0-.66,0-.9" transform="translate(-483.695 -68.854)" fill="#fdc65b"></path><path d="M689.024,55.534c.029-.419.034-.842.093-1.257a.616.616,0,0,1,.564-.538c.184-.027.372-.034.558-.043,1.433-.068,2.088.593,2.006,2.181a1.22,1.22,0,0,1-.845,1.168,4.446,4.446,0,0,1-1.505.3.771.771,0,0,1-.893-.831c-.014-.326,0-.654,0-.981h.025" transform="translate(-485.659 -37.846)" fill="#fdc55a"></path><path d="M774.792,78.466a1.512,1.512,0,0,1-.084.353,2.02,2.02,0,0,1-1.507,1.139.522.522,0,0,1-.6-.589,2.108,2.108,0,0,1,1.054-1.577.769.769,0,0,1,1.139.674" transform="translate(-544.586 -54.764)" fill="#fcc356"></path><path d="M852.807,78.25a1.21,1.21,0,0,1-.4,1.011,2.65,2.65,0,0,1-1.087.629.664.664,0,0,1-.666-.075c-.213-.189-.149-.429-.075-.649a3.1,3.1,0,0,1,.6-1.11,1.631,1.631,0,0,1,.68-.484.68.68,0,0,1,.951.677" transform="translate(-599.508 -54.644)" fill="#fbc04e"></path><path d="M484.061,78.418a1.291,1.291,0,0,1-.129.409,2.3,2.3,0,0,1-1.446,1.023.606.606,0,0,1-.722-.637,2.257,2.257,0,0,1,1.362-1.643c.487-.148.959.215.935.848" transform="translate(-339.585 -54.655)" fill="#ffcc6b"></path><path d="M560.37,79.873a.412.412,0,0,1-.391-.466,2.573,2.573,0,0,1,1.279-1.892.679.679,0,0,1,1.017.558,1.55,1.55,0,0,1-.114.672,2.091,2.091,0,0,1-1.791,1.128" transform="translate(-394.714 -54.578)" fill="#fecb69"></path></g></g></g></g></svg>